<?xml version="1.0" encoding="UTF-8"?>
<!-- Converted by misc2svg (http://www.network-science.de/tools/misc2svg/) -->
<svg xmlns="http://www.w3.org/2000/svg" xmlns:xlink="http://www.w3.org/1999/xlink" width="263pt" height="159pt" viewBox="0 0 263 159" version="1.1">
<g id="misc2svg">
<path style="fill:none;stroke-width:0.19925;stroke-linecap:butt;stroke-linejoin:miter;stroke:rgb(50.196078%,50.196078%,50.196078%);stroke-opacity:1;stroke-miterlimit:10;" d="M -71.244875 90.7105 L -71.244875 90.7105 M -68.032375 71.244875 L -68.032375 71.244875 " transform="matrix(1.25,0,0,-1.25,95.52875,95.40375)"/>
<path style="fill:none;stroke-width:0.3985;stroke-linecap:butt;stroke-linejoin:miter;stroke:rgb(0%,0%,0%);stroke-opacity:1;stroke-miterlimit:10;" d="M -71.244875 -0.002 L 70.78325 -0.002 " transform="matrix(1.25,0,0,-1.25,95.52875,95.40375)"/>
<path style="fill:none;stroke-width:0.31879;stroke-linecap:round;stroke-linejoin:round;stroke:rgb(0%,0%,0%);stroke-opacity:1;stroke-miterlimit:10;" d="M -1.19563 1.59175 C -1.09563 0.994875 -0.00188 0.101125 0.301245 -0.002 C -0.00188 -0.098875 -1.09563 -0.998875 -1.19563 -1.59575 " transform="matrix(1.25,0,0,-1.25,184.010163,95.40375)"/>
<path style=" stroke:none;fill-rule:nonzero;fill:rgb(0%,0%,0%);fill-opacity:1;" d="M 193.140625 94.316406 C 193.21875 94.003906 193.511719 92.851562 194.371094 92.851562 C 194.429688 92.851562 194.742188 92.851562 194.996094 93.007812 C 194.644531 93.085938 194.410156 93.378906 194.410156 93.691406 C 194.410156 93.886719 194.546875 94.121094 194.878906 94.121094 C 195.152344 94.121094 195.542969 93.90625 195.542969 93.398438 C 195.542969 92.753906 194.820312 92.578125 194.390625 92.578125 C 193.667969 92.578125 193.238281 93.242188 193.082031 93.515625 C 192.769531 92.695312 192.105469 92.578125 191.734375 92.578125 C 190.445312 92.578125 189.722656 94.179688 189.722656 94.492188 C 189.722656 94.628906 189.859375 94.628906 189.878906 94.628906 C 189.976562 94.628906 190.015625 94.589844 190.035156 94.492188 C 190.464844 93.164062 191.285156 92.851562 191.714844 92.851562 C 191.949219 92.851562 192.378906 92.96875 192.378906 93.691406 C 192.378906 94.082031 192.164062 94.902344 191.714844 96.660156 C 191.519531 97.421875 191.070312 97.949219 190.523438 97.949219 C 190.445312 97.949219 190.171875 97.949219 189.898438 97.792969 C 190.210938 97.714844 190.484375 97.460938 190.484375 97.109375 C 190.484375 96.777344 190.210938 96.679688 190.035156 96.679688 C 189.644531 96.679688 189.351562 96.992188 189.351562 97.402344 C 189.351562 97.96875 189.957031 98.222656 190.503906 98.222656 C 191.34375 98.222656 191.792969 97.34375 191.8125 97.285156 C 191.96875 97.734375 192.417969 98.222656 193.160156 98.222656 C 194.449219 98.222656 195.152344 96.621094 195.152344 96.308594 C 195.152344 96.171875 195.054688 96.171875 195.015625 96.171875 C 194.898438 96.171875 194.878906 96.230469 194.839844 96.308594 C 194.429688 97.65625 193.589844 97.949219 193.199219 97.949219 C 192.710938 97.949219 192.515625 97.558594 192.515625 97.128906 C 192.515625 96.855469 192.574219 96.582031 192.710938 96.035156 L 193.140625 94.316406 Z M 193.140625 94.316406 "/>
<path style="fill:none;stroke-width:0.3985;stroke-linecap:butt;stroke-linejoin:miter;stroke:rgb(0%,0%,0%);stroke-opacity:1;stroke-miterlimit:10;" d="M -0.001125 -45.35825 L -0.001125 44.898 " transform="matrix(1.25,0,0,-1.25,95.52875,95.40375)"/>
<path style="fill:none;stroke-width:0.31879;stroke-linecap:round;stroke-linejoin:round;stroke:rgb(0%,0%,0%);stroke-opacity:1;stroke-miterlimit:10;" d="M -1.195645 1.594875 C -1.09877 0.998 0.00123 0.098 0.298105 0.001125 C 0.00123 -0.098875 -1.09877 -0.99575 -1.195645 -1.592625 " transform="matrix(0,-1.25,-1.25,0,95.52875,39.282788)"/>
<path style="fill:none;stroke-width:0.3985;stroke-linecap:butt;stroke-linejoin:miter;stroke:rgb(100%,0%,0%);stroke-opacity:1;stroke-miterlimit:10;" d="M -71.244875 -28.6395 L -70.2855 -28.555125 L -69.332375 -28.455125 L -68.376125 -28.373875 L -67.419875 -28.27075 L -66.463625 -28.17075 L -65.50425 -28.067625 L -64.551125 -27.967625 L -63.594875 -27.8645 L -62.638625 -27.742625 L -61.682375 -27.64575 L -60.72925 -27.523875 L -59.769875 -27.40825 L -58.813625 -27.286375 L -57.857375 -27.17075 L -56.90425 -27.03325 L -55.948 -26.89575 L -54.988625 -26.75825 L -54.032375 -26.623875 L -53.07925 -26.47075 L -52.123 -26.317625 L -51.16675 -26.1645 L -50.207375 -26.0145 L -49.25425 -25.84575 L -48.298 -25.677 L -47.34175 -25.4895 L -46.3855 -25.327 L -45.432375 -25.127 L -44.473 -24.927 L -43.51675 -24.727 L -42.5605 -24.53325 L -41.607375 -24.305125 L -40.651125 -24.098875 L -39.69175 -23.85825 L -38.7355 -23.617625 L -37.782375 -23.3645 L -36.826125 -23.117625 L -35.869875 -22.842625 L -34.9105 -22.567625 L -33.95425 -22.28325 L -33.001125 -21.97075 L -32.044875 -21.6645 L -31.088625 -21.336375 L -30.12925 -21.002 L -29.176125 -20.642625 L -28.219875 -20.280125 L -27.263625 -19.898875 L -26.307375 -19.4895 L -25.35425 -19.080125 L -24.394875 -18.64575 L -23.438625 -18.192625 L -22.482375 -17.70825 L -21.52925 -17.217625 L -20.573 -16.705125 L -19.613625 -16.15825 L -18.657375 -15.602 L -17.70425 -15.02075 L -16.748 -14.42075 L -15.79175 -13.7895 L -14.832375 -13.13325 L -13.87925 -12.4395 L -12.923 -11.73325 L -11.96675 -10.998875 L -11.0105 -10.2395 L -10.057375 -9.45825 L -9.098 -8.648875 L -8.14175 -7.817625 L -7.1855 -6.942625 L -6.22925 -6.0645 L -5.276125 -5.17075 L -4.31675 -4.25825 L -3.3605 -3.33325 L -2.40425 -2.39575 L -1.451125 -1.427 L -0.494875 -0.477 L 0.4645 0.451125 L 1.42075 1.40425 L 2.373875 2.351125 L 3.330125 3.288625 L 4.286375 4.2355 L 5.24575 5.148 L 6.198875 6.04175 L 7.155125 6.919875 L 8.111375 7.776125 L 9.067625 8.607375 L 10.02075 9.4355 L 10.980125 10.219875 L 11.936375 10.97925 L 12.892625 11.713625 L 13.84575 12.419875 L 14.802 13.10425 L 15.761375 13.757375 L 16.717625 14.401125 L 17.67075 15.007375 L 18.627 15.588625 L 19.58325 16.148 L 20.542625 16.682375 L 21.49575 17.194875 L 22.452 17.698 L 23.40825 18.17925 L 24.3645 18.632375 L 25.323875 19.063625 L 26.277 19.476125 L 27.23325 19.8855 L 28.1895 20.263625 L 29.14575 20.626125 L 30.098875 20.982375 L 31.05825 21.323 L 32.0145 21.651125 L 32.97075 21.969875 L 33.923875 22.263625 L 34.880125 22.548 L 35.8395 22.838625 L 36.79575 23.101125 L 37.748875 23.36675 L 38.705125 23.619875 L 39.661375 23.85425 L 40.62075 24.07925 L 41.573875 24.307375 L 42.530125 24.513625 L 43.486375 24.72925 L 44.442625 24.923 L 45.39575 25.123 L 46.355125 25.307375 L 47.311375 25.49175 L 48.267625 25.67925 L 49.22075 25.84175 L 50.177 26.013625 L 51.136375 26.163625 L 52.092625 26.313625 L 53.04575 26.469875 L 54.002 26.623 L 54.95825 26.7605 L 55.917625 26.89175 L 56.873875 27.02925 L 57.827 27.151125 L 58.78325 27.288625 L 59.7395 27.40425 L 60.698875 27.526125 L 61.652 27.64175 L 62.60825 27.744875 L 63.5645 27.86675 L 64.52075 27.96675 L 65.473875 28.069875 L 66.43325 28.169875 L 67.3895 28.273 L 68.34575 28.373 L 69.298875 28.45425 L 70.255125 28.557375 L 71.2145 28.638625 " transform="matrix(1.25,0,0,-1.25,95.52875,95.40375)"/>
<path style=" stroke:none;fill-rule:nonzero;fill:rgb(100%,0%,0%);fill-opacity:1;" d="M 193.085938 61.78125 C 193.144531 62.269531 193.476562 62.796875 194.0625 62.796875 C 194.335938 62.796875 195.097656 62.621094 195.097656 61.605469 L 195.097656 60.902344 L 194.785156 60.902344 L 194.785156 61.605469 C 194.785156 62.328125 194.472656 62.40625 194.335938 62.40625 C 193.925781 62.40625 193.867188 61.839844 193.867188 61.78125 L 193.867188 59.300781 C 193.867188 58.773438 193.867188 58.285156 193.417969 57.816406 C 192.929688 57.328125 192.304688 57.132812 191.71875 57.132812 C 190.683594 57.132812 189.824219 57.71875 189.824219 58.539062 C 189.824219 58.910156 190.078125 59.125 190.410156 59.125 C 190.761719 59.125 190.976562 58.871094 190.976562 58.558594 C 190.976562 58.402344 190.917969 57.992188 190.332031 57.992188 C 190.683594 57.542969 191.289062 57.40625 191.679688 57.40625 C 192.304688 57.40625 193.007812 57.894531 193.007812 59.007812 L 193.007812 59.457031 C 192.363281 59.496094 191.503906 59.535156 190.722656 59.90625 C 189.785156 60.335938 189.472656 60.980469 189.472656 61.527344 C 189.472656 62.542969 190.683594 62.855469 191.464844 62.855469 C 192.285156 62.855469 192.851562 62.347656 193.085938 61.78125 Z M 193.007812 59.730469 L 193.007812 60.980469 C 193.007812 62.152344 192.109375 62.582031 191.542969 62.582031 C 190.9375 62.582031 190.429688 62.152344 190.429688 61.527344 C 190.429688 60.84375 190.957031 59.808594 193.007812 59.730469 Z M 193.007812 59.730469 "/>
<path style=" stroke:none;fill-rule:nonzero;fill:rgb(100%,0%,0%);fill-opacity:1;" d="M 197.261719 58.578125 L 197.261719 57.210938 L 195.523438 57.347656 L 195.523438 57.738281 C 196.402344 57.738281 196.5 57.816406 196.5 58.441406 L 196.5 61.78125 C 196.5 62.328125 196.363281 62.328125 195.523438 62.328125 L 195.523438 62.71875 C 196.011719 62.699219 196.597656 62.679688 196.949219 62.679688 C 197.4375 62.679688 198.023438 62.679688 198.53125 62.71875 L 198.53125 62.328125 L 198.257812 62.328125 C 197.339844 62.328125 197.320312 62.191406 197.320312 61.742188 L 197.320312 59.828125 C 197.320312 58.597656 197.847656 57.484375 198.785156 57.484375 C 198.863281 57.484375 198.902344 57.484375 198.921875 57.503906 C 198.882812 57.503906 198.628906 57.660156 198.628906 57.992188 C 198.628906 58.324219 198.902344 58.519531 199.175781 58.519531 C 199.390625 58.519531 199.703125 58.363281 199.703125 57.972656 C 199.703125 57.582031 199.3125 57.210938 198.785156 57.210938 C 197.867188 57.210938 197.417969 58.050781 197.261719 58.578125 Z M 197.261719 58.578125 "/>
<path style=" stroke:none;fill-rule:nonzero;fill:rgb(100%,0%,0%);fill-opacity:1;" d="M 201.511719 60.003906 C 201.511719 57.972656 202.527344 57.445312 203.191406 57.445312 C 203.308594 57.445312 204.089844 57.464844 204.519531 57.914062 C 204.011719 57.953125 203.933594 58.324219 203.933594 58.480469 C 203.933594 58.8125 204.167969 59.046875 204.5 59.046875 C 204.832031 59.046875 205.085938 58.851562 205.085938 58.460938 C 205.085938 57.621094 204.128906 57.132812 203.171875 57.132812 C 201.609375 57.132812 200.476562 58.480469 200.476562 60.023438 C 200.476562 61.625 201.707031 62.855469 203.152344 62.855469 C 204.8125 62.855469 205.222656 61.351562 205.222656 61.234375 C 205.222656 61.117188 205.085938 61.117188 205.046875 61.117188 C 204.949219 61.117188 204.910156 61.15625 204.890625 61.234375 C 204.539062 62.386719 203.71875 62.542969 203.269531 62.542969 C 202.605469 62.542969 201.511719 62.015625 201.511719 60.003906 Z M 201.511719 60.003906 "/>
<path style=" stroke:none;fill-rule:nonzero;fill:rgb(100%,0%,0%);fill-opacity:1;" d="M 207.730469 57.738281 L 209.527344 57.738281 L 209.527344 57.347656 L 207.730469 57.347656 L 207.730469 55.0625 L 207.417969 55.0625 C 207.417969 56.078125 207.046875 57.40625 205.816406 57.464844 L 205.816406 57.738281 L 206.871094 57.738281 L 206.871094 61.175781 C 206.871094 62.699219 208.042969 62.855469 208.492188 62.855469 C 209.371094 62.855469 209.722656 61.976562 209.722656 61.175781 L 209.722656 60.472656 L 209.410156 60.472656 L 209.410156 61.15625 C 209.410156 62.074219 209.039062 62.542969 208.570312 62.542969 C 207.730469 62.542969 207.730469 61.410156 207.730469 61.195312 L 207.730469 57.738281 Z M 207.730469 57.738281 "/>
<path style=" stroke:none;fill-rule:nonzero;fill:rgb(100%,0%,0%);fill-opacity:1;" d="M 214.566406 61.78125 C 214.625 62.269531 214.957031 62.796875 215.542969 62.796875 C 215.816406 62.796875 216.578125 62.621094 216.578125 61.605469 L 216.578125 60.902344 L 216.265625 60.902344 L 216.265625 61.605469 C 216.265625 62.328125 215.953125 62.40625 215.816406 62.40625 C 215.40625 62.40625 215.347656 61.839844 215.347656 61.78125 L 215.347656 59.300781 C 215.347656 58.773438 215.347656 58.285156 214.898438 57.816406 C 214.410156 57.328125 213.785156 57.132812 213.199219 57.132812 C 212.164062 57.132812 211.304688 57.71875 211.304688 58.539062 C 211.304688 58.910156 211.558594 59.125 211.890625 59.125 C 212.242188 59.125 212.457031 58.871094 212.457031 58.558594 C 212.457031 58.402344 212.398438 57.992188 211.8125 57.992188 C 212.164062 57.542969 212.769531 57.40625 213.160156 57.40625 C 213.785156 57.40625 214.488281 57.894531 214.488281 59.007812 L 214.488281 59.457031 C 213.84375 59.496094 212.984375 59.535156 212.203125 59.90625 C 211.265625 60.335938 210.953125 60.980469 210.953125 61.527344 C 210.953125 62.542969 212.164062 62.855469 212.945312 62.855469 C 213.765625 62.855469 214.332031 62.347656 214.566406 61.78125 Z M 214.488281 59.730469 L 214.488281 60.980469 C 214.488281 62.152344 213.589844 62.582031 213.023438 62.582031 C 212.417969 62.582031 211.910156 62.152344 211.910156 61.527344 C 211.910156 60.84375 212.4375 59.808594 214.488281 59.730469 Z M 214.488281 59.730469 "/>
<path style=" stroke:none;fill-rule:nonzero;fill:rgb(100%,0%,0%);fill-opacity:1;" d="M 218.019531 58.441406 L 218.019531 61.78125 C 218.019531 62.328125 217.882812 62.328125 217.042969 62.328125 L 217.042969 62.71875 C 217.492188 62.699219 218.117188 62.679688 218.46875 62.679688 C 218.78125 62.679688 219.425781 62.699219 219.855469 62.71875 L 219.855469 62.328125 C 219.015625 62.328125 218.878906 62.328125 218.878906 61.78125 L 218.878906 59.476562 C 218.878906 58.1875 219.777344 57.484375 220.558594 57.484375 C 221.359375 57.484375 221.496094 58.148438 221.496094 58.871094 L 221.496094 61.78125 C 221.496094 62.328125 221.359375 62.328125 220.519531 62.328125 L 220.519531 62.71875 C 220.949219 62.699219 221.59375 62.679688 221.925781 62.679688 C 222.238281 62.679688 222.902344 62.699219 223.3125 62.71875 L 223.3125 62.328125 C 222.667969 62.328125 222.355469 62.328125 222.355469 61.957031 L 222.355469 59.574219 C 222.355469 58.5 222.355469 58.128906 221.964844 57.679688 C 221.789062 57.464844 221.378906 57.210938 220.65625 57.210938 C 219.738281 57.210938 219.152344 57.738281 218.800781 58.519531 L 218.800781 57.210938 L 217.042969 57.347656 L 217.042969 57.738281 C 217.921875 57.738281 218.019531 57.816406 218.019531 58.441406 Z M 218.019531 58.441406 "/>
<path style=" stroke:none;fill-rule:nonzero;fill:rgb(100%,0%,0%);fill-opacity:1;" d="M 227.691406 65.707031 C 227.691406 65.667969 227.691406 65.648438 227.476562 65.433594 C 225.933594 63.871094 225.523438 61.507812 225.523438 59.59375 C 225.523438 57.425781 225.992188 55.257812 227.535156 53.714844 C 227.691406 53.558594 227.691406 53.539062 227.691406 53.5 C 227.691406 53.402344 227.652344 53.363281 227.574219 53.363281 C 227.4375 53.363281 226.324219 54.222656 225.582031 55.804688 C 224.957031 57.171875 224.800781 58.558594 224.800781 59.59375 C 224.800781 60.570312 224.9375 62.074219 225.621094 63.5 C 226.382812 65.023438 227.4375 65.84375 227.574219 65.84375 C 227.652344 65.84375 227.691406 65.804688 227.691406 65.707031 Z M 227.691406 65.707031 "/>
<path style=" stroke:none;fill-rule:nonzero;fill:rgb(100%,0%,0%);fill-opacity:1;" d="M 232.574219 58.949219 C 232.652344 58.636719 232.945312 57.484375 233.804688 57.484375 C 233.863281 57.484375 234.175781 57.484375 234.429688 57.640625 C 234.078125 57.71875 233.84375 58.011719 233.84375 58.324219 C 233.84375 58.519531 233.980469 58.753906 234.3125 58.753906 C 234.585938 58.753906 234.976562 58.539062 234.976562 58.03125 C 234.976562 57.386719 234.253906 57.210938 233.824219 57.210938 C 233.101562 57.210938 232.671875 57.875 232.515625 58.148438 C 232.203125 57.328125 231.539062 57.210938 231.167969 57.210938 C 229.878906 57.210938 229.15625 58.8125 229.15625 59.125 C 229.15625 59.261719 229.292969 59.261719 229.3125 59.261719 C 229.410156 59.261719 229.449219 59.222656 229.46875 59.125 C 229.898438 57.796875 230.71875 57.484375 231.148438 57.484375 C 231.382812 57.484375 231.8125 57.601562 231.8125 58.324219 C 231.8125 58.714844 231.597656 59.535156 231.148438 61.292969 C 230.953125 62.054688 230.503906 62.582031 229.957031 62.582031 C 229.878906 62.582031 229.605469 62.582031 229.332031 62.425781 C 229.644531 62.347656 229.917969 62.09375 229.917969 61.742188 C 229.917969 61.410156 229.644531 61.3125 229.46875 61.3125 C 229.078125 61.3125 228.785156 61.625 228.785156 62.035156 C 228.785156 62.601562 229.390625 62.855469 229.9375 62.855469 C 230.777344 62.855469 231.226562 61.976562 231.246094 61.917969 C 231.402344 62.367188 231.851562 62.855469 232.59375 62.855469 C 233.882812 62.855469 234.585938 61.253906 234.585938 60.941406 C 234.585938 60.804688 234.488281 60.804688 234.449219 60.804688 C 234.332031 60.804688 234.3125 60.863281 234.273438 60.941406 C 233.863281 62.289062 233.023438 62.582031 232.632812 62.582031 C 232.144531 62.582031 231.949219 62.191406 231.949219 61.761719 C 231.949219 61.488281 232.007812 61.214844 232.144531 60.667969 L 232.574219 58.949219 Z M 232.574219 58.949219 "/>
<path style=" stroke:none;fill-rule:nonzero;fill:rgb(100%,0%,0%);fill-opacity:1;" d="M 239.125 59.59375 C 239.125 58.636719 238.988281 57.132812 238.304688 55.707031 C 237.5625 54.183594 236.488281 53.363281 236.371094 53.363281 C 236.292969 53.363281 236.234375 53.421875 236.234375 53.5 C 236.234375 53.539062 236.234375 53.558594 236.46875 53.792969 C 237.699219 55.023438 238.402344 56.996094 238.402344 59.59375 C 238.402344 61.742188 237.953125 63.929688 236.410156 65.492188 C 236.234375 65.648438 236.234375 65.667969 236.234375 65.707031 C 236.234375 65.785156 236.292969 65.84375 236.371094 65.84375 C 236.488281 65.84375 237.621094 64.984375 238.34375 63.402344 C 238.988281 62.035156 239.125 60.648438 239.125 59.59375 Z M 239.125 59.59375 "/>
<path style="fill:none;stroke-width:0.3985;stroke-linecap:butt;stroke-linejoin:miter;stroke:rgb(0%,0%,100%);stroke-opacity:1;stroke-miterlimit:10;" d="M -71.244875 28.638625 L -65.307375 28.044875 L -59.369875 27.36675 L -53.4355 26.526125 L -47.498 25.52925 L -41.5605 24.307375 L -35.623 22.776125 L -29.6855 20.826125 L -23.748 18.32925 L -17.8105 15.09175 L -11.876125 10.92925 L -5.938625 5.788625 L -0.001125 -0.002 L 5.936375 -5.7895 L 11.873875 -10.927 L 17.811375 -15.092625 L 23.74575 -18.33325 L 29.68325 -20.827 L 35.62075 -22.773875 L 41.55825 -24.305125 L 47.49575 -25.530125 L 53.43325 -26.530125 L 59.3645 -27.367625 L 65.302 -28.048875 L 71.2395 -28.6395 " transform="matrix(1.25,0,0,-1.25,95.52875,95.40375)"/>
<path style=" stroke:none;fill-rule:nonzero;fill:rgb(0%,0%,100%);fill-opacity:1;" d="M 197.183594 131.445312 C 197.398438 131.445312 197.632812 131.445312 197.632812 131.191406 C 197.632812 130.957031 197.398438 130.957031 197.183594 130.957031 L 190.445312 130.957031 C 190.230469 130.957031 190.015625 130.957031 190.015625 131.191406 C 190.015625 131.445312 190.230469 131.445312 190.445312 131.445312 L 197.183594 131.445312 Z M 197.183594 131.445312 "/>
<path style=" stroke:none;fill-rule:nonzero;fill:rgb(0%,0%,100%);fill-opacity:1;" d="M 204.878906 133.378906 C 204.9375 133.867188 205.269531 134.394531 205.855469 134.394531 C 206.128906 134.394531 206.890625 134.21875 206.890625 133.203125 L 206.890625 132.5 L 206.578125 132.5 L 206.578125 133.203125 C 206.578125 133.925781 206.265625 134.003906 206.128906 134.003906 C 205.71875 134.003906 205.660156 133.4375 205.660156 133.378906 L 205.660156 130.898438 C 205.660156 130.371094 205.660156 129.882812 205.210938 129.414062 C 204.722656 128.925781 204.097656 128.730469 203.511719 128.730469 C 202.476562 128.730469 201.617188 129.316406 201.617188 130.136719 C 201.617188 130.507812 201.871094 130.722656 202.203125 130.722656 C 202.554688 130.722656 202.769531 130.46875 202.769531 130.15625 C 202.769531 130 202.710938 129.589844 202.125 129.589844 C 202.476562 129.140625 203.082031 129.003906 203.472656 129.003906 C 204.097656 129.003906 204.800781 129.492188 204.800781 130.605469 L 204.800781 131.054688 C 204.15625 131.09375 203.296875 131.132812 202.515625 131.503906 C 201.578125 131.933594 201.265625 132.578125 201.265625 133.125 C 201.265625 134.140625 202.476562 134.453125 203.257812 134.453125 C 204.078125 134.453125 204.644531 133.945312 204.878906 133.378906 Z M 204.800781 131.328125 L 204.800781 132.578125 C 204.800781 133.75 203.902344 134.179688 203.335938 134.179688 C 202.730469 134.179688 202.222656 133.75 202.222656 133.125 C 202.222656 132.441406 202.75 131.40625 204.800781 131.328125 Z M 204.800781 131.328125 "/>
<path style=" stroke:none;fill-rule:nonzero;fill:rgb(0%,0%,100%);fill-opacity:1;" d="M 209.054688 130.175781 L 209.054688 128.808594 L 207.316406 128.945312 L 207.316406 129.335938 C 208.195312 129.335938 208.292969 129.414062 208.292969 130.039062 L 208.292969 133.378906 C 208.292969 133.925781 208.15625 133.925781 207.316406 133.925781 L 207.316406 134.316406 C 207.804688 134.296875 208.390625 134.277344 208.742188 134.277344 C 209.230469 134.277344 209.816406 134.277344 210.324219 134.316406 L 210.324219 133.925781 L 210.050781 133.925781 C 209.132812 133.925781 209.113281 133.789062 209.113281 133.339844 L 209.113281 131.425781 C 209.113281 130.195312 209.640625 129.082031 210.578125 129.082031 C 210.65625 129.082031 210.695312 129.082031 210.714844 129.101562 C 210.675781 129.101562 210.421875 129.257812 210.421875 129.589844 C 210.421875 129.921875 210.695312 130.117188 210.96875 130.117188 C 211.183594 130.117188 211.496094 129.960938 211.496094 129.570312 C 211.496094 129.179688 211.105469 128.808594 210.578125 128.808594 C 209.660156 128.808594 209.210938 129.648438 209.054688 130.175781 Z M 209.054688 130.175781 "/>
<path style=" stroke:none;fill-rule:nonzero;fill:rgb(0%,0%,100%);fill-opacity:1;" d="M 213.308594 131.601562 C 213.308594 129.570312 214.324219 129.042969 214.988281 129.042969 C 215.105469 129.042969 215.886719 129.0625 216.316406 129.511719 C 215.808594 129.550781 215.730469 129.921875 215.730469 130.078125 C 215.730469 130.410156 215.964844 130.644531 216.296875 130.644531 C 216.628906 130.644531 216.882812 130.449219 216.882812 130.058594 C 216.882812 129.21875 215.925781 128.730469 214.96875 128.730469 C 213.40625 128.730469 212.273438 130.078125 212.273438 131.621094 C 212.273438 133.222656 213.503906 134.453125 214.949219 134.453125 C 216.609375 134.453125 217.019531 132.949219 217.019531 132.832031 C 217.019531 132.714844 216.882812 132.714844 216.84375 132.714844 C 216.746094 132.714844 216.707031 132.753906 216.6875 132.832031 C 216.335938 133.984375 215.515625 134.140625 215.066406 134.140625 C 214.402344 134.140625 213.308594 133.613281 213.308594 131.601562 Z M 213.308594 131.601562 "/>
<path style=" stroke:none;fill-rule:nonzero;fill:rgb(0%,0%,100%);fill-opacity:1;" d="M 219.527344 129.335938 L 221.324219 129.335938 L 221.324219 128.945312 L 219.527344 128.945312 L 219.527344 126.660156 L 219.214844 126.660156 C 219.214844 127.675781 218.84375 129.003906 217.613281 129.0625 L 217.613281 129.335938 L 218.667969 129.335938 L 218.667969 132.773438 C 218.667969 134.296875 219.839844 134.453125 220.289062 134.453125 C 221.167969 134.453125 221.519531 133.574219 221.519531 132.773438 L 221.519531 132.070312 L 221.207031 132.070312 L 221.207031 132.753906 C 221.207031 133.671875 220.835938 134.140625 220.367188 134.140625 C 219.527344 134.140625 219.527344 133.007812 219.527344 132.792969 L 219.527344 129.335938 Z M 219.527344 129.335938 "/>
<path style=" stroke:none;fill-rule:nonzero;fill:rgb(0%,0%,100%);fill-opacity:1;" d="M 226.363281 133.378906 C 226.421875 133.867188 226.753906 134.394531 227.339844 134.394531 C 227.613281 134.394531 228.375 134.21875 228.375 133.203125 L 228.375 132.5 L 228.0625 132.5 L 228.0625 133.203125 C 228.0625 133.925781 227.75 134.003906 227.613281 134.003906 C 227.203125 134.003906 227.144531 133.4375 227.144531 133.378906 L 227.144531 130.898438 C 227.144531 130.371094 227.144531 129.882812 226.695312 129.414062 C 226.207031 128.925781 225.582031 128.730469 224.996094 128.730469 C 223.960938 128.730469 223.101562 129.316406 223.101562 130.136719 C 223.101562 130.507812 223.355469 130.722656 223.6875 130.722656 C 224.039062 130.722656 224.253906 130.46875 224.253906 130.15625 C 224.253906 130 224.195312 129.589844 223.609375 129.589844 C 223.960938 129.140625 224.566406 129.003906 224.957031 129.003906 C 225.582031 129.003906 226.285156 129.492188 226.285156 130.605469 L 226.285156 131.054688 C 225.640625 131.09375 224.78125 131.132812 224 131.503906 C 223.0625 131.933594 222.75 132.578125 222.75 133.125 C 222.75 134.140625 223.960938 134.453125 224.742188 134.453125 C 225.5625 134.453125 226.128906 133.945312 226.363281 133.378906 Z M 226.285156 131.328125 L 226.285156 132.578125 C 226.285156 133.75 225.386719 134.179688 224.820312 134.179688 C 224.214844 134.179688 223.707031 133.75 223.707031 133.125 C 223.707031 132.441406 224.234375 131.40625 226.285156 131.328125 Z M 226.285156 131.328125 "/>
<path style=" stroke:none;fill-rule:nonzero;fill:rgb(0%,0%,100%);fill-opacity:1;" d="M 229.816406 130.039062 L 229.816406 133.378906 C 229.816406 133.925781 229.679688 133.925781 228.839844 133.925781 L 228.839844 134.316406 C 229.289062 134.296875 229.914062 134.277344 230.265625 134.277344 C 230.578125 134.277344 231.222656 134.296875 231.652344 134.316406 L 231.652344 133.925781 C 230.8125 133.925781 230.675781 133.925781 230.675781 133.378906 L 230.675781 131.074219 C 230.675781 129.785156 231.574219 129.082031 232.355469 129.082031 C 233.15625 129.082031 233.292969 129.746094 233.292969 130.46875 L 233.292969 133.378906 C 233.292969 133.925781 233.15625 133.925781 232.316406 133.925781 L 232.316406 134.316406 C 232.746094 134.296875 233.390625 134.277344 233.722656 134.277344 C 234.035156 134.277344 234.699219 134.296875 235.109375 134.316406 L 235.109375 133.925781 C 234.464844 133.925781 234.152344 133.925781 234.152344 133.554688 L 234.152344 131.171875 C 234.152344 130.097656 234.152344 129.726562 233.761719 129.277344 C 233.585938 129.0625 233.175781 128.808594 232.453125 128.808594 C 231.535156 128.808594 230.949219 129.335938 230.597656 130.117188 L 230.597656 128.808594 L 228.839844 128.945312 L 228.839844 129.335938 C 229.71875 129.335938 229.816406 129.414062 229.816406 130.039062 Z M 229.816406 130.039062 "/>
<path style=" stroke:none;fill-rule:nonzero;fill:rgb(0%,0%,100%);fill-opacity:1;" d="M 239.488281 137.304688 C 239.488281 137.265625 239.488281 137.246094 239.273438 137.03125 C 237.730469 135.46875 237.320312 133.105469 237.320312 131.191406 C 237.320312 129.023438 237.789062 126.855469 239.332031 125.3125 C 239.488281 125.15625 239.488281 125.136719 239.488281 125.097656 C 239.488281 125 239.449219 124.960938 239.371094 124.960938 C 239.234375 124.960938 238.121094 125.820312 237.378906 127.402344 C 236.753906 128.769531 236.597656 130.15625 236.597656 131.191406 C 236.597656 132.167969 236.734375 133.671875 237.417969 135.097656 C 238.179688 136.621094 239.234375 137.441406 239.371094 137.441406 C 239.449219 137.441406 239.488281 137.402344 239.488281 137.304688 Z M 239.488281 137.304688 "/>
<path style=" stroke:none;fill-rule:nonzero;fill:rgb(0%,0%,100%);fill-opacity:1;" d="M 244.371094 130.546875 C 244.449219 130.234375 244.742188 129.082031 245.601562 129.082031 C 245.660156 129.082031 245.972656 129.082031 246.226562 129.238281 C 245.875 129.316406 245.640625 129.609375 245.640625 129.921875 C 245.640625 130.117188 245.777344 130.351562 246.109375 130.351562 C 246.382812 130.351562 246.773438 130.136719 246.773438 129.628906 C 246.773438 128.984375 246.050781 128.808594 245.621094 128.808594 C 244.898438 128.808594 244.46875 129.472656 244.3125 129.746094 C 244 128.925781 243.335938 128.808594 242.964844 128.808594 C 241.675781 128.808594 240.953125 130.410156 240.953125 130.722656 C 240.953125 130.859375 241.089844 130.859375 241.109375 130.859375 C 241.207031 130.859375 241.246094 130.820312 241.265625 130.722656 C 241.695312 129.394531 242.515625 129.082031 242.945312 129.082031 C 243.179688 129.082031 243.609375 129.199219 243.609375 129.921875 C 243.609375 130.3125 243.394531 131.132812 242.945312 132.890625 C 242.75 133.652344 242.300781 134.179688 241.753906 134.179688 C 241.675781 134.179688 241.402344 134.179688 241.128906 134.023438 C 241.441406 133.945312 241.714844 133.691406 241.714844 133.339844 C 241.714844 133.007812 241.441406 132.910156 241.265625 132.910156 C 240.875 132.910156 240.582031 133.222656 240.582031 133.632812 C 240.582031 134.199219 241.1875 134.453125 241.734375 134.453125 C 242.574219 134.453125 243.023438 133.574219 243.042969 133.515625 C 243.199219 133.964844 243.648438 134.453125 244.390625 134.453125 C 245.679688 134.453125 246.382812 132.851562 246.382812 132.539062 C 246.382812 132.402344 246.285156 132.402344 246.246094 132.402344 C 246.128906 132.402344 246.109375 132.460938 246.070312 132.539062 C 245.660156 133.886719 244.820312 134.179688 244.429688 134.179688 C 243.941406 134.179688 243.746094 133.789062 243.746094 133.359375 C 243.746094 133.085938 243.804688 132.8125 243.941406 132.265625 L 244.371094 130.546875 Z M 244.371094 130.546875 "/>
<path style=" stroke:none;fill-rule:nonzero;fill:rgb(0%,0%,100%);fill-opacity:1;" d="M 250.921875 131.191406 C 250.921875 130.234375 250.785156 128.730469 250.101562 127.304688 C 249.359375 125.78125 248.285156 124.960938 248.167969 124.960938 C 248.089844 124.960938 248.03125 125.019531 248.03125 125.097656 C 248.03125 125.136719 248.03125 125.15625 248.265625 125.390625 C 249.496094 126.621094 250.199219 128.59375 250.199219 131.191406 C 250.199219 133.339844 249.75 135.527344 248.207031 137.089844 C 248.03125 137.246094 248.03125 137.265625 248.03125 137.304688 C 248.03125 137.382812 248.089844 137.441406 248.167969 137.441406 C 248.285156 137.441406 249.417969 136.582031 250.140625 135 C 250.785156 133.632812 250.921875 132.246094 250.921875 131.191406 Z M 250.921875 131.191406 "/>
</g>
</svg>
