<?xml version="1.0" encoding="UTF-8"?>
<!-- Converted by misc2svg (http://www.network-science.de/tools/misc2svg/) -->
<svg xmlns="http://www.w3.org/2000/svg" xmlns:xlink="http://www.w3.org/1999/xlink" width="188pt" height="179pt" viewBox="0 0 188 179" version="1.1">
<g id="misc2svg">
<path style="fill-rule:nonzero;fill:rgb(87.45098%,87.45098%,87.45098%);fill-opacity:1;stroke-width:0.3985;stroke-linecap:butt;stroke-linejoin:miter;stroke:rgb(0%,0%,0%);stroke-opacity:1;stroke-miterlimit:10;" d="M -9.919875 -0.00175 C -9.919875 31.313875 -13.094875 56.695125 -17.0105 56.695125 C -20.923 56.695125 -24.094875 31.313875 -24.094875 -0.00175 C -24.094875 -31.311125 -20.923 -56.6955 -17.0105 -56.6955 C -13.094875 -56.6955 -9.919875 -31.311125 -9.919875 -0.00175 Z M -9.919875 -0.00175 " transform="matrix(1.25,0,0,-1.25,77.34125,101.24)"/>
<path style="fill-rule:nonzero;fill:rgb(87.45098%,87.45098%,87.45098%);fill-opacity:1;stroke-width:0.3985;stroke-linecap:butt;stroke-linejoin:miter;stroke:rgb(87.45098%,87.45098%,87.45098%);stroke-opacity:1;stroke-miterlimit:10;" d="M -17.0105 -56.6955 C -23.1605 -12.904875 -23.1605 12.907625 -17.0105 56.695125 L -0.001125 56.695125 C -6.15425 12.907625 -6.15425 -12.904875 -0.001125 -56.6955 L -17.0105 -56.6955 Z M -17.0105 -56.6955 " transform="matrix(1.25,0,0,-1.25,77.34125,101.24)"/>
<path style="fill-rule:nonzero;fill:rgb(74.901961%,74.901961%,74.901961%);fill-opacity:1;stroke-width:0.3985;stroke-linecap:butt;stroke-linejoin:miter;stroke:rgb(0%,0%,0%);stroke-opacity:1;stroke-miterlimit:10;" d="M 7.0895 -0.00175 C 7.0895 31.313875 3.911375 56.695125 -0.001125 56.695125 C -3.9105 56.695125 -7.088625 31.313875 -7.088625 -0.00175 C -7.088625 -31.311125 -3.9105 -56.6955 -0.001125 -56.6955 C 3.911375 -56.6955 7.0895 -31.311125 7.0895 -0.00175 Z M 7.0895 -0.00175 " transform="matrix(1.25,0,0,-1.25,77.34125,101.24)"/>
<path style="fill:none;stroke-width:0.3985;stroke-linecap:butt;stroke-linejoin:miter;stroke:rgb(0%,0%,0%);stroke-opacity:1;stroke-miterlimit:10;" d="M -17.0105 56.695125 L -0.001125 56.695125 " transform="matrix(1.25,0,0,-1.25,77.34125,101.24)"/>
<path style="fill:none;stroke-width:0.3985;stroke-linecap:butt;stroke-linejoin:miter;stroke:rgb(0%,0%,0%);stroke-opacity:1;stroke-miterlimit:10;" d="M -17.0105 -56.6955 L -0.001125 -56.6955 " transform="matrix(1.25,0,0,-1.25,77.34125,101.24)"/>
<path style="fill:none;stroke-width:0.3985;stroke-linecap:butt;stroke-linejoin:miter;stroke:rgb(0%,0%,0%);stroke-opacity:1;stroke-miterlimit:10;" d="M -16.151125 62.363875 L -0.857375 62.363875 " transform="matrix(1.25,0,0,-1.25,77.34125,101.24)"/>
<path style="fill:none;stroke-width:0.3985;stroke-linecap:square;stroke-linejoin:miter;stroke:rgb(0%,0%,0%);stroke-opacity:1;stroke-miterlimit:10;" d="M 0.10114 -2.59162 L 0.10114 2.58963 " transform="matrix(-1.25,0,0,1.25,56.45455,23.2864)"/>
<path style="fill:none;stroke-width:0.31879;stroke-linecap:round;stroke-linejoin:round;stroke:rgb(0%,0%,0%);stroke-opacity:1;stroke-miterlimit:10;" d="M -1.19722 1.592755 C -1.094095 0.99588 -0.000345 0.10213 0.299655 -0.000995 C -0.000345 -0.09787 -1.094095 -0.99787 -1.19722 -1.594745 " transform="matrix(-1.25,0,0,1.25,57.151913,23.2864)"/>
<path style="fill:none;stroke-width:0.3985;stroke-linecap:square;stroke-linejoin:miter;stroke:rgb(0%,0%,0%);stroke-opacity:1;stroke-miterlimit:10;" d="M 0.097755 -2.58963 L 0.097755 2.59162 " transform="matrix(1.25,0,0,-1.25,76.96765,23.2864)"/>
<path style="fill:none;stroke-width:0.31879;stroke-linecap:round;stroke-linejoin:round;stroke:rgb(0%,0%,0%);stroke-opacity:1;stroke-miterlimit:10;" d="M -1.19748 1.594745 C -1.094355 0.99787 -0.000605 0.09787 0.299395 0.000995 C -0.000605 -0.10213 -1.094355 -0.99588 -1.19748 -1.592755 " transform="matrix(1.25,0,0,-1.25,76.270287,23.2864)"/>
<path style=" stroke:none;fill-rule:nonzero;fill:rgb(0%,0%,0%);fill-opacity:1;" d="M 64.945312 16.71875 L 64.652344 16.71875 C 64.574219 17.089844 64.496094 17.636719 64.359375 17.832031 C 64.28125 17.929688 63.460938 17.929688 63.1875 17.929688 L 60.941406 17.929688 L 62.269531 16.640625 C 64.203125 14.921875 64.945312 14.257812 64.945312 13.007812 C 64.945312 11.582031 63.832031 10.585938 62.308594 10.585938 C 60.902344 10.585938 59.984375 11.738281 59.984375 12.851562 C 59.984375 13.535156 60.609375 13.535156 60.648438 13.535156 C 60.863281 13.535156 61.292969 13.398438 61.292969 12.871094 C 61.292969 12.558594 61.058594 12.226562 60.628906 12.226562 C 60.53125 12.226562 60.511719 12.226562 60.472656 12.246094 C 60.746094 11.425781 61.429688 10.976562 62.152344 10.976562 C 63.285156 10.976562 63.8125 11.992188 63.8125 13.007812 C 63.8125 14.003906 63.207031 14.980469 62.503906 15.761719 L 60.121094 18.417969 C 59.984375 18.554688 59.984375 18.59375 59.984375 18.886719 L 64.613281 18.886719 L 64.945312 16.71875 Z M 64.945312 16.71875 "/>
<path style=" stroke:none;fill-rule:nonzero;fill:rgb(0%,0%,0%);fill-opacity:1;" d="M 73.59375 15.800781 C 73.59375 15.761719 73.554688 15.664062 73.457031 15.664062 C 73.339844 15.664062 73.320312 15.742188 73.242188 15.9375 C 72.8125 17.070312 72.265625 18.496094 70.117188 18.496094 L 68.945312 18.496094 C 68.769531 18.496094 68.730469 18.496094 68.671875 18.496094 C 68.535156 18.476562 68.496094 18.457031 68.496094 18.359375 C 68.496094 18.320312 68.496094 18.300781 68.554688 18.085938 L 70.253906 11.347656 C 70.351562 10.898438 70.390625 10.761719 71.5625 10.761719 C 71.933594 10.761719 72.03125 10.761719 72.03125 10.527344 C 72.03125 10.371094 71.894531 10.371094 71.835938 10.371094 L 70 10.410156 L 68.339844 10.371094 C 68.261719 10.371094 68.105469 10.371094 68.105469 10.625 C 68.105469 10.761719 68.222656 10.761719 68.457031 10.761719 C 68.457031 10.761719 68.710938 10.761719 68.925781 10.78125 C 69.140625 10.820312 69.257812 10.820312 69.257812 10.996094 C 69.257812 11.035156 69.257812 11.074219 69.21875 11.230469 L 67.539062 17.910156 C 67.421875 18.398438 67.402344 18.496094 66.40625 18.496094 C 66.191406 18.496094 66.074219 18.496094 66.074219 18.75 C 66.074219 18.886719 66.191406 18.886719 66.40625 18.886719 L 72.1875 18.886719 C 72.480469 18.886719 72.480469 18.886719 72.558594 18.671875 L 73.554688 15.976562 C 73.59375 15.839844 73.59375 15.800781 73.59375 15.800781 Z M 73.59375 15.800781 "/>
<path style="fill:none;stroke-width:0.3985;stroke-linecap:butt;stroke-linejoin:miter;stroke:rgb(0%,0%,0%);stroke-opacity:1;stroke-miterlimit:10;" d="M -31.182375 55.83575 L -31.182375 -55.836125 " transform="matrix(1.25,0,0,-1.25,77.34125,101.24)"/>
<path style="fill:none;stroke-width:0.3985;stroke-linecap:square;stroke-linejoin:miter;stroke:rgb(0%,0%,0%);stroke-opacity:1;stroke-miterlimit:10;" d="M 0.100395 -2.58991 L 0.100395 2.588215 " transform="matrix(0,-1.25,-1.25,0,38.364175,30.746588)"/>
<path style="fill:none;stroke-width:0.31879;stroke-linecap:round;stroke-linejoin:round;stroke:rgb(0%,0%,0%);stroke-opacity:1;stroke-miterlimit:10;" d="M -1.19484 1.594465 C -1.09484 0.994465 -0.00109 0.100715 0.29891 0.000715 C -0.00109 -0.09616 -1.09484 -0.99616 -1.19484 -1.593035 " transform="matrix(0,-1.25,-1.25,0,38.364175,31.44395)"/>
<path style="fill:none;stroke-width:0.3985;stroke-linecap:square;stroke-linejoin:miter;stroke:rgb(0%,0%,0%);stroke-opacity:1;stroke-miterlimit:10;" d="M 0.10077 -2.588215 L 0.10077 2.58991 " transform="matrix(0,1.25,1.25,0,38.364175,171.733412)"/>
<path style="fill:none;stroke-width:0.31879;stroke-linecap:round;stroke-linejoin:round;stroke:rgb(0%,0%,0%);stroke-opacity:1;stroke-miterlimit:10;" d="M -1.19759 1.593035 C -1.094465 0.99616 -0.000715 0.09616 0.299285 -0.000715 C -0.000715 -0.100715 -1.094465 -0.994465 -1.19759 -1.594465 " transform="matrix(0,1.25,1.25,0,38.364175,171.03605)"/>
<path style=" stroke:none;fill-rule:nonzero;fill:rgb(0%,0%,0%);fill-opacity:1;" d="M 23.773438 94.671875 L 23.480469 94.671875 C 23.402344 95.042969 23.324219 95.589844 23.1875 95.785156 C 23.109375 95.882812 22.289062 95.882812 22.015625 95.882812 L 19.769531 95.882812 L 21.097656 94.59375 C 23.03125 92.875 23.773438 92.210938 23.773438 90.960938 C 23.773438 89.535156 22.660156 88.539062 21.136719 88.539062 C 19.730469 88.539062 18.8125 89.691406 18.8125 90.804688 C 18.8125 91.488281 19.4375 91.488281 19.476562 91.488281 C 19.691406 91.488281 20.121094 91.351562 20.121094 90.824219 C 20.121094 90.511719 19.886719 90.179688 19.457031 90.179688 C 19.359375 90.179688 19.339844 90.179688 19.300781 90.199219 C 19.574219 89.378906 20.257812 88.929688 20.980469 88.929688 C 22.113281 88.929688 22.640625 89.945312 22.640625 90.960938 C 22.640625 91.957031 22.035156 92.933594 21.332031 93.714844 L 18.949219 96.371094 C 18.8125 96.507812 18.8125 96.546875 18.8125 96.839844 L 23.441406 96.839844 L 23.773438 94.671875 Z M 23.773438 94.671875 "/>
<path style=" stroke:none;fill-rule:nonzero;fill:rgb(0%,0%,0%);fill-opacity:1;" d="M 32.460938 89.945312 C 32.460938 90.375 32.265625 91.234375 31.777344 91.722656 C 31.445312 92.035156 30.800781 92.445312 29.667969 92.445312 L 28.28125 92.445312 L 29.082031 89.183594 C 29.160156 88.890625 29.199219 88.773438 29.433594 88.734375 C 29.550781 88.714844 29.941406 88.714844 30.195312 88.714844 C 31.074219 88.714844 32.460938 88.714844 32.460938 89.945312 Z M 33.828125 95.6875 C 33.828125 95.53125 33.671875 95.53125 33.671875 95.53125 C 33.554688 95.53125 33.535156 95.609375 33.515625 95.707031 C 33.203125 96.625 32.65625 96.839844 32.382812 96.839844 C 31.972656 96.839844 31.875 96.566406 31.875 96.078125 C 31.875 95.6875 31.953125 95.0625 32.011719 94.652344 C 32.03125 94.476562 32.050781 94.242188 32.050781 94.066406 C 32.050781 93.109375 31.210938 92.71875 30.878906 92.601562 C 32.148438 92.328125 33.613281 91.449219 33.613281 90.199219 C 33.613281 89.125 32.5 88.324219 30.859375 88.324219 L 27.324219 88.324219 C 27.070312 88.324219 26.953125 88.324219 26.953125 88.578125 C 26.953125 88.714844 27.070312 88.714844 27.304688 88.714844 C 27.304688 88.714844 27.558594 88.714844 27.773438 88.734375 C 28.007812 88.773438 28.105469 88.773438 28.105469 88.949219 C 28.105469 88.988281 28.105469 89.027344 28.066406 89.183594 L 26.386719 95.863281 C 26.269531 96.351562 26.25 96.449219 25.253906 96.449219 C 25.039062 96.449219 24.921875 96.449219 24.921875 96.703125 C 24.921875 96.839844 25.097656 96.839844 25.097656 96.839844 L 26.660156 96.800781 L 28.261719 96.839844 C 28.359375 96.839844 28.496094 96.839844 28.496094 96.585938 C 28.496094 96.449219 28.398438 96.449219 28.144531 96.449219 C 27.695312 96.449219 27.34375 96.449219 27.34375 96.234375 C 27.34375 96.15625 27.363281 96.097656 27.382812 96.019531 L 28.203125 92.71875 L 29.6875 92.71875 C 30.820312 92.71875 31.035156 93.421875 31.035156 93.851562 C 31.035156 94.027344 30.9375 94.417969 30.859375 94.710938 C 30.78125 95.0625 30.664062 95.511719 30.664062 95.765625 C 30.664062 97.113281 32.167969 97.113281 32.324219 97.113281 C 33.378906 97.113281 33.828125 95.863281 33.828125 95.6875 Z M 33.828125 95.6875 "/>
<path style="fill:none;stroke-width:0.3985;stroke-linecap:butt;stroke-linejoin:miter;stroke:rgb(0%,0%,0%);stroke-opacity:1;stroke-dasharray:2.98883,2.98883;stroke-miterlimit:10;" d="M -56.69175 -0.00175 L 67.280125 -0.00175 " transform="matrix(1.25,0,0,-1.25,77.34125,101.24)"/>
<path style=" stroke:none;fill-rule:nonzero;fill:rgb(0%,0%,0%);fill-opacity:1;" d="M 165.921875 101.242188 C 164.59375 100.992188 162.4375 100.242188 160.941406 99.371094 L 160.941406 103.109375 C 162.4375 102.234375 164.59375 101.488281 165.921875 101.242188 "/>
<path style=" stroke:none;fill-rule:nonzero;fill:rgb(0%,0%,0%);fill-opacity:1;" d="M 176.496094 95.0625 C 176.496094 94.925781 176.398438 94.925781 176.359375 94.925781 C 176.242188 94.925781 176.222656 94.984375 176.183594 95.0625 C 175.773438 96.410156 174.933594 96.703125 174.542969 96.703125 C 174.054688 96.703125 173.859375 96.3125 173.859375 95.882812 C 173.859375 95.609375 173.917969 95.335938 174.054688 94.789062 L 174.484375 93.070312 C 174.5625 92.757812 174.855469 91.605469 175.714844 91.605469 C 175.773438 91.605469 176.085938 91.605469 176.339844 91.761719 C 175.988281 91.839844 175.753906 92.132812 175.753906 92.445312 C 175.753906 92.640625 175.890625 92.875 176.222656 92.875 C 176.496094 92.875 176.886719 92.660156 176.886719 92.152344 C 176.886719 91.507812 176.164062 91.332031 175.734375 91.332031 C 175.011719 91.332031 174.582031 91.996094 174.425781 92.269531 C 174.113281 91.449219 173.449219 91.332031 173.078125 91.332031 C 171.789062 91.332031 171.066406 92.933594 171.066406 93.246094 C 171.066406 93.382812 171.222656 93.382812 171.222656 93.382812 C 171.320312 93.382812 171.359375 93.34375 171.378906 93.246094 C 171.808594 91.917969 172.628906 91.605469 173.058594 91.605469 C 173.292969 91.605469 173.722656 91.722656 173.722656 92.445312 C 173.722656 92.835938 173.507812 93.65625 173.058594 95.414062 C 172.863281 96.175781 172.414062 96.703125 171.867188 96.703125 C 171.789062 96.703125 171.515625 96.703125 171.242188 96.546875 C 171.554688 96.46875 171.828125 96.214844 171.828125 95.863281 C 171.828125 95.53125 171.554688 95.433594 171.378906 95.433594 C 170.988281 95.433594 170.695312 95.746094 170.695312 96.15625 C 170.695312 96.722656 171.300781 96.976562 171.847656 96.976562 C 172.6875 96.976562 173.136719 96.097656 173.15625 96.039062 C 173.3125 96.488281 173.761719 96.976562 174.503906 96.976562 C 175.792969 96.976562 176.496094 95.375 176.496094 95.0625 Z M 176.496094 95.0625 "/>
<path style=" stroke:none;fill-rule:nonzero;fill:rgb(0%,0%,0%);fill-opacity:1;" d="M 147.632812 112.503906 L 147.632812 112.171875 L 147.417969 112.171875 C 146.636719 112.171875 146.617188 112.074219 146.617188 111.703125 L 146.617188 106.507812 C 146.617188 106.136719 146.636719 106.039062 147.417969 106.039062 L 147.632812 106.039062 L 147.632812 105.707031 L 145.953125 105.707031 C 145.679688 105.707031 145.660156 105.726562 145.582031 105.902344 L 143.277344 111.566406 L 140.972656 105.921875 C 140.875 105.726562 140.875 105.707031 140.601562 105.707031 L 138.921875 105.707031 L 138.921875 106.039062 L 139.136719 106.039062 C 139.898438 106.039062 139.917969 106.136719 139.917969 106.507812 L 139.917969 111.429688 C 139.917969 111.703125 139.917969 112.171875 138.921875 112.171875 L 138.921875 112.503906 C 139.371094 112.464844 139.839844 112.464844 140.09375 112.464844 C 140.347656 112.464844 140.816406 112.464844 141.265625 112.503906 L 141.265625 112.171875 C 140.269531 112.171875 140.269531 111.703125 140.269531 111.429688 L 140.269531 106.15625 L 140.269531 106.136719 L 142.789062 112.269531 C 142.847656 112.386719 142.886719 112.503906 143.023438 112.503906 C 143.160156 112.503906 143.199219 112.386719 143.257812 112.269531 L 145.796875 106.058594 L 145.796875 106.078125 L 145.796875 111.703125 C 145.796875 112.074219 145.777344 112.171875 145.015625 112.171875 L 144.800781 112.171875 L 144.800781 112.503906 L 146.207031 112.464844 L 147.632812 112.503906 Z M 147.632812 112.503906 "/>
<path style="fill:none;stroke-width:0.3985;stroke-linecap:butt;stroke-linejoin:miter;stroke:rgb(0%,0%,0%);stroke-opacity:1;stroke-miterlimit:10;" d="M 45.355125 -0.00175 L 45.355125 2.83575 M 45.355125 -0.00175 L 45.355125 -2.836125 " transform="matrix(1.25,0,0,-1.25,77.34125,101.24)"/>
<path style="fill:none;stroke-width:0.3985;stroke-linecap:butt;stroke-linejoin:miter;stroke:rgb(0%,0%,0%);stroke-opacity:1;stroke-miterlimit:10;" d="M 45.355125 -0.00175 L -8.50425 56.695125 M 45.355125 -0.00175 L -8.50425 -56.6955 " transform="matrix(1.25,0,0,-1.25,77.34125,101.24)"/>
<path style="fill:none;stroke-width:0.3985;stroke-linecap:butt;stroke-linejoin:miter;stroke:rgb(0%,0%,0%);stroke-opacity:1;stroke-miterlimit:10;" d="M 34.017625 -0.00175 C 30.73325 3.282625 30.73325 8.620125 34.017625 11.907625 " transform="matrix(1.25,0,0,-1.25,77.34125,101.24)"/>
<path style=" stroke:none;fill-rule:nonzero;fill:rgb(0%,0%,0%);fill-opacity:1;" d="M 111.800781 92.246094 C 111.800781 91.425781 111.585938 89.6875 110.316406 89.6875 C 108.578125 89.6875 106.664062 93.203125 106.664062 96.054688 C 106.664062 97.226562 107.015625 98.613281 108.148438 98.613281 C 109.90625 98.613281 111.800781 95.039062 111.800781 92.246094 Z M 110.589844 93.945312 L 107.972656 93.945312 C 108.1875 93.164062 108.441406 92.167969 108.949219 91.269531 C 109.28125 90.664062 109.730469 89.960938 110.296875 89.960938 C 110.902344 89.960938 110.980469 90.761719 110.980469 91.464844 C 110.980469 92.089844 110.882812 92.714844 110.589844 93.945312 Z M 110.472656 94.355469 C 110.335938 94.921875 110.082031 95.976562 109.59375 96.875 C 109.164062 97.734375 108.695312 98.339844 108.148438 98.339844 C 107.738281 98.339844 107.484375 97.96875 107.484375 96.816406 C 107.484375 96.289062 107.5625 95.566406 107.875 94.355469 L 110.472656 94.355469 Z M 110.472656 94.355469 "/>
<path style=" stroke:none;fill-rule:nonzero;fill:rgb(0%,0%,0%);fill-opacity:1;" d="M 61.714844 109.125 C 61.714844 107.132812 60.132812 105.492188 58.199219 105.492188 C 56.226562 105.492188 54.664062 107.132812 54.664062 109.125 C 54.664062 111.15625 56.285156 112.71875 58.179688 112.71875 C 60.113281 112.71875 61.714844 111.136719 61.714844 109.125 Z M 60.679688 108.96875 C 60.679688 111.507812 59.234375 112.386719 58.199219 112.386719 C 57.105469 112.386719 55.699219 111.46875 55.699219 108.96875 C 55.699219 106.605469 57.164062 105.804688 58.179688 105.804688 C 59.253906 105.804688 60.679688 106.644531 60.679688 108.96875 Z M 60.679688 108.96875 "/>
<path style="fill:none;stroke-width:0.3985;stroke-linecap:butt;stroke-linejoin:miter;stroke:rgb(0%,0%,0%);stroke-opacity:1;stroke-miterlimit:10;" d="M -8.50425 -0.00175 L -8.50425 2.83575 M -8.50425 -0.00175 L -8.50425 -2.836125 " transform="matrix(1.25,0,0,-1.25,77.34125,101.24)"/>
<path style="fill:none;stroke-width:0.3985;stroke-linecap:butt;stroke-linejoin:miter;stroke:rgb(50.196078%,50.196078%,50.196078%);stroke-opacity:1;stroke-miterlimit:10;" d="M -8.50425 -56.6955 C -12.238625 -46.036125 -13.519875 -39.6205 -14.144875 -28.804875 " transform="matrix(1.25,0,0,-1.25,77.34125,101.24)"/>
<path style="fill:none;stroke-width:0.31879;stroke-linecap:round;stroke-linejoin:round;stroke:rgb(50.196078%,50.196078%,50.196078%);stroke-opacity:1;stroke-miterlimit:10;" d="M -1.194263 1.593828 C -1.097343 0.996864 0.00233345 0.101032 0.300143 0.00247185 C 0.000156544 -0.0990929 -1.093623 -0.996468 -1.193889 -1.594554 " transform="matrix(-0.0721375,-1.248438,-1.248438,0.0721375,59.65755,137.245625)"/>
<path style=" stroke:none;fill-rule:nonzero;fill:rgb(50.196078%,50.196078%,50.196078%);fill-opacity:1;" d="M 62.019531 125.613281 C 62.019531 125.613281 62 125.476562 61.84375 125.476562 C 61.6875 125.476562 61.375 125.496094 61.21875 125.496094 L 59.851562 125.496094 C 59.714844 125.496094 59.34375 125.476562 59.207031 125.476562 C 59.167969 125.476562 59.011719 125.476562 59.011719 125.652344 C 59.011719 125.808594 59.128906 125.808594 59.324219 125.808594 C 59.96875 125.808594 59.96875 125.867188 59.96875 125.984375 C 59.96875 125.984375 59.96875 126.042969 59.910156 126.199219 L 58.601562 131.492188 C 58.503906 131.84375 58.484375 131.941406 57.742188 131.941406 C 57.507812 131.941406 57.390625 131.941406 57.390625 132.136719 C 57.390625 132.175781 57.429688 132.273438 57.546875 132.273438 C 57.683594 132.273438 58.015625 132.253906 58.171875 132.234375 L 59.558594 132.234375 C 59.695312 132.253906 60.046875 132.273438 60.183594 132.273438 C 60.242188 132.273438 60.378906 132.273438 60.378906 132.078125 C 60.378906 131.941406 60.261719 131.941406 60.066406 131.941406 C 59.910156 131.941406 59.851562 131.941406 59.675781 131.921875 C 59.519531 131.902344 59.421875 131.902344 59.421875 131.785156 C 59.421875 131.726562 59.441406 131.726562 59.480469 131.589844 L 60.808594 126.238281 C 60.886719 125.90625 60.90625 125.808594 61.667969 125.808594 C 61.882812 125.808594 62.019531 125.808594 62.019531 125.613281 Z M 62.019531 125.613281 "/>
<path style="fill:none;stroke-width:0.3985;stroke-linecap:butt;stroke-linejoin:miter;stroke:rgb(50.196078%,50.196078%,50.196078%);stroke-opacity:1;stroke-miterlimit:10;" d="M -11.338625 -56.6955 C -15.073 -46.036125 -16.357375 -39.6205 -16.982375 -28.804875 " transform="matrix(1.25,0,0,-1.25,77.34125,101.24)"/>
<path style="fill:none;stroke-width:0.31879;stroke-linecap:round;stroke-linejoin:round;stroke:rgb(50.196078%,50.196078%,50.196078%);stroke-opacity:1;stroke-miterlimit:10;" d="M -1.194272 1.593395 C -1.097358 0.99643 0.00212857 0.097469 0.299937 -0.00109372 C 0.000129891 -0.0995369 -1.093658 -0.9969 -1.19375 -1.591867 " transform="matrix(-0.07215,-1.248438,-1.248438,0.07215,56.114025,137.245625)"/>
<path style="fill:none;stroke-width:0.3985;stroke-linecap:butt;stroke-linejoin:miter;stroke:rgb(50.196078%,50.196078%,50.196078%);stroke-opacity:1;stroke-miterlimit:10;" d="M -5.669875 -56.6955 C -9.40425 -46.036125 -10.6855 -39.6205 -11.3105 -28.804875 " transform="matrix(1.25,0,0,-1.25,77.34125,101.24)"/>
<path style="fill:none;stroke-width:0.31879;stroke-linecap:round;stroke-linejoin:round;stroke:rgb(50.196078%,50.196078%,50.196078%);stroke-opacity:1;stroke-miterlimit:10;" d="M -1.194415 1.591194 C -1.097315 0.997348 0.00218122 0.0983971 0.299991 -0.000162661 C 0.00018451 -0.0986089 -1.093775 -0.999102 -1.193861 -1.59407 " transform="matrix(-0.0721375,-1.248438,-1.248438,0.0721375,63.201125,137.245625)"/>
</g>
</svg>
