<?xml version="1.0" encoding="UTF-8"?>
<!-- Converted by misc2svg (http://www.network-science.de/tools/misc2svg/) -->
<svg xmlns="http://www.w3.org/2000/svg" xmlns:xlink="http://www.w3.org/1999/xlink" width="188pt" height="164pt" viewBox="0 0 188 164" version="1.1">
<g id="misc2svg">
<path style="fill-rule:nonzero;fill:rgb(87.45098%,87.45098%,87.45098%);fill-opacity:1;stroke-width:0.3985;stroke-linecap:butt;stroke-linejoin:miter;stroke:rgb(0%,0%,0%);stroke-opacity:1;stroke-miterlimit:10;" d="M -8.92925 0.001875 C -8.92925 28.18 -11.7855 51.02375 -15.307375 51.02375 C -18.832375 51.02375 -21.6855 28.18 -21.6855 0.001875 C -21.6855 -28.179375 -18.832375 -51.023125 -15.307375 -51.023125 C -11.7855 -51.023125 -8.92925 -28.179375 -8.92925 0.001875 Z M -8.92925 0.001875 " transform="matrix(1.25,0,0,-1.25,54.31,93.44375)"/>
<path style="fill-rule:nonzero;fill:rgb(87.45098%,87.45098%,87.45098%);fill-opacity:1;stroke-width:0.3985;stroke-linecap:butt;stroke-linejoin:miter;stroke:rgb(87.45098%,87.45098%,87.45098%);stroke-opacity:1;stroke-miterlimit:10;" d="M -15.307375 -51.023125 C -20.848 -11.616875 -20.848 11.614375 -15.307375 51.02375 L 0.002 51.02375 C -5.538625 11.614375 -5.538625 -11.616875 0.002 -51.023125 L -15.307375 -51.023125 Z M -15.307375 -51.023125 " transform="matrix(1.25,0,0,-1.25,54.31,93.44375)"/>
<path style="fill-rule:nonzero;fill:rgb(74.901961%,74.901961%,74.901961%);fill-opacity:1;stroke-width:0.3985;stroke-linecap:butt;stroke-linejoin:miter;stroke:rgb(0%,0%,0%);stroke-opacity:1;stroke-miterlimit:10;" d="M 6.377 0.001875 C 6.377 28.18 3.52075 51.02375 0.002 51.02375 C -3.523 51.02375 -6.37925 28.18 -6.37925 0.001875 C -6.37925 -28.179375 -3.523 -51.023125 0.002 -51.023125 C 3.52075 -51.023125 6.377 -28.179375 6.377 0.001875 Z M 6.377 0.001875 " transform="matrix(1.25,0,0,-1.25,54.31,93.44375)"/>
<path style="fill:none;stroke-width:0.3985;stroke-linecap:butt;stroke-linejoin:miter;stroke:rgb(0%,0%,0%);stroke-opacity:1;stroke-miterlimit:10;" d="M -15.307375 51.02375 L 0.002 51.02375 " transform="matrix(1.25,0,0,-1.25,54.31,93.44375)"/>
<path style="fill:none;stroke-width:0.3985;stroke-linecap:butt;stroke-linejoin:miter;stroke:rgb(0%,0%,0%);stroke-opacity:1;stroke-miterlimit:10;" d="M -15.307375 -51.023125 L 0.002 -51.023125 " transform="matrix(1.25,0,0,-1.25,54.31,93.44375)"/>
<path style="fill:none;stroke-width:0.3985;stroke-linecap:butt;stroke-linejoin:miter;stroke:rgb(50.196078%,50.196078%,50.196078%);stroke-opacity:1;stroke-miterlimit:10;" d="M -7.65425 -51.023125 C -11.013625 -41.429375 -12.169875 -35.660625 -12.72925 -25.973125 " transform="matrix(1.25,0,0,-1.25,54.31,93.44375)"/>
<path style="fill:none;stroke-width:0.31879;stroke-linecap:round;stroke-linejoin:round;stroke:rgb(50.196078%,50.196078%,50.196078%);stroke-opacity:1;stroke-miterlimit:10;" d="M -1.197442 1.5927 C -1.094105 0.998494 -0.000665422 0.103022 0.299902 -0.00195479 C 0.00027617 -0.0972825 -1.096802 -0.997596 -1.196888 -1.592563 " transform="matrix(-0.0721375,-1.248438,-1.248437,0.0721375,38.3981,125.9058)"/>
<path style=" stroke:none;fill-rule:nonzero;fill:rgb(50.196078%,50.196078%,50.196078%);fill-opacity:1;" d="M 40.757812 114.273438 C 40.757812 114.273438 40.738281 114.136719 40.582031 114.136719 C 40.425781 114.136719 40.113281 114.15625 39.957031 114.15625 L 38.589844 114.15625 C 38.453125 114.15625 38.082031 114.136719 37.945312 114.136719 C 37.90625 114.136719 37.75 114.136719 37.75 114.3125 C 37.75 114.46875 37.867188 114.46875 38.0625 114.46875 C 38.707031 114.46875 38.707031 114.527344 38.707031 114.644531 C 38.707031 114.644531 38.707031 114.703125 38.648438 114.859375 L 37.339844 120.152344 C 37.242188 120.503906 37.222656 120.601562 36.480469 120.601562 C 36.246094 120.601562 36.128906 120.601562 36.128906 120.796875 C 36.128906 120.835938 36.167969 120.933594 36.285156 120.933594 C 36.421875 120.933594 36.753906 120.914062 36.910156 120.894531 L 38.296875 120.894531 C 38.433594 120.914062 38.785156 120.933594 38.921875 120.933594 C 38.980469 120.933594 39.117188 120.933594 39.117188 120.738281 C 39.117188 120.601562 39 120.601562 38.804688 120.601562 C 38.648438 120.601562 38.589844 120.601562 38.414062 120.582031 C 38.257812 120.5625 38.160156 120.5625 38.160156 120.445312 C 38.160156 120.386719 38.179688 120.386719 38.21875 120.25 L 39.546875 114.898438 C 39.625 114.566406 39.644531 114.46875 40.40625 114.46875 C 40.621094 114.46875 40.757812 114.46875 40.757812 114.273438 Z M 40.757812 114.273438 "/>
<path style="fill:none;stroke-width:0.3985;stroke-linecap:butt;stroke-linejoin:miter;stroke:rgb(50.196078%,50.196078%,50.196078%);stroke-opacity:1;stroke-miterlimit:10;" d="M -10.207375 -51.023125 C -13.56675 -41.429375 -14.723 -35.660625 -15.27925 -25.973125 " transform="matrix(1.25,0,0,-1.25,54.31,93.44375)"/>
<path style="fill:none;stroke-width:0.31879;stroke-linecap:round;stroke-linejoin:round;stroke:rgb(50.196078%,50.196078%,50.196078%);stroke-opacity:1;stroke-miterlimit:10;" d="M -1.197322 1.594503 C -1.094171 0.997177 -0.000741097 0.101695 0.300186 0.00295198 C 0.000198495 -0.0986097 -1.096708 -0.995793 -1.19698 -1.593878 " transform="matrix(-0.07215,-1.248438,-1.248437,0.07215,35.208937,125.9058)"/>
<path style="fill:none;stroke-width:0.3985;stroke-linecap:butt;stroke-linejoin:miter;stroke:rgb(50.196078%,50.196078%,50.196078%);stroke-opacity:1;stroke-miterlimit:10;" d="M -5.10425 -51.023125 C -8.463625 -41.429375 -9.619875 -35.660625 -10.17925 -25.973125 " transform="matrix(1.25,0,0,-1.25,54.31,93.44375)"/>
<path style="fill:none;stroke-width:0.31879;stroke-linecap:round;stroke-linejoin:round;stroke:rgb(50.196078%,50.196078%,50.196078%);stroke-opacity:1;stroke-miterlimit:10;" d="M -1.197365 1.594037 C -1.094388 0.993594 -0.000948542 0.0981224 0.299979 -0.000617579 C -0.00000695077 -0.102182 -1.096725 -0.996258 -1.196811 -1.591226 " transform="matrix(-0.0721375,-1.248438,-1.248437,0.0721375,41.587275,125.9058)"/>
<path style=" stroke:none;fill-rule:nonzero;fill:rgb(0%,0%,0%);fill-opacity:1;" d="M 39.746094 101.328125 C 39.746094 99.335938 38.164062 97.695312 36.230469 97.695312 C 34.257812 97.695312 32.695312 99.335938 32.695312 101.328125 C 32.695312 103.359375 34.316406 104.921875 36.210938 104.921875 C 38.144531 104.921875 39.746094 103.339844 39.746094 101.328125 Z M 38.710938 101.171875 C 38.710938 103.710938 37.265625 104.589844 36.230469 104.589844 C 35.136719 104.589844 33.730469 103.671875 33.730469 101.171875 C 33.730469 98.808594 35.195312 98.007812 36.210938 98.007812 C 37.285156 98.007812 38.710938 98.847656 38.710938 101.171875 Z M 38.710938 101.171875 "/>
<path style="fill:none;stroke-width:0.3985;stroke-linecap:butt;stroke-linejoin:miter;stroke:rgb(0%,0%,0%);stroke-opacity:1;stroke-miterlimit:10;" d="M -7.65425 0.001875 L -7.65425 2.551875 M -7.65425 0.001875 L -7.65425 -2.55125 " transform="matrix(1.25,0,0,-1.25,54.31,93.44375)"/>
<path style="fill-rule:nonzero;fill:rgb(87.45098%,87.45098%,87.45098%);fill-opacity:1;stroke-width:0.3985;stroke-linecap:butt;stroke-linejoin:miter;stroke:rgb(0%,0%,0%);stroke-opacity:1;stroke-miterlimit:10;" d="M 42.09575 0.001875 C 42.09575 28.18 39.2395 51.02375 35.7145 51.02375 C 32.192625 51.02375 29.336375 28.18 29.336375 0.001875 C 29.336375 -28.179375 32.192625 -51.023125 35.7145 -51.023125 C 39.2395 -51.023125 42.09575 -28.179375 42.09575 0.001875 Z M 42.09575 0.001875 " transform="matrix(1.25,0,0,-1.25,54.31,93.44375)"/>
<path style="fill-rule:nonzero;fill:rgb(87.45098%,87.45098%,87.45098%);fill-opacity:1;stroke-width:0.3985;stroke-linecap:butt;stroke-linejoin:miter;stroke:rgb(87.45098%,87.45098%,87.45098%);stroke-opacity:1;stroke-miterlimit:10;" d="M 35.7145 -51.023125 C 30.177 -11.616875 30.177 11.614375 35.7145 51.02375 L 51.023875 51.02375 C 45.486375 11.614375 45.486375 -11.616875 51.023875 -51.023125 L 35.7145 -51.023125 Z M 35.7145 -51.023125 " transform="matrix(1.25,0,0,-1.25,54.31,93.44375)"/>
<path style="fill-rule:nonzero;fill:rgb(74.901961%,74.901961%,74.901961%);fill-opacity:1;stroke-width:0.3985;stroke-linecap:butt;stroke-linejoin:miter;stroke:rgb(0%,0%,0%);stroke-opacity:1;stroke-miterlimit:10;" d="M 57.402 0.001875 C 57.402 28.18 54.548875 51.02375 51.023875 51.02375 C 47.502 51.02375 44.64575 28.18 44.64575 0.001875 C 44.64575 -28.179375 47.502 -51.023125 51.023875 -51.023125 C 54.548875 -51.023125 57.402 -28.179375 57.402 0.001875 Z M 57.402 0.001875 " transform="matrix(1.25,0,0,-1.25,54.31,93.44375)"/>
<path style="fill:none;stroke-width:0.3985;stroke-linecap:butt;stroke-linejoin:miter;stroke:rgb(0%,0%,0%);stroke-opacity:1;stroke-miterlimit:10;" d="M 35.7145 51.02375 L 51.023875 51.02375 " transform="matrix(1.25,0,0,-1.25,54.31,93.44375)"/>
<path style="fill:none;stroke-width:0.3985;stroke-linecap:butt;stroke-linejoin:miter;stroke:rgb(0%,0%,0%);stroke-opacity:1;stroke-miterlimit:10;" d="M 35.7145 -51.023125 L 51.023875 -51.023125 " transform="matrix(1.25,0,0,-1.25,54.31,93.44375)"/>
<path style="fill:none;stroke-width:0.3985;stroke-linecap:butt;stroke-linejoin:miter;stroke:rgb(50.196078%,50.196078%,50.196078%);stroke-opacity:1;stroke-miterlimit:10;" d="M 43.367625 -51.023125 C 40.00825 -41.429375 38.852 -35.660625 38.292625 -25.973125 " transform="matrix(1.25,0,0,-1.25,54.31,93.44375)"/>
<path style="fill:none;stroke-width:0.31879;stroke-linecap:round;stroke-linejoin:round;stroke:rgb(50.196078%,50.196078%,50.196078%);stroke-opacity:1;stroke-miterlimit:10;" d="M -1.197326 1.594711 C -1.094349 0.994268 -0.00090962 0.098796 0.300018 0.0000560165 C 0.0000319711 -0.101509 -1.096686 -0.995585 -1.196952 -1.593671 " transform="matrix(-0.0721375,-1.248438,-1.248437,0.0721375,102.177962,125.9058)"/>
<path style=" stroke:none;fill-rule:nonzero;fill:rgb(50.196078%,50.196078%,50.196078%);fill-opacity:1;" d="M 104.539062 114.273438 C 104.539062 114.273438 104.519531 114.136719 104.363281 114.136719 C 104.207031 114.136719 103.894531 114.15625 103.738281 114.15625 L 102.371094 114.15625 C 102.234375 114.15625 101.863281 114.136719 101.726562 114.136719 C 101.6875 114.136719 101.53125 114.136719 101.53125 114.3125 C 101.53125 114.46875 101.648438 114.46875 101.84375 114.46875 C 102.488281 114.46875 102.488281 114.527344 102.488281 114.644531 C 102.488281 114.644531 102.488281 114.703125 102.429688 114.859375 L 101.121094 120.152344 C 101.023438 120.503906 101.003906 120.601562 100.261719 120.601562 C 100.027344 120.601562 99.910156 120.601562 99.910156 120.796875 C 99.910156 120.835938 99.949219 120.933594 100.066406 120.933594 C 100.203125 120.933594 100.535156 120.914062 100.691406 120.894531 L 102.078125 120.894531 C 102.214844 120.914062 102.566406 120.933594 102.703125 120.933594 C 102.761719 120.933594 102.898438 120.933594 102.898438 120.738281 C 102.898438 120.601562 102.78125 120.601562 102.585938 120.601562 C 102.429688 120.601562 102.371094 120.601562 102.195312 120.582031 C 102.039062 120.5625 101.941406 120.5625 101.941406 120.445312 C 101.941406 120.386719 101.960938 120.386719 102 120.25 L 103.328125 114.898438 C 103.40625 114.566406 103.425781 114.46875 104.1875 114.46875 C 104.402344 114.46875 104.539062 114.46875 104.539062 114.273438 Z M 104.539062 114.273438 "/>
<path style="fill:none;stroke-width:0.3985;stroke-linecap:butt;stroke-linejoin:miter;stroke:rgb(50.196078%,50.196078%,50.196078%);stroke-opacity:1;stroke-miterlimit:10;" d="M 40.817625 -51.023125 C 37.45825 -41.429375 36.302 -35.660625 35.742625 -25.973125 " transform="matrix(1.25,0,0,-1.25,54.31,93.44375)"/>
<path style="fill:none;stroke-width:0.31879;stroke-linecap:round;stroke-linejoin:round;stroke:rgb(50.196078%,50.196078%,50.196078%);stroke-opacity:1;stroke-miterlimit:10;" d="M -1.197386 1.593395 C -1.094054 0.999188 -0.000805113 0.100587 0.300122 0.00184429 C 0.000134479 -0.0997174 -1.096772 -0.9969 -1.196864 -1.591867 " transform="matrix(-0.07215,-1.248438,-1.248437,0.07215,98.9888,125.9058)"/>
<path style="fill:none;stroke-width:0.3985;stroke-linecap:butt;stroke-linejoin:miter;stroke:rgb(50.196078%,50.196078%,50.196078%);stroke-opacity:1;stroke-miterlimit:10;" d="M 45.923875 -51.023125 C 42.55825 -41.429375 41.40825 -35.660625 40.84575 -25.973125 " transform="matrix(1.25,0,0,-1.25,54.31,93.44375)"/>
<path style="fill:none;stroke-width:0.31879;stroke-linecap:round;stroke-linejoin:round;stroke:rgb(50.196078%,50.196078%,50.196078%);stroke-opacity:1;stroke-miterlimit:10;" d="M -1.197248 1.596058 C -1.094271 0.995615 -0.000831777 0.100143 0.299916 -0.00171529 C 0.000109815 -0.100162 -1.096788 -0.997356 -1.196874 -1.592324 " transform="matrix(-0.0721375,-1.248438,-1.248437,0.0721375,105.36715,125.9058)"/>
<path style=" stroke:none;fill-rule:nonzero;fill:rgb(0%,0%,0%);fill-opacity:1;" d="M 103.527344 101.328125 C 103.527344 99.335938 101.945312 97.695312 100.011719 97.695312 C 98.039062 97.695312 96.476562 99.335938 96.476562 101.328125 C 96.476562 103.359375 98.097656 104.921875 99.992188 104.921875 C 101.925781 104.921875 103.527344 103.339844 103.527344 101.328125 Z M 102.492188 101.171875 C 102.492188 103.710938 101.046875 104.589844 100.011719 104.589844 C 98.917969 104.589844 97.511719 103.671875 97.511719 101.171875 C 97.511719 98.808594 98.976562 98.007812 99.992188 98.007812 C 101.066406 98.007812 102.492188 98.847656 102.492188 101.171875 Z M 102.492188 101.171875 "/>
<path style="fill:none;stroke-width:0.3985;stroke-linecap:butt;stroke-linejoin:miter;stroke:rgb(0%,0%,0%);stroke-opacity:1;stroke-miterlimit:10;" d="M 43.367625 0.001875 L 43.367625 2.551875 M 43.367625 0.001875 L 43.367625 -2.55125 " transform="matrix(1.25,0,0,-1.25,54.31,93.44375)"/>
<path style="fill:none;stroke-width:0.3985;stroke-linecap:butt;stroke-linejoin:miter;stroke:rgb(0%,0%,0%);stroke-opacity:1;stroke-miterlimit:10;" d="M -9.348 56.126875 L 39.961375 56.126875 " transform="matrix(1.25,0,0,-1.25,54.31,93.44375)"/>
<path style="fill:none;stroke-width:0.3985;stroke-linecap:square;stroke-linejoin:miter;stroke:rgb(0%,0%,0%);stroke-opacity:1;stroke-miterlimit:10;" d="M 0.101645 -2.588155 L 0.101645 2.58997 " transform="matrix(-1.25,0,0,1.25,41.927837,23.285975)"/>
<path style="fill:none;stroke-width:0.31879;stroke-linecap:round;stroke-linejoin:round;stroke:rgb(0%,0%,0%);stroke-opacity:1;stroke-miterlimit:10;" d="M -1.196715 1.593095 C -1.09359 0.99622 0.00016 0.09622 0.30016 -0.000655 C 0.00016 -0.100655 -1.09359 -0.994405 -1.196715 -1.594405 " transform="matrix(-1.25,0,0,1.25,42.6252,23.285975)"/>
<path style="fill:none;stroke-width:0.3985;stroke-linecap:square;stroke-linejoin:miter;stroke:rgb(0%,0%,0%);stroke-opacity:1;stroke-miterlimit:10;" d="M 0.097235 -2.58997 L 0.097235 2.588155 " transform="matrix(1.25,0,0,-1.25,104.960487,23.285975)"/>
<path style="fill:none;stroke-width:0.31879;stroke-linecap:round;stroke-linejoin:round;stroke:rgb(0%,0%,0%);stroke-opacity:1;stroke-miterlimit:10;" d="M -1.194875 1.594405 C -1.094875 0.994405 -0.001125 0.100655 0.298875 0.000655 C -0.001125 -0.09622 -1.094875 -0.99622 -1.194875 -1.593095 " transform="matrix(1.25,0,0,-1.25,104.263125,23.285975)"/>
<path style=" stroke:none;fill-rule:nonzero;fill:rgb(0%,0%,0%);fill-opacity:1;" d="M 76.714844 11.992188 C 76.714844 12.421875 76.519531 13.28125 76.03125 13.769531 C 75.699219 14.082031 75.054688 14.492188 73.921875 14.492188 L 72.535156 14.492188 L 73.335938 11.230469 C 73.414062 10.9375 73.453125 10.820312 73.6875 10.78125 C 73.804688 10.761719 74.195312 10.761719 74.449219 10.761719 C 75.328125 10.761719 76.714844 10.761719 76.714844 11.992188 Z M 78.082031 17.734375 C 78.082031 17.578125 77.925781 17.578125 77.925781 17.578125 C 77.808594 17.578125 77.789062 17.65625 77.769531 17.753906 C 77.457031 18.671875 76.910156 18.886719 76.636719 18.886719 C 76.226562 18.886719 76.128906 18.613281 76.128906 18.125 C 76.128906 17.734375 76.207031 17.109375 76.265625 16.699219 C 76.285156 16.523438 76.304688 16.289062 76.304688 16.113281 C 76.304688 15.15625 75.464844 14.765625 75.132812 14.648438 C 76.402344 14.375 77.867188 13.496094 77.867188 12.246094 C 77.867188 11.171875 76.753906 10.371094 75.113281 10.371094 L 71.578125 10.371094 C 71.324219 10.371094 71.207031 10.371094 71.207031 10.625 C 71.207031 10.761719 71.324219 10.761719 71.558594 10.761719 C 71.558594 10.761719 71.8125 10.761719 72.027344 10.78125 C 72.261719 10.820312 72.359375 10.820312 72.359375 10.996094 C 72.359375 11.035156 72.359375 11.074219 72.320312 11.230469 L 70.640625 17.910156 C 70.523438 18.398438 70.503906 18.496094 69.507812 18.496094 C 69.292969 18.496094 69.175781 18.496094 69.175781 18.75 C 69.175781 18.886719 69.351562 18.886719 69.351562 18.886719 L 70.914062 18.847656 L 72.515625 18.886719 C 72.613281 18.886719 72.75 18.886719 72.75 18.632812 C 72.75 18.496094 72.652344 18.496094 72.398438 18.496094 C 71.949219 18.496094 71.597656 18.496094 71.597656 18.28125 C 71.597656 18.203125 71.617188 18.144531 71.636719 18.066406 L 72.457031 14.765625 L 73.941406 14.765625 C 75.074219 14.765625 75.289062 15.46875 75.289062 15.898438 C 75.289062 16.074219 75.191406 16.464844 75.113281 16.757812 C 75.035156 17.109375 74.917969 17.558594 74.917969 17.8125 C 74.917969 19.160156 76.421875 19.160156 76.578125 19.160156 C 77.632812 19.160156 78.082031 17.910156 78.082031 17.734375 Z M 78.082031 17.734375 "/>
<path style="fill:none;stroke-width:0.3985;stroke-linecap:butt;stroke-linejoin:miter;stroke:rgb(0%,0%,0%);stroke-opacity:1;stroke-miterlimit:10;" d="M 66.330125 0.855 L 66.330125 50.1675 " transform="matrix(1.25,0,0,-1.25,54.31,93.44375)"/>
<path style="fill:none;stroke-width:0.3985;stroke-linecap:square;stroke-linejoin:miter;stroke:rgb(0%,0%,0%);stroke-opacity:1;stroke-miterlimit:10;" d="M 0.10013 -2.5917 L 0.10013 2.592675 " transform="matrix(0,1.25,1.25,0,137.224,93.07015)"/>
<path style="fill:none;stroke-width:0.31879;stroke-linecap:round;stroke-linejoin:round;stroke:rgb(0%,0%,0%);stroke-opacity:1;stroke-miterlimit:10;" d="M -1.195105 1.5958 C -1.09823 0.998925 0.00177 0.098925 0.298645 -0.001075 C 0.00177 -0.09795 -1.09823 -0.99795 -1.195105 -1.594825 " transform="matrix(0,1.25,1.25,0,137.224,92.372788)"/>
<path style="fill:none;stroke-width:0.3985;stroke-linecap:square;stroke-linejoin:miter;stroke:rgb(0%,0%,0%);stroke-opacity:1;stroke-miterlimit:10;" d="M 0.09873 -2.592675 L 0.09873 2.5917 " transform="matrix(0,-1.25,-1.25,0,137.224,30.037475)"/>
<path style="fill:none;stroke-width:0.31879;stroke-linecap:round;stroke-linejoin:round;stroke:rgb(0%,0%,0%);stroke-opacity:1;stroke-miterlimit:10;" d="M -1.196505 1.594825 C -1.096505 0.99795 0.003495 0.09795 0.297245 0.001075 C 0.003495 -0.098925 -1.096505 -0.998925 -1.196505 -1.5958 " transform="matrix(0,-1.25,-1.25,0,137.224,30.734837)"/>
<path style=" stroke:none;fill-rule:nonzero;fill:rgb(0%,0%,0%);fill-opacity:1;" d="M 149.667969 58.914062 C 149.667969 59.34375 149.472656 60.203125 148.984375 60.691406 C 148.652344 61.003906 148.007812 61.414062 146.875 61.414062 L 145.488281 61.414062 L 146.289062 58.152344 C 146.367188 57.859375 146.40625 57.742188 146.640625 57.703125 C 146.757812 57.683594 147.148438 57.683594 147.402344 57.683594 C 148.28125 57.683594 149.667969 57.683594 149.667969 58.914062 Z M 151.035156 64.65625 C 151.035156 64.5 150.878906 64.5 150.878906 64.5 C 150.761719 64.5 150.742188 64.578125 150.722656 64.675781 C 150.410156 65.59375 149.863281 65.808594 149.589844 65.808594 C 149.179688 65.808594 149.082031 65.535156 149.082031 65.046875 C 149.082031 64.65625 149.160156 64.03125 149.21875 63.621094 C 149.238281 63.445312 149.257812 63.210938 149.257812 63.035156 C 149.257812 62.078125 148.417969 61.6875 148.085938 61.570312 C 149.355469 61.296875 150.820312 60.417969 150.820312 59.167969 C 150.820312 58.09375 149.707031 57.292969 148.066406 57.292969 L 144.53125 57.292969 C 144.277344 57.292969 144.160156 57.292969 144.160156 57.546875 C 144.160156 57.683594 144.277344 57.683594 144.511719 57.683594 C 144.511719 57.683594 144.765625 57.683594 144.980469 57.703125 C 145.214844 57.742188 145.3125 57.742188 145.3125 57.917969 C 145.3125 57.957031 145.3125 57.996094 145.273438 58.152344 L 143.59375 64.832031 C 143.476562 65.320312 143.457031 65.417969 142.460938 65.417969 C 142.246094 65.417969 142.128906 65.417969 142.128906 65.671875 C 142.128906 65.808594 142.304688 65.808594 142.304688 65.808594 L 143.867188 65.769531 L 145.46875 65.808594 C 145.566406 65.808594 145.703125 65.808594 145.703125 65.554688 C 145.703125 65.417969 145.605469 65.417969 145.351562 65.417969 C 144.902344 65.417969 144.550781 65.417969 144.550781 65.203125 C 144.550781 65.125 144.570312 65.066406 144.589844 64.988281 L 145.410156 61.6875 L 146.894531 61.6875 C 148.027344 61.6875 148.242188 62.390625 148.242188 62.820312 C 148.242188 62.996094 148.144531 63.386719 148.066406 63.679688 C 147.988281 64.03125 147.871094 64.480469 147.871094 64.734375 C 147.871094 66.082031 149.375 66.082031 149.53125 66.082031 C 150.585938 66.082031 151.035156 64.832031 151.035156 64.65625 Z M 151.035156 64.65625 "/>
<path style="fill:none;stroke-width:0.3985;stroke-linecap:butt;stroke-linejoin:miter;stroke:rgb(0%,0%,0%);stroke-opacity:1;stroke-dasharray:2.98883,2.98883;stroke-miterlimit:10;" d="M -38.269875 0.001875 L 85.705125 0.001875 " transform="matrix(1.25,0,0,-1.25,54.31,93.44375)"/>
<path style=" stroke:none;fill-rule:nonzero;fill:rgb(0%,0%,0%);fill-opacity:1;" d="M 165.921875 93.441406 C 164.59375 93.195312 162.4375 92.445312 160.941406 91.578125 L 160.941406 95.3125 C 162.4375 94.4375 164.59375 93.691406 165.921875 93.441406 "/>
<path style=" stroke:none;fill-rule:nonzero;fill:rgb(0%,0%,0%);fill-opacity:1;" d="M 176.496094 87.265625 C 176.496094 87.128906 176.398438 87.128906 176.359375 87.128906 C 176.242188 87.128906 176.222656 87.1875 176.183594 87.265625 C 175.773438 88.613281 174.933594 88.90625 174.542969 88.90625 C 174.054688 88.90625 173.859375 88.515625 173.859375 88.085938 C 173.859375 87.8125 173.917969 87.539062 174.054688 86.992188 L 174.484375 85.273438 C 174.5625 84.960938 174.855469 83.808594 175.714844 83.808594 C 175.773438 83.808594 176.085938 83.808594 176.339844 83.964844 C 175.988281 84.042969 175.753906 84.335938 175.753906 84.648438 C 175.753906 84.84375 175.890625 85.078125 176.222656 85.078125 C 176.496094 85.078125 176.886719 84.863281 176.886719 84.355469 C 176.886719 83.710938 176.164062 83.535156 175.734375 83.535156 C 175.011719 83.535156 174.582031 84.199219 174.425781 84.472656 C 174.113281 83.652344 173.449219 83.535156 173.078125 83.535156 C 171.789062 83.535156 171.066406 85.136719 171.066406 85.449219 C 171.066406 85.585938 171.222656 85.585938 171.222656 85.585938 C 171.320312 85.585938 171.359375 85.546875 171.378906 85.449219 C 171.808594 84.121094 172.628906 83.808594 173.058594 83.808594 C 173.292969 83.808594 173.722656 83.925781 173.722656 84.648438 C 173.722656 85.039062 173.507812 85.859375 173.058594 87.617188 C 172.863281 88.378906 172.414062 88.90625 171.867188 88.90625 C 171.789062 88.90625 171.515625 88.90625 171.242188 88.75 C 171.554688 88.671875 171.828125 88.417969 171.828125 88.066406 C 171.828125 87.734375 171.554688 87.636719 171.378906 87.636719 C 170.988281 87.636719 170.695312 87.949219 170.695312 88.359375 C 170.695312 88.925781 171.300781 89.179688 171.847656 89.179688 C 172.6875 89.179688 173.136719 88.300781 173.15625 88.242188 C 173.3125 88.691406 173.761719 89.179688 174.503906 89.179688 C 175.792969 89.179688 176.496094 87.578125 176.496094 87.265625 Z M 176.496094 87.265625 "/>
</g>
</svg>
