<?xml version="1.0" encoding="UTF-8"?>
<!-- Converted by misc2svg (http://www.network-science.de/tools/misc2svg/) -->
<svg xmlns="http://www.w3.org/2000/svg" xmlns:xlink="http://www.w3.org/1999/xlink" width="223pt" height="184pt" viewBox="0 0 223 184" version="1.1">
<g id="misc2svg">
<path style="fill:none;stroke-width:0.3985;stroke-linecap:butt;stroke-linejoin:miter;stroke:rgb(0%,0%,0%);stroke-opacity:1;stroke-miterlimit:10;" d="M 27.33425 -32.569625 C 45.32175 -17.475875 47.668625 9.342875 32.57175 27.330375 C 17.478 45.321 -9.343875 47.667875 -27.331375 32.571 C -45.318875 17.47725 -47.66575 -9.344625 -32.572 -27.332125 C -17.475125 -45.319625 9.3405 -47.669625 27.33425 -32.569625 Z M 27.33425 -32.569625 " transform="matrix(1.25,0,0,-1.25,66.05875,117.8075)"/>
<path style=" stroke:none;fill-rule:nonzero;fill:rgb(0%,0%,0%);fill-opacity:1;" d="M 152.75 137.828125 L 152.457031 137.828125 C 152.359375 138.667969 152.242188 139.800781 150.582031 139.800781 L 149.722656 139.800781 C 149.3125 139.800781 149.292969 139.722656 149.292969 139.46875 L 149.292969 134.878906 C 149.292969 134.585938 149.292969 134.46875 150.113281 134.46875 L 150.425781 134.46875 L 150.425781 134.15625 L 148.902344 134.195312 L 147.574219 134.15625 L 147.574219 134.46875 L 147.789062 134.46875 C 148.453125 134.46875 148.472656 134.566406 148.472656 134.878906 L 148.472656 139.410156 C 148.472656 139.703125 148.453125 139.800781 147.789062 139.800781 L 147.574219 139.800781 L 147.574219 140.113281 L 152.496094 140.113281 L 152.75 137.828125 Z M 152.75 137.828125 "/>
<path style=" stroke:none;fill-rule:nonzero;fill:rgb(0%,0%,0%);fill-opacity:1;" d="M 157.988281 139.332031 L 157.988281 138.84375 L 157.675781 138.84375 L 157.675781 139.3125 C 157.675781 139.410156 157.675781 139.820312 157.363281 139.820312 C 157.03125 139.820312 157.03125 139.410156 157.03125 139.3125 L 157.03125 137.769531 C 157.03125 137.320312 157.03125 136.988281 156.640625 136.65625 C 156.289062 136.363281 155.859375 136.226562 155.351562 136.226562 C 154.53125 136.226562 153.945312 136.539062 153.945312 137.066406 C 153.945312 137.359375 154.121094 137.496094 154.355469 137.496094 C 154.589844 137.496094 154.765625 137.320312 154.765625 137.085938 C 154.765625 136.949219 154.6875 136.753906 154.453125 136.695312 C 154.765625 136.480469 155.273438 136.480469 155.332031 136.480469 C 155.820312 136.480469 156.347656 136.792969 156.347656 137.535156 L 156.347656 137.789062 C 155.878906 137.808594 155.292969 137.847656 154.667969 138.082031 C 153.886719 138.355469 153.632812 138.84375 153.632812 139.234375 C 153.632812 139.976562 154.53125 140.191406 155.15625 140.191406 C 155.859375 140.191406 156.269531 139.800781 156.445312 139.46875 C 156.484375 139.820312 156.71875 140.152344 157.109375 140.152344 C 157.109375 140.152344 157.988281 140.152344 157.988281 139.332031 Z M 156.347656 138.882812 C 156.347656 139.722656 155.625 139.957031 155.234375 139.957031 C 154.785156 139.957031 154.375 139.664062 154.375 139.234375 C 154.375 138.746094 154.785156 138.082031 156.347656 138.023438 L 156.347656 138.882812 Z M 156.347656 138.882812 "/>
<path style=" stroke:none;fill-rule:nonzero;fill:rgb(0%,0%,0%);fill-opacity:1;" d="M 167.433594 138.238281 C 167.433594 137.164062 166.554688 136.265625 165.402344 136.265625 C 164.875 136.265625 164.40625 136.480469 164.09375 136.792969 L 164.09375 134.058594 L 162.785156 134.15625 L 162.785156 134.46875 C 163.371094 134.46875 163.429688 134.546875 163.429688 134.976562 L 163.429688 140.113281 L 163.722656 140.113281 L 164.035156 139.585938 C 164.367188 140.015625 164.855469 140.191406 165.304688 140.191406 C 166.457031 140.191406 167.433594 139.332031 167.433594 138.238281 Z M 166.652344 138.21875 C 166.652344 138.414062 166.652344 139.078125 166.300781 139.488281 C 165.949219 139.878906 165.519531 139.957031 165.265625 139.957031 C 164.5625 139.957031 164.210938 139.410156 164.132812 139.234375 L 164.132812 137.203125 C 164.367188 136.792969 164.835938 136.519531 165.363281 136.519531 C 165.851562 136.519531 166.203125 136.792969 166.378906 137.046875 C 166.554688 137.300781 166.652344 137.652344 166.652344 138.21875 Z M 166.652344 138.21875 "/>
<path style=" stroke:none;fill-rule:nonzero;fill:rgb(0%,0%,0%);fill-opacity:1;" d="M 172.734375 138.257812 C 172.734375 137.164062 171.796875 136.226562 170.605469 136.226562 C 169.394531 136.226562 168.457031 137.164062 168.457031 138.257812 C 168.457031 139.332031 169.414062 140.191406 170.605469 140.191406 C 171.777344 140.191406 172.734375 139.332031 172.734375 138.257812 Z M 171.933594 138.179688 C 171.933594 138.589844 171.914062 139.058594 171.660156 139.410156 C 171.425781 139.742188 171.035156 139.917969 170.605469 139.917969 C 170.273438 139.917969 169.804688 139.820312 169.511719 139.390625 C 169.277344 139.039062 169.257812 138.589844 169.257812 138.179688 C 169.257812 137.808594 169.257812 137.28125 169.570312 136.910156 C 169.785156 136.65625 170.15625 136.480469 170.605469 136.480469 C 171.113281 136.480469 171.484375 136.714844 171.679688 136.988281 C 171.914062 137.320312 171.933594 137.769531 171.933594 138.179688 Z M 171.933594 138.179688 "/>
<path style=" stroke:none;fill-rule:nonzero;fill:rgb(0%,0%,0%);fill-opacity:1;" d="M 178.167969 138.238281 C 178.167969 137.164062 177.289062 136.265625 176.136719 136.265625 C 175.609375 136.265625 175.140625 136.480469 174.828125 136.792969 L 174.828125 134.058594 L 173.519531 134.15625 L 173.519531 134.46875 C 174.105469 134.46875 174.164062 134.546875 174.164062 134.976562 L 174.164062 140.113281 L 174.457031 140.113281 L 174.769531 139.585938 C 175.101562 140.015625 175.589844 140.191406 176.039062 140.191406 C 177.191406 140.191406 178.167969 139.332031 178.167969 138.238281 Z M 177.386719 138.21875 C 177.386719 138.414062 177.386719 139.078125 177.035156 139.488281 C 176.683594 139.878906 176.253906 139.957031 176 139.957031 C 175.296875 139.957031 174.945312 139.410156 174.867188 139.234375 L 174.867188 137.203125 C 175.101562 136.792969 175.570312 136.519531 176.097656 136.519531 C 176.585938 136.519531 176.9375 136.792969 177.113281 137.046875 C 177.289062 137.300781 177.386719 137.652344 177.386719 138.21875 Z M 177.386719 138.21875 "/>
<path style=" stroke:none;fill-rule:nonzero;fill:rgb(0%,0%,0%);fill-opacity:1;" d="M 180.972656 140.113281 L 180.972656 139.800781 C 180.464844 139.800781 180.386719 139.800781 180.386719 139.429688 L 180.386719 136.265625 L 179.097656 136.363281 L 179.097656 136.675781 C 179.644531 136.675781 179.722656 136.734375 179.722656 137.164062 L 179.722656 139.429688 C 179.722656 139.800781 179.644531 139.800781 179.078125 139.800781 L 179.078125 140.113281 C 179.078125 140.113281 179.703125 140.074219 180.054688 140.074219 C 180.367188 140.074219 180.679688 140.09375 180.972656 140.113281 Z M 180.503906 134.878906 C 180.503906 134.585938 180.289062 134.371094 179.996094 134.371094 C 179.703125 134.371094 179.507812 134.605469 179.507812 134.859375 C 179.507812 135.132812 179.722656 135.367188 179.996094 135.367188 C 180.289062 135.367188 180.503906 135.113281 180.503906 134.878906 Z M 180.503906 134.878906 "/>
<path style=" stroke:none;fill-rule:nonzero;fill:rgb(0%,0%,0%);fill-opacity:1;" d="M 186.546875 140.113281 L 186.546875 139.800781 C 185.980469 139.800781 185.902344 139.800781 185.902344 139.429688 L 185.902344 137.476562 C 185.902344 136.714844 185.53125 136.265625 184.59375 136.265625 C 183.871094 136.265625 183.421875 136.65625 183.167969 137.125 L 183.167969 137.125 L 183.167969 136.265625 L 181.878906 136.363281 L 181.878906 136.675781 C 182.464844 136.675781 182.542969 136.734375 182.542969 137.164062 L 182.542969 139.429688 C 182.542969 139.800781 182.445312 139.800781 181.878906 139.800781 L 181.878906 140.113281 C 181.878906 140.113281 182.503906 140.074219 182.875 140.074219 C 183.1875 140.074219 183.792969 140.113281 183.871094 140.113281 L 183.871094 139.800781 C 183.304688 139.800781 183.226562 139.800781 183.226562 139.429688 L 183.226562 137.847656 C 183.226562 136.949219 183.949219 136.519531 184.515625 136.519531 C 185.121094 136.519531 185.199219 136.988281 185.199219 137.4375 L 185.199219 139.429688 C 185.199219 139.800781 185.121094 139.800781 184.554688 139.800781 L 184.554688 140.113281 C 184.554688 140.113281 185.179688 140.074219 185.550781 140.074219 C 185.863281 140.074219 186.46875 140.113281 186.546875 140.113281 Z M 186.546875 140.113281 "/>
<path style=" stroke:none;fill-rule:nonzero;fill:rgb(0%,0%,0%);fill-opacity:1;" d="M 190.992188 139.058594 C 190.992188 139.039062 190.972656 138.941406 190.835938 138.941406 C 190.71875 138.941406 190.699219 139 190.679688 139.078125 C 190.40625 139.78125 189.742188 139.917969 189.429688 139.917969 C 189.019531 139.917969 188.628906 139.742188 188.375 139.410156 C 188.042969 139 188.042969 138.472656 188.042969 138.121094 L 190.738281 138.121094 C 190.933594 138.121094 190.992188 138.121094 190.992188 137.945312 C 190.992188 137.164062 190.5625 136.226562 189.253906 136.226562 C 188.121094 136.226562 187.242188 137.125 187.242188 138.199219 C 187.242188 139.3125 188.21875 140.191406 189.371094 140.191406 C 190.542969 140.191406 190.992188 139.253906 190.992188 139.058594 Z M 190.386719 137.90625 L 188.042969 137.90625 C 188.140625 136.675781 188.921875 136.480469 189.253906 136.480469 C 190.328125 136.480469 190.367188 137.691406 190.386719 137.90625 Z M 190.386719 137.90625 "/>
<path style=" stroke:none;fill-rule:nonzero;fill:rgb(0%,0%,0%);fill-opacity:1;" d="M 199.570312 139.058594 C 199.570312 139.039062 199.550781 138.941406 199.414062 138.941406 C 199.296875 138.941406 199.277344 139 199.257812 139.078125 C 198.984375 139.78125 198.320312 139.917969 198.007812 139.917969 C 197.597656 139.917969 197.207031 139.742188 196.953125 139.410156 C 196.621094 139 196.621094 138.472656 196.621094 138.121094 L 199.316406 138.121094 C 199.511719 138.121094 199.570312 138.121094 199.570312 137.945312 C 199.570312 137.164062 199.140625 136.226562 197.832031 136.226562 C 196.699219 136.226562 195.820312 137.125 195.820312 138.199219 C 195.820312 139.3125 196.796875 140.191406 197.949219 140.191406 C 199.121094 140.191406 199.570312 139.253906 199.570312 139.058594 Z M 198.964844 137.90625 L 196.621094 137.90625 C 196.71875 136.675781 197.5 136.480469 197.832031 136.480469 C 198.90625 136.480469 198.945312 137.691406 198.964844 137.90625 Z M 198.964844 137.90625 "/>
<path style=" stroke:none;fill-rule:nonzero;fill:rgb(0%,0%,0%);fill-opacity:1;" d="M 203.46875 138.980469 C 203.46875 138.648438 203.3125 138.375 203.078125 138.179688 C 202.746094 137.867188 202.355469 137.789062 202.042969 137.75 C 201.359375 137.613281 200.792969 137.515625 200.792969 137.046875 C 200.792969 136.773438 201.027344 136.441406 201.847656 136.441406 C 202.863281 136.441406 202.902344 137.144531 202.921875 137.398438 C 202.921875 137.496094 203.039062 137.496094 203.058594 137.496094 C 203.214844 137.496094 203.214844 137.4375 203.214844 137.261719 L 203.214844 136.460938 C 203.214844 136.304688 203.214844 136.226562 203.097656 136.226562 C 203.058594 136.226562 203.039062 136.226562 202.921875 136.324219 C 202.902344 136.34375 202.824219 136.421875 202.765625 136.460938 C 202.492188 136.285156 202.179688 136.226562 201.847656 136.226562 C 200.597656 136.226562 200.304688 136.890625 200.304688 137.320312 C 200.304688 137.59375 200.421875 137.828125 200.636719 138.003906 C 200.96875 138.277344 201.300781 138.335938 201.847656 138.433594 C 202.277344 138.511719 202.980469 138.628906 202.980469 139.214844 C 202.980469 139.546875 202.746094 139.957031 201.90625 139.957031 C 201.066406 139.957031 200.773438 139.410156 200.617188 138.824219 C 200.578125 138.707031 200.578125 138.667969 200.460938 138.667969 C 200.304688 138.667969 200.304688 138.726562 200.304688 138.902344 L 200.304688 139.976562 C 200.304688 140.113281 200.304688 140.191406 200.421875 140.191406 C 200.5 140.191406 200.675781 140.015625 200.851562 139.820312 C 201.222656 140.191406 201.691406 140.191406 201.90625 140.191406 C 203.039062 140.191406 203.46875 139.585938 203.46875 138.980469 Z M 203.46875 138.980469 "/>
<path style=" stroke:none;fill-rule:nonzero;fill:rgb(0%,0%,0%);fill-opacity:1;" d="M 207.121094 139.019531 L 207.121094 138.53125 L 206.828125 138.53125 L 206.828125 139 C 206.828125 139.605469 206.554688 139.917969 206.203125 139.917969 C 205.617188 139.917969 205.617188 139.195312 205.617188 139.039062 L 205.617188 136.675781 L 206.964844 136.675781 L 206.964844 136.363281 L 205.617188 136.363281 L 205.617188 134.761719 L 205.304688 134.761719 C 205.304688 135.542969 204.953125 136.402344 204.113281 136.421875 L 204.113281 136.675781 L 204.914062 136.675781 L 204.914062 139.019531 C 204.914062 139.996094 205.65625 140.191406 206.144531 140.191406 C 206.730469 140.191406 207.121094 139.703125 207.121094 139.019531 Z M 207.121094 139.019531 "/>
<path style=" stroke:none;fill-rule:nonzero;fill:rgb(0%,0%,0%);fill-opacity:1;" d="M 151.675781 148.199219 C 151.675781 147.125 150.796875 146.226562 149.683594 146.226562 C 149.195312 146.226562 148.6875 146.421875 148.335938 146.773438 L 148.335938 146.226562 L 147.027344 146.324219 L 147.027344 146.636719 C 147.632812 146.636719 147.671875 146.695312 147.671875 147.046875 L 147.671875 151.070312 C 147.671875 151.441406 147.59375 151.441406 147.027344 151.441406 L 147.027344 151.773438 C 147.027344 151.773438 147.652344 151.734375 148.023438 151.734375 C 148.335938 151.734375 148.941406 151.753906 149.019531 151.773438 L 149.019531 151.441406 C 148.453125 151.441406 148.375 151.441406 148.375 151.070312 L 148.375 149.664062 C 148.414062 149.703125 148.824219 150.152344 149.546875 150.152344 C 150.699219 150.152344 151.675781 149.292969 151.675781 148.199219 Z M 150.894531 148.199219 C 150.894531 149.195312 150.230469 149.917969 149.507812 149.917969 C 148.726562 149.917969 148.394531 149.253906 148.375 149.195312 L 148.375 147.164062 C 148.628906 146.734375 149.136719 146.519531 149.585938 146.519531 C 150.328125 146.519531 150.894531 147.28125 150.894531 148.199219 Z M 150.894531 148.199219 "/>
<path style=" stroke:none;fill-rule:nonzero;fill:rgb(0%,0%,0%);fill-opacity:1;" d="M 156.84375 149.292969 L 156.84375 148.804688 L 156.53125 148.804688 L 156.53125 149.273438 C 156.53125 149.371094 156.53125 149.78125 156.21875 149.78125 C 155.886719 149.78125 155.886719 149.371094 155.886719 149.273438 L 155.886719 147.730469 C 155.886719 147.28125 155.886719 146.949219 155.496094 146.617188 C 155.144531 146.324219 154.714844 146.1875 154.207031 146.1875 C 153.386719 146.1875 152.800781 146.5 152.800781 147.027344 C 152.800781 147.320312 152.976562 147.457031 153.210938 147.457031 C 153.445312 147.457031 153.621094 147.28125 153.621094 147.046875 C 153.621094 146.910156 153.542969 146.714844 153.308594 146.65625 C 153.621094 146.441406 154.128906 146.441406 154.1875 146.441406 C 154.675781 146.441406 155.203125 146.753906 155.203125 147.496094 L 155.203125 147.75 C 154.734375 147.769531 154.148438 147.808594 153.523438 148.042969 C 152.742188 148.316406 152.488281 148.804688 152.488281 149.195312 C 152.488281 149.9375 153.386719 150.152344 154.011719 150.152344 C 154.714844 150.152344 155.125 149.761719 155.300781 149.429688 C 155.339844 149.78125 155.574219 150.113281 155.964844 150.113281 C 155.964844 150.113281 156.84375 150.113281 156.84375 149.292969 Z M 155.203125 148.84375 C 155.203125 149.683594 154.480469 149.917969 154.089844 149.917969 C 153.640625 149.917969 153.230469 149.625 153.230469 149.195312 C 153.230469 148.707031 153.640625 148.042969 155.203125 147.984375 L 155.203125 148.84375 Z M 155.203125 148.84375 "/>
<path style=" stroke:none;fill-rule:nonzero;fill:rgb(0%,0%,0%);fill-opacity:1;" d="M 160.617188 146.792969 C 160.617188 146.5 160.324219 146.226562 159.914062 146.226562 C 159.484375 146.226562 158.996094 146.5 158.742188 147.164062 L 158.742188 147.164062 L 158.742188 146.226562 L 157.492188 146.324219 L 157.492188 146.636719 C 158.078125 146.636719 158.136719 146.695312 158.136719 147.125 L 158.136719 149.390625 C 158.136719 149.761719 158.058594 149.761719 157.492188 149.761719 L 157.492188 150.074219 C 157.53125 150.074219 158.117188 150.035156 158.488281 150.035156 L 159.621094 150.074219 L 159.621094 149.761719 L 159.445312 149.761719 C 158.800781 149.761719 158.800781 149.664062 158.800781 149.371094 L 158.800781 148.082031 C 158.800781 147.359375 159.132812 146.480469 159.972656 146.480469 C 159.894531 146.539062 159.816406 146.65625 159.816406 146.792969 C 159.816406 147.085938 160.050781 147.183594 160.207031 147.183594 C 160.421875 147.183594 160.617188 147.046875 160.617188 146.792969 Z M 160.617188 146.792969 "/>
<path style=" stroke:none;fill-rule:nonzero;fill:rgb(0%,0%,0%);fill-opacity:1;" d="M 165.035156 149.019531 C 165.035156 148.921875 164.917969 148.921875 164.878906 148.921875 C 164.761719 148.921875 164.761719 148.941406 164.722656 149.078125 C 164.527344 149.605469 164.058594 149.878906 163.53125 149.878906 C 162.925781 149.878906 162.144531 149.429688 162.144531 148.179688 C 162.144531 147.085938 162.691406 146.460938 163.492188 146.460938 C 163.609375 146.460938 164.019531 146.460938 164.332031 146.597656 C 164.175781 146.675781 164.097656 146.8125 164.097656 146.988281 C 164.097656 147.222656 164.253906 147.398438 164.507812 147.398438 C 164.742188 147.398438 164.917969 147.242188 164.917969 146.96875 C 164.917969 146.1875 163.707031 146.1875 163.472656 146.1875 C 162.164062 146.1875 161.363281 147.183594 161.363281 148.199219 C 161.363281 149.292969 162.28125 150.152344 163.433594 150.152344 C 164.722656 150.152344 165.035156 149.136719 165.035156 149.019531 Z M 165.035156 149.019531 "/>
<path style=" stroke:none;fill-rule:nonzero;fill:rgb(0%,0%,0%);fill-opacity:1;" d="M 169.988281 148.21875 C 169.988281 147.125 169.050781 146.1875 167.859375 146.1875 C 166.648438 146.1875 165.710938 147.125 165.710938 148.21875 C 165.710938 149.292969 166.667969 150.152344 167.859375 150.152344 C 169.03125 150.152344 169.988281 149.292969 169.988281 148.21875 Z M 169.1875 148.140625 C 169.1875 148.550781 169.167969 149.019531 168.914062 149.371094 C 168.679688 149.703125 168.289062 149.878906 167.859375 149.878906 C 167.527344 149.878906 167.058594 149.78125 166.765625 149.351562 C 166.53125 149 166.511719 148.550781 166.511719 148.140625 C 166.511719 147.769531 166.511719 147.242188 166.824219 146.871094 C 167.039062 146.617188 167.410156 146.441406 167.859375 146.441406 C 168.367188 146.441406 168.738281 146.675781 168.933594 146.949219 C 169.167969 147.28125 169.1875 147.730469 169.1875 148.140625 Z M 169.1875 148.140625 "/>
<path style=" stroke:none;fill-rule:nonzero;fill:rgb(0%,0%,0%);fill-opacity:1;" d="M 175.480469 150.074219 L 175.480469 149.761719 C 174.894531 149.761719 174.835938 149.703125 174.835938 149.273438 L 174.835938 146.226562 L 173.488281 146.324219 L 173.488281 146.636719 C 174.074219 146.636719 174.132812 146.695312 174.132812 147.125 L 174.132812 148.628906 C 174.132812 149.390625 173.644531 149.917969 172.980469 149.917969 C 172.199219 149.917969 172.160156 149.546875 172.160156 149.097656 L 172.160156 146.226562 L 170.8125 146.324219 L 170.8125 146.636719 C 171.476562 146.636719 171.476562 146.675781 171.476562 147.4375 L 171.476562 148.746094 C 171.476562 149.351562 171.476562 150.152344 172.921875 150.152344 C 173.117188 150.152344 173.742188 150.152344 174.171875 149.429688 L 174.171875 149.429688 L 174.171875 150.152344 L 175.480469 150.074219 Z M 175.480469 150.074219 "/>
<path style=" stroke:none;fill-rule:nonzero;fill:rgb(0%,0%,0%);fill-opacity:1;" d="M 179.398438 146.792969 C 179.398438 146.5 179.105469 146.226562 178.695312 146.226562 C 178.265625 146.226562 177.777344 146.5 177.523438 147.164062 L 177.523438 147.164062 L 177.523438 146.226562 L 176.273438 146.324219 L 176.273438 146.636719 C 176.859375 146.636719 176.917969 146.695312 176.917969 147.125 L 176.917969 149.390625 C 176.917969 149.761719 176.839844 149.761719 176.273438 149.761719 L 176.273438 150.074219 C 176.3125 150.074219 176.898438 150.035156 177.269531 150.035156 L 178.402344 150.074219 L 178.402344 149.761719 L 178.226562 149.761719 C 177.582031 149.761719 177.582031 149.664062 177.582031 149.371094 L 177.582031 148.082031 C 177.582031 147.359375 177.914062 146.480469 178.753906 146.480469 C 178.675781 146.539062 178.597656 146.65625 178.597656 146.792969 C 178.597656 147.085938 178.832031 147.183594 178.988281 147.183594 C 179.203125 147.183594 179.398438 147.046875 179.398438 146.792969 Z M 179.398438 146.792969 "/>
<path style=" stroke:none;fill-rule:nonzero;fill:rgb(0%,0%,0%);fill-opacity:1;" d="M 184.871094 150.074219 L 184.871094 149.761719 C 184.285156 149.761719 184.226562 149.703125 184.226562 149.273438 L 184.226562 146.226562 L 182.878906 146.324219 L 182.878906 146.636719 C 183.464844 146.636719 183.523438 146.695312 183.523438 147.125 L 183.523438 148.628906 C 183.523438 149.390625 183.035156 149.917969 182.371094 149.917969 C 181.589844 149.917969 181.550781 149.546875 181.550781 149.097656 L 181.550781 146.226562 L 180.203125 146.324219 L 180.203125 146.636719 C 180.867188 146.636719 180.867188 146.675781 180.867188 147.4375 L 180.867188 148.746094 C 180.867188 149.351562 180.867188 150.152344 182.3125 150.152344 C 182.507812 150.152344 183.132812 150.152344 183.5625 149.429688 L 183.5625 149.429688 L 183.5625 150.152344 L 184.871094 150.074219 Z M 184.871094 150.074219 "/>
<path style=" stroke:none;fill-rule:nonzero;fill:rgb(0%,0%,0%);fill-opacity:1;" d="M 189.320312 149.019531 C 189.320312 149 189.300781 148.902344 189.164062 148.902344 C 189.046875 148.902344 189.027344 148.960938 189.007812 149.039062 C 188.734375 149.742188 188.070312 149.878906 187.757812 149.878906 C 187.347656 149.878906 186.957031 149.703125 186.703125 149.371094 C 186.371094 148.960938 186.371094 148.433594 186.371094 148.082031 L 189.066406 148.082031 C 189.261719 148.082031 189.320312 148.082031 189.320312 147.90625 C 189.320312 147.125 188.890625 146.1875 187.582031 146.1875 C 186.449219 146.1875 185.570312 147.085938 185.570312 148.160156 C 185.570312 149.273438 186.546875 150.152344 187.699219 150.152344 C 188.871094 150.152344 189.320312 149.214844 189.320312 149.019531 Z M 188.714844 147.867188 L 186.371094 147.867188 C 186.46875 146.636719 187.25 146.441406 187.582031 146.441406 C 188.65625 146.441406 188.695312 147.652344 188.714844 147.867188 Z M 188.714844 147.867188 "/>
<path style=" stroke:none;fill-rule:nonzero;fill:rgb(0%,0%,0%);fill-opacity:1;" d="M 198.890625 148.199219 C 198.890625 147.125 198.011719 146.226562 196.898438 146.226562 C 196.410156 146.226562 195.902344 146.421875 195.550781 146.773438 L 195.550781 146.226562 L 194.242188 146.324219 L 194.242188 146.636719 C 194.847656 146.636719 194.886719 146.695312 194.886719 147.046875 L 194.886719 151.070312 C 194.886719 151.441406 194.808594 151.441406 194.242188 151.441406 L 194.242188 151.773438 C 194.242188 151.773438 194.867188 151.734375 195.238281 151.734375 C 195.550781 151.734375 196.15625 151.753906 196.234375 151.773438 L 196.234375 151.441406 C 195.667969 151.441406 195.589844 151.441406 195.589844 151.070312 L 195.589844 149.664062 C 195.628906 149.703125 196.039062 150.152344 196.761719 150.152344 C 197.914062 150.152344 198.890625 149.292969 198.890625 148.199219 Z M 198.109375 148.199219 C 198.109375 149.195312 197.445312 149.917969 196.722656 149.917969 C 195.941406 149.917969 195.609375 149.253906 195.589844 149.195312 L 195.589844 147.164062 C 195.84375 146.734375 196.351562 146.519531 196.800781 146.519531 C 197.542969 146.519531 198.109375 147.28125 198.109375 148.199219 Z M 198.109375 148.199219 "/>
<path style=" stroke:none;fill-rule:nonzero;fill:rgb(0%,0%,0%);fill-opacity:1;" d="M 204.058594 149.292969 L 204.058594 148.804688 L 203.746094 148.804688 L 203.746094 149.273438 C 203.746094 149.371094 203.746094 149.78125 203.433594 149.78125 C 203.101562 149.78125 203.101562 149.371094 203.101562 149.273438 L 203.101562 147.730469 C 203.101562 147.28125 203.101562 146.949219 202.710938 146.617188 C 202.359375 146.324219 201.929688 146.1875 201.421875 146.1875 C 200.601562 146.1875 200.015625 146.5 200.015625 147.027344 C 200.015625 147.320312 200.191406 147.457031 200.425781 147.457031 C 200.660156 147.457031 200.835938 147.28125 200.835938 147.046875 C 200.835938 146.910156 200.757812 146.714844 200.523438 146.65625 C 200.835938 146.441406 201.34375 146.441406 201.402344 146.441406 C 201.890625 146.441406 202.417969 146.753906 202.417969 147.496094 L 202.417969 147.75 C 201.949219 147.769531 201.363281 147.808594 200.738281 148.042969 C 199.957031 148.316406 199.703125 148.804688 199.703125 149.195312 C 199.703125 149.9375 200.601562 150.152344 201.226562 150.152344 C 201.929688 150.152344 202.339844 149.761719 202.515625 149.429688 C 202.554688 149.78125 202.789062 150.113281 203.179688 150.113281 C 203.179688 150.113281 204.058594 150.113281 204.058594 149.292969 Z M 202.417969 148.84375 C 202.417969 149.683594 201.695312 149.917969 201.304688 149.917969 C 200.855469 149.917969 200.445312 149.625 200.445312 149.195312 C 200.445312 148.707031 200.855469 148.042969 202.417969 147.984375 L 202.417969 148.84375 Z M 202.417969 148.84375 "/>
<path style=" stroke:none;fill-rule:nonzero;fill:rgb(0%,0%,0%);fill-opacity:1;" d="M 207.832031 146.792969 C 207.832031 146.5 207.539062 146.226562 207.128906 146.226562 C 206.699219 146.226562 206.210938 146.5 205.957031 147.164062 L 205.957031 147.164062 L 205.957031 146.226562 L 204.707031 146.324219 L 204.707031 146.636719 C 205.292969 146.636719 205.351562 146.695312 205.351562 147.125 L 205.351562 149.390625 C 205.351562 149.761719 205.273438 149.761719 204.707031 149.761719 L 204.707031 150.074219 C 204.746094 150.074219 205.332031 150.035156 205.703125 150.035156 L 206.835938 150.074219 L 206.835938 149.761719 L 206.660156 149.761719 C 206.015625 149.761719 206.015625 149.664062 206.015625 149.371094 L 206.015625 148.082031 C 206.015625 147.359375 206.347656 146.480469 207.1875 146.480469 C 207.109375 146.539062 207.03125 146.65625 207.03125 146.792969 C 207.03125 147.085938 207.265625 147.183594 207.421875 147.183594 C 207.636719 147.183594 207.832031 147.046875 207.832031 146.792969 Z M 207.832031 146.792969 "/>
<path style=" stroke:none;fill-rule:nonzero;fill:rgb(0%,0%,0%);fill-opacity:1;" d="M 153.789062 160.039062 L 153.789062 159.726562 C 153.203125 159.726562 153.144531 159.667969 153.144531 159.238281 L 153.144531 156.191406 L 151.796875 156.289062 L 151.796875 156.601562 C 152.382812 156.601562 152.441406 156.660156 152.441406 157.089844 L 152.441406 158.59375 C 152.441406 159.355469 151.953125 159.882812 151.289062 159.882812 C 150.507812 159.882812 150.46875 159.511719 150.46875 159.0625 L 150.46875 156.191406 L 149.121094 156.289062 L 149.121094 156.601562 C 149.785156 156.601562 149.785156 156.640625 149.785156 157.402344 L 149.785156 158.710938 C 149.785156 159.316406 149.785156 160.117188 151.230469 160.117188 C 151.425781 160.117188 152.050781 160.117188 152.480469 159.394531 L 152.480469 159.394531 L 152.480469 160.117188 L 153.789062 160.039062 Z M 153.789062 160.039062 "/>
<path style=" stroke:none;fill-rule:nonzero;fill:rgb(0%,0%,0%);fill-opacity:1;" d="M 159.289062 160.039062 L 159.289062 159.726562 C 158.722656 159.726562 158.644531 159.726562 158.644531 159.355469 L 158.644531 157.402344 C 158.644531 156.640625 158.273438 156.191406 157.335938 156.191406 C 156.613281 156.191406 156.164062 156.582031 155.910156 157.050781 L 155.910156 157.050781 L 155.910156 156.191406 L 154.621094 156.289062 L 154.621094 156.601562 C 155.207031 156.601562 155.285156 156.660156 155.285156 157.089844 L 155.285156 159.355469 C 155.285156 159.726562 155.1875 159.726562 154.621094 159.726562 L 154.621094 160.039062 C 154.621094 160.039062 155.246094 160 155.617188 160 C 155.929688 160 156.535156 160.039062 156.613281 160.039062 L 156.613281 159.726562 C 156.046875 159.726562 155.96875 159.726562 155.96875 159.355469 L 155.96875 157.773438 C 155.96875 156.875 156.691406 156.445312 157.257812 156.445312 C 157.863281 156.445312 157.941406 156.914062 157.941406 157.363281 L 157.941406 159.355469 C 157.941406 159.726562 157.863281 159.726562 157.296875 159.726562 L 157.296875 160.039062 C 157.296875 160.039062 157.921875 160 158.292969 160 C 158.605469 160 159.210938 160.039062 159.289062 160.039062 Z M 159.289062 160.039062 "/>
<path style=" stroke:none;fill-rule:nonzero;fill:rgb(0%,0%,0%);fill-opacity:1;" d="M 167.886719 158.984375 C 167.886719 158.886719 167.769531 158.886719 167.730469 158.886719 C 167.613281 158.886719 167.613281 158.90625 167.574219 159.042969 C 167.378906 159.570312 166.910156 159.84375 166.382812 159.84375 C 165.777344 159.84375 164.996094 159.394531 164.996094 158.144531 C 164.996094 157.050781 165.542969 156.425781 166.34375 156.425781 C 166.460938 156.425781 166.871094 156.425781 167.183594 156.5625 C 167.027344 156.640625 166.949219 156.777344 166.949219 156.953125 C 166.949219 157.1875 167.105469 157.363281 167.359375 157.363281 C 167.59375 157.363281 167.769531 157.207031 167.769531 156.933594 C 167.769531 156.152344 166.558594 156.152344 166.324219 156.152344 C 165.015625 156.152344 164.214844 157.148438 164.214844 158.164062 C 164.214844 159.257812 165.132812 160.117188 166.285156 160.117188 C 167.574219 160.117188 167.886719 159.101562 167.886719 158.984375 Z M 167.886719 158.984375 "/>
<path style=" stroke:none;fill-rule:nonzero;fill:rgb(0%,0%,0%);fill-opacity:1;" d="M 172.839844 158.183594 C 172.839844 157.089844 171.902344 156.152344 170.710938 156.152344 C 169.5 156.152344 168.5625 157.089844 168.5625 158.183594 C 168.5625 159.257812 169.519531 160.117188 170.710938 160.117188 C 171.882812 160.117188 172.839844 159.257812 172.839844 158.183594 Z M 172.039062 158.105469 C 172.039062 158.515625 172.019531 158.984375 171.765625 159.335938 C 171.53125 159.667969 171.140625 159.84375 170.710938 159.84375 C 170.378906 159.84375 169.910156 159.746094 169.617188 159.316406 C 169.382812 158.964844 169.363281 158.515625 169.363281 158.105469 C 169.363281 157.734375 169.363281 157.207031 169.675781 156.835938 C 169.890625 156.582031 170.261719 156.40625 170.710938 156.40625 C 171.21875 156.40625 171.589844 156.640625 171.785156 156.914062 C 172.019531 157.246094 172.039062 157.695312 172.039062 158.105469 Z M 172.039062 158.105469 "/>
<path style=" stroke:none;fill-rule:nonzero;fill:rgb(0%,0%,0%);fill-opacity:1;" d="M 178.332031 160.039062 L 178.332031 159.726562 C 177.746094 159.726562 177.6875 159.667969 177.6875 159.238281 L 177.6875 156.191406 L 176.339844 156.289062 L 176.339844 156.601562 C 176.925781 156.601562 176.984375 156.660156 176.984375 157.089844 L 176.984375 158.59375 C 176.984375 159.355469 176.496094 159.882812 175.832031 159.882812 C 175.050781 159.882812 175.011719 159.511719 175.011719 159.0625 L 175.011719 156.191406 L 173.664062 156.289062 L 173.664062 156.601562 C 174.328125 156.601562 174.328125 156.640625 174.328125 157.402344 L 174.328125 158.710938 C 174.328125 159.316406 174.328125 160.117188 175.773438 160.117188 C 175.96875 160.117188 176.59375 160.117188 177.023438 159.394531 L 177.023438 159.394531 L 177.023438 160.117188 L 178.332031 160.039062 Z M 178.332031 160.039062 "/>
<path style=" stroke:none;fill-rule:nonzero;fill:rgb(0%,0%,0%);fill-opacity:1;" d="M 182.25 156.757812 C 182.25 156.464844 181.957031 156.191406 181.546875 156.191406 C 181.117188 156.191406 180.628906 156.464844 180.375 157.128906 L 180.375 157.128906 L 180.375 156.191406 L 179.125 156.289062 L 179.125 156.601562 C 179.710938 156.601562 179.769531 156.660156 179.769531 157.089844 L 179.769531 159.355469 C 179.769531 159.726562 179.691406 159.726562 179.125 159.726562 L 179.125 160.039062 C 179.164062 160.039062 179.75 160 180.121094 160 L 181.253906 160.039062 L 181.253906 159.726562 L 181.078125 159.726562 C 180.433594 159.726562 180.433594 159.628906 180.433594 159.335938 L 180.433594 158.046875 C 180.433594 157.324219 180.765625 156.445312 181.605469 156.445312 C 181.527344 156.503906 181.449219 156.621094 181.449219 156.757812 C 181.449219 157.050781 181.683594 157.148438 181.839844 157.148438 C 182.054688 157.148438 182.25 157.011719 182.25 156.757812 Z M 182.25 156.757812 "/>
<path style=" stroke:none;fill-rule:nonzero;fill:rgb(0%,0%,0%);fill-opacity:1;" d="M 187.332031 159.257812 L 187.332031 158.769531 L 187.019531 158.769531 L 187.019531 159.238281 C 187.019531 159.335938 187.019531 159.746094 186.707031 159.746094 C 186.375 159.746094 186.375 159.335938 186.375 159.238281 L 186.375 157.695312 C 186.375 157.246094 186.375 156.914062 185.984375 156.582031 C 185.632812 156.289062 185.203125 156.152344 184.695312 156.152344 C 183.875 156.152344 183.289062 156.464844 183.289062 156.992188 C 183.289062 157.285156 183.464844 157.421875 183.699219 157.421875 C 183.933594 157.421875 184.109375 157.246094 184.109375 157.011719 C 184.109375 156.875 184.03125 156.679688 183.796875 156.621094 C 184.109375 156.40625 184.617188 156.40625 184.675781 156.40625 C 185.164062 156.40625 185.691406 156.71875 185.691406 157.460938 L 185.691406 157.714844 C 185.222656 157.734375 184.636719 157.773438 184.011719 158.007812 C 183.230469 158.28125 182.976562 158.769531 182.976562 159.160156 C 182.976562 159.902344 183.875 160.117188 184.5 160.117188 C 185.203125 160.117188 185.613281 159.726562 185.789062 159.394531 C 185.828125 159.746094 186.0625 160.078125 186.453125 160.078125 C 186.453125 160.078125 187.332031 160.078125 187.332031 159.257812 Z M 185.691406 158.808594 C 185.691406 159.648438 184.96875 159.882812 184.578125 159.882812 C 184.128906 159.882812 183.71875 159.589844 183.71875 159.160156 C 183.71875 158.671875 184.128906 158.007812 185.691406 157.949219 L 185.691406 158.808594 Z M 185.691406 158.808594 "/>
<path style=" stroke:none;fill-rule:nonzero;fill:rgb(0%,0%,0%);fill-opacity:1;" d="M 192.6875 160.039062 L 192.6875 159.726562 C 192.121094 159.726562 192.042969 159.726562 192.042969 159.355469 L 192.042969 157.402344 C 192.042969 156.640625 191.671875 156.191406 190.734375 156.191406 C 190.011719 156.191406 189.5625 156.582031 189.308594 157.050781 L 189.308594 157.050781 L 189.308594 156.191406 L 188.019531 156.289062 L 188.019531 156.601562 C 188.605469 156.601562 188.683594 156.660156 188.683594 157.089844 L 188.683594 159.355469 C 188.683594 159.726562 188.585938 159.726562 188.019531 159.726562 L 188.019531 160.039062 C 188.019531 160.039062 188.644531 160 189.015625 160 C 189.328125 160 189.933594 160.039062 190.011719 160.039062 L 190.011719 159.726562 C 189.445312 159.726562 189.367188 159.726562 189.367188 159.355469 L 189.367188 157.773438 C 189.367188 156.875 190.089844 156.445312 190.65625 156.445312 C 191.261719 156.445312 191.339844 156.914062 191.339844 157.363281 L 191.339844 159.355469 C 191.339844 159.726562 191.261719 159.726562 190.695312 159.726562 L 190.695312 160.039062 C 190.695312 160.039062 191.320312 160 191.691406 160 C 192.003906 160 192.609375 160.039062 192.6875 160.039062 Z M 192.6875 160.039062 "/>
<path style=" stroke:none;fill-rule:nonzero;fill:rgb(0%,0%,0%);fill-opacity:1;" d="M 196.042969 158.945312 L 196.042969 158.457031 L 195.75 158.457031 L 195.75 158.925781 C 195.75 159.53125 195.476562 159.84375 195.125 159.84375 C 194.539062 159.84375 194.539062 159.121094 194.539062 158.964844 L 194.539062 156.601562 L 195.886719 156.601562 L 195.886719 156.289062 L 194.539062 156.289062 L 194.539062 154.6875 L 194.226562 154.6875 C 194.226562 155.46875 193.875 156.328125 193.035156 156.347656 L 193.035156 156.601562 L 193.835938 156.601562 L 193.835938 158.945312 C 193.835938 159.921875 194.578125 160.117188 195.066406 160.117188 C 195.652344 160.117188 196.042969 159.628906 196.042969 158.945312 Z M 196.042969 158.945312 "/>
<path style=" stroke:none;fill-rule:nonzero;fill:rgb(0%,0%,0%);fill-opacity:1;" d="M 205.496094 154.21875 C 205.496094 154.140625 205.4375 154.082031 205.359375 154.082031 C 205.183594 154.082031 204.949219 154.121094 204.773438 154.121094 L 204.1875 154.121094 L 203.582031 154.121094 C 203.386719 154.121094 203.171875 154.082031 202.976562 154.082031 C 202.917969 154.082031 202.800781 154.082031 202.800781 154.277344 C 202.800781 154.394531 202.898438 154.394531 203.09375 154.394531 C 203.09375 154.394531 203.269531 154.394531 203.40625 154.414062 C 203.582031 154.433594 203.660156 154.453125 203.660156 154.550781 C 203.660156 154.589844 203.640625 154.648438 203.621094 154.726562 L 202.449219 159.355469 C 202.390625 159.628906 202.351562 159.726562 201.707031 159.726562 C 201.472656 159.726562 201.394531 159.726562 201.394531 159.921875 C 201.394531 159.921875 201.394531 160.039062 201.53125 160.039062 C 201.785156 160.039062 202.449219 160 202.703125 160 L 203.308594 160.019531 C 203.484375 160.019531 203.71875 160.039062 203.894531 160.039062 C 203.953125 160.039062 204.089844 160.039062 204.089844 159.84375 C 204.089844 159.726562 203.972656 159.726562 203.816406 159.726562 C 203.816406 159.726562 203.601562 159.726562 203.425781 159.707031 C 203.230469 159.6875 203.230469 159.648438 203.230469 159.570312 C 203.230469 159.570312 203.230469 159.511719 203.269531 159.394531 L 204.421875 154.785156 C 204.5 154.472656 204.519531 154.394531 205.183594 154.394531 C 205.398438 154.394531 205.496094 154.394531 205.496094 154.21875 Z M 205.496094 154.21875 "/>
<path style="fill-rule:nonzero;fill:rgb(50.196078%,50.196078%,50.196078%);fill-opacity:1;stroke-width:0.3985;stroke-linecap:butt;stroke-linejoin:miter;stroke:rgb(0%,0%,0%);stroke-opacity:1;stroke-miterlimit:10;" d="M -4.55325 5.430375 L 32.57175 27.330375 L 4.556125 -5.429 L -4.55325 5.430375 Z M -4.55325 5.430375 " transform="matrix(1.25,0,0,-1.25,66.05875,117.8075)"/>
<path style="fill-rule:nonzero;fill:rgb(100%,100%,100%);fill-opacity:1;stroke-width:0.3985;stroke-linecap:butt;stroke-linejoin:miter;stroke:rgb(0%,0%,0%);stroke-opacity:1;stroke-miterlimit:10;" d="M -4.55325 5.430375 L -32.572 -27.332125 L 4.556125 -5.429 L -4.55325 5.430375 Z M -4.55325 5.430375 " transform="matrix(1.25,0,0,-1.25,66.05875,117.8075)"/>
<path style="fill:none;stroke-width:0.3985;stroke-linecap:butt;stroke-linejoin:miter;stroke:rgb(0%,0%,0%);stroke-opacity:1;stroke-dasharray:0.3985,1.99255;stroke-miterlimit:10;" d="M -0.000125 -0.000875 L -0.000125 42.517875 " transform="matrix(1.25,0,0,-1.25,66.05875,117.8075)"/>
<path style="fill:none;stroke-width:1.59404;stroke-linecap:butt;stroke-linejoin:miter;stroke:rgb(0%,0%,0%);stroke-opacity:1;stroke-miterlimit:10;" d="M 34.0155 28.346 L 34.0155 67.080375 " transform="matrix(1.25,0,0,-1.25,66.05875,117.8075)"/>
<path style=" stroke:none;fill-rule:nonzero;fill:rgb(0%,0%,0%);fill-opacity:1;" d="M 108.578125 29.222656 L 104.796875 36.796875 L 108.578125 33.953125 L 112.363281 36.796875 "/>
<path style=" stroke:none;fill-rule:nonzero;fill:rgb(0%,0%,0%);fill-opacity:1;" d="M 107.992188 11.820312 C 107.992188 11.585938 107.757812 11.585938 107.582031 11.585938 L 100.785156 11.585938 C 100.609375 11.585938 100.375 11.585938 100.375 11.820312 C 100.375 12.074219 100.609375 12.074219 100.785156 12.074219 L 107.582031 12.074219 C 107.757812 12.074219 107.992188 12.074219 107.992188 11.820312 Z M 107.992188 11.820312 "/>
<path style=" stroke:none;fill-rule:nonzero;fill:rgb(0%,0%,0%);fill-opacity:1;" d="M 111.09375 11.820312 C 111.09375 11.761719 111.035156 11.722656 110.996094 11.703125 C 109.648438 11.234375 108.671875 10.082031 108.4375 8.695312 C 108.417969 8.636719 108.359375 8.578125 108.300781 8.578125 L 108.066406 8.578125 C 107.988281 8.578125 107.929688 8.636719 107.929688 8.734375 C 108.125 9.886719 108.789062 10.902344 109.707031 11.585938 L 100.273438 11.585938 C 100.117188 11.585938 100.019531 11.703125 100.019531 11.820312 C 100.019531 11.957031 100.117188 12.074219 100.273438 12.074219 L 109.707031 12.074219 C 108.789062 12.757812 108.125 13.773438 107.929688 14.925781 C 107.929688 15.023438 107.988281 15.082031 108.066406 15.082031 L 108.300781 15.082031 C 108.359375 15.082031 108.417969 15.023438 108.4375 14.964844 C 108.671875 13.578125 109.648438 12.425781 110.996094 11.957031 C 111.035156 11.9375 111.09375 11.898438 111.09375 11.820312 Z M 111.09375 11.820312 "/>
<path style=" stroke:none;fill-rule:nonzero;fill:rgb(0%,0%,0%);fill-opacity:1;" d="M 109.28125 19.515625 C 109.28125 18.617188 108.558594 17.894531 107.347656 17.757812 C 108.636719 17.523438 109.945312 16.605469 109.945312 15.414062 C 109.945312 14.496094 109.125 13.695312 107.640625 13.695312 L 103.441406 13.695312 C 103.207031 13.695312 103.089844 13.695312 103.089844 13.949219 C 103.089844 14.085938 103.207031 14.085938 103.441406 14.085938 C 103.441406 14.085938 103.695312 14.085938 103.910156 14.105469 C 104.125 14.144531 104.242188 14.144531 104.242188 14.320312 C 104.242188 14.359375 104.222656 14.398438 104.203125 14.554688 L 102.523438 21.234375 C 102.40625 21.722656 102.367188 21.820312 101.390625 21.820312 C 101.175781 21.820312 101.058594 21.820312 101.058594 22.074219 C 101.058594 22.210938 101.175781 22.210938 101.390625 22.210938 L 105.84375 22.210938 C 107.816406 22.210938 109.28125 20.746094 109.28125 19.515625 Z M 108.8125 15.375 C 108.8125 16.46875 107.738281 17.640625 106.234375 17.640625 L 104.398438 17.640625 L 105.179688 14.554688 C 105.296875 14.125 105.316406 14.085938 105.84375 14.085938 L 107.464844 14.085938 C 108.558594 14.085938 108.8125 14.828125 108.8125 15.375 Z M 108.128906 19.378906 C 108.128906 20.609375 107.015625 21.820312 105.53125 21.820312 L 103.851562 21.820312 C 103.675781 21.820312 103.65625 21.820312 103.578125 21.820312 C 103.441406 21.800781 103.402344 21.78125 103.402344 21.683594 C 103.402344 21.644531 103.402344 21.625 103.480469 21.410156 L 104.339844 17.933594 L 106.683594 17.933594 C 107.875 17.933594 108.128906 18.851562 108.128906 19.378906 Z M 108.128906 19.378906 "/>
<path style=" stroke:none;fill-rule:nonzero;fill:rgb(0%,0%,0%);fill-opacity:1;" d="M 116.773438 22.828125 C 116.773438 22.710938 116.65625 22.710938 116.636719 22.710938 C 116.5 22.710938 116.5 22.75 116.441406 22.984375 C 116.324219 23.414062 116.167969 23.921875 115.796875 23.921875 C 115.582031 23.921875 115.503906 23.726562 115.503906 23.492188 C 115.503906 23.355469 115.582031 23.023438 115.640625 22.808594 L 115.835938 22.027344 C 115.914062 21.695312 115.933594 21.65625 116.011719 21.363281 C 116.070312 21.128906 116.167969 20.71875 116.167969 20.679688 C 116.167969 20.484375 116.011719 20.40625 115.875 20.40625 C 115.71875 20.40625 115.523438 20.503906 115.464844 20.757812 C 115.289062 20.464844 114.996094 20.230469 114.566406 20.230469 C 113.453125 20.230469 112.320312 21.460938 112.320312 22.710938 C 112.320312 23.570312 112.886719 24.15625 113.648438 24.15625 C 114.117188 24.15625 114.527344 23.902344 114.878906 23.550781 C 115.035156 24.078125 115.542969 24.15625 115.777344 24.15625 C 116.089844 24.15625 116.304688 23.980469 116.460938 23.707031 C 116.65625 23.355469 116.773438 22.867188 116.773438 22.828125 Z M 115.328125 21.363281 L 114.917969 22.984375 C 114.859375 23.238281 114.664062 23.414062 114.46875 23.570312 C 114.390625 23.648438 114.039062 23.921875 113.667969 23.921875 C 113.335938 23.921875 113.023438 23.6875 113.023438 23.082031 C 113.023438 22.613281 113.277344 21.65625 113.492188 21.304688 C 113.882812 20.601562 114.332031 20.484375 114.566406 20.484375 C 115.171875 20.484375 115.347656 21.148438 115.347656 21.246094 C 115.347656 21.265625 115.328125 21.34375 115.328125 21.363281 Z M 115.328125 21.363281 "/>
<path style="fill:none;stroke-width:1.59404;stroke-linecap:butt;stroke-linejoin:miter;stroke:rgb(0%,0%,0%);stroke-opacity:1;stroke-miterlimit:10;" d="M 34.0155 28.346 L 78.418625 28.346 " transform="matrix(1.25,0,0,-1.25,66.05875,117.8075)"/>
<path style=" stroke:none;fill-rule:nonzero;fill:rgb(0%,0%,0%);fill-opacity:1;" d="M 168.8125 82.375 L 161.246094 78.589844 L 164.082031 82.375 L 161.246094 86.164062 "/>
<path style=" stroke:none;fill-rule:nonzero;fill:rgb(0%,0%,0%);fill-opacity:1;" d="M 171.238281 88.964844 C 171.238281 88.730469 171.003906 88.730469 170.828125 88.730469 L 164.03125 88.730469 C 163.855469 88.730469 163.621094 88.730469 163.621094 88.964844 C 163.621094 89.21875 163.855469 89.21875 164.03125 89.21875 L 170.828125 89.21875 C 171.003906 89.21875 171.238281 89.21875 171.238281 88.964844 Z M 171.238281 88.964844 "/>
<path style=" stroke:none;fill-rule:nonzero;fill:rgb(0%,0%,0%);fill-opacity:1;" d="M 174.34375 88.964844 C 174.34375 88.90625 174.285156 88.867188 174.246094 88.847656 C 172.898438 88.378906 171.921875 87.226562 171.6875 85.839844 C 171.667969 85.78125 171.609375 85.722656 171.550781 85.722656 L 171.316406 85.722656 C 171.238281 85.722656 171.179688 85.78125 171.179688 85.878906 C 171.375 87.03125 172.039062 88.046875 172.957031 88.730469 L 163.523438 88.730469 C 163.367188 88.730469 163.269531 88.847656 163.269531 88.964844 C 163.269531 89.101562 163.367188 89.21875 163.523438 89.21875 L 172.957031 89.21875 C 172.039062 89.902344 171.375 90.917969 171.179688 92.070312 C 171.179688 92.167969 171.238281 92.226562 171.316406 92.226562 L 171.550781 92.226562 C 171.609375 92.226562 171.667969 92.167969 171.6875 92.109375 C 171.921875 90.722656 172.898438 89.570312 174.246094 89.101562 C 174.285156 89.082031 174.34375 89.042969 174.34375 88.964844 Z M 174.34375 88.964844 "/>
<path style=" stroke:none;fill-rule:nonzero;fill:rgb(0%,0%,0%);fill-opacity:1;" d="M 172.527344 96.660156 C 172.527344 95.761719 171.804688 95.039062 170.59375 94.902344 C 171.882812 94.667969 173.191406 93.75 173.191406 92.558594 C 173.191406 91.640625 172.371094 90.839844 170.886719 90.839844 L 166.6875 90.839844 C 166.453125 90.839844 166.335938 90.839844 166.335938 91.09375 C 166.335938 91.230469 166.453125 91.230469 166.6875 91.230469 C 166.6875 91.230469 166.941406 91.230469 167.15625 91.25 C 167.371094 91.289062 167.488281 91.289062 167.488281 91.464844 C 167.488281 91.503906 167.46875 91.542969 167.449219 91.699219 L 165.769531 98.378906 C 165.652344 98.867188 165.613281 98.964844 164.636719 98.964844 C 164.421875 98.964844 164.304688 98.964844 164.304688 99.21875 C 164.304688 99.355469 164.421875 99.355469 164.636719 99.355469 L 169.089844 99.355469 C 171.0625 99.355469 172.527344 97.890625 172.527344 96.660156 Z M 172.058594 92.519531 C 172.058594 93.613281 170.984375 94.785156 169.480469 94.785156 L 167.644531 94.785156 L 168.425781 91.699219 C 168.542969 91.269531 168.5625 91.230469 169.089844 91.230469 L 170.710938 91.230469 C 171.804688 91.230469 172.058594 91.972656 172.058594 92.519531 Z M 171.375 96.523438 C 171.375 97.753906 170.261719 98.964844 168.777344 98.964844 L 167.097656 98.964844 C 166.921875 98.964844 166.902344 98.964844 166.824219 98.964844 C 166.6875 98.945312 166.648438 98.925781 166.648438 98.828125 C 166.648438 98.789062 166.648438 98.769531 166.726562 98.554688 L 167.585938 95.078125 L 169.929688 95.078125 C 171.121094 95.078125 171.375 95.996094 171.375 96.523438 Z M 171.375 96.523438 "/>
<path style="fill:none;stroke-width:1.59404;stroke-linecap:butt;stroke-linejoin:miter;stroke:rgb(0%,0%,0%);stroke-opacity:1;stroke-miterlimit:10;" d="M 34.0155 28.346 L 78.724875 65.605375 " transform="matrix(1.25,0,0,-1.25,66.05875,117.8075)"/>
<path style=" stroke:none;fill-rule:nonzero;fill:rgb(0%,0%,0%);fill-opacity:1;" d="M 168.105469 32.769531 L 159.851562 34.707031 L 164.460938 35.800781 L 164.707031 40.539062 "/>
<path style=" stroke:none;fill-rule:nonzero;fill:rgb(0%,0%,0%);fill-opacity:1;" d="M 166.609375 15.363281 C 166.609375 15.128906 166.375 15.128906 166.199219 15.128906 L 159.402344 15.128906 C 159.226562 15.128906 158.992188 15.128906 158.992188 15.363281 C 158.992188 15.617188 159.226562 15.617188 159.402344 15.617188 L 166.199219 15.617188 C 166.375 15.617188 166.609375 15.617188 166.609375 15.363281 Z M 166.609375 15.363281 "/>
<path style=" stroke:none;fill-rule:nonzero;fill:rgb(0%,0%,0%);fill-opacity:1;" d="M 169.710938 15.363281 C 169.710938 15.304688 169.652344 15.265625 169.613281 15.246094 C 168.265625 14.777344 167.289062 13.625 167.054688 12.238281 C 167.035156 12.179688 166.976562 12.121094 166.917969 12.121094 L 166.683594 12.121094 C 166.605469 12.121094 166.546875 12.179688 166.546875 12.277344 C 166.742188 13.429688 167.40625 14.445312 168.324219 15.128906 L 158.890625 15.128906 C 158.734375 15.128906 158.636719 15.246094 158.636719 15.363281 C 158.636719 15.5 158.734375 15.617188 158.890625 15.617188 L 168.324219 15.617188 C 167.40625 16.300781 166.742188 17.316406 166.546875 18.46875 C 166.546875 18.566406 166.605469 18.625 166.683594 18.625 L 166.917969 18.625 C 166.976562 18.625 167.035156 18.566406 167.054688 18.507812 C 167.289062 17.121094 168.265625 15.96875 169.613281 15.5 C 169.652344 15.480469 169.710938 15.441406 169.710938 15.363281 Z M 169.710938 15.363281 "/>
<path style=" stroke:none;fill-rule:nonzero;fill:rgb(0%,0%,0%);fill-opacity:1;" d="M 167.898438 23.058594 C 167.898438 22.160156 167.175781 21.4375 165.964844 21.300781 C 167.253906 21.066406 168.5625 20.148438 168.5625 18.957031 C 168.5625 18.039062 167.742188 17.238281 166.257812 17.238281 L 162.058594 17.238281 C 161.824219 17.238281 161.707031 17.238281 161.707031 17.492188 C 161.707031 17.628906 161.824219 17.628906 162.058594 17.628906 C 162.058594 17.628906 162.3125 17.628906 162.527344 17.648438 C 162.742188 17.6875 162.859375 17.6875 162.859375 17.863281 C 162.859375 17.902344 162.839844 17.941406 162.820312 18.097656 L 161.140625 24.777344 C 161.023438 25.265625 160.984375 25.363281 160.007812 25.363281 C 159.792969 25.363281 159.675781 25.363281 159.675781 25.617188 C 159.675781 25.753906 159.792969 25.753906 160.007812 25.753906 L 164.460938 25.753906 C 166.433594 25.753906 167.898438 24.289062 167.898438 23.058594 Z M 167.429688 18.917969 C 167.429688 20.011719 166.355469 21.183594 164.851562 21.183594 L 163.015625 21.183594 L 163.796875 18.097656 C 163.914062 17.667969 163.933594 17.628906 164.460938 17.628906 L 166.082031 17.628906 C 167.175781 17.628906 167.429688 18.371094 167.429688 18.917969 Z M 166.746094 22.921875 C 166.746094 24.152344 165.632812 25.363281 164.148438 25.363281 L 162.46875 25.363281 C 162.292969 25.363281 162.273438 25.363281 162.195312 25.363281 C 162.058594 25.34375 162.019531 25.324219 162.019531 25.226562 C 162.019531 25.1875 162.019531 25.167969 162.097656 24.953125 L 162.957031 21.476562 L 165.300781 21.476562 C 166.492188 21.476562 166.746094 22.394531 166.746094 22.921875 Z M 166.746094 22.921875 "/>
<path style=" stroke:none;fill-rule:nonzero;fill:rgb(0%,0%,0%);fill-opacity:1;" d="M 177.050781 23.519531 L 177.285156 21.859375 C 177.285156 21.742188 177.1875 21.742188 177.03125 21.742188 L 171.679688 21.742188 C 171.464844 21.742188 171.445312 21.742188 171.386719 21.917969 L 170.820312 23.460938 C 170.820312 23.5 170.78125 23.578125 170.78125 23.617188 C 170.78125 23.65625 170.800781 23.734375 170.9375 23.734375 C 171.054688 23.734375 171.054688 23.695312 171.113281 23.519531 C 171.621094 22.132812 171.914062 22.054688 173.242188 22.054688 L 173.59375 22.054688 C 173.867188 22.054688 173.867188 22.054688 173.867188 22.132812 C 173.867188 22.132812 173.867188 22.191406 173.828125 22.308594 L 172.675781 26.898438 C 172.597656 27.210938 172.578125 27.308594 171.660156 27.308594 C 171.347656 27.308594 171.269531 27.308594 171.269531 27.503906 C 171.269531 27.523438 171.289062 27.621094 171.425781 27.621094 C 171.660156 27.621094 171.933594 27.601562 172.167969 27.601562 L 172.910156 27.582031 L 173.710938 27.601562 C 173.945312 27.601562 174.199219 27.621094 174.433594 27.621094 C 174.511719 27.621094 174.628906 27.621094 174.628906 27.425781 C 174.628906 27.308594 174.550781 27.308594 174.277344 27.308594 C 174.121094 27.308594 173.945312 27.289062 173.769531 27.289062 C 173.476562 27.269531 173.457031 27.230469 173.457031 27.132812 C 173.457031 27.054688 173.457031 27.054688 173.496094 26.917969 L 174.648438 22.347656 C 174.707031 22.09375 174.726562 22.074219 174.921875 22.054688 C 174.960938 22.054688 175.253906 22.054688 175.429688 22.054688 C 175.976562 22.054688 176.191406 22.054688 176.40625 22.113281 C 176.796875 22.230469 176.816406 22.484375 176.816406 22.796875 C 176.816406 22.933594 176.816406 23.050781 176.757812 23.5 L 176.738281 23.597656 C 176.738281 23.695312 176.796875 23.734375 176.894531 23.734375 C 177.03125 23.734375 177.03125 23.65625 177.050781 23.519531 Z M 177.050781 23.519531 "/>
<path style="fill:none;stroke-width:0.3985;stroke-linecap:butt;stroke-linejoin:miter;stroke:rgb(0%,0%,0%);stroke-opacity:1;stroke-miterlimit:10;" d="M -0.000125 22.674125 C 5.69675 22.774125 9.828 20.47725 12.756125 15.58975 " transform="matrix(1.25,0,0,-1.25,66.05875,117.8075)"/>
<path style=" stroke:none;fill-rule:nonzero;fill:rgb(0%,0%,0%);fill-opacity:1;" d="M 83.570312 87.855469 C 83.570312 87.757812 83.492188 87.71875 83.414062 87.71875 C 83.335938 87.71875 83.296875 87.757812 83.257812 87.855469 C 83.023438 88.460938 82.554688 88.460938 82.554688 88.460938 C 82.164062 88.460938 82.164062 87.484375 82.164062 87.191406 C 82.164062 86.9375 82.164062 86.898438 82.300781 86.761719 C 83.472656 85.277344 83.726562 83.832031 83.726562 83.832031 C 83.726562 83.832031 83.707031 83.695312 83.570312 83.695312 C 83.453125 83.695312 83.453125 83.734375 83.394531 83.96875 C 83.160156 84.75 82.75 85.6875 82.164062 86.429688 L 82.164062 85.648438 C 82.164062 83.695312 81.011719 83.089844 80.09375 83.089844 C 78.375 83.089844 76.734375 84.867188 76.734375 86.625 C 76.734375 87.796875 77.476562 88.734375 78.765625 88.734375 C 79.546875 88.734375 80.445312 88.441406 81.382812 87.679688 C 81.539062 88.34375 81.949219 88.734375 82.515625 88.734375 C 83.179688 88.734375 83.570312 88.050781 83.570312 87.855469 Z M 81.34375 87.367188 C 80.230469 88.324219 79.273438 88.460938 78.785156 88.460938 C 78.042969 88.460938 77.652344 87.894531 77.652344 87.09375 C 77.652344 86.488281 77.984375 85.140625 78.375 84.515625 C 78.960938 83.597656 79.644531 83.363281 80.074219 83.363281 C 81.304688 83.363281 81.304688 85.003906 81.304688 85.960938 C 81.304688 86.429688 81.304688 87.152344 81.34375 87.367188 Z M 81.34375 87.367188 "/>
<path style="fill:none;stroke-width:0.3985;stroke-linecap:butt;stroke-linejoin:miter;stroke:rgb(0%,0%,0%);stroke-opacity:1;stroke-miterlimit:10;" d="M 34.0155 45.355375 C 39.712375 45.449125 43.843625 43.15225 46.77175 38.267875 " transform="matrix(1.25,0,0,-1.25,66.05875,117.8075)"/>
<path style=" stroke:none;fill-rule:nonzero;fill:rgb(0%,0%,0%);fill-opacity:1;" d="M 126.089844 59.511719 C 126.089844 59.414062 126.011719 59.375 125.933594 59.375 C 125.855469 59.375 125.816406 59.414062 125.777344 59.511719 C 125.542969 60.117188 125.074219 60.117188 125.074219 60.117188 C 124.683594 60.117188 124.683594 59.140625 124.683594 58.847656 C 124.683594 58.59375 124.683594 58.554688 124.820312 58.417969 C 125.992188 56.933594 126.246094 55.488281 126.246094 55.488281 C 126.246094 55.488281 126.226562 55.351562 126.089844 55.351562 C 125.972656 55.351562 125.972656 55.390625 125.914062 55.625 C 125.679688 56.40625 125.269531 57.34375 124.683594 58.085938 L 124.683594 57.304688 C 124.683594 55.351562 123.53125 54.746094 122.613281 54.746094 C 120.894531 54.746094 119.253906 56.523438 119.253906 58.28125 C 119.253906 59.453125 119.996094 60.390625 121.285156 60.390625 C 122.066406 60.390625 122.964844 60.097656 123.902344 59.335938 C 124.058594 60 124.46875 60.390625 125.035156 60.390625 C 125.699219 60.390625 126.089844 59.707031 126.089844 59.511719 Z M 123.863281 59.023438 C 122.75 59.980469 121.792969 60.117188 121.304688 60.117188 C 120.5625 60.117188 120.171875 59.550781 120.171875 58.75 C 120.171875 58.144531 120.503906 56.796875 120.894531 56.171875 C 121.480469 55.253906 122.164062 55.019531 122.59375 55.019531 C 123.824219 55.019531 123.824219 56.660156 123.824219 57.617188 C 123.824219 58.085938 123.824219 58.808594 123.863281 59.023438 Z M 123.863281 59.023438 "/>
</g>
</svg>
