<?xml version="1.0" encoding="UTF-8" standalone="no"?>
<!-- Created with Inkscape (http://www.inkscape.org/) -->

<svg
   xmlns:dc="http://purl.org/dc/elements/1.1/"
   xmlns:cc="http://creativecommons.org/ns#"
   xmlns:rdf="http://www.w3.org/1999/02/22-rdf-syntax-ns#"
   xmlns:svg="http://www.w3.org/2000/svg"
   xmlns="http://www.w3.org/2000/svg"
   xmlns:xlink="http://www.w3.org/1999/xlink"
   xmlns:sodipodi="http://sodipodi.sourceforge.net/DTD/sodipodi-0.dtd"
   xmlns:inkscape="http://www.inkscape.org/namespaces/inkscape"
   width="172.71429"
   height="119.65254"
   id="svg2"
   version="1.1"
   inkscape:version="0.48.3.1 r9886"
   sodipodi:docname="champ-surface-conducteur.svg">
  <defs
     id="defs4">
    <marker
       inkscape:stockid="Arrow1Mend"
       orient="auto"
       refY="0"
       refX="0"
       id="Arrow1Mend"
       style="overflow:visible">
      <path
         id="path3800"
         d="M 0,0 5,-5 -12.5,0 5,5 0,0 z"
         style="fill-rule:evenodd;stroke:#000000;stroke-width:1pt;marker-start:none"
         transform="matrix(-0.4,0,0,-0.4,-4,0)"
         inkscape:connector-curvature="0" />
    </marker>
    <marker
       style="overflow:visible"
       id="TriangleOutMT"
       refX="0"
       refY="0"
       orient="auto"
       inkscape:stockid="TriangleOutMT">
      <path
         inkscape:connector-curvature="0"
         transform="scale(0.4,0.4)"
         style="fill:#0000ff;fill-rule:evenodd;stroke:#0000ff;stroke-width:1pt;marker-start:none"
         d="m 5.77,0 -8.65,5 0,-10 8.65,5 z"
         id="path6637" />
    </marker>
    <marker
       style="overflow:visible"
       id="TriangleOutMc"
       refX="0"
       refY="0"
       orient="auto"
       inkscape:stockid="TriangleOutMc">
      <path
         inkscape:connector-curvature="0"
         transform="scale(0.4,0.4)"
         style="fill:#0000ff;fill-rule:evenodd;stroke:#0000ff;stroke-width:1pt;marker-start:none"
         d="m 5.77,0 -8.65,5 0,-10 8.65,5 z"
         id="path4662" />
    </marker>
    <marker
       style="overflow:visible"
       id="TriangleOutMT-2"
       refX="0"
       refY="0"
       orient="auto"
       inkscape:stockid="TriangleOutMT">
      <path
         inkscape:connector-curvature="0"
         transform="scale(0.4,0.4)"
         style="fill:#0000ff;fill-rule:evenodd;stroke:#0000ff;stroke-width:1pt;marker-start:none"
         d="m 5.77,0 -8.65,5 0,-10 8.65,5 z"
         id="path6637-3" />
    </marker>
    <use
       xlink:href="#g1122"
       transform="scale(0.69431,0.69431)"
       id="g4122"
       x="0"
       y="0"
       width="744.09448"
       height="1052.3622" />
    <path
       id="g348"
       d="m 6.4512,-4.608 c 0,-1.1952 -0.072,-2.3616 -0.5904,-3.456 -0.5904,-1.1952 -1.6272,-1.512 -2.3328,-1.512 -0.8352,0 -1.8576,0.4176 -2.3904,1.6128 -0.4032,0.9072 -0.5472,1.8 -0.5472,3.3552 0,1.3968 0.1008,2.448 0.6192,3.4704 0.5616,1.0944 1.5552,1.44 2.304,1.44 1.2528,0 1.9728,-0.7488 2.3904,-1.584 0.5184,-1.08 0.5472,-2.4912 0.5472,-3.3264 z M 3.5136,0.0144 c -0.4608,0 -1.3968,-0.2592 -1.6704,-1.8288 -0.1584,-0.864 -0.1584,-1.9584 -0.1584,-2.9664 0,-1.1808 0,-2.2464 0.2304,-3.096 0.2448,-0.9648 0.9792,-1.4112 1.5984,-1.4112 0.5472,0 1.3824,0.3312 1.656,1.5696 0.1872,0.8208 0.1872,1.9584 0.1872,2.9376 0,0.9648 0,2.0592 -0.1584,2.9376 -0.2736,1.584 -1.1808,1.8576 -1.6848,1.8576 z"
       inkscape:connector-curvature="0" />
    <path
       id="g261"
       d="m 13.3358,-6.65754 c 0.3111,0 0.6222,0 0.6222,-0.35258 0,-0.37332 -0.3526,-0.37332 -0.7051,-0.37332 H 1.6592 c -0.35258,0 -0.70516,0 -0.70516,0.37332 0,0.35258 0.3111,0.35258 0.6222,0.35258 H 13.3358 z m -0.0829,3.69172 c 0.3525,0 0.7051,0 0.7051,-0.37332 0,-0.35258 -0.3111,-0.35258 -0.6222,-0.35258 H 1.57624 c -0.3111,0 -0.6222,0 -0.6222,0.35258 0,0.37332 0.35258,0.37332 0.70516,0.37332 h 11.5937 z"
       inkscape:connector-curvature="0" />
    <path
       id="g1122"
       d="m 2.63398,-1.67994 c 0.89182,-1.01626 1.61772,-1.6592 2.65472,-2.5925 1.2444,-1.07848 1.78364,-1.59698 2.074,-1.90808 1.4518,-1.43106 2.1777,-2.63398 2.1777,-2.7999 0,-0.16592 -0.16592,-0.16592 -0.2074,-0.16592 -0.14518,0 -0.18666,0.08296 -0.29036,0.22814 -0.5185,0.89182 -1.01626,1.32736 -1.5555,1.32736 -0.43554,0 -0.66368,-0.18666 -1.05774,-0.68442 -0.43554,-0.5185 -0.78812,-0.87108 -1.38958,-0.87108 -1.51402,0 -2.42658,1.88734 -2.42658,2.32288 0,0.06222 0.02074,0.18666 0.2074,0.18666 0.16592,0 0.18666,-0.08296 0.24888,-0.22814 0.35258,-0.8296 1.3481,-0.97478 1.74216,-0.97478 0.43554,0 0.85034,0.14518 1.28588,0.33184 0.78812,0.33184 1.11996,0.33184 1.32736,0.33184 0.14518,0 0.22814,0 0.33184,-0.02074 C 7.07234,-6.38792 5.95238,-5.3924 5.01908,-4.54206 3.69172,-3.38062 3.33914,-3.0073 2.92434,-2.61324 1.6592,-1.32736 0.89182,-0.1037 0.89182,0.04148 c 0,0.12444 0.1037,0.16592 0.22814,0.16592 0.12444,0 0.14518,-0.02074 0.29036,-0.26962 0.33184,-0.5185 0.99552,-1.28588 1.7629,-1.28588 0.43554,0 0.64294,0.14518 1.05774,0.66368 0.39406,0.45628 0.74664,0.89182 1.41032,0.89182 2.03252,0 3.19396,-2.63398 3.19396,-3.111 0,-0.08296 -0.02074,-0.2074 -0.22814,-0.2074 -0.16592,0 -0.18666,0.08296 -0.24888,0.29036 -0.45628,1.22366 -1.67994,1.72142 -2.4888,1.72142 -0.43554,0 -0.85034,-0.14518 -1.28588,-0.33184 C 3.75394,-1.7629 3.5258,-1.7629 3.25618,-1.7629 c -0.2074,0 -0.43554,0 -0.6222,0.08296 z"
       inkscape:connector-curvature="0" />
    <path
       id="g1101"
       d="m 3.71246,-4.81168 c 0.55998,0 1.9703,-0.04148 2.96582,-0.4148 1.57624,-0.60146 1.72142,-1.80438 1.72142,-2.1777 0,-0.91256 -0.78812,-1.74216 -2.15696,-1.74216 -2.1777,0 -5.30944,1.9703 -5.30944,5.66202 0,2.1777 1.2444,3.69172 3.13174,3.69172 2.82064,0 4.60428,-2.19844 4.60428,-2.46806 0,-0.12444 -0.12444,-0.22814 -0.2074,-0.22814 -0.06222,0 -0.08296,0.02074 -0.26962,0.2074 -1.32736,1.7629 -3.29766,2.074 -4.08578,2.074 -1.18218,0 -1.80438,-0.9333 -1.80438,-2.46806 0,-0.29036 0,-0.80886 0.3111,-2.13622 h 1.09922 z m -0.99552,-0.4148 c 0.89182,-3.19396 2.86212,-3.50506 3.5258,-3.50506 0.91256,0 1.53476,0.53924 1.53476,1.32736 0,2.1777 -3.3184,2.1777 -4.18948,2.1777 H 2.71694 z"
       inkscape:connector-curvature="0" />
    <path
       id="g169"
       d="m 14.4143,-4.81168 c 0.0207,-0.06222 0.083,-0.2074 0.083,-0.29036 0,-0.1037 -0.083,-0.2074 -0.2074,-0.2074 -0.083,0 -0.1245,0.02074 -0.1867,0.08296 -0.0415,0.02074 -0.0415,0.06222 -0.2281,0.47702 -1.2237,2.9036 -2.1155,4.148 -5.43392,4.148 H 5.41314 c -0.29036,0 -0.33184,0 -0.45628,-0.02074 -0.22814,-0.02074 -0.24888,-0.06222 -0.24888,-0.22814 0,-0.14518 0.04148,-0.26962 0.08296,-0.45628 L 6.222,-7.03086 h 2.05326 c 1.61772,0 1.74214,0.35258 1.74214,0.97478 0,0.2074 0,0.39406 -0.14516,1.01626 -0.04148,0.08296 -0.06222,0.16592 -0.06222,0.22814 0,0.14518 0.1037,0.2074 0.22818,0.2074 0.1866,0 0.2074,-0.14518 0.2903,-0.43554 l 1.1822,-4.81168 c 0,-0.1037 -0.083,-0.2074 -0.2074,-0.2074 -0.1867,0 -0.2074,0.08296 -0.2904,0.37332 -0.4148,1.59698 -0.8296,2.05326 -2.67542,2.05326 h -1.9703 l 1.28588,-5.10208 c 0.18666,-0.7259 0.22814,-0.7881 1.07848,-0.7881 h 2.96586 c 2.551,0 3.0695,0.6844 3.0695,2.2607 0,0.0207 0,0.6014 -0.083,1.28586 -0.0207,0.08296 -0.0415,0.2074 -0.0415,0.24888 0,0.16592 0.1037,0.22814 0.2282,0.22814 0.1452,0 0.2281,-0.08296 0.2696,-0.45628 l 0.4355,-3.6295 c 0,-0.0622 0.0415,-0.2696 0.0415,-0.3111 0,-0.2281 -0.1866,-0.2281 -0.56,-0.2281 H 4.93612 c -0.39406,0 -0.60146,0 -0.60146,0.3733 0,0.2281 0.14518,0.2281 0.49776,0.2281 1.28588,0 1.28588,0.1452 1.28588,0.3733 0,0.1037 -0.02074,0.1867 -0.08296,0.4148 l -2.7999,11.19964 c -0.18666,0.7259 -0.22814,0.9333 -1.67994,0.9333 -0.39406,0 -0.60146,0 -0.60146,0.37332 C 0.95404,0 1.07848,0 1.49328,0 H 11.9048 c 0.4562,0 0.477,-0.02074 0.6222,-0.35258 l 1.8873,-4.4591 z"
       inkscape:connector-curvature="0" />
    <path
       id="g127"
       d="m 10.5359,-7.81898 c 0.2696,0 0.9541,0 0.9541,-0.66368 0,-0.45628 -0.3941,-0.45628 -0.7674,-0.45628 H 6.13904 c -3.111,0 -5.35092,3.46358 -5.35092,5.9109 0,1.7629 1.1407,3.23544 3.0073,3.23544 2.44732,0 5.12278,-2.63398 5.12278,-5.74498 0,-0.80886 -0.18666,-1.59698 -0.68442,-2.2814 H 10.5359 z M 3.81616,-0.2074 c -1.05774,0 -1.82512,-0.80886 -1.82512,-2.23992 0,-1.2444 0.74664,-5.37166 3.79542,-5.37166 0.89182,0 1.88734,0.43554 1.88734,2.03252 0,0.7259 -0.33184,2.46806 -1.05774,3.67098 -0.74664,1.22366 -1.8666,1.90808 -2.7999,1.90808 z"
       inkscape:connector-curvature="0" />
    <path
       id="g115"
       d="m 6.03534,-4.70798 c 0.3111,0 0.66368,0 0.66368,-0.33184 0,-0.26962 -0.2074,-0.26962 -0.58072,-0.26962 H 2.75842 c 0.5185,-1.88734 1.74216,-3.02804 3.58802,-3.02804 H 6.9479 c 0.35258,0 0.66368,0 0.66368,-0.33184 0,-0.26962 -0.22814,-0.26962 -0.60146,-0.26962 H 6.30496 c -2.55102,0 -5.35092,2.03252 -5.35092,5.2887 0,2.30214 1.5555,3.85764 3.60876,3.85764 1.32736,0 2.63398,-0.8296 2.63398,-1.037 0,-0.12444 -0.06222,-0.24888 -0.18666,-0.24888 -0.06222,0 -0.1037,0.02074 -0.2074,0.1037 -0.78812,0.5185 -1.5555,0.76738 -2.1777,0.76738 -1.09922,0 -2.26066,-0.7259 -2.26066,-2.73768 0,-0.39406 0.04148,-0.9333 0.22814,-1.7629 h 3.44284 z"
       inkscape:connector-curvature="0" />
    <path
       id="g033"
       d="m 17.7949,-4.7702 c -1.5555,1.1407 -2.2399,2.86212 -2.2399,3.02804 0,0.18666 0.1659,0.24888 0.3111,0.24888 0.2489,0 0.2904,-0.12444 0.3318,-0.2074 0.3111,-0.70516 0.9748,-2.21918 3.0488,-3.19396 0.2489,-0.12444 0.2904,-0.14518 0.2904,-0.29036 0,-0.14518 -0.1245,-0.2074 -0.1452,-0.2074 -1.12,-0.5185 -2.3229,-1.28588 -3.1732,-3.19396 -0.083,-0.18666 -0.1245,-0.29036 -0.3526,-0.29036 -0.1452,0 -0.3111,0.06222 -0.3111,0.24888 0,0.16592 0.6844,1.88734 2.2399,3.02804 H 1.84586 c -0.3111,0 -0.68442,0 -0.68442,0.4148 0,0.4148 0.37332,0.4148 0.68442,0.4148 H 17.7949 z"
       inkscape:connector-curvature="0" />
    <path
       id="g00"
       d="m 13.7091,-4.7702 c 0.2904,0 0.6845,0 0.6845,-0.4148 0,-0.4148 -0.3941,-0.4148 -0.6845,-0.4148 H 2.40584 c -0.29036,0 -0.68442,0 -0.68442,0.4148 0,0.4148 0.39406,0.4148 0.68442,0.4148 H 13.7091 z"
       inkscape:connector-curvature="0" />
  </defs>
  <sodipodi:namedview
     id="base"
     pagecolor="#ffffff"
     bordercolor="#666666"
     borderopacity="1.0"
     inkscape:pageopacity="0.0"
     inkscape:pageshadow="2"
     inkscape:zoom="3.959798"
     inkscape:cx="100.28018"
     inkscape:cy="53.009407"
     inkscape:document-units="px"
     inkscape:current-layer="layer1"
     showgrid="false"
     inkscape:window-width="1317"
     inkscape:window-height="744"
     inkscape:window-x="49"
     inkscape:window-y="24"
     inkscape:window-maximized="1"
     fit-margin-top="0"
     fit-margin-left="0"
     fit-margin-right="0"
     fit-margin-bottom="0" />
  <metadata
     id="metadata7">
    <rdf:RDF>
      <cc:Work
         rdf:about="">
        <dc:format>image/svg+xml</dc:format>
        <dc:type
           rdf:resource="http://purl.org/dc/dcmitype/StillImage" />
        <dc:title></dc:title>
      </cc:Work>
    </rdf:RDF>
  </metadata>
  <g
     inkscape:label="Calque 1"
     inkscape:groupmode="layer"
     id="layer1"
     transform="translate(-154.35715,-83.67392)">
    <path
       style="fill:#e6e6e6;stroke:none"
       d="m 156.21936,202.6383 c -0.30185,-12.23182 -0.35116,-25.22124 -0.65301,-37.45306 33.07636,-18.23966 70.74005,-12.40095 97.84969,-11.62839 25.80024,0.39339 49.09755,2.67258 72.10698,7.23064 -0.15392,14.3592 0.70233,27.45571 0.54841,41.81491"
       id="path3039"
       inkscape:connector-curvature="0"
       sodipodi:nodetypes="ccccc" />
    <path
       style="fill:none;stroke:#000000;stroke-width:2;stroke-linecap:butt;stroke-linejoin:miter;stroke-miterlimit:4;stroke-opacity:1;stroke-dasharray:none"
       d="m 155.35715,163.79076 c 0,0 33.21428,-11.42857 90.35714,-11.42857 57.14285,0 80.35715,7.85714 80.35715,7.85714"
       id="path2985"
       inkscape:connector-curvature="0"
       sodipodi:nodetypes="csc" />
    <g
       id="g3779"
       transform="translate(47.142857,-9.2857143)">
      <rect
         y="147.36218"
         x="121.42857"
         height="37.142857"
         width="58.57143"
         id="rect3777"
         style="color:#000000;fill:#ffffff;fill-opacity:1;fill-rule:nonzero;stroke:none;stroke-width:2;marker:none;visibility:visible;display:inline;overflow:visible;enable-background:accumulate" />
      <text
         sodipodi:linespacing="87%"
         id="text3769"
         y="158.79076"
         x="151.12431"
         style="font-size:12px;font-style:normal;font-variant:normal;font-weight:normal;font-stretch:normal;text-align:center;line-height:87.00000048%;letter-spacing:0px;word-spacing:0px;writing-mode:lr-tb;text-anchor:middle;fill:#000000;fill-opacity:1;stroke:none;font-family:Times New Roman;-inkscape-font-specification:Times New Roman"
         xml:space="preserve"><tspan
           y="158.79076"
           x="152.62431"
           id="tspan3771"
           sodipodi:role="line">surface </tspan><tspan
           id="tspan3773"
           y="169.23076"
           x="152.62431"
           sodipodi:role="line">du </tspan><tspan
           id="tspan3775"
           y="179.67076"
           x="151.12431"
           sodipodi:role="line">conducteur</tspan></text>
    </g>
    <path
       style="fill:none;stroke:#000000;stroke-width:0.5;stroke-linecap:butt;stroke-linejoin:miter;stroke-miterlimit:4;stroke-opacity:1;stroke-dasharray:none;marker-end:url(#Arrow1Mend)"
       d="m 245.35714,203.07646 0,-117.14285"
       id="path3786"
       inkscape:connector-curvature="0" />
    <path
       style="fill:none;stroke:#0000ff;stroke-width:1.5;stroke-linecap:butt;stroke-linejoin:miter;stroke-miterlimit:4;stroke-opacity:1;stroke-dasharray:none;marker-end:url(#TriangleOutMc)"
       d="m 245.35715,133.58694 0,-30.35714"
       id="path4223"
       inkscape:connector-curvature="0"
       sodipodi:nodetypes="cc" />
    <g
       id="g3763"
       transform="translate(7.1428572,-42.857143)">
      <path
         style="fill:none;stroke:#000000;stroke-width:1px;stroke-linecap:butt;stroke-linejoin:miter;stroke-opacity:1"
         d="m 235.35714,173.43361 5.53572,5.53571"
         id="path3765"
         inkscape:connector-curvature="0" />
      <path
         inkscape:connector-curvature="0"
         id="path3767"
         d="m 240.89285,173.43361 -5.53571,5.53572"
         style="fill:none;stroke:#000000;stroke-width:1px;stroke-linecap:butt;stroke-linejoin:miter;stroke-opacity:1" />
    </g>
    <g
       id="g3759"
       transform="translate(7.1428572,0)">
      <path
         inkscape:connector-curvature="0"
         id="path3755"
         d="m 235.35714,173.43361 5.53572,5.53571"
         style="fill:none;stroke:#000000;stroke-width:1px;stroke-linecap:butt;stroke-linejoin:miter;stroke-opacity:1" />
      <path
         style="fill:none;stroke:#000000;stroke-width:1px;stroke-linecap:butt;stroke-linejoin:miter;stroke-opacity:1"
         d="m 240.89285,173.43361 -5.53571,5.53572"
         id="path3757"
         inkscape:connector-curvature="0" />
    </g>
    <text
       xml:space="preserve"
       style="font-size:12px;font-style:normal;font-variant:normal;font-weight:normal;font-stretch:normal;line-height:125%;letter-spacing:0px;word-spacing:0px;writing-mode:lr-tb;fill:#000000;fill-opacity:1;stroke:none;font-family:Times New Roman;-inkscape-font-specification:Times New Roman"
       x="249.76022"
       y="89.181732"
       id="text4366"
       sodipodi:linespacing="125%"><tspan
         sodipodi:role="line"
         id="tspan4368"
         x="249.76022"
         y="89.181732">z</tspan></text>
    <text
       xml:space="preserve"
       style="font-size:12px;font-style:normal;font-variant:normal;font-weight:normal;font-stretch:normal;line-height:125%;letter-spacing:0px;word-spacing:0px;writing-mode:lr-tb;fill:#000000;fill-opacity:1;stroke:none;font-family:Times New Roman;-inkscape-font-specification:Times New Roman"
       x="251.78571"
       y="136.64789"
       id="text4370"
       sodipodi:linespacing="125%"><tspan
         sodipodi:role="line"
         id="tspan4372"
         x="251.78571"
         y="136.64789">P</tspan></text>
    <text
       sodipodi:linespacing="125%"
       id="text4374"
       y="179.14789"
       x="252.49998"
       style="font-size:12px;font-style:normal;font-variant:normal;font-weight:normal;font-stretch:normal;line-height:125%;letter-spacing:0px;word-spacing:0px;writing-mode:lr-tb;fill:#000000;fill-opacity:1;stroke:none;font-family:Times New Roman;-inkscape-font-specification:Times New Roman"
       xml:space="preserve"><tspan
         y="179.14789"
         x="252.49998"
         id="tspan4376"
         sodipodi:role="line">Q</tspan></text>
    <g
       transform="matrix(0.5701583,0,0,0.5701583,221.32346,70.786211)"
       id="page1"
       style="stroke:#0000ff">
      <use
         id="use4723"
         y="62.7882"
         xlink:href="#g00"
         x="56.624802"
         width="1"
         height="1"
         style="stroke:#0000ff" />
      <use
         id="use4725"
         y="62.7882"
         xlink:href="#g033"
         x="56.624901"
         width="1"
         height="1"
         style="stroke:#0000ff" />
      <use
         id="use4727"
         y="76.960503"
         xlink:href="#g169"
         x="58.870602"
         width="1"
         height="1"
         style="stroke:#0000ff" />
      <use
         id="use4729"
         y="76.960503"
         xlink:href="#g261"
         x="83.125999"
         width="1"
         height="1"
         style="stroke:#0000ff" />
      <use
         id="use4731"
         y="62.929699"
         xlink:href="#g127"
         x="106.748"
         width="1"
         height="1"
         style="stroke:#0000ff" />
      <rect
         id="rect4733"
         y="71.360703"
         x="105.017"
         width="15.7498"
         height="0.829575"
         style="stroke:#0000ff" />
      <use
         id="use4735"
         y="91.187103"
         xlink:href="#g115"
         x="105.017"
         width="1"
         height="1"
         style="stroke:#0000ff" />
      <use
         id="use4737"
         y="94.298103"
         xlink:href="#g348"
         x="113.216"
         width="1"
         height="1"
         style="stroke:#0000ff" />
      <use
         id="use4739"
         y="68.0308"
         xlink:href="#g00"
         x="121.966"
         width="1"
         height="1"
         style="stroke:#0000ff" />
      <use
         id="use4741"
         y="68.0308"
         xlink:href="#g033"
         x="121.966"
         width="1"
         height="1"
         style="stroke:#0000ff" />
      <use
         id="use4743"
         y="76.960503"
         xlink:href="#g1101"
         x="123.785"
         width="1"
         height="1"
         style="stroke:#0000ff" />
      <use
         id="use4745"
         y="80.071503"
         xlink:href="#g4122"
         x="133.19701"
         width="1"
         height="1"
         style="stroke:#0000ff" />
      <script
         id="script4747"
         xlink:href="http://codecogs.izyba.com/svg.js"
         type="text/ecmascript" />
    </g>
  </g>
</svg>
