<?xml version="1.0" encoding="UTF-8"?>
<!-- Converted by misc2svg (http://www.network-science.de/tools/misc2svg/) -->
<svg xmlns="http://www.w3.org/2000/svg" xmlns:xlink="http://www.w3.org/1999/xlink" width="189pt" height="160pt" viewBox="0 0 189 160" version="1.1">
<g id="misc2svg">
<path style="fill:none;stroke-width:0.3985;stroke-linecap:butt;stroke-linejoin:miter;stroke:rgb(0%,0%,0%);stroke-opacity:1;stroke-miterlimit:10;" d="M -0.000875 -0.001625 L -0.000875 11.339 M -0.000875 11.339 L -0.000875 35.1515 M -0.000875 66.9015 L -0.000875 90.714 M -0.000875 66.9015 L -0.000875 90.710875 M -0.000875 90.710875 L 45.355375 90.710875 M 45.3585 90.714 L 45.3585 66.9015 M 45.3585 35.1515 L 45.3585 11.339 M 45.355375 90.710875 L 45.3585 66.9015 M 45.355375 11.339 L 45.355375 -0.001625 L 90.7085 -0.001625 M 90.71475 -0.001625 L 90.71475 5.1015 M 90.71475 28.917125 L 90.71475 34.017125 M 75.00225 7.935875 L 75.00225 26.085875 M 90.71475 34.017125 L 90.71475 46.492125 M 90.71475 78.242125 L 90.71475 90.714 M 90.71475 78.242125 L 90.7085 90.710875 M 90.7085 90.710875 L 45.355375 90.710875 M -0.000875 -0.001625 L 45.355375 -0.001625 " transform="matrix(1.25,0,0,-1.25,38.005,136.67375)"/>
<path style="fill:none;stroke-width:0.797;stroke-linecap:butt;stroke-linejoin:miter;stroke:rgb(0%,0%,0%);stroke-opacity:1;stroke-miterlimit:10;" d="M 5.95225 66.898375 L 5.95225 35.1515 L -5.954 35.1515 L -5.954 66.898375 L 5.95225 66.898375 Z M 5.95225 66.898375 " transform="matrix(1.25,0,0,-1.25,38.005,136.67375)"/>
<path style=" stroke:none;fill-rule:nonzero;fill:rgb(0%,0%,0%);fill-opacity:1;" d="M 15.046875 68.554688 C 15.125 68.261719 15.164062 68.144531 15.398438 68.105469 C 15.515625 68.085938 15.90625 68.085938 16.160156 68.085938 C 17.039062 68.085938 18.425781 68.085938 18.425781 69.316406 C 18.425781 69.746094 18.230469 70.605469 17.742188 71.09375 C 17.410156 71.40625 16.765625 71.816406 15.632812 71.816406 L 14.246094 71.816406 L 15.046875 68.554688 Z M 16.84375 71.972656 C 18.113281 71.699219 19.578125 70.820312 19.578125 69.570312 C 19.578125 68.496094 18.464844 67.695312 16.824219 67.695312 L 13.289062 67.695312 C 13.035156 67.695312 12.917969 67.695312 12.917969 67.949219 C 12.917969 68.085938 13.035156 68.085938 13.269531 68.085938 C 13.289062 68.085938 13.523438 68.085938 13.738281 68.105469 C 13.972656 68.144531 14.070312 68.144531 14.070312 68.320312 C 14.070312 68.359375 14.070312 68.398438 14.03125 68.554688 L 12.351562 75.234375 C 12.234375 75.722656 12.214844 75.820312 11.21875 75.820312 C 11.003906 75.820312 10.886719 75.820312 10.886719 76.074219 C 10.886719 76.210938 11.042969 76.210938 11.0625 76.210938 C 11.414062 76.210938 12.292969 76.171875 12.625 76.171875 C 12.976562 76.171875 13.875 76.210938 14.226562 76.210938 C 14.324219 76.210938 14.460938 76.210938 14.460938 75.957031 C 14.460938 75.820312 14.363281 75.820312 14.109375 75.820312 C 13.660156 75.820312 13.308594 75.820312 13.308594 75.605469 C 13.308594 75.527344 13.328125 75.46875 13.347656 75.390625 L 14.167969 72.089844 L 15.652344 72.089844 C 16.785156 72.089844 17 72.792969 17 73.222656 C 17 73.398438 16.902344 73.789062 16.824219 74.082031 C 16.746094 74.433594 16.628906 74.882812 16.628906 75.136719 C 16.628906 76.484375 18.132812 76.484375 18.289062 76.484375 C 19.34375 76.484375 19.792969 75.234375 19.792969 75.058594 C 19.792969 74.902344 19.65625 74.902344 19.636719 74.902344 C 19.519531 74.902344 19.5 74.980469 19.480469 75.078125 C 19.167969 75.996094 18.621094 76.210938 18.347656 76.210938 C 17.9375 76.210938 17.839844 75.9375 17.839844 75.449219 C 17.839844 75.058594 17.917969 74.433594 17.976562 74.023438 C 17.996094 73.847656 18.015625 73.613281 18.015625 73.4375 C 18.015625 72.480469 17.175781 72.089844 16.84375 71.972656 Z M 16.84375 71.972656 "/>
<path style=" stroke:none;fill-rule:nonzero;fill:rgb(0%,0%,0%);fill-opacity:1;" d="M 22.742188 72.53125 C 22.742188 72.296875 22.742188 72.296875 22.488281 72.296875 C 21.921875 72.84375 21.140625 72.84375 20.789062 72.84375 L 20.789062 73.15625 C 20.984375 73.15625 21.570312 73.15625 22.039062 72.921875 L 22.039062 77.355469 C 22.039062 77.648438 22.039062 77.765625 21.179688 77.765625 L 20.847656 77.765625 L 20.847656 78.078125 C 21.003906 78.078125 22.078125 78.039062 22.390625 78.039062 C 22.664062 78.039062 23.757812 78.078125 23.953125 78.078125 L 23.953125 77.765625 L 23.621094 77.765625 C 22.742188 77.765625 22.742188 77.648438 22.742188 77.355469 L 22.742188 72.53125 Z M 22.742188 72.53125 "/>
<path style="fill-rule:nonzero;fill:rgb(0%,0%,0%);fill-opacity:1;stroke-width:0.3985;stroke-linecap:butt;stroke-linejoin:miter;stroke:rgb(0%,0%,0%);stroke-opacity:1;stroke-miterlimit:10;" d="M -0.000875 77.07025 L 1.9835 77.07025 L -0.000875 81.289 L -1.98525 77.07025 L -0.000875 77.07025 " transform="matrix(1.25,0,0,-1.25,38.005,136.67375)"/>
<path style=" stroke:none;fill-rule:nonzero;fill:rgb(0%,0%,0%);fill-opacity:1;" d="M 22.300781 33.542969 C 22.300781 33.289062 22.125 33.09375 21.851562 33.09375 C 21.5 33.09375 21.167969 33.425781 21.167969 33.757812 C 21.167969 33.992188 21.34375 34.207031 21.636719 34.207031 C 21.929688 34.207031 22.300781 33.914062 22.300781 33.542969 Z M 21.363281 38.230469 C 21.5 37.878906 21.5 37.839844 21.636719 37.507812 C 21.734375 37.253906 21.792969 37.078125 21.792969 36.84375 C 21.792969 36.296875 21.402344 35.828125 20.777344 35.828125 C 19.605469 35.828125 19.136719 37.644531 19.136719 37.742188 C 19.136719 37.878906 19.253906 37.878906 19.273438 37.878906 C 19.410156 37.878906 19.410156 37.839844 19.46875 37.644531 C 19.820312 36.472656 20.308594 36.101562 20.738281 36.101562 C 20.835938 36.101562 21.050781 36.101562 21.050781 36.492188 C 21.050781 36.765625 20.953125 37.019531 20.914062 37.15625 C 20.816406 37.46875 20.25 38.914062 20.054688 39.460938 C 19.917969 39.773438 19.761719 40.183594 19.761719 40.457031 C 19.761719 41.042969 20.191406 41.472656 20.777344 41.472656 C 21.949219 41.472656 22.417969 39.675781 22.417969 39.558594 C 22.417969 39.421875 22.300781 39.421875 22.261719 39.421875 C 22.144531 39.421875 22.144531 39.460938 22.085938 39.65625 C 21.851562 40.4375 21.441406 41.199219 20.816406 41.199219 C 20.601562 41.199219 20.503906 41.082031 20.503906 40.789062 C 20.503906 40.476562 20.582031 40.300781 20.875 39.539062 L 21.363281 38.230469 Z M 21.363281 38.230469 "/>
<path style=" stroke:none;fill-rule:nonzero;fill:rgb(0%,0%,0%);fill-opacity:1;" d="M 25.964844 37.65625 C 25.964844 37.421875 25.964844 37.421875 25.710938 37.421875 C 25.144531 37.96875 24.363281 37.96875 24.011719 37.96875 L 24.011719 38.28125 C 24.207031 38.28125 24.792969 38.28125 25.261719 38.046875 L 25.261719 42.480469 C 25.261719 42.773438 25.261719 42.890625 24.402344 42.890625 L 24.070312 42.890625 L 24.070312 43.203125 C 24.226562 43.203125 25.300781 43.164062 25.613281 43.164062 C 25.886719 43.164062 26.980469 43.203125 27.175781 43.203125 L 27.175781 42.890625 L 26.84375 42.890625 C 25.964844 42.890625 25.964844 42.773438 25.964844 42.480469 L 25.964844 37.65625 Z M 25.964844 37.65625 "/>
<path style=" stroke:none;fill-rule:nonzero;fill:rgb(0%,0%,0%);fill-opacity:1;" d="M 30.929688 37.65625 C 30.929688 37.421875 30.929688 37.421875 30.675781 37.421875 C 30.109375 37.96875 29.328125 37.96875 28.976562 37.96875 L 28.976562 38.28125 C 29.171875 38.28125 29.757812 38.28125 30.226562 38.046875 L 30.226562 42.480469 C 30.226562 42.773438 30.226562 42.890625 29.367188 42.890625 L 29.035156 42.890625 L 29.035156 43.203125 C 29.191406 43.203125 30.265625 43.164062 30.578125 43.164062 C 30.851562 43.164062 31.945312 43.203125 32.140625 43.203125 L 32.140625 42.890625 L 31.808594 42.890625 C 30.929688 42.890625 30.929688 42.773438 30.929688 42.480469 L 30.929688 37.65625 Z M 30.929688 37.65625 "/>
<path style="fill:none;stroke-width:0.797;stroke-linecap:butt;stroke-linejoin:miter;stroke:rgb(0%,0%,0%);stroke-opacity:1;stroke-miterlimit:10;" d="M 39.40225 35.1515 L 39.40225 66.898375 L 51.3085 66.898375 L 51.3085 35.1515 L 39.40225 35.1515 Z M 39.40225 35.1515 " transform="matrix(1.25,0,0,-1.25,38.005,136.67375)"/>
<path style=" stroke:none;fill-rule:nonzero;fill:rgb(0%,0%,0%);fill-opacity:1;" d="M 111.953125 68.554688 C 112.03125 68.261719 112.070312 68.144531 112.304688 68.105469 C 112.421875 68.085938 112.8125 68.085938 113.066406 68.085938 C 113.945312 68.085938 115.332031 68.085938 115.332031 69.316406 C 115.332031 69.746094 115.136719 70.605469 114.648438 71.09375 C 114.316406 71.40625 113.671875 71.816406 112.539062 71.816406 L 111.152344 71.816406 L 111.953125 68.554688 Z M 113.75 71.972656 C 115.019531 71.699219 116.484375 70.820312 116.484375 69.570312 C 116.484375 68.496094 115.371094 67.695312 113.730469 67.695312 L 110.195312 67.695312 C 109.941406 67.695312 109.824219 67.695312 109.824219 67.949219 C 109.824219 68.085938 109.941406 68.085938 110.175781 68.085938 C 110.195312 68.085938 110.429688 68.085938 110.644531 68.105469 C 110.878906 68.144531 110.976562 68.144531 110.976562 68.320312 C 110.976562 68.359375 110.976562 68.398438 110.9375 68.554688 L 109.257812 75.234375 C 109.140625 75.722656 109.121094 75.820312 108.125 75.820312 C 107.910156 75.820312 107.792969 75.820312 107.792969 76.074219 C 107.792969 76.210938 107.949219 76.210938 107.96875 76.210938 C 108.320312 76.210938 109.199219 76.171875 109.53125 76.171875 C 109.882812 76.171875 110.78125 76.210938 111.132812 76.210938 C 111.230469 76.210938 111.367188 76.210938 111.367188 75.957031 C 111.367188 75.820312 111.269531 75.820312 111.015625 75.820312 C 110.566406 75.820312 110.214844 75.820312 110.214844 75.605469 C 110.214844 75.527344 110.234375 75.46875 110.253906 75.390625 L 111.074219 72.089844 L 112.558594 72.089844 C 113.691406 72.089844 113.90625 72.792969 113.90625 73.222656 C 113.90625 73.398438 113.808594 73.789062 113.730469 74.082031 C 113.652344 74.433594 113.535156 74.882812 113.535156 75.136719 C 113.535156 76.484375 115.039062 76.484375 115.195312 76.484375 C 116.25 76.484375 116.699219 75.234375 116.699219 75.058594 C 116.699219 74.902344 116.5625 74.902344 116.542969 74.902344 C 116.425781 74.902344 116.40625 74.980469 116.386719 75.078125 C 116.074219 75.996094 115.527344 76.210938 115.253906 76.210938 C 114.84375 76.210938 114.746094 75.9375 114.746094 75.449219 C 114.746094 75.058594 114.824219 74.433594 114.882812 74.023438 C 114.902344 73.847656 114.921875 73.613281 114.921875 73.4375 C 114.921875 72.480469 114.082031 72.089844 113.75 71.972656 Z M 113.75 71.972656 "/>
<path style=" stroke:none;fill-rule:nonzero;fill:rgb(0%,0%,0%);fill-opacity:1;" d="M 121.136719 76.496094 L 120.84375 76.496094 C 120.824219 76.691406 120.726562 77.199219 120.609375 77.277344 C 120.550781 77.335938 119.886719 77.335938 119.75 77.335938 L 118.148438 77.335938 C 119.066406 76.535156 119.378906 76.28125 119.886719 75.871094 C 120.53125 75.363281 121.136719 74.816406 121.136719 73.996094 C 121.136719 72.941406 120.21875 72.296875 119.105469 72.296875 C 118.03125 72.296875 117.289062 73.058594 117.289062 73.859375 C 117.289062 74.289062 117.660156 74.347656 117.757812 74.347656 C 117.953125 74.347656 118.207031 74.191406 118.207031 73.878906 C 118.207031 73.722656 118.148438 73.410156 117.699219 73.410156 C 117.972656 72.804688 118.558594 72.609375 118.96875 72.609375 C 119.847656 72.609375 120.296875 73.292969 120.296875 73.996094 C 120.296875 74.757812 119.75 75.34375 119.476562 75.65625 L 117.386719 77.746094 C 117.289062 77.824219 117.289062 77.84375 117.289062 78.078125 L 120.882812 78.078125 L 121.136719 76.496094 Z M 121.136719 76.496094 "/>
<path style="fill-rule:nonzero;fill:rgb(0%,0%,0%);fill-opacity:1;stroke-width:0.3985;stroke-linecap:butt;stroke-linejoin:miter;stroke:rgb(0%,0%,0%);stroke-opacity:1;stroke-miterlimit:10;" d="M 45.3585 80.542125 L 43.374125 80.542125 L 45.3585 76.3265 L 47.342875 80.542125 L 45.3585 80.542125 " transform="matrix(1.25,0,0,-1.25,38.005,136.67375)"/>
<path style=" stroke:none;fill-rule:nonzero;fill:rgb(0%,0%,0%);fill-opacity:1;" d="M 102.636719 33.542969 C 102.636719 33.289062 102.460938 33.09375 102.1875 33.09375 C 101.835938 33.09375 101.503906 33.425781 101.503906 33.757812 C 101.503906 33.992188 101.679688 34.207031 101.972656 34.207031 C 102.265625 34.207031 102.636719 33.914062 102.636719 33.542969 Z M 101.699219 38.230469 C 101.835938 37.878906 101.835938 37.839844 101.972656 37.507812 C 102.070312 37.253906 102.128906 37.078125 102.128906 36.84375 C 102.128906 36.296875 101.738281 35.828125 101.113281 35.828125 C 99.941406 35.828125 99.472656 37.644531 99.472656 37.742188 C 99.472656 37.878906 99.589844 37.878906 99.609375 37.878906 C 99.746094 37.878906 99.746094 37.839844 99.804688 37.644531 C 100.15625 36.472656 100.644531 36.101562 101.074219 36.101562 C 101.171875 36.101562 101.386719 36.101562 101.386719 36.492188 C 101.386719 36.765625 101.289062 37.019531 101.25 37.15625 C 101.152344 37.46875 100.585938 38.914062 100.390625 39.460938 C 100.253906 39.773438 100.097656 40.183594 100.097656 40.457031 C 100.097656 41.042969 100.527344 41.472656 101.113281 41.472656 C 102.285156 41.472656 102.753906 39.675781 102.753906 39.558594 C 102.753906 39.421875 102.636719 39.421875 102.597656 39.421875 C 102.480469 39.421875 102.480469 39.460938 102.421875 39.65625 C 102.1875 40.4375 101.777344 41.199219 101.152344 41.199219 C 100.9375 41.199219 100.839844 41.082031 100.839844 40.789062 C 100.839844 40.476562 100.917969 40.300781 101.210938 39.539062 L 101.699219 38.230469 Z M 101.699219 38.230469 "/>
<path style=" stroke:none;fill-rule:nonzero;fill:rgb(0%,0%,0%);fill-opacity:1;" d="M 107.785156 41.621094 L 107.492188 41.621094 C 107.472656 41.816406 107.375 42.324219 107.257812 42.402344 C 107.199219 42.460938 106.535156 42.460938 106.398438 42.460938 L 104.796875 42.460938 C 105.714844 41.660156 106.027344 41.40625 106.535156 40.996094 C 107.179688 40.488281 107.785156 39.941406 107.785156 39.121094 C 107.785156 38.066406 106.867188 37.421875 105.753906 37.421875 C 104.679688 37.421875 103.9375 38.183594 103.9375 38.984375 C 103.9375 39.414062 104.308594 39.472656 104.40625 39.472656 C 104.601562 39.472656 104.855469 39.316406 104.855469 39.003906 C 104.855469 38.847656 104.796875 38.535156 104.347656 38.535156 C 104.621094 37.929688 105.207031 37.734375 105.617188 37.734375 C 106.496094 37.734375 106.945312 38.417969 106.945312 39.121094 C 106.945312 39.882812 106.398438 40.46875 106.125 40.78125 L 104.035156 42.871094 C 103.9375 42.949219 103.9375 42.96875 103.9375 43.203125 L 107.53125 43.203125 L 107.785156 41.621094 Z M 107.785156 41.621094 "/>
<path style="fill:none;stroke-width:0.797;stroke-linecap:butt;stroke-linejoin:miter;stroke:rgb(0%,0%,0%);stroke-opacity:1;stroke-miterlimit:10;" d="M 78.80225 17.00775 C 78.80225 10.43275 84.136625 5.1015 90.7085 5.1015 C 97.286625 5.1015 102.61475 10.43275 102.61475 17.00775 C 102.61475 23.585875 97.286625 28.914 90.7085 28.914 C 84.136625 28.914 78.80225 23.585875 78.80225 17.00775 Z M 90.7085 5.1015 L 90.7085 28.914 " transform="matrix(1.25,0,0,-1.25,38.005,136.67375)"/>
<path style="fill-rule:nonzero;fill:rgb(0%,0%,0%);fill-opacity:1;stroke-width:0.3985;stroke-linecap:butt;stroke-linejoin:miter;stroke:rgb(0%,0%,0%);stroke-opacity:1;stroke-miterlimit:10;" d="M 75.00225 24.34525 L 76.986625 24.34525 L 75.00225 28.564 L 73.017875 24.34525 L 75.00225 24.34525 " transform="matrix(1.25,0,0,-1.25,38.005,136.67375)"/>
<path style=" stroke:none;fill-rule:nonzero;fill:rgb(0%,0%,0%);fill-opacity:1;" d="M 122.28125 115.824219 C 122.300781 115.765625 122.339844 115.6875 122.339844 115.648438 C 122.339844 115.648438 122.339844 115.511719 122.183594 115.511719 C 122.066406 115.511719 122.046875 115.589844 122.027344 115.667969 C 121.207031 117.503906 120.757812 118.34375 118.628906 118.34375 L 116.8125 118.34375 C 116.636719 118.34375 116.597656 118.34375 116.539062 118.34375 C 116.402344 118.324219 116.363281 118.304688 116.363281 118.207031 C 116.363281 118.167969 116.363281 118.148438 116.421875 117.933594 L 117.28125 114.515625 L 118.511719 114.515625 C 119.566406 114.515625 119.566406 114.789062 119.566406 115.101562 C 119.566406 115.179688 119.566406 115.335938 119.488281 115.707031 C 119.46875 115.765625 119.449219 115.804688 119.449219 115.84375 C 119.449219 115.902344 119.488281 115.980469 119.605469 115.980469 C 119.703125 115.980469 119.742188 115.921875 119.800781 115.726562 L 120.503906 112.816406 C 120.503906 112.738281 120.445312 112.679688 120.347656 112.679688 C 120.25 112.679688 120.210938 112.757812 120.191406 112.894531 C 119.917969 113.851562 119.703125 114.144531 118.550781 114.144531 L 117.378906 114.144531 L 118.121094 111.136719 C 118.238281 110.6875 118.257812 110.648438 118.804688 110.648438 L 120.5625 110.648438 C 122.066406 110.648438 122.457031 111 122.457031 112.035156 C 122.457031 112.328125 122.457031 112.347656 122.398438 112.699219 C 122.398438 112.757812 122.378906 112.855469 122.378906 112.914062 C 122.378906 112.972656 122.417969 113.070312 122.535156 113.070312 C 122.671875 113.070312 122.691406 112.992188 122.710938 112.757812 L 122.964844 110.589844 C 123.003906 110.257812 122.945312 110.257812 122.632812 110.257812 L 116.324219 110.257812 C 116.089844 110.257812 115.953125 110.257812 115.953125 110.511719 C 115.953125 110.648438 116.070312 110.648438 116.304688 110.648438 C 116.773438 110.648438 117.125 110.648438 117.125 110.863281 C 117.125 110.921875 117.125 110.941406 117.046875 111.175781 L 115.40625 117.757812 C 115.289062 118.246094 115.269531 118.34375 114.273438 118.34375 C 114.058594 118.34375 113.921875 118.34375 113.921875 118.578125 C 113.921875 118.734375 114.039062 118.734375 114.273438 118.734375 L 120.738281 118.734375 C 121.03125 118.734375 121.050781 118.714844 121.128906 118.519531 L 122.28125 115.824219 Z M 122.28125 115.824219 "/>
<path style=" stroke:none;fill-rule:nonzero;fill:rgb(0%,0%,0%);fill-opacity:1;" d="M 125.027344 117.691406 C 125.710938 117.691406 126.199219 118.160156 126.199219 119.097656 C 126.199219 120.171875 125.554688 120.503906 125.066406 120.503906 C 124.714844 120.503906 123.933594 120.40625 123.582031 119.878906 C 123.992188 119.878906 124.089844 119.585938 124.089844 119.390625 C 124.089844 119.117188 123.875 118.921875 123.601562 118.921875 C 123.367188 118.921875 123.113281 119.078125 123.113281 119.429688 C 123.113281 120.25 124.011719 120.777344 125.066406 120.777344 C 126.277344 120.777344 127.117188 119.957031 127.117188 119.097656 C 127.117188 118.414062 126.570312 117.730469 125.613281 117.535156 C 126.511719 117.203125 126.84375 116.558594 126.84375 116.011719 C 126.84375 115.328125 126.0625 114.820312 125.085938 114.820312 C 124.128906 114.820312 123.386719 115.289062 123.386719 115.992188 C 123.386719 116.285156 123.582031 116.441406 123.835938 116.441406 C 124.109375 116.441406 124.285156 116.246094 124.285156 116.011719 C 124.285156 115.757812 124.109375 115.5625 123.835938 115.542969 C 124.148438 115.171875 124.734375 115.074219 125.066406 115.074219 C 125.457031 115.074219 126.003906 115.269531 126.003906 116.011719 C 126.003906 116.382812 125.886719 116.792969 125.652344 117.046875 C 125.378906 117.378906 125.125 117.398438 124.695312 117.4375 C 124.480469 117.457031 124.460938 117.457031 124.421875 117.457031 C 124.402344 117.457031 124.324219 117.476562 124.324219 117.574219 C 124.324219 117.691406 124.402344 117.691406 124.558594 117.691406 L 125.027344 117.691406 Z M 125.027344 117.691406 "/>
<path style="fill:none;stroke-width:0.797;stroke-linecap:butt;stroke-linejoin:miter;stroke:rgb(0%,0%,0%);stroke-opacity:1;stroke-miterlimit:10;" d="M 96.661625 78.235875 L 96.661625 46.485875 L 84.755375 46.485875 L 84.755375 78.235875 L 96.661625 78.235875 Z M 96.661625 78.235875 " transform="matrix(1.25,0,0,-1.25,38.005,136.67375)"/>
<path style=" stroke:none;fill-rule:nonzero;fill:rgb(0%,0%,0%);fill-opacity:1;" d="M 168.652344 54.382812 C 168.730469 54.089844 168.769531 53.972656 169.003906 53.933594 C 169.121094 53.914062 169.511719 53.914062 169.765625 53.914062 C 170.644531 53.914062 172.03125 53.914062 172.03125 55.144531 C 172.03125 55.574219 171.835938 56.433594 171.347656 56.921875 C 171.015625 57.234375 170.371094 57.644531 169.238281 57.644531 L 167.851562 57.644531 L 168.652344 54.382812 Z M 170.449219 57.800781 C 171.71875 57.527344 173.183594 56.648438 173.183594 55.398438 C 173.183594 54.324219 172.070312 53.523438 170.429688 53.523438 L 166.894531 53.523438 C 166.640625 53.523438 166.523438 53.523438 166.523438 53.777344 C 166.523438 53.914062 166.640625 53.914062 166.875 53.914062 C 166.894531 53.914062 167.128906 53.914062 167.34375 53.933594 C 167.578125 53.972656 167.675781 53.972656 167.675781 54.148438 C 167.675781 54.1875 167.675781 54.226562 167.636719 54.382812 L 165.957031 61.0625 C 165.839844 61.550781 165.820312 61.648438 164.824219 61.648438 C 164.609375 61.648438 164.492188 61.648438 164.492188 61.902344 C 164.492188 62.039062 164.648438 62.039062 164.667969 62.039062 C 165.019531 62.039062 165.898438 62 166.230469 62 C 166.582031 62 167.480469 62.039062 167.832031 62.039062 C 167.929688 62.039062 168.066406 62.039062 168.066406 61.785156 C 168.066406 61.648438 167.96875 61.648438 167.714844 61.648438 C 167.265625 61.648438 166.914062 61.648438 166.914062 61.433594 C 166.914062 61.355469 166.933594 61.296875 166.953125 61.21875 L 167.773438 57.917969 L 169.257812 57.917969 C 170.390625 57.917969 170.605469 58.621094 170.605469 59.050781 C 170.605469 59.226562 170.507812 59.617188 170.429688 59.910156 C 170.351562 60.261719 170.234375 60.710938 170.234375 60.964844 C 170.234375 62.3125 171.738281 62.3125 171.894531 62.3125 C 172.949219 62.3125 173.398438 61.0625 173.398438 60.886719 C 173.398438 60.730469 173.261719 60.730469 173.242188 60.730469 C 173.125 60.730469 173.105469 60.808594 173.085938 60.90625 C 172.773438 61.824219 172.226562 62.039062 171.953125 62.039062 C 171.542969 62.039062 171.445312 61.765625 171.445312 61.277344 C 171.445312 60.886719 171.523438 60.261719 171.582031 59.851562 C 171.601562 59.675781 171.621094 59.441406 171.621094 59.265625 C 171.621094 58.308594 170.78125 57.917969 170.449219 57.800781 Z M 170.449219 57.800781 "/>
<path style=" stroke:none;fill-rule:nonzero;fill:rgb(0%,0%,0%);fill-opacity:1;" d="M 175.820312 60.996094 C 176.503906 60.996094 176.992188 61.464844 176.992188 62.402344 C 176.992188 63.476562 176.347656 63.808594 175.859375 63.808594 C 175.507812 63.808594 174.726562 63.710938 174.375 63.183594 C 174.785156 63.183594 174.882812 62.890625 174.882812 62.695312 C 174.882812 62.421875 174.667969 62.226562 174.394531 62.226562 C 174.160156 62.226562 173.90625 62.382812 173.90625 62.734375 C 173.90625 63.554688 174.804688 64.082031 175.859375 64.082031 C 177.070312 64.082031 177.910156 63.261719 177.910156 62.402344 C 177.910156 61.71875 177.363281 61.035156 176.40625 60.839844 C 177.304688 60.507812 177.636719 59.863281 177.636719 59.316406 C 177.636719 58.632812 176.855469 58.125 175.878906 58.125 C 174.921875 58.125 174.179688 58.59375 174.179688 59.296875 C 174.179688 59.589844 174.375 59.746094 174.628906 59.746094 C 174.902344 59.746094 175.078125 59.550781 175.078125 59.316406 C 175.078125 59.0625 174.902344 58.867188 174.628906 58.847656 C 174.941406 58.476562 175.527344 58.378906 175.859375 58.378906 C 176.25 58.378906 176.796875 58.574219 176.796875 59.316406 C 176.796875 59.6875 176.679688 60.097656 176.445312 60.351562 C 176.171875 60.683594 175.917969 60.703125 175.488281 60.742188 C 175.273438 60.761719 175.253906 60.761719 175.214844 60.761719 C 175.195312 60.761719 175.117188 60.78125 175.117188 60.878906 C 175.117188 60.996094 175.195312 60.996094 175.351562 60.996094 L 175.820312 60.996094 Z M 175.820312 60.996094 "/>
<path style="fill-rule:nonzero;fill:rgb(0%,0%,0%);fill-opacity:1;stroke-width:0.3985;stroke-linecap:butt;stroke-linejoin:miter;stroke:rgb(0%,0%,0%);stroke-opacity:1;stroke-miterlimit:10;" d="M 90.71475 82.742125 L 92.699125 82.742125 L 90.71475 86.954625 L 88.730375 82.735875 L 90.71475 82.742125 " transform="matrix(1.25,0,0,-1.25,38.005,136.67375)"/>
<path style=" stroke:none;fill-rule:nonzero;fill:rgb(0%,0%,0%);fill-opacity:1;" d="M 135.695312 26.453125 C 135.695312 26.199219 135.519531 26.003906 135.246094 26.003906 C 134.894531 26.003906 134.5625 26.335938 134.5625 26.667969 C 134.5625 26.902344 134.738281 27.117188 135.03125 27.117188 C 135.324219 27.117188 135.695312 26.824219 135.695312 26.453125 Z M 134.757812 31.140625 C 134.894531 30.789062 134.894531 30.75 135.03125 30.417969 C 135.128906 30.164062 135.1875 29.988281 135.1875 29.753906 C 135.1875 29.207031 134.796875 28.738281 134.171875 28.738281 C 133 28.738281 132.53125 30.554688 132.53125 30.652344 C 132.53125 30.789062 132.648438 30.789062 132.667969 30.789062 C 132.804688 30.789062 132.804688 30.75 132.863281 30.554688 C 133.214844 29.382812 133.703125 29.011719 134.132812 29.011719 C 134.230469 29.011719 134.445312 29.011719 134.445312 29.402344 C 134.445312 29.675781 134.347656 29.929688 134.308594 30.066406 C 134.210938 30.378906 133.644531 31.824219 133.449219 32.371094 C 133.3125 32.683594 133.15625 33.09375 133.15625 33.367188 C 133.15625 33.953125 133.585938 34.382812 134.171875 34.382812 C 135.34375 34.382812 135.8125 32.585938 135.8125 32.46875 C 135.8125 32.332031 135.695312 32.332031 135.65625 32.332031 C 135.539062 32.332031 135.539062 32.371094 135.480469 32.566406 C 135.246094 33.347656 134.835938 34.109375 134.210938 34.109375 C 133.996094 34.109375 133.898438 33.992188 133.898438 33.699219 C 133.898438 33.386719 133.976562 33.210938 134.269531 32.449219 L 134.757812 31.140625 Z M 134.757812 31.140625 "/>
<path style=" stroke:none;fill-rule:nonzero;fill:rgb(0%,0%,0%);fill-opacity:1;" d="M 139.359375 30.566406 C 139.359375 30.332031 139.359375 30.332031 139.105469 30.332031 C 138.539062 30.878906 137.757812 30.878906 137.40625 30.878906 L 137.40625 31.191406 C 137.601562 31.191406 138.1875 31.191406 138.65625 30.957031 L 138.65625 35.390625 C 138.65625 35.683594 138.65625 35.800781 137.796875 35.800781 L 137.464844 35.800781 L 137.464844 36.113281 C 137.621094 36.113281 138.695312 36.074219 139.007812 36.074219 C 139.28125 36.074219 140.375 36.113281 140.570312 36.113281 L 140.570312 35.800781 L 140.238281 35.800781 C 139.359375 35.800781 139.359375 35.683594 139.359375 35.390625 L 139.359375 30.566406 Z M 139.359375 30.566406 "/>
<path style=" stroke:none;fill-rule:nonzero;fill:rgb(0%,0%,0%);fill-opacity:1;" d="M 143.796875 33.203125 C 144.480469 33.203125 144.96875 33.671875 144.96875 34.609375 C 144.96875 35.683594 144.324219 36.015625 143.835938 36.015625 C 143.484375 36.015625 142.703125 35.917969 142.351562 35.390625 C 142.761719 35.390625 142.859375 35.097656 142.859375 34.902344 C 142.859375 34.628906 142.644531 34.433594 142.371094 34.433594 C 142.136719 34.433594 141.882812 34.589844 141.882812 34.941406 C 141.882812 35.761719 142.78125 36.289062 143.835938 36.289062 C 145.046875 36.289062 145.886719 35.46875 145.886719 34.609375 C 145.886719 33.925781 145.339844 33.242188 144.382812 33.046875 C 145.28125 32.714844 145.613281 32.070312 145.613281 31.523438 C 145.613281 30.839844 144.832031 30.332031 143.855469 30.332031 C 142.898438 30.332031 142.15625 30.800781 142.15625 31.503906 C 142.15625 31.796875 142.351562 31.953125 142.605469 31.953125 C 142.878906 31.953125 143.054688 31.757812 143.054688 31.523438 C 143.054688 31.269531 142.878906 31.074219 142.605469 31.054688 C 142.917969 30.683594 143.503906 30.585938 143.835938 30.585938 C 144.226562 30.585938 144.773438 30.78125 144.773438 31.523438 C 144.773438 31.894531 144.65625 32.304688 144.421875 32.558594 C 144.148438 32.890625 143.894531 32.910156 143.464844 32.949219 C 143.25 32.96875 143.230469 32.96875 143.191406 32.96875 C 143.171875 32.96875 143.09375 32.988281 143.09375 33.085938 C 143.09375 33.203125 143.171875 33.203125 143.328125 33.203125 L 143.796875 33.203125 Z M 143.796875 33.203125 "/>
<path style=" stroke:none;fill-rule:nonzero;fill:rgb(0%,0%,0%);fill-opacity:1;" d="M 40.417969 22.929688 C 40.417969 21.601562 39.304688 20.527344 38.015625 20.527344 C 36.667969 20.527344 35.574219 21.640625 35.574219 22.929688 C 35.574219 24.257812 36.667969 25.351562 38.015625 25.351562 C 39.304688 25.351562 40.417969 24.277344 40.417969 22.929688 Z M 40.417969 22.929688 "/>
<path style=" stroke:none;fill-rule:nonzero;fill:rgb(0%,0%,0%);fill-opacity:1;" d="M 29.226562 10.214844 C 29.167969 10.058594 29.128906 9.960938 28.933594 9.960938 C 28.738281 9.960938 28.699219 10.039062 28.640625 10.214844 L 26.0625 17.65625 C 25.828125 18.300781 25.339844 18.496094 24.65625 18.496094 L 24.65625 18.886719 C 24.949219 18.867188 25.496094 18.847656 25.925781 18.847656 C 26.316406 18.847656 26.960938 18.867188 27.371094 18.886719 L 27.371094 18.496094 C 26.746094 18.496094 26.433594 18.183594 26.433594 17.871094 C 26.433594 17.832031 26.453125 17.695312 26.453125 17.675781 L 27.039062 16.054688 L 30.105469 16.054688 L 30.769531 17.949219 C 30.789062 18.007812 30.808594 18.085938 30.808594 18.125 C 30.808594 18.496094 30.105469 18.496094 29.773438 18.496094 L 29.773438 18.886719 C 30.222656 18.847656 31.101562 18.847656 31.570312 18.847656 C 32.097656 18.847656 32.683594 18.867188 33.191406 18.886719 L 33.191406 18.496094 L 32.976562 18.496094 C 32.234375 18.496094 32.058594 18.417969 31.921875 18.007812 L 29.226562 10.214844 Z M 28.5625 11.601562 L 29.96875 15.664062 L 27.175781 15.664062 L 28.5625 11.601562 Z M 28.5625 11.601562 "/>
<path style=" stroke:none;fill-rule:nonzero;fill:rgb(0%,0%,0%);fill-opacity:1;" d="M 97.113281 22.929688 C 97.113281 21.601562 96 20.527344 94.710938 20.527344 C 93.363281 20.527344 92.269531 21.640625 92.269531 22.929688 C 92.269531 24.257812 93.363281 25.351562 94.710938 25.351562 C 96 25.351562 97.113281 24.277344 97.113281 22.929688 Z M 97.113281 22.929688 "/>
<path style=" stroke:none;fill-rule:nonzero;fill:rgb(0%,0%,0%);fill-opacity:1;" d="M 93.0625 14.316406 L 93.0625 11.269531 C 93.0625 10.839844 93.082031 10.761719 93.667969 10.761719 L 95.210938 10.761719 C 96.421875 10.761719 96.851562 11.816406 96.851562 12.480469 C 96.851562 13.28125 96.246094 14.316406 94.859375 14.316406 L 93.0625 14.316406 Z M 95.992188 14.433594 C 97.203125 14.199219 98.0625 13.398438 98.0625 12.480469 C 98.0625 11.40625 96.910156 10.371094 95.289062 10.371094 L 90.738281 10.371094 L 90.738281 10.761719 L 91.03125 10.761719 C 91.988281 10.761719 92.027344 10.898438 92.027344 11.347656 L 92.027344 17.910156 C 92.027344 18.359375 91.988281 18.496094 91.03125 18.496094 L 90.738281 18.496094 L 90.738281 18.886719 L 95.621094 18.886719 C 97.28125 18.886719 98.394531 17.773438 98.394531 16.601562 C 98.394531 15.527344 97.378906 14.589844 95.992188 14.433594 Z M 95.230469 18.496094 L 93.667969 18.496094 C 93.082031 18.496094 93.0625 18.417969 93.0625 18.007812 L 93.0625 14.609375 L 95.40625 14.609375 C 96.636719 14.609375 97.164062 15.761719 97.164062 16.601562 C 97.164062 17.480469 96.5 18.496094 95.230469 18.496094 Z M 95.230469 18.496094 "/>
<path style=" stroke:none;fill-rule:nonzero;fill:rgb(0%,0%,0%);fill-opacity:1;" d="M 153.804688 22.929688 C 153.804688 21.601562 152.691406 20.527344 151.402344 20.527344 C 150.054688 20.527344 148.960938 21.640625 148.960938 22.929688 C 148.960938 24.257812 150.054688 25.351562 151.402344 25.351562 C 152.691406 25.351562 153.804688 24.277344 153.804688 22.929688 Z M 153.804688 22.929688 "/>
<path style=" stroke:none;fill-rule:nonzero;fill:rgb(0%,0%,0%);fill-opacity:1;" d="M 156.496094 14.628906 C 156.496094 17.207031 158.507812 19.160156 160.832031 19.160156 C 162.863281 19.160156 164.074219 17.421875 164.074219 15.976562 C 164.074219 15.859375 164.074219 15.761719 163.917969 15.761719 C 163.78125 15.761719 163.78125 15.839844 163.761719 15.976562 C 163.664062 17.753906 162.335938 18.769531 160.96875 18.769531 C 160.207031 18.769531 157.765625 18.359375 157.765625 14.628906 C 157.765625 10.917969 160.207031 10.488281 160.96875 10.488281 C 162.316406 10.488281 163.429688 11.621094 163.683594 13.4375 C 163.703125 13.613281 163.703125 13.652344 163.878906 13.652344 C 164.074219 13.652344 164.074219 13.613281 164.074219 13.359375 L 164.074219 10.410156 C 164.074219 10.195312 164.074219 10.097656 163.9375 10.097656 C 163.898438 10.097656 163.839844 10.097656 163.742188 10.253906 L 163.117188 11.171875 C 162.667969 10.722656 162.023438 10.097656 160.832031 10.097656 C 158.488281 10.097656 156.496094 12.089844 156.496094 14.628906 Z M 156.496094 14.628906 "/>
<path style=" stroke:none;fill-rule:nonzero;fill:rgb(0%,0%,0%);fill-opacity:1;" d="M 153.804688 136.316406 C 153.804688 134.988281 152.691406 133.914062 151.402344 133.914062 C 150.054688 133.914062 148.960938 135.027344 148.960938 136.316406 C 148.960938 137.644531 150.054688 138.738281 151.402344 138.738281 C 152.691406 138.738281 153.804688 137.664062 153.804688 136.316406 Z M 153.804688 136.316406 "/>
<path style=" stroke:none;fill-rule:nonzero;fill:rgb(0%,0%,0%);fill-opacity:1;" d="M 156.222656 141.066406 L 156.222656 141.457031 L 156.535156 141.457031 C 157.492188 141.457031 157.511719 141.59375 157.511719 142.042969 L 157.511719 148.605469 C 157.511719 149.054688 157.492188 149.191406 156.535156 149.191406 L 156.222656 149.191406 L 156.222656 149.582031 L 160.792969 149.582031 C 162.882812 149.582031 164.601562 147.746094 164.601562 145.402344 C 164.601562 143.019531 162.921875 141.066406 160.792969 141.066406 L 156.222656 141.066406 Z M 159.191406 149.191406 C 158.605469 149.191406 158.585938 149.113281 158.585938 148.703125 L 158.585938 141.964844 C 158.585938 141.535156 158.605469 141.457031 159.191406 141.457031 L 160.441406 141.457031 C 161.222656 141.457031 162.082031 141.730469 162.707031 142.609375 C 163.253906 143.351562 163.351562 144.425781 163.351562 145.402344 C 163.351562 146.769531 163.117188 147.53125 162.667969 148.136719 C 162.414062 148.46875 161.710938 149.191406 160.460938 149.191406 L 159.191406 149.191406 Z M 159.191406 149.191406 "/>
<path style=" stroke:none;fill-rule:nonzero;fill:rgb(0%,0%,0%);fill-opacity:1;" d="M 97.113281 136.316406 C 97.113281 134.988281 96 133.914062 94.710938 133.914062 C 93.363281 133.914062 92.269531 135.027344 92.269531 136.316406 C 92.269531 137.644531 93.363281 138.738281 94.710938 138.738281 C 96 138.738281 97.113281 137.664062 97.113281 136.316406 Z M 97.113281 136.316406 "/>
<path style=" stroke:none;fill-rule:nonzero;fill:rgb(0%,0%,0%);fill-opacity:1;" d="M 92.160156 148.605469 C 92.160156 149.054688 92.121094 149.191406 91.164062 149.191406 L 90.871094 149.191406 L 90.871094 149.582031 L 98.058594 149.582031 L 98.585938 146.359375 L 98.273438 146.359375 C 97.960938 148.292969 97.667969 149.191406 95.539062 149.191406 L 93.878906 149.191406 C 93.292969 149.191406 93.273438 149.113281 93.273438 148.703125 L 93.273438 145.363281 L 94.386719 145.363281 C 95.597656 145.363281 95.734375 145.773438 95.734375 146.828125 L 96.046875 146.828125 L 96.046875 143.527344 L 95.734375 143.527344 C 95.734375 144.601562 95.597656 144.992188 94.386719 144.992188 L 93.273438 144.992188 L 93.273438 141.984375 C 93.273438 141.574219 93.292969 141.496094 93.878906 141.496094 L 95.480469 141.496094 C 97.394531 141.496094 97.726562 142.179688 97.921875 143.917969 L 98.234375 143.917969 L 97.882812 141.105469 L 90.871094 141.105469 L 90.871094 141.496094 L 91.164062 141.496094 C 92.121094 141.496094 92.160156 141.632812 92.160156 142.082031 L 92.160156 148.605469 Z M 92.160156 148.605469 "/>
<path style=" stroke:none;fill-rule:nonzero;fill:rgb(0%,0%,0%);fill-opacity:1;" d="M 40.417969 136.316406 C 40.417969 134.988281 39.304688 133.914062 38.015625 133.914062 C 36.667969 133.914062 35.574219 135.027344 35.574219 136.316406 C 35.574219 137.644531 36.667969 138.738281 38.015625 138.738281 C 39.304688 138.738281 40.417969 137.664062 40.417969 136.316406 Z M 40.417969 136.316406 "/>
<path style=" stroke:none;fill-rule:nonzero;fill:rgb(0%,0%,0%);fill-opacity:1;" d="M 32.722656 141.105469 L 25.886719 141.105469 L 25.886719 141.496094 L 26.179688 141.496094 C 27.136719 141.496094 27.175781 141.632812 27.175781 142.082031 L 27.175781 148.605469 C 27.175781 149.054688 27.136719 149.191406 26.179688 149.191406 L 25.886719 149.191406 L 25.886719 149.582031 C 26.316406 149.542969 27.292969 149.542969 27.78125 149.542969 C 28.289062 149.542969 29.421875 149.542969 29.871094 149.582031 L 29.871094 149.191406 L 29.460938 149.191406 C 28.289062 149.191406 28.289062 149.035156 28.289062 148.605469 L 28.289062 145.539062 L 29.34375 145.539062 C 30.554688 145.539062 30.671875 145.929688 30.671875 146.984375 L 30.984375 146.984375 L 30.984375 143.683594 L 30.671875 143.683594 C 30.671875 144.738281 30.554688 145.148438 29.34375 145.148438 L 28.289062 145.148438 L 28.289062 141.984375 C 28.289062 141.574219 28.308594 141.496094 28.894531 141.496094 L 30.378906 141.496094 C 32.253906 141.496094 32.566406 142.199219 32.761719 143.917969 L 33.074219 143.917969 L 32.722656 141.105469 Z M 32.722656 141.105469 "/>
</g>
</svg>
