<?xml version="1.0" encoding="UTF-8"?>
<!-- Converted by misc2svg (http://www.network-science.de/tools/misc2svg/) -->
<svg xmlns="http://www.w3.org/2000/svg" xmlns:xlink="http://www.w3.org/1999/xlink" width="249pt" height="112pt" viewBox="0 0 249 112" version="1.1">
<g id="misc2svg">
<path style="fill:none;stroke-width:0.3985;stroke-linecap:butt;stroke-linejoin:miter;stroke:rgb(0%,0%,0%);stroke-opacity:1;stroke-miterlimit:10;" d="M -0.00175 0.001 L -0.00175 23.8135 M -0.00175 55.560375 L -0.00175 79.372875 M -0.00175 79.372875 L 39.68575 79.372875 M 39.68575 79.372875 L 39.68575 51.591625 M 39.68575 27.78225 L 39.68575 0.001 M 39.68575 0.001 L 79.370125 0.001 M 79.37325 0.001 L 79.37325 23.8135 M 79.37325 55.560375 L 79.37325 79.372875 M 79.370125 79.372875 L 79.37325 55.560375 M 79.370125 79.372875 L 119.057625 79.372875 M 119.057625 79.372875 L 119.057625 51.591625 M 119.057625 27.78225 L 119.057625 0.001 M 119.057625 0.001 L 158.742 0.001 M 158.745125 0.001 L 158.745125 23.8135 M 158.745125 55.560375 L 158.745125 79.372875 " transform="matrix(1.25,0,0,-1.25,14.16625,105.68875)"/>
<path style="fill:none;stroke-width:0.797;stroke-linecap:butt;stroke-linejoin:miter;stroke:rgb(0%,0%,0%);stroke-opacity:1;stroke-miterlimit:10;" d="M 5.951375 55.560375 L 5.951375 23.8135 L -5.954875 23.8135 L -5.954875 55.560375 L 5.951375 55.560375 Z M 5.951375 55.560375 " transform="matrix(1.25,0,0,-1.25,14.16625,105.68875)"/>
<path style=" stroke:none;fill-rule:nonzero;fill:rgb(0%,0%,0%);fill-opacity:1;" d="M 30.617188 52.683594 C 30.695312 52.351562 30.714844 52.332031 31.125 52.332031 L 31.925781 52.332031 C 32.746094 52.332031 33.507812 52.527344 33.507812 53.347656 C 33.507812 53.777344 33.292969 54.480469 32.824219 54.792969 C 32.355469 55.144531 31.789062 55.242188 31.203125 55.242188 L 29.972656 55.242188 L 30.617188 52.683594 Z M 32.316406 55.417969 C 33.527344 55.105469 34.484375 54.363281 34.484375 53.503906 C 34.484375 52.644531 33.507812 52 32.121094 52 L 29.191406 52 C 29.015625 52 28.878906 52 28.878906 52.175781 C 28.878906 52.332031 29.015625 52.332031 29.171875 52.332031 C 29.503906 52.332031 29.796875 52.332031 29.796875 52.488281 C 29.796875 52.527344 29.777344 52.527344 29.757812 52.664062 L 28.410156 58.015625 C 28.332031 58.386719 28.3125 58.464844 27.570312 58.464844 C 27.375 58.464844 27.257812 58.464844 27.257812 58.660156 C 27.257812 58.699219 27.296875 58.796875 27.414062 58.796875 C 27.609375 58.796875 27.84375 58.777344 28.039062 58.757812 L 28.644531 58.757812 C 29.582031 58.757812 29.875 58.796875 29.933594 58.796875 C 29.992188 58.796875 30.128906 58.796875 30.128906 58.601562 C 30.128906 58.464844 29.992188 58.464844 29.835938 58.464844 C 29.796875 58.464844 29.621094 58.464844 29.445312 58.445312 C 29.230469 58.425781 29.210938 58.40625 29.210938 58.308594 C 29.210938 58.25 29.230469 58.191406 29.25 58.152344 L 29.894531 55.535156 L 31.183594 55.535156 C 32.082031 55.535156 32.375 56.003906 32.375 56.414062 C 32.375 56.550781 32.296875 56.84375 32.257812 57.039062 C 32.160156 57.332031 32.0625 57.722656 32.0625 57.917969 C 32.0625 58.679688 32.726562 59.011719 33.46875 59.011719 C 34.328125 59.011719 34.738281 58.035156 34.738281 57.839844 C 34.738281 57.800781 34.699219 57.703125 34.582031 57.703125 C 34.464844 57.703125 34.445312 57.78125 34.425781 57.839844 C 34.210938 58.523438 33.78125 58.71875 33.488281 58.71875 C 33.117188 58.71875 33.078125 58.445312 33.078125 58.113281 C 33.078125 57.78125 33.136719 57.351562 33.175781 57.019531 C 33.214844 56.726562 33.214844 56.667969 33.214844 56.570312 C 33.214844 55.964844 32.84375 55.613281 32.316406 55.417969 Z M 32.316406 55.417969 "/>
<path style=" stroke:none;fill-rule:nonzero;fill:rgb(0%,0%,0%);fill-opacity:1;" d="M 37.398438 55.429688 C 37.398438 55.195312 37.378906 55.195312 37.144531 55.195312 C 36.65625 55.683594 35.894531 55.683594 35.621094 55.683594 L 35.621094 55.976562 C 35.816406 55.976562 36.324219 55.976562 36.773438 55.761719 L 36.773438 59.53125 C 36.773438 59.785156 36.773438 59.882812 35.992188 59.882812 L 35.679688 59.882812 L 35.679688 60.175781 C 36.089844 60.136719 36.675781 60.136719 37.085938 60.136719 C 37.496094 60.136719 38.082031 60.136719 38.492188 60.175781 L 38.492188 59.882812 L 38.179688 59.882812 C 37.398438 59.882812 37.398438 59.785156 37.398438 59.53125 L 37.398438 55.429688 Z M 37.398438 55.429688 "/>
<path style="fill:none;stroke-width:0.797;stroke-linecap:butt;stroke-linejoin:miter;stroke:rgb(0%,0%,0%);stroke-opacity:1;stroke-miterlimit:10;" d="M 51.592 39.685375 C 51.592 46.2635 46.26075 51.591625 39.68575 51.591625 C 33.107625 51.591625 27.7795 46.2635 27.7795 39.685375 C 27.7795 33.110375 33.107625 27.78225 39.68575 27.78225 C 46.26075 27.78225 51.592 33.110375 51.592 39.685375 Z M 51.592 39.685375 L 27.7795 39.685375 " transform="matrix(1.25,0,0,-1.25,14.16625,105.68875)"/>
<path style=" stroke:none;fill-rule:nonzero;fill:rgb(0%,0%,0%);fill-opacity:1;" d="M 93.605469 49.289062 C 93.625 49.25 93.644531 49.191406 93.644531 49.152344 C 93.644531 49.132812 93.644531 48.996094 93.488281 48.996094 C 93.390625 48.996094 93.371094 49.035156 93.273438 49.25 C 92.648438 50.714844 92.179688 51.261719 90.539062 51.261719 L 88.742188 51.261719 C 88.644531 51.242188 88.605469 51.242188 88.605469 51.183594 C 88.605469 51.105469 88.625 51.007812 88.664062 50.949219 L 89.347656 48.234375 L 90.402344 48.234375 C 91.144531 48.234375 91.28125 48.351562 91.28125 48.683594 C 91.28125 48.683594 91.28125 48.839844 91.222656 49.132812 C 91.203125 49.171875 91.183594 49.230469 91.183594 49.269531 C 91.183594 49.269531 91.203125 49.40625 91.339844 49.40625 C 91.457031 49.40625 91.476562 49.347656 91.515625 49.171875 L 92.042969 47.082031 C 92.042969 47.0625 92.082031 46.90625 92.082031 46.886719 C 92.082031 46.789062 92.003906 46.75 91.925781 46.75 C 91.808594 46.75 91.789062 46.808594 91.75 46.984375 C 91.535156 47.765625 91.28125 47.902344 90.421875 47.902344 L 89.425781 47.902344 L 90.011719 45.519531 C 90.109375 45.167969 90.109375 45.148438 90.519531 45.148438 L 92.082031 45.148438 C 93.273438 45.148438 93.664062 45.382812 93.664062 46.261719 C 93.664062 46.476562 93.605469 46.730469 93.605469 46.90625 C 93.605469 47.023438 93.683594 47.082031 93.761719 47.082031 C 93.898438 47.082031 93.898438 46.984375 93.917969 46.828125 L 94.09375 45.128906 C 94.113281 45.070312 94.113281 45.011719 94.113281 44.953125 C 94.113281 44.816406 93.996094 44.816406 93.820312 44.816406 L 88.566406 44.816406 C 88.371094 44.816406 88.253906 44.816406 88.253906 45.011719 C 88.253906 45.148438 88.390625 45.148438 88.546875 45.148438 C 88.585938 45.148438 88.761719 45.148438 88.9375 45.167969 C 89.152344 45.1875 89.171875 45.226562 89.171875 45.304688 C 89.171875 45.363281 89.152344 45.421875 89.132812 45.460938 L 87.804688 50.8125 C 87.707031 51.183594 87.6875 51.261719 86.945312 51.261719 C 86.769531 51.261719 86.632812 51.261719 86.632812 51.457031 C 86.632812 51.59375 86.769531 51.59375 86.945312 51.59375 L 92.335938 51.59375 C 92.570312 51.59375 92.589844 51.59375 92.667969 51.417969 L 93.605469 49.289062 Z M 93.605469 49.289062 "/>
<path style=" stroke:none;fill-rule:nonzero;fill:rgb(0%,0%,0%);fill-opacity:1;" d="M 96.578125 48.230469 C 96.578125 47.996094 96.558594 47.996094 96.324219 47.996094 C 95.835938 48.484375 95.074219 48.484375 94.800781 48.484375 L 94.800781 48.777344 C 94.996094 48.777344 95.503906 48.777344 95.953125 48.5625 L 95.953125 52.332031 C 95.953125 52.585938 95.953125 52.683594 95.171875 52.683594 L 94.859375 52.683594 L 94.859375 52.976562 C 95.269531 52.9375 95.855469 52.9375 96.265625 52.9375 C 96.675781 52.9375 97.261719 52.9375 97.671875 52.976562 L 97.671875 52.683594 L 97.359375 52.683594 C 96.578125 52.683594 96.578125 52.585938 96.578125 52.332031 L 96.578125 48.230469 Z M 96.578125 48.230469 "/>
<path style="fill:none;stroke-width:0.359;stroke-linecap:butt;stroke-linejoin:miter;stroke:rgb(0%,0%,0%);stroke-opacity:1;stroke-miterlimit:10;" d="M -0.001875 0.00175 L 10.529375 0.00175 " transform="matrix(1.25,0,0,-1.25,86.0375,56.04125)"/>
<path style=" stroke:none;fill-rule:nonzero;fill:rgb(0%,0%,0%);fill-opacity:1;" d="M 89.90625 59.882812 C 89.984375 59.550781 90.003906 59.53125 90.414062 59.53125 L 91.214844 59.53125 C 92.035156 59.53125 92.796875 59.726562 92.796875 60.546875 C 92.796875 60.976562 92.582031 61.679688 92.113281 61.992188 C 91.644531 62.34375 91.078125 62.441406 90.492188 62.441406 L 89.261719 62.441406 L 89.90625 59.882812 Z M 91.605469 62.617188 C 92.816406 62.304688 93.773438 61.5625 93.773438 60.703125 C 93.773438 59.84375 92.796875 59.199219 91.410156 59.199219 L 88.480469 59.199219 C 88.304688 59.199219 88.167969 59.199219 88.167969 59.375 C 88.167969 59.53125 88.304688 59.53125 88.460938 59.53125 C 88.792969 59.53125 89.085938 59.53125 89.085938 59.6875 C 89.085938 59.726562 89.066406 59.726562 89.046875 59.863281 L 87.699219 65.214844 C 87.621094 65.585938 87.601562 65.664062 86.859375 65.664062 C 86.664062 65.664062 86.546875 65.664062 86.546875 65.859375 C 86.546875 65.898438 86.585938 65.996094 86.703125 65.996094 C 86.898438 65.996094 87.132812 65.976562 87.328125 65.957031 L 87.933594 65.957031 C 88.871094 65.957031 89.164062 65.996094 89.222656 65.996094 C 89.28125 65.996094 89.417969 65.996094 89.417969 65.800781 C 89.417969 65.664062 89.28125 65.664062 89.125 65.664062 C 89.085938 65.664062 88.910156 65.664062 88.734375 65.644531 C 88.519531 65.625 88.5 65.605469 88.5 65.507812 C 88.5 65.449219 88.519531 65.390625 88.539062 65.351562 L 89.183594 62.734375 L 90.472656 62.734375 C 91.371094 62.734375 91.664062 63.203125 91.664062 63.613281 C 91.664062 63.75 91.585938 64.042969 91.546875 64.238281 C 91.449219 64.53125 91.351562 64.921875 91.351562 65.117188 C 91.351562 65.878906 92.015625 66.210938 92.757812 66.210938 C 93.617188 66.210938 94.027344 65.234375 94.027344 65.039062 C 94.027344 65 93.988281 64.902344 93.871094 64.902344 C 93.753906 64.902344 93.734375 64.980469 93.714844 65.039062 C 93.5 65.722656 93.070312 65.917969 92.777344 65.917969 C 92.40625 65.917969 92.367188 65.644531 92.367188 65.3125 C 92.367188 64.980469 92.425781 64.550781 92.464844 64.21875 C 92.503906 63.925781 92.503906 63.867188 92.503906 63.769531 C 92.503906 63.164062 92.132812 62.8125 91.605469 62.617188 Z M 91.605469 62.617188 "/>
<path style=" stroke:none;fill-rule:nonzero;fill:rgb(0%,0%,0%);fill-opacity:1;" d="M 96.6875 62.632812 C 96.6875 62.398438 96.667969 62.398438 96.433594 62.398438 C 95.945312 62.886719 95.183594 62.886719 94.910156 62.886719 L 94.910156 63.179688 C 95.105469 63.179688 95.613281 63.179688 96.0625 62.964844 L 96.0625 66.734375 C 96.0625 66.988281 96.0625 67.085938 95.28125 67.085938 L 94.96875 67.085938 L 94.96875 67.378906 C 95.378906 67.339844 95.964844 67.339844 96.375 67.339844 C 96.785156 67.339844 97.371094 67.339844 97.78125 67.378906 L 97.78125 67.085938 L 97.46875 67.085938 C 96.6875 67.085938 96.6875 66.988281 96.6875 66.734375 L 96.6875 62.632812 Z M 96.6875 62.632812 "/>
<path style="fill:none;stroke-width:0.797;stroke-linecap:butt;stroke-linejoin:miter;stroke:rgb(0%,0%,0%);stroke-opacity:1;stroke-miterlimit:10;" d="M 85.32325 55.560375 L 85.32325 23.8135 L 73.417 23.8135 L 73.417 55.560375 L 85.32325 55.560375 Z M 85.32325 55.560375 " transform="matrix(1.25,0,0,-1.25,14.16625,105.68875)"/>
<path style=" stroke:none;fill-rule:nonzero;fill:rgb(0%,0%,0%);fill-opacity:1;" d="M 129.832031 52.679688 C 129.910156 52.347656 129.929688 52.328125 130.339844 52.328125 L 131.140625 52.328125 C 131.960938 52.328125 132.722656 52.523438 132.722656 53.34375 C 132.722656 53.773438 132.507812 54.476562 132.039062 54.789062 C 131.570312 55.140625 131.003906 55.238281 130.417969 55.238281 L 129.1875 55.238281 L 129.832031 52.679688 Z M 131.53125 55.414062 C 132.742188 55.101562 133.699219 54.359375 133.699219 53.5 C 133.699219 52.640625 132.722656 51.996094 131.335938 51.996094 L 128.40625 51.996094 C 128.230469 51.996094 128.09375 51.996094 128.09375 52.171875 C 128.09375 52.328125 128.230469 52.328125 128.386719 52.328125 C 128.71875 52.328125 129.011719 52.328125 129.011719 52.484375 C 129.011719 52.523438 128.992188 52.523438 128.972656 52.660156 L 127.625 58.011719 C 127.546875 58.382812 127.527344 58.460938 126.785156 58.460938 C 126.589844 58.460938 126.472656 58.460938 126.472656 58.65625 C 126.472656 58.695312 126.511719 58.792969 126.628906 58.792969 C 126.824219 58.792969 127.058594 58.773438 127.253906 58.753906 L 127.859375 58.753906 C 128.796875 58.753906 129.089844 58.792969 129.148438 58.792969 C 129.207031 58.792969 129.34375 58.792969 129.34375 58.597656 C 129.34375 58.460938 129.207031 58.460938 129.050781 58.460938 C 129.011719 58.460938 128.835938 58.460938 128.660156 58.441406 C 128.445312 58.421875 128.425781 58.402344 128.425781 58.304688 C 128.425781 58.246094 128.445312 58.1875 128.464844 58.148438 L 129.109375 55.53125 L 130.398438 55.53125 C 131.296875 55.53125 131.589844 56 131.589844 56.410156 C 131.589844 56.546875 131.511719 56.839844 131.472656 57.035156 C 131.375 57.328125 131.277344 57.71875 131.277344 57.914062 C 131.277344 58.675781 131.941406 59.007812 132.683594 59.007812 C 133.542969 59.007812 133.953125 58.03125 133.953125 57.835938 C 133.953125 57.796875 133.914062 57.699219 133.796875 57.699219 C 133.679688 57.699219 133.660156 57.777344 133.640625 57.835938 C 133.425781 58.519531 132.996094 58.714844 132.703125 58.714844 C 132.332031 58.714844 132.292969 58.441406 132.292969 58.109375 C 132.292969 57.777344 132.351562 57.347656 132.390625 57.015625 C 132.429688 56.722656 132.429688 56.664062 132.429688 56.566406 C 132.429688 55.960938 132.058594 55.609375 131.53125 55.414062 Z M 131.53125 55.414062 "/>
<path style=" stroke:none;fill-rule:nonzero;fill:rgb(0%,0%,0%);fill-opacity:1;" d="M 137.960938 58.769531 L 137.6875 58.769531 C 137.667969 58.886719 137.589844 59.375 137.492188 59.453125 C 137.433594 59.511719 136.828125 59.511719 136.710938 59.511719 L 135.324219 59.511719 L 136.28125 58.730469 C 136.535156 58.515625 137.199219 58.046875 137.433594 57.8125 C 137.648438 57.597656 137.960938 57.207031 137.960938 56.679688 C 137.960938 55.742188 137.121094 55.195312 136.105469 55.195312 C 135.148438 55.195312 134.484375 55.839844 134.484375 56.542969 C 134.484375 56.914062 134.796875 56.972656 134.875 56.972656 C 135.070312 56.972656 135.285156 56.835938 135.285156 56.5625 C 135.285156 56.40625 135.1875 56.152344 134.855469 56.152344 C 135.03125 55.78125 135.480469 55.488281 136.007812 55.488281 C 136.789062 55.488281 137.199219 56.074219 137.199219 56.679688 C 137.199219 57.207031 136.847656 57.753906 136.339844 58.242188 L 134.5625 59.863281 C 134.484375 59.941406 134.484375 59.941406 134.484375 60.175781 L 137.726562 60.175781 L 137.960938 58.769531 Z M 137.960938 58.769531 "/>
<path style="fill-rule:nonzero;fill:rgb(0%,0%,0%);fill-opacity:1;stroke-width:0.3985;stroke-linecap:butt;stroke-linejoin:miter;stroke:rgb(0%,0%,0%);stroke-opacity:1;stroke-miterlimit:10;" d="M 79.370125 69.204125 L 77.38575 69.204125 L 79.370125 64.985375 L 81.3545 69.204125 L 79.370125 69.204125 " transform="matrix(1.25,0,0,-1.25,14.16625,105.68875)"/>
<path style=" stroke:none;fill-rule:nonzero;fill:rgb(0%,0%,0%);fill-opacity:1;" d="M 121.316406 16.738281 C 121.316406 16.484375 121.140625 16.289062 120.867188 16.289062 C 120.515625 16.289062 120.183594 16.621094 120.183594 16.953125 C 120.183594 17.1875 120.359375 17.402344 120.652344 17.402344 C 120.945312 17.402344 121.316406 17.109375 121.316406 16.738281 Z M 120.378906 21.425781 C 120.515625 21.074219 120.515625 21.035156 120.652344 20.703125 C 120.75 20.449219 120.808594 20.273438 120.808594 20.039062 C 120.808594 19.492188 120.417969 19.023438 119.792969 19.023438 C 118.621094 19.023438 118.152344 20.839844 118.152344 20.9375 C 118.152344 21.074219 118.269531 21.074219 118.289062 21.074219 C 118.425781 21.074219 118.425781 21.035156 118.484375 20.839844 C 118.835938 19.667969 119.324219 19.296875 119.753906 19.296875 C 119.851562 19.296875 120.066406 19.296875 120.066406 19.6875 C 120.066406 19.960938 119.96875 20.214844 119.929688 20.351562 C 119.832031 20.664062 119.265625 22.109375 119.070312 22.65625 C 118.933594 22.96875 118.777344 23.378906 118.777344 23.652344 C 118.777344 24.238281 119.207031 24.667969 119.792969 24.667969 C 120.964844 24.667969 121.433594 22.871094 121.433594 22.753906 C 121.433594 22.617188 121.316406 22.617188 121.277344 22.617188 C 121.160156 22.617188 121.160156 22.65625 121.101562 22.851562 C 120.867188 23.632812 120.457031 24.394531 119.832031 24.394531 C 119.617188 24.394531 119.519531 24.277344 119.519531 23.984375 C 119.519531 23.671875 119.597656 23.496094 119.890625 22.734375 L 120.378906 21.425781 Z M 120.378906 21.425781 "/>
<path style=" stroke:none;fill-rule:nonzero;fill:rgb(0%,0%,0%);fill-opacity:1;" d="M 126.464844 24.816406 L 126.171875 24.816406 C 126.152344 25.011719 126.054688 25.519531 125.9375 25.597656 C 125.878906 25.65625 125.214844 25.65625 125.078125 25.65625 L 123.476562 25.65625 C 124.394531 24.855469 124.707031 24.601562 125.214844 24.191406 C 125.859375 23.683594 126.464844 23.136719 126.464844 22.316406 C 126.464844 21.261719 125.546875 20.617188 124.433594 20.617188 C 123.359375 20.617188 122.617188 21.378906 122.617188 22.179688 C 122.617188 22.609375 122.988281 22.667969 123.085938 22.667969 C 123.28125 22.667969 123.535156 22.511719 123.535156 22.199219 C 123.535156 22.042969 123.476562 21.730469 123.027344 21.730469 C 123.300781 21.125 123.886719 20.929688 124.296875 20.929688 C 125.175781 20.929688 125.625 21.613281 125.625 22.316406 C 125.625 23.078125 125.078125 23.664062 124.804688 23.976562 L 122.714844 26.066406 C 122.617188 26.144531 122.617188 26.164062 122.617188 26.398438 L 126.210938 26.398438 L 126.464844 24.816406 Z M 126.464844 24.816406 "/>
<path style="fill:none;stroke-width:0.797;stroke-linecap:butt;stroke-linejoin:miter;stroke:rgb(0%,0%,0%);stroke-opacity:1;stroke-miterlimit:10;" d="M 130.96075 39.685375 C 130.96075 46.2635 125.632625 51.591625 119.057625 51.591625 C 112.4795 51.591625 107.151375 46.2635 107.151375 39.685375 C 107.151375 33.110375 112.4795 27.78225 119.057625 27.78225 C 125.632625 27.78225 130.96075 33.110375 130.96075 39.685375 Z M 130.96075 39.685375 L 107.151375 39.685375 " transform="matrix(1.25,0,0,-1.25,14.16625,105.68875)"/>
<path style=" stroke:none;fill-rule:nonzero;fill:rgb(0%,0%,0%);fill-opacity:1;" d="M 192.820312 49.289062 C 192.839844 49.25 192.859375 49.191406 192.859375 49.152344 C 192.859375 49.132812 192.859375 48.996094 192.703125 48.996094 C 192.605469 48.996094 192.585938 49.035156 192.488281 49.25 C 191.863281 50.714844 191.394531 51.261719 189.753906 51.261719 L 187.957031 51.261719 C 187.859375 51.242188 187.820312 51.242188 187.820312 51.183594 C 187.820312 51.105469 187.839844 51.007812 187.878906 50.949219 L 188.5625 48.234375 L 189.617188 48.234375 C 190.359375 48.234375 190.496094 48.351562 190.496094 48.683594 C 190.496094 48.683594 190.496094 48.839844 190.4375 49.132812 C 190.417969 49.171875 190.398438 49.230469 190.398438 49.269531 C 190.398438 49.269531 190.417969 49.40625 190.554688 49.40625 C 190.671875 49.40625 190.691406 49.347656 190.730469 49.171875 L 191.257812 47.082031 C 191.257812 47.0625 191.296875 46.90625 191.296875 46.886719 C 191.296875 46.789062 191.21875 46.75 191.140625 46.75 C 191.023438 46.75 191.003906 46.808594 190.964844 46.984375 C 190.75 47.765625 190.496094 47.902344 189.636719 47.902344 L 188.640625 47.902344 L 189.226562 45.519531 C 189.324219 45.167969 189.324219 45.148438 189.734375 45.148438 L 191.296875 45.148438 C 192.488281 45.148438 192.878906 45.382812 192.878906 46.261719 C 192.878906 46.476562 192.820312 46.730469 192.820312 46.90625 C 192.820312 47.023438 192.898438 47.082031 192.976562 47.082031 C 193.113281 47.082031 193.113281 46.984375 193.132812 46.828125 L 193.308594 45.128906 C 193.328125 45.070312 193.328125 45.011719 193.328125 44.953125 C 193.328125 44.816406 193.210938 44.816406 193.035156 44.816406 L 187.78125 44.816406 C 187.585938 44.816406 187.46875 44.816406 187.46875 45.011719 C 187.46875 45.148438 187.605469 45.148438 187.761719 45.148438 C 187.800781 45.148438 187.976562 45.148438 188.152344 45.167969 C 188.367188 45.1875 188.386719 45.226562 188.386719 45.304688 C 188.386719 45.363281 188.367188 45.421875 188.347656 45.460938 L 187.019531 50.8125 C 186.921875 51.183594 186.902344 51.261719 186.160156 51.261719 C 185.984375 51.261719 185.847656 51.261719 185.847656 51.457031 C 185.847656 51.59375 185.984375 51.59375 186.160156 51.59375 L 191.550781 51.59375 C 191.785156 51.59375 191.804688 51.59375 191.882812 51.417969 L 192.820312 49.289062 Z M 192.820312 49.289062 "/>
<path style=" stroke:none;fill-rule:nonzero;fill:rgb(0%,0%,0%);fill-opacity:1;" d="M 195.324219 50.496094 C 195.949219 50.496094 196.378906 50.925781 196.378906 51.6875 C 196.378906 52.507812 195.890625 52.859375 195.34375 52.859375 C 195.128906 52.859375 194.367188 52.820312 194.035156 52.390625 C 194.328125 52.351562 194.445312 52.15625 194.445312 51.960938 C 194.445312 51.707031 194.269531 51.53125 194.015625 51.53125 C 193.820312 51.53125 193.585938 51.667969 193.585938 51.980469 C 193.585938 52.722656 194.40625 53.132812 195.363281 53.132812 C 196.476562 53.132812 197.199219 52.429688 197.199219 51.6875 C 197.199219 51.140625 196.789062 50.554688 195.890625 50.339844 C 196.496094 50.144531 196.964844 49.65625 196.964844 49.050781 C 196.964844 48.445312 196.261719 47.996094 195.363281 47.996094 C 194.484375 47.996094 193.820312 48.40625 193.820312 49.011719 C 193.820312 49.34375 194.074219 49.421875 194.230469 49.421875 C 194.425781 49.421875 194.621094 49.304688 194.621094 49.03125 C 194.621094 48.796875 194.464844 48.660156 194.25 48.640625 C 194.601562 48.25 195.285156 48.25 195.363281 48.25 C 195.734375 48.25 196.222656 48.425781 196.222656 49.050781 C 196.222656 49.460938 195.988281 50.183594 195.226562 50.222656 C 195.089844 50.222656 194.894531 50.242188 194.835938 50.242188 C 194.757812 50.261719 194.679688 50.261719 194.679688 50.378906 C 194.679688 50.496094 194.757812 50.496094 194.875 50.496094 L 195.324219 50.496094 Z M 195.324219 50.496094 "/>
<path style="fill:none;stroke-width:0.359;stroke-linecap:butt;stroke-linejoin:miter;stroke:rgb(0%,0%,0%);stroke-opacity:1;stroke-miterlimit:10;" d="M -0.001 0.00175 L 10.53025 0.00175 " transform="matrix(1.25,0,0,-1.25,185.25125,56.04125)"/>
<path style=" stroke:none;fill-rule:nonzero;fill:rgb(0%,0%,0%);fill-opacity:1;" d="M 189.117188 59.882812 C 189.195312 59.550781 189.214844 59.53125 189.625 59.53125 L 190.425781 59.53125 C 191.246094 59.53125 192.007812 59.726562 192.007812 60.546875 C 192.007812 60.976562 191.792969 61.679688 191.324219 61.992188 C 190.855469 62.34375 190.289062 62.441406 189.703125 62.441406 L 188.472656 62.441406 L 189.117188 59.882812 Z M 190.816406 62.617188 C 192.027344 62.304688 192.984375 61.5625 192.984375 60.703125 C 192.984375 59.84375 192.007812 59.199219 190.621094 59.199219 L 187.691406 59.199219 C 187.515625 59.199219 187.378906 59.199219 187.378906 59.375 C 187.378906 59.53125 187.515625 59.53125 187.671875 59.53125 C 188.003906 59.53125 188.296875 59.53125 188.296875 59.6875 C 188.296875 59.726562 188.277344 59.726562 188.257812 59.863281 L 186.910156 65.214844 C 186.832031 65.585938 186.8125 65.664062 186.070312 65.664062 C 185.875 65.664062 185.757812 65.664062 185.757812 65.859375 C 185.757812 65.898438 185.796875 65.996094 185.914062 65.996094 C 186.109375 65.996094 186.34375 65.976562 186.539062 65.957031 L 187.144531 65.957031 C 188.082031 65.957031 188.375 65.996094 188.433594 65.996094 C 188.492188 65.996094 188.628906 65.996094 188.628906 65.800781 C 188.628906 65.664062 188.492188 65.664062 188.335938 65.664062 C 188.296875 65.664062 188.121094 65.664062 187.945312 65.644531 C 187.730469 65.625 187.710938 65.605469 187.710938 65.507812 C 187.710938 65.449219 187.730469 65.390625 187.75 65.351562 L 188.394531 62.734375 L 189.683594 62.734375 C 190.582031 62.734375 190.875 63.203125 190.875 63.613281 C 190.875 63.75 190.796875 64.042969 190.757812 64.238281 C 190.660156 64.53125 190.5625 64.921875 190.5625 65.117188 C 190.5625 65.878906 191.226562 66.210938 191.96875 66.210938 C 192.828125 66.210938 193.238281 65.234375 193.238281 65.039062 C 193.238281 65 193.199219 64.902344 193.082031 64.902344 C 192.964844 64.902344 192.945312 64.980469 192.925781 65.039062 C 192.710938 65.722656 192.28125 65.917969 191.988281 65.917969 C 191.617188 65.917969 191.578125 65.644531 191.578125 65.3125 C 191.578125 64.980469 191.636719 64.550781 191.675781 64.21875 C 191.714844 63.925781 191.714844 63.867188 191.714844 63.769531 C 191.714844 63.164062 191.34375 62.8125 190.816406 62.617188 Z M 190.816406 62.617188 "/>
<path style=" stroke:none;fill-rule:nonzero;fill:rgb(0%,0%,0%);fill-opacity:1;" d="M 195.429688 64.898438 C 196.054688 64.898438 196.484375 65.328125 196.484375 66.089844 C 196.484375 66.910156 195.996094 67.261719 195.449219 67.261719 C 195.234375 67.261719 194.472656 67.222656 194.140625 66.792969 C 194.433594 66.753906 194.550781 66.558594 194.550781 66.363281 C 194.550781 66.109375 194.375 65.933594 194.121094 65.933594 C 193.925781 65.933594 193.691406 66.070312 193.691406 66.382812 C 193.691406 67.125 194.511719 67.535156 195.46875 67.535156 C 196.582031 67.535156 197.304688 66.832031 197.304688 66.089844 C 197.304688 65.542969 196.894531 64.957031 195.996094 64.742188 C 196.601562 64.546875 197.070312 64.058594 197.070312 63.453125 C 197.070312 62.847656 196.367188 62.398438 195.46875 62.398438 C 194.589844 62.398438 193.925781 62.808594 193.925781 63.414062 C 193.925781 63.746094 194.179688 63.824219 194.335938 63.824219 C 194.53125 63.824219 194.726562 63.707031 194.726562 63.433594 C 194.726562 63.199219 194.570312 63.0625 194.355469 63.042969 C 194.707031 62.652344 195.390625 62.652344 195.46875 62.652344 C 195.839844 62.652344 196.328125 62.828125 196.328125 63.453125 C 196.328125 63.863281 196.09375 64.585938 195.332031 64.625 C 195.195312 64.625 195 64.644531 194.941406 64.644531 C 194.863281 64.664062 194.785156 64.664062 194.785156 64.78125 C 194.785156 64.898438 194.863281 64.898438 194.980469 64.898438 L 195.429688 64.898438 Z M 195.429688 64.898438 "/>
<path style="fill:none;stroke-width:0.797;stroke-linecap:butt;stroke-linejoin:miter;stroke:rgb(0%,0%,0%);stroke-opacity:1;stroke-miterlimit:10;" d="M 164.695125 55.560375 L 164.695125 23.8135 L 152.788875 23.8135 L 152.788875 55.560375 L 164.695125 55.560375 Z M 164.695125 55.560375 " transform="matrix(1.25,0,0,-1.25,14.16625,105.68875)"/>
<path style=" stroke:none;fill-rule:nonzero;fill:rgb(0%,0%,0%);fill-opacity:1;" d="M 229.046875 52.679688 C 229.125 52.347656 229.144531 52.328125 229.554688 52.328125 L 230.355469 52.328125 C 231.175781 52.328125 231.9375 52.523438 231.9375 53.34375 C 231.9375 53.773438 231.722656 54.476562 231.253906 54.789062 C 230.785156 55.140625 230.21875 55.238281 229.632812 55.238281 L 228.402344 55.238281 L 229.046875 52.679688 Z M 230.746094 55.414062 C 231.957031 55.101562 232.914062 54.359375 232.914062 53.5 C 232.914062 52.640625 231.9375 51.996094 230.550781 51.996094 L 227.621094 51.996094 C 227.445312 51.996094 227.308594 51.996094 227.308594 52.171875 C 227.308594 52.328125 227.445312 52.328125 227.601562 52.328125 C 227.933594 52.328125 228.226562 52.328125 228.226562 52.484375 C 228.226562 52.523438 228.207031 52.523438 228.1875 52.660156 L 226.839844 58.011719 C 226.761719 58.382812 226.742188 58.460938 226 58.460938 C 225.804688 58.460938 225.6875 58.460938 225.6875 58.65625 C 225.6875 58.695312 225.726562 58.792969 225.84375 58.792969 C 226.039062 58.792969 226.273438 58.773438 226.46875 58.753906 L 227.074219 58.753906 C 228.011719 58.753906 228.304688 58.792969 228.363281 58.792969 C 228.421875 58.792969 228.558594 58.792969 228.558594 58.597656 C 228.558594 58.460938 228.421875 58.460938 228.265625 58.460938 C 228.226562 58.460938 228.050781 58.460938 227.875 58.441406 C 227.660156 58.421875 227.640625 58.402344 227.640625 58.304688 C 227.640625 58.246094 227.660156 58.1875 227.679688 58.148438 L 228.324219 55.53125 L 229.613281 55.53125 C 230.511719 55.53125 230.804688 56 230.804688 56.410156 C 230.804688 56.546875 230.726562 56.839844 230.6875 57.035156 C 230.589844 57.328125 230.492188 57.71875 230.492188 57.914062 C 230.492188 58.675781 231.15625 59.007812 231.898438 59.007812 C 232.757812 59.007812 233.167969 58.03125 233.167969 57.835938 C 233.167969 57.796875 233.128906 57.699219 233.011719 57.699219 C 232.894531 57.699219 232.875 57.777344 232.855469 57.835938 C 232.640625 58.519531 232.210938 58.714844 231.917969 58.714844 C 231.546875 58.714844 231.507812 58.441406 231.507812 58.109375 C 231.507812 57.777344 231.566406 57.347656 231.605469 57.015625 C 231.644531 56.722656 231.644531 56.664062 231.644531 56.566406 C 231.644531 55.960938 231.273438 55.609375 230.746094 55.414062 Z M 230.746094 55.414062 "/>
<path style=" stroke:none;fill-rule:nonzero;fill:rgb(0%,0%,0%);fill-opacity:1;" d="M 235.359375 57.695312 C 235.984375 57.695312 236.414062 58.125 236.414062 58.886719 C 236.414062 59.707031 235.925781 60.058594 235.378906 60.058594 C 235.164062 60.058594 234.402344 60.019531 234.070312 59.589844 C 234.363281 59.550781 234.480469 59.355469 234.480469 59.160156 C 234.480469 58.90625 234.304688 58.730469 234.050781 58.730469 C 233.855469 58.730469 233.621094 58.867188 233.621094 59.179688 C 233.621094 59.921875 234.441406 60.332031 235.398438 60.332031 C 236.511719 60.332031 237.234375 59.628906 237.234375 58.886719 C 237.234375 58.339844 236.824219 57.753906 235.925781 57.539062 C 236.53125 57.34375 237 56.855469 237 56.25 C 237 55.644531 236.296875 55.195312 235.398438 55.195312 C 234.519531 55.195312 233.855469 55.605469 233.855469 56.210938 C 233.855469 56.542969 234.109375 56.621094 234.265625 56.621094 C 234.460938 56.621094 234.65625 56.503906 234.65625 56.230469 C 234.65625 55.996094 234.5 55.859375 234.285156 55.839844 C 234.636719 55.449219 235.320312 55.449219 235.398438 55.449219 C 235.769531 55.449219 236.257812 55.625 236.257812 56.25 C 236.257812 56.660156 236.023438 57.382812 235.261719 57.421875 C 235.125 57.421875 234.929688 57.441406 234.871094 57.441406 C 234.792969 57.460938 234.714844 57.460938 234.714844 57.578125 C 234.714844 57.695312 234.792969 57.695312 234.910156 57.695312 L 235.359375 57.695312 Z M 235.359375 57.695312 "/>
<path style="fill:none;stroke-width:0.3985;stroke-linecap:butt;stroke-linejoin:miter;stroke:rgb(0%,0%,0%);stroke-opacity:1;stroke-miterlimit:10;" d="M -0.00175 0.001 L 39.68575 0.001 " transform="matrix(1.25,0,0,-1.25,14.16625,105.68875)"/>
<path style="fill:none;stroke-width:0.3985;stroke-linecap:butt;stroke-linejoin:miter;stroke:rgb(0%,0%,0%);stroke-opacity:1;stroke-miterlimit:10;" d="M 39.68575 79.372875 L 79.370125 79.372875 " transform="matrix(1.25,0,0,-1.25,14.16625,105.68875)"/>
<path style="fill:none;stroke-width:0.3985;stroke-linecap:butt;stroke-linejoin:miter;stroke:rgb(0%,0%,0%);stroke-opacity:1;stroke-miterlimit:10;" d="M 79.370125 0.001 L 119.057625 0.001 " transform="matrix(1.25,0,0,-1.25,14.16625,105.68875)"/>
<path style="fill:none;stroke-width:0.3985;stroke-linecap:butt;stroke-linejoin:miter;stroke:rgb(0%,0%,0%);stroke-opacity:1;stroke-miterlimit:10;" d="M 119.057625 79.372875 L 158.742 79.372875 " transform="matrix(1.25,0,0,-1.25,14.16625,105.68875)"/>
</g>
</svg>
