<?xml version="1.0" encoding="UTF-8"?>
<!-- Converted by misc2svg (http://www.network-science.de/tools/misc2svg/) -->
<svg xmlns="http://www.w3.org/2000/svg" xmlns:xlink="http://www.w3.org/1999/xlink" width="208pt" height="155pt" viewBox="0 0 208 155" version="1.1">
<g id="misc2svg">
<path style="fill:none;stroke-width:0.3985;stroke-linecap:butt;stroke-linejoin:miter;stroke:rgb(0%,0%,0%);stroke-opacity:1;stroke-miterlimit:10;" d="M 0.001625 0.000375 L 0.001625 16.441 M 0.001625 40.2535 L 0.001625 56.694125 M -15.714 19.27225 L -15.714 37.42225 M 0.001625 40.2535 L 0.001625 56.694125 M 0.001625 56.694125 L 0.001625 69.169125 M 0.001625 100.912875 L 0.001625 113.387875 M 0.001625 113.387875 L 56.69225 113.387875 M 56.69225 113.387875 L 56.69225 79.656625 M 56.69225 47.906625 L 56.69225 14.17225 M 56.69225 47.906625 L 56.69225 14.17225 M 56.69225 14.17225 L 56.69225 0.000375 L 113.389125 0.000375 M 113.389125 0.000375 L 113.389125 16.441 M 113.389125 40.2535 L 113.389125 56.694125 M 97.6735 19.27225 L 97.6735 37.42225 M 113.389125 40.2535 L 113.389125 56.694125 M 113.389125 56.694125 L 113.389125 69.169125 M 113.389125 100.912875 L 113.389125 113.387875 M 113.389125 113.387875 L 56.69225 113.387875 M 0.001625 0.000375 L 56.69225 0.000375 " transform="matrix(1.25,0,0,-1.25,44.17375,148.2075)"/>
<path style="fill:none;stroke-width:0.797;stroke-linecap:butt;stroke-linejoin:miter;stroke:rgb(0%,0%,0%);stroke-opacity:1;stroke-miterlimit:10;" d="M -11.904625 28.34725 C -11.904625 21.77225 -6.5765 16.441 0.001625 16.441 C 6.576625 16.441 11.907875 21.77225 11.907875 28.34725 C 11.907875 34.92225 6.576625 40.2535 0.001625 40.2535 C -6.5765 40.2535 -11.904625 34.92225 -11.904625 28.34725 Z M 0.001625 16.441 L 0.001625 40.2535 " transform="matrix(1.25,0,0,-1.25,44.17375,148.2075)"/>
<path style="fill-rule:nonzero;fill:rgb(0%,0%,0%);fill-opacity:1;stroke-width:0.3985;stroke-linecap:butt;stroke-linejoin:miter;stroke:rgb(0%,0%,0%);stroke-opacity:1;stroke-miterlimit:10;" d="M -15.714 35.68475 L -13.729625 35.68475 L -15.714 39.9035 L -17.698375 35.68475 L -15.714 35.68475 " transform="matrix(1.25,0,0,-1.25,44.17375,148.2075)"/>
<path style=" stroke:none;fill-rule:nonzero;fill:rgb(0%,0%,0%);fill-opacity:1;" d="M 15.054688 113.1875 C 15.074219 113.128906 15.113281 113.050781 15.113281 113.011719 C 15.113281 113.011719 15.113281 112.875 14.957031 112.875 C 14.839844 112.875 14.820312 112.953125 14.800781 113.03125 C 13.980469 114.867188 13.53125 115.707031 11.402344 115.707031 L 9.585938 115.707031 C 9.410156 115.707031 9.371094 115.707031 9.3125 115.707031 C 9.175781 115.6875 9.136719 115.667969 9.136719 115.570312 C 9.136719 115.53125 9.136719 115.511719 9.195312 115.296875 L 10.054688 111.878906 L 11.285156 111.878906 C 12.339844 111.878906 12.339844 112.152344 12.339844 112.464844 C 12.339844 112.542969 12.339844 112.699219 12.261719 113.070312 C 12.242188 113.128906 12.222656 113.167969 12.222656 113.207031 C 12.222656 113.265625 12.261719 113.34375 12.378906 113.34375 C 12.476562 113.34375 12.515625 113.285156 12.574219 113.089844 L 13.277344 110.179688 C 13.277344 110.101562 13.21875 110.042969 13.121094 110.042969 C 13.023438 110.042969 12.984375 110.121094 12.964844 110.257812 C 12.691406 111.214844 12.476562 111.507812 11.324219 111.507812 L 10.152344 111.507812 L 10.894531 108.5 C 11.011719 108.050781 11.03125 108.011719 11.578125 108.011719 L 13.335938 108.011719 C 14.839844 108.011719 15.230469 108.363281 15.230469 109.398438 C 15.230469 109.691406 15.230469 109.710938 15.171875 110.0625 C 15.171875 110.121094 15.152344 110.21875 15.152344 110.277344 C 15.152344 110.335938 15.191406 110.433594 15.308594 110.433594 C 15.445312 110.433594 15.464844 110.355469 15.484375 110.121094 L 15.738281 107.953125 C 15.777344 107.621094 15.71875 107.621094 15.40625 107.621094 L 9.097656 107.621094 C 8.863281 107.621094 8.726562 107.621094 8.726562 107.875 C 8.726562 108.011719 8.84375 108.011719 9.078125 108.011719 C 9.546875 108.011719 9.898438 108.011719 9.898438 108.226562 C 9.898438 108.285156 9.898438 108.304688 9.820312 108.539062 L 8.179688 115.121094 C 8.0625 115.609375 8.042969 115.707031 7.046875 115.707031 C 6.832031 115.707031 6.695312 115.707031 6.695312 115.941406 C 6.695312 116.097656 6.8125 116.097656 7.046875 116.097656 L 13.511719 116.097656 C 13.804688 116.097656 13.824219 116.078125 13.902344 115.882812 L 15.054688 113.1875 Z M 15.054688 113.1875 "/>
<path style=" stroke:none;fill-rule:nonzero;fill:rgb(0%,0%,0%);fill-opacity:1;" d="M 18.332031 112.417969 C 18.332031 112.183594 18.332031 112.183594 18.078125 112.183594 C 17.511719 112.730469 16.730469 112.730469 16.378906 112.730469 L 16.378906 113.042969 C 16.574219 113.042969 17.160156 113.042969 17.628906 112.808594 L 17.628906 117.242188 C 17.628906 117.535156 17.628906 117.652344 16.769531 117.652344 L 16.4375 117.652344 L 16.4375 117.964844 C 16.59375 117.964844 17.667969 117.925781 17.980469 117.925781 C 18.253906 117.925781 19.347656 117.964844 19.542969 117.964844 L 19.542969 117.652344 L 19.210938 117.652344 C 18.332031 117.652344 18.332031 117.535156 18.332031 117.242188 L 18.332031 112.417969 Z M 18.332031 112.417969 "/>
<path style="fill-rule:nonzero;fill:rgb(0%,0%,0%);fill-opacity:1;stroke-width:0.3985;stroke-linecap:butt;stroke-linejoin:miter;stroke:rgb(0%,0%,0%);stroke-opacity:1;stroke-miterlimit:10;" d="M 0.001625 46.737875 L 1.986 46.737875 L 0.001625 50.9535 L -1.98275 46.737875 L 0.001625 46.737875 " transform="matrix(1.25,0,0,-1.25,44.17375,148.2075)"/>
<path style=" stroke:none;fill-rule:nonzero;fill:rgb(0%,0%,0%);fill-opacity:1;" d="M 33.429688 82.996094 C 33.429688 82.742188 33.253906 82.546875 32.980469 82.546875 C 32.628906 82.546875 32.296875 82.878906 32.296875 83.210938 C 32.296875 83.445312 32.472656 83.660156 32.765625 83.660156 C 33.058594 83.660156 33.429688 83.367188 33.429688 82.996094 Z M 32.492188 87.683594 C 32.628906 87.332031 32.628906 87.292969 32.765625 86.960938 C 32.863281 86.707031 32.921875 86.53125 32.921875 86.296875 C 32.921875 85.75 32.53125 85.28125 31.90625 85.28125 C 30.734375 85.28125 30.265625 87.097656 30.265625 87.195312 C 30.265625 87.332031 30.382812 87.332031 30.402344 87.332031 C 30.539062 87.332031 30.539062 87.292969 30.597656 87.097656 C 30.949219 85.925781 31.4375 85.554688 31.867188 85.554688 C 31.964844 85.554688 32.179688 85.554688 32.179688 85.945312 C 32.179688 86.21875 32.082031 86.472656 32.042969 86.609375 C 31.945312 86.921875 31.378906 88.367188 31.183594 88.914062 C 31.046875 89.226562 30.890625 89.636719 30.890625 89.910156 C 30.890625 90.496094 31.320312 90.925781 31.90625 90.925781 C 33.078125 90.925781 33.546875 89.128906 33.546875 89.011719 C 33.546875 88.875 33.429688 88.875 33.390625 88.875 C 33.273438 88.875 33.273438 88.914062 33.214844 89.109375 C 32.980469 89.890625 32.570312 90.652344 31.945312 90.652344 C 31.730469 90.652344 31.632812 90.535156 31.632812 90.242188 C 31.632812 89.929688 31.710938 89.753906 32.003906 88.992188 L 32.492188 87.683594 Z M 32.492188 87.683594 "/>
<path style=" stroke:none;fill-rule:nonzero;fill:rgb(0%,0%,0%);fill-opacity:1;" d="M 37.097656 87.109375 C 37.097656 86.875 37.097656 86.875 36.84375 86.875 C 36.277344 87.421875 35.496094 87.421875 35.144531 87.421875 L 35.144531 87.734375 C 35.339844 87.734375 35.925781 87.734375 36.394531 87.5 L 36.394531 91.933594 C 36.394531 92.226562 36.394531 92.34375 35.535156 92.34375 L 35.203125 92.34375 L 35.203125 92.65625 C 35.359375 92.65625 36.433594 92.617188 36.746094 92.617188 C 37.019531 92.617188 38.113281 92.65625 38.308594 92.65625 L 38.308594 92.34375 L 37.976562 92.34375 C 37.097656 92.34375 37.097656 92.226562 37.097656 91.933594 L 37.097656 87.109375 Z M 37.097656 87.109375 "/>
<path style="fill:none;stroke-width:0.797;stroke-linecap:butt;stroke-linejoin:miter;stroke:rgb(0%,0%,0%);stroke-opacity:1;stroke-miterlimit:10;" d="M 5.95475 100.912875 L 5.95475 69.169125 L -5.9515 69.169125 L -5.9515 100.912875 L 5.95475 100.912875 Z M 5.95475 100.912875 " transform="matrix(1.25,0,0,-1.25,44.17375,148.2075)"/>
<path style=" stroke:none;fill-rule:nonzero;fill:rgb(0%,0%,0%);fill-opacity:1;" d="M 21.214844 37.574219 C 21.292969 37.28125 21.332031 37.164062 21.566406 37.125 C 21.683594 37.105469 22.074219 37.105469 22.328125 37.105469 C 23.207031 37.105469 24.59375 37.105469 24.59375 38.335938 C 24.59375 38.765625 24.398438 39.625 23.910156 40.113281 C 23.578125 40.425781 22.933594 40.835938 21.800781 40.835938 L 20.414062 40.835938 L 21.214844 37.574219 Z M 23.011719 40.992188 C 24.28125 40.71875 25.746094 39.839844 25.746094 38.589844 C 25.746094 37.515625 24.632812 36.714844 22.992188 36.714844 L 19.457031 36.714844 C 19.203125 36.714844 19.085938 36.714844 19.085938 36.96875 C 19.085938 37.105469 19.203125 37.105469 19.4375 37.105469 C 19.457031 37.105469 19.691406 37.105469 19.90625 37.125 C 20.140625 37.164062 20.238281 37.164062 20.238281 37.339844 C 20.238281 37.378906 20.238281 37.417969 20.199219 37.574219 L 18.519531 44.253906 C 18.402344 44.742188 18.382812 44.839844 17.386719 44.839844 C 17.171875 44.839844 17.054688 44.839844 17.054688 45.09375 C 17.054688 45.230469 17.210938 45.230469 17.230469 45.230469 C 17.582031 45.230469 18.460938 45.191406 18.792969 45.191406 C 19.144531 45.191406 20.042969 45.230469 20.394531 45.230469 C 20.492188 45.230469 20.628906 45.230469 20.628906 44.976562 C 20.628906 44.839844 20.53125 44.839844 20.277344 44.839844 C 19.828125 44.839844 19.476562 44.839844 19.476562 44.625 C 19.476562 44.546875 19.496094 44.488281 19.515625 44.410156 L 20.335938 41.109375 L 21.820312 41.109375 C 22.953125 41.109375 23.167969 41.8125 23.167969 42.242188 C 23.167969 42.417969 23.070312 42.808594 22.992188 43.101562 C 22.914062 43.453125 22.796875 43.902344 22.796875 44.15625 C 22.796875 45.503906 24.300781 45.503906 24.457031 45.503906 C 25.511719 45.503906 25.960938 44.253906 25.960938 44.078125 C 25.960938 43.921875 25.824219 43.921875 25.804688 43.921875 C 25.6875 43.921875 25.667969 44 25.648438 44.097656 C 25.335938 45.015625 24.789062 45.230469 24.515625 45.230469 C 24.105469 45.230469 24.007812 44.957031 24.007812 44.46875 C 24.007812 44.078125 24.085938 43.453125 24.144531 43.042969 C 24.164062 42.867188 24.183594 42.632812 24.183594 42.457031 C 24.183594 41.5 23.34375 41.109375 23.011719 40.992188 Z M 23.011719 40.992188 "/>
<path style=" stroke:none;fill-rule:nonzero;fill:rgb(0%,0%,0%);fill-opacity:1;" d="M 28.914062 41.550781 C 28.914062 41.316406 28.914062 41.316406 28.660156 41.316406 C 28.09375 41.863281 27.3125 41.863281 26.960938 41.863281 L 26.960938 42.175781 C 27.15625 42.175781 27.742188 42.175781 28.210938 41.941406 L 28.210938 46.375 C 28.210938 46.667969 28.210938 46.785156 27.351562 46.785156 L 27.019531 46.785156 L 27.019531 47.097656 C 27.175781 47.097656 28.25 47.058594 28.5625 47.058594 C 28.835938 47.058594 29.929688 47.097656 30.125 47.097656 L 30.125 46.785156 L 29.792969 46.785156 C 28.914062 46.785156 28.914062 46.667969 28.914062 46.375 L 28.914062 41.550781 Z M 28.914062 41.550781 "/>
<path style="fill:none;stroke-width:0.797;stroke-linecap:butt;stroke-linejoin:miter;stroke:rgb(0%,0%,0%);stroke-opacity:1;stroke-miterlimit:10;" d="M 50.739125 47.906625 L 50.739125 79.656625 L 62.645375 79.656625 L 62.645375 47.906625 L 50.739125 47.906625 Z M 50.739125 47.906625 " transform="matrix(1.25,0,0,-1.25,44.17375,148.2075)"/>
<path style=" stroke:none;fill-rule:nonzero;fill:rgb(0%,0%,0%);fill-opacity:1;" d="M 132.292969 64.148438 C 132.371094 63.855469 132.410156 63.738281 132.644531 63.699219 C 132.761719 63.679688 133.152344 63.679688 133.40625 63.679688 C 134.285156 63.679688 135.671875 63.679688 135.671875 64.910156 C 135.671875 65.339844 135.476562 66.199219 134.988281 66.6875 C 134.65625 67 134.011719 67.410156 132.878906 67.410156 L 131.492188 67.410156 L 132.292969 64.148438 Z M 134.089844 67.566406 C 135.359375 67.292969 136.824219 66.414062 136.824219 65.164062 C 136.824219 64.089844 135.710938 63.289062 134.070312 63.289062 L 130.535156 63.289062 C 130.28125 63.289062 130.164062 63.289062 130.164062 63.542969 C 130.164062 63.679688 130.28125 63.679688 130.515625 63.679688 C 130.535156 63.679688 130.769531 63.679688 130.984375 63.699219 C 131.21875 63.738281 131.316406 63.738281 131.316406 63.914062 C 131.316406 63.953125 131.316406 63.992188 131.277344 64.148438 L 129.597656 70.828125 C 129.480469 71.316406 129.460938 71.414062 128.464844 71.414062 C 128.25 71.414062 128.132812 71.414062 128.132812 71.667969 C 128.132812 71.804688 128.289062 71.804688 128.308594 71.804688 C 128.660156 71.804688 129.539062 71.765625 129.871094 71.765625 C 130.222656 71.765625 131.121094 71.804688 131.472656 71.804688 C 131.570312 71.804688 131.707031 71.804688 131.707031 71.550781 C 131.707031 71.414062 131.609375 71.414062 131.355469 71.414062 C 130.90625 71.414062 130.554688 71.414062 130.554688 71.199219 C 130.554688 71.121094 130.574219 71.0625 130.59375 70.984375 L 131.414062 67.683594 L 132.898438 67.683594 C 134.03125 67.683594 134.246094 68.386719 134.246094 68.816406 C 134.246094 68.992188 134.148438 69.382812 134.070312 69.675781 C 133.992188 70.027344 133.875 70.476562 133.875 70.730469 C 133.875 72.078125 135.378906 72.078125 135.535156 72.078125 C 136.589844 72.078125 137.039062 70.828125 137.039062 70.652344 C 137.039062 70.496094 136.902344 70.496094 136.882812 70.496094 C 136.765625 70.496094 136.746094 70.574219 136.726562 70.671875 C 136.414062 71.589844 135.867188 71.804688 135.59375 71.804688 C 135.183594 71.804688 135.085938 71.53125 135.085938 71.042969 C 135.085938 70.652344 135.164062 70.027344 135.222656 69.617188 C 135.242188 69.441406 135.261719 69.207031 135.261719 69.03125 C 135.261719 68.074219 134.421875 67.683594 134.089844 67.566406 Z M 134.089844 67.566406 "/>
<path style=" stroke:none;fill-rule:nonzero;fill:rgb(0%,0%,0%);fill-opacity:1;" d="M 141.472656 72.089844 L 141.179688 72.089844 C 141.160156 72.285156 141.0625 72.792969 140.945312 72.871094 C 140.886719 72.929688 140.222656 72.929688 140.085938 72.929688 L 138.484375 72.929688 C 139.402344 72.128906 139.714844 71.875 140.222656 71.464844 C 140.867188 70.957031 141.472656 70.410156 141.472656 69.589844 C 141.472656 68.535156 140.554688 67.890625 139.441406 67.890625 C 138.367188 67.890625 137.625 68.652344 137.625 69.453125 C 137.625 69.882812 137.996094 69.941406 138.09375 69.941406 C 138.289062 69.941406 138.542969 69.785156 138.542969 69.472656 C 138.542969 69.316406 138.484375 69.003906 138.035156 69.003906 C 138.308594 68.398438 138.894531 68.203125 139.304688 68.203125 C 140.183594 68.203125 140.632812 68.886719 140.632812 69.589844 C 140.632812 70.351562 140.085938 70.9375 139.8125 71.25 L 137.722656 73.339844 C 137.625 73.417969 137.625 73.4375 137.625 73.671875 L 141.21875 73.671875 L 141.472656 72.089844 Z M 141.472656 72.089844 "/>
<path style="fill-rule:nonzero;fill:rgb(0%,0%,0%);fill-opacity:1;stroke-width:0.3985;stroke-linecap:butt;stroke-linejoin:miter;stroke:rgb(0%,0%,0%);stroke-opacity:1;stroke-miterlimit:10;" d="M 56.69225 32.7785 L 54.707875 32.7785 L 56.69225 28.55975 L 58.676625 32.7785 L 56.69225 32.7785 " transform="matrix(1.25,0,0,-1.25,44.17375,148.2075)"/>
<path style=" stroke:none;fill-rule:nonzero;fill:rgb(0%,0%,0%);fill-opacity:1;" d="M 122.976562 104.789062 C 122.976562 104.535156 122.800781 104.339844 122.527344 104.339844 C 122.175781 104.339844 121.84375 104.671875 121.84375 105.003906 C 121.84375 105.238281 122.019531 105.453125 122.3125 105.453125 C 122.605469 105.453125 122.976562 105.160156 122.976562 104.789062 Z M 122.039062 109.476562 C 122.175781 109.125 122.175781 109.085938 122.3125 108.753906 C 122.410156 108.5 122.46875 108.324219 122.46875 108.089844 C 122.46875 107.542969 122.078125 107.074219 121.453125 107.074219 C 120.28125 107.074219 119.8125 108.890625 119.8125 108.988281 C 119.8125 109.125 119.929688 109.125 119.949219 109.125 C 120.085938 109.125 120.085938 109.085938 120.144531 108.890625 C 120.496094 107.71875 120.984375 107.347656 121.414062 107.347656 C 121.511719 107.347656 121.726562 107.347656 121.726562 107.738281 C 121.726562 108.011719 121.628906 108.265625 121.589844 108.402344 C 121.492188 108.714844 120.925781 110.160156 120.730469 110.707031 C 120.59375 111.019531 120.4375 111.429688 120.4375 111.703125 C 120.4375 112.289062 120.867188 112.71875 121.453125 112.71875 C 122.625 112.71875 123.09375 110.921875 123.09375 110.804688 C 123.09375 110.667969 122.976562 110.667969 122.9375 110.667969 C 122.820312 110.667969 122.820312 110.707031 122.761719 110.902344 C 122.527344 111.683594 122.117188 112.445312 121.492188 112.445312 C 121.277344 112.445312 121.179688 112.328125 121.179688 112.035156 C 121.179688 111.722656 121.257812 111.546875 121.550781 110.785156 L 122.039062 109.476562 Z M 122.039062 109.476562 "/>
<path style=" stroke:none;fill-rule:nonzero;fill:rgb(0%,0%,0%);fill-opacity:1;" d="M 128.125 112.867188 L 127.832031 112.867188 C 127.8125 113.0625 127.714844 113.570312 127.597656 113.648438 C 127.539062 113.707031 126.875 113.707031 126.738281 113.707031 L 125.136719 113.707031 C 126.054688 112.90625 126.367188 112.652344 126.875 112.242188 C 127.519531 111.734375 128.125 111.1875 128.125 110.367188 C 128.125 109.3125 127.207031 108.667969 126.09375 108.667969 C 125.019531 108.667969 124.277344 109.429688 124.277344 110.230469 C 124.277344 110.660156 124.648438 110.71875 124.746094 110.71875 C 124.941406 110.71875 125.195312 110.5625 125.195312 110.25 C 125.195312 110.09375 125.136719 109.78125 124.6875 109.78125 C 124.960938 109.175781 125.546875 108.980469 125.957031 108.980469 C 126.835938 108.980469 127.285156 109.664062 127.285156 110.367188 C 127.285156 111.128906 126.738281 111.714844 126.464844 112.027344 L 124.375 114.117188 C 124.277344 114.195312 124.277344 114.214844 124.277344 114.449219 L 127.871094 114.449219 L 128.125 112.867188 Z M 128.125 112.867188 "/>
<path style="fill:none;stroke-width:0.797;stroke-linecap:butt;stroke-linejoin:miter;stroke:rgb(0%,0%,0%);stroke-opacity:1;stroke-miterlimit:10;" d="M 101.482875 28.34725 C 101.482875 21.77225 106.814125 16.441 113.389125 16.441 C 119.961 16.441 125.295375 21.77225 125.295375 28.34725 C 125.295375 34.92225 119.961 40.2535 113.389125 40.2535 C 106.814125 40.2535 101.482875 34.92225 101.482875 28.34725 Z M 113.389125 16.441 L 113.389125 40.2535 " transform="matrix(1.25,0,0,-1.25,44.17375,148.2075)"/>
<path style="fill-rule:nonzero;fill:rgb(0%,0%,0%);fill-opacity:1;stroke-width:0.3985;stroke-linecap:butt;stroke-linejoin:miter;stroke:rgb(0%,0%,0%);stroke-opacity:1;stroke-miterlimit:10;" d="M 97.6735 35.68475 L 99.657875 35.68475 L 97.6735 39.9035 L 95.689125 35.68475 L 97.6735 35.68475 " transform="matrix(1.25,0,0,-1.25,44.17375,148.2075)"/>
<path style=" stroke:none;fill-rule:nonzero;fill:rgb(0%,0%,0%);fill-opacity:1;" d="M 156.785156 113.1875 C 156.804688 113.128906 156.84375 113.050781 156.84375 113.011719 C 156.84375 113.011719 156.84375 112.875 156.6875 112.875 C 156.570312 112.875 156.550781 112.953125 156.53125 113.03125 C 155.710938 114.867188 155.261719 115.707031 153.132812 115.707031 L 151.316406 115.707031 C 151.140625 115.707031 151.101562 115.707031 151.042969 115.707031 C 150.90625 115.6875 150.867188 115.667969 150.867188 115.570312 C 150.867188 115.53125 150.867188 115.511719 150.925781 115.296875 L 151.785156 111.878906 L 153.015625 111.878906 C 154.070312 111.878906 154.070312 112.152344 154.070312 112.464844 C 154.070312 112.542969 154.070312 112.699219 153.992188 113.070312 C 153.972656 113.128906 153.953125 113.167969 153.953125 113.207031 C 153.953125 113.265625 153.992188 113.34375 154.109375 113.34375 C 154.207031 113.34375 154.246094 113.285156 154.304688 113.089844 L 155.007812 110.179688 C 155.007812 110.101562 154.949219 110.042969 154.851562 110.042969 C 154.753906 110.042969 154.714844 110.121094 154.695312 110.257812 C 154.421875 111.214844 154.207031 111.507812 153.054688 111.507812 L 151.882812 111.507812 L 152.625 108.5 C 152.742188 108.050781 152.761719 108.011719 153.308594 108.011719 L 155.066406 108.011719 C 156.570312 108.011719 156.960938 108.363281 156.960938 109.398438 C 156.960938 109.691406 156.960938 109.710938 156.902344 110.0625 C 156.902344 110.121094 156.882812 110.21875 156.882812 110.277344 C 156.882812 110.335938 156.921875 110.433594 157.039062 110.433594 C 157.175781 110.433594 157.195312 110.355469 157.214844 110.121094 L 157.46875 107.953125 C 157.507812 107.621094 157.449219 107.621094 157.136719 107.621094 L 150.828125 107.621094 C 150.59375 107.621094 150.457031 107.621094 150.457031 107.875 C 150.457031 108.011719 150.574219 108.011719 150.808594 108.011719 C 151.277344 108.011719 151.628906 108.011719 151.628906 108.226562 C 151.628906 108.285156 151.628906 108.304688 151.550781 108.539062 L 149.910156 115.121094 C 149.792969 115.609375 149.773438 115.707031 148.777344 115.707031 C 148.5625 115.707031 148.425781 115.707031 148.425781 115.941406 C 148.425781 116.097656 148.542969 116.097656 148.777344 116.097656 L 155.242188 116.097656 C 155.535156 116.097656 155.554688 116.078125 155.632812 115.882812 L 156.785156 113.1875 Z M 156.785156 113.1875 "/>
<path style=" stroke:none;fill-rule:nonzero;fill:rgb(0%,0%,0%);fill-opacity:1;" d="M 159.535156 115.054688 C 160.21875 115.054688 160.707031 115.523438 160.707031 116.460938 C 160.707031 117.535156 160.0625 117.867188 159.574219 117.867188 C 159.222656 117.867188 158.441406 117.769531 158.089844 117.242188 C 158.5 117.242188 158.597656 116.949219 158.597656 116.753906 C 158.597656 116.480469 158.382812 116.285156 158.109375 116.285156 C 157.875 116.285156 157.621094 116.441406 157.621094 116.792969 C 157.621094 117.613281 158.519531 118.140625 159.574219 118.140625 C 160.785156 118.140625 161.625 117.320312 161.625 116.460938 C 161.625 115.777344 161.078125 115.09375 160.121094 114.898438 C 161.019531 114.566406 161.351562 113.921875 161.351562 113.375 C 161.351562 112.691406 160.570312 112.183594 159.59375 112.183594 C 158.636719 112.183594 157.894531 112.652344 157.894531 113.355469 C 157.894531 113.648438 158.089844 113.804688 158.34375 113.804688 C 158.617188 113.804688 158.792969 113.609375 158.792969 113.375 C 158.792969 113.121094 158.617188 112.925781 158.34375 112.90625 C 158.65625 112.535156 159.242188 112.4375 159.574219 112.4375 C 159.964844 112.4375 160.511719 112.632812 160.511719 113.375 C 160.511719 113.746094 160.394531 114.15625 160.160156 114.410156 C 159.886719 114.742188 159.632812 114.761719 159.203125 114.800781 C 158.988281 114.820312 158.96875 114.820312 158.929688 114.820312 C 158.910156 114.820312 158.832031 114.839844 158.832031 114.9375 C 158.832031 115.054688 158.910156 115.054688 159.066406 115.054688 L 159.535156 115.054688 Z M 159.535156 115.054688 "/>
<path style="fill-rule:nonzero;fill:rgb(0%,0%,0%);fill-opacity:1;stroke-width:0.3985;stroke-linecap:butt;stroke-linejoin:miter;stroke:rgb(0%,0%,0%);stroke-opacity:1;stroke-miterlimit:10;" d="M 113.389125 46.737875 L 115.3735 46.737875 L 113.389125 50.9535 L 111.40475 46.737875 L 113.389125 46.737875 " transform="matrix(1.25,0,0,-1.25,44.17375,148.2075)"/>
<path style=" stroke:none;fill-rule:nonzero;fill:rgb(0%,0%,0%);fill-opacity:1;" d="M 175.164062 82.996094 C 175.164062 82.742188 174.988281 82.546875 174.714844 82.546875 C 174.363281 82.546875 174.03125 82.878906 174.03125 83.210938 C 174.03125 83.445312 174.207031 83.660156 174.5 83.660156 C 174.792969 83.660156 175.164062 83.367188 175.164062 82.996094 Z M 174.226562 87.683594 C 174.363281 87.332031 174.363281 87.292969 174.5 86.960938 C 174.597656 86.707031 174.65625 86.53125 174.65625 86.296875 C 174.65625 85.75 174.265625 85.28125 173.640625 85.28125 C 172.46875 85.28125 172 87.097656 172 87.195312 C 172 87.332031 172.117188 87.332031 172.136719 87.332031 C 172.273438 87.332031 172.273438 87.292969 172.332031 87.097656 C 172.683594 85.925781 173.171875 85.554688 173.601562 85.554688 C 173.699219 85.554688 173.914062 85.554688 173.914062 85.945312 C 173.914062 86.21875 173.816406 86.472656 173.777344 86.609375 C 173.679688 86.921875 173.113281 88.367188 172.917969 88.914062 C 172.78125 89.226562 172.625 89.636719 172.625 89.910156 C 172.625 90.496094 173.054688 90.925781 173.640625 90.925781 C 174.8125 90.925781 175.28125 89.128906 175.28125 89.011719 C 175.28125 88.875 175.164062 88.875 175.125 88.875 C 175.007812 88.875 175.007812 88.914062 174.949219 89.109375 C 174.714844 89.890625 174.304688 90.652344 173.679688 90.652344 C 173.464844 90.652344 173.367188 90.535156 173.367188 90.242188 C 173.367188 89.929688 173.445312 89.753906 173.738281 88.992188 L 174.226562 87.683594 Z M 174.226562 87.683594 "/>
<path style=" stroke:none;fill-rule:nonzero;fill:rgb(0%,0%,0%);fill-opacity:1;" d="M 178.304688 89.746094 C 178.988281 89.746094 179.476562 90.214844 179.476562 91.152344 C 179.476562 92.226562 178.832031 92.558594 178.34375 92.558594 C 177.992188 92.558594 177.210938 92.460938 176.859375 91.933594 C 177.269531 91.933594 177.367188 91.640625 177.367188 91.445312 C 177.367188 91.171875 177.152344 90.976562 176.878906 90.976562 C 176.644531 90.976562 176.390625 91.132812 176.390625 91.484375 C 176.390625 92.304688 177.289062 92.832031 178.34375 92.832031 C 179.554688 92.832031 180.394531 92.011719 180.394531 91.152344 C 180.394531 90.46875 179.847656 89.785156 178.890625 89.589844 C 179.789062 89.257812 180.121094 88.613281 180.121094 88.066406 C 180.121094 87.382812 179.339844 86.875 178.363281 86.875 C 177.40625 86.875 176.664062 87.34375 176.664062 88.046875 C 176.664062 88.339844 176.859375 88.496094 177.113281 88.496094 C 177.386719 88.496094 177.5625 88.300781 177.5625 88.066406 C 177.5625 87.8125 177.386719 87.617188 177.113281 87.597656 C 177.425781 87.226562 178.011719 87.128906 178.34375 87.128906 C 178.734375 87.128906 179.28125 87.324219 179.28125 88.066406 C 179.28125 88.4375 179.164062 88.847656 178.929688 89.101562 C 178.65625 89.433594 178.402344 89.453125 177.972656 89.492188 C 177.757812 89.511719 177.738281 89.511719 177.699219 89.511719 C 177.679688 89.511719 177.601562 89.53125 177.601562 89.628906 C 177.601562 89.746094 177.679688 89.746094 177.835938 89.746094 L 178.304688 89.746094 Z M 178.304688 89.746094 "/>
<path style="fill:none;stroke-width:0.797;stroke-linecap:butt;stroke-linejoin:miter;stroke:rgb(0%,0%,0%);stroke-opacity:1;stroke-miterlimit:10;" d="M 119.34225 100.912875 L 119.34225 69.169125 L 107.436 69.169125 L 107.436 100.912875 L 119.34225 100.912875 Z M 119.34225 100.912875 " transform="matrix(1.25,0,0,-1.25,44.17375,148.2075)"/>
<path style=" stroke:none;fill-rule:nonzero;fill:rgb(0%,0%,0%);fill-opacity:1;" d="M 162.945312 37.574219 C 163.023438 37.28125 163.0625 37.164062 163.296875 37.125 C 163.414062 37.105469 163.804688 37.105469 164.058594 37.105469 C 164.9375 37.105469 166.324219 37.105469 166.324219 38.335938 C 166.324219 38.765625 166.128906 39.625 165.640625 40.113281 C 165.308594 40.425781 164.664062 40.835938 163.53125 40.835938 L 162.144531 40.835938 L 162.945312 37.574219 Z M 164.742188 40.992188 C 166.011719 40.71875 167.476562 39.839844 167.476562 38.589844 C 167.476562 37.515625 166.363281 36.714844 164.722656 36.714844 L 161.1875 36.714844 C 160.933594 36.714844 160.816406 36.714844 160.816406 36.96875 C 160.816406 37.105469 160.933594 37.105469 161.167969 37.105469 C 161.1875 37.105469 161.421875 37.105469 161.636719 37.125 C 161.871094 37.164062 161.96875 37.164062 161.96875 37.339844 C 161.96875 37.378906 161.96875 37.417969 161.929688 37.574219 L 160.25 44.253906 C 160.132812 44.742188 160.113281 44.839844 159.117188 44.839844 C 158.902344 44.839844 158.785156 44.839844 158.785156 45.09375 C 158.785156 45.230469 158.941406 45.230469 158.960938 45.230469 C 159.3125 45.230469 160.191406 45.191406 160.523438 45.191406 C 160.875 45.191406 161.773438 45.230469 162.125 45.230469 C 162.222656 45.230469 162.359375 45.230469 162.359375 44.976562 C 162.359375 44.839844 162.261719 44.839844 162.007812 44.839844 C 161.558594 44.839844 161.207031 44.839844 161.207031 44.625 C 161.207031 44.546875 161.226562 44.488281 161.246094 44.410156 L 162.066406 41.109375 L 163.550781 41.109375 C 164.683594 41.109375 164.898438 41.8125 164.898438 42.242188 C 164.898438 42.417969 164.800781 42.808594 164.722656 43.101562 C 164.644531 43.453125 164.527344 43.902344 164.527344 44.15625 C 164.527344 45.503906 166.03125 45.503906 166.1875 45.503906 C 167.242188 45.503906 167.691406 44.253906 167.691406 44.078125 C 167.691406 43.921875 167.554688 43.921875 167.535156 43.921875 C 167.417969 43.921875 167.398438 44 167.378906 44.097656 C 167.066406 45.015625 166.519531 45.230469 166.246094 45.230469 C 165.835938 45.230469 165.738281 44.957031 165.738281 44.46875 C 165.738281 44.078125 165.816406 43.453125 165.875 43.042969 C 165.894531 42.867188 165.914062 42.632812 165.914062 42.457031 C 165.914062 41.5 165.074219 41.109375 164.742188 40.992188 Z M 164.742188 40.992188 "/>
<path style=" stroke:none;fill-rule:nonzero;fill:rgb(0%,0%,0%);fill-opacity:1;" d="M 170.117188 44.1875 C 170.800781 44.1875 171.289062 44.65625 171.289062 45.59375 C 171.289062 46.667969 170.644531 47 170.15625 47 C 169.804688 47 169.023438 46.902344 168.671875 46.375 C 169.082031 46.375 169.179688 46.082031 169.179688 45.886719 C 169.179688 45.613281 168.964844 45.417969 168.691406 45.417969 C 168.457031 45.417969 168.203125 45.574219 168.203125 45.925781 C 168.203125 46.746094 169.101562 47.273438 170.15625 47.273438 C 171.367188 47.273438 172.207031 46.453125 172.207031 45.59375 C 172.207031 44.910156 171.660156 44.226562 170.703125 44.03125 C 171.601562 43.699219 171.933594 43.054688 171.933594 42.507812 C 171.933594 41.824219 171.152344 41.316406 170.175781 41.316406 C 169.21875 41.316406 168.476562 41.785156 168.476562 42.488281 C 168.476562 42.78125 168.671875 42.9375 168.925781 42.9375 C 169.199219 42.9375 169.375 42.742188 169.375 42.507812 C 169.375 42.253906 169.199219 42.058594 168.925781 42.039062 C 169.238281 41.667969 169.824219 41.570312 170.15625 41.570312 C 170.546875 41.570312 171.09375 41.765625 171.09375 42.507812 C 171.09375 42.878906 170.976562 43.289062 170.742188 43.542969 C 170.46875 43.875 170.214844 43.894531 169.785156 43.933594 C 169.570312 43.953125 169.550781 43.953125 169.511719 43.953125 C 169.492188 43.953125 169.414062 43.972656 169.414062 44.070312 C 169.414062 44.1875 169.492188 44.1875 169.648438 44.1875 L 170.117188 44.1875 Z M 170.117188 44.1875 "/>
</g>
</svg>
