<?xml version="1.0" encoding="UTF-8"?>
<!-- Converted by misc2svg (http://www.network-science.de/tools/misc2svg/) -->
<svg xmlns="http://www.w3.org/2000/svg" xmlns:xlink="http://www.w3.org/1999/xlink" width="293pt" height="144pt" viewBox="0 0 293 144" version="1.1">
<g id="misc2svg">
<path style="fill:none;stroke-width:0.3985;stroke-linecap:butt;stroke-linejoin:miter;stroke:rgb(0%,0%,0%);stroke-opacity:1;stroke-miterlimit:10;" d="M 0.001875 0.000375 L 0.001875 30.616 M 0.001875 54.4285 L 0.001875 85.041 M -15.716875 33.44725 L -15.716875 51.594125 M 0.001875 85.041 L 19.56125 85.041 M 51.305 85.041 L 70.864375 85.041 " transform="matrix(1.25,0,0,-1.25,74.9,137.77)"/>
<path style="fill:none;stroke-width:0.797;stroke-linecap:butt;stroke-linejoin:miter;stroke:rgb(0%,0%,0%);stroke-opacity:1;stroke-miterlimit:10;" d="M -11.904375 42.52225 C -11.904375 35.94725 -6.57625 30.616 0.001875 30.616 C 6.576875 30.616 11.905 35.94725 11.905 42.52225 C 11.905 49.094125 6.576875 54.4285 0.001875 54.4285 C -6.57625 54.4285 -11.904375 49.094125 -11.904375 42.52225 Z M 0.001875 30.616 L 0.001875 54.4285 " transform="matrix(1.25,0,0,-1.25,74.9,137.77)"/>
<path style="fill-rule:nonzero;fill:rgb(0%,0%,0%);fill-opacity:1;stroke-width:0.3985;stroke-linecap:butt;stroke-linejoin:miter;stroke:rgb(0%,0%,0%);stroke-opacity:1;stroke-miterlimit:10;" d="M -15.716875 49.856625 L -13.7325 49.856625 L -15.716875 54.075375 L -17.70125 49.856625 L -15.716875 49.856625 " transform="matrix(1.25,0,0,-1.25,74.9,137.77)"/>
<path style=" stroke:none;fill-rule:nonzero;fill:rgb(0%,0%,0%);fill-opacity:1;" d="M 15.054688 85.964844 C 15.074219 85.90625 15.113281 85.828125 15.113281 85.789062 C 15.113281 85.789062 15.113281 85.652344 14.957031 85.652344 C 14.839844 85.652344 14.820312 85.730469 14.800781 85.808594 C 13.980469 87.644531 13.53125 88.484375 11.402344 88.484375 L 9.585938 88.484375 C 9.410156 88.484375 9.371094 88.484375 9.3125 88.484375 C 9.175781 88.464844 9.136719 88.445312 9.136719 88.347656 C 9.136719 88.308594 9.136719 88.289062 9.195312 88.074219 L 10.054688 84.65625 L 11.285156 84.65625 C 12.339844 84.65625 12.339844 84.929688 12.339844 85.242188 C 12.339844 85.320312 12.339844 85.476562 12.261719 85.847656 C 12.242188 85.90625 12.222656 85.945312 12.222656 85.984375 C 12.222656 86.042969 12.261719 86.121094 12.378906 86.121094 C 12.476562 86.121094 12.515625 86.0625 12.574219 85.867188 L 13.277344 82.957031 C 13.277344 82.878906 13.21875 82.820312 13.121094 82.820312 C 13.023438 82.820312 12.984375 82.898438 12.964844 83.035156 C 12.691406 83.992188 12.476562 84.285156 11.324219 84.285156 L 10.152344 84.285156 L 10.894531 81.277344 C 11.011719 80.828125 11.03125 80.789062 11.578125 80.789062 L 13.335938 80.789062 C 14.839844 80.789062 15.230469 81.140625 15.230469 82.175781 C 15.230469 82.46875 15.230469 82.488281 15.171875 82.839844 C 15.171875 82.898438 15.152344 82.996094 15.152344 83.054688 C 15.152344 83.113281 15.191406 83.210938 15.308594 83.210938 C 15.445312 83.210938 15.464844 83.132812 15.484375 82.898438 L 15.738281 80.730469 C 15.777344 80.398438 15.71875 80.398438 15.40625 80.398438 L 9.097656 80.398438 C 8.863281 80.398438 8.726562 80.398438 8.726562 80.652344 C 8.726562 80.789062 8.84375 80.789062 9.078125 80.789062 C 9.546875 80.789062 9.898438 80.789062 9.898438 81.003906 C 9.898438 81.0625 9.898438 81.082031 9.820312 81.316406 L 8.179688 87.898438 C 8.0625 88.386719 8.042969 88.484375 7.046875 88.484375 C 6.832031 88.484375 6.695312 88.484375 6.695312 88.71875 C 6.695312 88.875 6.8125 88.875 7.046875 88.875 L 13.511719 88.875 C 13.804688 88.875 13.824219 88.855469 13.902344 88.660156 L 15.054688 85.964844 Z M 15.054688 85.964844 "/>
<path style=" stroke:none;fill-rule:nonzero;fill:rgb(0%,0%,0%);fill-opacity:1;" d="M 19.675781 86.160156 C 19.675781 84.128906 20.691406 83.601562 21.355469 83.601562 C 21.472656 83.601562 22.253906 83.621094 22.683594 84.070312 C 22.175781 84.109375 22.097656 84.480469 22.097656 84.636719 C 22.097656 84.96875 22.332031 85.203125 22.664062 85.203125 C 22.996094 85.203125 23.25 85.007812 23.25 84.617188 C 23.25 83.777344 22.292969 83.289062 21.335938 83.289062 C 19.773438 83.289062 18.640625 84.636719 18.640625 86.179688 C 18.640625 87.78125 19.871094 89.011719 21.316406 89.011719 C 22.976562 89.011719 23.386719 87.507812 23.386719 87.390625 C 23.386719 87.273438 23.25 87.273438 23.210938 87.273438 C 23.113281 87.273438 23.074219 87.3125 23.054688 87.390625 C 22.703125 88.542969 21.882812 88.699219 21.433594 88.699219 C 20.769531 88.699219 19.675781 88.171875 19.675781 86.160156 Z M 19.675781 86.160156 "/>
<path style=" stroke:none;fill-rule:nonzero;fill:rgb(0%,0%,0%);fill-opacity:1;" d="M 29.605469 86.199219 C 29.605469 84.617188 28.375 83.289062 26.871094 83.289062 C 25.308594 83.289062 24.097656 84.65625 24.097656 86.199219 C 24.097656 87.820312 25.386719 89.011719 26.851562 89.011719 C 28.355469 89.011719 29.605469 87.78125 29.605469 86.199219 Z M 26.871094 88.699219 C 26.324219 88.699219 25.777344 88.445312 25.445312 87.859375 C 25.132812 87.3125 25.132812 86.550781 25.132812 86.101562 C 25.132812 85.613281 25.132812 84.949219 25.425781 84.402344 C 25.757812 83.835938 26.34375 83.5625 26.851562 83.5625 C 27.398438 83.5625 27.925781 83.835938 28.257812 84.382812 C 28.589844 84.910156 28.589844 85.632812 28.589844 86.101562 C 28.589844 86.550781 28.589844 87.234375 28.316406 87.78125 C 28.023438 88.347656 27.476562 88.699219 26.871094 88.699219 Z M 26.871094 88.699219 "/>
<path style=" stroke:none;fill-rule:nonzero;fill:rgb(0%,0%,0%);fill-opacity:1;" d="M 32.570312 86.453125 C 32.84375 86.511719 33.859375 86.707031 33.859375 87.605469 C 33.859375 88.230469 33.429688 88.738281 32.453125 88.738281 C 31.398438 88.738281 30.949219 88.035156 30.714844 86.960938 C 30.675781 86.804688 30.675781 86.765625 30.539062 86.765625 C 30.382812 86.765625 30.382812 86.84375 30.382812 87.058594 L 30.382812 88.71875 C 30.382812 88.933594 30.382812 89.011719 30.519531 89.011719 C 30.578125 89.011719 30.597656 88.992188 30.832031 88.757812 C 30.851562 88.738281 30.851562 88.71875 31.085938 88.484375 C 31.632812 88.992188 32.199219 89.011719 32.453125 89.011719 C 33.878906 89.011719 34.464844 88.171875 34.464844 87.273438 C 34.464844 86.628906 34.09375 86.238281 33.9375 86.101562 C 33.527344 85.691406 33.039062 85.59375 32.511719 85.496094 C 31.808594 85.359375 30.988281 85.203125 30.988281 84.480469 C 30.988281 84.03125 31.300781 83.523438 32.375 83.523438 C 33.742188 83.523438 33.820312 84.65625 33.839844 85.027344 C 33.839844 85.144531 33.957031 85.144531 33.976562 85.144531 C 34.152344 85.144531 34.152344 85.085938 34.152344 84.851562 L 34.152344 83.582031 C 34.152344 83.386719 34.152344 83.289062 34.015625 83.289062 C 33.957031 83.289062 33.917969 83.289062 33.761719 83.445312 C 33.722656 83.484375 33.605469 83.601562 33.546875 83.640625 C 33.078125 83.289062 32.570312 83.289062 32.375 83.289062 C 30.851562 83.289062 30.382812 84.128906 30.382812 84.832031 C 30.382812 85.261719 30.578125 85.613281 30.910156 85.886719 C 31.320312 86.199219 31.671875 86.277344 32.570312 86.453125 Z M 32.570312 86.453125 "/>
<path style=" stroke:none;fill-rule:nonzero;fill:rgb(0%,0%,0%);fill-opacity:1;" d="M 44.5 84.246094 C 44.5 83.679688 44.285156 83.367188 43.992188 83.367188 C 43.679688 83.367188 43.347656 83.660156 43.347656 83.953125 C 43.347656 84.070312 43.40625 84.207031 43.523438 84.324219 C 43.738281 84.519531 43.972656 84.851562 43.972656 85.378906 C 43.972656 85.867188 43.71875 86.589844 43.347656 87.15625 C 42.976562 87.683594 42.507812 88.113281 41.921875 88.113281 C 41.21875 88.113281 40.828125 87.664062 40.710938 87 C 40.847656 86.667969 41.140625 85.867188 41.140625 85.515625 C 41.140625 85.378906 41.082031 85.242188 40.90625 85.242188 C 40.808594 85.242188 40.671875 85.28125 40.574219 85.457031 C 40.4375 85.710938 40.28125 86.511719 40.28125 86.960938 C 39.871094 87.546875 39.382812 88.113281 38.601562 88.113281 C 37.761719 88.113281 37.507812 87.371094 37.507812 86.6875 C 37.507812 85.125 38.777344 83.816406 38.777344 83.660156 C 38.777344 83.523438 38.679688 83.425781 38.542969 83.425781 C 38.386719 83.425781 38.289062 83.582031 38.210938 83.699219 C 37.585938 84.617188 37.117188 86.101562 37.117188 87.234375 C 37.117188 88.09375 37.390625 89.011719 38.425781 89.011719 C 39.304688 89.011719 39.890625 88.386719 40.339844 87.703125 C 40.457031 88.425781 40.945312 89.011719 41.707031 89.011719 C 42.683594 89.011719 43.269531 88.25 43.71875 87.3125 C 44.03125 86.707031 44.5 85.007812 44.5 84.246094 Z M 44.5 84.246094 "/>
<path style=" stroke:none;fill-rule:nonzero;fill:rgb(0%,0%,0%);fill-opacity:1;" d="M 49.789062 83.894531 L 50.960938 83.894531 C 51.214844 83.894531 51.351562 83.894531 51.351562 83.640625 C 51.351562 83.503906 51.214844 83.503906 51 83.503906 L 49.90625 83.503906 C 50.355469 81.726562 50.414062 81.492188 50.414062 81.414062 C 50.414062 81.199219 50.257812 81.082031 50.042969 81.082031 C 50.003906 81.082031 49.652344 81.082031 49.554688 81.53125 L 49.066406 83.503906 L 47.894531 83.503906 C 47.640625 83.503906 47.523438 83.503906 47.523438 83.738281 C 47.523438 83.894531 47.621094 83.894531 47.875 83.894531 L 48.96875 83.894531 C 48.070312 87.429688 48.011719 87.644531 48.011719 87.859375 C 48.011719 88.542969 48.480469 89.011719 49.164062 89.011719 C 50.433594 89.011719 51.136719 87.195312 51.136719 87.097656 C 51.136719 86.960938 51.039062 86.960938 51 86.960938 C 50.882812 86.960938 50.863281 87 50.804688 87.136719 C 50.277344 88.445312 49.613281 88.738281 49.183594 88.738281 C 48.929688 88.738281 48.792969 88.582031 48.792969 88.171875 C 48.792969 87.859375 48.832031 87.78125 48.871094 87.566406 L 49.789062 83.894531 Z M 49.789062 83.894531 "/>
<path style="fill:none;stroke-width:0.797;stroke-linecap:butt;stroke-linejoin:miter;stroke:rgb(0%,0%,0%);stroke-opacity:1;stroke-miterlimit:10;" d="M 19.56125 85.041 C 20.001875 88.344125 21.7675 90.994125 23.858125 90.994125 C 25.951875 90.994125 27.7175 88.344125 28.158125 85.041 C 28.59875 81.73475 27.7175 79.087875 26.505 79.087875 C 25.295625 79.087875 24.408125 81.73475 24.84875 85.041 C 25.289375 88.344125 27.055 90.994125 29.14875 90.994125 C 31.2425 90.994125 33.008125 88.344125 33.445625 85.041 C 33.889375 81.73475 33.005 79.087875 31.795625 79.087875 C 30.583125 79.087875 29.701875 81.73475 30.1425 85.041 C 30.583125 88.344125 32.34875 90.994125 34.439375 90.994125 C 36.533125 90.994125 38.29875 88.344125 38.739375 85.041 C 39.18 81.73475 38.29875 79.087875 37.08625 79.087875 C 35.876875 79.087875 34.9925 81.73475 35.43 85.041 C 35.87375 88.344125 37.639375 90.994125 39.733125 90.994125 C 41.826875 90.994125 43.5925 88.344125 44.033125 85.041 C 44.47375 81.73475 43.58625 79.087875 42.376875 79.087875 C 41.164375 79.087875 40.283125 81.73475 40.72375 85.041 C 41.164375 88.344125 42.93 90.994125 45.02375 90.994125 C 47.114375 90.994125 48.88 88.344125 49.320625 85.041 L 51.305 85.041 " transform="matrix(1.25,0,0,-1.25,74.9,137.77)"/>
<path style=" stroke:none;fill-rule:nonzero;fill:rgb(0%,0%,0%);fill-opacity:1;" d="M 119.621094 11.347656 C 119.71875 10.898438 119.757812 10.761719 120.929688 10.761719 C 121.300781 10.761719 121.398438 10.761719 121.398438 10.527344 C 121.398438 10.371094 121.261719 10.371094 121.203125 10.371094 C 120.792969 10.371094 119.777344 10.410156 119.367188 10.410156 C 118.996094 10.410156 118.078125 10.371094 117.707031 10.371094 C 117.628906 10.371094 117.472656 10.371094 117.472656 10.625 C 117.472656 10.761719 117.589844 10.761719 117.824219 10.761719 C 117.84375 10.761719 118.078125 10.761719 118.292969 10.78125 C 118.507812 10.820312 118.625 10.820312 118.625 10.996094 C 118.625 11.035156 118.625 11.074219 118.585938 11.230469 L 116.90625 17.910156 C 116.789062 18.398438 116.769531 18.496094 115.773438 18.496094 C 115.558594 18.496094 115.441406 18.496094 115.441406 18.75 C 115.441406 18.886719 115.558594 18.886719 115.773438 18.886719 L 121.554688 18.886719 C 121.847656 18.886719 121.847656 18.886719 121.925781 18.671875 L 122.921875 15.976562 C 122.960938 15.839844 122.960938 15.820312 122.960938 15.800781 C 122.960938 15.761719 122.921875 15.664062 122.824219 15.664062 C 122.707031 15.664062 122.6875 15.742188 122.609375 15.9375 C 122.179688 17.070312 121.632812 18.496094 119.484375 18.496094 L 118.3125 18.496094 C 118.136719 18.496094 118.097656 18.496094 118.039062 18.496094 C 117.902344 18.476562 117.863281 18.457031 117.863281 18.359375 C 117.863281 18.320312 117.863281 18.300781 117.921875 18.085938 L 119.621094 11.347656 Z M 119.621094 11.347656 "/>
<path style="fill:none;stroke-width:0.3985;stroke-linecap:butt;stroke-linejoin:miter;stroke:rgb(0%,0%,0%);stroke-opacity:1;stroke-miterlimit:10;" d="M 70.864375 85.041 L 90.426875 85.041 M 122.17375 85.041 L 141.733125 85.041 " transform="matrix(1.25,0,0,-1.25,74.9,137.77)"/>
<path style="fill:none;stroke-width:0.797;stroke-linecap:butt;stroke-linejoin:miter;stroke:rgb(0%,0%,0%);stroke-opacity:1;stroke-miterlimit:10;" d="M 90.426875 90.994125 L 122.17375 90.994125 L 122.17375 79.087875 L 90.426875 79.087875 L 90.426875 90.994125 Z M 90.426875 90.994125 " transform="matrix(1.25,0,0,-1.25,74.9,137.77)"/>
<path style=" stroke:none;fill-rule:nonzero;fill:rgb(0%,0%,0%);fill-opacity:1;" d="M 207.664062 11.230469 C 207.742188 10.9375 207.78125 10.820312 208.015625 10.78125 C 208.132812 10.761719 208.523438 10.761719 208.777344 10.761719 C 209.65625 10.761719 211.042969 10.761719 211.042969 11.992188 C 211.042969 12.421875 210.847656 13.28125 210.359375 13.769531 C 210.027344 14.082031 209.382812 14.492188 208.25 14.492188 L 206.863281 14.492188 L 207.664062 11.230469 Z M 209.460938 14.648438 C 210.730469 14.375 212.195312 13.496094 212.195312 12.246094 C 212.195312 11.171875 211.082031 10.371094 209.441406 10.371094 L 205.90625 10.371094 C 205.652344 10.371094 205.535156 10.371094 205.535156 10.625 C 205.535156 10.761719 205.652344 10.761719 205.886719 10.761719 C 205.90625 10.761719 206.140625 10.761719 206.355469 10.78125 C 206.589844 10.820312 206.6875 10.820312 206.6875 10.996094 C 206.6875 11.035156 206.6875 11.074219 206.648438 11.230469 L 204.96875 17.910156 C 204.851562 18.398438 204.832031 18.496094 203.835938 18.496094 C 203.621094 18.496094 203.503906 18.496094 203.503906 18.75 C 203.503906 18.886719 203.660156 18.886719 203.679688 18.886719 C 204.03125 18.886719 204.910156 18.847656 205.242188 18.847656 C 205.59375 18.847656 206.492188 18.886719 206.84375 18.886719 C 206.941406 18.886719 207.078125 18.886719 207.078125 18.632812 C 207.078125 18.496094 206.980469 18.496094 206.726562 18.496094 C 206.277344 18.496094 205.925781 18.496094 205.925781 18.28125 C 205.925781 18.203125 205.945312 18.144531 205.964844 18.066406 L 206.785156 14.765625 L 208.269531 14.765625 C 209.402344 14.765625 209.617188 15.46875 209.617188 15.898438 C 209.617188 16.074219 209.519531 16.464844 209.441406 16.757812 C 209.363281 17.109375 209.246094 17.558594 209.246094 17.8125 C 209.246094 19.160156 210.75 19.160156 210.90625 19.160156 C 211.960938 19.160156 212.410156 17.910156 212.410156 17.734375 C 212.410156 17.578125 212.273438 17.578125 212.253906 17.578125 C 212.136719 17.578125 212.117188 17.65625 212.097656 17.753906 C 211.785156 18.671875 211.238281 18.886719 210.964844 18.886719 C 210.554688 18.886719 210.457031 18.613281 210.457031 18.125 C 210.457031 17.734375 210.535156 17.109375 210.59375 16.699219 C 210.613281 16.523438 210.632812 16.289062 210.632812 16.113281 C 210.632812 15.15625 209.792969 14.765625 209.460938 14.648438 Z M 209.460938 14.648438 "/>
<path style="fill:none;stroke-width:0.3985;stroke-linecap:butt;stroke-linejoin:miter;stroke:rgb(0%,0%,0%);stroke-opacity:1;stroke-miterlimit:10;" d="M 141.733125 85.041 L 141.733125 46.491 M 141.733125 38.5535 L 141.733125 0.000375 " transform="matrix(1.25,0,0,-1.25,74.9,137.77)"/>
<path style="fill:none;stroke-width:0.797;stroke-linecap:butt;stroke-linejoin:miter;stroke:rgb(0%,0%,0%);stroke-opacity:1;stroke-miterlimit:10;" d="M 153.639375 46.491 L 129.83 46.491 M 153.639375 38.5535 L 129.83 38.5535 " transform="matrix(1.25,0,0,-1.25,74.9,137.77)"/>
<path style=" stroke:none;fill-rule:nonzero;fill:rgb(0%,0%,0%);fill-opacity:1;" d="M 282.308594 80.222656 C 282.308594 80.183594 282.289062 80.085938 282.171875 80.085938 C 282.132812 80.085938 282.113281 80.105469 281.976562 80.242188 L 281.117188 81.199219 C 281 81.023438 280.433594 80.085938 279.046875 80.085938 C 276.253906 80.085938 273.460938 82.839844 273.460938 85.730469 C 273.460938 87.78125 274.925781 89.148438 276.839844 89.148438 C 277.914062 89.148438 278.871094 88.660156 279.535156 88.074219 C 280.6875 87.058594 280.902344 85.925781 280.902344 85.886719 C 280.902344 85.75 280.765625 85.75 280.746094 85.75 C 280.667969 85.75 280.609375 85.789062 280.589844 85.886719 C 280.472656 86.238281 280.179688 87.136719 279.320312 87.859375 C 278.460938 88.542969 277.679688 88.757812 277.035156 88.757812 C 275.921875 88.757812 274.59375 88.113281 274.59375 86.179688 C 274.59375 85.457031 274.847656 83.445312 276.097656 81.980469 C 276.859375 81.101562 278.03125 80.476562 279.144531 80.476562 C 280.414062 80.476562 281.15625 81.433594 281.15625 82.878906 C 281.15625 83.386719 281.117188 83.386719 281.117188 83.523438 C 281.117188 83.640625 281.253906 83.640625 281.292969 83.640625 C 281.449219 83.640625 281.449219 83.621094 281.527344 83.386719 L 282.308594 80.222656 Z M 282.308594 80.222656 "/>
<path style="fill:none;stroke-width:0.3985;stroke-linecap:butt;stroke-linejoin:miter;stroke:rgb(0%,0%,0%);stroke-opacity:1;stroke-miterlimit:10;" d="M 141.733125 0.000375 L 0.001875 0.000375 " transform="matrix(1.25,0,0,-1.25,74.9,137.77)"/>
<path style="fill:none;stroke-width:0.3985;stroke-linecap:butt;stroke-linejoin:miter;stroke:rgb(0%,0%,0%);stroke-opacity:1;stroke-miterlimit:10;" d="M 124.72375 28.344125 L 124.72375 61.556625 " transform="matrix(1.25,0,0,-1.25,74.9,137.77)"/>
<path style="fill-rule:nonzero;fill:rgb(0%,0%,0%);fill-opacity:1;stroke-width:0.3985;stroke-linecap:butt;stroke-linejoin:miter;stroke:rgb(0%,0%,0%);stroke-opacity:1;stroke-miterlimit:10;" d="M -5.203565 2.336405 L 0.29956 0.00203 L -5.203565 -2.33547 L -5.203565 2.336405 Z M -5.203565 2.336405 " transform="matrix(0,-1.25,-1.25,0,230.807225,60.827575)"/>
<path style=" stroke:none;fill-rule:nonzero;fill:rgb(0%,0%,0%);fill-opacity:1;" d="M 197.527344 87.03125 C 197.664062 87.539062 198.113281 87.871094 198.640625 87.871094 C 199.070312 87.871094 199.363281 87.578125 199.558594 87.1875 C 199.773438 86.738281 199.929688 85.976562 199.929688 85.957031 C 199.929688 85.820312 199.832031 85.820312 199.792969 85.820312 C 199.65625 85.820312 199.65625 85.878906 199.617188 86.054688 C 199.441406 86.757812 199.207031 87.597656 198.679688 87.597656 C 198.425781 87.597656 198.289062 87.441406 198.289062 87.03125 C 198.289062 86.757812 198.445312 86.171875 198.542969 85.722656 L 198.894531 84.375 C 198.933594 84.199219 199.050781 83.730469 199.109375 83.535156 C 199.167969 83.242188 199.285156 82.773438 199.285156 82.695312 C 199.285156 82.480469 199.109375 82.363281 198.933594 82.363281 C 198.875 82.363281 198.542969 82.382812 198.445312 82.792969 C 198.210938 83.710938 197.664062 85.898438 197.507812 86.542969 C 197.488281 86.601562 197 87.597656 196.082031 87.597656 C 195.4375 87.597656 195.320312 87.03125 195.320312 86.582031 C 195.320312 85.878906 195.671875 84.902344 195.984375 84.042969 C 196.140625 83.652344 196.199219 83.476562 196.199219 83.242188 C 196.199219 82.695312 195.808594 82.226562 195.183594 82.226562 C 193.992188 82.226562 193.542969 84.042969 193.542969 84.140625 C 193.542969 84.277344 193.660156 84.277344 193.679688 84.277344 C 193.816406 84.277344 193.816406 84.238281 193.875 84.042969 C 194.1875 82.96875 194.675781 82.5 195.144531 82.5 C 195.261719 82.5 195.457031 82.519531 195.457031 82.910156 C 195.457031 83.203125 195.320312 83.574219 195.242188 83.75 C 194.773438 85 194.519531 85.761719 194.519531 86.367188 C 194.519531 87.558594 195.378906 87.871094 196.042969 87.871094 C 196.863281 87.871094 197.3125 87.304688 197.527344 87.03125 Z M 197.527344 87.03125 "/>
<path style=" stroke:none;fill-rule:nonzero;fill:rgb(0%,0%,0%);fill-opacity:1;" d="M 207.644531 83.585938 C 207.644531 83.546875 207.625 83.46875 207.527344 83.46875 C 207.46875 83.46875 207.449219 83.488281 207.371094 83.585938 L 206.746094 84.25 C 206.667969 84.152344 206.179688 83.46875 205.105469 83.46875 C 202.976562 83.46875 200.90625 85.34375 200.90625 87.316406 C 200.90625 88.742188 202.019531 89.777344 203.582031 89.777344 C 204.050781 89.777344 204.890625 89.679688 205.789062 88.917969 C 206.472656 88.332031 206.667969 87.589844 206.667969 87.511719 C 206.667969 87.394531 206.570312 87.394531 206.511719 87.394531 C 206.414062 87.394531 206.394531 87.433594 206.355469 87.53125 C 206.003906 88.722656 204.792969 89.464844 203.738281 89.464844 C 202.800781 89.464844 201.785156 88.957031 201.785156 87.589844 C 201.785156 87.335938 201.84375 85.96875 202.839844 84.855469 C 203.445312 84.191406 204.363281 83.800781 205.183594 83.800781 C 206.199219 83.800781 206.785156 84.523438 206.785156 85.5 C 206.785156 85.734375 206.765625 85.8125 206.765625 85.851562 C 206.765625 85.96875 206.882812 85.96875 206.921875 85.96875 C 207.058594 85.96875 207.058594 85.949219 207.097656 85.773438 L 207.644531 83.585938 Z M 207.644531 83.585938 "/>
<path style=" stroke:none;fill-rule:nonzero;fill:rgb(0%,0%,0%);fill-opacity:1;" d="M 212.800781 90.722656 C 212.800781 90.683594 212.800781 90.664062 212.585938 90.449219 C 211.042969 88.886719 210.632812 86.523438 210.632812 84.609375 C 210.632812 82.441406 211.101562 80.273438 212.644531 78.730469 C 212.800781 78.574219 212.800781 78.554688 212.800781 78.515625 C 212.800781 78.417969 212.761719 78.378906 212.683594 78.378906 C 212.546875 78.378906 211.433594 79.238281 210.691406 80.820312 C 210.066406 82.1875 209.910156 83.574219 209.910156 84.609375 C 209.910156 85.585938 210.046875 87.089844 210.730469 88.515625 C 211.492188 90.039062 212.546875 90.859375 212.683594 90.859375 C 212.761719 90.859375 212.800781 90.820312 212.800781 90.722656 Z M 212.800781 90.722656 "/>
<path style=" stroke:none;fill-rule:nonzero;fill:rgb(0%,0%,0%);fill-opacity:1;" d="M 216.082031 82.753906 L 217.253906 82.753906 C 217.507812 82.753906 217.644531 82.753906 217.644531 82.5 C 217.644531 82.363281 217.507812 82.363281 217.292969 82.363281 L 216.199219 82.363281 C 216.648438 80.585938 216.707031 80.351562 216.707031 80.273438 C 216.707031 80.058594 216.550781 79.941406 216.335938 79.941406 C 216.296875 79.941406 215.945312 79.941406 215.847656 80.390625 L 215.359375 82.363281 L 214.1875 82.363281 C 213.933594 82.363281 213.816406 82.363281 213.816406 82.597656 C 213.816406 82.753906 213.914062 82.753906 214.167969 82.753906 L 215.261719 82.753906 C 214.363281 86.289062 214.304688 86.503906 214.304688 86.71875 C 214.304688 87.402344 214.773438 87.871094 215.457031 87.871094 C 216.726562 87.871094 217.429688 86.054688 217.429688 85.957031 C 217.429688 85.820312 217.332031 85.820312 217.292969 85.820312 C 217.175781 85.820312 217.15625 85.859375 217.097656 85.996094 C 216.570312 87.304688 215.90625 87.597656 215.476562 87.597656 C 215.222656 87.597656 215.085938 87.441406 215.085938 87.03125 C 215.085938 86.71875 215.125 86.640625 215.164062 86.425781 L 216.082031 82.753906 Z M 216.082031 82.753906 "/>
<path style=" stroke:none;fill-rule:nonzero;fill:rgb(0%,0%,0%);fill-opacity:1;" d="M 221.613281 84.609375 C 221.613281 83.652344 221.476562 82.148438 220.792969 80.722656 C 220.050781 79.199219 218.976562 78.378906 218.859375 78.378906 C 218.78125 78.378906 218.722656 78.4375 218.722656 78.515625 C 218.722656 78.554688 218.722656 78.574219 218.957031 78.808594 C 220.1875 80.039062 220.890625 82.011719 220.890625 84.609375 C 220.890625 86.757812 220.441406 88.945312 218.898438 90.507812 C 218.722656 90.664062 218.722656 90.683594 218.722656 90.722656 C 218.722656 90.800781 218.78125 90.859375 218.859375 90.859375 C 218.976562 90.859375 220.109375 90 220.832031 88.417969 C 221.476562 87.050781 221.613281 85.664062 221.613281 84.609375 Z M 221.613281 84.609375 "/>
</g>
</svg>
