<?xml version="1.0" encoding="UTF-8"?>
<!-- Converted by misc2svg (http://www.network-science.de/tools/misc2svg/) -->
<svg xmlns="http://www.w3.org/2000/svg" xmlns:xlink="http://www.w3.org/1999/xlink" width="272pt" height="174pt" viewBox="0 0 272 174" version="1.1">
<g id="misc2svg">
<path style="fill:none;stroke-width:0.3985;stroke-linecap:butt;stroke-linejoin:miter;stroke:rgb(0%,0%,0%);stroke-opacity:1;stroke-miterlimit:10;" d="M 0 -11.339125 L 0 32.879625 " transform="matrix(1.25,0,0,-1.25,69.9375,132.2675)"/>
<path style="fill-rule:nonzero;fill:rgb(100%,100%,100%);fill-opacity:1;stroke-width:0.3985;stroke-linecap:butt;stroke-linejoin:miter;stroke:rgb(0%,0%,0%);stroke-opacity:1;stroke-miterlimit:10;" d="M 12.471875 34.017125 C 12.471875 40.904625 6.890625 46.489 0 46.489 C -6.8875 46.489 -12.471875 40.904625 -12.471875 34.017125 C -12.471875 27.1265 -6.8875 21.54525 0 21.54525 C 6.890625 21.54525 12.471875 27.1265 12.471875 34.017125 Z M 12.471875 34.017125 " transform="matrix(1.25,0,0,-1.25,69.9375,132.2675)"/>
<path style=" stroke:none;fill-rule:nonzero;fill:rgb(0%,0%,0%);fill-opacity:1;" d="M 63.960938 93.222656 C 64.136719 93.496094 64.625 93.984375 64.761719 93.984375 C 64.878906 93.984375 64.878906 93.886719 64.878906 93.710938 L 64.878906 91.542969 C 64.878906 91.054688 64.917969 90.996094 65.738281 90.996094 L 65.738281 90.605469 C 65.269531 90.605469 64.585938 90.644531 64.214844 90.644531 C 63.726562 90.644531 62.652344 90.644531 62.203125 90.605469 L 62.203125 90.996094 L 62.613281 90.996094 C 63.726562 90.996094 63.765625 91.132812 63.765625 91.582031 L 63.765625 92.382812 C 63.765625 93.789062 62.183594 93.886719 61.832031 93.886719 C 61.03125 93.886719 58.550781 93.457031 58.550781 89.746094 C 58.550781 86.015625 61.011719 85.605469 61.753906 85.605469 C 63.101562 85.605469 64.234375 86.71875 64.46875 88.554688 C 64.507812 88.730469 64.507812 88.769531 64.683594 88.769531 C 64.878906 88.769531 64.878906 88.730469 64.878906 88.476562 L 64.878906 85.527344 C 64.878906 85.3125 64.878906 85.214844 64.742188 85.214844 C 64.683594 85.214844 64.644531 85.214844 64.546875 85.371094 L 63.921875 86.289062 C 63.511719 85.898438 62.847656 85.214844 61.617188 85.214844 C 59.292969 85.214844 57.28125 87.1875 57.28125 89.746094 C 57.28125 92.304688 59.273438 94.277344 61.636719 94.277344 C 62.554688 94.277344 63.550781 93.945312 63.960938 93.222656 Z M 63.960938 93.222656 "/>
<path style=" stroke:none;fill-rule:nonzero;fill:rgb(0%,0%,0%);fill-opacity:1;" d="M 69.121094 89.433594 L 69.121094 86.386719 C 69.121094 85.957031 69.140625 85.878906 69.726562 85.878906 L 71.269531 85.878906 C 72.480469 85.878906 72.910156 86.933594 72.910156 87.597656 C 72.910156 88.398438 72.304688 89.433594 70.917969 89.433594 L 69.121094 89.433594 Z M 72.050781 89.550781 C 73.261719 89.316406 74.121094 88.515625 74.121094 87.597656 C 74.121094 86.523438 72.96875 85.488281 71.347656 85.488281 L 66.796875 85.488281 L 66.796875 85.878906 L 67.089844 85.878906 C 68.046875 85.878906 68.085938 86.015625 68.085938 86.464844 L 68.085938 93.027344 C 68.085938 93.476562 68.046875 93.613281 67.089844 93.613281 L 66.796875 93.613281 L 66.796875 94.003906 L 71.679688 94.003906 C 73.339844 94.003906 74.453125 92.890625 74.453125 91.71875 C 74.453125 90.644531 73.4375 89.707031 72.050781 89.550781 Z M 71.289062 93.613281 L 69.726562 93.613281 C 69.140625 93.613281 69.121094 93.535156 69.121094 93.125 L 69.121094 89.726562 L 71.464844 89.726562 C 72.695312 89.726562 73.222656 90.878906 73.222656 91.71875 C 73.222656 92.597656 72.558594 93.613281 71.289062 93.613281 Z M 71.289062 93.613281 "/>
<path style=" stroke:none;fill-rule:nonzero;fill:rgb(0%,0%,0%);fill-opacity:1;" d="M 82.414062 85.527344 L 75.578125 85.527344 L 75.578125 85.917969 L 75.871094 85.917969 C 76.828125 85.917969 76.867188 86.054688 76.867188 86.503906 L 76.867188 93.027344 C 76.867188 93.476562 76.828125 93.613281 75.871094 93.613281 L 75.578125 93.613281 L 75.578125 94.003906 C 76.007812 93.964844 76.984375 93.964844 77.472656 93.964844 C 77.980469 93.964844 79.113281 93.964844 79.5625 94.003906 L 79.5625 93.613281 L 79.152344 93.613281 C 77.980469 93.613281 77.980469 93.457031 77.980469 93.027344 L 77.980469 89.960938 L 79.035156 89.960938 C 80.246094 89.960938 80.363281 90.351562 80.363281 91.40625 L 80.675781 91.40625 L 80.675781 88.105469 L 80.363281 88.105469 C 80.363281 89.160156 80.246094 89.570312 79.035156 89.570312 L 77.980469 89.570312 L 77.980469 86.40625 C 77.980469 85.996094 78 85.917969 78.585938 85.917969 L 80.070312 85.917969 C 81.945312 85.917969 82.257812 86.621094 82.453125 88.339844 L 82.765625 88.339844 L 82.414062 85.527344 Z M 82.414062 85.527344 "/>
<path style="fill:none;stroke-width:0.3985;stroke-linecap:butt;stroke-linejoin:miter;stroke:rgb(0%,0%,0%);stroke-opacity:1;stroke-miterlimit:10;" d="M 0 46.489 L 0 77.104625 L 47.621875 77.104625 L 47.621875 54.423375 " transform="matrix(1.25,0,0,-1.25,69.9375,132.2675)"/>
<path style="fill:none;stroke-width:0.3985;stroke-linecap:butt;stroke-linejoin:miter;stroke:rgb(0%,0%,0%);stroke-opacity:1;stroke-miterlimit:10;" d="M 0 -11.339125 L 88.440625 -11.339125 L 88.440625 13.60775 " transform="matrix(1.25,0,0,-1.25,69.9375,132.2675)"/>
<path style="fill:none;stroke-width:0.3985;stroke-linecap:butt;stroke-linejoin:miter;stroke:rgb(0%,0%,0%);stroke-opacity:1;stroke-miterlimit:10;" d="M 0 77.104625 L -16.515625 93.62025 " transform="matrix(1.25,0,0,-1.25,69.9375,132.2675)"/>
<path style="fill-rule:nonzero;fill:rgb(0%,0%,0%);fill-opacity:1;stroke-width:0.3985;stroke-linecap:butt;stroke-linejoin:miter;stroke:rgb(0%,0%,0%);stroke-opacity:1;stroke-miterlimit:10;" d="M -4.363289 2.689746 L 0.301346 0.000476569 L -4.361156 -2.69087 L -4.363289 2.689746 Z M -4.363289 2.689746 " transform="matrix(-0.8839,-0.883875,-0.883875,0.8839,49.294125,15.2464)"/>
<path style=" stroke:none;fill-rule:nonzero;fill:rgb(0%,0%,0%);fill-opacity:1;" d="M 18.113281 11.601562 C 18.289062 11.132812 18.621094 10.78125 19.480469 10.761719 L 19.480469 10.371094 C 19.089844 10.410156 18.582031 10.410156 18.269531 10.410156 C 17.898438 10.410156 17.175781 10.390625 16.84375 10.371094 L 16.84375 10.761719 C 17.488281 10.78125 17.761719 11.09375 17.761719 11.386719 C 17.761719 11.484375 17.722656 11.5625 17.703125 11.640625 L 15.417969 17.636719 L 13.035156 11.347656 C 12.957031 11.171875 12.957031 11.152344 12.957031 11.132812 C 12.957031 10.761719 13.660156 10.761719 13.972656 10.761719 L 13.972656 10.371094 C 13.523438 10.410156 12.664062 10.410156 12.195312 10.410156 C 11.609375 10.410156 11.0625 10.390625 10.613281 10.371094 L 10.613281 10.761719 C 11.433594 10.761719 11.667969 10.761719 11.84375 11.230469 L 14.734375 18.886719 C 14.8125 19.121094 14.871094 19.160156 15.046875 19.160156 C 15.242188 19.160156 15.28125 19.101562 15.339844 18.925781 L 18.113281 11.601562 Z M 18.113281 11.601562 "/>
<path style=" stroke:none;fill-rule:nonzero;fill:rgb(0%,0%,0%);fill-opacity:1;" d="M 24.542969 16.210938 C 24.542969 14.628906 23.3125 13.300781 21.808594 13.300781 C 20.246094 13.300781 19.035156 14.667969 19.035156 16.210938 C 19.035156 17.832031 20.324219 19.023438 21.789062 19.023438 C 23.292969 19.023438 24.542969 17.792969 24.542969 16.210938 Z M 21.808594 18.710938 C 21.261719 18.710938 20.714844 18.457031 20.382812 17.871094 C 20.070312 17.324219 20.070312 16.5625 20.070312 16.113281 C 20.070312 15.625 20.070312 14.960938 20.363281 14.414062 C 20.695312 13.847656 21.28125 13.574219 21.789062 13.574219 C 22.335938 13.574219 22.863281 13.847656 23.195312 14.394531 C 23.527344 14.921875 23.527344 15.644531 23.527344 16.113281 C 23.527344 16.5625 23.527344 17.246094 23.253906 17.792969 C 22.960938 18.359375 22.414062 18.710938 21.808594 18.710938 Z M 21.808594 18.710938 "/>
<path style=" stroke:none;fill-rule:nonzero;fill:rgb(0%,0%,0%);fill-opacity:1;" d="M 27.117188 13.378906 L 25.378906 13.515625 L 25.378906 13.90625 C 26.179688 13.90625 26.296875 13.984375 26.296875 14.589844 L 26.296875 17.949219 C 26.296875 18.496094 26.160156 18.496094 25.320312 18.496094 L 25.320312 18.886719 C 25.710938 18.867188 26.394531 18.847656 26.6875 18.847656 C 27.136719 18.847656 27.566406 18.867188 27.996094 18.886719 L 27.996094 18.496094 C 27.15625 18.496094 27.117188 18.4375 27.117188 17.949219 L 27.117188 13.378906 Z M 27.15625 11.210938 C 27.15625 10.820312 26.863281 10.546875 26.511719 10.546875 C 26.121094 10.546875 25.847656 10.878906 25.847656 11.210938 C 25.847656 11.542969 26.121094 11.875 26.511719 11.875 C 26.863281 11.875 27.15625 11.601562 27.15625 11.210938 Z M 27.15625 11.210938 "/>
<path style=" stroke:none;fill-rule:nonzero;fill:rgb(0%,0%,0%);fill-opacity:1;" d="M 29.757812 15.742188 C 29.835938 13.886719 30.890625 13.574219 31.320312 13.574219 C 32.589844 13.574219 32.726562 15.253906 32.726562 15.742188 L 29.757812 15.742188 Z M 29.757812 16.015625 L 33.234375 16.015625 C 33.507812 16.015625 33.546875 16.015625 33.546875 15.742188 C 33.546875 14.511719 32.863281 13.300781 31.320312 13.300781 C 29.875 13.300781 28.722656 14.589844 28.722656 16.152344 C 28.722656 17.8125 30.03125 19.023438 31.457031 19.023438 C 32.980469 19.023438 33.546875 17.636719 33.546875 17.402344 C 33.546875 17.285156 33.449219 17.246094 33.371094 17.246094 C 33.273438 17.246094 33.234375 17.324219 33.214844 17.421875 C 32.785156 18.710938 31.652344 18.710938 31.535156 18.710938 C 30.910156 18.710938 30.421875 18.339844 30.128906 17.871094 C 29.757812 17.285156 29.757812 16.464844 29.757812 16.015625 Z M 29.757812 16.015625 "/>
<path style=" stroke:none;fill-rule:nonzero;fill:rgb(0%,0%,0%);fill-opacity:1;" d="M 41.722656 10.917969 C 41.722656 10.605469 41.722656 10.585938 41.429688 10.585938 C 40.648438 11.386719 39.554688 11.386719 39.164062 11.386719 L 39.164062 11.777344 C 39.417969 11.777344 40.140625 11.777344 40.785156 11.445312 L 40.785156 17.910156 C 40.785156 18.359375 40.746094 18.496094 39.632812 18.496094 L 39.242188 18.496094 L 39.242188 18.886719 C 39.671875 18.847656 40.746094 18.847656 41.253906 18.847656 C 41.742188 18.847656 42.835938 18.847656 43.265625 18.886719 L 43.265625 18.496094 L 42.875 18.496094 C 41.742188 18.496094 41.722656 18.359375 41.722656 17.910156 L 41.722656 10.917969 Z M 41.722656 10.917969 "/>
<path style="fill:none;stroke-width:0.3985;stroke-linecap:butt;stroke-linejoin:miter;stroke:rgb(0%,0%,0%);stroke-opacity:1;stroke-miterlimit:10;" d="M 0 -11.339125 L 0 -22.676625 " transform="matrix(1.25,0,0,-1.25,69.9375,132.2675)"/>
<path style="fill:none;stroke-width:0.3985;stroke-linecap:butt;stroke-linejoin:miter;stroke:rgb(0%,0%,0%);stroke-opacity:1;stroke-miterlimit:10;" d="M -8.503125 -22.676625 L 8.503125 -22.676625 " transform="matrix(1.25,0,0,-1.25,69.9375,132.2675)"/>
<path style="fill:none;stroke-width:0.3985;stroke-linecap:butt;stroke-linejoin:miter;stroke:rgb(0%,0%,0%);stroke-opacity:1;stroke-miterlimit:10;" d="M -8.503125 -22.676625 L -14.171875 -28.345375 " transform="matrix(1.25,0,0,-1.25,69.9375,132.2675)"/>
<path style="fill:none;stroke-width:0.3985;stroke-linecap:butt;stroke-linejoin:miter;stroke:rgb(0%,0%,0%);stroke-opacity:1;stroke-miterlimit:10;" d="M -5.66875 -22.676625 L -11.3375 -28.345375 " transform="matrix(1.25,0,0,-1.25,69.9375,132.2675)"/>
<path style="fill:none;stroke-width:0.3985;stroke-linecap:butt;stroke-linejoin:miter;stroke:rgb(0%,0%,0%);stroke-opacity:1;stroke-miterlimit:10;" d="M -2.83125 -22.676625 L -8.503125 -28.345375 " transform="matrix(1.25,0,0,-1.25,69.9375,132.2675)"/>
<path style="fill:none;stroke-width:0.3985;stroke-linecap:butt;stroke-linejoin:miter;stroke:rgb(0%,0%,0%);stroke-opacity:1;stroke-miterlimit:10;" d="M 0 -22.676625 L -5.66875 -28.345375 " transform="matrix(1.25,0,0,-1.25,69.9375,132.2675)"/>
<path style="fill:none;stroke-width:0.3985;stroke-linecap:butt;stroke-linejoin:miter;stroke:rgb(0%,0%,0%);stroke-opacity:1;stroke-miterlimit:10;" d="M 2.834375 -22.676625 L -2.83125 -28.345375 " transform="matrix(1.25,0,0,-1.25,69.9375,132.2675)"/>
<path style="fill:none;stroke-width:0.3985;stroke-linecap:butt;stroke-linejoin:miter;stroke:rgb(0%,0%,0%);stroke-opacity:1;stroke-miterlimit:10;" d="M 5.671875 -22.676625 L 0 -28.345375 " transform="matrix(1.25,0,0,-1.25,69.9375,132.2675)"/>
<path style="fill:none;stroke-width:0.3985;stroke-linecap:butt;stroke-linejoin:miter;stroke:rgb(0%,0%,0%);stroke-opacity:1;stroke-miterlimit:10;" d="M 8.503125 -22.676625 L 2.834375 -28.345375 " transform="matrix(1.25,0,0,-1.25,69.9375,132.2675)"/>
<path style="fill:none;stroke-width:0.3985;stroke-linecap:butt;stroke-linejoin:miter;stroke:rgb(0%,0%,0%);stroke-opacity:1;stroke-miterlimit:10;" d="M 88.440625 54.423375 L 121.965625 87.948375 " transform="matrix(1.25,0,0,-1.25,69.9375,132.2675)"/>
<path style="fill-rule:nonzero;fill:rgb(0%,0%,0%);fill-opacity:1;stroke-width:0.3985;stroke-linecap:butt;stroke-linejoin:miter;stroke:rgb(0%,0%,0%);stroke-opacity:1;stroke-miterlimit:10;" d="M -4.359749 2.690213 L 0.298334 -0.00113422 L -4.361882 -2.690403 L -4.359749 2.690213 Z M -4.359749 2.690213 " transform="matrix(0.8839,-0.883875,-0.883875,-0.8839,222.39155,22.333)"/>
<path style=" stroke:none;fill-rule:nonzero;fill:rgb(0%,0%,0%);fill-opacity:1;" d="M 235.140625 18.6875 C 235.316406 18.21875 235.648438 17.867188 236.507812 17.847656 L 236.507812 17.457031 C 236.117188 17.496094 235.609375 17.496094 235.296875 17.496094 C 234.925781 17.496094 234.203125 17.476562 233.871094 17.457031 L 233.871094 17.847656 C 234.515625 17.867188 234.789062 18.179688 234.789062 18.472656 C 234.789062 18.570312 234.75 18.648438 234.730469 18.726562 L 232.445312 24.722656 L 230.0625 18.433594 C 229.984375 18.257812 229.984375 18.238281 229.984375 18.21875 C 229.984375 17.847656 230.6875 17.847656 231 17.847656 L 231 17.457031 C 230.550781 17.496094 229.691406 17.496094 229.222656 17.496094 C 228.636719 17.496094 228.089844 17.476562 227.640625 17.457031 L 227.640625 17.847656 C 228.460938 17.847656 228.695312 17.847656 228.871094 18.316406 L 231.761719 25.972656 C 231.839844 26.207031 231.898438 26.246094 232.074219 26.246094 C 232.269531 26.246094 232.308594 26.1875 232.367188 26.011719 L 235.140625 18.6875 Z M 235.140625 18.6875 "/>
<path style=" stroke:none;fill-rule:nonzero;fill:rgb(0%,0%,0%);fill-opacity:1;" d="M 241.570312 23.296875 C 241.570312 21.714844 240.339844 20.386719 238.835938 20.386719 C 237.273438 20.386719 236.0625 21.753906 236.0625 23.296875 C 236.0625 24.917969 237.351562 26.109375 238.816406 26.109375 C 240.320312 26.109375 241.570312 24.878906 241.570312 23.296875 Z M 238.835938 25.796875 C 238.289062 25.796875 237.742188 25.542969 237.410156 24.957031 C 237.097656 24.410156 237.097656 23.648438 237.097656 23.199219 C 237.097656 22.710938 237.097656 22.046875 237.390625 21.5 C 237.722656 20.933594 238.308594 20.660156 238.816406 20.660156 C 239.363281 20.660156 239.890625 20.933594 240.222656 21.480469 C 240.554688 22.007812 240.554688 22.730469 240.554688 23.199219 C 240.554688 23.648438 240.554688 24.332031 240.28125 24.878906 C 239.988281 25.445312 239.441406 25.796875 238.835938 25.796875 Z M 238.835938 25.796875 "/>
<path style=" stroke:none;fill-rule:nonzero;fill:rgb(0%,0%,0%);fill-opacity:1;" d="M 244.144531 20.464844 L 242.40625 20.601562 L 242.40625 20.992188 C 243.207031 20.992188 243.324219 21.070312 243.324219 21.675781 L 243.324219 25.035156 C 243.324219 25.582031 243.1875 25.582031 242.347656 25.582031 L 242.347656 25.972656 C 242.738281 25.953125 243.421875 25.933594 243.714844 25.933594 C 244.164062 25.933594 244.59375 25.953125 245.023438 25.972656 L 245.023438 25.582031 C 244.183594 25.582031 244.144531 25.523438 244.144531 25.035156 L 244.144531 20.464844 Z M 244.183594 18.296875 C 244.183594 17.90625 243.890625 17.632812 243.539062 17.632812 C 243.148438 17.632812 242.875 17.964844 242.875 18.296875 C 242.875 18.628906 243.148438 18.960938 243.539062 18.960938 C 243.890625 18.960938 244.183594 18.6875 244.183594 18.296875 Z M 244.183594 18.296875 "/>
<path style=" stroke:none;fill-rule:nonzero;fill:rgb(0%,0%,0%);fill-opacity:1;" d="M 246.785156 22.828125 C 246.863281 20.972656 247.917969 20.660156 248.347656 20.660156 C 249.617188 20.660156 249.753906 22.339844 249.753906 22.828125 L 246.785156 22.828125 Z M 246.785156 23.101562 L 250.261719 23.101562 C 250.535156 23.101562 250.574219 23.101562 250.574219 22.828125 C 250.574219 21.597656 249.890625 20.386719 248.347656 20.386719 C 246.902344 20.386719 245.75 21.675781 245.75 23.238281 C 245.75 24.898438 247.058594 26.109375 248.484375 26.109375 C 250.007812 26.109375 250.574219 24.722656 250.574219 24.488281 C 250.574219 24.371094 250.476562 24.332031 250.398438 24.332031 C 250.300781 24.332031 250.261719 24.410156 250.242188 24.507812 C 249.8125 25.796875 248.679688 25.796875 248.5625 25.796875 C 247.9375 25.796875 247.449219 25.425781 247.15625 24.957031 C 246.785156 24.371094 246.785156 23.550781 246.785156 23.101562 Z M 246.785156 23.101562 "/>
<path style=" stroke:none;fill-rule:nonzero;fill:rgb(0%,0%,0%);fill-opacity:1;" d="M 256.660156 25.015625 L 257.988281 23.726562 C 259.921875 22.007812 260.664062 21.34375 260.664062 20.09375 C 260.664062 18.667969 259.550781 17.671875 258.027344 17.671875 C 256.621094 17.671875 255.703125 18.824219 255.703125 19.9375 C 255.703125 20.621094 256.328125 20.621094 256.367188 20.621094 C 256.582031 20.621094 257.011719 20.484375 257.011719 19.957031 C 257.011719 19.644531 256.777344 19.3125 256.347656 19.3125 C 256.25 19.3125 256.230469 19.3125 256.191406 19.332031 C 256.464844 18.511719 257.148438 18.0625 257.871094 18.0625 C 259.003906 18.0625 259.53125 19.078125 259.53125 20.09375 C 259.53125 21.089844 258.925781 22.066406 258.222656 22.847656 L 255.839844 25.503906 C 255.703125 25.640625 255.703125 25.679688 255.703125 25.972656 L 260.332031 25.972656 L 260.664062 23.804688 L 260.371094 23.804688 C 260.292969 24.175781 260.214844 24.722656 260.078125 24.917969 C 260 25.015625 259.179688 25.015625 258.90625 25.015625 L 256.660156 25.015625 Z M 256.660156 25.015625 "/>
<path style="fill:none;stroke-width:0.79701;stroke-linecap:butt;stroke-linejoin:miter;stroke:rgb(0%,0%,0%);stroke-opacity:1;stroke-miterlimit:10;" d="M 34.015625 0.0015 L 102.046875 0.0015 L 102.046875 68.03275 L 34.015625 68.03275 L 34.015625 0.0015 Z M 34.015625 0.0015 " transform="matrix(1.25,0,0,-1.25,69.9375,132.2675)"/>
<path style="fill:none;stroke-width:0.3985;stroke-linecap:butt;stroke-linejoin:miter;stroke:rgb(0%,0%,0%);stroke-opacity:1;stroke-miterlimit:10;" d="M 50.45625 54.423375 C 50.45625 55.989 49.1875 57.260875 47.621875 57.260875 C 46.059375 57.260875 44.7875 55.989 44.7875 54.423375 C 44.7875 52.860875 46.059375 51.592125 47.621875 51.592125 C 49.1875 51.592125 50.45625 52.860875 50.45625 54.423375 Z M 50.45625 54.423375 " transform="matrix(1.25,0,0,-1.25,69.9375,132.2675)"/>
<path style=" stroke:none;fill-rule:nonzero;fill:rgb(0%,0%,0%);fill-opacity:1;" d="M 120.4375 50.917969 C 120.378906 50.761719 120.339844 50.664062 120.144531 50.664062 C 119.949219 50.664062 119.910156 50.742188 119.851562 50.917969 L 117.273438 58.359375 C 117.039062 59.003906 116.550781 59.199219 115.867188 59.199219 L 115.867188 59.589844 C 116.160156 59.570312 116.707031 59.550781 117.136719 59.550781 C 117.527344 59.550781 118.171875 59.570312 118.582031 59.589844 L 118.582031 59.199219 C 117.957031 59.199219 117.644531 58.886719 117.644531 58.574219 C 117.644531 58.535156 117.664062 58.398438 117.664062 58.378906 L 118.25 56.757812 L 121.316406 56.757812 L 121.980469 58.652344 C 122 58.710938 122.019531 58.789062 122.019531 58.828125 C 122.019531 59.199219 121.316406 59.199219 120.984375 59.199219 L 120.984375 59.589844 C 121.433594 59.550781 122.3125 59.550781 122.78125 59.550781 C 123.308594 59.550781 123.894531 59.570312 124.402344 59.589844 L 124.402344 59.199219 L 124.1875 59.199219 C 123.445312 59.199219 123.269531 59.121094 123.132812 58.710938 L 120.4375 50.917969 Z M 119.773438 52.304688 L 121.179688 56.367188 L 118.386719 56.367188 L 119.773438 52.304688 Z M 119.773438 52.304688 "/>
<path style="fill:none;stroke-width:0.3985;stroke-linecap:butt;stroke-linejoin:miter;stroke:rgb(0%,0%,0%);stroke-opacity:1;stroke-miterlimit:10;" d="M 48.75625 54.423375 C 48.75625 55.0515 48.25 55.560875 47.621875 55.560875 C 46.996875 55.560875 46.4875 55.0515 46.4875 54.423375 C 46.4875 53.798375 46.996875 53.292125 47.621875 53.292125 C 48.25 53.292125 48.75625 53.798375 48.75625 54.423375 Z M 48.75625 54.423375 " transform="matrix(1.25,0,0,-1.25,69.9375,132.2675)"/>
<path style="fill:none;stroke-width:0.3985;stroke-linecap:butt;stroke-linejoin:miter;stroke:rgb(0%,0%,0%);stroke-opacity:1;stroke-miterlimit:10;" d="M 91.278125 54.423375 C 91.278125 55.989 90.00625 57.260875 88.440625 57.260875 C 86.875 57.260875 85.60625 55.989 85.60625 54.423375 C 85.60625 52.860875 86.875 51.592125 88.440625 51.592125 C 90.00625 51.592125 91.278125 52.860875 91.278125 54.423375 Z M 91.278125 54.423375 " transform="matrix(1.25,0,0,-1.25,69.9375,132.2675)"/>
<path style=" stroke:none;fill-rule:nonzero;fill:rgb(0%,0%,0%);fill-opacity:1;" d="M 169.789062 55.019531 L 169.789062 51.972656 C 169.789062 51.542969 169.808594 51.464844 170.394531 51.464844 L 171.9375 51.464844 C 173.148438 51.464844 173.578125 52.519531 173.578125 53.183594 C 173.578125 53.984375 172.972656 55.019531 171.585938 55.019531 L 169.789062 55.019531 Z M 172.71875 55.136719 C 173.929688 54.902344 174.789062 54.101562 174.789062 53.183594 C 174.789062 52.109375 173.636719 51.074219 172.015625 51.074219 L 167.464844 51.074219 L 167.464844 51.464844 L 167.757812 51.464844 C 168.714844 51.464844 168.753906 51.601562 168.753906 52.050781 L 168.753906 58.613281 C 168.753906 59.0625 168.714844 59.199219 167.757812 59.199219 L 167.464844 59.199219 L 167.464844 59.589844 L 172.347656 59.589844 C 174.007812 59.589844 175.121094 58.476562 175.121094 57.304688 C 175.121094 56.230469 174.105469 55.292969 172.71875 55.136719 Z M 171.957031 59.199219 L 170.394531 59.199219 C 169.808594 59.199219 169.789062 59.121094 169.789062 58.710938 L 169.789062 55.3125 L 172.132812 55.3125 C 173.363281 55.3125 173.890625 56.464844 173.890625 57.304688 C 173.890625 58.183594 173.226562 59.199219 171.957031 59.199219 Z M 171.957031 59.199219 "/>
<path style="fill:none;stroke-width:0.3985;stroke-linecap:butt;stroke-linejoin:miter;stroke:rgb(0%,0%,0%);stroke-opacity:1;stroke-miterlimit:10;" d="M 89.575 54.423375 C 89.575 55.0515 89.065625 55.560875 88.440625 55.560875 C 87.815625 55.560875 87.309375 55.0515 87.309375 54.423375 C 87.309375 53.798375 87.815625 53.292125 88.440625 53.292125 C 89.065625 53.292125 89.575 53.798375 89.575 54.423375 Z M 89.575 54.423375 " transform="matrix(1.25,0,0,-1.25,69.9375,132.2675)"/>
<path style="fill:none;stroke-width:0.3985;stroke-linecap:butt;stroke-linejoin:miter;stroke:rgb(0%,0%,0%);stroke-opacity:1;stroke-miterlimit:10;" d="M 91.278125 13.60775 C 91.278125 15.173375 90.00625 16.439 88.440625 16.439 C 86.875 16.439 85.60625 15.173375 85.60625 13.60775 C 85.60625 12.042125 86.875 10.77025 88.440625 10.77025 C 90.00625 10.77025 91.278125 12.042125 91.278125 13.60775 Z M 91.278125 13.60775 " transform="matrix(1.25,0,0,-1.25,69.9375,132.2675)"/>
<path style=" stroke:none;fill-rule:nonzero;fill:rgb(0%,0%,0%);fill-opacity:1;" d="M 185.839844 124.160156 C 185.839844 126.738281 187.851562 128.691406 190.175781 128.691406 C 192.207031 128.691406 193.417969 126.953125 193.417969 125.507812 C 193.417969 125.390625 193.417969 125.292969 193.261719 125.292969 C 193.125 125.292969 193.125 125.371094 193.105469 125.507812 C 193.007812 127.285156 191.679688 128.300781 190.3125 128.300781 C 189.550781 128.300781 187.109375 127.890625 187.109375 124.160156 C 187.109375 120.449219 189.550781 120.019531 190.3125 120.019531 C 191.660156 120.019531 192.773438 121.152344 193.027344 122.96875 C 193.046875 123.144531 193.046875 123.183594 193.222656 123.183594 C 193.417969 123.183594 193.417969 123.144531 193.417969 122.890625 L 193.417969 119.941406 C 193.417969 119.726562 193.417969 119.628906 193.28125 119.628906 C 193.242188 119.628906 193.183594 119.628906 193.085938 119.785156 L 192.460938 120.703125 C 192.011719 120.253906 191.367188 119.628906 190.175781 119.628906 C 187.832031 119.628906 185.839844 121.621094 185.839844 124.160156 Z M 185.839844 124.160156 "/>
<path style="fill:none;stroke-width:0.3985;stroke-linecap:butt;stroke-linejoin:miter;stroke:rgb(0%,0%,0%);stroke-opacity:1;stroke-miterlimit:10;" d="M 89.575 13.60775 C 89.575 14.23275 89.065625 14.739 88.440625 14.739 C 87.815625 14.739 87.309375 14.23275 87.309375 13.60775 C 87.309375 12.979625 87.815625 12.473375 88.440625 12.473375 C 89.065625 12.473375 89.575 12.979625 89.575 13.60775 Z M 89.575 13.60775 " transform="matrix(1.25,0,0,-1.25,69.9375,132.2675)"/>
<path style="fill:none;stroke-width:0.3985;stroke-linecap:butt;stroke-linejoin:miter;stroke:rgb(0%,0%,0%);stroke-opacity:1;stroke-miterlimit:10;" d="M 85.0375 34.017125 C 85.0375 43.40775 77.425 51.0265 68.03125 51.0265 C 58.640625 51.0265 51.021875 43.40775 51.021875 34.017125 C 51.021875 24.623375 58.640625 17.010875 68.03125 17.010875 C 77.425 17.010875 85.0375 24.623375 85.0375 34.017125 Z M 85.0375 34.017125 " transform="matrix(1.25,0,0,-1.25,69.9375,132.2675)"/>
<path style=" stroke:none;fill-rule:nonzero;fill:rgb(0%,0%,0%);fill-opacity:1;" d="M 142.523438 89.785156 L 140.042969 87.304688 C 139.886719 87.148438 139.867188 87.128906 139.769531 87.128906 C 139.632812 87.128906 139.515625 87.226562 139.515625 87.382812 C 139.515625 87.460938 139.535156 87.480469 139.671875 87.617188 L 142.171875 90.117188 L 139.671875 92.636719 C 139.535156 92.773438 139.515625 92.792969 139.515625 92.871094 C 139.515625 93.027344 139.632812 93.125 139.769531 93.125 C 139.867188 93.125 139.886719 93.105469 140.042969 92.949219 L 142.523438 90.46875 L 145.101562 93.046875 C 145.121094 93.066406 145.199219 93.125 145.277344 93.125 C 145.433594 93.125 145.53125 93.027344 145.53125 92.871094 C 145.53125 92.851562 145.53125 92.8125 145.492188 92.734375 C 145.472656 92.714844 143.5 90.761719 142.875 90.117188 L 145.160156 87.851562 C 145.21875 87.773438 145.414062 87.617188 145.472656 87.539062 C 145.472656 87.519531 145.53125 87.460938 145.53125 87.382812 C 145.53125 87.226562 145.433594 87.128906 145.277344 87.128906 C 145.179688 87.128906 145.140625 87.167969 145.003906 87.304688 L 142.523438 89.785156 Z M 142.523438 89.785156 "/>
<path style=" stroke:none;fill-rule:nonzero;fill:rgb(0%,0%,0%);fill-opacity:1;" d="M 151.035156 85.273438 C 151.035156 84.960938 151.035156 84.941406 150.742188 84.941406 C 149.960938 85.742188 148.867188 85.742188 148.476562 85.742188 L 148.476562 86.132812 C 148.730469 86.132812 149.453125 86.132812 150.097656 85.800781 L 150.097656 92.265625 C 150.097656 92.714844 150.058594 92.851562 148.945312 92.851562 L 148.554688 92.851562 L 148.554688 93.242188 C 148.984375 93.203125 150.058594 93.203125 150.566406 93.203125 C 151.054688 93.203125 152.148438 93.203125 152.578125 93.242188 L 152.578125 92.851562 L 152.1875 92.851562 C 151.054688 92.851562 151.035156 92.714844 151.035156 92.265625 L 151.035156 85.273438 Z M 151.035156 85.273438 "/>
<path style=" stroke:none;fill-rule:nonzero;fill:rgb(0%,0%,0%);fill-opacity:1;" d="M 159.3125 89.257812 C 159.3125 88.261719 159.253906 87.265625 158.824219 86.347656 C 158.257812 85.136719 157.222656 84.941406 156.714844 84.941406 C 155.953125 84.941406 155.054688 85.273438 154.527344 86.425781 C 154.136719 87.285156 154.078125 88.261719 154.078125 89.257812 C 154.078125 90.195312 154.117188 91.308594 154.644531 92.265625 C 155.171875 93.261719 156.089844 93.515625 156.695312 93.515625 C 157.359375 93.515625 158.316406 93.261719 158.863281 92.070312 C 159.253906 91.210938 159.3125 90.234375 159.3125 89.257812 Z M 156.695312 93.242188 C 156.207031 93.242188 155.464844 92.929688 155.25 91.738281 C 155.113281 90.996094 155.113281 89.84375 155.113281 89.101562 C 155.113281 88.300781 155.113281 87.480469 155.210938 86.816406 C 155.445312 85.332031 156.382812 85.214844 156.695312 85.214844 C 157.105469 85.214844 157.925781 85.449219 158.160156 86.679688 C 158.296875 87.382812 158.296875 88.320312 158.296875 89.101562 C 158.296875 90.039062 158.296875 90.878906 158.160156 91.679688 C 157.964844 92.871094 157.261719 93.242188 156.695312 93.242188 Z M 156.695312 93.242188 "/>
<path style=" stroke:none;fill-rule:nonzero;fill:rgb(0%,0%,0%);fill-opacity:1;" d="M 165.539062 89.257812 C 165.539062 88.261719 165.480469 87.265625 165.050781 86.347656 C 164.484375 85.136719 163.449219 84.941406 162.941406 84.941406 C 162.179688 84.941406 161.28125 85.273438 160.753906 86.425781 C 160.363281 87.285156 160.304688 88.261719 160.304688 89.257812 C 160.304688 90.195312 160.34375 91.308594 160.871094 92.265625 C 161.398438 93.261719 162.316406 93.515625 162.921875 93.515625 C 163.585938 93.515625 164.542969 93.261719 165.089844 92.070312 C 165.480469 91.210938 165.539062 90.234375 165.539062 89.257812 Z M 162.921875 93.242188 C 162.433594 93.242188 161.691406 92.929688 161.476562 91.738281 C 161.339844 90.996094 161.339844 89.84375 161.339844 89.101562 C 161.339844 88.300781 161.339844 87.480469 161.4375 86.816406 C 161.671875 85.332031 162.609375 85.214844 162.921875 85.214844 C 163.332031 85.214844 164.152344 85.449219 164.386719 86.679688 C 164.523438 87.382812 164.523438 88.320312 164.523438 89.101562 C 164.523438 90.039062 164.523438 90.878906 164.386719 91.679688 C 164.191406 92.871094 163.488281 93.242188 162.921875 93.242188 Z M 162.921875 93.242188 "/>
<path style=" stroke:none;fill-rule:nonzero;fill:rgb(0%,0%,0%);fill-opacity:1;" d="M 171.765625 89.257812 C 171.765625 88.261719 171.707031 87.265625 171.277344 86.347656 C 170.710938 85.136719 169.675781 84.941406 169.167969 84.941406 C 168.40625 84.941406 167.507812 85.273438 166.980469 86.425781 C 166.589844 87.285156 166.53125 88.261719 166.53125 89.257812 C 166.53125 90.195312 166.570312 91.308594 167.097656 92.265625 C 167.625 93.261719 168.542969 93.515625 169.148438 93.515625 C 169.8125 93.515625 170.769531 93.261719 171.316406 92.070312 C 171.707031 91.210938 171.765625 90.234375 171.765625 89.257812 Z M 169.148438 93.242188 C 168.660156 93.242188 167.917969 92.929688 167.703125 91.738281 C 167.566406 90.996094 167.566406 89.84375 167.566406 89.101562 C 167.566406 88.300781 167.566406 87.480469 167.664062 86.816406 C 167.898438 85.332031 168.835938 85.214844 169.148438 85.214844 C 169.558594 85.214844 170.378906 85.449219 170.613281 86.679688 C 170.75 87.382812 170.75 88.320312 170.75 89.101562 C 170.75 90.039062 170.75 90.878906 170.613281 91.679688 C 170.417969 92.871094 169.714844 93.242188 169.148438 93.242188 Z M 169.148438 93.242188 "/>
<path style="fill-rule:nonzero;fill:rgb(74.901961%,74.901961%,74.901961%);fill-opacity:1;stroke-width:0.3985;stroke-linecap:butt;stroke-linejoin:miter;stroke:rgb(74.901961%,74.901961%,74.901961%);stroke-opacity:1;stroke-miterlimit:10;" d="M 54.990625 19.2765 C 54.990625 20.217125 54.23125 20.979625 53.29375 20.979625 C 52.35 20.979625 51.590625 20.217125 51.590625 19.2765 C 51.590625 18.339 52.35 17.5765 53.29375 17.5765 C 54.23125 17.5765 54.990625 18.339 54.990625 19.2765 Z M 54.990625 19.2765 " transform="matrix(1.25,0,0,-1.25,69.9375,132.2675)"/>
</g>
</svg>
