<?xml version="1.0" encoding="UTF-8"?>
<!-- Converted by misc2svg (http://www.network-science.de/tools/misc2svg/) -->
<svg xmlns="http://www.w3.org/2000/svg" xmlns:xlink="http://www.w3.org/1999/xlink" width="285pt" height="152pt" viewBox="0 0 285 152" version="1.1">
<g id="misc2svg">
<path style="fill:none;stroke-width:0.3985;stroke-linecap:butt;stroke-linejoin:miter;stroke:rgb(0%,0%,0%);stroke-opacity:1;stroke-miterlimit:10;" d="M 0.001875 -0.001625 L 0.001875 30.617125 M 0.001875 54.423375 L 0.001875 85.042125 M -15.716875 33.448375 L -15.716875 51.592125 M 0.001875 85.042125 L 19.56125 85.042125 M 51.305 85.042125 L 70.864375 85.042125 " transform="matrix(1.25,0,0,-1.25,74.9,145.955)"/>
<path style="fill:none;stroke-width:0.797;stroke-linecap:butt;stroke-linejoin:miter;stroke:rgb(0%,0%,0%);stroke-opacity:1;stroke-miterlimit:10;" d="M -11.904375 42.523375 C -11.904375 35.94525 -6.57625 30.617125 0.001875 30.617125 C 6.576875 30.617125 11.905 35.94525 11.905 42.523375 C 11.905 49.09525 6.576875 54.423375 0.001875 54.423375 C -6.57625 54.423375 -11.904375 49.09525 -11.904375 42.523375 Z M 0.001875 30.617125 L 0.001875 54.423375 " transform="matrix(1.25,0,0,-1.25,74.9,145.955)"/>
<path style="fill-rule:nonzero;fill:rgb(0%,0%,0%);fill-opacity:1;stroke-width:0.3985;stroke-linecap:butt;stroke-linejoin:miter;stroke:rgb(0%,0%,0%);stroke-opacity:1;stroke-miterlimit:10;" d="M -15.716875 49.85775 L -13.7325 49.85775 L -15.716875 54.073375 L -17.70125 49.85775 L -15.716875 49.85775 " transform="matrix(1.25,0,0,-1.25,74.9,145.955)"/>
<path style=" stroke:none;fill-rule:nonzero;fill:rgb(0%,0%,0%);fill-opacity:1;" d="M 15.054688 94.152344 C 15.074219 94.09375 15.113281 94.015625 15.113281 93.976562 C 15.113281 93.976562 15.113281 93.839844 14.957031 93.839844 C 14.839844 93.839844 14.820312 93.917969 14.800781 93.996094 C 13.980469 95.832031 13.53125 96.671875 11.402344 96.671875 L 9.585938 96.671875 C 9.410156 96.671875 9.371094 96.671875 9.3125 96.671875 C 9.175781 96.652344 9.136719 96.632812 9.136719 96.535156 C 9.136719 96.496094 9.136719 96.476562 9.195312 96.261719 L 10.054688 92.84375 L 11.285156 92.84375 C 12.339844 92.84375 12.339844 93.117188 12.339844 93.429688 C 12.339844 93.507812 12.339844 93.664062 12.261719 94.035156 C 12.242188 94.09375 12.222656 94.132812 12.222656 94.171875 C 12.222656 94.230469 12.261719 94.308594 12.378906 94.308594 C 12.476562 94.308594 12.515625 94.25 12.574219 94.054688 L 13.277344 91.144531 C 13.277344 91.066406 13.21875 91.007812 13.121094 91.007812 C 13.023438 91.007812 12.984375 91.085938 12.964844 91.222656 C 12.691406 92.179688 12.476562 92.472656 11.324219 92.472656 L 10.152344 92.472656 L 10.894531 89.464844 C 11.011719 89.015625 11.03125 88.976562 11.578125 88.976562 L 13.335938 88.976562 C 14.839844 88.976562 15.230469 89.328125 15.230469 90.363281 C 15.230469 90.65625 15.230469 90.675781 15.171875 91.027344 C 15.171875 91.085938 15.152344 91.183594 15.152344 91.242188 C 15.152344 91.300781 15.191406 91.398438 15.308594 91.398438 C 15.445312 91.398438 15.464844 91.320312 15.484375 91.085938 L 15.738281 88.917969 C 15.777344 88.585938 15.71875 88.585938 15.40625 88.585938 L 9.097656 88.585938 C 8.863281 88.585938 8.726562 88.585938 8.726562 88.839844 C 8.726562 88.976562 8.84375 88.976562 9.078125 88.976562 C 9.546875 88.976562 9.898438 88.976562 9.898438 89.191406 C 9.898438 89.25 9.898438 89.269531 9.820312 89.503906 L 8.179688 96.085938 C 8.0625 96.574219 8.042969 96.671875 7.046875 96.671875 C 6.832031 96.671875 6.695312 96.671875 6.695312 96.90625 C 6.695312 97.0625 6.8125 97.0625 7.046875 97.0625 L 13.511719 97.0625 C 13.804688 97.0625 13.824219 97.042969 13.902344 96.847656 L 15.054688 94.152344 Z M 15.054688 94.152344 "/>
<path style=" stroke:none;fill-rule:nonzero;fill:rgb(0%,0%,0%);fill-opacity:1;" d="M 19.675781 94.347656 C 19.675781 92.316406 20.691406 91.789062 21.355469 91.789062 C 21.472656 91.789062 22.253906 91.808594 22.683594 92.257812 C 22.175781 92.296875 22.097656 92.667969 22.097656 92.824219 C 22.097656 93.15625 22.332031 93.390625 22.664062 93.390625 C 22.996094 93.390625 23.25 93.195312 23.25 92.804688 C 23.25 91.964844 22.292969 91.476562 21.335938 91.476562 C 19.773438 91.476562 18.640625 92.824219 18.640625 94.367188 C 18.640625 95.96875 19.871094 97.199219 21.316406 97.199219 C 22.976562 97.199219 23.386719 95.695312 23.386719 95.578125 C 23.386719 95.460938 23.25 95.460938 23.210938 95.460938 C 23.113281 95.460938 23.074219 95.5 23.054688 95.578125 C 22.703125 96.730469 21.882812 96.886719 21.433594 96.886719 C 20.769531 96.886719 19.675781 96.359375 19.675781 94.347656 Z M 19.675781 94.347656 "/>
<path style=" stroke:none;fill-rule:nonzero;fill:rgb(0%,0%,0%);fill-opacity:1;" d="M 29.605469 94.386719 C 29.605469 92.804688 28.375 91.476562 26.871094 91.476562 C 25.308594 91.476562 24.097656 92.84375 24.097656 94.386719 C 24.097656 96.007812 25.386719 97.199219 26.851562 97.199219 C 28.355469 97.199219 29.605469 95.96875 29.605469 94.386719 Z M 26.871094 96.886719 C 26.324219 96.886719 25.777344 96.632812 25.445312 96.046875 C 25.132812 95.5 25.132812 94.738281 25.132812 94.289062 C 25.132812 93.800781 25.132812 93.136719 25.425781 92.589844 C 25.757812 92.023438 26.34375 91.75 26.851562 91.75 C 27.398438 91.75 27.925781 92.023438 28.257812 92.570312 C 28.589844 93.097656 28.589844 93.820312 28.589844 94.289062 C 28.589844 94.738281 28.589844 95.421875 28.316406 95.96875 C 28.023438 96.535156 27.476562 96.886719 26.871094 96.886719 Z M 26.871094 96.886719 "/>
<path style=" stroke:none;fill-rule:nonzero;fill:rgb(0%,0%,0%);fill-opacity:1;" d="M 32.570312 94.640625 C 32.84375 94.699219 33.859375 94.894531 33.859375 95.792969 C 33.859375 96.417969 33.429688 96.925781 32.453125 96.925781 C 31.398438 96.925781 30.949219 96.222656 30.714844 95.148438 C 30.675781 94.992188 30.675781 94.953125 30.539062 94.953125 C 30.382812 94.953125 30.382812 95.03125 30.382812 95.246094 L 30.382812 96.90625 C 30.382812 97.121094 30.382812 97.199219 30.519531 97.199219 C 30.578125 97.199219 30.597656 97.179688 30.832031 96.945312 C 30.851562 96.925781 30.851562 96.90625 31.085938 96.671875 C 31.632812 97.179688 32.199219 97.199219 32.453125 97.199219 C 33.878906 97.199219 34.464844 96.359375 34.464844 95.460938 C 34.464844 94.816406 34.09375 94.425781 33.9375 94.289062 C 33.527344 93.878906 33.039062 93.78125 32.511719 93.683594 C 31.808594 93.546875 30.988281 93.390625 30.988281 92.667969 C 30.988281 92.21875 31.300781 91.710938 32.375 91.710938 C 33.742188 91.710938 33.820312 92.84375 33.839844 93.214844 C 33.839844 93.332031 33.957031 93.332031 33.976562 93.332031 C 34.152344 93.332031 34.152344 93.273438 34.152344 93.039062 L 34.152344 91.769531 C 34.152344 91.574219 34.152344 91.476562 34.015625 91.476562 C 33.957031 91.476562 33.917969 91.476562 33.761719 91.632812 C 33.722656 91.671875 33.605469 91.789062 33.546875 91.828125 C 33.078125 91.476562 32.570312 91.476562 32.375 91.476562 C 30.851562 91.476562 30.382812 92.316406 30.382812 93.019531 C 30.382812 93.449219 30.578125 93.800781 30.910156 94.074219 C 31.320312 94.386719 31.671875 94.464844 32.570312 94.640625 Z M 32.570312 94.640625 "/>
<path style=" stroke:none;fill-rule:nonzero;fill:rgb(0%,0%,0%);fill-opacity:1;" d="M 44.5 92.433594 C 44.5 91.867188 44.285156 91.554688 43.992188 91.554688 C 43.679688 91.554688 43.347656 91.847656 43.347656 92.140625 C 43.347656 92.257812 43.40625 92.394531 43.523438 92.511719 C 43.738281 92.707031 43.972656 93.039062 43.972656 93.566406 C 43.972656 94.054688 43.71875 94.777344 43.347656 95.34375 C 42.976562 95.871094 42.507812 96.300781 41.921875 96.300781 C 41.21875 96.300781 40.828125 95.851562 40.710938 95.1875 C 40.847656 94.855469 41.140625 94.054688 41.140625 93.703125 C 41.140625 93.566406 41.082031 93.429688 40.90625 93.429688 C 40.808594 93.429688 40.671875 93.46875 40.574219 93.644531 C 40.4375 93.898438 40.28125 94.699219 40.28125 95.148438 C 39.871094 95.734375 39.382812 96.300781 38.601562 96.300781 C 37.761719 96.300781 37.507812 95.558594 37.507812 94.875 C 37.507812 93.3125 38.777344 92.003906 38.777344 91.847656 C 38.777344 91.710938 38.679688 91.613281 38.542969 91.613281 C 38.386719 91.613281 38.289062 91.769531 38.210938 91.886719 C 37.585938 92.804688 37.117188 94.289062 37.117188 95.421875 C 37.117188 96.28125 37.390625 97.199219 38.425781 97.199219 C 39.304688 97.199219 39.890625 96.574219 40.339844 95.890625 C 40.457031 96.613281 40.945312 97.199219 41.707031 97.199219 C 42.683594 97.199219 43.269531 96.4375 43.71875 95.5 C 44.03125 94.894531 44.5 93.195312 44.5 92.433594 Z M 44.5 92.433594 "/>
<path style=" stroke:none;fill-rule:nonzero;fill:rgb(0%,0%,0%);fill-opacity:1;" d="M 49.789062 92.082031 L 50.960938 92.082031 C 51.214844 92.082031 51.351562 92.082031 51.351562 91.828125 C 51.351562 91.691406 51.214844 91.691406 51 91.691406 L 49.90625 91.691406 C 50.355469 89.914062 50.414062 89.679688 50.414062 89.601562 C 50.414062 89.386719 50.257812 89.269531 50.042969 89.269531 C 50.003906 89.269531 49.652344 89.269531 49.554688 89.71875 L 49.066406 91.691406 L 47.894531 91.691406 C 47.640625 91.691406 47.523438 91.691406 47.523438 91.925781 C 47.523438 92.082031 47.621094 92.082031 47.875 92.082031 L 48.96875 92.082031 C 48.070312 95.617188 48.011719 95.832031 48.011719 96.046875 C 48.011719 96.730469 48.480469 97.199219 49.164062 97.199219 C 50.433594 97.199219 51.136719 95.382812 51.136719 95.285156 C 51.136719 95.148438 51.039062 95.148438 51 95.148438 C 50.882812 95.148438 50.863281 95.1875 50.804688 95.324219 C 50.277344 96.632812 49.613281 96.925781 49.183594 96.925781 C 48.929688 96.925781 48.792969 96.769531 48.792969 96.359375 C 48.792969 96.046875 48.832031 95.96875 48.871094 95.753906 L 49.789062 92.082031 Z M 49.789062 92.082031 "/>
<path style="fill:none;stroke-width:0.797;stroke-linecap:butt;stroke-linejoin:miter;stroke:rgb(0%,0%,0%);stroke-opacity:1;stroke-miterlimit:10;" d="M 19.56125 85.042125 C 20.001875 88.34525 21.7675 90.99525 23.858125 90.99525 C 25.951875 90.99525 27.7175 88.34525 28.158125 85.042125 C 28.59875 81.735875 27.7175 79.089 26.505 79.089 C 25.295625 79.089 24.408125 81.735875 24.84875 85.042125 C 25.289375 88.34525 27.055 90.99525 29.14875 90.99525 C 31.2425 90.99525 33.008125 88.34525 33.445625 85.042125 C 33.889375 81.735875 33.005 79.089 31.795625 79.089 C 30.583125 79.089 29.701875 81.735875 30.1425 85.042125 C 30.583125 88.34525 32.34875 90.99525 34.439375 90.99525 C 36.533125 90.99525 38.29875 88.34525 38.739375 85.042125 C 39.18 81.735875 38.29875 79.089 37.08625 79.089 C 35.876875 79.089 34.9925 81.735875 35.43 85.042125 C 35.87375 88.34525 37.639375 90.99525 39.733125 90.99525 C 41.826875 90.99525 43.5925 88.34525 44.033125 85.042125 C 44.47375 81.735875 43.58625 79.089 42.376875 79.089 C 41.164375 79.089 40.283125 81.735875 40.72375 85.042125 C 41.164375 88.34525 42.93 90.99525 45.02375 90.99525 C 47.114375 90.99525 48.88 88.34525 49.320625 85.042125 L 51.305 85.042125 " transform="matrix(1.25,0,0,-1.25,74.9,145.955)"/>
<path style=" stroke:none;fill-rule:nonzero;fill:rgb(0%,0%,0%);fill-opacity:1;" d="M 119.621094 19.53125 C 119.71875 19.082031 119.757812 18.945312 120.929688 18.945312 C 121.300781 18.945312 121.398438 18.945312 121.398438 18.710938 C 121.398438 18.554688 121.261719 18.554688 121.203125 18.554688 C 120.792969 18.554688 119.777344 18.59375 119.367188 18.59375 C 118.996094 18.59375 118.078125 18.554688 117.707031 18.554688 C 117.628906 18.554688 117.472656 18.554688 117.472656 18.808594 C 117.472656 18.945312 117.589844 18.945312 117.824219 18.945312 C 117.84375 18.945312 118.078125 18.945312 118.292969 18.964844 C 118.507812 19.003906 118.625 19.003906 118.625 19.179688 C 118.625 19.21875 118.625 19.257812 118.585938 19.414062 L 116.90625 26.09375 C 116.789062 26.582031 116.769531 26.679688 115.773438 26.679688 C 115.558594 26.679688 115.441406 26.679688 115.441406 26.933594 C 115.441406 27.070312 115.558594 27.070312 115.773438 27.070312 L 121.554688 27.070312 C 121.847656 27.070312 121.847656 27.070312 121.925781 26.855469 L 122.921875 24.160156 C 122.960938 24.023438 122.960938 24.003906 122.960938 23.984375 C 122.960938 23.945312 122.921875 23.847656 122.824219 23.847656 C 122.707031 23.847656 122.6875 23.925781 122.609375 24.121094 C 122.179688 25.253906 121.632812 26.679688 119.484375 26.679688 L 118.3125 26.679688 C 118.136719 26.679688 118.097656 26.679688 118.039062 26.679688 C 117.902344 26.660156 117.863281 26.640625 117.863281 26.542969 C 117.863281 26.503906 117.863281 26.484375 117.921875 26.269531 L 119.621094 19.53125 Z M 119.621094 19.53125 "/>
<path style="fill:none;stroke-width:0.3985;stroke-linecap:butt;stroke-linejoin:miter;stroke:rgb(0%,0%,0%);stroke-opacity:1;stroke-miterlimit:10;" d="M 70.864375 85.042125 L 102.333125 85.042125 M 110.2675 85.042125 L 141.733125 85.042125 " transform="matrix(1.25,0,0,-1.25,74.9,145.955)"/>
<path style="fill:none;stroke-width:0.797;stroke-linecap:butt;stroke-linejoin:miter;stroke:rgb(0%,0%,0%);stroke-opacity:1;stroke-miterlimit:10;" d="M 102.333125 96.948375 L 102.333125 73.135875 M 110.2675 96.948375 L 110.2675 73.135875 " transform="matrix(1.25,0,0,-1.25,74.9,145.955)"/>
<path style=" stroke:none;fill-rule:nonzero;fill:rgb(0%,0%,0%);fill-opacity:1;" d="M 212.351562 10.234375 C 212.351562 10.195312 212.332031 10.097656 212.214844 10.097656 C 212.175781 10.097656 212.15625 10.117188 212.019531 10.253906 L 211.160156 11.210938 C 211.042969 11.035156 210.476562 10.097656 209.089844 10.097656 C 206.296875 10.097656 203.503906 12.851562 203.503906 15.742188 C 203.503906 17.792969 204.96875 19.160156 206.882812 19.160156 C 207.957031 19.160156 208.914062 18.671875 209.578125 18.085938 C 210.730469 17.070312 210.945312 15.9375 210.945312 15.898438 C 210.945312 15.761719 210.808594 15.761719 210.789062 15.761719 C 210.710938 15.761719 210.652344 15.800781 210.632812 15.898438 C 210.515625 16.25 210.222656 17.148438 209.363281 17.871094 C 208.503906 18.554688 207.722656 18.769531 207.078125 18.769531 C 205.964844 18.769531 204.636719 18.125 204.636719 16.191406 C 204.636719 15.46875 204.890625 13.457031 206.140625 11.992188 C 206.902344 11.113281 208.074219 10.488281 209.1875 10.488281 C 210.457031 10.488281 211.199219 11.445312 211.199219 12.890625 C 211.199219 13.398438 211.160156 13.398438 211.160156 13.535156 C 211.160156 13.652344 211.296875 13.652344 211.335938 13.652344 C 211.492188 13.652344 211.492188 13.632812 211.570312 13.398438 L 212.351562 10.234375 Z M 212.351562 10.234375 "/>
<path style="fill:none;stroke-width:0.3985;stroke-linecap:butt;stroke-linejoin:miter;stroke:rgb(0%,0%,0%);stroke-opacity:1;stroke-miterlimit:10;" d="M 141.733125 85.042125 L 141.733125 58.392125 M 141.733125 26.648375 L 141.733125 -0.001625 " transform="matrix(1.25,0,0,-1.25,74.9,145.955)"/>
<path style="fill:none;stroke-width:0.797;stroke-linecap:butt;stroke-linejoin:miter;stroke:rgb(0%,0%,0%);stroke-opacity:1;stroke-miterlimit:10;" d="M 135.78 26.648375 L 135.78 58.392125 L 147.68625 58.392125 L 147.68625 26.648375 L 135.78 26.648375 Z M 135.78 26.648375 " transform="matrix(1.25,0,0,-1.25,74.9,145.955)"/>
<path style=" stroke:none;fill-rule:nonzero;fill:rgb(0%,0%,0%);fill-opacity:1;" d="M 269.316406 89.40625 C 269.394531 89.113281 269.433594 88.996094 269.667969 88.957031 C 269.785156 88.9375 270.175781 88.9375 270.429688 88.9375 C 271.308594 88.9375 272.695312 88.9375 272.695312 90.167969 C 272.695312 90.597656 272.5 91.457031 272.011719 91.945312 C 271.679688 92.257812 271.035156 92.667969 269.902344 92.667969 L 268.515625 92.667969 L 269.316406 89.40625 Z M 271.113281 92.824219 C 272.382812 92.550781 273.847656 91.671875 273.847656 90.421875 C 273.847656 89.347656 272.734375 88.546875 271.09375 88.546875 L 267.558594 88.546875 C 267.304688 88.546875 267.1875 88.546875 267.1875 88.800781 C 267.1875 88.9375 267.304688 88.9375 267.539062 88.9375 C 267.558594 88.9375 267.792969 88.9375 268.007812 88.957031 C 268.242188 88.996094 268.339844 88.996094 268.339844 89.171875 C 268.339844 89.210938 268.339844 89.25 268.300781 89.40625 L 266.621094 96.085938 C 266.503906 96.574219 266.484375 96.671875 265.488281 96.671875 C 265.273438 96.671875 265.15625 96.671875 265.15625 96.925781 C 265.15625 97.0625 265.3125 97.0625 265.332031 97.0625 C 265.683594 97.0625 266.5625 97.023438 266.894531 97.023438 C 267.246094 97.023438 268.144531 97.0625 268.496094 97.0625 C 268.59375 97.0625 268.730469 97.0625 268.730469 96.808594 C 268.730469 96.671875 268.632812 96.671875 268.378906 96.671875 C 267.929688 96.671875 267.578125 96.671875 267.578125 96.457031 C 267.578125 96.378906 267.597656 96.320312 267.617188 96.242188 L 268.4375 92.941406 L 269.921875 92.941406 C 271.054688 92.941406 271.269531 93.644531 271.269531 94.074219 C 271.269531 94.25 271.171875 94.640625 271.09375 94.933594 C 271.015625 95.285156 270.898438 95.734375 270.898438 95.988281 C 270.898438 97.335938 272.402344 97.335938 272.558594 97.335938 C 273.613281 97.335938 274.0625 96.085938 274.0625 95.910156 C 274.0625 95.753906 273.925781 95.753906 273.90625 95.753906 C 273.789062 95.753906 273.769531 95.832031 273.75 95.929688 C 273.4375 96.847656 272.890625 97.0625 272.617188 97.0625 C 272.207031 97.0625 272.109375 96.789062 272.109375 96.300781 C 272.109375 95.910156 272.1875 95.285156 272.246094 94.875 C 272.265625 94.699219 272.285156 94.464844 272.285156 94.289062 C 272.285156 93.332031 271.445312 92.941406 271.113281 92.824219 Z M 271.113281 92.824219 "/>
<path style="fill:none;stroke-width:0.3985;stroke-linecap:butt;stroke-linejoin:miter;stroke:rgb(0%,0%,0%);stroke-opacity:1;stroke-miterlimit:10;" d="M 141.733125 -0.001625 L 0.001875 -0.001625 " transform="matrix(1.25,0,0,-1.25,74.9,145.955)"/>
<path style="fill:none;stroke-width:0.3985;stroke-linecap:butt;stroke-linejoin:miter;stroke:rgb(0%,0%,0%);stroke-opacity:1;stroke-miterlimit:10;" d="M 124.72375 28.34525 L 124.72375 61.554625 " transform="matrix(1.25,0,0,-1.25,74.9,145.955)"/>
<path style="fill-rule:nonzero;fill:rgb(0%,0%,0%);fill-opacity:1;stroke-width:0.3985;stroke-linecap:butt;stroke-linejoin:miter;stroke:rgb(0%,0%,0%);stroke-opacity:1;stroke-miterlimit:10;" d="M -5.20244 2.336405 L 0.300685 0.00203 L -5.20244 -2.33547 L -5.20244 2.336405 Z M -5.20244 2.336405 " transform="matrix(0,-1.25,-1.25,0,230.807225,69.012575)"/>
<path style=" stroke:none;fill-rule:nonzero;fill:rgb(0%,0%,0%);fill-opacity:1;" d="M 197.734375 95.214844 C 197.871094 95.722656 198.320312 96.054688 198.847656 96.054688 C 199.277344 96.054688 199.570312 95.761719 199.765625 95.371094 C 199.980469 94.921875 200.136719 94.160156 200.136719 94.140625 C 200.136719 94.003906 200.039062 94.003906 200 94.003906 C 199.863281 94.003906 199.863281 94.0625 199.824219 94.238281 C 199.648438 94.941406 199.414062 95.78125 198.886719 95.78125 C 198.632812 95.78125 198.496094 95.625 198.496094 95.214844 C 198.496094 94.941406 198.652344 94.355469 198.75 93.90625 L 199.101562 92.558594 C 199.140625 92.382812 199.257812 91.914062 199.316406 91.71875 C 199.375 91.425781 199.492188 90.957031 199.492188 90.878906 C 199.492188 90.664062 199.316406 90.546875 199.140625 90.546875 C 199.082031 90.546875 198.75 90.566406 198.652344 90.976562 C 198.417969 91.894531 197.871094 94.082031 197.714844 94.726562 C 197.695312 94.785156 197.207031 95.78125 196.289062 95.78125 C 195.644531 95.78125 195.527344 95.214844 195.527344 94.765625 C 195.527344 94.0625 195.878906 93.085938 196.191406 92.226562 C 196.347656 91.835938 196.40625 91.660156 196.40625 91.425781 C 196.40625 90.878906 196.015625 90.410156 195.390625 90.410156 C 194.199219 90.410156 193.75 92.226562 193.75 92.324219 C 193.75 92.460938 193.867188 92.460938 193.886719 92.460938 C 194.023438 92.460938 194.023438 92.421875 194.082031 92.226562 C 194.394531 91.152344 194.882812 90.683594 195.351562 90.683594 C 195.46875 90.683594 195.664062 90.703125 195.664062 91.09375 C 195.664062 91.386719 195.527344 91.757812 195.449219 91.933594 C 194.980469 93.183594 194.726562 93.945312 194.726562 94.550781 C 194.726562 95.742188 195.585938 96.054688 196.25 96.054688 C 197.070312 96.054688 197.519531 95.488281 197.734375 95.214844 Z M 197.734375 95.214844 "/>
<path style=" stroke:none;fill-rule:nonzero;fill:rgb(0%,0%,0%);fill-opacity:1;" d="M 204.105469 92.457031 C 204.164062 92.203125 204.183594 92.183594 204.378906 92.144531 L 204.945312 92.144531 C 205.746094 92.144531 206.742188 92.144531 206.742188 93.042969 C 206.742188 93.414062 206.585938 93.960938 206.175781 94.273438 C 205.824219 94.546875 205.277344 94.683594 204.671875 94.683594 L 203.558594 94.683594 L 204.105469 92.457031 Z M 205.6875 94.820312 C 206.722656 94.585938 207.640625 93.960938 207.640625 93.179688 C 207.640625 92.4375 206.761719 91.832031 205.492188 91.832031 L 202.816406 91.832031 C 202.660156 91.832031 202.542969 91.832031 202.542969 92.027344 C 202.542969 92.144531 202.640625 92.144531 202.816406 92.144531 C 202.835938 92.144531 202.992188 92.144531 203.148438 92.164062 C 203.34375 92.183594 203.34375 92.203125 203.34375 92.300781 C 203.34375 92.300781 203.34375 92.359375 203.324219 92.476562 L 202.152344 97.105469 C 202.09375 97.398438 202.074219 97.476562 201.390625 97.476562 C 201.234375 97.476562 201.136719 97.476562 201.136719 97.652344 C 201.136719 97.75 201.195312 97.789062 201.273438 97.789062 C 201.429688 97.789062 201.644531 97.769531 201.800781 97.769531 C 201.976562 97.769531 202.230469 97.75 202.386719 97.75 C 202.5625 97.75 202.757812 97.769531 202.933594 97.769531 C 203.128906 97.769531 203.34375 97.789062 203.519531 97.789062 C 203.578125 97.789062 203.714844 97.789062 203.714844 97.613281 C 203.714844 97.476562 203.617188 97.476562 203.421875 97.476562 C 203.285156 97.476562 203.246094 97.476562 203.089844 97.457031 C 202.894531 97.4375 202.894531 97.417969 202.894531 97.320312 C 202.894531 97.320312 202.894531 97.261719 202.933594 97.144531 L 203.480469 94.9375 L 204.671875 94.9375 C 205.414062 94.9375 205.746094 95.308594 205.746094 95.71875 C 205.746094 95.835938 205.667969 96.128906 205.609375 96.324219 C 205.511719 96.734375 205.472656 96.851562 205.472656 97.007812 C 205.472656 97.691406 206.117188 97.964844 206.761719 97.964844 C 207.5625 97.964844 207.914062 97.105469 207.914062 96.949219 C 207.914062 96.929688 207.894531 96.832031 207.757812 96.832031 C 207.640625 96.832031 207.621094 96.890625 207.601562 96.988281 C 207.484375 97.359375 207.152344 97.710938 206.800781 97.710938 C 206.566406 97.710938 206.390625 97.632812 206.390625 97.144531 C 206.390625 96.929688 206.449219 96.480469 206.488281 96.246094 C 206.527344 96.011719 206.527344 95.933594 206.527344 95.835938 C 206.527344 95.738281 206.527344 95.445312 206.273438 95.191406 C 206.117188 95.015625 205.882812 94.898438 205.6875 94.820312 Z M 205.6875 94.820312 "/>
<path style=" stroke:none;fill-rule:nonzero;fill:rgb(0%,0%,0%);fill-opacity:1;" d="M 212.800781 98.90625 C 212.800781 98.867188 212.800781 98.847656 212.585938 98.632812 C 211.042969 97.070312 210.632812 94.707031 210.632812 92.792969 C 210.632812 90.625 211.101562 88.457031 212.644531 86.914062 C 212.800781 86.757812 212.800781 86.738281 212.800781 86.699219 C 212.800781 86.601562 212.761719 86.5625 212.683594 86.5625 C 212.546875 86.5625 211.433594 87.421875 210.691406 89.003906 C 210.066406 90.371094 209.910156 91.757812 209.910156 92.792969 C 209.910156 93.769531 210.046875 95.273438 210.730469 96.699219 C 211.492188 98.222656 212.546875 99.042969 212.683594 99.042969 C 212.761719 99.042969 212.800781 99.003906 212.800781 98.90625 Z M 212.800781 98.90625 "/>
<path style=" stroke:none;fill-rule:nonzero;fill:rgb(0%,0%,0%);fill-opacity:1;" d="M 216.082031 90.9375 L 217.253906 90.9375 C 217.507812 90.9375 217.644531 90.9375 217.644531 90.683594 C 217.644531 90.546875 217.507812 90.546875 217.292969 90.546875 L 216.199219 90.546875 C 216.648438 88.769531 216.707031 88.535156 216.707031 88.457031 C 216.707031 88.242188 216.550781 88.125 216.335938 88.125 C 216.296875 88.125 215.945312 88.125 215.847656 88.574219 L 215.359375 90.546875 L 214.1875 90.546875 C 213.933594 90.546875 213.816406 90.546875 213.816406 90.78125 C 213.816406 90.9375 213.914062 90.9375 214.167969 90.9375 L 215.261719 90.9375 C 214.363281 94.472656 214.304688 94.6875 214.304688 94.902344 C 214.304688 95.585938 214.773438 96.054688 215.457031 96.054688 C 216.726562 96.054688 217.429688 94.238281 217.429688 94.140625 C 217.429688 94.003906 217.332031 94.003906 217.292969 94.003906 C 217.175781 94.003906 217.15625 94.042969 217.097656 94.179688 C 216.570312 95.488281 215.90625 95.78125 215.476562 95.78125 C 215.222656 95.78125 215.085938 95.625 215.085938 95.214844 C 215.085938 94.902344 215.125 94.824219 215.164062 94.609375 L 216.082031 90.9375 Z M 216.082031 90.9375 "/>
<path style=" stroke:none;fill-rule:nonzero;fill:rgb(0%,0%,0%);fill-opacity:1;" d="M 221.613281 92.792969 C 221.613281 91.835938 221.476562 90.332031 220.792969 88.90625 C 220.050781 87.382812 218.976562 86.5625 218.859375 86.5625 C 218.78125 86.5625 218.722656 86.621094 218.722656 86.699219 C 218.722656 86.738281 218.722656 86.757812 218.957031 86.992188 C 220.1875 88.222656 220.890625 90.195312 220.890625 92.792969 C 220.890625 94.941406 220.441406 97.128906 218.898438 98.691406 C 218.722656 98.847656 218.722656 98.867188 218.722656 98.90625 C 218.722656 98.984375 218.78125 99.042969 218.859375 99.042969 C 218.976562 99.042969 220.109375 98.183594 220.832031 96.601562 C 221.476562 95.234375 221.613281 93.847656 221.613281 92.792969 Z M 221.613281 92.792969 "/>
</g>
</svg>
