<?xml version="1.0" encoding="UTF-8"?>
<!-- Converted by misc2svg (http://www.network-science.de/tools/misc2svg/) -->
<svg xmlns="http://www.w3.org/2000/svg" xmlns:xlink="http://www.w3.org/1999/xlink" width="239pt" height="166pt" viewBox="0 0 239 166" version="1.1">
<g id="misc2svg">
<path style="fill:none;stroke-width:0.3985;stroke-linecap:butt;stroke-linejoin:miter;stroke:rgb(0%,0%,0%);stroke-opacity:1;stroke-miterlimit:10;" d="M -0.0025 -0.00075 L -0.0025 28.346125 " transform="matrix(1.25,0,0,-1.25,66.39375,138.6475)"/>
<path style="fill-rule:nonzero;fill:rgb(100%,100%,100%);fill-opacity:1;stroke-width:0.3985;stroke-linecap:butt;stroke-linejoin:miter;stroke:rgb(0%,0%,0%);stroke-opacity:1;stroke-miterlimit:10;" d="M 14.1725 42.518 C 14.1725 50.346125 7.825625 56.696125 -0.0025 56.696125 C -7.8275 56.696125 -14.174375 50.346125 -14.174375 42.518 C -14.174375 34.689875 -7.8275 28.346125 -0.0025 28.346125 C 7.825625 28.346125 14.1725 34.689875 14.1725 42.518 Z M 14.1725 42.518 " transform="matrix(1.25,0,0,-1.25,66.39375,138.6475)"/>
<path style=" stroke:none;fill-rule:nonzero;fill:rgb(0%,0%,0%);fill-opacity:1;" d="M 60.414062 88.972656 C 60.589844 89.246094 61.078125 89.734375 61.214844 89.734375 C 61.332031 89.734375 61.332031 89.636719 61.332031 89.460938 L 61.332031 87.292969 C 61.332031 86.804688 61.371094 86.746094 62.191406 86.746094 L 62.191406 86.355469 C 61.722656 86.355469 61.039062 86.394531 60.667969 86.394531 C 60.179688 86.394531 59.105469 86.394531 58.65625 86.355469 L 58.65625 86.746094 L 59.066406 86.746094 C 60.179688 86.746094 60.21875 86.882812 60.21875 87.332031 L 60.21875 88.132812 C 60.21875 89.539062 58.636719 89.636719 58.285156 89.636719 C 57.484375 89.636719 55.003906 89.207031 55.003906 85.496094 C 55.003906 81.765625 57.464844 81.355469 58.207031 81.355469 C 59.554688 81.355469 60.6875 82.46875 60.921875 84.304688 C 60.960938 84.480469 60.960938 84.519531 61.136719 84.519531 C 61.332031 84.519531 61.332031 84.480469 61.332031 84.226562 L 61.332031 81.277344 C 61.332031 81.0625 61.332031 80.964844 61.195312 80.964844 C 61.136719 80.964844 61.097656 80.964844 61 81.121094 L 60.375 82.039062 C 59.964844 81.648438 59.300781 80.964844 58.070312 80.964844 C 55.746094 80.964844 53.734375 82.9375 53.734375 85.496094 C 53.734375 88.054688 55.726562 90.027344 58.089844 90.027344 C 59.007812 90.027344 60.003906 89.695312 60.414062 88.972656 Z M 60.414062 88.972656 "/>
<path style=" stroke:none;fill-rule:nonzero;fill:rgb(0%,0%,0%);fill-opacity:1;" d="M 65.578125 85.183594 L 65.578125 82.136719 C 65.578125 81.707031 65.597656 81.628906 66.183594 81.628906 L 67.726562 81.628906 C 68.9375 81.628906 69.367188 82.683594 69.367188 83.347656 C 69.367188 84.148438 68.761719 85.183594 67.375 85.183594 L 65.578125 85.183594 Z M 68.507812 85.300781 C 69.71875 85.066406 70.578125 84.265625 70.578125 83.347656 C 70.578125 82.273438 69.425781 81.238281 67.804688 81.238281 L 63.253906 81.238281 L 63.253906 81.628906 L 63.546875 81.628906 C 64.503906 81.628906 64.542969 81.765625 64.542969 82.214844 L 64.542969 88.777344 C 64.542969 89.226562 64.503906 89.363281 63.546875 89.363281 L 63.253906 89.363281 L 63.253906 89.753906 L 68.136719 89.753906 C 69.796875 89.753906 70.910156 88.640625 70.910156 87.46875 C 70.910156 86.394531 69.894531 85.457031 68.507812 85.300781 Z M 67.746094 89.363281 L 66.183594 89.363281 C 65.597656 89.363281 65.578125 89.285156 65.578125 88.875 L 65.578125 85.476562 L 67.921875 85.476562 C 69.152344 85.476562 69.679688 86.628906 69.679688 87.46875 C 69.679688 88.347656 69.015625 89.363281 67.746094 89.363281 Z M 67.746094 89.363281 "/>
<path style=" stroke:none;fill-rule:nonzero;fill:rgb(0%,0%,0%);fill-opacity:1;" d="M 78.871094 81.277344 L 72.035156 81.277344 L 72.035156 81.667969 L 72.328125 81.667969 C 73.285156 81.667969 73.324219 81.804688 73.324219 82.253906 L 73.324219 88.777344 C 73.324219 89.226562 73.285156 89.363281 72.328125 89.363281 L 72.035156 89.363281 L 72.035156 89.753906 C 72.464844 89.714844 73.441406 89.714844 73.929688 89.714844 C 74.4375 89.714844 75.570312 89.714844 76.019531 89.753906 L 76.019531 89.363281 L 75.609375 89.363281 C 74.4375 89.363281 74.4375 89.207031 74.4375 88.777344 L 74.4375 85.710938 L 75.492188 85.710938 C 76.703125 85.710938 76.820312 86.101562 76.820312 87.15625 L 77.132812 87.15625 L 77.132812 83.855469 L 76.820312 83.855469 C 76.820312 84.910156 76.703125 85.320312 75.492188 85.320312 L 74.4375 85.320312 L 74.4375 82.15625 C 74.4375 81.746094 74.457031 81.667969 75.042969 81.667969 L 76.527344 81.667969 C 78.402344 81.667969 78.714844 82.371094 78.910156 84.089844 L 79.222656 84.089844 L 78.871094 81.277344 Z M 78.871094 81.277344 "/>
<path style="fill:none;stroke-width:0.3985;stroke-linecap:butt;stroke-linejoin:miter;stroke:rgb(0%,0%,0%);stroke-opacity:1;stroke-miterlimit:10;" d="M -0.0025 56.696125 L -0.0025 85.039875 M -0.0025 85.039875 L 34.585 85.039875 M 50.45375 85.039875 L 85.04125 85.039875 M 50.45375 85.039875 L 85.04125 85.039875 " transform="matrix(1.25,0,0,-1.25,66.39375,138.6475)"/>
<path style="fill:none;stroke-width:0.797;stroke-linecap:butt;stroke-linejoin:miter;stroke:rgb(0%,0%,0%);stroke-opacity:1;stroke-miterlimit:10;" d="M 50.45375 85.039875 L 34.585 94.96175 L 34.585 75.118 L 50.45375 85.039875 " transform="matrix(1.25,0,0,-1.25,66.39375,138.6475)"/>
<path style="fill:none;stroke-width:0.797;stroke-linecap:butt;stroke-linejoin:miter;stroke:rgb(0%,0%,0%);stroke-opacity:1;stroke-miterlimit:10;" d="M 50.45375 75.118 L 50.45375 94.96175 " transform="matrix(1.25,0,0,-1.25,66.39375,138.6475)"/>
<path style="fill-rule:nonzero;fill:rgb(0%,0%,0%);fill-opacity:1;stroke-width:0.3985;stroke-linecap:butt;stroke-linejoin:miter;stroke:rgb(0%,0%,0%);stroke-opacity:1;stroke-miterlimit:10;" d="M 66.013125 85.039875 L 66.013125 83.0555 L 70.22875 85.039875 L 66.013125 87.02425 L 66.013125 85.039875 " transform="matrix(1.25,0,0,-1.25,66.39375,138.6475)"/>
<path style=" stroke:none;fill-rule:nonzero;fill:rgb(0%,0%,0%);fill-opacity:1;" d="M 151.558594 22.441406 L 149.820312 22.578125 L 149.820312 22.96875 C 150.621094 22.96875 150.738281 23.046875 150.738281 23.652344 L 150.738281 27.011719 C 150.738281 27.558594 150.601562 27.558594 149.761719 27.558594 L 149.761719 27.949219 C 150.152344 27.929688 150.835938 27.910156 151.128906 27.910156 C 151.578125 27.910156 152.007812 27.929688 152.4375 27.949219 L 152.4375 27.558594 C 151.597656 27.558594 151.558594 27.5 151.558594 27.011719 L 151.558594 22.441406 Z M 151.597656 20.273438 C 151.597656 19.882812 151.304688 19.609375 150.953125 19.609375 C 150.5625 19.609375 150.289062 19.941406 150.289062 20.273438 C 150.289062 20.605469 150.5625 20.9375 150.953125 20.9375 C 151.304688 20.9375 151.597656 20.664062 151.597656 20.273438 Z M 151.597656 20.273438 "/>
<path style="fill:none;stroke-width:0.3985;stroke-linecap:butt;stroke-linejoin:miter;stroke:rgb(0%,0%,0%);stroke-opacity:1;stroke-miterlimit:10;" d="M 85.04125 85.039875 L 85.04125 58.393 M 85.04125 26.643 L 85.04125 -0.00075 M 85.04125 -0.00075 L -0.0025 -0.00075 " transform="matrix(1.25,0,0,-1.25,66.39375,138.6475)"/>
<path style="fill:none;stroke-width:0.797;stroke-linecap:butt;stroke-linejoin:miter;stroke:rgb(0%,0%,0%);stroke-opacity:1;stroke-miterlimit:10;" d="M 79.088125 26.643 L 79.088125 58.393 L 90.994375 58.393 L 90.994375 26.643 L 79.088125 26.643 Z M 79.088125 26.643 " transform="matrix(1.25,0,0,-1.25,66.39375,138.6475)"/>
<path style=" stroke:none;fill-rule:nonzero;fill:rgb(0%,0%,0%);fill-opacity:1;" d="M 188.949219 81.785156 C 188.949219 81.472656 188.949219 81.453125 188.65625 81.453125 C 187.875 82.253906 186.78125 82.253906 186.390625 82.253906 L 186.390625 82.644531 C 186.644531 82.644531 187.367188 82.644531 188.011719 82.3125 L 188.011719 88.777344 C 188.011719 89.226562 187.972656 89.363281 186.859375 89.363281 L 186.46875 89.363281 L 186.46875 89.753906 C 186.898438 89.714844 187.972656 89.714844 188.480469 89.714844 C 188.96875 89.714844 190.0625 89.714844 190.492188 89.753906 L 190.492188 89.363281 L 190.101562 89.363281 C 188.96875 89.363281 188.949219 89.226562 188.949219 88.777344 L 188.949219 81.785156 Z M 188.949219 81.785156 "/>
<path style=" stroke:none;fill-rule:nonzero;fill:rgb(0%,0%,0%);fill-opacity:1;" d="M 195.175781 81.785156 C 195.175781 81.472656 195.175781 81.453125 194.882812 81.453125 C 194.101562 82.253906 193.007812 82.253906 192.617188 82.253906 L 192.617188 82.644531 C 192.871094 82.644531 193.59375 82.644531 194.238281 82.3125 L 194.238281 88.777344 C 194.238281 89.226562 194.199219 89.363281 193.085938 89.363281 L 192.695312 89.363281 L 192.695312 89.753906 C 193.125 89.714844 194.199219 89.714844 194.707031 89.714844 C 195.195312 89.714844 196.289062 89.714844 196.71875 89.753906 L 196.71875 89.363281 L 196.328125 89.363281 C 195.195312 89.363281 195.175781 89.226562 195.175781 88.777344 L 195.175781 81.785156 Z M 195.175781 81.785156 "/>
<path style=" stroke:none;fill-rule:nonzero;fill:rgb(0%,0%,0%);fill-opacity:1;" d="M 203.453125 85.769531 C 203.453125 84.773438 203.394531 83.777344 202.964844 82.859375 C 202.398438 81.648438 201.363281 81.453125 200.855469 81.453125 C 200.09375 81.453125 199.195312 81.785156 198.667969 82.9375 C 198.277344 83.796875 198.21875 84.773438 198.21875 85.769531 C 198.21875 86.707031 198.257812 87.820312 198.785156 88.777344 C 199.3125 89.773438 200.230469 90.027344 200.835938 90.027344 C 201.5 90.027344 202.457031 89.773438 203.003906 88.582031 C 203.394531 87.722656 203.453125 86.746094 203.453125 85.769531 Z M 200.835938 89.753906 C 200.347656 89.753906 199.605469 89.441406 199.390625 88.25 C 199.253906 87.507812 199.253906 86.355469 199.253906 85.613281 C 199.253906 84.8125 199.253906 83.992188 199.351562 83.328125 C 199.585938 81.84375 200.523438 81.726562 200.835938 81.726562 C 201.246094 81.726562 202.066406 81.960938 202.300781 83.191406 C 202.4375 83.894531 202.4375 84.832031 202.4375 85.613281 C 202.4375 86.550781 202.4375 87.390625 202.300781 88.191406 C 202.105469 89.382812 201.402344 89.753906 200.835938 89.753906 Z M 200.835938 89.753906 "/>
<path style=" stroke:none;fill-rule:nonzero;fill:rgb(0%,0%,0%);fill-opacity:1;" d="M 212.394531 87.742188 L 212.082031 87.742188 C 212.023438 88.054688 211.964844 88.347656 211.847656 88.640625 C 211.789062 88.835938 211.75 88.953125 211.027344 88.953125 L 210.03125 88.953125 C 210.207031 88.25 210.578125 87.644531 211.144531 86.824219 C 211.730469 85.945312 212.238281 85.085938 212.238281 84.089844 C 212.238281 82.371094 210.558594 80.964844 208.449219 80.964844 C 206.320312 80.964844 204.660156 82.390625 204.660156 84.089844 C 204.660156 85.085938 205.167969 85.945312 205.753906 86.824219 C 206.300781 87.644531 206.691406 88.25 206.867188 88.953125 L 205.871094 88.953125 C 205.148438 88.953125 205.109375 88.835938 205.050781 88.660156 C 204.933594 88.367188 204.875 88.054688 204.816406 87.742188 L 204.503906 87.742188 L 204.914062 89.753906 L 206.90625 89.753906 C 207.179688 89.753906 207.21875 89.753906 207.21875 89.5 C 207.21875 88.621094 206.828125 87.527344 206.554688 86.726562 C 206.28125 86.003906 205.929688 85.027344 205.929688 84.089844 C 205.929688 82.097656 207.316406 81.238281 208.449219 81.238281 C 209.640625 81.238281 210.96875 82.136719 210.96875 84.089844 C 210.96875 85.027344 210.617188 85.964844 210.265625 86.980469 C 210.070312 87.507812 209.679688 88.640625 209.679688 89.5 C 209.679688 89.753906 209.71875 89.753906 209.992188 89.753906 L 211.984375 89.753906 L 212.394531 87.742188 Z M 212.394531 87.742188 "/>
<path style="fill:none;stroke-width:0.3985;stroke-linecap:butt;stroke-linejoin:miter;stroke:rgb(0%,0%,0%);stroke-opacity:1;stroke-miterlimit:10;" d="M -0.0025 85.039875 L -13.680625 98.718 " transform="matrix(1.25,0,0,-1.25,66.39375,138.6475)"/>
<path style="fill-rule:nonzero;fill:rgb(0%,0%,0%);fill-opacity:1;stroke-width:0.3985;stroke-linecap:butt;stroke-linejoin:miter;stroke:rgb(0%,0%,0%);stroke-opacity:1;stroke-miterlimit:10;" d="M -4.36137 2.691439 L 0.301056 -0.0000396127 L -4.361446 -2.691387 L -4.36137 2.691439 Z M -4.36137 2.691439 " transform="matrix(-0.8839,-0.883875,-0.883875,0.8839,49.293413,15.2466)"/>
<path style=" stroke:none;fill-rule:nonzero;fill:rgb(0%,0%,0%);fill-opacity:1;" d="M 18.113281 11.601562 C 18.289062 11.132812 18.621094 10.78125 19.480469 10.761719 L 19.480469 10.371094 C 19.089844 10.410156 18.582031 10.410156 18.269531 10.410156 C 17.898438 10.410156 17.175781 10.390625 16.84375 10.371094 L 16.84375 10.761719 C 17.488281 10.78125 17.761719 11.09375 17.761719 11.386719 C 17.761719 11.484375 17.722656 11.5625 17.703125 11.640625 L 15.417969 17.636719 L 13.035156 11.347656 C 12.957031 11.171875 12.957031 11.152344 12.957031 11.132812 C 12.957031 10.761719 13.660156 10.761719 13.972656 10.761719 L 13.972656 10.371094 C 13.523438 10.410156 12.664062 10.410156 12.195312 10.410156 C 11.609375 10.410156 11.0625 10.390625 10.613281 10.371094 L 10.613281 10.761719 C 11.433594 10.761719 11.667969 10.761719 11.84375 11.230469 L 14.734375 18.886719 C 14.8125 19.121094 14.871094 19.160156 15.046875 19.160156 C 15.242188 19.160156 15.28125 19.101562 15.339844 18.925781 L 18.113281 11.601562 Z M 18.113281 11.601562 "/>
<path style=" stroke:none;fill-rule:nonzero;fill:rgb(0%,0%,0%);fill-opacity:1;" d="M 24.542969 16.210938 C 24.542969 14.628906 23.3125 13.300781 21.808594 13.300781 C 20.246094 13.300781 19.035156 14.667969 19.035156 16.210938 C 19.035156 17.832031 20.324219 19.023438 21.789062 19.023438 C 23.292969 19.023438 24.542969 17.792969 24.542969 16.210938 Z M 21.808594 18.710938 C 21.261719 18.710938 20.714844 18.457031 20.382812 17.871094 C 20.070312 17.324219 20.070312 16.5625 20.070312 16.113281 C 20.070312 15.625 20.070312 14.960938 20.363281 14.414062 C 20.695312 13.847656 21.28125 13.574219 21.789062 13.574219 C 22.335938 13.574219 22.863281 13.847656 23.195312 14.394531 C 23.527344 14.921875 23.527344 15.644531 23.527344 16.113281 C 23.527344 16.5625 23.527344 17.246094 23.253906 17.792969 C 22.960938 18.359375 22.414062 18.710938 21.808594 18.710938 Z M 21.808594 18.710938 "/>
<path style=" stroke:none;fill-rule:nonzero;fill:rgb(0%,0%,0%);fill-opacity:1;" d="M 27.117188 13.378906 L 25.378906 13.515625 L 25.378906 13.90625 C 26.179688 13.90625 26.296875 13.984375 26.296875 14.589844 L 26.296875 17.949219 C 26.296875 18.496094 26.160156 18.496094 25.320312 18.496094 L 25.320312 18.886719 C 25.710938 18.867188 26.394531 18.847656 26.6875 18.847656 C 27.136719 18.847656 27.566406 18.867188 27.996094 18.886719 L 27.996094 18.496094 C 27.15625 18.496094 27.117188 18.4375 27.117188 17.949219 L 27.117188 13.378906 Z M 27.15625 11.210938 C 27.15625 10.820312 26.863281 10.546875 26.511719 10.546875 C 26.121094 10.546875 25.847656 10.878906 25.847656 11.210938 C 25.847656 11.542969 26.121094 11.875 26.511719 11.875 C 26.863281 11.875 27.15625 11.601562 27.15625 11.210938 Z M 27.15625 11.210938 "/>
<path style=" stroke:none;fill-rule:nonzero;fill:rgb(0%,0%,0%);fill-opacity:1;" d="M 29.757812 15.742188 C 29.835938 13.886719 30.890625 13.574219 31.320312 13.574219 C 32.589844 13.574219 32.726562 15.253906 32.726562 15.742188 L 29.757812 15.742188 Z M 29.757812 16.015625 L 33.234375 16.015625 C 33.507812 16.015625 33.546875 16.015625 33.546875 15.742188 C 33.546875 14.511719 32.863281 13.300781 31.320312 13.300781 C 29.875 13.300781 28.722656 14.589844 28.722656 16.152344 C 28.722656 17.8125 30.03125 19.023438 31.457031 19.023438 C 32.980469 19.023438 33.546875 17.636719 33.546875 17.402344 C 33.546875 17.285156 33.449219 17.246094 33.371094 17.246094 C 33.273438 17.246094 33.234375 17.324219 33.214844 17.421875 C 32.785156 18.710938 31.652344 18.710938 31.535156 18.710938 C 30.910156 18.710938 30.421875 18.339844 30.128906 17.871094 C 29.757812 17.285156 29.757812 16.464844 29.757812 16.015625 Z M 29.757812 16.015625 "/>
<path style=" stroke:none;fill-rule:nonzero;fill:rgb(0%,0%,0%);fill-opacity:1;" d="M 41.722656 10.917969 C 41.722656 10.605469 41.722656 10.585938 41.429688 10.585938 C 40.648438 11.386719 39.554688 11.386719 39.164062 11.386719 L 39.164062 11.777344 C 39.417969 11.777344 40.140625 11.777344 40.785156 11.445312 L 40.785156 17.910156 C 40.785156 18.359375 40.746094 18.496094 39.632812 18.496094 L 39.242188 18.496094 L 39.242188 18.886719 C 39.671875 18.847656 40.746094 18.847656 41.253906 18.847656 C 41.742188 18.847656 42.835938 18.847656 43.265625 18.886719 L 43.265625 18.496094 L 42.875 18.496094 C 41.742188 18.496094 41.722656 18.359375 41.722656 17.910156 L 41.722656 10.917969 Z M 41.722656 10.917969 "/>
<path style="fill:none;stroke-width:0.3985;stroke-linecap:butt;stroke-linejoin:miter;stroke:rgb(0%,0%,0%);stroke-opacity:1;stroke-miterlimit:10;" d="M 85.04125 85.039875 L 98.719375 98.718 " transform="matrix(1.25,0,0,-1.25,66.39375,138.6475)"/>
<path style="fill-rule:nonzero;fill:rgb(0%,0%,0%);fill-opacity:1;stroke-width:0.3985;stroke-linecap:butt;stroke-linejoin:miter;stroke:rgb(0%,0%,0%);stroke-opacity:1;stroke-miterlimit:10;" d="M -4.360424 2.690365 L 0.299868 0.00122753 L -4.360348 -2.692461 L -4.360424 2.690365 Z M -4.360424 2.690365 " transform="matrix(0.8839,-0.883875,-0.883875,-0.8839,189.794625,15.2466)"/>
<path style=" stroke:none;fill-rule:nonzero;fill:rgb(0%,0%,0%);fill-opacity:1;" d="M 202.542969 11.601562 C 202.71875 11.132812 203.050781 10.78125 203.910156 10.761719 L 203.910156 10.371094 C 203.519531 10.410156 203.011719 10.410156 202.699219 10.410156 C 202.328125 10.410156 201.605469 10.390625 201.273438 10.371094 L 201.273438 10.761719 C 201.917969 10.78125 202.191406 11.09375 202.191406 11.386719 C 202.191406 11.484375 202.152344 11.5625 202.132812 11.640625 L 199.847656 17.636719 L 197.464844 11.347656 C 197.386719 11.171875 197.386719 11.152344 197.386719 11.132812 C 197.386719 10.761719 198.089844 10.761719 198.402344 10.761719 L 198.402344 10.371094 C 197.953125 10.410156 197.09375 10.410156 196.625 10.410156 C 196.039062 10.410156 195.492188 10.390625 195.042969 10.371094 L 195.042969 10.761719 C 195.863281 10.761719 196.097656 10.761719 196.273438 11.230469 L 199.164062 18.886719 C 199.242188 19.121094 199.300781 19.160156 199.476562 19.160156 C 199.671875 19.160156 199.710938 19.101562 199.769531 18.925781 L 202.542969 11.601562 Z M 202.542969 11.601562 "/>
<path style=" stroke:none;fill-rule:nonzero;fill:rgb(0%,0%,0%);fill-opacity:1;" d="M 208.976562 16.210938 C 208.976562 14.628906 207.746094 13.300781 206.242188 13.300781 C 204.679688 13.300781 203.46875 14.667969 203.46875 16.210938 C 203.46875 17.832031 204.757812 19.023438 206.222656 19.023438 C 207.726562 19.023438 208.976562 17.792969 208.976562 16.210938 Z M 206.242188 18.710938 C 205.695312 18.710938 205.148438 18.457031 204.816406 17.871094 C 204.503906 17.324219 204.503906 16.5625 204.503906 16.113281 C 204.503906 15.625 204.503906 14.960938 204.796875 14.414062 C 205.128906 13.847656 205.714844 13.574219 206.222656 13.574219 C 206.769531 13.574219 207.296875 13.847656 207.628906 14.394531 C 207.960938 14.921875 207.960938 15.644531 207.960938 16.113281 C 207.960938 16.5625 207.960938 17.246094 207.6875 17.792969 C 207.394531 18.359375 206.847656 18.710938 206.242188 18.710938 Z M 206.242188 18.710938 "/>
<path style=" stroke:none;fill-rule:nonzero;fill:rgb(0%,0%,0%);fill-opacity:1;" d="M 211.550781 13.378906 L 209.8125 13.515625 L 209.8125 13.90625 C 210.613281 13.90625 210.730469 13.984375 210.730469 14.589844 L 210.730469 17.949219 C 210.730469 18.496094 210.59375 18.496094 209.753906 18.496094 L 209.753906 18.886719 C 210.144531 18.867188 210.828125 18.847656 211.121094 18.847656 C 211.570312 18.847656 212 18.867188 212.429688 18.886719 L 212.429688 18.496094 C 211.589844 18.496094 211.550781 18.4375 211.550781 17.949219 L 211.550781 13.378906 Z M 211.589844 11.210938 C 211.589844 10.820312 211.296875 10.546875 210.945312 10.546875 C 210.554688 10.546875 210.28125 10.878906 210.28125 11.210938 C 210.28125 11.542969 210.554688 11.875 210.945312 11.875 C 211.296875 11.875 211.589844 11.601562 211.589844 11.210938 Z M 211.589844 11.210938 "/>
<path style=" stroke:none;fill-rule:nonzero;fill:rgb(0%,0%,0%);fill-opacity:1;" d="M 214.1875 15.742188 C 214.265625 13.886719 215.320312 13.574219 215.75 13.574219 C 217.019531 13.574219 217.15625 15.253906 217.15625 15.742188 L 214.1875 15.742188 Z M 214.1875 16.015625 L 217.664062 16.015625 C 217.9375 16.015625 217.976562 16.015625 217.976562 15.742188 C 217.976562 14.511719 217.292969 13.300781 215.75 13.300781 C 214.304688 13.300781 213.152344 14.589844 213.152344 16.152344 C 213.152344 17.8125 214.460938 19.023438 215.886719 19.023438 C 217.410156 19.023438 217.976562 17.636719 217.976562 17.402344 C 217.976562 17.285156 217.878906 17.246094 217.800781 17.246094 C 217.703125 17.246094 217.664062 17.324219 217.644531 17.421875 C 217.214844 18.710938 216.082031 18.710938 215.964844 18.710938 C 215.339844 18.710938 214.851562 18.339844 214.558594 17.871094 C 214.1875 17.285156 214.1875 16.464844 214.1875 16.015625 Z M 214.1875 16.015625 "/>
<path style=" stroke:none;fill-rule:nonzero;fill:rgb(0%,0%,0%);fill-opacity:1;" d="M 224.066406 17.929688 L 225.394531 16.640625 C 227.328125 14.921875 228.070312 14.257812 228.070312 13.007812 C 228.070312 11.582031 226.957031 10.585938 225.433594 10.585938 C 224.027344 10.585938 223.109375 11.738281 223.109375 12.851562 C 223.109375 13.535156 223.734375 13.535156 223.773438 13.535156 C 223.988281 13.535156 224.417969 13.398438 224.417969 12.871094 C 224.417969 12.558594 224.183594 12.226562 223.753906 12.226562 C 223.65625 12.226562 223.636719 12.226562 223.597656 12.246094 C 223.871094 11.425781 224.554688 10.976562 225.277344 10.976562 C 226.410156 10.976562 226.9375 11.992188 226.9375 13.007812 C 226.9375 14.003906 226.332031 14.980469 225.628906 15.761719 L 223.246094 18.417969 C 223.109375 18.554688 223.109375 18.59375 223.109375 18.886719 L 227.738281 18.886719 L 228.070312 16.71875 L 227.777344 16.71875 C 227.699219 17.089844 227.621094 17.636719 227.484375 17.832031 C 227.40625 17.929688 226.585938 17.929688 226.3125 17.929688 L 224.066406 17.929688 Z M 224.066406 17.929688 "/>
<path style="fill:none;stroke-width:0.3985;stroke-linecap:butt;stroke-linejoin:miter;stroke:rgb(0%,0%,0%);stroke-opacity:1;stroke-miterlimit:10;" d="M 70.86625 14.171125 L 70.86625 70.168 " transform="matrix(1.25,0,0,-1.25,66.39375,138.6475)"/>
<path style="fill-rule:nonzero;fill:rgb(0%,0%,0%);fill-opacity:1;stroke-width:0.3985;stroke-linecap:butt;stroke-linejoin:miter;stroke:rgb(0%,0%,0%);stroke-opacity:1;stroke-miterlimit:10;" d="M -4.361005 2.68825 L 0.29837 0.00075 L -4.361005 -2.689875 L -4.361005 2.68825 Z M -4.361005 2.68825 " transform="matrix(0,-1.25,-1.25,0,154.9775,50.935462)"/>
<path style=" stroke:none;fill-rule:nonzero;fill:rgb(0%,0%,0%);fill-opacity:1;" d="M 125.453125 87.90625 C 125.589844 88.414062 126.039062 88.746094 126.566406 88.746094 C 126.996094 88.746094 127.289062 88.453125 127.484375 88.0625 C 127.699219 87.613281 127.855469 86.851562 127.855469 86.832031 C 127.855469 86.695312 127.757812 86.695312 127.71875 86.695312 C 127.582031 86.695312 127.582031 86.753906 127.542969 86.929688 C 127.367188 87.632812 127.132812 88.472656 126.605469 88.472656 C 126.351562 88.472656 126.214844 88.316406 126.214844 87.90625 C 126.214844 87.632812 126.371094 87.046875 126.46875 86.597656 L 126.820312 85.25 C 126.859375 85.074219 126.976562 84.605469 127.035156 84.410156 C 127.09375 84.117188 127.210938 83.648438 127.210938 83.570312 C 127.210938 83.355469 127.035156 83.238281 126.859375 83.238281 C 126.800781 83.238281 126.46875 83.257812 126.371094 83.667969 C 126.136719 84.585938 125.589844 86.773438 125.433594 87.417969 C 125.414062 87.476562 124.925781 88.472656 124.007812 88.472656 C 123.363281 88.472656 123.246094 87.90625 123.246094 87.457031 C 123.246094 86.753906 123.597656 85.777344 123.910156 84.917969 C 124.066406 84.527344 124.125 84.351562 124.125 84.117188 C 124.125 83.570312 123.734375 83.101562 123.109375 83.101562 C 121.917969 83.101562 121.46875 84.917969 121.46875 85.015625 C 121.46875 85.152344 121.585938 85.152344 121.605469 85.152344 C 121.742188 85.152344 121.742188 85.113281 121.800781 84.917969 C 122.113281 83.84375 122.601562 83.375 123.070312 83.375 C 123.1875 83.375 123.382812 83.394531 123.382812 83.785156 C 123.382812 84.078125 123.246094 84.449219 123.167969 84.625 C 122.699219 85.875 122.445312 86.636719 122.445312 87.242188 C 122.445312 88.433594 123.304688 88.746094 123.96875 88.746094 C 124.789062 88.746094 125.238281 88.179688 125.453125 87.90625 Z M 125.453125 87.90625 "/>
<path style=" stroke:none;fill-rule:nonzero;fill:rgb(0%,0%,0%);fill-opacity:1;" d="M 131.820312 85.148438 C 131.878906 84.894531 131.898438 84.875 132.09375 84.835938 L 132.660156 84.835938 C 133.460938 84.835938 134.457031 84.835938 134.457031 85.734375 C 134.457031 86.105469 134.300781 86.652344 133.890625 86.964844 C 133.539062 87.238281 132.992188 87.375 132.386719 87.375 L 131.273438 87.375 L 131.820312 85.148438 Z M 133.402344 87.511719 C 134.4375 87.277344 135.355469 86.652344 135.355469 85.871094 C 135.355469 85.128906 134.476562 84.523438 133.207031 84.523438 L 130.53125 84.523438 C 130.375 84.523438 130.257812 84.523438 130.257812 84.71875 C 130.257812 84.835938 130.355469 84.835938 130.53125 84.835938 C 130.550781 84.835938 130.707031 84.835938 130.863281 84.855469 C 131.058594 84.875 131.058594 84.894531 131.058594 84.992188 C 131.058594 84.992188 131.058594 85.050781 131.039062 85.167969 L 129.867188 89.796875 C 129.808594 90.089844 129.789062 90.167969 129.105469 90.167969 C 128.949219 90.167969 128.851562 90.167969 128.851562 90.34375 C 128.851562 90.441406 128.910156 90.480469 128.988281 90.480469 C 129.144531 90.480469 129.359375 90.460938 129.515625 90.460938 C 129.691406 90.460938 129.945312 90.441406 130.101562 90.441406 C 130.277344 90.441406 130.472656 90.460938 130.648438 90.460938 C 130.84375 90.460938 131.058594 90.480469 131.234375 90.480469 C 131.292969 90.480469 131.429688 90.480469 131.429688 90.304688 C 131.429688 90.167969 131.332031 90.167969 131.136719 90.167969 C 131 90.167969 130.960938 90.167969 130.804688 90.148438 C 130.609375 90.128906 130.609375 90.109375 130.609375 90.011719 C 130.609375 90.011719 130.609375 89.953125 130.648438 89.835938 L 131.195312 87.628906 L 132.386719 87.628906 C 133.128906 87.628906 133.460938 88 133.460938 88.410156 C 133.460938 88.527344 133.382812 88.820312 133.324219 89.015625 C 133.226562 89.425781 133.1875 89.542969 133.1875 89.699219 C 133.1875 90.382812 133.832031 90.65625 134.476562 90.65625 C 135.277344 90.65625 135.628906 89.796875 135.628906 89.640625 C 135.628906 89.621094 135.609375 89.523438 135.472656 89.523438 C 135.355469 89.523438 135.335938 89.582031 135.316406 89.679688 C 135.199219 90.050781 134.867188 90.402344 134.515625 90.402344 C 134.28125 90.402344 134.105469 90.324219 134.105469 89.835938 C 134.105469 89.621094 134.164062 89.171875 134.203125 88.9375 C 134.242188 88.703125 134.242188 88.625 134.242188 88.527344 C 134.242188 88.429688 134.242188 88.136719 133.988281 87.882812 C 133.832031 87.707031 133.597656 87.589844 133.402344 87.511719 Z M 133.402344 87.511719 "/>
<path style=" stroke:none;fill-rule:nonzero;fill:rgb(0%,0%,0%);fill-opacity:1;" d="M 140.515625 91.597656 C 140.515625 91.558594 140.515625 91.539062 140.300781 91.324219 C 138.757812 89.761719 138.347656 87.398438 138.347656 85.484375 C 138.347656 83.316406 138.816406 81.148438 140.359375 79.605469 C 140.515625 79.449219 140.515625 79.429688 140.515625 79.390625 C 140.515625 79.292969 140.476562 79.253906 140.398438 79.253906 C 140.261719 79.253906 139.148438 80.113281 138.40625 81.695312 C 137.78125 83.0625 137.625 84.449219 137.625 85.484375 C 137.625 86.460938 137.761719 87.964844 138.445312 89.390625 C 139.207031 90.914062 140.261719 91.734375 140.398438 91.734375 C 140.476562 91.734375 140.515625 91.695312 140.515625 91.597656 Z M 140.515625 91.597656 "/>
<path style=" stroke:none;fill-rule:nonzero;fill:rgb(0%,0%,0%);fill-opacity:1;" d="M 143.796875 83.628906 L 144.96875 83.628906 C 145.222656 83.628906 145.359375 83.628906 145.359375 83.375 C 145.359375 83.238281 145.222656 83.238281 145.007812 83.238281 L 143.914062 83.238281 C 144.363281 81.460938 144.421875 81.226562 144.421875 81.148438 C 144.421875 80.933594 144.265625 80.816406 144.050781 80.816406 C 144.011719 80.816406 143.660156 80.816406 143.5625 81.265625 L 143.074219 83.238281 L 141.902344 83.238281 C 141.648438 83.238281 141.53125 83.238281 141.53125 83.472656 C 141.53125 83.628906 141.628906 83.628906 141.882812 83.628906 L 142.976562 83.628906 C 142.078125 87.164062 142.019531 87.378906 142.019531 87.59375 C 142.019531 88.277344 142.488281 88.746094 143.171875 88.746094 C 144.441406 88.746094 145.144531 86.929688 145.144531 86.832031 C 145.144531 86.695312 145.046875 86.695312 145.007812 86.695312 C 144.890625 86.695312 144.871094 86.734375 144.8125 86.871094 C 144.285156 88.179688 143.621094 88.472656 143.191406 88.472656 C 142.9375 88.472656 142.800781 88.316406 142.800781 87.90625 C 142.800781 87.59375 142.839844 87.515625 142.878906 87.300781 L 143.796875 83.628906 Z M 143.796875 83.628906 "/>
<path style=" stroke:none;fill-rule:nonzero;fill:rgb(0%,0%,0%);fill-opacity:1;" d="M 149.328125 85.484375 C 149.328125 84.527344 149.191406 83.023438 148.507812 81.597656 C 147.765625 80.074219 146.691406 79.253906 146.574219 79.253906 C 146.496094 79.253906 146.4375 79.3125 146.4375 79.390625 C 146.4375 79.429688 146.4375 79.449219 146.671875 79.683594 C 147.902344 80.914062 148.605469 82.886719 148.605469 85.484375 C 148.605469 87.632812 148.15625 89.820312 146.613281 91.382812 C 146.4375 91.539062 146.4375 91.558594 146.4375 91.597656 C 146.4375 91.675781 146.496094 91.734375 146.574219 91.734375 C 146.691406 91.734375 147.824219 90.875 148.546875 89.292969 C 149.191406 87.925781 149.328125 86.539062 149.328125 85.484375 Z M 149.328125 85.484375 "/>
<path style="fill:none;stroke-width:0.3985;stroke-linecap:butt;stroke-linejoin:miter;stroke:rgb(0%,0%,0%);stroke-opacity:1;stroke-miterlimit:10;" d="M -19.843125 14.171125 L -19.843125 70.168 " transform="matrix(1.25,0,0,-1.25,66.39375,138.6475)"/>
<path style="fill-rule:nonzero;fill:rgb(0%,0%,0%);fill-opacity:1;stroke-width:0.3985;stroke-linecap:butt;stroke-linejoin:miter;stroke:rgb(0%,0%,0%);stroke-opacity:1;stroke-miterlimit:10;" d="M -4.361005 2.69108 L 0.29837 -0.00267 L -4.361005 -2.687045 L -4.361005 2.69108 Z M -4.361005 2.69108 " transform="matrix(0,-1.25,-1.25,0,41.590412,50.935462)"/>
<path style=" stroke:none;fill-rule:nonzero;fill:rgb(0%,0%,0%);fill-opacity:1;" d="M 19.535156 85.738281 C 19.90625 85.738281 20.824219 85.699219 21.449219 85.445312 C 22.328125 85.074219 22.386719 84.332031 22.386719 84.15625 C 22.386719 83.609375 21.917969 83.101562 21.058594 83.101562 C 19.671875 83.101562 17.777344 84.3125 17.777344 86.5 C 17.777344 87.769531 18.519531 88.746094 19.75 88.746094 C 21.527344 88.746094 22.5625 87.417969 22.5625 87.28125 C 22.5625 87.203125 22.503906 87.105469 22.425781 87.105469 C 22.347656 87.105469 22.328125 87.144531 22.25 87.242188 C 21.273438 88.472656 19.90625 88.472656 19.769531 88.472656 C 18.792969 88.472656 18.675781 87.417969 18.675781 87.027344 C 18.675781 86.871094 18.695312 86.5 18.871094 85.738281 L 19.535156 85.738281 Z M 18.949219 85.464844 C 19.4375 83.570312 20.726562 83.375 21.058594 83.375 C 21.625 83.375 21.976562 83.746094 21.976562 84.15625 C 21.976562 85.464844 19.984375 85.464844 19.457031 85.464844 L 18.949219 85.464844 Z M 18.949219 85.464844 "/>
<path style=" stroke:none;fill-rule:nonzero;fill:rgb(0%,0%,0%);fill-opacity:1;" d="M 27.128906 91.597656 C 27.128906 91.558594 27.128906 91.539062 26.914062 91.324219 C 25.371094 89.761719 24.960938 87.398438 24.960938 85.484375 C 24.960938 83.316406 25.429688 81.148438 26.972656 79.605469 C 27.128906 79.449219 27.128906 79.429688 27.128906 79.390625 C 27.128906 79.292969 27.089844 79.253906 27.011719 79.253906 C 26.875 79.253906 25.761719 80.113281 25.019531 81.695312 C 24.394531 83.0625 24.238281 84.449219 24.238281 85.484375 C 24.238281 86.460938 24.375 87.964844 25.058594 89.390625 C 25.820312 90.914062 26.875 91.734375 27.011719 91.734375 C 27.089844 91.734375 27.128906 91.695312 27.128906 91.597656 Z M 27.128906 91.597656 "/>
<path style=" stroke:none;fill-rule:nonzero;fill:rgb(0%,0%,0%);fill-opacity:1;" d="M 30.410156 83.628906 L 31.582031 83.628906 C 31.835938 83.628906 31.972656 83.628906 31.972656 83.375 C 31.972656 83.238281 31.835938 83.238281 31.621094 83.238281 L 30.527344 83.238281 C 30.976562 81.460938 31.035156 81.226562 31.035156 81.148438 C 31.035156 80.933594 30.878906 80.816406 30.664062 80.816406 C 30.625 80.816406 30.273438 80.816406 30.175781 81.265625 L 29.6875 83.238281 L 28.515625 83.238281 C 28.261719 83.238281 28.144531 83.238281 28.144531 83.472656 C 28.144531 83.628906 28.242188 83.628906 28.496094 83.628906 L 29.589844 83.628906 C 28.691406 87.164062 28.632812 87.378906 28.632812 87.59375 C 28.632812 88.277344 29.101562 88.746094 29.785156 88.746094 C 31.054688 88.746094 31.757812 86.929688 31.757812 86.832031 C 31.757812 86.695312 31.660156 86.695312 31.621094 86.695312 C 31.503906 86.695312 31.484375 86.734375 31.425781 86.871094 C 30.898438 88.179688 30.234375 88.472656 29.804688 88.472656 C 29.550781 88.472656 29.414062 88.316406 29.414062 87.90625 C 29.414062 87.59375 29.453125 87.515625 29.492188 87.300781 L 30.410156 83.628906 Z M 30.410156 83.628906 "/>
<path style=" stroke:none;fill-rule:nonzero;fill:rgb(0%,0%,0%);fill-opacity:1;" d="M 35.941406 85.484375 C 35.941406 84.527344 35.804688 83.023438 35.121094 81.597656 C 34.378906 80.074219 33.304688 79.253906 33.1875 79.253906 C 33.109375 79.253906 33.050781 79.3125 33.050781 79.390625 C 33.050781 79.429688 33.050781 79.449219 33.285156 79.683594 C 34.515625 80.914062 35.21875 82.886719 35.21875 85.484375 C 35.21875 87.632812 34.769531 89.820312 33.226562 91.382812 C 33.050781 91.539062 33.050781 91.558594 33.050781 91.597656 C 33.050781 91.675781 33.109375 91.734375 33.1875 91.734375 C 33.304688 91.734375 34.4375 90.875 35.160156 89.292969 C 35.804688 87.925781 35.941406 86.539062 35.941406 85.484375 Z M 35.941406 85.484375 "/>
<path style="fill:none;stroke-width:0.3985;stroke-linecap:butt;stroke-linejoin:miter;stroke:rgb(0%,0%,0%);stroke-opacity:1;stroke-miterlimit:10;" d="M -0.0025 -0.00075 L -0.0025 -11.341375 " transform="matrix(1.25,0,0,-1.25,66.39375,138.6475)"/>
<path style="fill:none;stroke-width:0.3985;stroke-linecap:butt;stroke-linejoin:miter;stroke:rgb(0%,0%,0%);stroke-opacity:1;stroke-miterlimit:10;" d="M -8.505625 -11.341375 L 8.500625 -11.341375 " transform="matrix(1.25,0,0,-1.25,66.39375,138.6475)"/>
<path style="fill:none;stroke-width:0.3985;stroke-linecap:butt;stroke-linejoin:miter;stroke:rgb(0%,0%,0%);stroke-opacity:1;stroke-miterlimit:10;" d="M -8.505625 -11.341375 L -14.174375 -17.007 " transform="matrix(1.25,0,0,-1.25,66.39375,138.6475)"/>
<path style="fill:none;stroke-width:0.3985;stroke-linecap:butt;stroke-linejoin:miter;stroke:rgb(0%,0%,0%);stroke-opacity:1;stroke-miterlimit:10;" d="M -5.67125 -11.341375 L -11.336875 -17.007 " transform="matrix(1.25,0,0,-1.25,66.39375,138.6475)"/>
<path style="fill:none;stroke-width:0.3985;stroke-linecap:butt;stroke-linejoin:miter;stroke:rgb(0%,0%,0%);stroke-opacity:1;stroke-miterlimit:10;" d="M -2.83375 -11.341375 L -8.505625 -17.007 " transform="matrix(1.25,0,0,-1.25,66.39375,138.6475)"/>
<path style="fill:none;stroke-width:0.3985;stroke-linecap:butt;stroke-linejoin:miter;stroke:rgb(0%,0%,0%);stroke-opacity:1;stroke-miterlimit:10;" d="M -0.0025 -11.341375 L -5.67125 -17.007 " transform="matrix(1.25,0,0,-1.25,66.39375,138.6475)"/>
<path style="fill:none;stroke-width:0.3985;stroke-linecap:butt;stroke-linejoin:miter;stroke:rgb(0%,0%,0%);stroke-opacity:1;stroke-miterlimit:10;" d="M 2.835 -11.341375 L -2.83375 -17.007 " transform="matrix(1.25,0,0,-1.25,66.39375,138.6475)"/>
<path style="fill:none;stroke-width:0.3985;stroke-linecap:butt;stroke-linejoin:miter;stroke:rgb(0%,0%,0%);stroke-opacity:1;stroke-miterlimit:10;" d="M 5.669375 -11.341375 L -0.0025 -17.007 " transform="matrix(1.25,0,0,-1.25,66.39375,138.6475)"/>
<path style="fill:none;stroke-width:0.3985;stroke-linecap:butt;stroke-linejoin:miter;stroke:rgb(0%,0%,0%);stroke-opacity:1;stroke-miterlimit:10;" d="M 8.500625 -11.341375 L 2.835 -17.007 " transform="matrix(1.25,0,0,-1.25,66.39375,138.6475)"/>
</g>
</svg>
