<?xml version="1.0" encoding="UTF-8"?>
<!-- Converted by misc2svg (http://www.network-science.de/tools/misc2svg/) -->
<svg xmlns="http://www.w3.org/2000/svg" xmlns:xlink="http://www.w3.org/1999/xlink" width="327pt" height="146pt" viewBox="0 0 327 146" version="1.1">
<g id="misc2svg">
<path style="fill:none;stroke-width:0.3985;stroke-linecap:butt;stroke-linejoin:miter;stroke:rgb(0%,0%,0%);stroke-opacity:1;stroke-miterlimit:10;" d="M -0.00025 -0.001375 L -0.00025 30.61425 M -0.00025 54.42675 L -0.00025 85.03925 M -15.715875 33.4455 L -15.715875 51.592375 M -0.00025 85.03925 L 26.646625 85.03925 M 58.396625 85.03925 L 85.040375 85.03925 M 85.040375 85.03925 L 106.4435 85.03925 M 120.334125 85.03925 L 141.73725 85.03925 " transform="matrix(1.25,0,0,-1.25,39.305,139.135)"/>
<path style="fill:none;stroke-width:0.797;stroke-linecap:butt;stroke-linejoin:miter;stroke:rgb(0%,0%,0%);stroke-opacity:1;stroke-miterlimit:10;" d="M -11.903375 42.5205 C -11.903375 35.9455 -6.57525 30.61425 -0.00025 30.61425 C 6.57475 30.61425 11.909125 35.9455 11.909125 42.5205 C 11.909125 49.098625 6.57475 54.42675 -0.00025 54.42675 C -6.57525 54.42675 -11.903375 49.098625 -11.903375 42.5205 Z M -0.00025 30.61425 L -0.00025 54.42675 " transform="matrix(1.25,0,0,-1.25,39.305,139.135)"/>
<path style="fill-rule:nonzero;fill:rgb(0%,0%,0%);fill-opacity:1;stroke-width:0.3985;stroke-linecap:butt;stroke-linejoin:miter;stroke:rgb(0%,0%,0%);stroke-opacity:1;stroke-miterlimit:10;" d="M -15.715875 49.858 L -13.7315 49.858 L -15.715875 54.073625 L -17.697125 49.858 L -15.715875 49.858 " transform="matrix(1.25,0,0,-1.25,39.305,139.135)"/>
<path style=" stroke:none;fill-rule:nonzero;fill:rgb(0%,0%,0%);fill-opacity:1;" d="M 15.054688 87.332031 C 15.074219 87.273438 15.113281 87.195312 15.113281 87.15625 C 15.113281 87.15625 15.113281 87.019531 14.957031 87.019531 C 14.839844 87.019531 14.820312 87.097656 14.800781 87.175781 C 13.980469 89.011719 13.53125 89.851562 11.402344 89.851562 L 9.585938 89.851562 C 9.410156 89.851562 9.371094 89.851562 9.3125 89.851562 C 9.175781 89.832031 9.136719 89.8125 9.136719 89.714844 C 9.136719 89.675781 9.136719 89.65625 9.195312 89.441406 L 10.054688 86.023438 L 11.285156 86.023438 C 12.339844 86.023438 12.339844 86.296875 12.339844 86.609375 C 12.339844 86.6875 12.339844 86.84375 12.261719 87.214844 C 12.242188 87.273438 12.222656 87.3125 12.222656 87.351562 C 12.222656 87.410156 12.261719 87.488281 12.378906 87.488281 C 12.476562 87.488281 12.515625 87.429688 12.574219 87.234375 L 13.277344 84.324219 C 13.277344 84.246094 13.21875 84.1875 13.121094 84.1875 C 13.023438 84.1875 12.984375 84.265625 12.964844 84.402344 C 12.691406 85.359375 12.476562 85.652344 11.324219 85.652344 L 10.152344 85.652344 L 10.894531 82.644531 C 11.011719 82.195312 11.03125 82.15625 11.578125 82.15625 L 13.335938 82.15625 C 14.839844 82.15625 15.230469 82.507812 15.230469 83.542969 C 15.230469 83.835938 15.230469 83.855469 15.171875 84.207031 C 15.171875 84.265625 15.152344 84.363281 15.152344 84.421875 C 15.152344 84.480469 15.191406 84.578125 15.308594 84.578125 C 15.445312 84.578125 15.464844 84.5 15.484375 84.265625 L 15.738281 82.097656 C 15.777344 81.765625 15.71875 81.765625 15.40625 81.765625 L 9.097656 81.765625 C 8.863281 81.765625 8.726562 81.765625 8.726562 82.019531 C 8.726562 82.15625 8.84375 82.15625 9.078125 82.15625 C 9.546875 82.15625 9.898438 82.15625 9.898438 82.371094 C 9.898438 82.429688 9.898438 82.449219 9.820312 82.683594 L 8.179688 89.265625 C 8.0625 89.753906 8.042969 89.851562 7.046875 89.851562 C 6.832031 89.851562 6.695312 89.851562 6.695312 90.085938 C 6.695312 90.242188 6.8125 90.242188 7.046875 90.242188 L 13.511719 90.242188 C 13.804688 90.242188 13.824219 90.222656 13.902344 90.027344 L 15.054688 87.332031 Z M 15.054688 87.332031 "/>
<path style="fill:none;stroke-width:0.797;stroke-linecap:butt;stroke-linejoin:miter;stroke:rgb(0%,0%,0%);stroke-opacity:1;stroke-miterlimit:10;" d="M 26.646625 90.992375 L 58.396625 90.992375 L 58.396625 79.08925 L 26.646625 79.08925 L 26.646625 90.992375 Z M 26.646625 90.992375 " transform="matrix(1.25,0,0,-1.25,39.305,139.135)"/>
<path style=" stroke:none;fill-rule:nonzero;fill:rgb(0%,0%,0%);fill-opacity:1;" d="M 92.347656 12.59375 C 92.425781 12.300781 92.464844 12.183594 92.699219 12.144531 C 92.816406 12.125 93.207031 12.125 93.460938 12.125 C 94.339844 12.125 95.726562 12.125 95.726562 13.355469 C 95.726562 13.785156 95.53125 14.644531 95.042969 15.132812 C 94.710938 15.445312 94.066406 15.855469 92.933594 15.855469 L 91.546875 15.855469 L 92.347656 12.59375 Z M 94.144531 16.011719 C 95.414062 15.738281 96.878906 14.859375 96.878906 13.609375 C 96.878906 12.535156 95.765625 11.734375 94.125 11.734375 L 90.589844 11.734375 C 90.335938 11.734375 90.21875 11.734375 90.21875 11.988281 C 90.21875 12.125 90.335938 12.125 90.570312 12.125 C 90.589844 12.125 90.824219 12.125 91.039062 12.144531 C 91.273438 12.183594 91.371094 12.183594 91.371094 12.359375 C 91.371094 12.398438 91.371094 12.4375 91.332031 12.59375 L 89.652344 19.273438 C 89.535156 19.761719 89.515625 19.859375 88.519531 19.859375 C 88.304688 19.859375 88.1875 19.859375 88.1875 20.113281 C 88.1875 20.25 88.34375 20.25 88.363281 20.25 C 88.714844 20.25 89.59375 20.210938 89.925781 20.210938 C 90.277344 20.210938 91.175781 20.25 91.527344 20.25 C 91.625 20.25 91.761719 20.25 91.761719 19.996094 C 91.761719 19.859375 91.664062 19.859375 91.410156 19.859375 C 90.960938 19.859375 90.609375 19.859375 90.609375 19.644531 C 90.609375 19.566406 90.628906 19.507812 90.648438 19.429688 L 91.46875 16.128906 L 92.953125 16.128906 C 94.085938 16.128906 94.300781 16.832031 94.300781 17.261719 C 94.300781 17.4375 94.203125 17.828125 94.125 18.121094 C 94.046875 18.472656 93.929688 18.921875 93.929688 19.175781 C 93.929688 20.523438 95.433594 20.523438 95.589844 20.523438 C 96.644531 20.523438 97.09375 19.273438 97.09375 19.097656 C 97.09375 18.941406 96.957031 18.941406 96.9375 18.941406 C 96.820312 18.941406 96.800781 19.019531 96.78125 19.117188 C 96.46875 20.035156 95.921875 20.25 95.648438 20.25 C 95.238281 20.25 95.140625 19.976562 95.140625 19.488281 C 95.140625 19.097656 95.21875 18.472656 95.277344 18.0625 C 95.296875 17.886719 95.316406 17.652344 95.316406 17.476562 C 95.316406 16.519531 94.476562 16.128906 94.144531 16.011719 Z M 94.144531 16.011719 "/>
<path style="fill:none;stroke-width:0.797;stroke-linecap:butt;stroke-linejoin:miter;stroke:rgb(0%,0%,0%);stroke-opacity:1;stroke-miterlimit:10;" d="M 106.4435 85.03925 L 117.556 91.983 M 107.13725 91.292375 C 110.856 89.554875 113.621625 86.261125 114.49975 82.979875 " transform="matrix(1.25,0,0,-1.25,39.305,139.135)"/>
<path style="fill:none;stroke-width:0.63759;stroke-linecap:round;stroke-linejoin:round;stroke:rgb(0%,0%,0%);stroke-opacity:1;stroke-miterlimit:10;" d="M -1.554369 2.072828 C -1.423702 1.295168 0.00174364 0.131835 0.389132 -0.00102264 C 0.000431973 -0.126126 -1.42337 -1.294504 -1.554484 -2.073057 " transform="matrix(0.32415,1.209775,1.209775,-0.32415,182.429787,35.407813)"/>
<path style=" stroke:none;fill-rule:nonzero;fill:rgb(0%,0%,0%);fill-opacity:1;" d="M 181.175781 13.671875 L 183.421875 11.503906 C 183.519531 11.40625 184.183594 10.78125 185.199219 10.761719 L 185.199219 10.371094 C 184.867188 10.410156 184.476562 10.410156 184.125 10.410156 C 183.675781 10.410156 182.972656 10.410156 182.542969 10.371094 L 182.542969 10.761719 C 183.050781 10.78125 183.128906 11.054688 183.128906 11.171875 C 183.128906 11.367188 182.992188 11.503906 182.894531 11.582031 L 179.007812 15.3125 L 179.007812 11.347656 C 179.007812 10.898438 179.027344 10.761719 179.984375 10.761719 L 180.277344 10.761719 L 180.277344 10.371094 C 179.847656 10.410156 178.929688 10.410156 178.441406 10.410156 C 177.972656 10.410156 177.035156 10.410156 176.605469 10.371094 L 176.605469 10.761719 L 176.898438 10.761719 C 177.855469 10.761719 177.894531 10.898438 177.894531 11.347656 L 177.894531 17.910156 C 177.894531 18.359375 177.855469 18.496094 176.898438 18.496094 L 176.605469 18.496094 L 176.605469 18.886719 C 177.035156 18.847656 177.972656 18.847656 178.441406 18.847656 C 178.910156 18.847656 179.847656 18.847656 180.277344 18.886719 L 180.277344 18.496094 L 179.984375 18.496094 C 179.027344 18.496094 179.007812 18.359375 179.007812 17.910156 L 179.007812 15.742188 L 180.453125 14.355469 L 182.699219 17.695312 C 182.777344 17.8125 182.894531 17.96875 182.894531 18.125 C 182.894531 18.496094 182.40625 18.496094 182.152344 18.496094 L 182.152344 18.886719 C 182.582031 18.847656 183.460938 18.847656 183.929688 18.847656 C 184.378906 18.847656 184.847656 18.867188 185.375 18.886719 L 185.375 18.496094 C 184.691406 18.496094 184.4375 18.457031 184.066406 17.910156 L 181.175781 13.671875 Z M 181.175781 13.671875 "/>
<path style="fill:none;stroke-width:0.3985;stroke-linecap:butt;stroke-linejoin:miter;stroke:rgb(0%,0%,0%);stroke-opacity:1;stroke-miterlimit:10;" d="M 85.040375 85.03925 L 85.040375 58.3955 M 85.040375 26.648625 L 85.040375 -0.001375 M 85.040375 -0.001375 L -0.00025 -0.001375 " transform="matrix(1.25,0,0,-1.25,39.305,139.135)"/>
<path style="fill:none;stroke-width:0.797;stroke-linecap:butt;stroke-linejoin:miter;stroke:rgb(0%,0%,0%);stroke-opacity:1;stroke-miterlimit:10;" d="M 79.08725 26.648625 L 79.08725 58.3955 L 90.9935 58.3955 L 90.9935 26.648625 L 79.08725 26.648625 Z M 79.08725 26.648625 " transform="matrix(1.25,0,0,-1.25,39.305,139.135)"/>
<path style=" stroke:none;fill-rule:nonzero;fill:rgb(0%,0%,0%);fill-opacity:1;" d="M 128.136719 82.585938 C 128.214844 82.292969 128.253906 82.175781 128.488281 82.136719 C 128.605469 82.117188 128.996094 82.117188 129.25 82.117188 C 130.128906 82.117188 131.515625 82.117188 131.515625 83.347656 C 131.515625 83.777344 131.320312 84.636719 130.832031 85.125 C 130.5 85.4375 129.855469 85.847656 128.722656 85.847656 L 127.335938 85.847656 L 128.136719 82.585938 Z M 129.933594 86.003906 C 131.203125 85.730469 132.667969 84.851562 132.667969 83.601562 C 132.667969 82.527344 131.554688 81.726562 129.914062 81.726562 L 126.378906 81.726562 C 126.125 81.726562 126.007812 81.726562 126.007812 81.980469 C 126.007812 82.117188 126.125 82.117188 126.359375 82.117188 C 126.378906 82.117188 126.613281 82.117188 126.828125 82.136719 C 127.0625 82.175781 127.160156 82.175781 127.160156 82.351562 C 127.160156 82.390625 127.160156 82.429688 127.121094 82.585938 L 125.441406 89.265625 C 125.324219 89.753906 125.304688 89.851562 124.308594 89.851562 C 124.09375 89.851562 123.976562 89.851562 123.976562 90.105469 C 123.976562 90.242188 124.132812 90.242188 124.152344 90.242188 C 124.503906 90.242188 125.382812 90.203125 125.714844 90.203125 C 126.066406 90.203125 126.964844 90.242188 127.316406 90.242188 C 127.414062 90.242188 127.550781 90.242188 127.550781 89.988281 C 127.550781 89.851562 127.453125 89.851562 127.199219 89.851562 C 126.75 89.851562 126.398438 89.851562 126.398438 89.636719 C 126.398438 89.558594 126.417969 89.5 126.4375 89.421875 L 127.257812 86.121094 L 128.742188 86.121094 C 129.875 86.121094 130.089844 86.824219 130.089844 87.253906 C 130.089844 87.429688 129.992188 87.820312 129.914062 88.113281 C 129.835938 88.464844 129.71875 88.914062 129.71875 89.167969 C 129.71875 90.515625 131.222656 90.515625 131.378906 90.515625 C 132.433594 90.515625 132.882812 89.265625 132.882812 89.089844 C 132.882812 88.933594 132.746094 88.933594 132.726562 88.933594 C 132.609375 88.933594 132.589844 89.011719 132.570312 89.109375 C 132.257812 90.027344 131.710938 90.242188 131.4375 90.242188 C 131.027344 90.242188 130.929688 89.96875 130.929688 89.480469 C 130.929688 89.089844 131.007812 88.464844 131.066406 88.054688 C 131.085938 87.878906 131.105469 87.644531 131.105469 87.46875 C 131.105469 86.511719 130.265625 86.121094 129.933594 86.003906 Z M 129.933594 86.003906 "/>
<path style="fill:none;stroke-width:0.3985;stroke-linecap:butt;stroke-linejoin:miter;stroke:rgb(0%,0%,0%);stroke-opacity:1;stroke-miterlimit:10;" d="M 141.73725 85.03925 L 141.73725 46.48925 M 141.73725 38.55175 L 141.73725 -0.001375 M 141.73725 -0.001375 L 85.040375 -0.001375 " transform="matrix(1.25,0,0,-1.25,39.305,139.135)"/>
<path style="fill:none;stroke-width:0.797;stroke-linecap:butt;stroke-linejoin:miter;stroke:rgb(0%,0%,0%);stroke-opacity:1;stroke-miterlimit:10;" d="M 153.63725 46.48925 L 129.831 46.48925 M 153.63725 38.55175 L 129.831 38.55175 " transform="matrix(1.25,0,0,-1.25,39.305,139.135)"/>
<path style=" stroke:none;fill-rule:nonzero;fill:rgb(0%,0%,0%);fill-opacity:1;" d="M 246.710938 81.589844 C 246.710938 81.550781 246.691406 81.453125 246.574219 81.453125 C 246.535156 81.453125 246.515625 81.472656 246.378906 81.609375 L 245.519531 82.566406 C 245.402344 82.390625 244.835938 81.453125 243.449219 81.453125 C 240.65625 81.453125 237.863281 84.207031 237.863281 87.097656 C 237.863281 89.148438 239.328125 90.515625 241.242188 90.515625 C 242.316406 90.515625 243.273438 90.027344 243.9375 89.441406 C 245.089844 88.425781 245.304688 87.292969 245.304688 87.253906 C 245.304688 87.117188 245.167969 87.117188 245.148438 87.117188 C 245.070312 87.117188 245.011719 87.15625 244.992188 87.253906 C 244.875 87.605469 244.582031 88.503906 243.722656 89.226562 C 242.863281 89.910156 242.082031 90.125 241.4375 90.125 C 240.324219 90.125 238.996094 89.480469 238.996094 87.546875 C 238.996094 86.824219 239.25 84.8125 240.5 83.347656 C 241.261719 82.46875 242.433594 81.84375 243.546875 81.84375 C 244.816406 81.84375 245.558594 82.800781 245.558594 84.246094 C 245.558594 84.753906 245.519531 84.753906 245.519531 84.890625 C 245.519531 85.007812 245.65625 85.007812 245.695312 85.007812 C 245.851562 85.007812 245.851562 84.988281 245.929688 84.753906 L 246.710938 81.589844 Z M 246.710938 81.589844 "/>
<path style="fill:none;stroke-width:0.3985;stroke-linecap:butt;stroke-linejoin:miter;stroke:rgb(0%,0%,0%);stroke-opacity:1;stroke-miterlimit:10;" d="M 141.73725 85.03925 L 154.209125 85.03925 M 185.956 85.03925 L 198.427875 85.03925 M 198.427875 85.03925 L 198.427875 54.42675 M 198.427875 30.61425 L 198.427875 -0.001375 M 214.1435 33.4455 L 214.1435 51.592375 M 198.427875 -0.001375 L 141.73725 -0.001375 " transform="matrix(1.25,0,0,-1.25,39.305,139.135)"/>
<path style="fill:none;stroke-width:0.797;stroke-linecap:butt;stroke-linejoin:miter;stroke:rgb(0%,0%,0%);stroke-opacity:1;stroke-miterlimit:10;" d="M 154.209125 90.992375 L 185.956 90.992375 L 185.956 79.08925 L 154.209125 79.08925 L 154.209125 90.992375 Z M 154.209125 90.992375 " transform="matrix(1.25,0,0,-1.25,39.305,139.135)"/>
<path style=" stroke:none;fill-rule:nonzero;fill:rgb(0%,0%,0%);fill-opacity:1;" d="M 251.796875 12.59375 C 251.875 12.300781 251.914062 12.183594 252.148438 12.144531 C 252.265625 12.125 252.65625 12.125 252.910156 12.125 C 253.789062 12.125 255.175781 12.125 255.175781 13.355469 C 255.175781 13.785156 254.980469 14.644531 254.492188 15.132812 C 254.160156 15.445312 253.515625 15.855469 252.382812 15.855469 L 250.996094 15.855469 L 251.796875 12.59375 Z M 253.59375 16.011719 C 254.863281 15.738281 256.328125 14.859375 256.328125 13.609375 C 256.328125 12.535156 255.214844 11.734375 253.574219 11.734375 L 250.039062 11.734375 C 249.785156 11.734375 249.667969 11.734375 249.667969 11.988281 C 249.667969 12.125 249.785156 12.125 250.019531 12.125 C 250.039062 12.125 250.273438 12.125 250.488281 12.144531 C 250.722656 12.183594 250.820312 12.183594 250.820312 12.359375 C 250.820312 12.398438 250.820312 12.4375 250.78125 12.59375 L 249.101562 19.273438 C 248.984375 19.761719 248.964844 19.859375 247.96875 19.859375 C 247.753906 19.859375 247.636719 19.859375 247.636719 20.113281 C 247.636719 20.25 247.792969 20.25 247.8125 20.25 C 248.164062 20.25 249.042969 20.210938 249.375 20.210938 C 249.726562 20.210938 250.625 20.25 250.976562 20.25 C 251.074219 20.25 251.210938 20.25 251.210938 19.996094 C 251.210938 19.859375 251.113281 19.859375 250.859375 19.859375 C 250.410156 19.859375 250.058594 19.859375 250.058594 19.644531 C 250.058594 19.566406 250.078125 19.507812 250.097656 19.429688 L 250.917969 16.128906 L 252.402344 16.128906 C 253.535156 16.128906 253.75 16.832031 253.75 17.261719 C 253.75 17.4375 253.652344 17.828125 253.574219 18.121094 C 253.496094 18.472656 253.378906 18.921875 253.378906 19.175781 C 253.378906 20.523438 254.882812 20.523438 255.039062 20.523438 C 256.09375 20.523438 256.542969 19.273438 256.542969 19.097656 C 256.542969 18.941406 256.40625 18.941406 256.386719 18.941406 C 256.269531 18.941406 256.25 19.019531 256.230469 19.117188 C 255.917969 20.035156 255.371094 20.25 255.097656 20.25 C 254.6875 20.25 254.589844 19.976562 254.589844 19.488281 C 254.589844 19.097656 254.667969 18.472656 254.726562 18.0625 C 254.746094 17.886719 254.765625 17.652344 254.765625 17.476562 C 254.765625 16.519531 253.925781 16.128906 253.59375 16.011719 Z M 253.59375 16.011719 "/>
<path style="fill:none;stroke-width:0.797;stroke-linecap:butt;stroke-linejoin:miter;stroke:rgb(0%,0%,0%);stroke-opacity:1;stroke-miterlimit:10;" d="M 210.334125 42.5205 C 210.334125 49.098625 205.002875 54.42675 198.427875 54.42675 C 191.852875 54.42675 186.521625 49.098625 186.521625 42.5205 C 186.521625 35.9455 191.852875 30.61425 198.427875 30.61425 C 205.002875 30.61425 210.334125 35.9455 210.334125 42.5205 Z M 198.427875 54.42675 L 198.427875 30.61425 " transform="matrix(1.25,0,0,-1.25,39.305,139.135)"/>
<path style="fill-rule:nonzero;fill:rgb(0%,0%,0%);fill-opacity:1;stroke-width:0.3985;stroke-linecap:butt;stroke-linejoin:miter;stroke:rgb(0%,0%,0%);stroke-opacity:1;stroke-miterlimit:10;" d="M 214.1435 49.858 L 216.127875 49.858 L 214.1435 54.073625 L 212.159125 49.858 L 214.1435 49.858 " transform="matrix(1.25,0,0,-1.25,39.305,139.135)"/>
<path style=" stroke:none;fill-rule:nonzero;fill:rgb(0%,0%,0%);fill-opacity:1;" d="M 319.332031 87.332031 C 319.351562 87.273438 319.390625 87.195312 319.390625 87.15625 C 319.390625 87.15625 319.390625 87.019531 319.234375 87.019531 C 319.117188 87.019531 319.097656 87.097656 319.078125 87.175781 C 318.257812 89.011719 317.808594 89.851562 315.679688 89.851562 L 313.863281 89.851562 C 313.6875 89.851562 313.648438 89.851562 313.589844 89.851562 C 313.453125 89.832031 313.414062 89.8125 313.414062 89.714844 C 313.414062 89.675781 313.414062 89.65625 313.472656 89.441406 L 314.332031 86.023438 L 315.5625 86.023438 C 316.617188 86.023438 316.617188 86.296875 316.617188 86.609375 C 316.617188 86.6875 316.617188 86.84375 316.539062 87.214844 C 316.519531 87.273438 316.5 87.3125 316.5 87.351562 C 316.5 87.410156 316.539062 87.488281 316.65625 87.488281 C 316.753906 87.488281 316.792969 87.429688 316.851562 87.234375 L 317.554688 84.324219 C 317.554688 84.246094 317.496094 84.1875 317.398438 84.1875 C 317.300781 84.1875 317.261719 84.265625 317.242188 84.402344 C 316.96875 85.359375 316.753906 85.652344 315.601562 85.652344 L 314.429688 85.652344 L 315.171875 82.644531 C 315.289062 82.195312 315.308594 82.15625 315.855469 82.15625 L 317.613281 82.15625 C 319.117188 82.15625 319.507812 82.507812 319.507812 83.542969 C 319.507812 83.835938 319.507812 83.855469 319.449219 84.207031 C 319.449219 84.265625 319.429688 84.363281 319.429688 84.421875 C 319.429688 84.480469 319.46875 84.578125 319.585938 84.578125 C 319.722656 84.578125 319.742188 84.5 319.761719 84.265625 L 320.015625 82.097656 C 320.054688 81.765625 319.996094 81.765625 319.683594 81.765625 L 313.375 81.765625 C 313.140625 81.765625 313.003906 81.765625 313.003906 82.019531 C 313.003906 82.15625 313.121094 82.15625 313.355469 82.15625 C 313.824219 82.15625 314.175781 82.15625 314.175781 82.371094 C 314.175781 82.429688 314.175781 82.449219 314.097656 82.683594 L 312.457031 89.265625 C 312.339844 89.753906 312.320312 89.851562 311.324219 89.851562 C 311.109375 89.851562 310.972656 89.851562 310.972656 90.085938 C 310.972656 90.242188 311.089844 90.242188 311.324219 90.242188 L 317.789062 90.242188 C 318.082031 90.242188 318.101562 90.222656 318.179688 90.027344 L 319.332031 87.332031 Z M 319.332031 87.332031 "/>
<path style="fill:none;stroke-width:0.3985;stroke-linecap:butt;stroke-linejoin:miter;stroke:rgb(0%,0%,0%);stroke-opacity:1;stroke-miterlimit:10;" d="M 124.72475 28.348625 L 124.72475 55.886125 " transform="matrix(1.25,0,0,-1.25,39.305,139.135)"/>
<path style="fill-rule:nonzero;fill:rgb(0%,0%,0%);fill-opacity:1;stroke-width:0.3985;stroke-linecap:butt;stroke-linejoin:miter;stroke:rgb(0%,0%,0%);stroke-opacity:1;stroke-miterlimit:10;" d="M -5.20167 2.33228 L 0.29833 0.00103 L -5.20167 -2.333345 L -5.20167 2.33228 Z M -5.20167 2.33228 " transform="matrix(0,-1.25,-1.25,0,195.212225,69.279162)"/>
<path style=" stroke:none;fill-rule:nonzero;fill:rgb(0%,0%,0%);fill-opacity:1;" d="M 174.226562 88.121094 L 174.226562 89.234375 L 176.023438 89.097656 L 176.023438 88.707031 C 175.164062 88.707031 175.066406 88.628906 175.066406 88.003906 L 175.066406 83.589844 L 173.230469 83.726562 L 173.230469 84.117188 C 174.089844 84.117188 174.207031 84.195312 174.207031 84.820312 L 174.207031 87.027344 C 174.207031 88.121094 173.601562 88.960938 172.683594 88.960938 C 171.648438 88.960938 171.589844 88.375 171.589844 87.730469 L 171.589844 83.589844 L 169.753906 83.726562 L 169.753906 84.117188 C 170.730469 84.117188 170.730469 84.15625 170.730469 85.25 L 170.730469 87.125 C 170.730469 88.101562 170.730469 89.234375 172.625 89.234375 C 173.328125 89.234375 173.875 88.882812 174.226562 88.121094 Z M 174.226562 88.121094 "/>
<path style=" stroke:none;fill-rule:nonzero;fill:rgb(0%,0%,0%);fill-opacity:1;" d="M 180.402344 92.085938 C 180.402344 92.046875 180.402344 92.027344 180.1875 91.8125 C 178.644531 90.25 178.234375 87.886719 178.234375 85.972656 C 178.234375 83.804688 178.703125 81.636719 180.246094 80.09375 C 180.402344 79.9375 180.402344 79.917969 180.402344 79.878906 C 180.402344 79.78125 180.363281 79.742188 180.285156 79.742188 C 180.148438 79.742188 179.035156 80.601562 178.292969 82.183594 C 177.667969 83.550781 177.511719 84.9375 177.511719 85.972656 C 177.511719 86.949219 177.648438 88.453125 178.332031 89.878906 C 179.09375 91.402344 180.148438 92.222656 180.285156 92.222656 C 180.363281 92.222656 180.402344 92.183594 180.402344 92.085938 Z M 180.402344 92.085938 "/>
<path style=" stroke:none;fill-rule:nonzero;fill:rgb(0%,0%,0%);fill-opacity:1;" d="M 183.273438 84.117188 L 185.070312 84.117188 L 185.070312 83.726562 L 183.273438 83.726562 L 183.273438 81.441406 L 182.960938 81.441406 C 182.960938 82.457031 182.589844 83.785156 181.359375 83.84375 L 181.359375 84.117188 L 182.414062 84.117188 L 182.414062 87.554688 C 182.414062 89.078125 183.585938 89.234375 184.035156 89.234375 C 184.914062 89.234375 185.265625 88.355469 185.265625 87.554688 L 185.265625 86.851562 L 184.953125 86.851562 L 184.953125 87.535156 C 184.953125 88.453125 184.582031 88.921875 184.113281 88.921875 C 183.273438 88.921875 183.273438 87.789062 183.273438 87.574219 L 183.273438 84.117188 Z M 183.273438 84.117188 "/>
<path style=" stroke:none;fill-rule:nonzero;fill:rgb(0%,0%,0%);fill-opacity:1;" d="M 189.5625 85.972656 C 189.5625 85.015625 189.425781 83.511719 188.742188 82.085938 C 188 80.5625 186.925781 79.742188 186.808594 79.742188 C 186.730469 79.742188 186.671875 79.800781 186.671875 79.878906 C 186.671875 79.917969 186.671875 79.9375 186.90625 80.171875 C 188.136719 81.402344 188.839844 83.375 188.839844 85.972656 C 188.839844 88.121094 188.390625 90.308594 186.847656 91.871094 C 186.671875 92.027344 186.671875 92.046875 186.671875 92.085938 C 186.671875 92.164062 186.730469 92.222656 186.808594 92.222656 C 186.925781 92.222656 188.058594 91.363281 188.78125 89.78125 C 189.425781 88.414062 189.5625 87.027344 189.5625 85.972656 Z M 189.5625 85.972656 "/>
</g>
</svg>
