<?xml version="1.0" encoding="UTF-8"?>
<!-- Converted by misc2svg (http://www.network-science.de/tools/misc2svg/) -->
<svg xmlns="http://www.w3.org/2000/svg" xmlns:xlink="http://www.w3.org/1999/xlink" width="225pt" height="144pt" viewBox="0 0 225 144" version="1.1">
<g id="misc2svg">
<path style="fill:none;stroke-width:0.3985;stroke-linecap:butt;stroke-linejoin:miter;stroke:rgb(0%,0%,0%);stroke-opacity:1;stroke-miterlimit:10;" d="M 0.001875 0.000375 L 0.001875 30.616 M 0.001875 54.4285 L 0.001875 85.041 M -15.716875 33.44725 L -15.716875 51.594125 M 0.001875 85.041 L 19.56125 85.041 M 51.305 85.041 L 70.864375 85.041 M 0.001875 85.041 L 19.56125 85.041 " transform="matrix(1.25,0,0,-1.25,74.9,137.77)"/>
<path style="fill:none;stroke-width:0.797;stroke-linecap:butt;stroke-linejoin:miter;stroke:rgb(0%,0%,0%);stroke-opacity:1;stroke-miterlimit:10;" d="M -11.904375 42.52225 C -11.904375 35.94725 -6.57625 30.616 0.001875 30.616 C 6.576875 30.616 11.905 35.94725 11.905 42.52225 C 11.905 49.094125 6.576875 54.4285 0.001875 54.4285 C -6.57625 54.4285 -11.904375 49.094125 -11.904375 42.52225 Z M 0.001875 30.616 L 0.001875 54.4285 " transform="matrix(1.25,0,0,-1.25,74.9,137.77)"/>
<path style="fill-rule:nonzero;fill:rgb(0%,0%,0%);fill-opacity:1;stroke-width:0.3985;stroke-linecap:butt;stroke-linejoin:miter;stroke:rgb(0%,0%,0%);stroke-opacity:1;stroke-miterlimit:10;" d="M -15.716875 49.856625 L -13.7325 49.856625 L -15.716875 54.075375 L -17.70125 49.856625 L -15.716875 49.856625 " transform="matrix(1.25,0,0,-1.25,74.9,137.77)"/>
<path style=" stroke:none;fill-rule:nonzero;fill:rgb(0%,0%,0%);fill-opacity:1;" d="M 15.054688 85.964844 C 15.074219 85.90625 15.113281 85.828125 15.113281 85.789062 C 15.113281 85.789062 15.113281 85.652344 14.957031 85.652344 C 14.839844 85.652344 14.820312 85.730469 14.800781 85.808594 C 13.980469 87.644531 13.53125 88.484375 11.402344 88.484375 L 9.585938 88.484375 C 9.410156 88.484375 9.371094 88.484375 9.3125 88.484375 C 9.175781 88.464844 9.136719 88.445312 9.136719 88.347656 C 9.136719 88.308594 9.136719 88.289062 9.195312 88.074219 L 10.054688 84.65625 L 11.285156 84.65625 C 12.339844 84.65625 12.339844 84.929688 12.339844 85.242188 C 12.339844 85.320312 12.339844 85.476562 12.261719 85.847656 C 12.242188 85.90625 12.222656 85.945312 12.222656 85.984375 C 12.222656 86.042969 12.261719 86.121094 12.378906 86.121094 C 12.476562 86.121094 12.515625 86.0625 12.574219 85.867188 L 13.277344 82.957031 C 13.277344 82.878906 13.21875 82.820312 13.121094 82.820312 C 13.023438 82.820312 12.984375 82.898438 12.964844 83.035156 C 12.691406 83.992188 12.476562 84.285156 11.324219 84.285156 L 10.152344 84.285156 L 10.894531 81.277344 C 11.011719 80.828125 11.03125 80.789062 11.578125 80.789062 L 13.335938 80.789062 C 14.839844 80.789062 15.230469 81.140625 15.230469 82.175781 C 15.230469 82.46875 15.230469 82.488281 15.171875 82.839844 C 15.171875 82.898438 15.152344 82.996094 15.152344 83.054688 C 15.152344 83.113281 15.191406 83.210938 15.308594 83.210938 C 15.445312 83.210938 15.464844 83.132812 15.484375 82.898438 L 15.738281 80.730469 C 15.777344 80.398438 15.71875 80.398438 15.40625 80.398438 L 9.097656 80.398438 C 8.863281 80.398438 8.726562 80.398438 8.726562 80.652344 C 8.726562 80.789062 8.84375 80.789062 9.078125 80.789062 C 9.546875 80.789062 9.898438 80.789062 9.898438 81.003906 C 9.898438 81.0625 9.898438 81.082031 9.820312 81.316406 L 8.179688 87.898438 C 8.0625 88.386719 8.042969 88.484375 7.046875 88.484375 C 6.832031 88.484375 6.695312 88.484375 6.695312 88.71875 C 6.695312 88.875 6.8125 88.875 7.046875 88.875 L 13.511719 88.875 C 13.804688 88.875 13.824219 88.855469 13.902344 88.660156 L 15.054688 85.964844 Z M 15.054688 85.964844 "/>
<path style=" stroke:none;fill-rule:nonzero;fill:rgb(0%,0%,0%);fill-opacity:1;" d="M 19.675781 86.160156 C 19.675781 84.128906 20.691406 83.601562 21.355469 83.601562 C 21.472656 83.601562 22.253906 83.621094 22.683594 84.070312 C 22.175781 84.109375 22.097656 84.480469 22.097656 84.636719 C 22.097656 84.96875 22.332031 85.203125 22.664062 85.203125 C 22.996094 85.203125 23.25 85.007812 23.25 84.617188 C 23.25 83.777344 22.292969 83.289062 21.335938 83.289062 C 19.773438 83.289062 18.640625 84.636719 18.640625 86.179688 C 18.640625 87.78125 19.871094 89.011719 21.316406 89.011719 C 22.976562 89.011719 23.386719 87.507812 23.386719 87.390625 C 23.386719 87.273438 23.25 87.273438 23.210938 87.273438 C 23.113281 87.273438 23.074219 87.3125 23.054688 87.390625 C 22.703125 88.542969 21.882812 88.699219 21.433594 88.699219 C 20.769531 88.699219 19.675781 88.171875 19.675781 86.160156 Z M 19.675781 86.160156 "/>
<path style=" stroke:none;fill-rule:nonzero;fill:rgb(0%,0%,0%);fill-opacity:1;" d="M 29.605469 86.199219 C 29.605469 84.617188 28.375 83.289062 26.871094 83.289062 C 25.308594 83.289062 24.097656 84.65625 24.097656 86.199219 C 24.097656 87.820312 25.386719 89.011719 26.851562 89.011719 C 28.355469 89.011719 29.605469 87.78125 29.605469 86.199219 Z M 26.871094 88.699219 C 26.324219 88.699219 25.777344 88.445312 25.445312 87.859375 C 25.132812 87.3125 25.132812 86.550781 25.132812 86.101562 C 25.132812 85.613281 25.132812 84.949219 25.425781 84.402344 C 25.757812 83.835938 26.34375 83.5625 26.851562 83.5625 C 27.398438 83.5625 27.925781 83.835938 28.257812 84.382812 C 28.589844 84.910156 28.589844 85.632812 28.589844 86.101562 C 28.589844 86.550781 28.589844 87.234375 28.316406 87.78125 C 28.023438 88.347656 27.476562 88.699219 26.871094 88.699219 Z M 26.871094 88.699219 "/>
<path style=" stroke:none;fill-rule:nonzero;fill:rgb(0%,0%,0%);fill-opacity:1;" d="M 32.570312 86.453125 C 32.84375 86.511719 33.859375 86.707031 33.859375 87.605469 C 33.859375 88.230469 33.429688 88.738281 32.453125 88.738281 C 31.398438 88.738281 30.949219 88.035156 30.714844 86.960938 C 30.675781 86.804688 30.675781 86.765625 30.539062 86.765625 C 30.382812 86.765625 30.382812 86.84375 30.382812 87.058594 L 30.382812 88.71875 C 30.382812 88.933594 30.382812 89.011719 30.519531 89.011719 C 30.578125 89.011719 30.597656 88.992188 30.832031 88.757812 C 30.851562 88.738281 30.851562 88.71875 31.085938 88.484375 C 31.632812 88.992188 32.199219 89.011719 32.453125 89.011719 C 33.878906 89.011719 34.464844 88.171875 34.464844 87.273438 C 34.464844 86.628906 34.09375 86.238281 33.9375 86.101562 C 33.527344 85.691406 33.039062 85.59375 32.511719 85.496094 C 31.808594 85.359375 30.988281 85.203125 30.988281 84.480469 C 30.988281 84.03125 31.300781 83.523438 32.375 83.523438 C 33.742188 83.523438 33.820312 84.65625 33.839844 85.027344 C 33.839844 85.144531 33.957031 85.144531 33.976562 85.144531 C 34.152344 85.144531 34.152344 85.085938 34.152344 84.851562 L 34.152344 83.582031 C 34.152344 83.386719 34.152344 83.289062 34.015625 83.289062 C 33.957031 83.289062 33.917969 83.289062 33.761719 83.445312 C 33.722656 83.484375 33.605469 83.601562 33.546875 83.640625 C 33.078125 83.289062 32.570312 83.289062 32.375 83.289062 C 30.851562 83.289062 30.382812 84.128906 30.382812 84.832031 C 30.382812 85.261719 30.578125 85.613281 30.910156 85.886719 C 31.320312 86.199219 31.671875 86.277344 32.570312 86.453125 Z M 32.570312 86.453125 "/>
<path style=" stroke:none;fill-rule:nonzero;fill:rgb(0%,0%,0%);fill-opacity:1;" d="M 44.5 84.246094 C 44.5 83.679688 44.285156 83.367188 43.992188 83.367188 C 43.679688 83.367188 43.347656 83.660156 43.347656 83.953125 C 43.347656 84.070312 43.40625 84.207031 43.523438 84.324219 C 43.738281 84.519531 43.972656 84.851562 43.972656 85.378906 C 43.972656 85.867188 43.71875 86.589844 43.347656 87.15625 C 42.976562 87.683594 42.507812 88.113281 41.921875 88.113281 C 41.21875 88.113281 40.828125 87.664062 40.710938 87 C 40.847656 86.667969 41.140625 85.867188 41.140625 85.515625 C 41.140625 85.378906 41.082031 85.242188 40.90625 85.242188 C 40.808594 85.242188 40.671875 85.28125 40.574219 85.457031 C 40.4375 85.710938 40.28125 86.511719 40.28125 86.960938 C 39.871094 87.546875 39.382812 88.113281 38.601562 88.113281 C 37.761719 88.113281 37.507812 87.371094 37.507812 86.6875 C 37.507812 85.125 38.777344 83.816406 38.777344 83.660156 C 38.777344 83.523438 38.679688 83.425781 38.542969 83.425781 C 38.386719 83.425781 38.289062 83.582031 38.210938 83.699219 C 37.585938 84.617188 37.117188 86.101562 37.117188 87.234375 C 37.117188 88.09375 37.390625 89.011719 38.425781 89.011719 C 39.304688 89.011719 39.890625 88.386719 40.339844 87.703125 C 40.457031 88.425781 40.945312 89.011719 41.707031 89.011719 C 42.683594 89.011719 43.269531 88.25 43.71875 87.3125 C 44.03125 86.707031 44.5 85.007812 44.5 84.246094 Z M 44.5 84.246094 "/>
<path style=" stroke:none;fill-rule:nonzero;fill:rgb(0%,0%,0%);fill-opacity:1;" d="M 49.789062 83.894531 L 50.960938 83.894531 C 51.214844 83.894531 51.351562 83.894531 51.351562 83.640625 C 51.351562 83.503906 51.214844 83.503906 51 83.503906 L 49.90625 83.503906 C 50.355469 81.726562 50.414062 81.492188 50.414062 81.414062 C 50.414062 81.199219 50.257812 81.082031 50.042969 81.082031 C 50.003906 81.082031 49.652344 81.082031 49.554688 81.53125 L 49.066406 83.503906 L 47.894531 83.503906 C 47.640625 83.503906 47.523438 83.503906 47.523438 83.738281 C 47.523438 83.894531 47.621094 83.894531 47.875 83.894531 L 48.96875 83.894531 C 48.070312 87.429688 48.011719 87.644531 48.011719 87.859375 C 48.011719 88.542969 48.480469 89.011719 49.164062 89.011719 C 50.433594 89.011719 51.136719 87.195312 51.136719 87.097656 C 51.136719 86.960938 51.039062 86.960938 51 86.960938 C 50.882812 86.960938 50.863281 87 50.804688 87.136719 C 50.277344 88.445312 49.613281 88.738281 49.183594 88.738281 C 48.929688 88.738281 48.792969 88.582031 48.792969 88.171875 C 48.792969 87.859375 48.832031 87.78125 48.871094 87.566406 L 49.789062 83.894531 Z M 49.789062 83.894531 "/>
<path style="fill:none;stroke-width:0.797;stroke-linecap:butt;stroke-linejoin:miter;stroke:rgb(0%,0%,0%);stroke-opacity:1;stroke-miterlimit:10;" d="M 19.56125 90.994125 L 51.305 90.994125 L 51.305 79.087875 L 19.56125 79.087875 L 19.56125 90.994125 Z M 19.56125 90.994125 " transform="matrix(1.25,0,0,-1.25,74.9,137.77)"/>
<path style=" stroke:none;fill-rule:nonzero;fill:rgb(0%,0%,0%);fill-opacity:1;" d="M 119.082031 11.230469 C 119.160156 10.9375 119.199219 10.820312 119.433594 10.78125 C 119.550781 10.761719 119.941406 10.761719 120.195312 10.761719 C 121.074219 10.761719 122.460938 10.761719 122.460938 11.992188 C 122.460938 12.421875 122.265625 13.28125 121.777344 13.769531 C 121.445312 14.082031 120.800781 14.492188 119.667969 14.492188 L 118.28125 14.492188 L 119.082031 11.230469 Z M 120.878906 14.648438 C 122.148438 14.375 123.613281 13.496094 123.613281 12.246094 C 123.613281 11.171875 122.5 10.371094 120.859375 10.371094 L 117.324219 10.371094 C 117.070312 10.371094 116.953125 10.371094 116.953125 10.625 C 116.953125 10.761719 117.070312 10.761719 117.304688 10.761719 C 117.324219 10.761719 117.558594 10.761719 117.773438 10.78125 C 118.007812 10.820312 118.105469 10.820312 118.105469 10.996094 C 118.105469 11.035156 118.105469 11.074219 118.066406 11.230469 L 116.386719 17.910156 C 116.269531 18.398438 116.25 18.496094 115.253906 18.496094 C 115.039062 18.496094 114.921875 18.496094 114.921875 18.75 C 114.921875 18.886719 115.078125 18.886719 115.097656 18.886719 C 115.449219 18.886719 116.328125 18.847656 116.660156 18.847656 C 117.011719 18.847656 117.910156 18.886719 118.261719 18.886719 C 118.359375 18.886719 118.496094 18.886719 118.496094 18.632812 C 118.496094 18.496094 118.398438 18.496094 118.144531 18.496094 C 117.695312 18.496094 117.34375 18.496094 117.34375 18.28125 C 117.34375 18.203125 117.363281 18.144531 117.382812 18.066406 L 118.203125 14.765625 L 119.6875 14.765625 C 120.820312 14.765625 121.035156 15.46875 121.035156 15.898438 C 121.035156 16.074219 120.9375 16.464844 120.859375 16.757812 C 120.78125 17.109375 120.664062 17.558594 120.664062 17.8125 C 120.664062 19.160156 122.167969 19.160156 122.324219 19.160156 C 123.378906 19.160156 123.828125 17.910156 123.828125 17.734375 C 123.828125 17.578125 123.691406 17.578125 123.671875 17.578125 C 123.554688 17.578125 123.535156 17.65625 123.515625 17.753906 C 123.203125 18.671875 122.65625 18.886719 122.382812 18.886719 C 121.972656 18.886719 121.875 18.613281 121.875 18.125 C 121.875 17.734375 121.953125 17.109375 122.011719 16.699219 C 122.03125 16.523438 122.050781 16.289062 122.050781 16.113281 C 122.050781 15.15625 121.210938 14.765625 120.878906 14.648438 Z M 120.878906 14.648438 "/>
<path style="fill-rule:nonzero;fill:rgb(0%,0%,0%);fill-opacity:1;stroke-width:0.3985;stroke-linecap:butt;stroke-linejoin:miter;stroke:rgb(0%,0%,0%);stroke-opacity:1;stroke-miterlimit:10;" d="M 8.045625 85.041 L 8.045625 83.056625 L 12.258125 85.041 L 8.045625 87.025375 L 8.045625 85.041 " transform="matrix(1.25,0,0,-1.25,74.9,137.77)"/>
<path style=" stroke:none;fill-rule:nonzero;fill:rgb(0%,0%,0%);fill-opacity:1;" d="M 81.421875 16.164062 C 81.421875 15.910156 81.246094 15.714844 80.972656 15.714844 C 80.621094 15.714844 80.289062 16.046875 80.289062 16.378906 C 80.289062 16.613281 80.464844 16.828125 80.757812 16.828125 C 81.050781 16.828125 81.421875 16.535156 81.421875 16.164062 Z M 80.484375 20.851562 C 80.621094 20.5 80.621094 20.460938 80.757812 20.128906 C 80.855469 19.875 80.914062 19.699219 80.914062 19.464844 C 80.914062 18.917969 80.523438 18.449219 79.898438 18.449219 C 78.726562 18.449219 78.257812 20.265625 78.257812 20.363281 C 78.257812 20.5 78.375 20.5 78.394531 20.5 C 78.53125 20.5 78.53125 20.460938 78.589844 20.265625 C 78.941406 19.09375 79.429688 18.722656 79.859375 18.722656 C 79.957031 18.722656 80.171875 18.722656 80.171875 19.113281 C 80.171875 19.386719 80.074219 19.640625 80.035156 19.777344 C 79.9375 20.089844 79.371094 21.535156 79.175781 22.082031 C 79.039062 22.394531 78.882812 22.804688 78.882812 23.078125 C 78.882812 23.664062 79.3125 24.09375 79.898438 24.09375 C 81.070312 24.09375 81.539062 22.296875 81.539062 22.179688 C 81.539062 22.042969 81.421875 22.042969 81.382812 22.042969 C 81.265625 22.042969 81.265625 22.082031 81.207031 22.277344 C 80.972656 23.058594 80.5625 23.820312 79.9375 23.820312 C 79.722656 23.820312 79.625 23.703125 79.625 23.410156 C 79.625 23.097656 79.703125 22.921875 79.996094 22.160156 L 80.484375 20.851562 Z M 80.484375 20.851562 "/>
<path style=" stroke:none;fill-rule:nonzero;fill:rgb(0%,0%,0%);fill-opacity:1;" d="M 86.300781 26.945312 C 86.300781 26.90625 86.300781 26.886719 86.085938 26.671875 C 84.542969 25.109375 84.132812 22.746094 84.132812 20.832031 C 84.132812 18.664062 84.601562 16.496094 86.144531 14.953125 C 86.300781 14.796875 86.300781 14.777344 86.300781 14.738281 C 86.300781 14.640625 86.261719 14.601562 86.183594 14.601562 C 86.046875 14.601562 84.933594 15.460938 84.191406 17.042969 C 83.566406 18.410156 83.410156 19.796875 83.410156 20.832031 C 83.410156 21.808594 83.546875 23.3125 84.230469 24.738281 C 84.992188 26.261719 86.046875 27.082031 86.183594 27.082031 C 86.261719 27.082031 86.300781 27.042969 86.300781 26.945312 Z M 86.300781 26.945312 "/>
<path style=" stroke:none;fill-rule:nonzero;fill:rgb(0%,0%,0%);fill-opacity:1;" d="M 89.578125 18.976562 L 90.75 18.976562 C 91.003906 18.976562 91.140625 18.976562 91.140625 18.722656 C 91.140625 18.585938 91.003906 18.585938 90.789062 18.585938 L 89.695312 18.585938 C 90.144531 16.808594 90.203125 16.574219 90.203125 16.496094 C 90.203125 16.28125 90.046875 16.164062 89.832031 16.164062 C 89.792969 16.164062 89.441406 16.164062 89.34375 16.613281 L 88.855469 18.585938 L 87.683594 18.585938 C 87.429688 18.585938 87.3125 18.585938 87.3125 18.820312 C 87.3125 18.976562 87.410156 18.976562 87.664062 18.976562 L 88.757812 18.976562 C 87.859375 22.511719 87.800781 22.726562 87.800781 22.941406 C 87.800781 23.625 88.269531 24.09375 88.953125 24.09375 C 90.222656 24.09375 90.925781 22.277344 90.925781 22.179688 C 90.925781 22.042969 90.828125 22.042969 90.789062 22.042969 C 90.671875 22.042969 90.652344 22.082031 90.59375 22.21875 C 90.066406 23.527344 89.402344 23.820312 88.972656 23.820312 C 88.71875 23.820312 88.582031 23.664062 88.582031 23.253906 C 88.582031 22.941406 88.621094 22.863281 88.660156 22.648438 L 89.578125 18.976562 Z M 89.578125 18.976562 "/>
<path style=" stroke:none;fill-rule:nonzero;fill:rgb(0%,0%,0%);fill-opacity:1;" d="M 95.113281 20.832031 C 95.113281 19.875 94.976562 18.371094 94.292969 16.945312 C 93.550781 15.421875 92.476562 14.601562 92.359375 14.601562 C 92.28125 14.601562 92.222656 14.660156 92.222656 14.738281 C 92.222656 14.777344 92.222656 14.796875 92.457031 15.03125 C 93.6875 16.261719 94.390625 18.234375 94.390625 20.832031 C 94.390625 22.980469 93.941406 25.167969 92.398438 26.730469 C 92.222656 26.886719 92.222656 26.90625 92.222656 26.945312 C 92.222656 27.023438 92.28125 27.082031 92.359375 27.082031 C 92.476562 27.082031 93.609375 26.222656 94.332031 24.640625 C 94.976562 23.273438 95.113281 21.886719 95.113281 20.832031 Z M 95.113281 20.832031 "/>
<path style="fill:none;stroke-width:0.3985;stroke-linecap:butt;stroke-linejoin:miter;stroke:rgb(0%,0%,0%);stroke-opacity:1;stroke-miterlimit:10;" d="M 70.864375 85.041 L 70.864375 58.39725 M 70.864375 26.64725 L 70.864375 0.000375 " transform="matrix(1.25,0,0,-1.25,74.9,137.77)"/>
<path style="fill:none;stroke-width:0.797;stroke-linecap:butt;stroke-linejoin:miter;stroke:rgb(0%,0%,0%);stroke-opacity:1;stroke-miterlimit:10;" d="M 70.864375 58.39725 C 74.170625 57.9535 76.8175 56.187875 76.8175 54.094125 C 76.8175 52.000375 74.170625 50.23475 70.864375 49.794125 C 67.564375 49.356625 64.914375 50.241 64.914375 51.450375 C 64.914375 52.662875 67.564375 53.544125 70.864375 53.1035 C 74.170625 52.662875 76.8175 50.89725 76.8175 48.8035 C 76.8175 46.712875 74.170625 44.94725 70.864375 44.506625 C 67.564375 44.062875 64.914375 44.94725 64.914375 46.156625 C 64.914375 47.369125 67.564375 48.250375 70.864375 47.812875 C 74.170625 47.37225 76.8175 45.606625 76.8175 43.512875 C 76.8175 41.419125 74.170625 39.6535 70.864375 39.212875 C 67.564375 38.77225 64.914375 39.656625 64.914375 40.869125 C 64.914375 42.0785 67.564375 42.962875 70.864375 42.52225 C 74.170625 42.0785 76.8175 40.312875 76.8175 38.219125 C 76.8175 36.131625 74.170625 34.366 70.864375 33.92225 C 67.564375 33.481625 64.914375 34.366 64.914375 35.575375 C 64.914375 36.787875 67.564375 37.669125 70.864375 37.2285 C 74.170625 36.787875 76.8175 35.02225 76.8175 32.931625 C 76.8175 30.837875 74.170625 29.07225 70.864375 28.631625 L 70.864375 26.64725 " transform="matrix(1.25,0,0,-1.25,74.9,137.77)"/>
<path style=" stroke:none;fill-rule:nonzero;fill:rgb(0%,0%,0%);fill-opacity:1;" d="M 147.089844 81.335938 C 147.1875 80.886719 147.226562 80.75 148.398438 80.75 C 148.769531 80.75 148.867188 80.75 148.867188 80.515625 C 148.867188 80.359375 148.730469 80.359375 148.671875 80.359375 C 148.261719 80.359375 147.246094 80.398438 146.835938 80.398438 C 146.464844 80.398438 145.546875 80.359375 145.175781 80.359375 C 145.097656 80.359375 144.941406 80.359375 144.941406 80.613281 C 144.941406 80.75 145.058594 80.75 145.292969 80.75 C 145.3125 80.75 145.546875 80.75 145.761719 80.769531 C 145.976562 80.808594 146.09375 80.808594 146.09375 80.984375 C 146.09375 81.023438 146.09375 81.0625 146.054688 81.21875 L 144.375 87.898438 C 144.257812 88.386719 144.238281 88.484375 143.242188 88.484375 C 143.027344 88.484375 142.910156 88.484375 142.910156 88.738281 C 142.910156 88.875 143.027344 88.875 143.242188 88.875 L 149.023438 88.875 C 149.316406 88.875 149.316406 88.875 149.394531 88.660156 L 150.390625 85.964844 C 150.429688 85.828125 150.429688 85.808594 150.429688 85.789062 C 150.429688 85.75 150.390625 85.652344 150.292969 85.652344 C 150.175781 85.652344 150.15625 85.730469 150.078125 85.925781 C 149.648438 87.058594 149.101562 88.484375 146.953125 88.484375 L 145.78125 88.484375 C 145.605469 88.484375 145.566406 88.484375 145.507812 88.484375 C 145.371094 88.464844 145.332031 88.445312 145.332031 88.347656 C 145.332031 88.308594 145.332031 88.289062 145.390625 88.074219 L 147.089844 81.335938 Z M 147.089844 81.335938 "/>
<path style="fill:none;stroke-width:0.3985;stroke-linecap:butt;stroke-linejoin:miter;stroke:rgb(0%,0%,0%);stroke-opacity:1;stroke-miterlimit:10;" d="M 70.864375 0.000375 L 0.001875 0.000375 " transform="matrix(1.25,0,0,-1.25,74.9,137.77)"/>
<path style="fill:none;stroke-width:0.3985;stroke-linecap:butt;stroke-linejoin:miter;stroke:rgb(0%,0%,0%);stroke-opacity:1;stroke-miterlimit:10;" d="M 85.039375 28.344125 L 85.039375 61.556625 " transform="matrix(1.25,0,0,-1.25,74.9,137.77)"/>
<path style="fill-rule:nonzero;fill:rgb(0%,0%,0%);fill-opacity:1;stroke-width:0.3985;stroke-linecap:butt;stroke-linejoin:miter;stroke:rgb(0%,0%,0%);stroke-opacity:1;stroke-miterlimit:10;" d="M -5.203565 2.33542 L 0.29956 -0.00208 L -5.203565 -2.336455 L -5.203565 2.33542 Z M -5.203565 2.33542 " transform="matrix(0,-1.25,-1.25,0,181.200525,60.827575)"/>
<path style=" stroke:none;fill-rule:nonzero;fill:rgb(0%,0%,0%);fill-opacity:1;" d="M 189.953125 87.03125 C 190.089844 87.539062 190.539062 87.871094 191.066406 87.871094 C 191.496094 87.871094 191.789062 87.578125 191.984375 87.1875 C 192.199219 86.738281 192.355469 85.976562 192.355469 85.957031 C 192.355469 85.820312 192.257812 85.820312 192.21875 85.820312 C 192.082031 85.820312 192.082031 85.878906 192.042969 86.054688 C 191.867188 86.757812 191.632812 87.597656 191.105469 87.597656 C 190.851562 87.597656 190.714844 87.441406 190.714844 87.03125 C 190.714844 86.757812 190.871094 86.171875 190.96875 85.722656 L 191.320312 84.375 C 191.359375 84.199219 191.476562 83.730469 191.535156 83.535156 C 191.59375 83.242188 191.710938 82.773438 191.710938 82.695312 C 191.710938 82.480469 191.535156 82.363281 191.359375 82.363281 C 191.300781 82.363281 190.96875 82.382812 190.871094 82.792969 C 190.636719 83.710938 190.089844 85.898438 189.933594 86.542969 C 189.914062 86.601562 189.425781 87.597656 188.507812 87.597656 C 187.863281 87.597656 187.746094 87.03125 187.746094 86.582031 C 187.746094 85.878906 188.097656 84.902344 188.410156 84.042969 C 188.566406 83.652344 188.625 83.476562 188.625 83.242188 C 188.625 82.695312 188.234375 82.226562 187.609375 82.226562 C 186.417969 82.226562 185.96875 84.042969 185.96875 84.140625 C 185.96875 84.277344 186.085938 84.277344 186.105469 84.277344 C 186.242188 84.277344 186.242188 84.238281 186.300781 84.042969 C 186.613281 82.96875 187.101562 82.5 187.570312 82.5 C 187.6875 82.5 187.882812 82.519531 187.882812 82.910156 C 187.882812 83.203125 187.746094 83.574219 187.667969 83.75 C 187.199219 85 186.945312 85.761719 186.945312 86.367188 C 186.945312 87.558594 187.804688 87.871094 188.46875 87.871094 C 189.289062 87.871094 189.738281 87.304688 189.953125 87.03125 Z M 189.953125 87.03125 "/>
<path style=" stroke:none;fill-rule:nonzero;fill:rgb(0%,0%,0%);fill-opacity:1;" d="M 196.320312 84.367188 C 196.398438 84.054688 196.417969 83.957031 197.21875 83.957031 C 197.492188 83.957031 197.570312 83.957031 197.570312 83.78125 C 197.570312 83.761719 197.570312 83.644531 197.433594 83.644531 C 197.238281 83.644531 197.003906 83.664062 196.789062 83.683594 C 196.574219 83.683594 196.300781 83.683594 196.085938 83.683594 C 195.910156 83.683594 195.675781 83.683594 195.480469 83.683594 C 195.304688 83.683594 195.089844 83.644531 194.914062 83.644531 C 194.875 83.644531 194.738281 83.644531 194.738281 83.839844 C 194.738281 83.957031 194.835938 83.957031 195.011719 83.957031 C 195.03125 83.957031 195.1875 83.957031 195.34375 83.976562 C 195.539062 83.996094 195.558594 84.015625 195.558594 84.113281 C 195.558594 84.113281 195.558594 84.171875 195.519531 84.289062 L 194.347656 88.917969 C 194.269531 89.210938 194.25 89.289062 193.585938 89.289062 C 193.449219 89.289062 193.332031 89.289062 193.332031 89.464844 C 193.332031 89.601562 193.429688 89.601562 193.585938 89.601562 L 197.960938 89.601562 C 198.195312 89.601562 198.195312 89.601562 198.273438 89.425781 C 198.351562 89.191406 199.015625 87.511719 199.015625 87.433594 C 199.015625 87.414062 198.996094 87.316406 198.859375 87.316406 C 198.761719 87.316406 198.742188 87.355469 198.683594 87.492188 C 198.351562 88.3125 197.960938 89.289062 196.378906 89.289062 L 195.382812 89.289062 C 195.128906 89.289062 195.109375 89.269531 195.109375 89.191406 C 195.109375 89.191406 195.109375 89.152344 195.148438 89.015625 L 196.320312 84.367188 Z M 196.320312 84.367188 "/>
<path style=" stroke:none;fill-rule:nonzero;fill:rgb(0%,0%,0%);fill-opacity:1;" d="M 204.304688 90.722656 C 204.304688 90.683594 204.304688 90.664062 204.089844 90.449219 C 202.546875 88.886719 202.136719 86.523438 202.136719 84.609375 C 202.136719 82.441406 202.605469 80.273438 204.148438 78.730469 C 204.304688 78.574219 204.304688 78.554688 204.304688 78.515625 C 204.304688 78.417969 204.265625 78.378906 204.1875 78.378906 C 204.050781 78.378906 202.9375 79.238281 202.195312 80.820312 C 201.570312 82.1875 201.414062 83.574219 201.414062 84.609375 C 201.414062 85.585938 201.550781 87.089844 202.234375 88.515625 C 202.996094 90.039062 204.050781 90.859375 204.1875 90.859375 C 204.265625 90.859375 204.304688 90.820312 204.304688 90.722656 Z M 204.304688 90.722656 "/>
<path style=" stroke:none;fill-rule:nonzero;fill:rgb(0%,0%,0%);fill-opacity:1;" d="M 207.582031 82.753906 L 208.753906 82.753906 C 209.007812 82.753906 209.144531 82.753906 209.144531 82.5 C 209.144531 82.363281 209.007812 82.363281 208.792969 82.363281 L 207.699219 82.363281 C 208.148438 80.585938 208.207031 80.351562 208.207031 80.273438 C 208.207031 80.058594 208.050781 79.941406 207.835938 79.941406 C 207.796875 79.941406 207.445312 79.941406 207.347656 80.390625 L 206.859375 82.363281 L 205.6875 82.363281 C 205.433594 82.363281 205.316406 82.363281 205.316406 82.597656 C 205.316406 82.753906 205.414062 82.753906 205.667969 82.753906 L 206.761719 82.753906 C 205.863281 86.289062 205.804688 86.503906 205.804688 86.71875 C 205.804688 87.402344 206.273438 87.871094 206.957031 87.871094 C 208.226562 87.871094 208.929688 86.054688 208.929688 85.957031 C 208.929688 85.820312 208.832031 85.820312 208.792969 85.820312 C 208.675781 85.820312 208.65625 85.859375 208.597656 85.996094 C 208.070312 87.304688 207.40625 87.597656 206.976562 87.597656 C 206.722656 87.597656 206.585938 87.441406 206.585938 87.03125 C 206.585938 86.71875 206.625 86.640625 206.664062 86.425781 L 207.582031 82.753906 Z M 207.582031 82.753906 "/>
<path style=" stroke:none;fill-rule:nonzero;fill:rgb(0%,0%,0%);fill-opacity:1;" d="M 213.117188 84.609375 C 213.117188 83.652344 212.980469 82.148438 212.296875 80.722656 C 211.554688 79.199219 210.480469 78.378906 210.363281 78.378906 C 210.285156 78.378906 210.226562 78.4375 210.226562 78.515625 C 210.226562 78.554688 210.226562 78.574219 210.460938 78.808594 C 211.691406 80.039062 212.394531 82.011719 212.394531 84.609375 C 212.394531 86.757812 211.945312 88.945312 210.402344 90.507812 C 210.226562 90.664062 210.226562 90.683594 210.226562 90.722656 C 210.226562 90.800781 210.285156 90.859375 210.363281 90.859375 C 210.480469 90.859375 211.613281 90 212.335938 88.417969 C 212.980469 87.050781 213.117188 85.664062 213.117188 84.609375 Z M 213.117188 84.609375 "/>
</g>
</svg>
