<?xml version="1.0" encoding="UTF-8"?>
<!-- Converted by misc2svg (http://www.network-science.de/tools/misc2svg/) -->
<svg xmlns="http://www.w3.org/2000/svg" xmlns:xlink="http://www.w3.org/1999/xlink" width="361pt" height="217pt" viewBox="0 0 361 217" version="1.1">
<g id="misc2svg">
<path style="fill:none;stroke-width:0.3985;stroke-linecap:butt;stroke-linejoin:miter;stroke:rgb(0%,0%,0%);stroke-opacity:1;stroke-miterlimit:10;" d="M 0.001125 0.00225 L 226.31675 0.00225 " transform="matrix(1.25,0,0,-1.25,64.315,193.995)"/>
<path style="fill:none;stroke-width:0.31879;stroke-linecap:round;stroke-linejoin:round;stroke:rgb(0%,0%,0%);stroke-opacity:1;stroke-miterlimit:10;" d="M -1.1932 1.596 C -1.096325 0.996 0.00055 0.099125 0.297425 0.00225 C 0.00055 -0.100875 -1.096325 -0.994625 -1.1932 -1.5915 " transform="matrix(1.25,0,0,-1.25,347.21025,193.995)"/>
<path style="fill:none;stroke-width:0.3985;stroke-linecap:butt;stroke-linejoin:miter;stroke:rgb(0%,0%,0%);stroke-opacity:1;stroke-miterlimit:10;" d="M 0.001125 0.00225 L 0.001125 141.274125 " transform="matrix(1.25,0,0,-1.25,64.315,193.995)"/>
<path style="fill:none;stroke-width:0.31879;stroke-linecap:round;stroke-linejoin:round;stroke:rgb(0%,0%,0%);stroke-opacity:1;stroke-miterlimit:10;" d="M -1.195385 1.592625 C -1.095385 0.99575 -0.001635 0.098875 0.298365 -0.001125 C -0.001635 -0.098 -1.095385 -0.998 -1.195385 -1.594875 " transform="matrix(0,-1.25,-1.25,0,64.315,17.4003)"/>
<path style="fill:none;stroke-width:0.3985;stroke-linecap:butt;stroke-linejoin:miter;stroke:rgb(0%,0%,0%);stroke-opacity:1;stroke-miterlimit:10;" d="M 28.344875 127.5585 C 28.344875 127.5585 34.323 99.21475 36.613625 91.321 C 38.907375 83.42725 42.588625 75.367875 44.87925 70.667875 C 47.176125 65.971 50.857375 60.55225 53.151125 57.449125 C 55.44175 54.349125 59.123 50.50225 61.41675 48.305375 C 63.713625 46.111625 67.39175 43.261625 69.6855 41.630375 C 71.97925 39.996 75.657375 37.805375 77.951125 36.549125 C 80.248 35.28975 83.926125 33.555375 86.219875 32.555375 C 88.513625 31.555375 92.19175 30.15225 94.4855 29.33975 C 96.782375 28.524125 100.463625 27.367875 102.75425 26.692875 C 105.048 26.021 108.72925 25.05225 111.019875 24.486625 C 113.31675 23.91475 116.998 23.08975 119.29175 22.611625 C 121.582375 22.12725 125.263625 21.41475 127.557375 21.00225 C 129.85425 20.5835 133.532375 19.96475 135.826125 19.599125 C 138.119875 19.236625 141.798 18.692875 144.09175 18.371 C 146.388625 18.05225 150.063625 17.580375 152.3605 17.292875 C 154.65425 17.011625 158.332375 16.586625 160.626125 16.3335 C 162.923 16.080375 166.598 15.696 168.894875 15.471 C 171.188625 15.242875 174.869875 14.899125 177.1605 14.696 C 179.457375 14.48975 183.1355 14.180375 185.432375 13.992875 C 187.723 13.8085 191.40425 13.524125 193.698 13.355375 C 195.994875 13.1835 199.669875 12.930375 201.96675 12.774125 C 204.2605 12.617875 207.938625 12.380375 210.232375 12.23975 C 212.52925 12.099125 216.20425 11.880375 218.501125 11.746 C 220.794875 11.617875 226.76675 11.292875 226.76675 11.292875 " transform="matrix(1.25,0,0,-1.25,64.315,193.995)"/>
<path style=" stroke:none;fill-rule:nonzero;fill:rgb(0%,0%,0%);fill-opacity:1;" d="M 19.207031 16.808594 C 19.226562 16.75 19.265625 16.671875 19.265625 16.632812 C 19.265625 16.632812 19.265625 16.496094 19.109375 16.496094 C 18.992188 16.496094 18.972656 16.574219 18.953125 16.652344 C 18.132812 18.488281 17.683594 19.328125 15.554688 19.328125 L 13.738281 19.328125 C 13.5625 19.328125 13.523438 19.328125 13.464844 19.328125 C 13.328125 19.308594 13.289062 19.289062 13.289062 19.191406 C 13.289062 19.152344 13.289062 19.132812 13.347656 18.917969 L 14.207031 15.5 L 15.4375 15.5 C 16.492188 15.5 16.492188 15.773438 16.492188 16.085938 C 16.492188 16.164062 16.492188 16.320312 16.414062 16.691406 C 16.394531 16.75 16.375 16.789062 16.375 16.828125 C 16.375 16.886719 16.414062 16.964844 16.53125 16.964844 C 16.628906 16.964844 16.667969 16.90625 16.726562 16.710938 L 17.429688 13.800781 C 17.429688 13.722656 17.371094 13.664062 17.273438 13.664062 C 17.175781 13.664062 17.136719 13.742188 17.117188 13.878906 C 16.84375 14.835938 16.628906 15.128906 15.476562 15.128906 L 14.304688 15.128906 L 15.046875 12.121094 C 15.164062 11.671875 15.183594 11.632812 15.730469 11.632812 L 17.488281 11.632812 C 18.992188 11.632812 19.382812 11.984375 19.382812 13.019531 C 19.382812 13.3125 19.382812 13.332031 19.324219 13.683594 C 19.324219 13.742188 19.304688 13.839844 19.304688 13.898438 C 19.304688 13.957031 19.34375 14.054688 19.460938 14.054688 C 19.597656 14.054688 19.617188 13.976562 19.636719 13.742188 L 19.890625 11.574219 C 19.929688 11.242188 19.871094 11.242188 19.558594 11.242188 L 13.25 11.242188 C 13.015625 11.242188 12.878906 11.242188 12.878906 11.496094 C 12.878906 11.632812 12.996094 11.632812 13.230469 11.632812 C 13.699219 11.632812 14.050781 11.632812 14.050781 11.847656 C 14.050781 11.90625 14.050781 11.925781 13.972656 12.160156 L 12.332031 18.742188 C 12.214844 19.230469 12.195312 19.328125 11.199219 19.328125 C 10.984375 19.328125 10.847656 19.328125 10.847656 19.5625 C 10.847656 19.71875 10.964844 19.71875 11.199219 19.71875 L 17.664062 19.71875 C 17.957031 19.71875 17.976562 19.699219 18.054688 19.503906 L 19.207031 16.808594 Z M 19.207031 16.808594 "/>
<path style=" stroke:none;fill-rule:nonzero;fill:rgb(0%,0%,0%);fill-opacity:1;" d="M 22.539062 18.890625 L 24.121094 18.890625 C 25.585938 18.890625 26.835938 17.953125 26.835938 16.996094 C 26.835938 16.253906 26.113281 15.628906 24.921875 15.628906 L 21.875 15.628906 C 21.699219 15.628906 21.601562 15.628906 21.601562 15.824219 C 21.601562 15.941406 21.699219 15.941406 21.894531 15.941406 C 22.03125 15.941406 22.070312 15.941406 22.226562 15.960938 C 22.402344 15.980469 22.402344 16 22.402344 16.097656 C 22.402344 16.097656 22.402344 16.15625 22.382812 16.273438 L 21.230469 20.863281 C 21.132812 21.214844 21.132812 21.273438 20.449219 21.273438 C 20.292969 21.273438 20.195312 21.273438 20.195312 21.46875 C 20.195312 21.46875 20.195312 21.585938 20.332031 21.585938 C 20.585938 21.585938 21.210938 21.546875 21.464844 21.546875 C 21.601562 21.546875 21.914062 21.546875 22.070312 21.566406 C 22.226562 21.566406 22.460938 21.585938 22.617188 21.585938 C 22.675781 21.585938 22.792969 21.585938 22.792969 21.390625 C 22.792969 21.273438 22.695312 21.273438 22.519531 21.273438 C 22.519531 21.273438 22.34375 21.273438 22.1875 21.253906 C 21.992188 21.234375 21.992188 21.214844 21.992188 21.117188 C 21.992188 21.117188 21.992188 21.058594 22.03125 20.941406 L 22.539062 18.890625 Z M 23.164062 16.253906 C 23.242188 15.980469 23.242188 15.941406 23.613281 15.941406 L 24.628906 15.941406 C 25.449219 15.941406 25.9375 16.195312 25.9375 16.820312 C 25.9375 17.074219 25.839844 17.777344 25.410156 18.167969 C 25.097656 18.441406 24.589844 18.597656 23.964844 18.597656 L 22.578125 18.597656 L 23.164062 16.253906 Z M 23.164062 16.253906 "/>
<path style=" stroke:none;fill-rule:nonzero;fill:rgb(0%,0%,0%);fill-opacity:1;" d="M 29.207031 19.59375 C 29.441406 19.59375 30.144531 19.574219 30.613281 19.417969 C 31.257812 19.183594 31.375 18.773438 31.375 18.519531 C 31.375 18.03125 30.886719 17.738281 30.300781 17.738281 C 29.246094 17.738281 27.839844 18.539062 27.839844 20.042969 C 27.839844 20.921875 28.386719 21.664062 29.402344 21.664062 C 30.886719 21.664062 31.570312 20.804688 31.570312 20.6875 C 31.570312 20.628906 31.492188 20.53125 31.414062 20.53125 C 31.375 20.53125 31.355469 20.550781 31.277344 20.628906 C 30.59375 21.429688 29.578125 21.429688 29.421875 21.429688 C 28.894531 21.429688 28.542969 21.078125 28.542969 20.375 C 28.542969 20.257812 28.542969 20.082031 28.660156 19.59375 L 29.207031 19.59375 Z M 28.71875 19.359375 C 29.089844 18.089844 30.046875 17.992188 30.300781 17.992188 C 30.671875 17.992188 31.003906 18.1875 31.003906 18.519531 C 31.003906 19.359375 29.519531 19.359375 29.148438 19.359375 L 28.71875 19.359375 Z M 28.71875 19.359375 "/>
<path style=" stroke:none;fill-rule:nonzero;fill:rgb(0%,0%,0%);fill-opacity:1;" d="M 35.53125 18.148438 L 36.371094 18.148438 C 36.546875 18.148438 36.664062 18.148438 36.664062 17.953125 C 36.664062 17.835938 36.546875 17.835938 36.390625 17.835938 L 35.589844 17.835938 C 35.785156 16.722656 35.84375 16.332031 35.921875 16.078125 C 35.960938 15.882812 36.15625 15.707031 36.371094 15.707031 C 36.371094 15.707031 36.605469 15.707031 36.78125 15.804688 C 36.410156 15.921875 36.390625 16.234375 36.390625 16.273438 C 36.390625 16.46875 36.546875 16.605469 36.742188 16.605469 C 36.976562 16.605469 37.230469 16.410156 37.230469 16.078125 C 37.230469 15.667969 36.820312 15.453125 36.371094 15.453125 C 35.980469 15.453125 35.550781 15.667969 35.316406 16.097656 C 35.140625 16.429688 35.082031 16.820312 34.886719 17.835938 L 34.203125 17.835938 C 34.027344 17.835938 33.910156 17.835938 33.910156 18.03125 C 33.910156 18.148438 34.027344 18.148438 34.183594 18.148438 L 34.828125 18.148438 C 34.828125 18.207031 34.28125 21.332031 34.066406 22.269531 C 34.027344 22.464844 33.871094 23.109375 33.460938 23.109375 C 33.441406 23.109375 33.246094 23.109375 33.070312 23.011719 C 33.421875 22.894531 33.460938 22.582031 33.460938 22.542969 C 33.460938 22.347656 33.304688 22.210938 33.109375 22.210938 C 32.875 22.210938 32.621094 22.40625 32.621094 22.738281 C 32.621094 23.128906 33.03125 23.363281 33.460938 23.363281 C 34.007812 23.363281 34.398438 22.796875 34.496094 22.601562 C 34.808594 22.015625 35.023438 20.941406 35.042969 20.84375 L 35.53125 18.148438 Z M 35.53125 18.148438 "/>
<path style=" stroke:none;fill-rule:nonzero;fill:rgb(0%,0%,0%);fill-opacity:1;" d="M 41.363281 18.148438 L 42.203125 18.148438 C 42.378906 18.148438 42.496094 18.148438 42.496094 17.953125 C 42.496094 17.835938 42.378906 17.835938 42.222656 17.835938 L 41.421875 17.835938 C 41.617188 16.722656 41.675781 16.332031 41.753906 16.078125 C 41.792969 15.882812 41.988281 15.707031 42.203125 15.707031 C 42.203125 15.707031 42.4375 15.707031 42.613281 15.804688 C 42.242188 15.921875 42.222656 16.234375 42.222656 16.273438 C 42.222656 16.46875 42.378906 16.605469 42.574219 16.605469 C 42.808594 16.605469 43.0625 16.410156 43.0625 16.078125 C 43.0625 15.667969 42.652344 15.453125 42.203125 15.453125 C 41.8125 15.453125 41.382812 15.667969 41.148438 16.097656 C 40.972656 16.429688 40.914062 16.820312 40.71875 17.835938 L 40.035156 17.835938 C 39.859375 17.835938 39.742188 17.835938 39.742188 18.03125 C 39.742188 18.148438 39.859375 18.148438 40.015625 18.148438 L 40.660156 18.148438 C 40.660156 18.207031 40.113281 21.332031 39.898438 22.269531 C 39.859375 22.464844 39.703125 23.109375 39.292969 23.109375 C 39.273438 23.109375 39.078125 23.109375 38.902344 23.011719 C 39.253906 22.894531 39.292969 22.582031 39.292969 22.542969 C 39.292969 22.347656 39.136719 22.210938 38.941406 22.210938 C 38.707031 22.210938 38.453125 22.40625 38.453125 22.738281 C 38.453125 23.128906 38.863281 23.363281 39.292969 23.363281 C 39.839844 23.363281 40.230469 22.796875 40.328125 22.601562 C 40.640625 22.015625 40.855469 20.941406 40.875 20.84375 L 41.363281 18.148438 Z M 41.363281 18.148438 "/>
<path style=" stroke:none;fill-rule:nonzero;fill:rgb(0%,0%,0%);fill-opacity:1;" d="M 48.386719 22.707031 C 48.386719 22.667969 48.386719 22.648438 48.171875 22.433594 C 46.628906 20.871094 46.21875 18.507812 46.21875 16.59375 C 46.21875 14.425781 46.6875 12.257812 48.230469 10.714844 C 48.386719 10.558594 48.386719 10.539062 48.386719 10.5 C 48.386719 10.402344 48.347656 10.363281 48.269531 10.363281 C 48.132812 10.363281 47.019531 11.222656 46.277344 12.804688 C 45.652344 14.171875 45.496094 15.558594 45.496094 16.59375 C 45.496094 17.570312 45.632812 19.074219 46.316406 20.5 C 47.078125 22.023438 48.132812 22.84375 48.269531 22.84375 C 48.347656 22.84375 48.386719 22.804688 48.386719 22.707031 Z M 48.386719 22.707031 "/>
<path style=" stroke:none;fill-rule:nonzero;fill:rgb(0%,0%,0%);fill-opacity:1;" d="M 50.203125 18.976562 C 50.164062 19.171875 50.085938 19.464844 50.085938 19.523438 C 50.085938 19.738281 50.261719 19.855469 50.457031 19.855469 C 50.613281 19.855469 50.828125 19.757812 50.925781 19.503906 C 50.945312 19.464844 51.355469 17.765625 51.414062 17.53125 C 51.511719 17.121094 51.746094 16.261719 51.804688 15.910156 C 51.863281 15.753906 52.214844 15.167969 52.507812 14.894531 C 52.605469 14.816406 52.976562 14.484375 53.503906 14.484375 C 53.835938 14.484375 54.011719 14.640625 54.03125 14.640625 C 53.660156 14.699219 53.386719 14.992188 53.386719 15.324219 C 53.386719 15.519531 53.523438 15.753906 53.855469 15.753906 C 54.1875 15.753906 54.539062 15.460938 54.539062 15.011719 C 54.539062 14.582031 54.148438 14.210938 53.503906 14.210938 C 52.703125 14.210938 52.15625 14.816406 51.921875 15.167969 C 51.804688 14.601562 51.355469 14.210938 50.769531 14.210938 C 50.203125 14.210938 49.96875 14.699219 49.851562 14.914062 C 49.636719 15.34375 49.480469 16.085938 49.480469 16.125 C 49.480469 16.261719 49.597656 16.261719 49.617188 16.261719 C 49.753906 16.261719 49.753906 16.242188 49.832031 15.96875 C 50.046875 15.089844 50.300781 14.484375 50.75 14.484375 C 50.945312 14.484375 51.121094 14.582031 51.121094 15.050781 C 51.121094 15.324219 51.082031 15.460938 50.925781 16.105469 L 50.203125 18.976562 Z M 50.203125 18.976562 "/>
<path style=" stroke:none;fill-rule:nonzero;fill:rgb(0%,0%,0%);fill-opacity:1;" d="M 58.667969 16.59375 C 58.667969 15.636719 58.53125 14.132812 57.847656 12.707031 C 57.105469 11.183594 56.03125 10.363281 55.914062 10.363281 C 55.835938 10.363281 55.777344 10.421875 55.777344 10.5 C 55.777344 10.539062 55.777344 10.558594 56.011719 10.792969 C 57.242188 12.023438 57.945312 13.996094 57.945312 16.59375 C 57.945312 18.742188 57.496094 20.929688 55.953125 22.492188 C 55.777344 22.648438 55.777344 22.667969 55.777344 22.707031 C 55.777344 22.785156 55.835938 22.84375 55.914062 22.84375 C 56.03125 22.84375 57.164062 21.984375 57.886719 20.402344 C 58.53125 19.035156 58.667969 17.648438 58.667969 16.59375 Z M 58.667969 16.59375 "/>
<path style=" stroke:none;fill-rule:nonzero;fill:rgb(0%,0%,0%);fill-opacity:1;" d="M 347.429688 199.617188 L 347.429688 198.25 L 345.691406 198.386719 L 345.691406 198.777344 C 346.570312 198.777344 346.667969 198.855469 346.667969 199.480469 L 346.667969 202.820312 C 346.667969 203.367188 346.53125 203.367188 345.691406 203.367188 L 345.691406 203.757812 C 346.179688 203.738281 346.765625 203.71875 347.117188 203.71875 C 347.605469 203.71875 348.191406 203.71875 348.699219 203.757812 L 348.699219 203.367188 L 348.425781 203.367188 C 347.507812 203.367188 347.488281 203.230469 347.488281 202.78125 L 347.488281 200.867188 C 347.488281 199.636719 348.015625 198.523438 348.953125 198.523438 C 349.03125 198.523438 349.070312 198.523438 349.089844 198.542969 C 349.050781 198.542969 348.796875 198.699219 348.796875 199.03125 C 348.796875 199.363281 349.070312 199.558594 349.34375 199.558594 C 349.558594 199.558594 349.871094 199.402344 349.871094 199.011719 C 349.871094 198.621094 349.480469 198.25 348.953125 198.25 C 348.035156 198.25 347.585938 199.089844 347.429688 199.617188 Z M 347.429688 199.617188 "/>
<path style=" stroke:none;fill-rule:nonzero;fill:rgb(0%,0%,0%);fill-opacity:1;" d="M 59.214844 202.683594 C 59.214844 200.144531 57.339844 198.113281 55.074219 198.113281 C 52.828125 198.113281 50.933594 200.105469 50.933594 202.683594 C 50.933594 205.242188 52.847656 207.175781 55.074219 207.175781 C 57.339844 207.175781 59.214844 205.203125 59.214844 202.683594 Z M 55.074219 206.84375 C 53.882812 206.84375 52.203125 205.75 52.203125 202.507812 C 52.203125 199.285156 54.039062 198.425781 55.074219 198.425781 C 56.148438 198.425781 57.925781 199.304688 57.925781 202.507812 C 57.925781 205.808594 56.226562 206.84375 55.074219 206.84375 Z M 55.074219 206.84375 "/>
<path style=" stroke:none;fill-rule:nonzero;fill:rgb(0%,0%,0%);fill-opacity:1;" d="M 48.496094 105.824219 C 48.515625 105.765625 48.554688 105.6875 48.554688 105.648438 C 48.554688 105.648438 48.554688 105.511719 48.398438 105.511719 C 48.28125 105.511719 48.261719 105.589844 48.242188 105.667969 C 47.421875 107.503906 46.972656 108.34375 44.84375 108.34375 L 43.027344 108.34375 C 42.851562 108.34375 42.8125 108.34375 42.753906 108.34375 C 42.617188 108.324219 42.578125 108.304688 42.578125 108.207031 C 42.578125 108.167969 42.578125 108.148438 42.636719 107.933594 L 43.496094 104.515625 L 44.726562 104.515625 C 45.78125 104.515625 45.78125 104.789062 45.78125 105.101562 C 45.78125 105.179688 45.78125 105.335938 45.703125 105.707031 C 45.683594 105.765625 45.664062 105.804688 45.664062 105.84375 C 45.664062 105.902344 45.703125 105.980469 45.820312 105.980469 C 45.917969 105.980469 45.957031 105.921875 46.015625 105.726562 L 46.71875 102.816406 C 46.71875 102.738281 46.660156 102.679688 46.5625 102.679688 C 46.464844 102.679688 46.425781 102.757812 46.40625 102.894531 C 46.132812 103.851562 45.917969 104.144531 44.765625 104.144531 L 43.59375 104.144531 L 44.335938 101.136719 C 44.453125 100.6875 44.472656 100.648438 45.019531 100.648438 L 46.777344 100.648438 C 48.28125 100.648438 48.671875 101 48.671875 102.035156 C 48.671875 102.328125 48.671875 102.347656 48.613281 102.699219 C 48.613281 102.757812 48.59375 102.855469 48.59375 102.914062 C 48.59375 102.972656 48.632812 103.070312 48.75 103.070312 C 48.886719 103.070312 48.90625 102.992188 48.925781 102.757812 L 49.179688 100.589844 C 49.21875 100.257812 49.160156 100.257812 48.847656 100.257812 L 42.539062 100.257812 C 42.304688 100.257812 42.167969 100.257812 42.167969 100.511719 C 42.167969 100.648438 42.285156 100.648438 42.519531 100.648438 C 42.988281 100.648438 43.339844 100.648438 43.339844 100.863281 C 43.339844 100.921875 43.339844 100.941406 43.261719 101.175781 L 41.621094 107.757812 C 41.503906 108.246094 41.484375 108.34375 40.488281 108.34375 C 40.273438 108.34375 40.136719 108.34375 40.136719 108.578125 C 40.136719 108.734375 40.253906 108.734375 40.488281 108.734375 L 46.953125 108.734375 C 47.246094 108.734375 47.265625 108.714844 47.34375 108.519531 L 48.496094 105.824219 Z M 48.496094 105.824219 "/>
<path style=" stroke:none;fill-rule:nonzero;fill:rgb(0%,0%,0%);fill-opacity:1;" d="M 57.746094 105.367188 C 57.824219 105.035156 57.84375 104.957031 58.488281 104.957031 C 58.683594 104.957031 58.78125 104.957031 58.78125 104.78125 C 58.78125 104.644531 58.683594 104.644531 58.527344 104.644531 L 57.335938 104.644531 C 57.082031 104.644531 57.082031 104.664062 56.964844 104.820312 L 53.605469 109.800781 L 52.746094 104.878906 C 52.707031 104.664062 52.707031 104.644531 52.433594 104.644531 L 51.203125 104.644531 C 51.027344 104.644531 50.910156 104.644531 50.910156 104.839844 C 50.910156 104.957031 51.007812 104.957031 51.203125 104.957031 C 51.339844 104.957031 51.378906 104.957031 51.535156 104.976562 C 51.710938 104.996094 51.730469 105.015625 51.730469 105.113281 C 51.730469 105.113281 51.730469 105.171875 51.691406 105.289062 L 50.597656 109.664062 C 50.519531 109.957031 50.382812 110.269531 49.679688 110.289062 C 49.621094 110.289062 49.503906 110.289062 49.503906 110.484375 C 49.503906 110.484375 49.503906 110.601562 49.640625 110.601562 C 49.894531 110.601562 50.265625 110.5625 50.539062 110.5625 C 50.753906 110.5625 51.261719 110.601562 51.457031 110.601562 C 51.515625 110.601562 51.632812 110.601562 51.632812 110.40625 C 51.632812 110.289062 51.515625 110.289062 51.4375 110.289062 C 50.890625 110.269531 50.890625 110.035156 50.890625 109.917969 C 50.890625 109.878906 50.890625 109.839844 50.929688 109.703125 L 52.082031 105.074219 L 52.082031 105.074219 L 53.019531 110.367188 C 53.058594 110.523438 53.058594 110.601562 53.195312 110.601562 C 53.3125 110.601562 53.390625 110.503906 53.449219 110.40625 L 57.101562 104.976562 L 57.121094 104.996094 L 55.890625 109.917969 C 55.8125 110.210938 55.792969 110.289062 55.128906 110.289062 C 54.972656 110.289062 54.855469 110.289062 54.855469 110.484375 C 54.855469 110.484375 54.855469 110.601562 54.992188 110.601562 C 55.167969 110.601562 55.363281 110.582031 55.539062 110.582031 C 55.714844 110.582031 55.910156 110.5625 56.085938 110.5625 C 56.339844 110.5625 56.945312 110.601562 57.199219 110.601562 C 57.238281 110.601562 57.375 110.601562 57.375 110.40625 C 57.375 110.289062 57.277344 110.289062 57.101562 110.289062 C 57.082031 110.289062 56.925781 110.289062 56.769531 110.269531 C 56.574219 110.25 56.574219 110.230469 56.574219 110.132812 C 56.574219 110.09375 56.59375 109.996094 56.59375 109.957031 L 57.746094 105.367188 Z M 57.746094 105.367188 "/>
<path style="fill:none;stroke-width:0.3985;stroke-linecap:butt;stroke-linejoin:miter;stroke:rgb(0%,0%,0%);stroke-opacity:1;stroke-miterlimit:10;" d="M 0.001125 70.867875 L 9.451125 70.867875 L 18.894875 70.867875 L 28.344875 70.867875 L 37.794875 70.867875 L 47.244875 70.867875 L 56.69175 70.867875 L 66.14175 70.867875 L 75.59175 70.867875 L 85.04175 70.867875 L 94.488625 70.867875 L 103.938625 70.867875 L 113.3855 70.867875 L 122.832375 70.867875 L 132.282375 70.867875 L 141.732375 70.867875 L 151.182375 70.867875 L 160.62925 70.867875 L 170.07925 70.867875 L 179.52925 70.867875 L 188.97925 70.867875 L 198.423 70.867875 L 207.873 70.867875 L 217.323 70.867875 L 226.769875 70.867875 " transform="matrix(1.25,0,0,-1.25,64.315,193.995)"/>
<path style="fill:none;stroke-width:0.3985;stroke-linecap:butt;stroke-linejoin:miter;stroke:rgb(0%,0%,0%);stroke-opacity:1;stroke-dasharray:2.98883,2.98883;stroke-miterlimit:10;" d="M 45.357375 0.00225 L 45.357375 70.867875 " transform="matrix(1.25,0,0,-1.25,64.315,193.995)"/>
<path style=" stroke:none;fill-rule:nonzero;fill:rgb(0%,0%,0%);fill-opacity:1;" d="M 109.722656 203.015625 C 109.683594 203.210938 109.605469 203.503906 109.605469 203.5625 C 109.605469 203.777344 109.78125 203.894531 109.976562 203.894531 C 110.132812 203.894531 110.347656 203.796875 110.445312 203.542969 C 110.464844 203.503906 110.875 201.804688 110.933594 201.570312 C 111.03125 201.160156 111.265625 200.300781 111.324219 199.949219 C 111.382812 199.792969 111.734375 199.207031 112.027344 198.933594 C 112.125 198.855469 112.496094 198.523438 113.023438 198.523438 C 113.355469 198.523438 113.53125 198.679688 113.550781 198.679688 C 113.179688 198.738281 112.90625 199.03125 112.90625 199.363281 C 112.90625 199.558594 113.042969 199.792969 113.375 199.792969 C 113.707031 199.792969 114.058594 199.5 114.058594 199.050781 C 114.058594 198.621094 113.667969 198.25 113.023438 198.25 C 112.222656 198.25 111.675781 198.855469 111.441406 199.207031 C 111.324219 198.640625 110.875 198.25 110.289062 198.25 C 109.722656 198.25 109.488281 198.738281 109.371094 198.953125 C 109.15625 199.382812 109 200.125 109 200.164062 C 109 200.300781 109.117188 200.300781 109.136719 200.300781 C 109.273438 200.300781 109.273438 200.28125 109.351562 200.007812 C 109.566406 199.128906 109.820312 198.523438 110.269531 198.523438 C 110.464844 198.523438 110.640625 198.621094 110.640625 199.089844 C 110.640625 199.363281 110.601562 199.5 110.445312 200.144531 L 109.722656 203.015625 Z M 109.722656 203.015625 "/>
<path style=" stroke:none;fill-rule:nonzero;fill:rgb(0%,0%,0%);fill-opacity:1;" d="M 118.035156 204.921875 C 117.976562 205.097656 117.898438 205.390625 117.898438 205.429688 C 117.898438 205.625 118.054688 205.703125 118.191406 205.703125 C 118.367188 205.703125 118.503906 205.605469 118.542969 205.527344 C 118.582031 205.449219 118.660156 205.15625 118.699219 204.980469 C 118.738281 204.824219 118.835938 204.414062 118.894531 204.199219 C 118.933594 204.003906 118.992188 203.808594 119.03125 203.613281 C 119.128906 203.242188 119.128906 203.222656 119.304688 202.949219 C 119.578125 202.519531 120.027344 202.03125 120.691406 202.03125 C 121.179688 202.03125 121.21875 202.421875 121.21875 202.636719 C 121.21875 203.164062 120.847656 204.121094 120.691406 204.492188 C 120.613281 204.746094 120.574219 204.824219 120.574219 204.960938 C 120.574219 205.429688 120.945312 205.703125 121.394531 205.703125 C 122.273438 205.703125 122.644531 204.511719 122.644531 204.375 C 122.644531 204.257812 122.546875 204.257812 122.507812 204.257812 C 122.390625 204.257812 122.390625 204.316406 122.351562 204.414062 C 122.15625 205.117188 121.765625 205.46875 121.433594 205.46875 C 121.238281 205.46875 121.199219 205.351562 121.199219 205.15625 C 121.199219 204.960938 121.257812 204.84375 121.414062 204.453125 C 121.511719 204.179688 121.863281 203.261719 121.863281 202.773438 C 121.863281 202.636719 121.863281 202.265625 121.550781 202.011719 C 121.394531 201.914062 121.140625 201.777344 120.730469 201.777344 C 119.949219 201.777344 119.480469 202.304688 119.1875 202.65625 C 119.128906 201.914062 118.503906 201.777344 118.054688 201.777344 C 117.332031 201.777344 116.84375 202.226562 116.589844 202.578125 C 116.53125 201.972656 116.023438 201.777344 115.652344 201.777344 C 115.28125 201.777344 115.085938 202.050781 114.96875 202.246094 C 114.773438 202.578125 114.65625 203.066406 114.65625 203.125 C 114.65625 203.222656 114.773438 203.222656 114.8125 203.222656 C 114.929688 203.222656 114.929688 203.203125 114.988281 202.96875 C 115.125 202.460938 115.300781 202.03125 115.632812 202.03125 C 115.867188 202.03125 115.925781 202.226562 115.925781 202.460938 C 115.925781 202.617188 115.847656 202.949219 115.769531 203.183594 C 115.710938 203.417969 115.632812 203.769531 115.59375 203.964844 L 115.300781 205.078125 C 115.28125 205.195312 115.222656 205.410156 115.222656 205.429688 C 115.222656 205.625 115.378906 205.703125 115.515625 205.703125 C 115.671875 205.703125 115.808594 205.605469 115.867188 205.527344 C 115.90625 205.449219 115.964844 205.15625 116.023438 204.980469 C 116.0625 204.824219 116.160156 204.414062 116.199219 204.199219 C 116.257812 204.003906 116.316406 203.808594 116.355469 203.613281 C 116.453125 203.261719 116.472656 203.183594 116.726562 202.832031 C 116.960938 202.480469 117.371094 202.03125 118.035156 202.03125 C 118.523438 202.03125 118.542969 202.480469 118.542969 202.636719 C 118.542969 202.851562 118.523438 202.96875 118.386719 203.457031 L 118.035156 204.921875 Z M 118.035156 204.921875 "/>
<path style=" stroke:none;fill-rule:nonzero;fill:rgb(0%,0%,0%);fill-opacity:1;" d="M 125.917969 200.175781 C 125.917969 200.039062 125.800781 199.84375 125.566406 199.84375 C 125.332031 199.84375 125.078125 200.078125 125.078125 200.332031 C 125.078125 200.46875 125.175781 200.664062 125.429688 200.664062 C 125.664062 200.664062 125.917969 200.410156 125.917969 200.175781 Z M 124.140625 204.609375 C 124.101562 204.726562 124.0625 204.824219 124.0625 204.980469 C 124.0625 205.390625 124.394531 205.703125 124.882812 205.703125 C 125.742188 205.703125 126.132812 204.511719 126.132812 204.375 C 126.132812 204.257812 126.015625 204.257812 125.996094 204.257812 C 125.878906 204.257812 125.859375 204.316406 125.820312 204.414062 C 125.625 205.117188 125.253906 205.46875 124.902344 205.46875 C 124.726562 205.46875 124.6875 205.351562 124.6875 205.15625 C 124.6875 204.960938 124.746094 204.804688 124.824219 204.609375 C 124.921875 204.375 125.019531 204.140625 125.097656 203.90625 C 125.175781 203.691406 125.507812 202.910156 125.527344 202.792969 C 125.566406 202.714844 125.585938 202.617188 125.585938 202.519531 C 125.585938 202.109375 125.234375 201.777344 124.765625 201.777344 C 123.886719 201.777344 123.496094 202.96875 123.496094 203.125 C 123.496094 203.222656 123.613281 203.222656 123.652344 203.222656 C 123.769531 203.222656 123.769531 203.183594 123.808594 203.085938 C 124.023438 202.34375 124.414062 202.03125 124.726562 202.03125 C 124.863281 202.03125 124.941406 202.089844 124.941406 202.324219 C 124.941406 202.539062 124.902344 202.65625 124.6875 203.203125 L 124.140625 204.609375 Z M 124.140625 204.609375 "/>
<path style=" stroke:none;fill-rule:nonzero;fill:rgb(0%,0%,0%);fill-opacity:1;" d="M 127.664062 205.078125 C 127.644531 205.195312 127.585938 205.410156 127.585938 205.429688 C 127.585938 205.625 127.742188 205.703125 127.878906 205.703125 C 128.035156 205.703125 128.171875 205.605469 128.230469 205.527344 C 128.269531 205.449219 128.328125 205.15625 128.386719 204.980469 C 128.425781 204.824219 128.523438 204.414062 128.5625 204.199219 C 128.621094 204.003906 128.679688 203.808594 128.71875 203.613281 C 128.816406 203.261719 128.835938 203.183594 129.089844 202.832031 C 129.324219 202.480469 129.734375 202.03125 130.398438 202.03125 C 130.886719 202.03125 130.90625 202.480469 130.90625 202.636719 C 130.90625 203.164062 130.535156 204.121094 130.398438 204.492188 C 130.300781 204.746094 130.261719 204.824219 130.261719 204.960938 C 130.261719 205.429688 130.632812 205.703125 131.082031 205.703125 C 131.960938 205.703125 132.332031 204.511719 132.332031 204.375 C 132.332031 204.257812 132.234375 204.257812 132.195312 204.257812 C 132.078125 204.257812 132.078125 204.316406 132.039062 204.414062 C 131.84375 205.117188 131.453125 205.46875 131.121094 205.46875 C 130.925781 205.46875 130.886719 205.351562 130.886719 205.15625 C 130.886719 204.960938 130.945312 204.84375 131.101562 204.453125 C 131.199219 204.179688 131.550781 203.261719 131.550781 202.773438 C 131.550781 201.933594 130.886719 201.777344 130.417969 201.777344 C 129.695312 201.777344 129.207031 202.226562 128.953125 202.578125 C 128.894531 201.972656 128.386719 201.777344 128.015625 201.777344 C 127.644531 201.777344 127.449219 202.050781 127.332031 202.246094 C 127.136719 202.578125 127.019531 203.066406 127.019531 203.125 C 127.019531 203.222656 127.136719 203.222656 127.175781 203.222656 C 127.292969 203.222656 127.292969 203.203125 127.351562 202.96875 C 127.488281 202.460938 127.664062 202.03125 127.996094 202.03125 C 128.230469 202.03125 128.289062 202.226562 128.289062 202.460938 C 128.289062 202.617188 128.210938 202.949219 128.132812 203.183594 C 128.074219 203.417969 127.996094 203.769531 127.957031 203.964844 L 127.664062 205.078125 Z M 127.664062 205.078125 "/>
<path style=" stroke:none;fill-rule:nonzero;fill:rgb(65.098039%,65.098039%,65.098039%);fill-opacity:0.501961;" d="M 64.316406 197.539062 L 64.316406 190.449219 L 121.011719 190.449219 L 121.011719 197.539062 L 64.316406 197.539062 Z M 64.316406 197.539062 "/>
</g>
</svg>
