<?xml version="1.0" encoding="UTF-8"?>
<!-- Converted by misc2svg (http://www.network-science.de/tools/misc2svg/) -->
<svg xmlns="http://www.w3.org/2000/svg" xmlns:xlink="http://www.w3.org/1999/xlink" width="292pt" height="261pt" viewBox="0 0 292 261" version="1.1">
<g id="misc2svg">
<path style="fill:none;stroke-width:0.3985;stroke-linecap:butt;stroke-linejoin:miter;stroke:rgb(0%,0%,0%);stroke-opacity:1;stroke-miterlimit:10;" d="M 0.0005 0.00175 L 0.0005 166.492375 " transform="matrix(1.25,0,0,-1.25,28.35875,235.885)"/>
<path style=" stroke:none;fill-rule:nonzero;fill:rgb(0%,0%,0%);fill-opacity:1;" d="M 28.359375 23.285156 C 28.109375 24.613281 27.363281 26.773438 26.488281 28.265625 L 30.226562 28.265625 C 29.355469 26.773438 28.609375 24.613281 28.359375 23.285156 "/>
<path style=" stroke:none;fill-rule:nonzero;fill:rgb(0%,0%,0%);fill-opacity:1;" d="M 32.890625 12.265625 C 32.890625 11.289062 32.070312 10.371094 30.429688 10.371094 L 26.40625 10.371094 C 26.171875 10.371094 26.035156 10.371094 26.035156 10.605469 C 26.035156 10.761719 26.132812 10.761719 26.386719 10.761719 C 26.542969 10.761719 26.777344 10.78125 26.914062 10.78125 C 27.128906 10.820312 27.1875 10.839844 27.1875 10.996094 C 27.1875 11.035156 27.1875 11.074219 27.148438 11.230469 L 25.46875 17.910156 C 25.351562 18.398438 25.332031 18.496094 24.335938 18.496094 C 24.140625 18.496094 24.003906 18.496094 24.003906 18.730469 C 24.003906 18.886719 24.140625 18.886719 24.179688 18.886719 L 25.761719 18.847656 L 26.5625 18.867188 C 26.835938 18.867188 27.109375 18.886719 27.363281 18.886719 C 27.460938 18.886719 27.617188 18.886719 27.617188 18.632812 C 27.617188 18.496094 27.5 18.496094 27.265625 18.496094 C 26.816406 18.496094 26.464844 18.496094 26.464844 18.28125 C 26.464844 18.203125 26.484375 18.144531 26.503906 18.066406 L 27.265625 14.941406 L 29.394531 14.941406 C 31.152344 14.941406 32.890625 13.652344 32.890625 12.265625 Z M 31.738281 11.953125 C 31.738281 12.441406 31.484375 13.515625 30.996094 13.964844 C 30.371094 14.53125 29.628906 14.628906 29.082031 14.628906 L 27.324219 14.628906 L 28.164062 11.230469 C 28.28125 10.800781 28.300781 10.761719 28.847656 10.761719 L 30.039062 10.761719 C 31.074219 10.761719 31.738281 11.09375 31.738281 11.953125 Z M 31.738281 11.953125 "/>
<path style="fill:none;stroke-width:0.3985;stroke-linecap:butt;stroke-linejoin:miter;stroke:rgb(0%,0%,0%);stroke-opacity:1;stroke-miterlimit:10;" d="M 0.0005 0.00175 L 194.841125 0.00175 " transform="matrix(1.25,0,0,-1.25,28.35875,235.885)"/>
<path style=" stroke:none;fill-rule:nonzero;fill:rgb(0%,0%,0%);fill-opacity:1;" d="M 276.390625 235.882812 C 275.0625 235.632812 272.90625 234.886719 271.410156 234.019531 L 271.410156 237.753906 C 272.90625 236.878906 275.0625 236.132812 276.390625 235.882812 "/>
<path style=" stroke:none;fill-rule:nonzero;fill:rgb(0%,0%,0%);fill-opacity:1;" d="M 280.964844 223.125 C 280.964844 223.027344 280.886719 222.96875 280.789062 222.96875 C 280.476562 222.96875 280.105469 223.007812 279.773438 223.007812 C 279.363281 223.007812 278.933594 222.96875 278.542969 222.96875 C 278.464844 222.96875 278.308594 222.96875 278.308594 223.203125 C 278.308594 223.339844 278.40625 223.359375 278.503906 223.359375 C 278.835938 223.378906 279.070312 223.515625 279.070312 223.769531 C 279.070312 223.964844 278.894531 224.238281 278.894531 224.238281 L 275.066406 230.332031 L 274.207031 223.730469 C 274.207031 223.515625 274.5 223.359375 275.066406 223.359375 C 275.242188 223.359375 275.378906 223.359375 275.378906 223.105469 C 275.378906 223.007812 275.28125 222.96875 275.222656 222.96875 C 274.714844 222.96875 274.1875 223.007812 273.660156 223.007812 C 273.445312 223.007812 273.210938 223.007812 272.976562 223.007812 C 272.761719 223.007812 272.527344 222.96875 272.3125 222.96875 C 272.214844 222.96875 272.078125 222.96875 272.078125 223.203125 C 272.078125 223.359375 272.175781 223.359375 272.390625 223.359375 C 273.074219 223.359375 273.09375 223.476562 273.132812 223.789062 L 274.109375 231.464844 C 274.148438 231.71875 274.207031 231.757812 274.363281 231.757812 C 274.558594 231.757812 274.617188 231.699219 274.714844 231.542969 L 279.207031 224.394531 C 279.8125 223.417969 280.339844 223.378906 280.789062 223.359375 C 280.945312 223.339844 280.964844 223.125 280.964844 223.125 Z M 280.964844 223.125 "/>
<path style="fill:none;stroke-width:0.3985;stroke-linecap:butt;stroke-linejoin:miter;stroke:rgb(0%,0%,0%);stroke-opacity:1;stroke-dasharray:2.98883,2.98883;stroke-miterlimit:10;" d="M 0.0005 28.348625 L 141.734875 28.348625 " transform="matrix(1.25,0,0,-1.25,28.35875,235.885)"/>
<path style=" stroke:none;fill-rule:nonzero;fill:rgb(0%,0%,0%);fill-opacity:1;" d="M 19.773438 197.152344 C 19.773438 196.175781 18.953125 195.257812 17.3125 195.257812 L 13.289062 195.257812 C 13.054688 195.257812 12.917969 195.257812 12.917969 195.492188 C 12.917969 195.648438 13.015625 195.648438 13.269531 195.648438 C 13.425781 195.648438 13.660156 195.667969 13.796875 195.667969 C 14.011719 195.707031 14.070312 195.726562 14.070312 195.882812 C 14.070312 195.921875 14.070312 195.960938 14.03125 196.117188 L 12.351562 202.796875 C 12.234375 203.285156 12.214844 203.382812 11.21875 203.382812 C 11.023438 203.382812 10.886719 203.382812 10.886719 203.617188 C 10.886719 203.773438 11.023438 203.773438 11.0625 203.773438 L 12.644531 203.734375 L 13.445312 203.753906 C 13.71875 203.753906 13.992188 203.773438 14.246094 203.773438 C 14.34375 203.773438 14.5 203.773438 14.5 203.519531 C 14.5 203.382812 14.382812 203.382812 14.148438 203.382812 C 13.699219 203.382812 13.347656 203.382812 13.347656 203.167969 C 13.347656 203.089844 13.367188 203.03125 13.386719 202.953125 L 14.148438 199.828125 L 16.277344 199.828125 C 18.035156 199.828125 19.773438 198.539062 19.773438 197.152344 Z M 18.621094 196.839844 C 18.621094 197.328125 18.367188 198.402344 17.878906 198.851562 C 17.253906 199.417969 16.511719 199.515625 15.964844 199.515625 L 14.207031 199.515625 L 15.046875 196.117188 C 15.164062 195.6875 15.183594 195.648438 15.730469 195.648438 L 16.921875 195.648438 C 17.957031 195.648438 18.621094 195.980469 18.621094 196.839844 Z M 18.621094 196.839844 "/>
<path style=" stroke:none;fill-rule:nonzero;fill:rgb(0%,0%,0%);fill-opacity:1;" d="M 22.492188 205.640625 L 22.492188 205.328125 L 22.160156 205.328125 C 21.28125 205.328125 21.28125 205.210938 21.28125 204.917969 L 21.28125 200.09375 C 21.28125 199.859375 21.28125 199.859375 21.027344 199.859375 C 20.460938 200.40625 19.679688 200.40625 19.328125 200.40625 L 19.328125 200.71875 C 19.523438 200.71875 20.109375 200.71875 20.578125 200.484375 L 20.578125 204.917969 C 20.578125 205.210938 20.578125 205.328125 19.71875 205.328125 L 19.386719 205.328125 L 19.386719 205.640625 L 20.929688 205.601562 L 22.492188 205.640625 Z M 22.492188 205.640625 "/>
<path style="fill:none;stroke-width:0.3985;stroke-linecap:butt;stroke-linejoin:miter;stroke:rgb(0%,0%,0%);stroke-opacity:1;stroke-dasharray:2.98883,2.98883;stroke-miterlimit:10;" d="M 0.0005 141.736125 L 56.691125 141.736125 " transform="matrix(1.25,0,0,-1.25,28.35875,235.885)"/>
<path style=" stroke:none;fill-rule:nonzero;fill:rgb(0%,0%,0%);fill-opacity:1;" d="M 19.773438 55.421875 C 19.773438 54.445312 18.953125 53.527344 17.3125 53.527344 L 13.289062 53.527344 C 13.054688 53.527344 12.917969 53.527344 12.917969 53.761719 C 12.917969 53.917969 13.015625 53.917969 13.269531 53.917969 C 13.425781 53.917969 13.660156 53.9375 13.796875 53.9375 C 14.011719 53.976562 14.070312 53.996094 14.070312 54.152344 C 14.070312 54.191406 14.070312 54.230469 14.03125 54.386719 L 12.351562 61.066406 C 12.234375 61.554688 12.214844 61.652344 11.21875 61.652344 C 11.023438 61.652344 10.886719 61.652344 10.886719 61.886719 C 10.886719 62.042969 11.023438 62.042969 11.0625 62.042969 L 12.644531 62.003906 L 13.445312 62.023438 C 13.71875 62.023438 13.992188 62.042969 14.246094 62.042969 C 14.34375 62.042969 14.5 62.042969 14.5 61.789062 C 14.5 61.652344 14.382812 61.652344 14.148438 61.652344 C 13.699219 61.652344 13.347656 61.652344 13.347656 61.4375 C 13.347656 61.359375 13.367188 61.300781 13.386719 61.222656 L 14.148438 58.097656 L 16.277344 58.097656 C 18.035156 58.097656 19.773438 56.808594 19.773438 55.421875 Z M 18.621094 55.109375 C 18.621094 55.597656 18.367188 56.671875 17.878906 57.121094 C 17.253906 57.6875 16.511719 57.785156 15.964844 57.785156 L 14.207031 57.785156 L 15.046875 54.386719 C 15.164062 53.957031 15.183594 53.917969 15.730469 53.917969 L 16.921875 53.917969 C 17.957031 53.917969 18.621094 54.25 18.621094 55.109375 Z M 18.621094 55.109375 "/>
<path style=" stroke:none;fill-rule:nonzero;fill:rgb(0%,0%,0%);fill-opacity:1;" d="M 22.765625 62.328125 L 22.472656 62.328125 C 22.453125 62.523438 22.355469 63.03125 22.238281 63.109375 C 22.179688 63.167969 21.515625 63.167969 21.378906 63.167969 L 19.777344 63.167969 C 20.695312 62.367188 21.007812 62.113281 21.515625 61.703125 C 22.160156 61.195312 22.765625 60.648438 22.765625 59.828125 C 22.765625 58.773438 21.847656 58.128906 20.734375 58.128906 C 19.660156 58.128906 18.917969 58.890625 18.917969 59.691406 C 18.917969 60.121094 19.289062 60.179688 19.386719 60.179688 C 19.582031 60.179688 19.835938 60.023438 19.835938 59.710938 C 19.835938 59.554688 19.777344 59.242188 19.328125 59.242188 C 19.601562 58.636719 20.1875 58.441406 20.597656 58.441406 C 21.476562 58.441406 21.925781 59.125 21.925781 59.828125 C 21.925781 60.589844 21.378906 61.175781 21.105469 61.488281 L 19.015625 63.578125 C 18.917969 63.65625 18.917969 63.675781 18.917969 63.910156 L 22.511719 63.910156 L 22.765625 62.328125 Z M 22.765625 62.328125 "/>
<path style="fill:none;stroke-width:0.3985;stroke-linecap:butt;stroke-linejoin:miter;stroke:rgb(0%,0%,0%);stroke-opacity:1;stroke-dasharray:2.98883,2.98883;stroke-miterlimit:10;" d="M 56.691125 0.00175 L 56.691125 113.38925 " transform="matrix(1.25,0,0,-1.25,28.35875,235.885)"/>
<path style=" stroke:none;fill-rule:nonzero;fill:rgb(0%,0%,0%);fill-opacity:1;" d="M 102.390625 240.4375 C 102.390625 240.339844 102.3125 240.28125 102.214844 240.28125 C 101.902344 240.28125 101.53125 240.320312 101.199219 240.320312 C 100.789062 240.320312 100.359375 240.28125 99.96875 240.28125 C 99.890625 240.28125 99.734375 240.28125 99.734375 240.515625 C 99.734375 240.652344 99.832031 240.671875 99.929688 240.671875 C 100.261719 240.691406 100.496094 240.828125 100.496094 241.082031 C 100.496094 241.277344 100.320312 241.550781 100.320312 241.550781 L 96.492188 247.644531 L 95.632812 241.042969 C 95.632812 240.828125 95.925781 240.671875 96.492188 240.671875 C 96.667969 240.671875 96.804688 240.671875 96.804688 240.417969 C 96.804688 240.320312 96.707031 240.28125 96.648438 240.28125 C 96.140625 240.28125 95.613281 240.320312 95.085938 240.320312 C 94.871094 240.320312 94.636719 240.320312 94.402344 240.320312 C 94.1875 240.320312 93.953125 240.28125 93.738281 240.28125 C 93.640625 240.28125 93.503906 240.28125 93.503906 240.515625 C 93.503906 240.671875 93.601562 240.671875 93.816406 240.671875 C 94.5 240.671875 94.519531 240.789062 94.558594 241.101562 L 95.535156 248.777344 C 95.574219 249.03125 95.632812 249.070312 95.789062 249.070312 C 95.984375 249.070312 96.042969 249.011719 96.140625 248.855469 L 100.632812 241.707031 C 101.238281 240.730469 101.765625 240.691406 102.214844 240.671875 C 102.371094 240.652344 102.390625 240.4375 102.390625 240.4375 Z M 102.390625 240.4375 "/>
<path style=" stroke:none;fill-rule:nonzero;fill:rgb(0%,0%,0%);fill-opacity:1;" d="M 104.183594 250.664062 L 104.183594 250.351562 L 103.851562 250.351562 C 102.972656 250.351562 102.972656 250.234375 102.972656 249.941406 L 102.972656 245.117188 C 102.972656 244.882812 102.972656 244.882812 102.71875 244.882812 C 102.152344 245.429688 101.371094 245.429688 101.019531 245.429688 L 101.019531 245.742188 C 101.214844 245.742188 101.800781 245.742188 102.269531 245.507812 L 102.269531 249.941406 C 102.269531 250.234375 102.269531 250.351562 101.410156 250.351562 L 101.078125 250.351562 L 101.078125 250.664062 L 102.621094 250.625 L 104.183594 250.664062 Z M 104.183594 250.664062 "/>
<path style="fill:none;stroke-width:0.3985;stroke-linecap:butt;stroke-linejoin:miter;stroke:rgb(0%,0%,0%);stroke-opacity:1;stroke-dasharray:2.98883,2.98883;stroke-miterlimit:10;" d="M 141.734875 0.00175 L 141.734875 85.03925 " transform="matrix(1.25,0,0,-1.25,28.35875,235.885)"/>
<path style=" stroke:none;fill-rule:nonzero;fill:rgb(0%,0%,0%);fill-opacity:1;" d="M 208.6875 240.4375 C 208.6875 240.339844 208.609375 240.28125 208.511719 240.28125 C 208.199219 240.28125 207.828125 240.320312 207.496094 240.320312 C 207.085938 240.320312 206.65625 240.28125 206.265625 240.28125 C 206.1875 240.28125 206.03125 240.28125 206.03125 240.515625 C 206.03125 240.652344 206.128906 240.671875 206.226562 240.671875 C 206.558594 240.691406 206.792969 240.828125 206.792969 241.082031 C 206.792969 241.277344 206.617188 241.550781 206.617188 241.550781 L 202.789062 247.644531 L 201.929688 241.042969 C 201.929688 240.828125 202.222656 240.671875 202.789062 240.671875 C 202.964844 240.671875 203.101562 240.671875 203.101562 240.417969 C 203.101562 240.320312 203.003906 240.28125 202.945312 240.28125 C 202.4375 240.28125 201.910156 240.320312 201.382812 240.320312 C 201.167969 240.320312 200.933594 240.320312 200.699219 240.320312 C 200.484375 240.320312 200.25 240.28125 200.035156 240.28125 C 199.9375 240.28125 199.800781 240.28125 199.800781 240.515625 C 199.800781 240.671875 199.898438 240.671875 200.113281 240.671875 C 200.796875 240.671875 200.816406 240.789062 200.855469 241.101562 L 201.832031 248.777344 C 201.871094 249.03125 201.929688 249.070312 202.085938 249.070312 C 202.28125 249.070312 202.339844 249.011719 202.4375 248.855469 L 206.929688 241.707031 C 207.535156 240.730469 208.0625 240.691406 208.511719 240.671875 C 208.667969 240.652344 208.6875 240.4375 208.6875 240.4375 Z M 208.6875 240.4375 "/>
<path style=" stroke:none;fill-rule:nonzero;fill:rgb(0%,0%,0%);fill-opacity:1;" d="M 210.757812 249.082031 L 210.464844 249.082031 C 210.445312 249.277344 210.347656 249.785156 210.230469 249.863281 C 210.171875 249.921875 209.507812 249.921875 209.371094 249.921875 L 207.769531 249.921875 C 208.6875 249.121094 209 248.867188 209.507812 248.457031 C 210.152344 247.949219 210.757812 247.402344 210.757812 246.582031 C 210.757812 245.527344 209.839844 244.882812 208.726562 244.882812 C 207.652344 244.882812 206.910156 245.644531 206.910156 246.445312 C 206.910156 246.875 207.28125 246.933594 207.378906 246.933594 C 207.574219 246.933594 207.828125 246.777344 207.828125 246.464844 C 207.828125 246.308594 207.769531 245.996094 207.320312 245.996094 C 207.59375 245.390625 208.179688 245.195312 208.589844 245.195312 C 209.46875 245.195312 209.917969 245.878906 209.917969 246.582031 C 209.917969 247.34375 209.371094 247.929688 209.097656 248.242188 L 207.007812 250.332031 C 206.910156 250.410156 206.910156 250.429688 206.910156 250.664062 L 210.503906 250.664062 L 210.757812 249.082031 Z M 210.757812 249.082031 "/>
<path style=" stroke:none;fill-rule:nonzero;fill:rgb(0%,0%,0%);fill-opacity:1;" d="M 30.773438 235.527344 C 30.773438 234.199219 29.660156 233.125 28.371094 233.125 C 27.003906 233.125 25.949219 234.238281 25.949219 235.527344 C 25.949219 236.875 27.042969 237.949219 28.351562 237.949219 C 29.699219 237.949219 30.773438 236.835938 30.773438 235.527344 Z M 30.773438 235.527344 "/>
<path style=" stroke:none;fill-rule:nonzero;fill:rgb(0%,0%,0%);fill-opacity:1;" d="M 94.300781 52.191406 C 94.300781 51.175781 93.5 50.199219 92.210938 49.925781 C 93.226562 49.59375 93.949219 48.734375 93.949219 47.738281 C 93.949219 46.722656 92.855469 46.019531 91.664062 46.019531 C 90.414062 46.019531 89.457031 46.761719 89.457031 47.71875 C 89.457031 48.128906 89.730469 48.363281 90.101562 48.363281 C 90.472656 48.363281 90.726562 48.089844 90.726562 47.71875 C 90.726562 47.113281 90.140625 47.113281 89.964844 47.113281 C 90.335938 46.488281 91.15625 46.332031 91.605469 46.332031 C 92.132812 46.332031 92.816406 46.605469 92.816406 47.71875 C 92.816406 47.875 92.777344 48.597656 92.464844 49.144531 C 92.09375 49.75 91.664062 49.789062 91.351562 49.789062 C 91.253906 49.808594 90.960938 49.828125 90.863281 49.828125 C 90.765625 49.847656 90.6875 49.867188 90.6875 49.984375 C 90.6875 50.121094 90.765625 50.121094 90.980469 50.121094 L 91.527344 50.121094 C 92.542969 50.121094 93.011719 50.960938 93.011719 52.191406 C 93.011719 53.890625 92.152344 54.242188 91.605469 54.242188 C 91.058594 54.242188 90.121094 54.027344 89.691406 53.304688 C 90.121094 53.363281 90.511719 53.089844 90.511719 52.621094 C 90.511719 52.171875 90.179688 51.917969 89.828125 51.917969 C 89.515625 51.917969 89.125 52.09375 89.125 52.640625 C 89.125 53.773438 90.277344 54.59375 91.644531 54.59375 C 93.167969 54.59375 94.300781 53.460938 94.300781 52.191406 Z M 94.300781 52.191406 "/>
<path style=" stroke:none;fill-rule:nonzero;fill:rgb(0%,0%,0%);fill-opacity:1;" d="M 94.183594 175.09375 L 93.890625 175.09375 C 93.8125 175.464844 93.734375 176.011719 93.597656 176.207031 C 93.519531 176.304688 92.699219 176.304688 92.425781 176.304688 L 90.179688 176.304688 L 91.507812 175.015625 C 93.441406 173.296875 94.183594 172.632812 94.183594 171.382812 C 94.183594 169.957031 93.070312 168.960938 91.546875 168.960938 C 90.140625 168.960938 89.222656 170.113281 89.222656 171.226562 C 89.222656 171.910156 89.847656 171.910156 89.886719 171.910156 C 90.101562 171.910156 90.53125 171.773438 90.53125 171.246094 C 90.53125 170.933594 90.296875 170.601562 89.867188 170.601562 C 89.769531 170.601562 89.75 170.601562 89.710938 170.621094 C 89.984375 169.800781 90.667969 169.351562 91.390625 169.351562 C 92.523438 169.351562 93.050781 170.367188 93.050781 171.382812 C 93.050781 172.378906 92.445312 173.355469 91.742188 174.136719 L 89.359375 176.792969 C 89.222656 176.929688 89.222656 176.96875 89.222656 177.261719 L 93.851562 177.261719 L 94.183594 175.09375 Z M 94.183594 175.09375 "/>
<path style=" stroke:none;fill-rule:nonzero;fill:rgb(0%,0%,0%);fill-opacity:1;" d="M 215.78125 123.136719 L 215.78125 122.746094 L 214.550781 122.746094 L 214.550781 117.082031 C 214.550781 116.828125 214.550781 116.75 214.335938 116.75 C 214.238281 116.75 214.199219 116.75 214.101562 116.90625 L 210.273438 122.746094 L 210.273438 123.136719 L 213.59375 123.136719 L 213.59375 124.210938 C 213.59375 124.660156 213.554688 124.796875 212.636719 124.796875 L 212.382812 124.796875 L 212.382812 125.1875 C 212.890625 125.148438 213.535156 125.148438 214.0625 125.148438 C 214.589844 125.148438 215.234375 125.148438 215.761719 125.1875 L 215.761719 124.796875 L 215.488281 124.796875 C 214.570312 124.796875 214.550781 124.660156 214.550781 124.210938 L 214.550781 123.136719 L 215.78125 123.136719 Z M 213.652344 122.746094 L 210.625 122.746094 L 213.652344 118.097656 L 213.652344 122.746094 Z M 213.652344 122.746094 "/>
<path style=" stroke:none;fill-rule:nonzero;fill:rgb(0%,0%,0%);fill-opacity:1;" d="M 215.136719 212.695312 L 215.136719 212.304688 L 214.746094 212.304688 C 213.613281 212.304688 213.59375 212.167969 213.59375 211.71875 L 213.59375 204.726562 C 213.59375 204.414062 213.59375 204.394531 213.300781 204.394531 C 212.519531 205.195312 211.425781 205.195312 211.035156 205.195312 L 211.035156 205.585938 C 211.289062 205.585938 212.011719 205.585938 212.65625 205.253906 L 212.65625 211.71875 C 212.65625 212.167969 212.617188 212.304688 211.503906 212.304688 L 211.113281 212.304688 L 211.113281 212.695312 C 211.542969 212.65625 212.617188 212.65625 213.125 212.65625 C 213.613281 212.65625 214.707031 212.65625 215.136719 212.695312 Z M 215.136719 212.695312 "/>
<path style="fill:none;stroke-width:0.3985;stroke-linecap:butt;stroke-linejoin:miter;stroke:rgb(0%,0%,0%);stroke-opacity:1;stroke-miterlimit:10;" d="M 141.734875 28.348625 C 107.14425 33.47675 87.441125 40.0455 56.691125 56.692375 " transform="matrix(1.25,0,0,-1.25,28.35875,235.885)"/>
<path style=" stroke:none;fill-rule:nonzero;fill:rgb(0%,0%,0%);fill-opacity:1;" d="M 150.578125 188.132812 L 153.730469 191.289062 L 152.945312 188.925781 L 154.992188 187.503906 "/>
<path style=" stroke:none;fill-rule:nonzero;fill:rgb(0%,0%,0%);fill-opacity:1;" d="M 131.929688 189.796875 C 131.949219 189.699219 131.949219 189.621094 131.8125 189.582031 C 131.773438 189.5625 131.675781 189.542969 131.65625 189.660156 C 131.207031 190.988281 129.917969 191.203125 129.097656 190.988281 C 128.21875 190.753906 126.792969 189.777344 127.378906 187.589844 C 128.003906 185.304688 129.742188 185.304688 130.542969 185.519531 C 131.382812 185.734375 132.222656 186.554688 132.046875 188.078125 C 132.046875 188.15625 132.125 188.175781 132.183594 188.195312 C 132.339844 188.234375 132.359375 188.175781 132.398438 188.019531 L 132.925781 186.046875 C 132.964844 185.910156 132.984375 185.832031 132.867188 185.792969 C 132.828125 185.792969 132.789062 185.773438 132.691406 185.851562 L 132.066406 186.378906 C 131.832031 185.929688 131.34375 185.382812 130.523438 185.167969 C 128.746094 184.699219 126.929688 185.675781 126.5 187.335938 C 126.03125 189.054688 127.164062 190.792969 128.902344 191.261719 C 130.386719 191.671875 131.65625 190.8125 131.929688 189.796875 Z M 131.929688 189.796875 "/>
<path style=" stroke:none;fill-rule:nonzero;fill:rgb(0%,0%,0%);fill-opacity:1;" d="M 136.941406 191.304688 C 137.214844 190.25 136.570312 189.117188 135.417969 188.804688 C 134.246094 188.492188 133.074219 189.136719 132.800781 190.191406 C 132.507812 191.226562 133.230469 192.320312 134.382812 192.632812 C 135.515625 192.925781 136.648438 192.339844 136.941406 191.304688 Z M 136.179688 191.011719 C 136.0625 191.421875 135.925781 191.871094 135.59375 192.144531 C 135.28125 192.417969 134.871094 192.476562 134.460938 192.359375 C 134.128906 192.261719 133.699219 192.066406 133.542969 191.558594 C 133.386719 191.167969 133.484375 190.738281 133.601562 190.328125 C 133.699219 189.976562 133.835938 189.46875 134.207031 189.195312 C 134.5 189 134.890625 188.921875 135.339844 189.039062 C 135.828125 189.175781 136.121094 189.507812 136.238281 189.800781 C 136.375 190.191406 136.277344 190.621094 136.179688 191.011719 Z M 136.179688 191.011719 "/>
<path style=" stroke:none;fill-rule:nonzero;fill:rgb(0%,0%,0%);fill-opacity:1;" d="M 144.335938 195.226562 L 144.414062 194.933594 C 143.867188 194.777344 143.789062 194.757812 143.886719 194.386719 L 144.394531 192.511719 C 144.589844 191.769531 144.335938 191.242188 143.457031 191.007812 C 142.773438 190.8125 142.226562 191.046875 141.875 191.417969 C 141.875 190.773438 141.464844 190.460938 140.859375 190.304688 C 140.175781 190.128906 139.628906 190.382812 139.277344 190.753906 L 139.277344 190.753906 L 139.492188 189.933594 L 138.222656 189.699219 L 138.144531 189.992188 C 138.710938 190.148438 138.769531 190.226562 138.652344 190.636719 L 138.066406 192.824219 C 137.96875 193.195312 137.871094 193.175781 137.324219 193.019531 L 137.246094 193.3125 C 137.246094 193.3125 137.871094 193.429688 138.222656 193.527344 C 138.535156 193.625 139.101562 193.820312 139.179688 193.839844 L 139.257812 193.546875 C 138.710938 193.390625 138.632812 193.371094 138.730469 193 L 139.140625 191.476562 C 139.375 190.617188 140.195312 190.382812 140.742188 190.519531 C 141.328125 190.675781 141.25 191.144531 141.132812 191.59375 L 140.625 193.507812 C 140.527344 193.878906 140.46875 193.859375 139.921875 193.722656 L 139.84375 194.015625 C 139.84375 194.015625 140.449219 194.132812 140.820312 194.230469 C 141.113281 194.308594 141.679688 194.503906 141.757812 194.523438 L 141.835938 194.230469 C 141.289062 194.09375 141.210938 194.074219 141.308594 193.703125 L 141.71875 192.179688 C 141.953125 191.320312 142.773438 191.066406 143.320312 191.222656 C 143.90625 191.378906 143.847656 191.847656 143.730469 192.296875 L 143.222656 194.210938 C 143.125 194.582031 143.046875 194.5625 142.5 194.40625 L 142.421875 194.699219 C 142.421875 194.699219 143.046875 194.816406 143.398438 194.914062 C 143.710938 194.992188 144.277344 195.1875 144.335938 195.226562 Z M 144.335938 195.226562 "/>
<path style=" stroke:none;fill-rule:nonzero;fill:rgb(0%,0%,0%);fill-opacity:1;" d="M 150.089844 194.804688 C 150.363281 193.769531 149.757812 192.695312 148.683594 192.402344 C 148.195312 192.265625 147.648438 192.324219 147.238281 192.578125 L 147.375 192.050781 L 146.085938 191.816406 L 146.007812 192.109375 C 146.59375 192.265625 146.613281 192.324219 146.515625 192.65625 L 145.480469 196.542969 C 145.382812 196.914062 145.304688 196.894531 144.757812 196.757812 L 144.660156 197.070312 C 144.660156 197.070312 145.285156 197.1875 145.65625 197.285156 C 145.949219 197.363281 146.535156 197.539062 146.59375 197.578125 L 146.691406 197.265625 C 146.144531 197.128906 146.066406 197.109375 146.164062 196.738281 L 146.515625 195.390625 C 146.554688 195.429688 146.828125 195.976562 147.53125 196.152344 C 148.644531 196.445312 149.796875 195.859375 150.089844 194.804688 Z M 149.347656 194.609375 C 149.09375 195.585938 148.253906 196.09375 147.550781 195.917969 C 146.789062 195.703125 146.652344 194.980469 146.652344 194.941406 L 147.179688 192.96875 C 147.511719 192.617188 148.078125 192.539062 148.507812 192.65625 C 149.210938 192.832031 149.582031 193.730469 149.347656 194.609375 Z M 149.347656 194.609375 "/>
<path style=" stroke:none;fill-rule:nonzero;fill:rgb(0%,0%,0%);fill-opacity:1;" d="M 154.289062 194.488281 C 154.367188 194.195312 154.152344 193.863281 153.761719 193.765625 C 153.351562 193.648438 152.804688 193.785156 152.394531 194.351562 L 152.394531 194.351562 L 152.628906 193.453125 L 151.398438 193.238281 L 151.320312 193.53125 C 151.886719 193.667969 151.925781 193.746094 151.808594 194.15625 L 151.222656 196.34375 C 151.125 196.714844 151.046875 196.695312 150.5 196.558594 L 150.421875 196.851562 C 150.460938 196.851562 151.046875 196.96875 151.417969 197.066406 L 152.492188 197.398438 L 152.570312 197.105469 L 152.394531 197.066406 C 151.769531 196.890625 151.789062 196.792969 151.867188 196.5 L 152.199219 195.25 C 152.394531 194.566406 152.941406 193.785156 153.761719 194.019531 C 153.664062 194.058594 153.546875 194.136719 153.507812 194.273438 C 153.449219 194.546875 153.644531 194.722656 153.800781 194.761719 C 153.996094 194.820312 154.230469 194.722656 154.289062 194.488281 Z M 154.289062 194.488281 "/>
<path style=" stroke:none;fill-rule:nonzero;fill:rgb(0%,0%,0%);fill-opacity:1;" d="M 157.988281 197.78125 C 157.988281 197.761719 158.007812 197.664062 157.871094 197.625 C 157.753906 197.585938 157.714844 197.644531 157.675781 197.722656 C 157.226562 198.328125 156.5625 198.289062 156.269531 198.191406 C 155.859375 198.09375 155.527344 197.839844 155.351562 197.429688 C 155.15625 196.960938 155.292969 196.453125 155.371094 196.101562 L 157.96875 196.804688 C 158.164062 196.84375 158.222656 196.863281 158.28125 196.707031 C 158.476562 195.945312 158.320312 194.929688 157.050781 194.597656 C 155.957031 194.304688 154.863281 194.929688 154.570312 195.964844 C 154.296875 197.039062 155.019531 198.152344 156.132812 198.464844 C 157.265625 198.757812 157.929688 197.957031 157.988281 197.78125 Z M 157.695312 196.511719 L 155.429688 195.90625 C 155.859375 194.734375 156.640625 194.753906 156.972656 194.832031 C 158.007812 195.105469 157.734375 196.296875 157.695312 196.511719 Z M 157.695312 196.511719 "/>
<path style=" stroke:none;fill-rule:nonzero;fill:rgb(0%,0%,0%);fill-opacity:1;" d="M 161.777344 198.714844 C 161.855469 198.402344 161.777344 198.089844 161.601562 197.835938 C 161.367188 197.464844 161.015625 197.269531 160.703125 197.152344 C 160.078125 196.839844 159.550781 196.625 159.6875 196.15625 C 159.746094 195.902344 160.078125 195.628906 160.878906 195.84375 C 161.855469 196.097656 161.699219 196.800781 161.660156 197.054688 C 161.640625 197.152344 161.757812 197.171875 161.777344 197.191406 C 161.914062 197.230469 161.914062 197.171875 161.972656 196.996094 L 162.167969 196.214844 C 162.207031 196.078125 162.246094 196 162.128906 195.960938 C 162.109375 195.960938 162.089844 195.941406 161.933594 196.019531 C 161.914062 196.039062 161.816406 196.078125 161.738281 196.097656 C 161.542969 195.863281 161.25 195.726562 160.9375 195.648438 C 159.726562 195.316406 159.257812 195.882812 159.140625 196.292969 C 159.0625 196.546875 159.121094 196.820312 159.296875 197.054688 C 159.53125 197.386719 159.863281 197.523438 160.351562 197.777344 C 160.742188 197.953125 161.40625 198.265625 161.25 198.832031 C 161.171875 199.144531 160.820312 199.476562 160.019531 199.242188 C 159.199219 199.027344 159.0625 198.421875 159.0625 197.816406 C 159.0625 197.699219 159.0625 197.679688 158.945312 197.640625 C 158.789062 197.601562 158.769531 197.640625 158.730469 197.816406 L 158.457031 198.851562 C 158.417969 198.988281 158.398438 199.066406 158.515625 199.105469 C 158.59375 199.125 158.808594 198.988281 159.023438 198.851562 C 159.296875 199.300781 159.746094 199.4375 159.960938 199.476562 C 161.054688 199.769531 161.621094 199.300781 161.777344 198.714844 Z M 161.777344 198.714844 "/>
<path style=" stroke:none;fill-rule:nonzero;fill:rgb(0%,0%,0%);fill-opacity:1;" d="M 165.585938 199.734375 C 165.664062 199.421875 165.585938 199.109375 165.410156 198.855469 C 165.175781 198.484375 164.824219 198.289062 164.511719 198.171875 C 163.886719 197.859375 163.359375 197.644531 163.496094 197.175781 C 163.554688 196.921875 163.886719 196.648438 164.6875 196.863281 C 165.664062 197.117188 165.507812 197.820312 165.46875 198.074219 C 165.449219 198.171875 165.566406 198.191406 165.585938 198.210938 C 165.722656 198.25 165.722656 198.191406 165.78125 198.015625 L 165.976562 197.234375 C 166.015625 197.097656 166.054688 197.019531 165.9375 196.980469 C 165.917969 196.980469 165.898438 196.960938 165.742188 197.039062 C 165.722656 197.058594 165.625 197.097656 165.546875 197.117188 C 165.351562 196.882812 165.058594 196.746094 164.746094 196.667969 C 163.535156 196.335938 163.066406 196.902344 162.949219 197.3125 C 162.871094 197.566406 162.929688 197.839844 163.105469 198.074219 C 163.339844 198.40625 163.671875 198.542969 164.160156 198.796875 C 164.550781 198.972656 165.214844 199.285156 165.058594 199.851562 C 164.980469 200.164062 164.628906 200.496094 163.828125 200.261719 C 163.007812 200.046875 162.871094 199.441406 162.871094 198.835938 C 162.871094 198.71875 162.871094 198.699219 162.753906 198.660156 C 162.597656 198.621094 162.578125 198.660156 162.539062 198.835938 L 162.265625 199.871094 C 162.226562 200.007812 162.207031 200.085938 162.324219 200.125 C 162.402344 200.144531 162.617188 200.007812 162.832031 199.871094 C 163.105469 200.320312 163.554688 200.457031 163.769531 200.496094 C 164.863281 200.789062 165.429688 200.320312 165.585938 199.734375 Z M 165.585938 199.734375 "/>
<path style=" stroke:none;fill-rule:nonzero;fill:rgb(0%,0%,0%);fill-opacity:1;" d="M 167.972656 201.554688 L 168.050781 201.261719 C 167.5625 201.125 167.484375 201.105469 167.582031 200.734375 L 168.402344 197.6875 L 167.132812 197.453125 L 167.054688 197.746094 C 167.582031 197.882812 167.640625 197.960938 167.523438 198.371094 L 166.9375 200.558594 C 166.839844 200.929688 166.761719 200.910156 166.214844 200.753906 L 166.136719 201.046875 C 166.136719 201.046875 166.761719 201.183594 167.09375 201.261719 C 167.40625 201.359375 167.679688 201.457031 167.972656 201.554688 Z M 168.871094 196.359375 C 168.949219 196.085938 168.792969 195.832031 168.519531 195.753906 C 168.226562 195.675781 167.972656 195.851562 167.914062 196.085938 C 167.835938 196.359375 167.992188 196.632812 168.265625 196.710938 C 168.539062 196.789062 168.8125 196.59375 168.871094 196.359375 Z M 168.871094 196.359375 "/>
<path style=" stroke:none;fill-rule:nonzero;fill:rgb(0%,0%,0%);fill-opacity:1;" d="M 173.332031 201.054688 C 173.605469 200 172.960938 198.867188 171.808594 198.554688 C 170.636719 198.242188 169.464844 198.886719 169.191406 199.941406 C 168.898438 200.976562 169.621094 202.070312 170.773438 202.382812 C 171.90625 202.675781 173.039062 202.089844 173.332031 201.054688 Z M 172.570312 200.761719 C 172.453125 201.171875 172.316406 201.621094 171.984375 201.894531 C 171.671875 202.167969 171.261719 202.226562 170.851562 202.109375 C 170.519531 202.011719 170.089844 201.816406 169.933594 201.308594 C 169.777344 200.917969 169.875 200.488281 169.992188 200.078125 C 170.089844 199.726562 170.226562 199.21875 170.597656 198.945312 C 170.890625 198.75 171.28125 198.671875 171.730469 198.789062 C 172.21875 198.925781 172.511719 199.257812 172.628906 199.550781 C 172.765625 199.941406 172.667969 200.371094 172.570312 200.761719 Z M 172.570312 200.761719 "/>
<path style=" stroke:none;fill-rule:nonzero;fill:rgb(0%,0%,0%);fill-opacity:1;" d="M 178.148438 204.273438 L 178.226562 203.980469 C 177.679688 203.84375 177.601562 203.824219 177.699219 203.453125 L 178.207031 201.578125 C 178.402344 200.835938 178.167969 200.308594 177.25 200.054688 C 176.566406 199.878906 176.019531 200.132812 175.667969 200.503906 L 175.667969 200.503906 L 175.882812 199.683594 L 174.613281 199.449219 L 174.535156 199.742188 C 175.101562 199.898438 175.160156 199.976562 175.042969 200.386719 L 174.457031 202.574219 C 174.359375 202.945312 174.261719 202.925781 173.714844 202.769531 L 173.636719 203.0625 C 173.636719 203.0625 174.261719 203.179688 174.613281 203.277344 C 174.925781 203.375 175.492188 203.570312 175.570312 203.589844 L 175.648438 203.296875 C 175.101562 203.140625 175.023438 203.121094 175.121094 202.75 L 175.53125 201.226562 C 175.765625 200.367188 176.585938 200.132812 177.132812 200.269531 C 177.71875 200.425781 177.640625 200.894531 177.523438 201.34375 L 177.015625 203.257812 C 176.917969 203.628906 176.859375 203.609375 176.3125 203.472656 L 176.234375 203.765625 C 176.234375 203.765625 176.839844 203.882812 177.210938 203.980469 C 177.503906 204.058594 178.070312 204.253906 178.148438 204.273438 Z M 178.148438 204.273438 "/>
<path style="fill:none;stroke-width:0.3985;stroke-linecap:butt;stroke-linejoin:miter;stroke:rgb(0%,0%,0%);stroke-opacity:1;stroke-miterlimit:10;" d="M 56.691125 56.692375 L 56.691125 141.736125 " transform="matrix(1.25,0,0,-1.25,28.35875,235.885)"/>
<path style=" stroke:none;fill-rule:nonzero;fill:rgb(0%,0%,0%);fill-opacity:1;" d="M 99.222656 111.871094 L 97.230469 115.855469 L 99.222656 114.359375 L 101.21875 115.855469 "/>
<path style=" stroke:none;fill-rule:nonzero;fill:rgb(0%,0%,0%);fill-opacity:1;" d="M 91.097656 127.054688 C 91 127.054688 90.921875 127.074219 90.921875 127.210938 C 90.921875 127.25 90.921875 127.347656 91.039062 127.347656 C 92.445312 127.425781 92.992188 128.617188 92.992188 129.476562 C 92.992188 130.394531 92.425781 131.996094 90.160156 131.996094 C 87.796875 131.996094 87.328125 130.316406 87.328125 129.496094 C 87.328125 128.617188 87.894531 127.601562 89.398438 127.367188 C 89.496094 127.347656 89.496094 127.269531 89.496094 127.210938 C 89.496094 127.054688 89.4375 127.054688 89.261719 127.054688 L 87.230469 127.054688 C 87.074219 127.054688 86.996094 127.054688 86.996094 127.171875 C 86.996094 127.210938 86.996094 127.25 87.113281 127.328125 L 87.777344 127.796875 C 87.40625 128.148438 86.996094 128.753906 86.996094 129.59375 C 86.996094 131.429688 88.421875 132.933594 90.140625 132.933594 C 91.917969 132.933594 93.304688 131.390625 93.304688 129.59375 C 93.304688 128.050781 92.152344 127.054688 91.097656 127.054688 Z M 91.097656 127.054688 "/>
<path style=" stroke:none;fill-rule:nonzero;fill:rgb(0%,0%,0%);fill-opacity:1;" d="M 93.128906 121.292969 L 92.816406 121.292969 C 92.816406 121.859375 92.816406 121.9375 92.445312 121.9375 L 90.492188 121.9375 C 89.730469 121.9375 89.28125 122.308594 89.28125 123.246094 C 89.28125 124.027344 89.75 124.457031 90.082031 124.652344 L 90.082031 124.652344 L 87.074219 124.652344 L 87.171875 125.960938 L 87.484375 125.960938 C 87.484375 125.375 87.5625 125.296875 87.972656 125.296875 L 92.445312 125.296875 C 92.816406 125.296875 92.816406 125.394531 92.816406 125.960938 L 93.128906 125.960938 C 93.128906 125.960938 93.089844 125.335938 93.089844 124.964844 C 93.089844 124.652344 93.128906 124.046875 93.128906 123.96875 L 92.816406 123.96875 C 92.816406 124.535156 92.816406 124.613281 92.445312 124.613281 L 90.863281 124.613281 C 89.964844 124.613281 89.535156 123.890625 89.535156 123.324219 C 89.535156 122.71875 90.003906 122.640625 90.453125 122.640625 L 92.445312 122.640625 C 92.816406 122.640625 92.816406 122.71875 92.816406 123.285156 L 93.128906 123.285156 C 93.128906 123.285156 93.089844 122.660156 93.089844 122.289062 C 93.089844 121.976562 93.128906 121.371094 93.128906 121.292969 Z M 93.128906 121.292969 "/>
<path style=" stroke:none;fill-rule:nonzero;fill:rgb(0%,0%,0%);fill-opacity:1;" d="M 92.347656 116.183594 L 91.859375 116.183594 L 91.859375 116.496094 L 92.328125 116.496094 C 92.425781 116.496094 92.835938 116.496094 92.835938 116.808594 C 92.835938 117.140625 92.425781 117.140625 92.328125 117.140625 L 90.785156 117.140625 C 90.335938 117.140625 90.003906 117.140625 89.671875 117.53125 C 89.378906 117.882812 89.242188 118.3125 89.242188 118.820312 C 89.242188 119.640625 89.554688 120.226562 90.082031 120.226562 C 90.375 120.226562 90.511719 120.050781 90.511719 119.816406 C 90.511719 119.582031 90.335938 119.40625 90.101562 119.40625 C 89.964844 119.40625 89.769531 119.484375 89.710938 119.71875 C 89.496094 119.40625 89.496094 118.898438 89.496094 118.839844 C 89.496094 118.351562 89.808594 117.824219 90.550781 117.824219 L 90.804688 117.824219 C 90.824219 118.292969 90.863281 118.878906 91.097656 119.503906 C 91.371094 120.285156 91.859375 120.539062 92.25 120.539062 C 92.992188 120.539062 93.207031 119.640625 93.207031 119.015625 C 93.207031 118.3125 92.816406 117.902344 92.484375 117.726562 C 92.835938 117.6875 93.167969 117.453125 93.167969 117.0625 C 93.167969 117.0625 93.167969 116.183594 92.347656 116.183594 Z M 91.898438 117.824219 C 92.738281 117.824219 92.972656 118.546875 92.972656 118.9375 C 92.972656 119.386719 92.679688 119.796875 92.25 119.796875 C 91.761719 119.796875 91.097656 119.386719 91.039062 117.824219 L 91.898438 117.824219 Z M 91.898438 117.824219 "/>
<path style=" stroke:none;fill-rule:nonzero;fill:rgb(0%,0%,0%);fill-opacity:1;" d="M 93.128906 110.828125 L 92.816406 110.828125 C 92.816406 111.414062 92.757812 111.472656 92.328125 111.472656 L 89.28125 111.472656 L 89.378906 112.820312 L 89.691406 112.820312 C 89.691406 112.234375 89.75 112.175781 90.179688 112.175781 L 91.683594 112.175781 C 92.445312 112.175781 92.972656 112.664062 92.972656 113.328125 C 92.972656 114.109375 92.601562 114.148438 92.152344 114.148438 L 89.28125 114.148438 L 89.378906 115.496094 L 89.691406 115.496094 C 89.691406 114.832031 89.730469 114.832031 90.492188 114.832031 L 91.800781 114.832031 C 92.40625 114.832031 93.207031 114.832031 93.207031 113.386719 C 93.207031 113.191406 93.207031 112.566406 92.484375 112.136719 L 92.484375 112.136719 L 93.207031 112.136719 L 93.128906 110.828125 Z M 93.128906 110.828125 "/>
<path style=" stroke:none;fill-rule:nonzero;fill:rgb(0%,0%,0%);fill-opacity:1;" d="M 87.640625 104.234375 C 87.25 104.234375 86.996094 104.605469 86.996094 105.09375 C 86.996094 105.40625 87.09375 105.777344 87.367188 106.109375 C 87.054688 106.382812 86.996094 106.910156 86.996094 107.242188 C 86.996094 108.199219 87.425781 109.390625 88.421875 109.390625 L 89.378906 109.390625 L 89.378906 110.132812 L 89.691406 110.132812 L 89.691406 109.390625 L 92.445312 109.390625 C 92.816406 109.390625 92.816406 109.46875 92.816406 110.035156 L 93.128906 110.035156 C 93.128906 110.035156 93.089844 109.410156 93.089844 109.058594 C 93.089844 108.726562 93.109375 108.414062 93.128906 108.082031 L 92.816406 108.082031 C 92.816406 108.648438 92.816406 108.726562 92.445312 108.726562 L 89.691406 108.726562 L 89.691406 106.578125 L 92.445312 106.578125 C 92.816406 106.578125 92.816406 106.65625 92.816406 107.222656 L 93.128906 107.222656 C 93.128906 107.183594 93.089844 106.597656 93.089844 106.226562 L 93.128906 105.09375 L 92.816406 105.09375 L 92.816406 105.269531 C 92.816406 105.914062 92.71875 105.914062 92.425781 105.914062 L 89.691406 105.914062 L 89.691406 104.820312 L 89.378906 104.820312 L 89.378906 105.953125 L 88.402344 105.953125 C 87.621094 105.953125 87.25 105.484375 87.25 105.09375 C 87.25 105.015625 87.25 104.9375 87.289062 104.839844 C 87.347656 104.976562 87.484375 105.035156 87.640625 105.035156 C 87.875 105.035156 88.03125 104.878906 88.03125 104.644531 C 88.03125 104.410156 87.875 104.234375 87.640625 104.234375 Z M 87.386719 106.519531 C 87.40625 106.617188 87.523438 106.773438 87.757812 106.773438 C 87.875 106.773438 88.03125 106.734375 88.109375 106.558594 C 88.207031 106.578125 88.304688 106.578125 88.402344 106.578125 L 89.378906 106.578125 L 89.378906 108.765625 L 88.421875 108.765625 C 87.582031 108.765625 87.25 107.90625 87.25 107.261719 C 87.25 107.183594 87.25 106.8125 87.386719 106.519531 Z M 87.386719 106.519531 "/>
<path style=" stroke:none;fill-rule:nonzero;fill:rgb(0%,0%,0%);fill-opacity:1;" d="M 92.347656 99.8125 L 91.859375 99.8125 L 91.859375 100.125 L 92.328125 100.125 C 92.425781 100.125 92.835938 100.125 92.835938 100.4375 C 92.835938 100.769531 92.425781 100.769531 92.328125 100.769531 L 90.785156 100.769531 C 90.335938 100.769531 90.003906 100.769531 89.671875 101.160156 C 89.378906 101.511719 89.242188 101.941406 89.242188 102.449219 C 89.242188 103.269531 89.554688 103.855469 90.082031 103.855469 C 90.375 103.855469 90.511719 103.679688 90.511719 103.445312 C 90.511719 103.210938 90.335938 103.035156 90.101562 103.035156 C 89.964844 103.035156 89.769531 103.113281 89.710938 103.347656 C 89.496094 103.035156 89.496094 102.527344 89.496094 102.46875 C 89.496094 101.980469 89.808594 101.453125 90.550781 101.453125 L 90.804688 101.453125 C 90.824219 101.921875 90.863281 102.507812 91.097656 103.132812 C 91.371094 103.914062 91.859375 104.167969 92.25 104.167969 C 92.992188 104.167969 93.207031 103.269531 93.207031 102.644531 C 93.207031 101.941406 92.816406 101.53125 92.484375 101.355469 C 92.835938 101.316406 93.167969 101.082031 93.167969 100.691406 C 93.167969 100.691406 93.167969 99.8125 92.347656 99.8125 Z M 91.898438 101.453125 C 92.738281 101.453125 92.972656 102.175781 92.972656 102.566406 C 92.972656 103.015625 92.679688 103.425781 92.25 103.425781 C 91.761719 103.425781 91.097656 103.015625 91.039062 101.453125 L 91.898438 101.453125 Z M 91.898438 101.453125 "/>
<path style=" stroke:none;fill-rule:nonzero;fill:rgb(0%,0%,0%);fill-opacity:1;" d="M 89.652344 94.847656 C 89.4375 94.847656 89.203125 95.003906 89.203125 95.355469 C 89.203125 95.492188 89.222656 95.960938 89.59375 96.371094 C 89.417969 96.625 89.28125 96.996094 89.28125 97.386719 C 89.28125 98.285156 89.886719 98.929688 90.570312 98.929688 C 90.902344 98.929688 91.214844 98.753906 91.449219 98.519531 C 91.527344 98.578125 91.820312 98.773438 92.152344 98.773438 C 92.269531 98.773438 92.679688 98.753906 92.933594 98.402344 C 93.050781 98.792969 93.34375 99.261719 93.792969 99.261719 C 94.4375 99.261719 94.90625 98.304688 94.90625 97.113281 C 94.90625 96.019531 94.476562 94.984375 93.773438 94.984375 C 93.519531 94.984375 93.050781 95.082031 92.796875 95.570312 C 92.523438 96.078125 92.523438 96.605469 92.523438 97.445312 C 92.523438 97.640625 92.523438 97.953125 92.503906 98.011719 C 92.445312 98.304688 92.191406 98.460938 91.9375 98.460938 C 91.722656 98.460938 91.644531 98.382812 91.585938 98.34375 C 91.664062 98.207031 91.839844 97.894531 91.839844 97.386719 C 91.839844 96.488281 91.253906 95.84375 90.570312 95.84375 C 90.21875 95.84375 89.964844 96 89.730469 96.214844 C 89.457031 95.804688 89.4375 95.472656 89.4375 95.316406 C 89.476562 95.355469 89.515625 95.394531 89.652344 95.394531 C 89.828125 95.394531 89.925781 95.277344 89.925781 95.121094 C 89.925781 95.003906 89.847656 94.847656 89.652344 94.847656 Z M 90.570312 96.527344 C 90.707031 96.527344 91.058594 96.527344 91.273438 96.703125 C 91.429688 96.839844 91.585938 97.074219 91.585938 97.386719 C 91.585938 98.226562 90.746094 98.226562 90.570312 98.226562 C 90.433594 98.226562 90.082031 98.226562 89.847656 98.070312 C 89.710938 97.933594 89.554688 97.699219 89.554688 97.386719 C 89.554688 96.527344 90.394531 96.527344 90.570312 96.527344 Z M 93.792969 95.511719 C 94.261719 95.511719 94.652344 96.214844 94.652344 97.113281 C 94.652344 98.03125 94.242188 98.714844 93.792969 98.714844 C 93.480469 98.714844 93.109375 98.441406 93.109375 97.894531 L 93.109375 97.386719 C 93.109375 96.605469 93.109375 95.511719 93.792969 95.511719 Z M 93.792969 95.511719 "/>
<path style=" stroke:none;fill-rule:nonzero;fill:rgb(0%,0%,0%);fill-opacity:1;" d="M 92.074219 90.546875 C 92.054688 90.546875 91.957031 90.566406 91.957031 90.703125 C 91.957031 90.820312 92.015625 90.839844 92.09375 90.859375 C 92.796875 91.132812 92.933594 91.796875 92.933594 92.109375 C 92.933594 92.519531 92.757812 92.910156 92.425781 93.164062 C 92.015625 93.496094 91.488281 93.496094 91.136719 93.496094 L 91.136719 90.800781 C 91.136719 90.605469 91.136719 90.546875 90.960938 90.546875 C 90.179688 90.546875 89.242188 90.976562 89.242188 92.285156 C 89.242188 93.417969 90.140625 94.296875 91.214844 94.296875 C 92.328125 94.296875 93.207031 93.320312 93.207031 92.167969 C 93.207031 90.996094 92.269531 90.546875 92.074219 90.546875 Z M 90.921875 91.152344 L 90.921875 93.496094 C 89.691406 93.398438 89.496094 92.617188 89.496094 92.285156 C 89.496094 91.210938 90.707031 91.171875 90.921875 91.152344 Z M 90.921875 91.152344 "/>
<path style="fill:none;stroke-width:0.3985;stroke-linecap:butt;stroke-linejoin:miter;stroke:rgb(0%,0%,0%);stroke-opacity:1;stroke-miterlimit:10;" d="M 56.691125 141.736125 C 85.58175 114.13925 105.1505 101.092375 141.734875 85.03925 " transform="matrix(1.25,0,0,-1.25,28.35875,235.885)"/>
<path style=" stroke:none;fill-rule:nonzero;fill:rgb(0%,0%,0%);fill-opacity:1;" d="M 148.765625 99.5625 L 146.546875 95.679688 L 146.6875 98.171875 L 144.332031 99.007812 "/>
<path style=" stroke:none;fill-rule:nonzero;fill:rgb(0%,0%,0%);fill-opacity:1;" d="M 141.480469 105.496094 L 141.636719 105.222656 C 141.128906 104.929688 141.109375 104.871094 141.324219 104.480469 L 143.960938 99.949219 L 142.769531 99.363281 L 142.613281 99.636719 C 143.121094 99.929688 143.121094 100.027344 142.925781 100.378906 L 142.007812 101.960938 C 141.890625 101.53125 141.617188 101.140625 141.226562 100.90625 C 140.210938 100.320312 138.941406 100.59375 138.394531 101.550781 C 137.847656 102.488281 138.21875 103.699219 139.15625 104.246094 C 139.78125 104.597656 140.328125 104.5 140.542969 104.441406 L 140.289062 104.890625 L 141.480469 105.496094 Z M 140.777344 104.03125 C 140.386719 104.265625 139.820312 104.363281 139.332031 104.070312 C 138.902344 103.835938 138.746094 103.40625 138.726562 103.09375 C 138.6875 102.800781 138.785156 102.429688 139.058594 101.960938 C 139.175781 101.765625 139.488281 101.21875 139.996094 101.023438 C 140.503906 100.867188 140.914062 101.023438 141.128906 101.160156 C 141.480469 101.355469 141.734375 101.707031 141.773438 102.097656 C 141.792969 102.273438 141.792969 102.273438 141.714844 102.429688 L 140.777344 104.03125 Z M 140.777344 104.03125 "/>
<path style=" stroke:none;fill-rule:nonzero;fill:rgb(0%,0%,0%);fill-opacity:1;" d="M 145.929688 106.839844 C 145.929688 106.820312 145.96875 106.742188 145.851562 106.664062 C 145.753906 106.605469 145.695312 106.664062 145.636719 106.703125 C 145.050781 107.171875 144.425781 106.957031 144.152344 106.800781 C 143.800781 106.605469 143.527344 106.273438 143.488281 105.84375 C 143.390625 105.335938 143.664062 104.867188 143.839844 104.574219 L 146.183594 105.921875 C 146.339844 106.019531 146.398438 106.039062 146.476562 105.882812 C 146.867188 105.199219 146.964844 104.183594 145.832031 103.539062 C 144.855469 102.972656 143.644531 103.304688 143.117188 104.222656 C 142.550781 105.179688 142.960938 106.429688 143.957031 107.015625 C 144.972656 107.601562 145.832031 107.015625 145.929688 106.839844 Z M 145.96875 105.550781 L 143.9375 104.378906 C 144.660156 103.363281 145.421875 103.578125 145.714844 103.753906 C 146.652344 104.28125 146.066406 105.355469 145.96875 105.550781 Z M 147.667969 102.464844 C 147.746094 102.328125 147.726562 102.09375 147.53125 101.996094 C 147.414062 101.917969 147.316406 101.9375 147.199219 101.976562 L 145.578125 102.523438 L 145.65625 102.796875 L 147.316406 102.621094 C 147.472656 102.640625 147.589844 102.601562 147.667969 102.464844 Z M 147.667969 102.464844 "/>
<path style=" stroke:none;fill-rule:nonzero;fill:rgb(0%,0%,0%);fill-opacity:1;" d="M 149.082031 108.625 L 149.316406 108.195312 L 149.0625 108.058594 L 148.828125 108.46875 C 148.535156 108.976562 148.144531 109.113281 147.832031 108.9375 C 147.324219 108.644531 147.675781 108.019531 147.753906 107.882812 L 148.945312 105.851562 L 150.117188 106.515625 L 150.273438 106.242188 L 149.101562 105.578125 L 149.902344 104.191406 L 149.628906 104.035156 C 149.238281 104.699219 148.496094 105.265625 147.753906 104.855469 L 147.636719 105.089844 L 148.339844 105.5 L 147.167969 107.53125 C 146.679688 108.371094 147.226562 108.898438 147.636719 109.132812 C 148.144531 109.425781 148.730469 109.210938 149.082031 108.625 Z M 149.082031 108.625 "/>
<path style=" stroke:none;fill-rule:nonzero;fill:rgb(0%,0%,0%);fill-opacity:1;" d="M 153.132812 111 C 153.132812 110.980469 153.171875 110.902344 153.054688 110.824219 C 152.957031 110.765625 152.898438 110.824219 152.839844 110.863281 C 152.253906 111.332031 151.628906 111.117188 151.355469 110.960938 C 151.003906 110.765625 150.730469 110.433594 150.691406 110.003906 C 150.59375 109.496094 150.867188 109.027344 151.042969 108.734375 L 153.386719 110.082031 C 153.542969 110.179688 153.601562 110.199219 153.679688 110.042969 C 154.070312 109.359375 154.167969 108.34375 153.035156 107.699219 C 152.058594 107.132812 150.847656 107.464844 150.320312 108.382812 C 149.753906 109.339844 150.164062 110.589844 151.160156 111.175781 C 152.175781 111.761719 153.035156 111.175781 153.132812 111 Z M 153.171875 109.710938 L 151.140625 108.539062 C 151.863281 107.523438 152.625 107.738281 152.917969 107.914062 C 153.855469 108.441406 153.269531 109.515625 153.171875 109.710938 Z M 153.171875 109.710938 "/>
<path style=" stroke:none;fill-rule:nonzero;fill:rgb(0%,0%,0%);fill-opacity:1;" d="M 157.359375 114.660156 L 157.515625 114.386719 C 157.027344 114.113281 156.949219 114.074219 157.125 113.761719 L 158.101562 112.0625 C 158.492188 111.398438 158.394531 110.8125 157.574219 110.34375 C 156.949219 109.992188 156.363281 110.109375 155.914062 110.402344 L 155.914062 110.402344 L 156.34375 109.640625 L 155.191406 109.09375 L 155.035156 109.367188 C 155.542969 109.660156 155.5625 109.738281 155.347656 110.109375 L 154.214844 112.082031 C 154.039062 112.394531 153.960938 112.335938 153.472656 112.0625 L 153.316406 112.335938 C 153.316406 112.335938 153.863281 112.609375 154.195312 112.785156 C 154.46875 112.941406 154.976562 113.292969 155.035156 113.332031 L 155.191406 113.058594 C 154.703125 112.765625 154.644531 112.726562 154.820312 112.414062 L 155.621094 111.046875 C 156.070312 110.265625 156.910156 110.265625 157.398438 110.539062 C 157.925781 110.851562 157.75 111.28125 157.515625 111.671875 L 156.519531 113.410156 C 156.34375 113.722656 156.285156 113.683594 155.777344 113.390625 L 155.621094 113.664062 C 155.621094 113.664062 156.1875 113.9375 156.519531 114.132812 C 156.773438 114.289062 157.28125 114.621094 157.359375 114.660156 Z M 157.359375 114.660156 "/>
<path style=" stroke:none;fill-rule:nonzero;fill:rgb(0%,0%,0%);fill-opacity:1;" d="M 160.816406 115.398438 L 161.050781 114.96875 L 160.796875 114.832031 L 160.5625 115.242188 C 160.269531 115.75 159.878906 115.886719 159.566406 115.710938 C 159.058594 115.417969 159.410156 114.792969 159.488281 114.65625 L 160.679688 112.625 L 161.851562 113.289062 L 162.007812 113.015625 L 160.835938 112.351562 L 161.636719 110.964844 L 161.363281 110.808594 C 160.972656 111.472656 160.230469 112.039062 159.488281 111.628906 L 159.371094 111.863281 L 160.074219 112.273438 L 158.902344 114.304688 C 158.414062 115.144531 158.960938 115.671875 159.371094 115.90625 C 159.878906 116.199219 160.464844 115.984375 160.816406 115.398438 Z M 160.816406 115.398438 "/>
<path style=" stroke:none;fill-rule:nonzero;fill:rgb(0%,0%,0%);fill-opacity:1;" d="M 164.867188 117.773438 C 164.867188 117.753906 164.90625 117.675781 164.789062 117.597656 C 164.691406 117.539062 164.632812 117.597656 164.574219 117.636719 C 163.988281 118.105469 163.363281 117.890625 163.089844 117.734375 C 162.738281 117.539062 162.464844 117.207031 162.425781 116.777344 C 162.328125 116.269531 162.601562 115.800781 162.777344 115.507812 L 165.121094 116.855469 C 165.277344 116.953125 165.335938 116.972656 165.414062 116.816406 C 165.804688 116.132812 165.902344 115.117188 164.769531 114.472656 C 163.792969 113.90625 162.582031 114.238281 162.054688 115.15625 C 161.488281 116.113281 161.898438 117.363281 162.894531 117.949219 C 163.910156 118.535156 164.769531 117.949219 164.867188 117.773438 Z M 164.90625 116.484375 L 162.875 115.3125 C 163.597656 114.296875 164.359375 114.511719 164.652344 114.6875 C 165.589844 115.214844 165.003906 116.289062 164.90625 116.484375 Z M 164.90625 116.484375 "/>
<path style="fill:none;stroke-width:0.3985;stroke-linecap:butt;stroke-linejoin:miter;stroke:rgb(0%,0%,0%);stroke-opacity:1;stroke-miterlimit:10;" d="M 141.734875 85.03925 L 141.734875 28.348625 " transform="matrix(1.25,0,0,-1.25,28.35875,235.885)"/>
<path style=" stroke:none;fill-rule:nonzero;fill:rgb(0%,0%,0%);fill-opacity:1;" d="M 205.527344 165.019531 L 207.519531 161.035156 L 205.527344 162.53125 L 203.535156 161.035156 "/>
<path style=" stroke:none;fill-rule:nonzero;fill:rgb(0%,0%,0%);fill-opacity:1;" d="M 210.722656 137.734375 C 210.78125 137.734375 210.878906 137.734375 210.878906 137.597656 C 210.878906 137.460938 210.800781 137.460938 210.722656 137.441406 C 210.214844 137.402344 210 137.109375 210 136.835938 C 210 136.347656 210.507812 136.269531 211.289062 136.171875 C 211.992188 136.074219 212.128906 136.054688 212.421875 135.800781 C 212.519531 135.703125 212.753906 135.46875 212.890625 135 C 213.066406 135.78125 213.59375 136.5625 214.296875 136.5625 C 215.15625 136.5625 215.878906 135.410156 215.878906 134.0625 L 215.878906 131.132812 L 215.566406 131.132812 L 215.566406 131.347656 C 215.566406 132.011719 215.46875 132.03125 215.15625 132.03125 L 210.625 132.03125 C 210.332031 132.03125 210.234375 132.011719 210.234375 131.347656 L 210.234375 131.132812 L 209.921875 131.132812 L 209.960938 132.421875 L 209.921875 133.710938 L 210.234375 133.710938 L 210.234375 133.515625 C 210.234375 132.832031 210.332031 132.8125 210.625 132.8125 L 212.773438 132.8125 L 212.773438 133.984375 C 212.773438 134.140625 212.773438 134.589844 212.421875 134.980469 C 212.148438 135.273438 211.933594 135.273438 211.347656 135.273438 C 210.78125 135.273438 210.429688 135.273438 210.097656 135.683594 C 209.785156 136.054688 209.746094 136.5625 209.746094 136.816406 C 209.746094 137.558594 210.449219 137.734375 210.722656 137.734375 Z M 214.296875 135.625 C 213.320312 135.625 213.027344 134.882812 213.027344 133.945312 L 213.027344 132.8125 L 215.214844 132.8125 C 215.46875 132.8125 215.527344 132.832031 215.546875 133.046875 C 215.566406 133.125 215.566406 133.417969 215.566406 133.613281 C 215.566406 134.433594 215.566406 135.625 214.296875 135.625 Z M 214.296875 135.625 "/>
<path style=" stroke:none;fill-rule:nonzero;fill:rgb(0%,0%,0%);fill-opacity:1;" d="M 210.976562 141.9375 C 210.996094 141.9375 211.09375 141.917969 211.09375 141.78125 C 211.09375 141.664062 211.035156 141.644531 210.957031 141.625 C 210.253906 141.351562 210.117188 140.6875 210.117188 140.375 C 210.117188 139.964844 210.292969 139.574219 210.625 139.320312 C 211.035156 138.988281 211.5625 138.988281 211.914062 138.988281 L 211.914062 141.683594 C 211.914062 141.878906 211.914062 141.9375 212.089844 141.9375 C 212.871094 141.9375 213.808594 141.507812 213.808594 140.199219 C 213.808594 139.066406 212.910156 138.1875 211.835938 138.1875 C 210.722656 138.1875 209.84375 139.164062 209.84375 140.316406 C 209.84375 141.488281 210.78125 141.9375 210.976562 141.9375 Z M 212.128906 141.332031 L 212.128906 138.988281 C 213.359375 139.085938 213.554688 139.867188 213.554688 140.199219 C 213.554688 141.273438 212.34375 141.3125 212.128906 141.332031 Z M 212.128906 141.332031 "/>
<path style=" stroke:none;fill-rule:nonzero;fill:rgb(0%,0%,0%);fill-opacity:1;" d="M 215.410156 145.757812 C 215.800781 145.757812 216.054688 145.367188 216.054688 144.898438 C 216.054688 144.214844 215.566406 143.414062 214.648438 143.414062 L 213.671875 143.414062 L 213.671875 142.671875 L 213.359375 142.671875 L 213.359375 143.414062 L 210.605469 143.414062 C 210.234375 143.414062 210.234375 143.335938 210.234375 142.769531 L 209.921875 142.769531 C 209.921875 142.808594 209.960938 143.414062 209.960938 143.765625 L 209.921875 144.898438 L 210.234375 144.898438 L 210.234375 144.722656 C 210.234375 144.078125 210.332031 144.078125 210.625 144.078125 L 213.359375 144.078125 L 213.359375 145.171875 L 213.671875 145.171875 L 213.671875 144.039062 L 214.648438 144.039062 C 215.449219 144.039062 215.800781 144.507812 215.800781 144.878906 C 215.800781 144.957031 215.800781 145.054688 215.761719 145.132812 C 215.703125 145.015625 215.566406 144.9375 215.410156 144.9375 C 215.175781 144.9375 215.019531 145.113281 215.019531 145.347656 C 215.019531 145.582031 215.175781 145.757812 215.410156 145.757812 Z M 215.410156 145.757812 "/>
<path style=" stroke:none;fill-rule:nonzero;fill:rgb(0%,0%,0%);fill-opacity:1;" d="M 213.203125 148.921875 C 213.496094 148.921875 213.769531 148.628906 213.769531 148.21875 C 213.769531 147.789062 213.496094 147.300781 212.832031 147.046875 L 212.832031 147.046875 L 213.769531 147.046875 L 213.671875 145.796875 L 213.359375 145.796875 C 213.359375 146.382812 213.300781 146.441406 212.871094 146.441406 L 210.605469 146.441406 C 210.234375 146.441406 210.234375 146.363281 210.234375 145.796875 L 209.921875 145.796875 C 209.921875 145.835938 209.960938 146.421875 209.960938 146.792969 L 209.921875 147.925781 L 210.234375 147.925781 L 210.234375 147.75 C 210.234375 147.105469 210.332031 147.105469 210.625 147.105469 L 211.914062 147.105469 C 212.636719 147.105469 213.515625 147.4375 213.515625 148.277344 C 213.457031 148.199219 213.339844 148.121094 213.203125 148.121094 C 212.910156 148.121094 212.8125 148.355469 212.8125 148.511719 C 212.8125 148.726562 212.949219 148.921875 213.203125 148.921875 Z M 213.203125 148.921875 "/>
<path style=" stroke:none;fill-rule:nonzero;fill:rgb(0%,0%,0%);fill-opacity:1;" d="M 211.777344 153.871094 C 212.871094 153.871094 213.808594 152.933594 213.808594 151.742188 C 213.808594 150.53125 212.871094 149.59375 211.777344 149.59375 C 210.703125 149.59375 209.84375 150.550781 209.84375 151.742188 C 209.84375 152.914062 210.703125 153.871094 211.777344 153.871094 Z M 211.855469 153.070312 C 211.445312 153.070312 210.976562 153.050781 210.625 152.796875 C 210.292969 152.5625 210.117188 152.171875 210.117188 151.742188 C 210.117188 151.410156 210.214844 150.941406 210.644531 150.648438 C 210.996094 150.414062 211.445312 150.394531 211.855469 150.394531 C 212.226562 150.394531 212.753906 150.394531 213.125 150.707031 C 213.378906 150.921875 213.554688 151.292969 213.554688 151.742188 C 213.554688 152.25 213.320312 152.621094 213.046875 152.816406 C 212.714844 153.050781 212.265625 153.070312 211.855469 153.070312 Z M 211.855469 153.070312 "/>
<path style=" stroke:none;fill-rule:nonzero;fill:rgb(0%,0%,0%);fill-opacity:1;" d="M 209.921875 156.605469 L 210.234375 156.605469 C 210.234375 156.097656 210.234375 156.019531 210.605469 156.019531 L 213.769531 156.019531 L 213.671875 154.730469 L 213.359375 154.730469 C 213.359375 155.277344 213.300781 155.355469 212.871094 155.355469 L 210.605469 155.355469 C 210.234375 155.355469 210.234375 155.277344 210.234375 154.710938 L 209.921875 154.710938 C 209.921875 154.710938 209.960938 155.335938 209.960938 155.6875 C 209.960938 156 209.941406 156.3125 209.921875 156.605469 Z M 215.15625 156.136719 C 215.449219 156.136719 215.664062 155.921875 215.664062 155.628906 C 215.664062 155.335938 215.429688 155.140625 215.175781 155.140625 C 214.902344 155.140625 214.667969 155.355469 214.667969 155.628906 C 214.667969 155.921875 214.921875 156.136719 215.15625 156.136719 Z M 215.15625 156.136719 "/>
<path style=" stroke:none;fill-rule:nonzero;fill:rgb(0%,0%,0%);fill-opacity:1;" d="M 209.921875 162.101562 L 210.234375 162.101562 C 210.234375 161.515625 210.292969 161.457031 210.722656 161.457031 L 215.976562 161.457031 L 215.878906 160.148438 L 215.566406 160.148438 C 215.566406 160.734375 215.488281 160.792969 215.078125 160.792969 L 213.261719 160.792969 C 213.574219 160.480469 213.769531 160.050781 213.769531 159.582031 C 213.769531 158.410156 212.890625 157.453125 211.796875 157.453125 C 210.703125 157.453125 209.84375 158.371094 209.84375 159.464844 C 209.84375 160.1875 210.214844 160.617188 210.371094 160.753906 L 209.84375 160.753906 L 209.921875 162.101562 Z M 210.839844 160.753906 C 210.429688 160.539062 210.078125 160.089844 210.078125 159.523438 C 210.078125 159.035156 210.371094 158.683594 210.625 158.507812 C 210.878906 158.332031 211.230469 158.234375 211.777344 158.234375 C 211.992188 158.234375 212.636719 158.234375 213.046875 158.585938 C 213.4375 158.9375 213.515625 159.367188 213.515625 159.621094 C 213.515625 160.03125 213.320312 160.421875 213.007812 160.65625 C 212.871094 160.753906 212.871094 160.753906 212.695312 160.753906 L 210.839844 160.753906 Z M 210.839844 160.753906 "/>
<path style=" stroke:none;fill-rule:nonzero;fill:rgb(0%,0%,0%);fill-opacity:1;" d="M 209.921875 164.925781 L 210.234375 164.925781 C 210.234375 164.417969 210.234375 164.339844 210.605469 164.339844 L 213.769531 164.339844 L 213.671875 163.050781 L 213.359375 163.050781 C 213.359375 163.597656 213.300781 163.675781 212.871094 163.675781 L 210.605469 163.675781 C 210.234375 163.675781 210.234375 163.597656 210.234375 163.03125 L 209.921875 163.03125 C 209.921875 163.03125 209.960938 163.65625 209.960938 164.007812 C 209.960938 164.320312 209.941406 164.632812 209.921875 164.925781 Z M 215.15625 164.457031 C 215.449219 164.457031 215.664062 164.242188 215.664062 163.949219 C 215.664062 163.65625 215.429688 163.460938 215.175781 163.460938 C 214.902344 163.460938 214.667969 163.675781 214.667969 163.949219 C 214.667969 164.242188 214.921875 164.457031 215.15625 164.457031 Z M 215.15625 164.457031 "/>
<path style=" stroke:none;fill-rule:nonzero;fill:rgb(0%,0%,0%);fill-opacity:1;" d="M 211.054688 168.917969 C 211.386719 168.917969 211.660156 168.761719 211.855469 168.527344 C 212.167969 168.195312 212.246094 167.804688 212.285156 167.492188 C 212.421875 166.808594 212.519531 166.242188 212.988281 166.242188 C 213.261719 166.242188 213.59375 166.476562 213.59375 167.296875 C 213.59375 168.3125 212.890625 168.351562 212.636719 168.371094 C 212.539062 168.371094 212.539062 168.488281 212.539062 168.507812 C 212.539062 168.664062 212.597656 168.664062 212.773438 168.664062 L 213.574219 168.664062 C 213.730469 168.664062 213.808594 168.664062 213.808594 168.546875 C 213.808594 168.507812 213.808594 168.488281 213.710938 168.371094 C 213.691406 168.351562 213.613281 168.273438 213.574219 168.214844 C 213.75 167.941406 213.808594 167.628906 213.808594 167.296875 C 213.808594 166.046875 213.144531 165.753906 212.714844 165.753906 C 212.441406 165.753906 212.207031 165.871094 212.03125 166.085938 C 211.757812 166.417969 211.699219 166.75 211.601562 167.296875 C 211.523438 167.726562 211.40625 168.429688 210.820312 168.429688 C 210.488281 168.429688 210.078125 168.195312 210.078125 167.355469 C 210.078125 166.515625 210.625 166.222656 211.210938 166.066406 C 211.328125 166.027344 211.367188 166.027344 211.367188 165.910156 C 211.367188 165.753906 211.308594 165.753906 211.132812 165.753906 L 210.058594 165.753906 C 209.921875 165.753906 209.84375 165.753906 209.84375 165.871094 C 209.84375 165.949219 210.019531 166.125 210.214844 166.300781 C 209.84375 166.671875 209.84375 167.140625 209.84375 167.355469 C 209.84375 168.488281 210.449219 168.917969 211.054688 168.917969 Z M 211.054688 168.917969 "/>
<path style=" stroke:none;fill-rule:nonzero;fill:rgb(0%,0%,0%);fill-opacity:1;" d="M 211.054688 172.863281 C 211.386719 172.863281 211.660156 172.707031 211.855469 172.472656 C 212.167969 172.140625 212.246094 171.75 212.285156 171.4375 C 212.421875 170.753906 212.519531 170.1875 212.988281 170.1875 C 213.261719 170.1875 213.59375 170.421875 213.59375 171.242188 C 213.59375 172.257812 212.890625 172.296875 212.636719 172.316406 C 212.539062 172.316406 212.539062 172.433594 212.539062 172.453125 C 212.539062 172.609375 212.597656 172.609375 212.773438 172.609375 L 213.574219 172.609375 C 213.730469 172.609375 213.808594 172.609375 213.808594 172.492188 C 213.808594 172.453125 213.808594 172.433594 213.710938 172.316406 C 213.691406 172.296875 213.613281 172.21875 213.574219 172.160156 C 213.75 171.886719 213.808594 171.574219 213.808594 171.242188 C 213.808594 169.992188 213.144531 169.699219 212.714844 169.699219 C 212.441406 169.699219 212.207031 169.816406 212.03125 170.03125 C 211.757812 170.363281 211.699219 170.695312 211.601562 171.242188 C 211.523438 171.671875 211.40625 172.375 210.820312 172.375 C 210.488281 172.375 210.078125 172.140625 210.078125 171.300781 C 210.078125 170.460938 210.625 170.167969 211.210938 170.011719 C 211.328125 169.972656 211.367188 169.972656 211.367188 169.855469 C 211.367188 169.699219 211.308594 169.699219 211.132812 169.699219 L 210.058594 169.699219 C 209.921875 169.699219 209.84375 169.699219 209.84375 169.816406 C 209.84375 169.894531 210.019531 170.070312 210.214844 170.246094 C 209.84375 170.617188 209.84375 171.085938 209.84375 171.300781 C 209.84375 172.433594 210.449219 172.863281 211.054688 172.863281 Z M 211.054688 172.863281 "/>
<path style=" stroke:none;fill-rule:nonzero;fill:rgb(0%,0%,0%);fill-opacity:1;" d="M 210.976562 177.335938 C 210.996094 177.335938 211.09375 177.316406 211.09375 177.179688 C 211.09375 177.0625 211.035156 177.042969 210.957031 177.023438 C 210.253906 176.75 210.117188 176.085938 210.117188 175.773438 C 210.117188 175.363281 210.292969 174.972656 210.625 174.71875 C 211.035156 174.386719 211.5625 174.386719 211.914062 174.386719 L 211.914062 177.082031 C 211.914062 177.277344 211.914062 177.335938 212.089844 177.335938 C 212.871094 177.335938 213.808594 176.90625 213.808594 175.597656 C 213.808594 174.464844 212.910156 173.585938 211.835938 173.585938 C 210.722656 173.585938 209.84375 174.5625 209.84375 175.714844 C 209.84375 176.886719 210.78125 177.335938 210.976562 177.335938 Z M 212.128906 176.730469 L 212.128906 174.386719 C 213.359375 174.484375 213.554688 175.265625 213.554688 175.597656 C 213.554688 176.671875 212.34375 176.710938 212.128906 176.730469 Z M 212.128906 176.730469 "/>
<path style=" stroke:none;fill-rule:nonzero;fill:rgb(0%,0%,0%);fill-opacity:1;" d="M 209.921875 185.492188 L 210.234375 185.492188 C 210.234375 184.925781 210.234375 184.847656 210.605469 184.847656 L 212.558594 184.847656 C 213.320312 184.847656 213.769531 184.457031 213.769531 183.539062 C 213.769531 182.835938 213.398438 182.367188 212.949219 182.132812 C 213.574219 181.957031 213.769531 181.488281 213.769531 180.863281 C 213.769531 180.140625 213.378906 179.691406 212.910156 179.4375 L 212.910156 179.4375 L 213.769531 179.4375 L 213.671875 178.148438 L 213.359375 178.148438 C 213.359375 178.734375 213.300781 178.8125 212.871094 178.8125 L 210.605469 178.8125 C 210.234375 178.8125 210.234375 178.714844 210.234375 178.148438 L 209.921875 178.148438 C 209.921875 178.148438 209.960938 178.773438 209.960938 179.144531 C 209.960938 179.457031 209.921875 180.0625 209.921875 180.140625 L 210.234375 180.140625 C 210.234375 179.574219 210.234375 179.496094 210.605469 179.496094 L 212.1875 179.496094 C 213.085938 179.496094 213.515625 180.21875 213.515625 180.785156 C 213.515625 181.390625 213.046875 181.46875 212.597656 181.46875 L 210.605469 181.46875 C 210.234375 181.46875 210.234375 181.390625 210.234375 180.824219 L 209.921875 180.824219 C 209.921875 180.824219 209.960938 181.449219 209.960938 181.820312 C 209.960938 182.132812 209.921875 182.738281 209.921875 182.816406 L 210.234375 182.816406 C 210.234375 182.25 210.234375 182.171875 210.605469 182.171875 L 212.1875 182.171875 C 213.085938 182.171875 213.515625 182.894531 213.515625 183.460938 C 213.515625 184.066406 213.046875 184.144531 212.597656 184.144531 L 210.605469 184.144531 C 210.234375 184.144531 210.234375 184.066406 210.234375 183.5 L 209.921875 183.5 C 209.921875 183.5 209.960938 184.125 209.960938 184.496094 C 209.960938 184.808594 209.921875 185.414062 209.921875 185.492188 Z M 209.921875 185.492188 "/>
<path style=" stroke:none;fill-rule:nonzero;fill:rgb(0%,0%,0%);fill-opacity:1;" d="M 210.976562 189.945312 C 210.996094 189.945312 211.09375 189.925781 211.09375 189.789062 C 211.09375 189.671875 211.035156 189.652344 210.957031 189.632812 C 210.253906 189.359375 210.117188 188.695312 210.117188 188.382812 C 210.117188 187.972656 210.292969 187.582031 210.625 187.328125 C 211.035156 186.996094 211.5625 186.996094 211.914062 186.996094 L 211.914062 189.691406 C 211.914062 189.886719 211.914062 189.945312 212.089844 189.945312 C 212.871094 189.945312 213.808594 189.515625 213.808594 188.207031 C 213.808594 187.074219 212.910156 186.195312 211.835938 186.195312 C 210.722656 186.195312 209.84375 187.171875 209.84375 188.324219 C 209.84375 189.496094 210.78125 189.945312 210.976562 189.945312 Z M 212.128906 189.339844 L 212.128906 186.996094 C 213.359375 187.09375 213.554688 187.875 213.554688 188.207031 C 213.554688 189.28125 212.34375 189.320312 212.128906 189.339844 Z M 212.128906 189.339844 "/>
<path style=" stroke:none;fill-rule:nonzero;fill:rgb(0%,0%,0%);fill-opacity:1;" d="M 209.921875 195.425781 L 210.234375 195.425781 C 210.234375 194.859375 210.234375 194.78125 210.605469 194.78125 L 212.558594 194.78125 C 213.320312 194.78125 213.769531 194.410156 213.769531 193.472656 C 213.769531 192.75 213.378906 192.300781 212.910156 192.046875 L 212.910156 192.046875 L 213.769531 192.046875 L 213.671875 190.757812 L 213.359375 190.757812 C 213.359375 191.34375 213.300781 191.421875 212.871094 191.421875 L 210.605469 191.421875 C 210.234375 191.421875 210.234375 191.324219 210.234375 190.757812 L 209.921875 190.757812 C 209.921875 190.757812 209.960938 191.382812 209.960938 191.753906 C 209.960938 192.066406 209.921875 192.671875 209.921875 192.75 L 210.234375 192.75 C 210.234375 192.183594 210.234375 192.105469 210.605469 192.105469 L 212.1875 192.105469 C 213.085938 192.105469 213.515625 192.828125 213.515625 193.394531 C 213.515625 194 213.046875 194.078125 212.597656 194.078125 L 210.605469 194.078125 C 210.234375 194.078125 210.234375 194 210.234375 193.433594 L 209.921875 193.433594 C 209.921875 193.433594 209.960938 194.058594 209.960938 194.429688 C 209.960938 194.742188 209.921875 195.347656 209.921875 195.425781 Z M 209.921875 195.425781 "/>
<path style=" stroke:none;fill-rule:nonzero;fill:rgb(0%,0%,0%);fill-opacity:1;" d="M 211.015625 198.78125 L 211.503906 198.78125 L 211.503906 198.488281 L 211.035156 198.488281 C 210.429688 198.488281 210.117188 198.214844 210.117188 197.863281 C 210.117188 197.277344 210.839844 197.277344 210.996094 197.277344 L 213.359375 197.277344 L 213.359375 198.625 L 213.671875 198.625 L 213.671875 197.277344 L 215.273438 197.277344 L 215.273438 196.964844 C 214.492188 196.964844 213.632812 196.613281 213.613281 195.773438 L 213.359375 195.773438 L 213.359375 196.574219 L 211.015625 196.574219 C 210.039062 196.574219 209.84375 197.316406 209.84375 197.804688 C 209.84375 198.390625 210.332031 198.78125 211.015625 198.78125 Z M 211.015625 198.78125 "/>
</g>
</svg>
