<?xml version="1.0" encoding="UTF-8"?>
<!-- Converted by misc2svg (http://www.network-science.de/tools/misc2svg/) -->
<svg xmlns="http://www.w3.org/2000/svg" xmlns:xlink="http://www.w3.org/1999/xlink" width="191pt" height="136pt" viewBox="0 0 191 136" version="1.1">
<g id="misc2svg">
<path style=" stroke:none;fill-rule:nonzero;fill:rgb(50.196078%,50.196078%,50.196078%);fill-opacity:1;" d="M 30.816406 68.714844 C 30.816406 65.78125 28.4375 63.402344 25.5 63.402344 C 22.5625 63.402344 20.1875 65.78125 20.1875 68.714844 C 20.1875 71.648438 22.5625 74.03125 25.5 74.03125 C 28.4375 74.03125 30.816406 71.648438 30.816406 68.714844 Z M 30.816406 68.714844 "/>
<path style=" stroke:none;fill-rule:nonzero;fill:rgb(0%,0%,0%);fill-opacity:1;" d="M 13.816406 59.570312 L 13.816406 58.847656 L 10.515625 58.847656 L 10.515625 59.570312 L 13.816406 59.570312 Z M 13.816406 59.570312 "/>
<path style=" stroke:none;fill-rule:nonzero;fill:rgb(0%,0%,0%);fill-opacity:1;" d="M 21.089844 64.316406 L 21.089844 63.925781 C 20.25 63.925781 20.113281 63.925781 20.113281 63.359375 L 20.113281 56.386719 L 19.839844 56.386719 L 19.371094 57.519531 C 19.214844 57.167969 18.707031 56.386719 17.710938 56.386719 C 16.265625 56.386719 14.957031 57.597656 14.957031 59.21875 C 14.957031 60.78125 16.167969 62.03125 17.613281 62.03125 C 18.472656 62.03125 18.980469 61.503906 19.253906 61.132812 L 19.253906 63.359375 C 19.253906 63.925781 19.117188 63.925781 18.296875 63.925781 L 18.296875 64.316406 L 19.683594 64.277344 L 21.089844 64.316406 Z M 19.292969 60.195312 C 19.292969 60.605469 19.078125 60.957031 18.804688 61.25 C 18.648438 61.425781 18.238281 61.757812 17.652344 61.757812 C 16.753906 61.757812 15.992188 60.644531 15.992188 59.21875 C 15.992188 57.734375 16.851562 56.699219 17.789062 56.699219 C 18.785156 56.699219 19.292969 57.773438 19.292969 58.4375 L 19.292969 60.195312 Z M 19.292969 60.195312 "/>
<path style=" stroke:none;fill-rule:nonzero;fill:rgb(50.196078%,50.196078%,50.196078%);fill-opacity:1;" d="M 101.679688 68.714844 C 101.679688 65.78125 99.300781 63.402344 96.367188 63.402344 C 93.433594 63.402344 91.054688 65.78125 91.054688 68.714844 C 91.054688 71.648438 93.433594 74.03125 96.367188 74.03125 C 99.300781 74.03125 101.679688 71.648438 101.679688 68.714844 Z M 101.679688 68.714844 "/>
<path style=" stroke:none;fill-rule:nonzero;fill:rgb(0%,0%,0%);fill-opacity:1;" d="M 109.75 77.25 C 109.75 77.015625 109.515625 77.015625 109.339844 77.015625 L 105.863281 77.015625 L 105.863281 73.519531 C 105.863281 73.34375 105.863281 73.109375 105.609375 73.109375 C 105.355469 73.109375 105.355469 73.34375 105.355469 73.519531 L 105.355469 77.015625 L 101.878906 77.015625 C 101.703125 77.015625 101.46875 77.015625 101.46875 77.25 C 101.46875 77.503906 101.703125 77.503906 101.878906 77.503906 L 105.355469 77.503906 L 105.355469 81 C 105.355469 81.175781 105.355469 81.410156 105.609375 81.410156 C 105.863281 81.410156 105.863281 81.175781 105.863281 81 L 105.863281 77.503906 L 109.339844 77.503906 C 109.515625 77.503906 109.75 77.503906 109.75 77.25 Z M 109.75 77.25 "/>
<path style=" stroke:none;fill-rule:nonzero;fill:rgb(0%,0%,0%);fill-opacity:1;" d="M 117.015625 82.796875 L 117.015625 82.40625 C 116.175781 82.40625 116.039062 82.40625 116.039062 81.839844 L 116.039062 74.867188 L 115.765625 74.867188 L 115.296875 76 C 115.140625 75.648438 114.632812 74.867188 113.636719 74.867188 C 112.191406 74.867188 110.882812 76.078125 110.882812 77.699219 C 110.882812 79.261719 112.09375 80.511719 113.539062 80.511719 C 114.398438 80.511719 114.90625 79.984375 115.179688 79.613281 L 115.179688 81.839844 C 115.179688 82.40625 115.042969 82.40625 114.222656 82.40625 L 114.222656 82.796875 L 115.609375 82.757812 L 117.015625 82.796875 Z M 115.21875 78.675781 C 115.21875 79.085938 115.003906 79.4375 114.730469 79.730469 C 114.574219 79.90625 114.164062 80.238281 113.578125 80.238281 C 112.679688 80.238281 111.917969 79.125 111.917969 77.699219 C 111.917969 76.214844 112.777344 75.179688 113.714844 75.179688 C 114.710938 75.179688 115.21875 76.253906 115.21875 76.917969 L 115.21875 78.675781 Z M 115.21875 78.675781 "/>
<path style="fill:none;stroke-width:0.3985;stroke-linecap:butt;stroke-linejoin:miter;stroke:rgb(0%,0%,0%);stroke-opacity:1;stroke-miterlimit:10;" d="M 99.2155 0.001125 C 99.2155 23.4855 80.178 42.519875 56.693625 42.519875 C 33.20925 42.519875 14.174875 23.4855 14.174875 0.001125 C 14.174875 -23.48325 33.20925 -42.52075 56.693625 -42.52075 C 80.178 -42.52075 99.2155 -23.48325 99.2155 0.001125 Z M 99.2155 0.001125 " transform="matrix(1.25,0,0,-1.25,60.93375,68.71625)"/>
<path style="fill:none;stroke-width:0.3985;stroke-linecap:butt;stroke-linejoin:miter;stroke:rgb(0%,0%,0%);stroke-opacity:1;stroke-miterlimit:10;" d="M 35.43425 36.851125 L 35.43425 39.682375 M 35.43425 36.851125 L 35.43425 34.01675 " transform="matrix(1.25,0,0,-1.25,60.93375,68.71625)"/>
<path style=" stroke:none;fill-rule:nonzero;fill:rgb(0%,0%,0%);fill-opacity:1;" d="M 100.367188 21.796875 L 100.367188 21.40625 L 100.054688 21.40625 C 99.097656 21.40625 99.078125 21.269531 99.078125 20.820312 L 99.078125 14.257812 C 99.078125 13.808594 99.097656 13.671875 100.054688 13.671875 L 100.367188 13.671875 L 100.367188 13.28125 L 98.257812 13.28125 C 97.925781 13.28125 97.925781 13.300781 97.847656 13.515625 L 95.113281 20.546875 L 92.417969 13.554688 C 92.300781 13.28125 92.261719 13.28125 91.96875 13.28125 L 89.878906 13.28125 L 89.878906 13.671875 L 90.171875 13.671875 C 91.128906 13.671875 91.148438 13.808594 91.148438 14.257812 L 91.148438 20.488281 C 91.148438 20.820312 91.148438 21.40625 89.878906 21.40625 L 89.878906 21.796875 L 91.324219 21.757812 L 92.789062 21.796875 L 92.789062 21.40625 C 91.5 21.40625 91.5 20.820312 91.5 20.488281 L 91.5 13.769531 L 91.519531 13.769531 L 94.527344 21.523438 C 94.585938 21.679688 94.644531 21.796875 94.761719 21.796875 C 94.898438 21.796875 94.9375 21.699219 94.996094 21.5625 L 98.0625 13.671875 L 98.0625 13.671875 L 98.0625 20.820312 C 98.0625 21.269531 98.042969 21.40625 97.085938 21.40625 L 96.792969 21.40625 L 96.792969 21.796875 C 97.242188 21.757812 98.101562 21.757812 98.589844 21.757812 C 99.058594 21.757812 99.898438 21.757812 100.367188 21.796875 Z M 100.367188 21.796875 "/>
<path style="fill:none;stroke-width:0.79701;stroke-linecap:butt;stroke-linejoin:miter;stroke:rgb(0%,0%,0%);stroke-opacity:1;stroke-miterlimit:10;" d="M -28.347 0.001125 L 35.43425 36.851125 " transform="matrix(1.25,0,0,-1.25,60.93375,68.71625)"/>
<path style=" stroke:none;fill-rule:nonzero;fill:rgb(0%,0%,0%);fill-opacity:1;" d="M 65.191406 34.460938 C 65.191406 34.03125 64.800781 33.660156 64.15625 33.660156 C 63.355469 33.660156 62.808594 34.265625 62.574219 34.617188 C 62.457031 34.050781 62.007812 33.660156 61.421875 33.660156 C 60.855469 33.660156 60.621094 34.148438 60.503906 34.363281 C 60.289062 34.792969 60.132812 35.535156 60.132812 35.574219 C 60.132812 35.710938 60.269531 35.710938 60.269531 35.710938 C 60.40625 35.710938 60.40625 35.691406 60.484375 35.417969 C 60.699219 34.539062 60.953125 33.933594 61.402344 33.933594 C 61.597656 33.933594 61.773438 34.03125 61.773438 34.5 C 61.773438 34.773438 61.734375 34.910156 61.578125 35.554688 L 60.855469 38.425781 C 60.816406 38.621094 60.738281 38.914062 60.738281 38.972656 C 60.738281 39.1875 60.914062 39.304688 61.109375 39.304688 C 61.265625 39.304688 61.480469 39.207031 61.578125 38.953125 C 61.597656 38.914062 62.007812 37.214844 62.066406 36.980469 L 62.457031 35.359375 C 62.515625 35.203125 62.867188 34.617188 63.160156 34.34375 C 63.257812 34.265625 63.628906 33.933594 64.15625 33.933594 C 64.488281 33.933594 64.683594 34.089844 64.683594 34.089844 C 64.3125 34.148438 64.039062 34.441406 64.039062 34.773438 C 64.039062 34.96875 64.175781 35.203125 64.507812 35.203125 C 64.839844 35.203125 65.191406 34.910156 65.191406 34.460938 Z M 65.191406 34.460938 "/>
<path style=" stroke:none;fill-rule:nonzero;fill:rgb(0%,0%,0%);fill-opacity:1;" d="M 69.773438 39.453125 L 69.480469 39.453125 C 69.460938 39.648438 69.363281 40.15625 69.246094 40.234375 C 69.1875 40.292969 68.523438 40.292969 68.386719 40.292969 L 66.785156 40.292969 C 67.703125 39.492188 68.015625 39.238281 68.523438 38.828125 C 69.167969 38.320312 69.773438 37.773438 69.773438 36.953125 C 69.773438 35.898438 68.855469 35.253906 67.742188 35.253906 C 66.667969 35.253906 65.925781 36.015625 65.925781 36.816406 C 65.925781 37.246094 66.296875 37.304688 66.394531 37.304688 C 66.589844 37.304688 66.84375 37.148438 66.84375 36.835938 C 66.84375 36.679688 66.785156 36.367188 66.335938 36.367188 C 66.609375 35.761719 67.195312 35.566406 67.605469 35.566406 C 68.484375 35.566406 68.933594 36.25 68.933594 36.953125 C 68.933594 37.714844 68.386719 38.300781 68.113281 38.613281 L 66.023438 40.703125 C 65.925781 40.78125 65.925781 40.800781 65.925781 41.035156 L 69.519531 41.035156 L 69.773438 39.453125 Z M 69.773438 39.453125 "/>
<path style="fill:none;stroke-width:0.79701;stroke-linecap:butt;stroke-linejoin:miter;stroke:rgb(0%,0%,0%);stroke-opacity:1;stroke-miterlimit:10;" d="M 28.34675 0.001125 L 35.43425 36.851125 " transform="matrix(1.25,0,0,-1.25,60.93375,68.71625)"/>
<path style=" stroke:none;fill-rule:nonzero;fill:rgb(0%,0%,0%);fill-opacity:1;" d="M 110.875 42.722656 C 110.875 42.292969 110.484375 41.921875 109.839844 41.921875 C 109.039062 41.921875 108.492188 42.527344 108.257812 42.878906 C 108.140625 42.3125 107.691406 41.921875 107.105469 41.921875 C 106.539062 41.921875 106.304688 42.410156 106.1875 42.625 C 105.972656 43.054688 105.816406 43.796875 105.816406 43.835938 C 105.816406 43.972656 105.953125 43.972656 105.953125 43.972656 C 106.089844 43.972656 106.089844 43.953125 106.167969 43.679688 C 106.382812 42.800781 106.636719 42.195312 107.085938 42.195312 C 107.28125 42.195312 107.457031 42.292969 107.457031 42.761719 C 107.457031 43.035156 107.417969 43.171875 107.261719 43.816406 L 106.539062 46.6875 C 106.5 46.882812 106.421875 47.175781 106.421875 47.234375 C 106.421875 47.449219 106.597656 47.566406 106.792969 47.566406 C 106.949219 47.566406 107.164062 47.46875 107.261719 47.214844 C 107.28125 47.175781 107.691406 45.476562 107.75 45.242188 L 108.140625 43.621094 C 108.199219 43.464844 108.550781 42.878906 108.84375 42.605469 C 108.941406 42.527344 109.3125 42.195312 109.839844 42.195312 C 110.171875 42.195312 110.367188 42.351562 110.367188 42.351562 C 109.996094 42.410156 109.722656 42.703125 109.722656 43.035156 C 109.722656 43.230469 109.859375 43.464844 110.191406 43.464844 C 110.523438 43.464844 110.875 43.171875 110.875 42.722656 Z M 110.875 42.722656 "/>
<path style=" stroke:none;fill-rule:nonzero;fill:rgb(0%,0%,0%);fill-opacity:1;" d="M 115.183594 49.296875 L 115.183594 48.984375 L 114.851562 48.984375 C 113.972656 48.984375 113.972656 48.867188 113.972656 48.574219 L 113.972656 43.75 C 113.972656 43.515625 113.972656 43.515625 113.71875 43.515625 C 113.152344 44.0625 112.371094 44.0625 112.019531 44.0625 L 112.019531 44.375 C 112.214844 44.375 112.800781 44.375 113.269531 44.140625 L 113.269531 48.574219 C 113.269531 48.867188 113.269531 48.984375 112.410156 48.984375 L 112.078125 48.984375 L 112.078125 49.296875 L 113.621094 49.257812 L 115.183594 49.296875 Z M 115.183594 49.296875 "/>
<path style=" stroke:none;fill-rule:nonzero;fill:rgb(0%,0%,0%);fill-opacity:1;" d="M 171.117188 10.527344 C 171.117188 10.429688 171.039062 10.371094 170.941406 10.371094 C 170.628906 10.371094 170.257812 10.410156 169.925781 10.410156 C 169.515625 10.410156 169.085938 10.371094 168.695312 10.371094 C 168.617188 10.371094 168.460938 10.371094 168.460938 10.605469 C 168.460938 10.742188 168.558594 10.761719 168.65625 10.761719 C 168.988281 10.78125 169.222656 10.917969 169.222656 11.171875 C 169.222656 11.367188 169.046875 11.640625 169.046875 11.640625 L 165.21875 17.734375 L 164.359375 11.132812 C 164.359375 10.917969 164.652344 10.761719 165.21875 10.761719 C 165.394531 10.761719 165.53125 10.761719 165.53125 10.507812 C 165.53125 10.410156 165.433594 10.371094 165.375 10.371094 C 164.867188 10.371094 164.339844 10.410156 163.8125 10.410156 C 163.597656 10.410156 163.363281 10.410156 163.128906 10.410156 C 162.914062 10.410156 162.679688 10.371094 162.464844 10.371094 C 162.367188 10.371094 162.230469 10.371094 162.230469 10.605469 C 162.230469 10.761719 162.328125 10.761719 162.542969 10.761719 C 163.226562 10.761719 163.246094 10.878906 163.285156 11.191406 L 164.261719 18.867188 C 164.300781 19.121094 164.359375 19.160156 164.515625 19.160156 C 164.710938 19.160156 164.769531 19.101562 164.867188 18.945312 L 169.359375 11.796875 C 169.964844 10.820312 170.492188 10.78125 170.941406 10.761719 C 171.097656 10.742188 171.117188 10.527344 171.117188 10.527344 Z M 171.117188 10.527344 "/>
<path style=" stroke:none;fill-rule:nonzero;fill:rgb(0%,0%,0%);fill-opacity:1;" d="M 171.625 15.304688 C 171.625 15.167969 171.507812 14.972656 171.273438 14.972656 C 171.039062 14.972656 170.785156 15.207031 170.785156 15.460938 C 170.785156 15.597656 170.882812 15.792969 171.136719 15.792969 C 171.371094 15.792969 171.625 15.539062 171.625 15.304688 Z M 171.839844 19.503906 C 171.839844 19.386719 171.722656 19.386719 171.703125 19.386719 C 171.585938 19.386719 171.566406 19.445312 171.527344 19.542969 C 171.332031 20.246094 170.960938 20.597656 170.609375 20.597656 C 170.433594 20.597656 170.394531 20.480469 170.394531 20.285156 C 170.394531 20.089844 170.453125 19.933594 170.53125 19.738281 L 170.804688 19.035156 L 171.234375 17.921875 C 171.273438 17.84375 171.292969 17.746094 171.292969 17.648438 C 171.292969 17.238281 170.941406 16.90625 170.472656 16.90625 C 169.59375 16.90625 169.203125 18.097656 169.203125 18.253906 C 169.203125 18.351562 169.320312 18.351562 169.359375 18.351562 C 169.476562 18.351562 169.476562 18.3125 169.515625 18.214844 C 169.730469 17.472656 170.121094 17.160156 170.433594 17.160156 C 170.570312 17.160156 170.648438 17.21875 170.648438 17.453125 C 170.648438 17.667969 170.609375 17.785156 170.394531 18.332031 L 169.847656 19.738281 C 169.808594 19.855469 169.769531 19.953125 169.769531 20.109375 C 169.769531 20.519531 170.101562 20.832031 170.589844 20.832031 C 171.449219 20.832031 171.839844 19.640625 171.839844 19.503906 Z M 171.839844 19.503906 "/>
<path style="fill:none;stroke-width:0.3985;stroke-linecap:butt;stroke-linejoin:miter;stroke:rgb(0%,0%,0%);stroke-opacity:1;stroke-miterlimit:10;" d="M -27.487625 -7.086375 L 27.4905 -7.086375 " transform="matrix(1.25,0,0,-1.25,60.93375,68.71625)"/>
<path style="fill:none;stroke-width:0.3985;stroke-linecap:square;stroke-linejoin:miter;stroke:rgb(0%,0%,0%);stroke-opacity:1;stroke-miterlimit:10;" d="M 0.102195 -2.59094 L 0.102195 2.587185 " transform="matrix(-1.25,0,0,1.25,25.873838,77.574613)"/>
<path style="fill:none;stroke-width:0.31879;stroke-linecap:round;stroke-linejoin:round;stroke:rgb(0%,0%,0%);stroke-opacity:1;stroke-miterlimit:10;" d="M -1.196165 1.593435 C -1.09304 0.993435 -0.002415 0.099685 0.30071 -0.000315 C -0.002415 -0.09719 -1.09304 -0.99719 -1.196165 -1.594065 " transform="matrix(-1.25,0,0,1.25,26.5712,77.574613)"/>
<path style="fill:none;stroke-width:0.3985;stroke-linecap:square;stroke-linejoin:miter;stroke:rgb(0%,0%,0%);stroke-opacity:1;stroke-miterlimit:10;" d="M 0.09882 -2.587185 L 0.09882 2.59094 " transform="matrix(1.25,0,0,-1.25,95.993662,77.574613)"/>
<path style="fill:none;stroke-width:0.31879;stroke-linecap:round;stroke-linejoin:round;stroke:rgb(0%,0%,0%);stroke-opacity:1;stroke-miterlimit:10;" d="M -1.19329 1.594065 C -1.096415 0.99719 0.00046 0.09719 0.297335 0.000315 C 0.00046 -0.099685 -1.096415 -0.993435 -1.19329 -1.593435 " transform="matrix(1.25,0,0,-1.25,95.2963,77.574613)"/>
<path style=" stroke:none;fill-rule:nonzero;fill:rgb(0%,0%,0%);fill-opacity:1;" d="M 63.902344 88.84375 C 63.902344 88.707031 63.785156 88.707031 63.746094 88.707031 C 63.628906 88.707031 63.609375 88.765625 63.570312 88.941406 C 63.355469 89.742188 63.140625 90.484375 62.632812 90.484375 C 62.28125 90.484375 62.261719 90.152344 62.261719 89.917969 C 62.261719 89.605469 62.28125 89.527344 62.320312 89.3125 L 64.117188 82.105469 C 64.117188 82.105469 64.117188 81.96875 63.960938 81.96875 C 63.765625 81.96875 62.59375 82.085938 62.378906 82.105469 C 62.28125 82.125 62.203125 82.183594 62.203125 82.339844 C 62.203125 82.496094 62.320312 82.496094 62.496094 82.496094 C 63.101562 82.496094 63.121094 82.574219 63.121094 82.710938 L 63.082031 82.964844 L 62.339844 85.914062 C 62.105469 85.445312 61.753906 85.113281 61.1875 85.113281 C 59.742188 85.113281 58.199219 86.949219 58.199219 88.765625 C 58.199219 89.9375 58.882812 90.757812 59.839844 90.757812 C 60.09375 90.757812 60.71875 90.699219 61.460938 89.820312 C 61.558594 90.347656 62.007812 90.757812 62.59375 90.757812 C 63.042969 90.757812 63.316406 90.464844 63.53125 90.074219 C 63.726562 89.625 63.902344 88.84375 63.902344 88.84375 Z M 62.144531 86.695312 L 61.539062 89.136719 C 61.460938 89.371094 61.460938 89.390625 61.285156 89.605469 C 60.738281 90.289062 60.230469 90.484375 59.878906 90.484375 C 59.253906 90.484375 59.078125 89.800781 59.078125 89.3125 C 59.078125 88.6875 59.46875 87.164062 59.761719 86.578125 C 60.152344 85.855469 60.699219 85.386719 61.207031 85.386719 C 62.007812 85.386719 62.183594 86.402344 62.183594 86.480469 C 62.183594 86.558594 62.164062 86.636719 62.144531 86.695312 Z M 62.144531 86.695312 "/>
<path style="fill:none;stroke-width:0.3985;stroke-linecap:butt;stroke-linejoin:miter;stroke:rgb(50.196078%,50.196078%,50.196078%);stroke-opacity:1;stroke-dasharray:2.98883,2.98883;stroke-miterlimit:10;" d="M -32.597 0.001125 L -32.597 -21.261375 M -24.093875 0.001125 L -24.093875 -21.261375 " transform="matrix(1.25,0,0,-1.25,60.93375,68.71625)"/>
<path style="fill:none;stroke-width:0.3985;stroke-linecap:butt;stroke-linejoin:miter;stroke:rgb(50.196078%,50.196078%,50.196078%);stroke-opacity:1;stroke-miterlimit:10;" d="M -31.743875 -21.261375 L -24.950125 -21.261375 " transform="matrix(1.25,0,0,-1.25,60.93375,68.71625)"/>
<path style="fill:none;stroke-width:0.3985;stroke-linecap:square;stroke-linejoin:miter;stroke:rgb(50.196078%,50.196078%,50.196078%);stroke-opacity:1;stroke-miterlimit:10;" d="M 0.100355 -2.58935 L 0.100355 2.5919 " transform="matrix(-1.25,0,0,1.25,20.559038,95.291375)"/>
<path style="fill:none;stroke-width:0.31879;stroke-linecap:round;stroke-linejoin:round;stroke:rgb(50.196078%,50.196078%,50.196078%);stroke-opacity:1;stroke-miterlimit:10;" d="M -1.19488 1.595025 C -1.098005 0.99815 0.001995 0.09815 0.29887 0.001275 C 0.001995 -0.098725 -1.098005 -0.9956 -1.19488 -1.592475 " transform="matrix(-1.25,0,0,1.25,21.2564,95.291375)"/>
<path style="fill:none;stroke-width:0.3985;stroke-linecap:square;stroke-linejoin:miter;stroke:rgb(50.196078%,50.196078%,50.196078%);stroke-opacity:1;stroke-miterlimit:10;" d="M 0.099955 -2.5919 L 0.099955 2.58935 " transform="matrix(1.25,0,0,-1.25,30.441463,95.291375)"/>
<path style="fill:none;stroke-width:0.31879;stroke-linecap:round;stroke-linejoin:round;stroke:rgb(50.196078%,50.196078%,50.196078%);stroke-opacity:1;stroke-miterlimit:10;" d="M -1.19528 1.592475 C -1.09528 0.9956 0.001595 0.098725 0.29847 -0.001275 C 0.001595 -0.09815 -1.09528 -0.99815 -1.19528 -1.595025 " transform="matrix(1.25,0,0,-1.25,29.7441,95.291375)"/>
<path style=" stroke:none;fill-rule:nonzero;fill:rgb(50.196078%,50.196078%,50.196078%);fill-opacity:1;" d="M 24.683594 105.363281 L 24.390625 105.363281 C 24.3125 105.734375 24.234375 106.28125 24.097656 106.476562 C 24.019531 106.574219 23.199219 106.574219 22.925781 106.574219 L 20.679688 106.574219 L 22.007812 105.285156 C 23.941406 103.566406 24.683594 102.902344 24.683594 101.652344 C 24.683594 100.226562 23.570312 99.230469 22.046875 99.230469 C 20.640625 99.230469 19.722656 100.382812 19.722656 101.496094 C 19.722656 102.179688 20.347656 102.179688 20.386719 102.179688 C 20.601562 102.179688 21.03125 102.042969 21.03125 101.515625 C 21.03125 101.203125 20.796875 100.871094 20.367188 100.871094 C 20.269531 100.871094 20.25 100.871094 20.210938 100.890625 C 20.484375 100.070312 21.167969 99.621094 21.890625 99.621094 C 23.023438 99.621094 23.550781 100.636719 23.550781 101.652344 C 23.550781 102.648438 22.945312 103.625 22.242188 104.40625 L 19.859375 107.0625 C 19.722656 107.199219 19.722656 107.238281 19.722656 107.53125 L 24.351562 107.53125 L 24.683594 105.363281 Z M 24.683594 105.363281 "/>
<path style=" stroke:none;fill-rule:nonzero;fill:rgb(50.196078%,50.196078%,50.196078%);fill-opacity:1;" d="M 31.535156 105.753906 C 31.535156 105.617188 31.417969 105.617188 31.378906 105.617188 C 31.261719 105.617188 31.242188 105.675781 31.203125 105.851562 C 30.988281 106.652344 30.773438 107.394531 30.265625 107.394531 C 29.914062 107.394531 29.894531 107.0625 29.894531 106.828125 C 29.894531 106.554688 29.914062 106.4375 30.050781 105.890625 L 30.324219 104.777344 L 30.773438 103.039062 C 30.851562 102.6875 30.851562 102.667969 30.851562 102.609375 C 30.851562 102.394531 30.714844 102.277344 30.5 102.277344 C 30.1875 102.277344 30.011719 102.550781 29.972656 102.824219 C 29.738281 102.355469 29.386719 102.023438 28.820312 102.023438 C 27.375 102.023438 25.832031 103.859375 25.832031 105.675781 C 25.832031 106.847656 26.515625 107.667969 27.472656 107.667969 C 27.726562 107.667969 28.351562 107.609375 29.09375 106.730469 C 29.191406 107.257812 29.640625 107.667969 30.226562 107.667969 C 30.675781 107.667969 30.949219 107.375 31.164062 106.984375 C 31.359375 106.535156 31.535156 105.753906 31.535156 105.753906 Z M 29.777344 103.605469 L 29.171875 106.046875 C 29.09375 106.28125 29.09375 106.300781 28.917969 106.515625 C 28.371094 107.199219 27.863281 107.394531 27.511719 107.394531 C 26.886719 107.394531 26.710938 106.710938 26.710938 106.222656 C 26.710938 105.597656 27.101562 104.074219 27.394531 103.488281 C 27.785156 102.765625 28.332031 102.296875 28.839844 102.296875 C 29.640625 102.296875 29.816406 103.3125 29.816406 103.390625 C 29.816406 103.46875 29.796875 103.546875 29.777344 103.605469 Z M 29.777344 103.605469 "/>
<path style="fill:none;stroke-width:0.3985;stroke-linecap:butt;stroke-linejoin:miter;stroke:rgb(50.196078%,50.196078%,50.196078%);stroke-opacity:1;stroke-dasharray:2.98883,2.98883;stroke-miterlimit:10;" d="M 32.59675 0.001125 L 32.59675 -35.43325 M 24.09675 0.001125 L 24.09675 -35.43325 " transform="matrix(1.25,0,0,-1.25,60.93375,68.71625)"/>
<path style="fill:none;stroke-width:0.3985;stroke-linecap:butt;stroke-linejoin:miter;stroke:rgb(50.196078%,50.196078%,50.196078%);stroke-opacity:1;stroke-miterlimit:10;" d="M 31.7405 -35.43325 L 24.953 -35.43325 " transform="matrix(1.25,0,0,-1.25,60.93375,68.71625)"/>
<path style="fill:none;stroke-width:0.3985;stroke-linecap:square;stroke-linejoin:miter;stroke:rgb(50.196078%,50.196078%,50.196078%);stroke-opacity:1;stroke-miterlimit:10;" d="M 0.09698 -2.590385 L 0.09698 2.590865 " transform="matrix(1.25,0,0,-1.25,101.308462,113.008113)"/>
<path style="fill:none;stroke-width:0.31879;stroke-linecap:round;stroke-linejoin:round;stroke:rgb(50.196078%,50.196078%,50.196078%);stroke-opacity:1;stroke-miterlimit:10;" d="M -1.19513 1.59399 C -1.09513 0.997115 -0.00138 0.097115 0.301745 0.00024 C -0.00138 -0.102885 -1.09513 -0.996635 -1.19513 -1.59351 " transform="matrix(1.25,0,0,-1.25,100.6111,113.008113)"/>
<path style="fill:none;stroke-width:0.3985;stroke-linecap:square;stroke-linejoin:miter;stroke:rgb(50.196078%,50.196078%,50.196078%);stroke-opacity:1;stroke-miterlimit:10;" d="M 0.09708 -2.590865 L 0.09708 2.590385 " transform="matrix(-1.25,0,0,1.25,91.426037,113.008113)"/>
<path style="fill:none;stroke-width:0.31879;stroke-linecap:round;stroke-linejoin:round;stroke:rgb(50.196078%,50.196078%,50.196078%);stroke-opacity:1;stroke-miterlimit:10;" d="M -1.19503 1.59351 C -1.09503 0.996635 -0.00128 0.102885 0.29872 -0.00024 C -0.00128 -0.097115 -1.09503 -0.997115 -1.19503 -1.59399 " transform="matrix(-1.25,0,0,1.25,92.1234,113.008113)"/>
<path style=" stroke:none;fill-rule:nonzero;fill:rgb(50.196078%,50.196078%,50.196078%);fill-opacity:1;" d="M 95.546875 123.082031 L 95.253906 123.082031 C 95.175781 123.453125 95.097656 124 94.960938 124.195312 C 94.882812 124.292969 94.0625 124.292969 93.789062 124.292969 L 91.542969 124.292969 L 92.871094 123.003906 C 94.804688 121.285156 95.546875 120.621094 95.546875 119.371094 C 95.546875 117.945312 94.433594 116.949219 92.910156 116.949219 C 91.503906 116.949219 90.585938 118.101562 90.585938 119.214844 C 90.585938 119.898438 91.210938 119.898438 91.25 119.898438 C 91.464844 119.898438 91.894531 119.761719 91.894531 119.234375 C 91.894531 118.921875 91.660156 118.589844 91.230469 118.589844 C 91.132812 118.589844 91.113281 118.589844 91.074219 118.609375 C 91.347656 117.789062 92.03125 117.339844 92.753906 117.339844 C 93.886719 117.339844 94.414062 118.355469 94.414062 119.371094 C 94.414062 120.367188 93.808594 121.34375 93.105469 122.125 L 90.722656 124.78125 C 90.585938 124.917969 90.585938 124.957031 90.585938 125.25 L 95.214844 125.25 L 95.546875 123.082031 Z M 95.546875 123.082031 "/>
<path style=" stroke:none;fill-rule:nonzero;fill:rgb(50.196078%,50.196078%,50.196078%);fill-opacity:1;" d="M 102.398438 123.472656 C 102.398438 123.335938 102.28125 123.335938 102.242188 123.335938 C 102.125 123.335938 102.105469 123.394531 102.066406 123.570312 C 101.851562 124.371094 101.636719 125.113281 101.128906 125.113281 C 100.777344 125.113281 100.757812 124.78125 100.757812 124.546875 C 100.757812 124.273438 100.777344 124.15625 100.914062 123.609375 L 101.1875 122.496094 L 101.636719 120.757812 C 101.714844 120.40625 101.714844 120.386719 101.714844 120.328125 C 101.714844 120.113281 101.578125 119.996094 101.363281 119.996094 C 101.050781 119.996094 100.875 120.269531 100.835938 120.542969 C 100.601562 120.074219 100.25 119.742188 99.683594 119.742188 C 98.238281 119.742188 96.695312 121.578125 96.695312 123.394531 C 96.695312 124.566406 97.378906 125.386719 98.335938 125.386719 C 98.589844 125.386719 99.214844 125.328125 99.957031 124.449219 C 100.054688 124.976562 100.503906 125.386719 101.089844 125.386719 C 101.539062 125.386719 101.8125 125.09375 102.027344 124.703125 C 102.222656 124.253906 102.398438 123.472656 102.398438 123.472656 Z M 100.640625 121.324219 L 100.035156 123.765625 C 99.957031 124 99.957031 124.019531 99.78125 124.234375 C 99.234375 124.917969 98.726562 125.113281 98.375 125.113281 C 97.75 125.113281 97.574219 124.429688 97.574219 123.941406 C 97.574219 123.316406 97.964844 121.792969 98.257812 121.207031 C 98.648438 120.484375 99.195312 120.015625 99.703125 120.015625 C 100.503906 120.015625 100.679688 121.03125 100.679688 121.109375 C 100.679688 121.1875 100.660156 121.265625 100.640625 121.324219 Z M 100.640625 121.324219 "/>
</g>
</svg>
