<?xml version="1.0" encoding="UTF-8"?>
<!-- Converted by misc2svg (http://www.network-science.de/tools/misc2svg/) -->
<svg xmlns="http://www.w3.org/2000/svg" xmlns:xlink="http://www.w3.org/1999/xlink" width="354pt" height="73pt" viewBox="0 0 236 49" version="1.1">
<g id="misc2svg">
<path style="fill:none;stroke-width:0.3985;stroke-linecap:butt;stroke-linejoin:miter;stroke:rgb(0%,0%,0%);stroke-opacity:1;stroke-miterlimit:10;" d="M 0.00025 0.00175 L 169.622125 0.00175 " transform="matrix(1.25,0,0,-1.25,6.47625,25.885)"/>
<path style="fill:none;stroke-width:0.31879;stroke-linecap:round;stroke-linejoin:round;stroke:rgb(0%,0%,0%);stroke-opacity:1;stroke-miterlimit:10;" d="M -1.194195 1.5955 C -1.09732 0.998625 0.00268 0.098625 0.29643 0.00175 C 0.00268 -0.101375 -1.09732 -0.995125 -1.194195 -1.592 " transform="matrix(1.25,0,0,-1.25,218.504463,25.885)"/>
<path style=" stroke:none;fill-rule:nonzero;fill:rgb(0%,0%,0%);fill-opacity:1;" d="M 79.757812 25.527344 C 79.757812 24.199219 78.644531 23.125 77.355469 23.125 C 76.007812 23.125 74.914062 24.238281 74.914062 25.527344 C 74.914062 26.855469 76.007812 27.949219 77.355469 27.949219 C 78.644531 27.949219 79.757812 26.875 79.757812 25.527344 Z M 79.757812 25.527344 "/>
<path style=" stroke:none;fill-rule:nonzero;fill:rgb(0%,0%,0%);fill-opacity:1;" d="M 72.242188 30.300781 C 70.601562 31.453125 70.152344 33.308594 70.152344 34.636719 C 70.152344 35.867188 70.523438 37.78125 72.242188 38.992188 C 72.320312 38.992188 72.417969 38.992188 72.417969 38.894531 C 72.417969 38.835938 72.398438 38.816406 72.339844 38.757812 C 71.167969 37.703125 70.757812 36.238281 70.757812 34.65625 C 70.757812 32.292969 71.65625 31.140625 72.359375 30.496094 C 72.398438 30.457031 72.417969 30.4375 72.417969 30.398438 C 72.417969 30.300781 72.320312 30.300781 72.242188 30.300781 Z M 72.242188 30.300781 "/>
<path style=" stroke:none;fill-rule:nonzero;fill:rgb(0%,0%,0%);fill-opacity:1;" d="M 75.78125 35.242188 L 75.78125 34.65625 L 73.222656 34.65625 L 73.222656 35.242188 L 75.78125 35.242188 Z M 75.78125 35.242188 "/>
<path style=" stroke:none;fill-rule:nonzero;fill:rgb(0%,0%,0%);fill-opacity:1;" d="M 80.816406 32.976562 L 80.542969 32.976562 L 80.230469 33.738281 C 79.957031 33.328125 79.527344 32.976562 78.902344 32.976562 C 77.789062 32.976562 76.8125 33.835938 76.8125 34.949219 C 76.8125 36.042969 77.730469 36.902344 78.824219 36.902344 C 79.527344 36.902344 79.898438 36.53125 80.113281 36.316406 L 80.113281 37.820312 C 80.113281 38.191406 80.035156 38.191406 79.46875 38.191406 L 79.46875 38.523438 C 79.488281 38.523438 80.09375 38.484375 80.464844 38.484375 C 80.777344 38.484375 81.382812 38.503906 81.460938 38.523438 L 81.460938 38.191406 C 80.894531 38.191406 80.816406 38.191406 80.816406 37.820312 L 80.816406 32.976562 Z M 80.152344 35.574219 C 80.152344 35.730469 80.152344 35.769531 80.035156 35.984375 C 79.761719 36.414062 79.332031 36.667969 78.882812 36.667969 C 78.160156 36.667969 77.59375 35.886719 77.59375 34.96875 C 77.59375 33.933594 78.277344 33.269531 78.980469 33.269531 C 79.703125 33.269531 80.152344 33.972656 80.152344 34.460938 L 80.152344 35.574219 Z M 80.152344 35.574219 "/>
<path style=" stroke:none;fill-rule:nonzero;fill:rgb(0%,0%,0%);fill-opacity:1;" d="M 82.417969 30.300781 C 82.359375 30.300781 82.261719 30.300781 82.261719 30.398438 C 82.261719 30.4375 82.28125 30.457031 82.339844 30.535156 C 83.082031 31.21875 83.921875 32.390625 83.921875 34.636719 C 83.921875 36.453125 83.355469 37.839844 82.417969 38.679688 C 82.261719 38.835938 82.261719 38.835938 82.261719 38.894531 C 82.261719 38.933594 82.28125 38.992188 82.359375 38.992188 C 82.476562 38.992188 83.296875 38.425781 83.882812 37.332031 C 84.253906 36.609375 84.507812 35.671875 84.507812 34.65625 C 84.507812 33.425781 84.136719 31.511719 82.417969 30.300781 Z M 82.417969 30.300781 "/>
<path style=" stroke:none;fill-rule:nonzero;fill:rgb(0%,0%,0%);fill-opacity:1;" d="M 150.621094 25.527344 C 150.621094 24.199219 149.507812 23.125 148.21875 23.125 C 146.871094 23.125 145.777344 24.238281 145.777344 25.527344 C 145.777344 26.855469 146.871094 27.949219 148.21875 27.949219 C 149.507812 27.949219 150.621094 26.875 150.621094 25.527344 Z M 150.621094 25.527344 "/>
<path style=" stroke:none;fill-rule:nonzero;fill:rgb(0%,0%,0%);fill-opacity:1;" d="M 140.964844 30.300781 C 139.324219 31.453125 138.875 33.308594 138.875 34.636719 C 138.875 35.867188 139.246094 37.78125 140.964844 38.992188 C 141.042969 38.992188 141.140625 38.992188 141.140625 38.894531 C 141.140625 38.835938 141.121094 38.816406 141.0625 38.757812 C 139.890625 37.703125 139.480469 36.238281 139.480469 34.65625 C 139.480469 32.292969 140.378906 31.140625 141.082031 30.496094 C 141.121094 30.457031 141.140625 30.4375 141.140625 30.398438 C 141.140625 30.300781 141.042969 30.300781 140.964844 30.300781 Z M 140.964844 30.300781 "/>
<path style=" stroke:none;fill-rule:nonzero;fill:rgb(0%,0%,0%);fill-opacity:1;" d="M 145.792969 34.851562 L 148.46875 34.851562 C 148.585938 34.851562 148.78125 34.851562 148.78125 34.65625 C 148.78125 34.421875 148.585938 34.421875 148.46875 34.421875 L 145.792969 34.421875 L 145.792969 31.746094 C 145.792969 31.648438 145.792969 31.433594 145.597656 31.433594 C 145.382812 31.433594 145.382812 31.628906 145.382812 31.746094 L 145.382812 34.421875 L 142.707031 34.421875 C 142.589844 34.421875 142.375 34.421875 142.375 34.636719 C 142.375 34.851562 142.570312 34.851562 142.707031 34.851562 L 145.382812 34.851562 L 145.382812 37.527344 C 145.382812 37.644531 145.382812 37.859375 145.578125 37.859375 C 145.792969 37.859375 145.792969 37.644531 145.792969 37.527344 L 145.792969 34.851562 Z M 145.792969 34.851562 "/>
<path style=" stroke:none;fill-rule:nonzero;fill:rgb(0%,0%,0%);fill-opacity:1;" d="M 153.828125 32.976562 L 153.554688 32.976562 L 153.242188 33.738281 C 152.96875 33.328125 152.539062 32.976562 151.914062 32.976562 C 150.800781 32.976562 149.824219 33.835938 149.824219 34.949219 C 149.824219 36.042969 150.742188 36.902344 151.835938 36.902344 C 152.539062 36.902344 152.910156 36.53125 153.125 36.316406 L 153.125 37.820312 C 153.125 38.191406 153.046875 38.191406 152.480469 38.191406 L 152.480469 38.523438 C 152.5 38.523438 153.105469 38.484375 153.476562 38.484375 C 153.789062 38.484375 154.394531 38.503906 154.472656 38.523438 L 154.472656 38.191406 C 153.90625 38.191406 153.828125 38.191406 153.828125 37.820312 L 153.828125 32.976562 Z M 153.164062 35.574219 C 153.164062 35.730469 153.164062 35.769531 153.046875 35.984375 C 152.773438 36.414062 152.34375 36.667969 151.894531 36.667969 C 151.171875 36.667969 150.605469 35.886719 150.605469 34.96875 C 150.605469 33.933594 151.289062 33.269531 151.992188 33.269531 C 152.714844 33.269531 153.164062 33.972656 153.164062 34.460938 L 153.164062 35.574219 Z M 153.164062 35.574219 "/>
<path style=" stroke:none;fill-rule:nonzero;fill:rgb(0%,0%,0%);fill-opacity:1;" d="M 155.425781 30.300781 C 155.367188 30.300781 155.269531 30.300781 155.269531 30.398438 C 155.269531 30.4375 155.289062 30.457031 155.347656 30.535156 C 156.089844 31.21875 156.929688 32.390625 156.929688 34.636719 C 156.929688 36.453125 156.363281 37.839844 155.425781 38.679688 C 155.269531 38.835938 155.269531 38.835938 155.269531 38.894531 C 155.269531 38.933594 155.289062 38.992188 155.367188 38.992188 C 155.484375 38.992188 156.304688 38.425781 156.890625 37.332031 C 157.261719 36.609375 157.515625 35.671875 157.515625 34.65625 C 157.515625 33.425781 157.144531 31.511719 155.425781 30.300781 Z M 155.425781 30.300781 "/>
<path style=" stroke:none;fill-rule:nonzero;fill:rgb(0%,0%,0%);fill-opacity:1;" d="M 79.757812 25.527344 C 79.757812 24.199219 78.644531 23.125 77.355469 23.125 C 76.007812 23.125 74.914062 24.238281 74.914062 25.527344 C 74.914062 26.855469 76.007812 27.949219 77.355469 27.949219 C 78.644531 27.949219 79.757812 26.875 79.757812 25.527344 Z M 79.757812 25.527344 "/>
<path style=" stroke:none;fill-rule:nonzero;fill:rgb(0%,0%,0%);fill-opacity:1;" d="M 75.933594 15.664062 C 75.835938 15.546875 75.835938 15.527344 75.660156 15.527344 L 74.15625 15.527344 L 74.15625 15.839844 L 74.410156 15.839844 C 74.800781 15.839844 75.015625 15.898438 75.054688 15.898438 L 75.054688 20.546875 C 75.054688 20.78125 75.054688 21.171875 74.15625 21.171875 L 74.15625 21.484375 C 74.507812 21.464844 74.859375 21.445312 75.210938 21.445312 C 75.582031 21.445312 75.933594 21.464844 76.285156 21.484375 L 76.285156 21.171875 C 75.386719 21.171875 75.386719 20.78125 75.386719 20.546875 L 75.386719 16.152344 L 79.253906 21.347656 C 79.332031 21.484375 79.351562 21.484375 79.449219 21.484375 C 79.625 21.484375 79.625 21.40625 79.625 21.25 L 79.625 16.484375 C 79.625 16.25 79.625 15.839844 80.523438 15.839844 L 80.523438 15.527344 C 80.152344 15.566406 79.800781 15.566406 79.449219 15.566406 C 79.097656 15.566406 78.746094 15.566406 78.394531 15.527344 L 78.394531 15.839844 C 79.292969 15.839844 79.292969 16.25 79.292969 16.484375 L 79.292969 20.175781 L 75.933594 15.664062 Z M 75.933594 15.664062 "/>
<path style=" stroke:none;fill-rule:nonzero;fill:rgb(0%,0%,0%);fill-opacity:1;" d="M 150.621094 25.527344 C 150.621094 24.199219 149.507812 23.125 148.21875 23.125 C 146.871094 23.125 145.777344 24.238281 145.777344 25.527344 C 145.777344 26.855469 146.871094 27.949219 148.21875 27.949219 C 149.507812 27.949219 150.621094 26.875 150.621094 25.527344 Z M 150.621094 25.527344 "/>
<path style=" stroke:none;fill-rule:nonzero;fill:rgb(0%,0%,0%);fill-opacity:1;" d="M 147.085938 18.789062 L 148.667969 18.789062 C 149.9375 18.789062 150.933594 18.046875 150.933594 17.167969 C 150.933594 16.308594 149.957031 15.527344 148.667969 15.527344 L 145.367188 15.527344 L 145.367188 15.839844 L 145.582031 15.839844 C 146.246094 15.839844 146.265625 15.9375 146.265625 16.25 L 146.265625 20.78125 C 146.265625 21.074219 146.246094 21.171875 145.582031 21.171875 L 145.367188 21.171875 L 145.367188 21.484375 C 145.796875 21.464844 146.363281 21.445312 146.675781 21.445312 C 146.988281 21.445312 147.554688 21.464844 147.984375 21.484375 L 147.984375 21.171875 L 147.769531 21.171875 C 147.105469 21.171875 147.085938 21.074219 147.085938 20.78125 L 147.085938 18.789062 Z M 148.453125 15.839844 C 149.917969 15.839844 149.996094 16.660156 149.996094 17.167969 C 149.996094 17.558594 149.996094 18.496094 148.453125 18.496094 L 147.046875 18.496094 L 147.046875 16.191406 C 147.046875 15.917969 147.066406 15.839844 147.476562 15.839844 L 148.453125 15.839844 Z M 148.453125 15.839844 "/>
<path style=" stroke:none;fill-rule:nonzero;fill:rgb(0%,0%,0%);fill-opacity:1;" d="M 221.050781 12.074219 C 221.265625 12.074219 221.5 12.074219 221.5 11.820312 C 221.5 11.585938 221.265625 11.585938 221.050781 11.585938 L 214.3125 11.585938 C 214.097656 11.585938 213.882812 11.585938 213.882812 11.820312 C 213.882812 12.074219 214.097656 12.074219 214.3125 12.074219 L 221.050781 12.074219 Z M 221.050781 12.074219 "/>
<path style=" stroke:none;fill-rule:nonzero;fill:rgb(0%,0%,0%);fill-opacity:1;" d="M 223.234375 12.074219 C 222.550781 12.601562 222.21875 13.109375 222.121094 13.285156 C 221.554688 14.144531 221.457031 14.925781 221.457031 14.925781 C 221.457031 15.082031 221.613281 15.082031 221.710938 15.082031 C 221.90625 15.082031 221.925781 15.0625 221.984375 14.828125 C 222.257812 13.617188 223 12.5625 224.40625 11.996094 C 224.5625 11.9375 224.601562 11.917969 224.601562 11.820312 C 224.601562 11.742188 224.523438 11.703125 224.503906 11.683594 C 223.9375 11.488281 222.433594 10.863281 221.964844 8.773438 C 221.925781 8.617188 221.90625 8.578125 221.710938 8.578125 C 221.613281 8.578125 221.457031 8.578125 221.457031 8.734375 C 221.457031 8.753906 221.574219 9.535156 222.082031 10.375 C 222.335938 10.746094 222.707031 11.175781 223.234375 11.585938 L 213.976562 11.585938 C 213.761719 11.585938 213.527344 11.585938 213.527344 11.820312 C 213.527344 12.074219 213.761719 12.074219 213.976562 12.074219 L 223.234375 12.074219 Z M 223.234375 12.074219 "/>
<path style=" stroke:none;fill-rule:nonzero;fill:rgb(0%,0%,0%);fill-opacity:1;" d="M 216.507812 20.585938 C 216.410156 21.015625 216.371094 21.09375 215.824219 21.09375 C 215.6875 21.09375 215.550781 21.09375 215.550781 21.328125 C 215.550781 21.425781 215.609375 21.484375 215.707031 21.484375 C 216.039062 21.484375 216.410156 21.445312 216.742188 21.445312 C 217.171875 21.445312 217.582031 21.484375 217.992188 21.484375 C 218.050781 21.484375 218.207031 21.484375 218.207031 21.230469 C 218.207031 21.09375 218.089844 21.09375 217.914062 21.09375 C 217.289062 21.09375 217.289062 21.015625 217.289062 20.898438 C 217.289062 20.742188 217.816406 18.710938 217.894531 18.398438 C 218.050781 18.769531 218.402344 19.199219 219.046875 19.199219 C 220.492188 19.199219 222.054688 17.382812 222.054688 15.546875 C 222.054688 14.375 221.332031 13.554688 220.394531 13.554688 C 219.769531 13.554688 219.164062 14.003906 218.753906 14.492188 C 218.636719 13.808594 218.089844 13.554688 217.640625 13.554688 C 217.054688 13.554688 216.820312 14.042969 216.722656 14.257812 C 216.488281 14.6875 216.332031 15.429688 216.332031 15.46875 C 216.332031 15.605469 216.449219 15.605469 216.46875 15.605469 C 216.605469 15.605469 216.605469 15.585938 216.683594 15.3125 C 216.898438 14.433594 217.152344 13.828125 217.601562 13.828125 C 217.816406 13.828125 217.992188 13.925781 217.992188 14.394531 C 217.992188 14.6875 217.953125 14.824219 217.894531 15.039062 L 216.507812 20.585938 Z M 218.695312 15.175781 C 218.773438 14.84375 219.125 14.492188 219.339844 14.296875 C 219.789062 13.925781 220.140625 13.828125 220.355469 13.828125 C 220.84375 13.828125 221.15625 14.257812 221.15625 15 C 221.15625 15.742188 220.746094 17.167969 220.511719 17.636719 C 220.082031 18.515625 219.496094 18.925781 219.027344 18.925781 C 218.207031 18.925781 218.050781 17.890625 218.050781 17.8125 C 218.050781 17.792969 218.050781 17.773438 218.089844 17.617188 L 218.695312 15.175781 Z M 218.695312 15.175781 "/>
</g>
</svg>
