<?xml version="1.0" encoding="UTF-8"?>
<!-- Converted by misc2svg (http://www.network-science.de/tools/misc2svg/) -->
<svg xmlns="http://www.w3.org/2000/svg" xmlns:xlink="http://www.w3.org/1999/xlink" width="162pt" height="200pt" viewBox="0 0 162 200" version="1.1">
<g id="misc2svg">
<path style="fill:none;stroke-width:0.3985;stroke-linecap:butt;stroke-linejoin:miter;stroke:rgb(0%,0%,0%);stroke-opacity:1;stroke-miterlimit:10;" d="M 0.00025 -0.000375 L 28.347125 28.3465 L 113.384625 28.3465 L 85.040875 -0.000375 L 0.00025 -0.000375 " transform="matrix(1.25,0,0,-1.25,6.47625,137.07375)"/>
<path style="fill:none;stroke-width:0.79701;stroke-linecap:butt;stroke-linejoin:miter;stroke:rgb(0%,0%,0%);stroke-opacity:1;stroke-miterlimit:10;" d="M 56.694 14.174625 L 56.694 98.505875 " transform="matrix(1.25,0,0,-1.25,6.47625,137.07375)"/>
<path style="fill:none;stroke-width:0.6376;stroke-linecap:round;stroke-linejoin:round;stroke:rgb(0%,0%,0%);stroke-opacity:1;stroke-miterlimit:10;" d="M -1.5537 2.07462 C -1.425575 1.296495 -0.000575 0.127745 0.386925 -0.00038 C -0.000575 -0.128505 -1.425575 -1.29413 -1.5537 -2.06913 " transform="matrix(0,-1.25,-1.25,0,77.343275,13.940688)"/>
<path style=" stroke:none;fill-rule:nonzero;fill:rgb(0%,0%,0%);fill-opacity:1;" d="M 86.851562 10.738281 C 86.96875 10.601562 86.96875 10.582031 86.96875 10.523438 C 86.96875 10.367188 86.851562 10.367188 86.636719 10.367188 L 82.652344 10.367188 L 82.515625 12.378906 L 82.828125 12.378906 C 82.90625 11.109375 83.140625 10.640625 84.507812 10.640625 L 85.933594 10.640625 L 82.457031 15.347656 C 82.339844 15.484375 82.339844 15.503906 82.339844 15.5625 C 82.339844 15.738281 82.417969 15.738281 82.652344 15.738281 L 86.773438 15.738281 L 86.988281 13.414062 L 86.675781 13.414062 C 86.558594 14.878906 86.304688 15.425781 84.859375 15.425781 L 83.375 15.425781 L 86.851562 10.738281 Z M 86.851562 10.738281 "/>
<path style=" stroke:none;fill-rule:nonzero;fill:rgb(0%,0%,0%);fill-opacity:1;" d="M 72.242188 119.394531 C 72.242188 116.855469 70.367188 114.824219 68.101562 114.824219 C 65.855469 114.824219 63.960938 116.816406 63.960938 119.394531 C 63.960938 121.953125 65.875 123.886719 68.101562 123.886719 C 70.367188 123.886719 72.242188 121.914062 72.242188 119.394531 Z M 68.101562 123.554688 C 66.910156 123.554688 65.230469 122.460938 65.230469 119.21875 C 65.230469 115.996094 67.066406 115.136719 68.101562 115.136719 C 69.175781 115.136719 70.953125 116.015625 70.953125 119.21875 C 70.953125 122.519531 69.253906 123.554688 68.101562 123.554688 Z M 68.101562 123.554688 "/>
<path style=" stroke:none;fill-rule:nonzero;fill:rgb(0%,0%,0%);fill-opacity:1;" d="M 79.757812 72.9375 C 79.757812 71.609375 78.644531 70.535156 77.355469 70.535156 C 76.007812 70.535156 74.914062 71.648438 74.914062 72.9375 C 74.914062 74.265625 76.007812 75.359375 77.355469 75.359375 C 78.644531 75.359375 79.757812 74.285156 79.757812 72.9375 Z M 79.757812 72.9375 "/>
<path style=" stroke:none;fill-rule:nonzero;fill:rgb(0%,0%,0%);fill-opacity:1;" d="M 64.535156 69.304688 C 64.417969 69.03125 64.378906 69.03125 64.085938 69.03125 L 61.996094 69.03125 L 61.996094 69.421875 L 62.289062 69.421875 C 63.246094 69.421875 63.265625 69.558594 63.265625 70.007812 L 63.265625 76.238281 C 63.265625 76.570312 63.265625 77.15625 61.996094 77.15625 L 61.996094 77.546875 C 62.425781 77.527344 63.03125 77.507812 63.441406 77.507812 C 63.851562 77.507812 64.476562 77.527344 64.90625 77.546875 L 64.90625 77.15625 C 63.617188 77.15625 63.617188 76.570312 63.617188 76.238281 L 63.617188 69.519531 L 63.636719 69.519531 L 66.644531 77.273438 C 66.703125 77.429688 66.761719 77.546875 66.878906 77.546875 C 67.015625 77.546875 67.054688 77.449219 67.113281 77.3125 L 70.179688 69.421875 L 70.179688 69.421875 L 70.179688 76.570312 C 70.179688 77.019531 70.160156 77.15625 69.203125 77.15625 L 68.910156 77.15625 L 68.910156 77.546875 C 69.359375 77.507812 70.21875 77.507812 70.707031 77.507812 C 71.175781 77.507812 72.015625 77.507812 72.484375 77.546875 L 72.484375 77.15625 L 72.171875 77.15625 C 71.214844 77.15625 71.195312 77.019531 71.195312 76.570312 L 71.195312 70.007812 C 71.195312 69.558594 71.214844 69.421875 72.171875 69.421875 L 72.484375 69.421875 L 72.484375 69.03125 L 70.375 69.03125 C 70.042969 69.03125 70.042969 69.050781 69.964844 69.265625 L 67.230469 76.296875 L 64.535156 69.304688 Z M 64.535156 69.304688 "/>
<path style="fill:none;stroke-width:0.79701;stroke-linecap:butt;stroke-linejoin:miter;stroke:rgb(0%,0%,0%);stroke-opacity:1;stroke-miterlimit:10;" d="M 56.694 14.174625 L 28.847125 -13.67225 " transform="matrix(1.25,0,0,-1.25,6.47625,137.07375)"/>
<path style="fill:none;stroke-width:0.6376;stroke-linecap:round;stroke-linejoin:round;stroke:rgb(0%,0%,0%);stroke-opacity:1;stroke-miterlimit:10;" d="M -1.554229 2.07428 C -1.421636 1.296468 -0.00299288 0.129768 0.388126 -0.000599085 C 0.00143014 -0.126557 -1.426019 -1.293298 -1.55196 -2.073324 " transform="matrix(-0.8839,0.883875,0.883875,0.8839,42.535,154.165288)"/>
<path style=" stroke:none;fill-rule:nonzero;fill:rgb(0%,0%,0%);fill-opacity:1;" d="M 34.261719 154.542969 C 34.632812 154.074219 35.101562 153.46875 35.414062 153.136719 C 35.804688 152.6875 36.3125 152.492188 36.898438 152.492188 L 36.898438 152.101562 C 36.566406 152.121094 36.195312 152.140625 35.863281 152.140625 C 35.492188 152.140625 34.828125 152.121094 34.671875 152.101562 L 34.671875 152.492188 C 34.945312 152.511719 35.042969 152.667969 35.042969 152.882812 C 35.042969 153.078125 34.90625 153.234375 34.847656 153.3125 L 34.085938 154.289062 L 33.109375 153.019531 C 32.992188 152.902344 32.992188 152.882812 32.992188 152.804688 C 32.992188 152.609375 33.1875 152.492188 33.421875 152.492188 L 33.421875 152.101562 C 33.109375 152.121094 32.289062 152.140625 32.074219 152.140625 C 31.820312 152.140625 31.234375 152.121094 30.902344 152.101562 L 30.902344 152.492188 C 31.78125 152.492188 31.78125 152.492188 32.367188 153.253906 L 33.597656 154.855469 L 32.425781 156.339844 C 31.839844 157.0625 31.097656 157.082031 30.84375 157.082031 L 30.84375 157.472656 C 31.15625 157.453125 31.546875 157.433594 31.878906 157.433594 C 32.230469 157.433594 32.757812 157.453125 33.050781 157.472656 L 33.050781 157.082031 C 32.777344 157.042969 32.699219 156.886719 32.699219 156.691406 C 32.699219 156.417969 33.050781 156.007812 33.8125 155.109375 L 34.769531 156.359375 C 34.867188 156.496094 35.023438 156.691406 35.023438 156.769531 C 35.023438 156.886719 34.90625 157.082031 34.574219 157.082031 L 34.574219 157.472656 C 34.945312 157.453125 35.648438 157.433594 35.921875 157.433594 C 36.253906 157.433594 36.742188 157.453125 37.113281 157.472656 L 37.113281 157.082031 C 36.449219 157.082031 36.214844 157.0625 35.941406 156.691406 L 34.261719 154.542969 Z M 34.261719 154.542969 "/>
<path style="fill:none;stroke-width:0.79701;stroke-linecap:butt;stroke-linejoin:miter;stroke:rgb(0%,0%,0%);stroke-opacity:1;stroke-miterlimit:10;" d="M 56.694 14.174625 L 112.678375 14.174625 " transform="matrix(1.25,0,0,-1.25,6.47625,137.07375)"/>
<path style="fill:none;stroke-width:0.6376;stroke-linecap:round;stroke-linejoin:round;stroke:rgb(0%,0%,0%);stroke-opacity:1;stroke-miterlimit:10;" d="M -1.551495 2.069985 C -1.42337 1.294985 -0.001495 0.12936 0.38913 0.001235 C -0.001495 -0.12689 -1.42337 -1.29564 -1.551495 -2.073765 " transform="matrix(1.25,0,0,-1.25,147.326087,119.357013)"/>
<path style=" stroke:none;fill-rule:nonzero;fill:rgb(0%,0%,0%);fill-opacity:1;" d="M 150.097656 125.1875 C 150.410156 124.386719 151.054688 124.386719 151.25 124.386719 L 151.25 123.996094 C 150.957031 124.015625 150.605469 124.035156 150.3125 124.035156 C 150.097656 124.035156 149.511719 124.015625 149.238281 123.996094 L 149.238281 124.386719 C 149.628906 124.386719 149.824219 124.601562 149.824219 124.914062 C 149.824219 125.050781 149.804688 125.070312 149.746094 125.226562 L 148.476562 128.273438 L 147.109375 124.933594 C 147.050781 124.796875 147.03125 124.757812 147.03125 124.699219 C 147.03125 124.386719 147.480469 124.386719 147.734375 124.386719 L 147.734375 123.996094 C 147.402344 124.015625 146.582031 124.035156 146.367188 124.035156 C 146.035156 124.035156 145.527344 124.015625 145.15625 123.996094 L 145.15625 124.386719 C 145.761719 124.386719 145.996094 124.386719 146.171875 124.816406 L 148.046875 129.367188 C 147.96875 129.523438 147.792969 129.933594 147.734375 130.109375 C 147.460938 130.792969 147.109375 131.652344 146.308594 131.652344 C 146.25 131.652344 145.957031 131.652344 145.722656 131.417969 C 146.113281 131.378906 146.210938 131.105469 146.210938 130.890625 C 146.210938 130.578125 145.976562 130.382812 145.683594 130.382812 C 145.429688 130.382812 145.15625 130.539062 145.15625 130.910156 C 145.15625 131.476562 145.683594 131.925781 146.308594 131.925781 C 147.089844 131.925781 147.597656 131.203125 147.890625 130.5 L 150.097656 125.1875 Z M 150.097656 125.1875 "/>
<path style="fill:none;stroke-width:0.3985;stroke-linecap:butt;stroke-linejoin:miter;stroke:rgb(0%,0%,0%);stroke-opacity:1;stroke-dasharray:2.98883,2.98883;stroke-miterlimit:10;" d="M 34.015875 34.01525 L 56.694 51.024625 " transform="matrix(1.25,0,0,-1.25,6.47625,137.07375)"/>
<path style="fill:none;stroke-width:0.3985;stroke-linecap:butt;stroke-linejoin:miter;stroke:rgb(0%,0%,0%);stroke-opacity:1;stroke-dasharray:2.98883,2.98883;stroke-miterlimit:10;" d="M 34.015875 34.01525 L 34.015875 -45.356625 " transform="matrix(1.25,0,0,-1.25,6.47625,137.07375)"/>
<path style="fill:none;stroke-width:0.3985;stroke-linecap:butt;stroke-linejoin:miter;stroke:rgb(0%,0%,0%);stroke-opacity:1;stroke-dasharray:2.98883,2.98883;stroke-miterlimit:10;" d="M 56.694 51.024625 L 79.369 68.034 " transform="matrix(1.25,0,0,-1.25,6.47625,137.07375)"/>
<path style="fill:none;stroke-width:0.3985;stroke-linecap:butt;stroke-linejoin:miter;stroke:rgb(0%,0%,0%);stroke-opacity:1;stroke-dasharray:2.98883,2.98883;stroke-miterlimit:10;" d="M 34.015875 -45.356625 L 79.369 -11.337875 " transform="matrix(1.25,0,0,-1.25,6.47625,137.07375)"/>
<path style="fill:none;stroke-width:0.3985;stroke-linecap:butt;stroke-linejoin:miter;stroke:rgb(0%,0%,0%);stroke-opacity:1;stroke-dasharray:2.98883,2.98883;stroke-miterlimit:10;" d="M 79.369 -11.337875 L 79.369 68.034 " transform="matrix(1.25,0,0,-1.25,6.47625,137.07375)"/>
<path style="fill:none;stroke-width:0.3985;stroke-linecap:butt;stroke-linejoin:miter;stroke:rgb(0%,0%,0%);stroke-opacity:1;stroke-dasharray:2.98883,2.98883;stroke-miterlimit:10;" d="M 28.347125 51.024625 L 85.040875 51.024625 " transform="matrix(1.25,0,0,-1.25,6.47625,137.07375)"/>
<path style="fill:none;stroke-width:0.3985;stroke-linecap:butt;stroke-linejoin:miter;stroke:rgb(0%,0%,0%);stroke-opacity:1;stroke-dasharray:2.98883,2.98883;stroke-miterlimit:10;" d="M 85.040875 51.024625 L 85.040875 -28.344125 " transform="matrix(1.25,0,0,-1.25,6.47625,137.07375)"/>
<path style="fill:none;stroke-width:0.3985;stroke-linecap:butt;stroke-linejoin:miter;stroke:rgb(0%,0%,0%);stroke-opacity:1;stroke-dasharray:2.98883,2.98883;stroke-miterlimit:10;" d="M 85.040875 -28.344125 L 28.347125 -28.344125 " transform="matrix(1.25,0,0,-1.25,6.47625,137.07375)"/>
<path style="fill:none;stroke-width:0.3985;stroke-linecap:butt;stroke-linejoin:miter;stroke:rgb(0%,0%,0%);stroke-opacity:1;stroke-dasharray:2.98883,2.98883;stroke-miterlimit:10;" d="M 28.347125 -28.344125 L 28.347125 51.024625 " transform="matrix(1.25,0,0,-1.25,6.47625,137.07375)"/>
<path style="fill:none;stroke-width:1.59404;stroke-linecap:butt;stroke-linejoin:miter;stroke:rgb(0%,0%,100%);stroke-opacity:1;stroke-miterlimit:10;" d="M 56.694 51.024625 L 56.694 78.16525 " transform="matrix(1.25,0,0,-1.25,6.47625,137.07375)"/>
<path style="fill:none;stroke-width:1.27522;stroke-linecap:round;stroke-linejoin:round;stroke:rgb(0%,0%,100%);stroke-opacity:1;stroke-miterlimit:10;" d="M -2.272255 3.027745 C -2.08163 1.89337 -0.00038 0.190245 0.56837 -0.00038 C -0.00038 -0.18788 -2.08163 -1.891005 -2.272255 -3.028505 " transform="matrix(0,-1.25,-1.25,0,77.343275,39.366713)"/>
<path style=" stroke:none;fill-rule:nonzero;fill:rgb(0%,0%,100%);fill-opacity:1;" d="M 67.945312 33.644531 C 68.160156 33.644531 68.394531 33.644531 68.394531 33.390625 C 68.394531 33.15625 68.160156 33.15625 67.945312 33.15625 L 61.207031 33.15625 C 60.992188 33.15625 60.777344 33.15625 60.777344 33.390625 C 60.777344 33.644531 60.992188 33.644531 61.207031 33.644531 L 67.945312 33.644531 Z M 67.945312 33.644531 "/>
<path style=" stroke:none;fill-rule:nonzero;fill:rgb(0%,0%,100%);fill-opacity:1;" d="M 70.128906 33.644531 C 69.445312 34.171875 69.113281 34.679688 69.015625 34.855469 C 68.449219 35.714844 68.351562 36.496094 68.351562 36.496094 C 68.351562 36.652344 68.507812 36.652344 68.605469 36.652344 C 68.800781 36.652344 68.820312 36.632812 68.878906 36.398438 C 69.152344 35.1875 69.894531 34.132812 71.300781 33.566406 C 71.457031 33.507812 71.496094 33.488281 71.496094 33.390625 C 71.496094 33.3125 71.417969 33.273438 71.398438 33.253906 C 70.832031 33.058594 69.328125 32.433594 68.859375 30.34375 C 68.820312 30.1875 68.800781 30.148438 68.605469 30.148438 C 68.507812 30.148438 68.351562 30.148438 68.351562 30.304688 C 68.351562 30.324219 68.46875 31.105469 68.976562 31.945312 C 69.230469 32.316406 69.601562 32.746094 70.128906 33.15625 L 60.871094 33.15625 C 60.65625 33.15625 60.421875 33.15625 60.421875 33.390625 C 60.421875 33.644531 60.65625 33.644531 60.871094 33.644531 L 70.128906 33.644531 Z M 70.128906 33.644531 "/>
<path style=" stroke:none;fill-rule:nonzero;fill:rgb(0%,0%,100%);fill-opacity:1;" d="M 69.839844 40.867188 C 69.859375 40.808594 69.898438 40.730469 69.898438 40.691406 C 69.898438 40.691406 69.898438 40.554688 69.742188 40.554688 C 69.625 40.554688 69.605469 40.632812 69.585938 40.710938 C 68.765625 42.546875 68.316406 43.386719 66.1875 43.386719 L 64.371094 43.386719 C 64.195312 43.386719 64.15625 43.386719 64.097656 43.386719 C 63.960938 43.367188 63.921875 43.347656 63.921875 43.25 C 63.921875 43.210938 63.921875 43.191406 63.980469 42.976562 L 64.839844 39.558594 L 66.070312 39.558594 C 67.125 39.558594 67.125 39.832031 67.125 40.144531 C 67.125 40.222656 67.125 40.378906 67.046875 40.75 C 67.027344 40.808594 67.007812 40.847656 67.007812 40.886719 C 67.007812 40.945312 67.046875 41.023438 67.164062 41.023438 C 67.261719 41.023438 67.300781 40.964844 67.359375 40.769531 L 68.0625 37.859375 C 68.0625 37.78125 68.003906 37.722656 67.90625 37.722656 C 67.808594 37.722656 67.769531 37.800781 67.75 37.9375 C 67.476562 38.894531 67.261719 39.1875 66.109375 39.1875 L 64.9375 39.1875 L 65.679688 36.179688 C 65.796875 35.730469 65.816406 35.691406 66.363281 35.691406 L 68.121094 35.691406 C 69.625 35.691406 70.015625 36.042969 70.015625 37.078125 C 70.015625 37.371094 70.015625 37.390625 69.957031 37.742188 C 69.957031 37.800781 69.9375 37.898438 69.9375 37.957031 C 69.9375 38.015625 69.976562 38.113281 70.09375 38.113281 C 70.230469 38.113281 70.25 38.035156 70.269531 37.800781 L 70.523438 35.632812 C 70.5625 35.300781 70.503906 35.300781 70.191406 35.300781 L 63.882812 35.300781 C 63.648438 35.300781 63.511719 35.300781 63.511719 35.554688 C 63.511719 35.691406 63.628906 35.691406 63.863281 35.691406 C 64.332031 35.691406 64.683594 35.691406 64.683594 35.90625 C 64.683594 35.964844 64.683594 35.984375 64.605469 36.21875 L 62.964844 42.800781 C 62.847656 43.289062 62.828125 43.386719 61.832031 43.386719 C 61.617188 43.386719 61.480469 43.386719 61.480469 43.621094 C 61.480469 43.777344 61.597656 43.777344 61.832031 43.777344 L 68.296875 43.777344 C 68.589844 43.777344 68.609375 43.757812 68.6875 43.5625 L 69.839844 40.867188 Z M 69.839844 40.867188 "/>
</g>
</svg>
