<?xml version="1.0" encoding="UTF-8"?>
<!-- Converted by misc2svg (http://www.network-science.de/tools/misc2svg/) -->
<svg xmlns="http://www.w3.org/2000/svg" xmlns:xlink="http://www.w3.org/1999/xlink" width="155pt" height="182pt" viewBox="0 0 155 182" version="1.1">
<g id="misc2svg">
<path style="fill:none;stroke-width:0.3985;stroke-linecap:butt;stroke-linejoin:miter;stroke:rgb(0%,0%,0%);stroke-opacity:1;stroke-miterlimit:10;" d="M 0.00025 0.000375 L 28.347125 28.34725 L 113.384625 28.34725 L 85.040875 0.000375 L 0.00025 0.000375 " transform="matrix(1.25,0,0,-1.25,6.47625,101.3325)"/>
<path style=" stroke:none;fill-rule:nonzero;fill:rgb(0%,0%,0%);fill-opacity:1;" d="M 83.300781 51.367188 C 83.300781 50.039062 82.1875 48.964844 80.898438 48.964844 C 79.53125 48.964844 78.476562 50.078125 78.476562 51.367188 C 78.476562 52.714844 79.570312 53.789062 80.878906 53.789062 C 82.226562 53.789062 83.300781 52.675781 83.300781 51.367188 Z M 83.300781 51.367188 "/>
<path style=" stroke:none;fill-rule:nonzero;fill:rgb(0%,0%,0%);fill-opacity:1;" d="M 76.027344 56.015625 L 76.027344 55.625 L 75.714844 55.625 C 74.757812 55.625 74.738281 55.488281 74.738281 55.039062 L 74.738281 48.476562 C 74.738281 48.027344 74.757812 47.890625 75.714844 47.890625 L 76.027344 47.890625 L 76.027344 47.5 L 73.917969 47.5 C 73.585938 47.5 73.585938 47.519531 73.507812 47.734375 L 70.773438 54.765625 L 68.078125 47.773438 C 67.960938 47.5 67.921875 47.5 67.628906 47.5 L 65.539062 47.5 L 65.539062 47.890625 L 65.832031 47.890625 C 66.789062 47.890625 66.808594 48.027344 66.808594 48.476562 L 66.808594 54.707031 C 66.808594 55.039062 66.808594 55.625 65.539062 55.625 L 65.539062 56.015625 L 66.984375 55.976562 L 68.449219 56.015625 L 68.449219 55.625 C 67.160156 55.625 67.160156 55.039062 67.160156 54.707031 L 67.160156 47.988281 L 67.179688 47.988281 L 70.1875 55.742188 C 70.246094 55.898438 70.304688 56.015625 70.421875 56.015625 C 70.558594 56.015625 70.597656 55.917969 70.65625 55.78125 L 73.722656 47.890625 L 73.722656 47.890625 L 73.722656 55.039062 C 73.722656 55.488281 73.703125 55.625 72.746094 55.625 L 72.453125 55.625 L 72.453125 56.015625 C 72.902344 55.976562 73.761719 55.976562 74.25 55.976562 C 74.71875 55.976562 75.558594 55.976562 76.027344 56.015625 Z M 76.027344 56.015625 "/>
<path style=" stroke:none;fill-rule:nonzero;fill:rgb(0%,0%,0%);fill-opacity:1;" d="M 83.300781 129.320312 C 83.300781 127.992188 82.1875 126.917969 80.898438 126.917969 C 79.53125 126.917969 78.476562 128.03125 78.476562 129.320312 C 78.476562 130.667969 79.570312 131.742188 80.878906 131.742188 C 82.226562 131.742188 83.300781 130.628906 83.300781 129.320312 Z M 83.300781 129.320312 "/>
<path style=" stroke:none;fill-rule:nonzero;fill:rgb(0%,0%,0%);fill-opacity:1;" d="M 72.566406 133.96875 L 72.566406 133.578125 L 72.253906 133.578125 C 71.296875 133.578125 71.277344 133.441406 71.277344 132.992188 L 71.277344 126.429688 C 71.277344 125.980469 71.296875 125.84375 72.253906 125.84375 L 72.566406 125.84375 L 72.566406 125.453125 L 70.457031 125.453125 C 70.125 125.453125 70.125 125.472656 70.046875 125.6875 L 67.3125 132.71875 L 64.617188 125.726562 C 64.5 125.453125 64.460938 125.453125 64.167969 125.453125 L 62.078125 125.453125 L 62.078125 125.84375 L 62.371094 125.84375 C 63.328125 125.84375 63.347656 125.980469 63.347656 126.429688 L 63.347656 132.660156 C 63.347656 132.992188 63.347656 133.578125 62.078125 133.578125 L 62.078125 133.96875 L 63.523438 133.929688 L 64.988281 133.96875 L 64.988281 133.578125 C 63.699219 133.578125 63.699219 132.992188 63.699219 132.660156 L 63.699219 125.941406 L 63.71875 125.941406 L 66.726562 133.695312 C 66.785156 133.851562 66.84375 133.96875 66.960938 133.96875 C 67.097656 133.96875 67.136719 133.871094 67.195312 133.734375 L 70.261719 125.84375 L 70.261719 125.84375 L 70.261719 132.992188 C 70.261719 133.441406 70.242188 133.578125 69.285156 133.578125 L 68.992188 133.578125 L 68.992188 133.96875 C 69.441406 133.929688 70.300781 133.929688 70.789062 133.929688 C 71.257812 133.929688 72.097656 133.929688 72.566406 133.96875 Z M 72.566406 133.96875 "/>
<path style=" stroke:none;fill-rule:nonzero;fill:rgb(0%,0%,0%);fill-opacity:1;" d="M 75.585938 126.625 C 75.585938 125.882812 75.292969 125.316406 74.765625 125.316406 C 74.316406 125.316406 74.101562 125.648438 74.101562 125.980469 C 74.101562 126.3125 74.316406 126.644531 74.765625 126.644531 C 75 126.644531 75.175781 126.507812 75.253906 126.449219 C 75.273438 126.410156 75.292969 126.410156 75.292969 126.410156 C 75.292969 126.410156 75.3125 126.585938 75.3125 126.625 C 75.3125 127.035156 75.234375 127.933594 74.453125 128.695312 C 74.296875 128.851562 74.296875 128.871094 74.296875 128.910156 C 74.296875 128.988281 74.355469 129.046875 74.414062 129.046875 C 74.550781 129.046875 75.585938 128.109375 75.585938 126.625 Z M 75.585938 126.625 "/>
<path style="fill:none;stroke-width:1.59404;stroke-linecap:butt;stroke-linejoin:miter;stroke:rgb(0%,0%,100%);stroke-opacity:1;stroke-miterlimit:10;" d="M 59.5315 39.687875 L 59.5315 66.8285 " transform="matrix(1.25,0,0,-1.25,6.47625,101.3325)"/>
<path style="fill:none;stroke-width:1.27522;stroke-linecap:round;stroke-linejoin:round;stroke:rgb(0%,0%,100%);stroke-opacity:1;stroke-miterlimit:10;" d="M -2.27316 3.031335 C -2.082535 1.893835 0.00184 0.19071 0.567465 -0.00304 C 0.00184 -0.187415 -2.082535 -1.89054 -2.27316 -3.02804 " transform="matrix(0,-1.25,-1.25,0,80.886825,17.799175)"/>
<path style=" stroke:none;fill-rule:nonzero;fill:rgb(0%,0%,100%);fill-opacity:1;" d="M 71.9375 11.820312 C 71.9375 11.585938 71.703125 11.585938 71.527344 11.585938 L 64.730469 11.585938 C 64.554688 11.585938 64.320312 11.585938 64.320312 11.820312 C 64.320312 12.074219 64.554688 12.074219 64.730469 12.074219 L 71.527344 12.074219 C 71.703125 12.074219 71.9375 12.074219 71.9375 11.820312 Z M 71.9375 11.820312 "/>
<path style=" stroke:none;fill-rule:nonzero;fill:rgb(0%,0%,100%);fill-opacity:1;" d="M 75.039062 11.820312 C 75.039062 11.761719 74.980469 11.722656 74.941406 11.703125 C 73.59375 11.234375 72.617188 10.082031 72.382812 8.695312 C 72.363281 8.636719 72.304688 8.578125 72.246094 8.578125 L 72.011719 8.578125 C 71.933594 8.578125 71.875 8.636719 71.875 8.734375 C 72.070312 9.886719 72.734375 10.902344 73.652344 11.585938 L 64.21875 11.585938 C 64.0625 11.585938 63.964844 11.703125 63.964844 11.820312 C 63.964844 11.957031 64.0625 12.074219 64.21875 12.074219 L 73.652344 12.074219 C 72.734375 12.757812 72.070312 13.773438 71.875 14.925781 C 71.875 15.023438 71.933594 15.082031 72.011719 15.082031 L 72.246094 15.082031 C 72.304688 15.082031 72.363281 15.023438 72.382812 14.964844 C 72.617188 13.578125 73.59375 12.425781 74.941406 11.957031 C 74.980469 11.9375 75.039062 11.898438 75.039062 11.820312 Z M 75.039062 11.820312 "/>
<path style=" stroke:none;fill-rule:nonzero;fill:rgb(0%,0%,100%);fill-opacity:1;" d="M 73.441406 19.125 C 73.441406 19.125 73.441406 18.988281 73.285156 18.988281 C 73.167969 18.988281 73.148438 19.066406 73.128906 19.144531 C 72.308594 20.980469 71.859375 21.820312 69.730469 21.820312 L 67.914062 21.820312 C 67.738281 21.820312 67.699219 21.820312 67.640625 21.820312 C 67.503906 21.800781 67.464844 21.78125 67.464844 21.683594 C 67.464844 21.644531 67.464844 21.625 67.523438 21.410156 L 68.382812 17.992188 L 69.613281 17.992188 C 70.667969 17.992188 70.667969 18.265625 70.667969 18.578125 C 70.667969 18.65625 70.667969 18.8125 70.589844 19.183594 C 70.570312 19.242188 70.550781 19.28125 70.550781 19.320312 C 70.550781 19.378906 70.589844 19.457031 70.707031 19.457031 C 70.804688 19.457031 70.84375 19.398438 70.902344 19.203125 L 71.605469 16.292969 C 71.605469 16.214844 71.546875 16.15625 71.449219 16.15625 C 71.351562 16.15625 71.3125 16.234375 71.292969 16.371094 C 71.019531 17.328125 70.804688 17.621094 69.652344 17.621094 L 68.480469 17.621094 L 69.222656 14.613281 C 69.339844 14.164062 69.359375 14.125 69.90625 14.125 L 71.664062 14.125 C 73.167969 14.125 73.558594 14.476562 73.558594 15.511719 C 73.558594 15.804688 73.558594 15.824219 73.5 16.175781 C 73.5 16.234375 73.480469 16.332031 73.480469 16.390625 C 73.480469 16.449219 73.519531 16.546875 73.636719 16.546875 C 73.773438 16.546875 73.792969 16.46875 73.8125 16.234375 L 74.066406 14.066406 C 74.105469 13.734375 74.046875 13.734375 73.734375 13.734375 L 67.425781 13.734375 C 67.191406 13.734375 67.054688 13.734375 67.054688 13.988281 C 67.054688 14.125 67.171875 14.125 67.40625 14.125 C 67.875 14.125 68.226562 14.125 68.226562 14.339844 C 68.226562 14.398438 68.226562 14.417969 68.148438 14.652344 L 66.507812 21.234375 C 66.390625 21.722656 66.371094 21.820312 65.375 21.820312 C 65.160156 21.820312 65.023438 21.820312 65.023438 22.054688 C 65.023438 22.210938 65.140625 22.210938 65.375 22.210938 L 71.839844 22.210938 C 72.132812 22.210938 72.152344 22.191406 72.230469 21.996094 L 73.382812 19.300781 C 73.402344 19.242188 73.441406 19.125 73.441406 19.125 Z M 73.441406 19.125 "/>
<path style="fill:none;stroke-width:1.59404;stroke-linecap:butt;stroke-linejoin:miter;stroke:rgb(0%,0%,100%);stroke-opacity:1;stroke-miterlimit:10;" d="M 59.5315 -22.67775 L 59.5315 -49.8215 " transform="matrix(1.25,0,0,-1.25,6.47625,101.3325)"/>
<path style="fill:none;stroke-width:1.27522;stroke-linecap:round;stroke-linejoin:round;stroke:rgb(0%,0%,100%);stroke-opacity:1;stroke-miterlimit:10;" d="M -2.27232 3.02804 C -2.08482 1.89054 0.00268 0.187415 0.568305 0.00304 C 0.00268 -0.19071 -2.08482 -1.893835 -2.27232 -3.031335 " transform="matrix(0,1.25,1.25,0,80.886825,163.606025)"/>
<path style=" stroke:none;fill-rule:nonzero;fill:rgb(0%,0%,100%);fill-opacity:1;" d="M 70.984375 159.902344 C 70.984375 159.667969 70.75 159.667969 70.574219 159.667969 L 63.777344 159.667969 C 63.601562 159.667969 63.367188 159.667969 63.367188 159.902344 C 63.367188 160.15625 63.601562 160.15625 63.777344 160.15625 L 70.574219 160.15625 C 70.75 160.15625 70.984375 160.15625 70.984375 159.902344 Z M 70.984375 159.902344 "/>
<path style=" stroke:none;fill-rule:nonzero;fill:rgb(0%,0%,100%);fill-opacity:1;" d="M 75.046875 159.902344 C 75.046875 159.84375 74.988281 159.804688 74.949219 159.785156 C 73.601562 159.316406 72.625 158.164062 72.390625 156.777344 C 72.371094 156.71875 72.3125 156.660156 72.253906 156.660156 L 72.019531 156.660156 C 71.941406 156.660156 71.882812 156.71875 71.882812 156.816406 C 72.078125 157.96875 72.742188 158.984375 73.660156 159.667969 L 64.226562 159.667969 C 64.070312 159.667969 63.972656 159.785156 63.972656 159.902344 C 63.972656 160.039062 64.070312 160.15625 64.226562 160.15625 L 73.660156 160.15625 C 72.742188 160.839844 72.078125 161.855469 71.882812 163.007812 C 71.882812 163.105469 71.941406 163.164062 72.019531 163.164062 L 72.253906 163.164062 C 72.3125 163.164062 72.371094 163.105469 72.390625 163.046875 C 72.625 161.660156 73.601562 160.507812 74.949219 160.039062 C 74.988281 160.019531 75.046875 159.980469 75.046875 159.902344 Z M 75.046875 159.902344 "/>
<path style=" stroke:none;fill-rule:nonzero;fill:rgb(0%,0%,100%);fill-opacity:1;" d="M 71.21875 168.679688 C 71.21875 168.679688 71.21875 168.542969 71.0625 168.542969 C 70.945312 168.542969 70.925781 168.621094 70.90625 168.699219 C 70.085938 170.535156 69.636719 171.375 67.507812 171.375 L 65.691406 171.375 C 65.515625 171.375 65.476562 171.375 65.417969 171.375 C 65.28125 171.355469 65.242188 171.335938 65.242188 171.238281 C 65.242188 171.199219 65.242188 171.179688 65.300781 170.964844 L 66.160156 167.546875 L 67.390625 167.546875 C 68.445312 167.546875 68.445312 167.820312 68.445312 168.132812 C 68.445312 168.210938 68.445312 168.367188 68.367188 168.738281 C 68.347656 168.796875 68.328125 168.835938 68.328125 168.875 C 68.328125 168.933594 68.367188 169.011719 68.484375 169.011719 C 68.582031 169.011719 68.621094 168.953125 68.679688 168.757812 L 69.382812 165.847656 C 69.382812 165.769531 69.324219 165.710938 69.226562 165.710938 C 69.128906 165.710938 69.089844 165.789062 69.070312 165.925781 C 68.796875 166.882812 68.582031 167.175781 67.429688 167.175781 L 66.257812 167.175781 L 67 164.167969 C 67.117188 163.71875 67.136719 163.679688 67.683594 163.679688 L 69.441406 163.679688 C 70.945312 163.679688 71.335938 164.03125 71.335938 165.066406 C 71.335938 165.359375 71.335938 165.378906 71.277344 165.730469 C 71.277344 165.789062 71.257812 165.886719 71.257812 165.945312 C 71.257812 166.003906 71.296875 166.101562 71.414062 166.101562 C 71.550781 166.101562 71.570312 166.023438 71.589844 165.789062 L 71.84375 163.621094 C 71.882812 163.289062 71.824219 163.289062 71.511719 163.289062 L 65.203125 163.289062 C 64.96875 163.289062 64.832031 163.289062 64.832031 163.542969 C 64.832031 163.679688 64.949219 163.679688 65.183594 163.679688 C 65.652344 163.679688 66.003906 163.679688 66.003906 163.894531 C 66.003906 163.953125 66.003906 163.972656 65.925781 164.207031 L 64.285156 170.789062 C 64.167969 171.277344 64.148438 171.375 63.152344 171.375 C 62.9375 171.375 62.800781 171.375 62.800781 171.609375 C 62.800781 171.765625 62.917969 171.765625 63.152344 171.765625 L 69.617188 171.765625 C 69.910156 171.765625 69.929688 171.746094 70.007812 171.550781 L 71.160156 168.855469 C 71.179688 168.796875 71.21875 168.679688 71.21875 168.679688 Z M 71.21875 168.679688 "/>
<path style=" stroke:none;fill-rule:nonzero;fill:rgb(0%,0%,100%);fill-opacity:1;" d="M 74.84375 162.230469 C 74.84375 161.957031 74.609375 161.761719 74.335938 161.761719 C 73.984375 161.761719 73.90625 162.035156 73.867188 162.152344 L 72.714844 165.921875 L 72.65625 166.078125 C 72.65625 166.175781 72.929688 166.273438 73.007812 166.273438 C 73.066406 166.273438 73.105469 166.214844 73.125 166.136719 L 74.785156 162.503906 C 74.824219 162.425781 74.84375 162.347656 74.84375 162.230469 Z M 74.84375 162.230469 "/>
</g>
</svg>
