<?xml version="1.0" encoding="UTF-8"?>
<!-- Converted by misc2svg (http://www.network-science.de/tools/misc2svg/) -->
<svg xmlns="http://www.w3.org/2000/svg" xmlns:xlink="http://www.w3.org/1999/xlink" width="180pt" height="199pt" viewBox="0 0 180 199" version="1.1">
<g id="misc2svg">
<path style=" stroke:none;fill-rule:nonzero;fill:rgb(50.196078%,50.196078%,50.196078%);fill-opacity:1;" d="M 36.570312 157.300781 L 36.570312 50.996094 L 43.65625 50.996094 L 43.65625 157.300781 L 36.570312 157.300781 Z M 142.871094 157.300781 L 142.871094 50.996094 L 149.957031 50.996094 L 149.957031 157.300781 L 142.871094 157.300781 Z M 142.871094 157.300781 "/>
<path style=" stroke:none;fill-rule:nonzero;fill:rgb(50.196078%,50.196078%,50.196078%);fill-opacity:1;" d="M 15.59375 55.289062 L 15.59375 54.898438 L 15.203125 54.898438 C 14.070312 54.898438 14.050781 54.761719 14.050781 54.3125 L 14.050781 47.320312 C 14.050781 47.007812 14.050781 46.988281 13.757812 46.988281 C 12.976562 47.789062 11.882812 47.789062 11.492188 47.789062 L 11.492188 48.179688 C 11.746094 48.179688 12.46875 48.179688 13.113281 47.847656 L 13.113281 54.3125 C 13.113281 54.761719 13.074219 54.898438 11.960938 54.898438 L 11.570312 54.898438 L 11.570312 55.289062 C 12 55.25 13.074219 55.25 13.582031 55.25 C 14.070312 55.25 15.164062 55.25 15.59375 55.289062 Z M 15.59375 55.289062 "/>
<path style=" stroke:none;fill-rule:nonzero;fill:rgb(50.196078%,50.196078%,50.196078%);fill-opacity:1;" d="M 22.328125 51.304688 C 22.328125 50.308594 22.269531 49.3125 21.839844 48.394531 C 21.273438 47.183594 20.238281 46.988281 19.730469 46.988281 C 18.96875 46.988281 18.070312 47.320312 17.542969 48.472656 C 17.152344 49.332031 17.09375 50.308594 17.09375 51.304688 C 17.09375 52.242188 17.132812 53.355469 17.660156 54.3125 C 18.1875 55.308594 19.105469 55.5625 19.710938 55.5625 C 20.375 55.5625 21.332031 55.308594 21.878906 54.117188 C 22.269531 53.257812 22.328125 52.28125 22.328125 51.304688 Z M 21.3125 51.148438 C 21.3125 52.085938 21.3125 52.925781 21.175781 53.726562 C 20.980469 54.917969 20.277344 55.289062 19.710938 55.289062 C 19.222656 55.289062 18.480469 54.976562 18.265625 53.785156 C 18.128906 53.042969 18.128906 51.890625 18.128906 51.148438 C 18.128906 50.347656 18.128906 49.527344 18.226562 48.863281 C 18.460938 47.378906 19.398438 47.261719 19.710938 47.261719 C 20.121094 47.261719 20.941406 47.496094 21.175781 48.726562 C 21.3125 49.429688 21.3125 50.367188 21.3125 51.148438 Z M 21.3125 51.148438 "/>
<path style=" stroke:none;fill-rule:nonzero;fill:rgb(50.196078%,50.196078%,50.196078%);fill-opacity:1;" d="M 31.933594 47.164062 L 31.933594 46.773438 C 31.542969 46.8125 31.035156 46.8125 30.722656 46.8125 L 29.296875 46.773438 L 29.296875 47.164062 C 29.941406 47.183594 30.214844 47.496094 30.214844 47.789062 C 30.214844 47.886719 30.175781 47.964844 30.15625 48.042969 L 27.871094 54.039062 L 25.488281 47.75 C 25.410156 47.574219 25.410156 47.535156 25.410156 47.535156 C 25.410156 47.164062 26.113281 47.164062 26.425781 47.164062 L 26.425781 46.773438 C 25.976562 46.8125 25.117188 46.8125 24.648438 46.8125 L 23.066406 46.773438 L 23.066406 47.164062 C 23.886719 47.164062 24.121094 47.164062 24.296875 47.632812 L 27.1875 55.289062 C 27.265625 55.523438 27.324219 55.5625 27.5 55.5625 C 27.695312 55.5625 27.734375 55.503906 27.792969 55.328125 L 30.566406 48.003906 C 30.742188 47.535156 31.074219 47.183594 31.933594 47.164062 Z M 31.933594 47.164062 "/>
<path style=" stroke:none;fill-rule:nonzero;fill:rgb(50.196078%,50.196078%,50.196078%);fill-opacity:1;" d="M 160.078125 51.304688 C 160.078125 50.308594 160.019531 49.3125 159.589844 48.394531 C 159.023438 47.183594 157.988281 46.988281 157.480469 46.988281 C 156.71875 46.988281 155.820312 47.320312 155.292969 48.472656 C 154.902344 49.332031 154.84375 50.308594 154.84375 51.304688 C 154.84375 52.242188 154.882812 53.355469 155.410156 54.3125 C 155.9375 55.308594 156.855469 55.5625 157.460938 55.5625 C 158.125 55.5625 159.082031 55.308594 159.628906 54.117188 C 160.019531 53.257812 160.078125 52.28125 160.078125 51.304688 Z M 159.0625 51.148438 C 159.0625 52.085938 159.0625 52.925781 158.925781 53.726562 C 158.730469 54.917969 158.027344 55.289062 157.460938 55.289062 C 156.972656 55.289062 156.230469 54.976562 156.015625 53.785156 C 155.878906 53.042969 155.878906 51.890625 155.878906 51.148438 C 155.878906 50.347656 155.878906 49.527344 155.976562 48.863281 C 156.210938 47.378906 157.148438 47.261719 157.460938 47.261719 C 157.871094 47.261719 158.691406 47.496094 158.925781 48.726562 C 159.0625 49.429688 159.0625 50.367188 159.0625 51.148438 Z M 159.0625 51.148438 "/>
<path style=" stroke:none;fill-rule:nonzero;fill:rgb(50.196078%,50.196078%,50.196078%);fill-opacity:1;" d="M 169.683594 47.164062 L 169.683594 46.773438 C 169.292969 46.8125 168.785156 46.8125 168.472656 46.8125 L 167.046875 46.773438 L 167.046875 47.164062 C 167.691406 47.183594 167.964844 47.496094 167.964844 47.789062 C 167.964844 47.886719 167.925781 47.964844 167.90625 48.042969 L 165.621094 54.039062 L 163.238281 47.75 C 163.160156 47.574219 163.160156 47.535156 163.160156 47.535156 C 163.160156 47.164062 163.863281 47.164062 164.175781 47.164062 L 164.175781 46.773438 C 163.726562 46.8125 162.867188 46.8125 162.398438 46.8125 L 160.816406 46.773438 L 160.816406 47.164062 C 161.636719 47.164062 161.871094 47.164062 162.046875 47.632812 L 164.9375 55.289062 C 165.015625 55.523438 165.074219 55.5625 165.25 55.5625 C 165.445312 55.5625 165.484375 55.503906 165.542969 55.328125 L 168.316406 48.003906 C 168.492188 47.535156 168.824219 47.183594 169.683594 47.164062 Z M 169.683594 47.164062 "/>
<path style="fill:none;stroke-width:0.3985;stroke-linecap:butt;stroke-linejoin:miter;stroke:rgb(0%,0%,0%);stroke-opacity:1;stroke-miterlimit:10;" d="M 14.172125 113.385875 L 21.259625 85.042125 C 28.344 56.69525 28.344 56.69525 28.344 -0.001625 C 28.344 -14.1735 28.344 -14.1735 0.00025 -28.3485 " transform="matrix(1.25,0,0,-1.25,36.57,157.29875)"/>
<path style=" stroke:none;fill-rule:nonzero;fill:rgb(0%,0%,0%);fill-opacity:1;" d="M 68.277344 10.527344 C 68.277344 10.429688 68.199219 10.371094 68.101562 10.371094 C 67.789062 10.371094 67.417969 10.410156 67.085938 10.410156 C 66.675781 10.410156 66.246094 10.371094 65.855469 10.371094 C 65.777344 10.371094 65.621094 10.371094 65.621094 10.605469 C 65.621094 10.742188 65.71875 10.761719 65.816406 10.761719 C 66.148438 10.78125 66.382812 10.917969 66.382812 11.171875 C 66.382812 11.367188 66.207031 11.640625 66.207031 11.640625 L 62.378906 17.734375 L 61.519531 11.132812 C 61.519531 10.917969 61.8125 10.761719 62.378906 10.761719 C 62.554688 10.761719 62.691406 10.761719 62.691406 10.507812 C 62.691406 10.410156 62.59375 10.371094 62.535156 10.371094 C 62.027344 10.371094 61.5 10.410156 60.972656 10.410156 C 60.757812 10.410156 60.523438 10.410156 60.289062 10.410156 C 60.074219 10.410156 59.839844 10.371094 59.625 10.371094 C 59.527344 10.371094 59.390625 10.371094 59.390625 10.605469 C 59.390625 10.761719 59.488281 10.761719 59.703125 10.761719 C 60.386719 10.761719 60.40625 10.878906 60.445312 11.191406 L 61.421875 18.867188 C 61.460938 19.121094 61.519531 19.160156 61.675781 19.160156 C 61.871094 19.160156 61.929688 19.101562 62.027344 18.945312 L 66.519531 11.796875 C 67.125 10.820312 67.652344 10.78125 68.101562 10.761719 C 68.257812 10.742188 68.277344 10.527344 68.277344 10.527344 Z M 68.277344 10.527344 "/>
<path style=" stroke:none;fill-rule:nonzero;fill:rgb(0%,0%,0%);fill-opacity:1;" d="M 70.074219 20.753906 L 70.074219 20.441406 L 69.742188 20.441406 C 68.863281 20.441406 68.863281 20.324219 68.863281 20.03125 L 68.863281 15.207031 C 68.863281 14.972656 68.863281 14.972656 68.609375 14.972656 C 68.042969 15.519531 67.261719 15.519531 66.910156 15.519531 L 66.910156 15.832031 C 67.105469 15.832031 67.691406 15.832031 68.160156 15.597656 L 68.160156 20.03125 C 68.160156 20.324219 68.160156 20.441406 67.300781 20.441406 L 66.96875 20.441406 L 66.96875 20.753906 L 68.511719 20.714844 L 70.074219 20.753906 Z M 70.074219 20.753906 "/>
<path style="fill:none;stroke-width:0.3985;stroke-linecap:butt;stroke-linejoin:miter;stroke:rgb(0%,0%,0%);stroke-opacity:1;stroke-miterlimit:10;" d="M 42.522125 85.042125 C 63.778375 77.9515 63.778375 77.9515 70.865875 56.69525 C 72.2815 42.52025 72.2815 42.52025 70.865875 28.348375 C 69.45025 14.1765 69.45025 14.1765 70.865875 -0.001625 C 77.953375 -28.3485 77.953375 -28.3485 99.21275 -28.3485 " transform="matrix(1.25,0,0,-1.25,36.57,157.29875)"/>
<path style=" stroke:none;fill-rule:nonzero;fill:rgb(0%,0%,0%);fill-opacity:1;" d="M 110.796875 45.960938 C 110.796875 45.863281 110.71875 45.804688 110.621094 45.804688 C 110.308594 45.804688 109.9375 45.84375 109.605469 45.84375 C 109.195312 45.84375 108.765625 45.804688 108.375 45.804688 C 108.296875 45.804688 108.140625 45.804688 108.140625 46.039062 C 108.140625 46.175781 108.238281 46.195312 108.335938 46.195312 C 108.667969 46.214844 108.902344 46.351562 108.902344 46.605469 C 108.902344 46.800781 108.726562 47.074219 108.726562 47.074219 L 104.898438 53.167969 L 104.039062 46.566406 C 104.039062 46.351562 104.332031 46.195312 104.898438 46.195312 C 105.074219 46.195312 105.210938 46.195312 105.210938 45.941406 C 105.210938 45.84375 105.113281 45.804688 105.054688 45.804688 C 104.546875 45.804688 104.019531 45.84375 103.492188 45.84375 C 103.277344 45.84375 103.042969 45.84375 102.808594 45.84375 C 102.59375 45.84375 102.359375 45.804688 102.144531 45.804688 C 102.046875 45.804688 101.910156 45.804688 101.910156 46.039062 C 101.910156 46.195312 102.007812 46.195312 102.222656 46.195312 C 102.90625 46.195312 102.925781 46.3125 102.964844 46.625 L 103.941406 54.300781 C 103.980469 54.554688 104.039062 54.59375 104.195312 54.59375 C 104.390625 54.59375 104.449219 54.535156 104.546875 54.378906 L 109.039062 47.230469 C 109.644531 46.253906 110.171875 46.214844 110.621094 46.195312 C 110.777344 46.175781 110.796875 45.960938 110.796875 45.960938 Z M 110.796875 45.960938 "/>
<path style=" stroke:none;fill-rule:nonzero;fill:rgb(0%,0%,0%);fill-opacity:1;" d="M 112.863281 54.605469 L 112.570312 54.605469 C 112.550781 54.800781 112.453125 55.308594 112.335938 55.386719 C 112.277344 55.445312 111.613281 55.445312 111.476562 55.445312 L 109.875 55.445312 C 110.792969 54.644531 111.105469 54.390625 111.613281 53.980469 C 112.257812 53.472656 112.863281 52.925781 112.863281 52.105469 C 112.863281 51.050781 111.945312 50.40625 110.832031 50.40625 C 109.757812 50.40625 109.015625 51.167969 109.015625 51.96875 C 109.015625 52.398438 109.386719 52.457031 109.484375 52.457031 C 109.679688 52.457031 109.933594 52.300781 109.933594 51.988281 C 109.933594 51.832031 109.875 51.519531 109.425781 51.519531 C 109.699219 50.914062 110.285156 50.71875 110.695312 50.71875 C 111.574219 50.71875 112.023438 51.402344 112.023438 52.105469 C 112.023438 52.867188 111.476562 53.453125 111.203125 53.765625 L 109.113281 55.855469 C 109.015625 55.933594 109.015625 55.953125 109.015625 56.1875 L 112.609375 56.1875 L 112.863281 54.605469 Z M 112.863281 54.605469 "/>
<path style="fill:none;stroke-width:0.3985;stroke-linecap:butt;stroke-linejoin:miter;stroke:rgb(0%,0%,0%);stroke-opacity:1;stroke-dasharray:2.98883,2.98883;stroke-miterlimit:10;" d="M -14.17475 -0.001625 C 0.00025 12.75775 0.00025 12.75775 28.344 14.1765 C 42.522125 17.00775 42.522125 17.00775 56.694 21.260875 C 77.953375 31.18275 77.953375 31.18275 99.21275 28.348375 " transform="matrix(1.25,0,0,-1.25,36.57,157.29875)"/>
<path style=" stroke:none;fill-rule:nonzero;fill:rgb(0%,0%,0%);fill-opacity:1;" d="M 74.417969 139.226562 C 74.417969 137.898438 73.304688 136.824219 72.015625 136.824219 C 70.648438 136.824219 69.59375 137.9375 69.59375 139.226562 C 69.59375 140.574219 70.6875 141.648438 71.996094 141.648438 C 73.34375 141.648438 74.417969 140.535156 74.417969 139.226562 Z M 74.417969 139.226562 "/>
<path style=" stroke:none;fill-rule:nonzero;fill:rgb(0%,0%,0%);fill-opacity:1;" d="M 82.574219 131.539062 C 82.574219 131.402344 82.476562 131.402344 82.4375 131.402344 C 82.320312 131.402344 82.300781 131.460938 82.261719 131.539062 C 81.851562 132.886719 81.011719 133.179688 80.621094 133.179688 C 80.132812 133.179688 79.9375 132.789062 79.9375 132.359375 C 79.9375 132.085938 79.996094 131.8125 80.132812 131.265625 L 80.5625 129.546875 C 80.640625 129.234375 80.933594 128.082031 81.792969 128.082031 C 81.851562 128.082031 82.164062 128.082031 82.417969 128.238281 C 82.066406 128.316406 81.832031 128.609375 81.832031 128.921875 C 81.832031 129.117188 81.96875 129.351562 82.300781 129.351562 C 82.574219 129.351562 82.964844 129.136719 82.964844 128.628906 C 82.964844 127.984375 82.242188 127.808594 81.8125 127.808594 C 81.089844 127.808594 80.660156 128.472656 80.503906 128.746094 C 80.191406 127.925781 79.527344 127.808594 79.15625 127.808594 C 77.867188 127.808594 77.144531 129.410156 77.144531 129.722656 C 77.144531 129.859375 77.300781 129.859375 77.300781 129.859375 C 77.398438 129.859375 77.4375 129.820312 77.457031 129.722656 C 77.886719 128.394531 78.707031 128.082031 79.136719 128.082031 C 79.371094 128.082031 79.800781 128.199219 79.800781 128.921875 C 79.800781 129.3125 79.585938 130.132812 79.136719 131.890625 C 78.941406 132.652344 78.492188 133.179688 77.945312 133.179688 C 77.867188 133.179688 77.59375 133.179688 77.320312 133.023438 C 77.632812 132.945312 77.90625 132.691406 77.90625 132.339844 C 77.90625 132.007812 77.632812 131.910156 77.457031 131.910156 C 77.066406 131.910156 76.773438 132.222656 76.773438 132.632812 C 76.773438 133.199219 77.378906 133.453125 77.925781 133.453125 C 78.765625 133.453125 79.214844 132.574219 79.234375 132.515625 C 79.390625 132.964844 79.839844 133.453125 80.582031 133.453125 C 81.871094 133.453125 82.574219 131.851562 82.574219 131.539062 Z M 82.574219 131.539062 "/>
<path style=" stroke:none;fill-rule:nonzero;fill:rgb(0%,0%,0%);fill-opacity:1;" d="M 87.640625 135.183594 L 87.640625 134.871094 L 87.308594 134.871094 C 86.429688 134.871094 86.429688 134.753906 86.429688 134.460938 L 86.429688 129.636719 C 86.429688 129.402344 86.429688 129.402344 86.175781 129.402344 C 85.609375 129.949219 84.828125 129.949219 84.476562 129.949219 L 84.476562 130.261719 C 84.671875 130.261719 85.257812 130.261719 85.726562 130.027344 L 85.726562 134.460938 C 85.726562 134.753906 85.726562 134.871094 84.867188 134.871094 L 84.535156 134.871094 L 84.535156 135.183594 L 86.078125 135.144531 L 87.640625 135.183594 Z M 87.640625 135.183594 "/>
<path style=" stroke:none;fill-rule:nonzero;fill:rgb(0%,0%,0%);fill-opacity:1;" d="M 127.566406 121.507812 C 127.566406 120.179688 126.453125 119.105469 125.164062 119.105469 C 123.796875 119.105469 122.742188 120.21875 122.742188 121.507812 C 122.742188 122.855469 123.835938 123.929688 125.144531 123.929688 C 126.492188 123.929688 127.566406 122.816406 127.566406 121.507812 Z M 127.566406 121.507812 "/>
<path style=" stroke:none;fill-rule:nonzero;fill:rgb(0%,0%,0%);fill-opacity:1;" d="M 114.21875 113.820312 C 114.21875 113.683594 114.121094 113.683594 114.082031 113.683594 C 113.964844 113.683594 113.945312 113.742188 113.90625 113.820312 C 113.496094 115.167969 112.65625 115.460938 112.265625 115.460938 C 111.777344 115.460938 111.582031 115.070312 111.582031 114.640625 C 111.582031 114.367188 111.640625 114.09375 111.777344 113.546875 L 112.207031 111.828125 C 112.285156 111.515625 112.578125 110.363281 113.4375 110.363281 C 113.496094 110.363281 113.808594 110.363281 114.0625 110.519531 C 113.710938 110.597656 113.476562 110.890625 113.476562 111.203125 C 113.476562 111.398438 113.613281 111.632812 113.945312 111.632812 C 114.21875 111.632812 114.609375 111.417969 114.609375 110.910156 C 114.609375 110.265625 113.886719 110.089844 113.457031 110.089844 C 112.734375 110.089844 112.304688 110.753906 112.148438 111.027344 C 111.835938 110.207031 111.171875 110.089844 110.800781 110.089844 C 109.511719 110.089844 108.789062 111.691406 108.789062 112.003906 C 108.789062 112.140625 108.945312 112.140625 108.945312 112.140625 C 109.042969 112.140625 109.082031 112.101562 109.101562 112.003906 C 109.53125 110.675781 110.351562 110.363281 110.78125 110.363281 C 111.015625 110.363281 111.445312 110.480469 111.445312 111.203125 C 111.445312 111.59375 111.230469 112.414062 110.78125 114.171875 C 110.585938 114.933594 110.136719 115.460938 109.589844 115.460938 C 109.511719 115.460938 109.238281 115.460938 108.964844 115.304688 C 109.277344 115.226562 109.550781 114.972656 109.550781 114.621094 C 109.550781 114.289062 109.277344 114.191406 109.101562 114.191406 C 108.710938 114.191406 108.417969 114.503906 108.417969 114.914062 C 108.417969 115.480469 109.023438 115.734375 109.570312 115.734375 C 110.410156 115.734375 110.859375 114.855469 110.878906 114.796875 C 111.035156 115.246094 111.484375 115.734375 112.226562 115.734375 C 113.515625 115.734375 114.21875 114.132812 114.21875 113.820312 Z M 114.21875 113.820312 "/>
<path style=" stroke:none;fill-rule:nonzero;fill:rgb(0%,0%,0%);fill-opacity:1;" d="M 119.5625 115.882812 L 119.269531 115.882812 C 119.25 116.078125 119.152344 116.585938 119.035156 116.664062 C 118.976562 116.722656 118.3125 116.722656 118.175781 116.722656 L 116.574219 116.722656 C 117.492188 115.921875 117.804688 115.667969 118.3125 115.257812 C 118.957031 114.75 119.5625 114.203125 119.5625 113.382812 C 119.5625 112.328125 118.644531 111.683594 117.53125 111.683594 C 116.457031 111.683594 115.714844 112.445312 115.714844 113.246094 C 115.714844 113.675781 116.085938 113.734375 116.183594 113.734375 C 116.378906 113.734375 116.632812 113.578125 116.632812 113.265625 C 116.632812 113.109375 116.574219 112.796875 116.125 112.796875 C 116.398438 112.191406 116.984375 111.996094 117.394531 111.996094 C 118.273438 111.996094 118.722656 112.679688 118.722656 113.382812 C 118.722656 114.144531 118.175781 114.730469 117.902344 115.042969 L 115.8125 117.132812 C 115.714844 117.210938 115.714844 117.230469 115.714844 117.464844 L 119.308594 117.464844 L 119.5625 115.882812 Z M 119.5625 115.882812 "/>
</g>
</svg>
