<?xml version="1.0" encoding="UTF-8"?>
<!-- Converted by misc2svg (http://www.network-science.de/tools/misc2svg/) -->
<svg xmlns="http://www.w3.org/2000/svg" xmlns:xlink="http://www.w3.org/1999/xlink" width="376pt" height="141pt" viewBox="0 0 376 141" version="1.1">
<g id="misc2svg">
<path style="fill-rule:nonzero;fill:rgb(87.45098%,96.078431%,96.862745%);fill-opacity:1;stroke-width:0.3985;stroke-linecap:butt;stroke-linejoin:miter;stroke:rgb(0%,0%,0%);stroke-opacity:1;stroke-miterlimit:10;" d="M 39.532125 42.51875 L -39.530375 42.51875 C -41.1835 42.51875 -42.521 41.18125 -42.521 39.53125 L -42.521 -39.53125 C -42.521 -41.184375 -41.1835 -42.51875 -39.530375 -42.51875 L 39.532125 -42.51875 C 41.182125 -42.51875 42.519625 -41.184375 42.519625 -39.53125 L 42.519625 39.53125 C 42.519625 41.18125 41.182125 42.51875 39.532125 42.51875 Z M 39.532125 42.51875 " transform="matrix(1.25,0,0,-1.25,187.9325,59.625)"/>
<path style=" stroke:none;fill-rule:nonzero;fill:rgb(0%,0%,0%);fill-opacity:1;" d="M 152.359375 126.269531 C 152.359375 125.625 152.125 125.136719 151.871094 124.804688 C 151.382812 124.179688 150.875 124.0625 150.152344 123.886719 L 149.15625 123.652344 C 148.257812 123.4375 147.964844 122.714844 147.964844 122.226562 C 147.964844 121.464844 148.570312 120.742188 149.527344 120.742188 C 150.972656 120.742188 151.558594 121.835938 151.714844 122.949219 C 151.734375 123.164062 151.753906 123.222656 151.890625 123.222656 C 152.046875 123.222656 152.046875 123.144531 152.046875 122.910156 L 152.046875 120.742188 C 152.046875 120.527344 152.046875 120.429688 151.910156 120.429688 C 151.832031 120.429688 151.8125 120.449219 151.734375 120.585938 C 151.597656 120.78125 151.714844 120.644531 151.34375 121.230469 C 151.148438 120.996094 150.5625 120.429688 149.507812 120.429688 C 148.199219 120.429688 147.261719 121.464844 147.261719 122.597656 C 147.261719 123.476562 147.789062 124.003906 147.847656 124.0625 C 148.335938 124.570312 148.550781 124.609375 149.878906 124.941406 C 150.796875 125.136719 150.894531 125.175781 151.265625 125.546875 C 151.265625 125.546875 151.65625 125.976562 151.65625 126.640625 C 151.65625 127.402344 151.109375 128.242188 150.074219 128.242188 C 149.214844 128.242188 147.652344 127.871094 147.574219 126.035156 C 147.554688 125.859375 147.554688 125.800781 147.417969 125.800781 C 147.261719 125.800781 147.261719 125.878906 147.261719 126.113281 L 147.261719 128.28125 C 147.261719 128.496094 147.261719 128.59375 147.398438 128.59375 C 147.476562 128.59375 147.476562 128.574219 147.554688 128.4375 C 147.710938 128.242188 147.59375 128.378906 147.964844 127.792969 C 148.648438 128.476562 149.546875 128.59375 150.09375 128.59375 C 151.460938 128.59375 152.359375 127.460938 152.359375 126.269531 Z M 152.359375 126.269531 "/>
<path style=" stroke:none;fill-rule:nonzero;fill:rgb(0%,0%,0%);fill-opacity:1;" d="M 158.835938 123.847656 L 158.835938 123.515625 C 158.484375 123.535156 158.132812 123.535156 157.996094 123.535156 C 157.683594 123.535156 157.332031 123.535156 157.019531 123.515625 L 157.019531 123.847656 C 157.527344 123.886719 157.527344 124.277344 157.527344 124.335938 C 157.527344 124.453125 157.488281 124.570312 157.449219 124.648438 L 156.316406 127.324219 L 155.046875 124.375 C 154.988281 124.21875 154.988281 124.140625 154.988281 124.140625 C 154.988281 123.847656 155.378906 123.847656 155.613281 123.847656 L 155.613281 123.515625 L 154.363281 123.535156 C 154.324219 123.535156 153.679688 123.535156 153.25 123.515625 L 153.25 123.847656 C 153.757812 123.847656 153.972656 123.886719 154.109375 124.179688 L 155.867188 128.339844 L 155.59375 129.003906 C 155.339844 129.589844 155.027344 130.351562 154.285156 130.351562 C 154.011719 130.351562 153.816406 130.214844 153.796875 130.195312 C 153.875 130.175781 154.1875 130.097656 154.1875 129.707031 C 154.1875 129.414062 153.972656 129.238281 153.71875 129.238281 C 153.445312 129.238281 153.230469 129.414062 153.230469 129.726562 C 153.230469 130.214844 153.71875 130.644531 154.285156 130.644531 C 155.027344 130.644531 155.496094 129.980469 155.769531 129.375 L 157.800781 124.628906 C 157.917969 124.335938 158.132812 123.886719 158.835938 123.847656 Z M 158.835938 123.847656 "/>
<path style=" stroke:none;fill-rule:nonzero;fill:rgb(0%,0%,0%);fill-opacity:1;" d="M 163.238281 126.914062 C 163.238281 126.40625 163.023438 126.09375 162.769531 125.839844 C 162.398438 125.46875 161.988281 125.390625 161.167969 125.234375 C 160.875 125.175781 160.054688 125.039062 160.054688 124.394531 C 160.054688 124.042969 160.308594 123.554688 161.324219 123.554688 C 162.535156 123.554688 162.613281 124.492188 162.632812 124.765625 C 162.652344 124.902344 162.652344 124.980469 162.789062 124.980469 C 162.945312 124.980469 162.945312 124.902344 162.945312 124.6875 L 162.945312 123.613281 C 162.945312 123.417969 162.945312 123.320312 162.828125 123.320312 C 162.769531 123.320312 162.75 123.320312 162.59375 123.457031 C 162.574219 123.476562 162.476562 123.574219 162.398438 123.632812 C 162.066406 123.378906 161.714844 123.320312 161.324219 123.320312 C 159.839844 123.320312 159.488281 124.140625 159.488281 124.707031 C 159.488281 125.058594 159.644531 125.351562 159.898438 125.605469 C 160.269531 125.957031 160.699219 126.035156 161.265625 126.132812 C 161.851562 126.25 162.027344 126.269531 162.28125 126.464844 C 162.398438 126.5625 162.671875 126.777344 162.671875 127.1875 C 162.671875 128.183594 161.539062 128.183594 161.382812 128.183594 C 160.25 128.183594 159.957031 127.226562 159.820312 126.621094 C 159.78125 126.503906 159.761719 126.445312 159.644531 126.445312 C 159.488281 126.445312 159.488281 126.542969 159.488281 126.738281 L 159.488281 128.164062 C 159.488281 128.359375 159.488281 128.457031 159.605469 128.457031 C 159.683594 128.457031 159.683594 128.457031 159.898438 128.242188 C 159.9375 128.164062 160.054688 128.027344 160.113281 127.96875 C 160.582031 128.4375 161.109375 128.457031 161.382812 128.457031 C 162.769531 128.457031 163.238281 127.65625 163.238281 126.914062 Z M 163.238281 126.914062 "/>
<path style=" stroke:none;fill-rule:nonzero;fill:rgb(0%,0%,0%);fill-opacity:1;" d="M 167.46875 126.953125 L 167.46875 126.308594 L 167.15625 126.308594 L 167.15625 126.914062 C 167.15625 127.753906 166.804688 128.144531 166.414062 128.144531 C 165.652344 128.144531 165.652344 127.167969 165.652344 126.953125 L 165.652344 123.847656 L 167.292969 123.847656 L 167.292969 123.515625 L 165.652344 123.515625 L 165.652344 121.445312 L 165.339844 121.445312 C 165.339844 122.382812 164.949219 123.535156 163.855469 123.574219 L 163.855469 123.847656 L 164.832031 123.847656 L 164.832031 126.953125 C 164.832031 128.203125 165.730469 128.457031 166.335938 128.457031 C 167.078125 128.457031 167.46875 127.753906 167.46875 126.953125 Z M 167.46875 126.953125 "/>
<path style=" stroke:none;fill-rule:nonzero;fill:rgb(0%,0%,0%);fill-opacity:1;" d="M 172.90625 127.011719 C 172.90625 126.933594 172.847656 126.855469 172.75 126.855469 C 172.632812 126.855469 172.613281 126.933594 172.59375 126.992188 C 172.222656 128.125 171.207031 128.144531 171.050781 128.144531 C 170.503906 128.144531 170.054688 127.851562 169.800781 127.460938 C 169.429688 126.914062 169.410156 126.25 169.410156 125.78125 L 172.613281 125.78125 C 172.847656 125.78125 172.90625 125.78125 172.90625 125.527344 C 172.90625 124.375 172.28125 123.320312 170.835938 123.320312 C 169.507812 123.320312 168.453125 124.492188 168.453125 125.878906 C 168.453125 127.34375 169.625 128.457031 170.992188 128.457031 C 172.359375 128.457031 172.90625 127.265625 172.90625 127.011719 Z M 172.144531 125.507812 L 169.429688 125.507812 C 169.527344 123.769531 170.523438 123.59375 170.835938 123.59375 C 171.460938 123.59375 172.125 124.0625 172.144531 125.507812 Z M 171.402344 122.402344 L 170.035156 120.722656 C 169.9375 120.585938 169.878906 120.507812 169.683594 120.507812 C 169.488281 120.507812 169.273438 120.703125 169.273438 120.957031 C 169.273438 121.113281 169.351562 121.210938 169.507812 121.328125 L 171.1875 122.636719 L 171.402344 122.402344 Z M 171.402344 122.402344 "/>
<path style=" stroke:none;fill-rule:nonzero;fill:rgb(0%,0%,0%);fill-opacity:1;" d="M 182.582031 128.339844 L 182.582031 127.988281 C 182.015625 127.988281 181.742188 127.988281 181.722656 127.636719 L 181.722656 125.488281 C 181.722656 124.511719 181.722656 124.199219 181.351562 123.789062 C 181.117188 123.515625 180.667969 123.378906 180.160156 123.378906 C 179.339844 123.378906 178.792969 123.847656 178.480469 124.453125 C 178.34375 123.789062 177.894531 123.378906 176.957031 123.378906 C 176.058594 123.378906 175.511719 123.964844 175.277344 124.492188 L 175.257812 124.492188 L 175.257812 123.378906 L 173.636719 123.515625 L 173.636719 123.847656 C 174.398438 123.847656 174.496094 123.925781 174.496094 124.492188 L 174.496094 127.480469 C 174.496094 127.988281 174.378906 127.988281 173.636719 127.988281 L 173.636719 128.339844 C 174.164062 128.320312 174.378906 128.300781 174.925781 128.300781 C 175.453125 128.300781 175.609375 128.320312 176.195312 128.339844 L 176.195312 127.988281 C 175.453125 127.988281 175.335938 127.988281 175.335938 127.480469 L 175.335938 125.429688 C 175.335938 124.21875 176.214844 123.671875 176.878906 123.671875 C 177.503906 123.671875 177.699219 124.101562 177.699219 124.882812 L 177.699219 127.480469 C 177.699219 127.988281 177.582031 127.988281 176.839844 127.988281 L 176.839844 128.339844 C 177.367188 128.320312 177.582031 128.300781 178.109375 128.300781 C 178.65625 128.300781 178.792969 128.320312 179.398438 128.339844 L 179.398438 127.988281 C 178.65625 127.988281 178.519531 127.988281 178.519531 127.480469 L 178.519531 125.429688 C 178.519531 124.21875 179.398438 123.671875 180.082031 123.671875 C 180.6875 123.671875 180.882812 124.101562 180.882812 124.882812 L 180.882812 127.480469 C 180.882812 127.988281 180.765625 127.988281 180.023438 127.988281 L 180.023438 128.339844 C 180.550781 128.320312 180.765625 128.300781 181.3125 128.300781 C 181.839844 128.300781 181.996094 128.320312 182.582031 128.339844 Z M 182.582031 128.339844 "/>
<path style=" stroke:none;fill-rule:nonzero;fill:rgb(0%,0%,0%);fill-opacity:1;" d="M 187.628906 127.011719 C 187.628906 126.933594 187.570312 126.855469 187.472656 126.855469 C 187.355469 126.855469 187.335938 126.933594 187.316406 126.992188 C 186.945312 128.125 185.929688 128.144531 185.773438 128.144531 C 185.226562 128.144531 184.777344 127.851562 184.523438 127.460938 C 184.152344 126.914062 184.132812 126.25 184.132812 125.78125 L 187.335938 125.78125 C 187.570312 125.78125 187.628906 125.78125 187.628906 125.527344 C 187.628906 124.375 187.003906 123.320312 185.558594 123.320312 C 184.230469 123.320312 183.175781 124.492188 183.175781 125.878906 C 183.175781 127.34375 184.347656 128.457031 185.714844 128.457031 C 187.082031 128.457031 187.628906 127.265625 187.628906 127.011719 Z M 186.867188 125.507812 L 184.152344 125.507812 C 184.25 123.769531 185.246094 123.59375 185.558594 123.59375 C 186.183594 123.59375 186.847656 124.0625 186.867188 125.507812 Z M 186.867188 125.507812 "/>
<path style=" stroke:none;fill-rule:nonzero;fill:rgb(0%,0%,0%);fill-opacity:1;" d="M 197.242188 125.957031 C 197.242188 124.492188 196.070312 123.320312 194.703125 123.320312 C 193.277344 123.320312 192.144531 124.511719 192.144531 125.957031 C 192.144531 127.34375 193.296875 128.457031 194.683594 128.457031 C 196.109375 128.457031 197.242188 127.324219 197.242188 125.957031 Z M 196.265625 125.859375 C 196.265625 126.269531 196.265625 126.914062 195.992188 127.402344 C 195.679688 127.929688 195.171875 128.144531 194.703125 128.144531 C 194.136719 128.144531 193.667969 127.871094 193.414062 127.441406 C 193.121094 126.953125 193.101562 126.367188 193.101562 125.859375 C 193.101562 125.429688 193.101562 124.804688 193.375 124.335938 C 193.726562 123.769531 194.273438 123.59375 194.683594 123.59375 C 195.328125 123.59375 195.777344 123.964844 196.011719 124.335938 C 196.265625 124.804688 196.265625 125.371094 196.265625 125.859375 Z M 196.265625 125.859375 "/>
<path style=" stroke:none;fill-rule:nonzero;fill:rgb(0%,0%,0%);fill-opacity:1;" d="M 203.585938 125.917969 C 203.585938 124.511719 202.472656 123.378906 201.164062 123.378906 C 200.558594 123.378906 199.992188 123.632812 199.5625 124.082031 L 199.5625 123.378906 L 197.902344 123.515625 L 197.902344 123.847656 C 198.703125 123.847656 198.761719 123.925781 198.761719 124.414062 L 198.761719 129.648438 C 198.761719 130.175781 198.644531 130.175781 197.902344 130.175781 L 197.902344 130.507812 C 198.429688 130.488281 198.644531 130.488281 199.191406 130.488281 C 199.71875 130.488281 199.875 130.488281 200.460938 130.507812 L 200.460938 130.175781 C 199.71875 130.175781 199.601562 130.175781 199.601562 129.648438 L 199.601562 127.792969 C 199.894531 128.085938 200.265625 128.457031 201.007812 128.457031 C 202.355469 128.457031 203.585938 127.382812 203.585938 125.917969 Z M 202.609375 125.917969 C 202.609375 127.1875 201.847656 128.183594 200.949219 128.183594 C 200.441406 128.183594 200.011719 127.890625 199.738281 127.5 C 199.601562 127.265625 199.601562 127.246094 199.601562 127.03125 L 199.601562 124.570312 C 199.972656 123.925781 200.597656 123.691406 201.066406 123.691406 C 201.945312 123.691406 202.609375 124.707031 202.609375 125.917969 Z M 202.609375 125.917969 "/>
<path style=" stroke:none;fill-rule:nonzero;fill:rgb(0%,0%,0%);fill-opacity:1;" d="M 207.800781 126.953125 L 207.800781 126.308594 L 207.488281 126.308594 L 207.488281 126.914062 C 207.488281 127.753906 207.136719 128.144531 206.746094 128.144531 C 205.984375 128.144531 205.984375 127.167969 205.984375 126.953125 L 205.984375 123.847656 L 207.625 123.847656 L 207.625 123.515625 L 205.984375 123.515625 L 205.984375 121.445312 L 205.671875 121.445312 C 205.671875 122.382812 205.28125 123.535156 204.1875 123.574219 L 204.1875 123.847656 L 205.164062 123.847656 L 205.164062 126.953125 C 205.164062 128.203125 206.0625 128.457031 206.667969 128.457031 C 207.410156 128.457031 207.800781 127.753906 207.800781 126.953125 Z M 207.800781 126.953125 "/>
<path style=" stroke:none;fill-rule:nonzero;fill:rgb(0%,0%,0%);fill-opacity:1;" d="M 211.273438 128.339844 L 211.273438 127.988281 C 210.550781 127.988281 210.511719 127.929688 210.511719 127.5 L 210.511719 123.378906 L 208.890625 123.515625 L 208.890625 123.847656 C 209.613281 123.847656 209.710938 123.925781 209.710938 124.472656 L 209.710938 127.480469 C 209.710938 127.988281 209.59375 127.988281 208.851562 127.988281 L 208.851562 128.339844 C 209.339844 128.320312 209.59375 128.300781 210.082031 128.300781 C 210.257812 128.300781 210.726562 128.300781 211.273438 128.339844 Z M 210.648438 121.582031 C 210.648438 121.25 210.375 120.976562 210.042969 120.976562 C 209.710938 120.976562 209.4375 121.25 209.4375 121.582031 C 209.4375 121.914062 209.710938 122.1875 210.042969 122.1875 C 210.375 122.1875 210.648438 121.914062 210.648438 121.582031 Z M 210.648438 121.582031 "/>
<path style=" stroke:none;fill-rule:nonzero;fill:rgb(0%,0%,0%);fill-opacity:1;" d="M 217.695312 130.507812 L 217.695312 130.175781 C 216.953125 130.175781 216.835938 130.175781 216.835938 129.648438 L 216.835938 123.378906 L 216.542969 123.378906 L 216.132812 124.375 C 215.605469 123.476562 214.960938 123.378906 214.570312 123.378906 C 213.242188 123.378906 212.03125 124.453125 212.03125 125.9375 C 212.03125 127.34375 213.164062 128.457031 214.472656 128.457031 C 214.941406 128.457031 215.527344 128.300781 215.996094 127.675781 L 215.996094 129.648438 C 215.996094 130.175781 215.878906 130.175781 215.136719 130.175781 L 215.136719 130.507812 C 215.664062 130.488281 215.878906 130.488281 216.425781 130.488281 C 216.953125 130.488281 217.109375 130.488281 217.695312 130.507812 Z M 216.035156 126.796875 C 216.035156 126.992188 216.035156 127.03125 215.859375 127.34375 C 215.585938 127.832031 215.117188 128.183594 214.53125 128.183594 C 213.691406 128.183594 212.988281 127.1875 212.988281 125.9375 C 212.988281 124.628906 213.789062 123.691406 214.648438 123.691406 C 215.527344 123.691406 216.035156 124.628906 216.035156 125.253906 L 216.035156 126.796875 Z M 216.035156 126.796875 "/>
<path style=" stroke:none;fill-rule:nonzero;fill:rgb(0%,0%,0%);fill-opacity:1;" d="M 223.863281 128.339844 L 223.863281 127.988281 C 223.101562 127.988281 223.003906 127.910156 223.003906 127.363281 L 223.003906 123.378906 L 221.304688 123.515625 L 221.304688 123.847656 C 222.066406 123.847656 222.164062 123.925781 222.164062 124.492188 L 222.164062 126.464844 C 222.164062 127.460938 221.617188 128.183594 220.796875 128.183594 C 219.878906 128.183594 219.820312 127.695312 219.820312 127.089844 L 219.820312 123.378906 L 218.121094 123.515625 L 218.121094 123.847656 C 218.980469 123.847656 218.980469 123.886719 218.980469 124.882812 L 218.980469 126.5625 C 218.980469 127.304688 218.980469 127.773438 219.507812 128.164062 C 219.820312 128.378906 220.289062 128.457031 220.738281 128.457031 C 221.324219 128.457031 221.871094 128.203125 222.183594 127.539062 L 222.203125 127.539062 L 222.203125 128.457031 L 223.863281 128.339844 Z M 223.863281 128.339844 "/>
<path style=" stroke:none;fill-rule:nonzero;fill:rgb(0%,0%,0%);fill-opacity:1;" d="M 228.914062 127.011719 C 228.914062 126.933594 228.855469 126.855469 228.757812 126.855469 C 228.640625 126.855469 228.621094 126.933594 228.601562 126.992188 C 228.230469 128.125 227.214844 128.144531 227.058594 128.144531 C 226.511719 128.144531 226.0625 127.851562 225.808594 127.460938 C 225.4375 126.914062 225.417969 126.25 225.417969 125.78125 L 228.621094 125.78125 C 228.855469 125.78125 228.914062 125.78125 228.914062 125.527344 C 228.914062 124.375 228.289062 123.320312 226.84375 123.320312 C 225.515625 123.320312 224.460938 124.492188 224.460938 125.878906 C 224.460938 127.34375 225.632812 128.457031 227 128.457031 C 228.367188 128.457031 228.914062 127.265625 228.914062 127.011719 Z M 228.152344 125.507812 L 225.4375 125.507812 C 225.535156 123.769531 226.53125 123.59375 226.84375 123.59375 C 227.46875 123.59375 228.132812 124.0625 228.152344 125.507812 Z M 228.152344 125.507812 "/>
<path style="fill:none;stroke-width:0.3985;stroke-linecap:butt;stroke-linejoin:miter;stroke:rgb(0%,0%,0%);stroke-opacity:1;stroke-dasharray:2.98883,2.98883;stroke-miterlimit:10;" d="M -84.3335 0 L 96.379 0 " transform="matrix(1.25,0,0,-1.25,187.9325,59.625)"/>
<path style="fill:none;stroke-width:1.59404;stroke-linecap:butt;stroke-linejoin:miter;stroke:rgb(0%,0%,100%);stroke-opacity:1;stroke-miterlimit:10;" d="M -144.567875 36.140625 L -50.186625 36.140625 " transform="matrix(1.25,0,0,-1.25,187.9325,59.625)"/>
<path style=" stroke:none;fill-rule:nonzero;fill:rgb(0%,0%,100%);fill-opacity:1;" d="M 133.71875 14.449219 C 131.195312 13.976562 127.09375 12.554688 124.253906 10.898438 L 124.253906 18 C 127.09375 16.335938 131.195312 14.921875 133.71875 14.449219 "/>
<path style=" stroke:none;fill-rule:nonzero;fill:rgb(100%,100%,100%);fill-opacity:1;" d="M 29.132812 22.445312 L 111.804688 22.445312 L 111.804688 6.445312 L 29.132812 6.445312 L 29.132812 22.445312 Z M 29.132812 22.445312 "/>
<path style=" stroke:none;fill-rule:nonzero;fill:rgb(0%,0%,100%);fill-opacity:1;" d="M 39.632812 14.316406 L 39.339844 14.316406 C 39.105469 15.625 38.910156 16.289062 37.289062 16.289062 L 35.921875 16.289062 C 35.511719 16.289062 35.492188 16.210938 35.492188 15.957031 L 35.492188 13.691406 L 36.371094 13.691406 C 37.25 13.691406 37.386719 13.945312 37.386719 14.707031 L 37.679688 14.707031 L 37.679688 12.34375 L 37.386719 12.34375 C 37.386719 13.105469 37.25 13.378906 36.371094 13.378906 L 35.492188 13.378906 L 35.492188 11.347656 C 35.492188 11.074219 35.511719 10.996094 35.921875 10.996094 L 37.230469 10.996094 C 38.65625 10.996094 38.910156 11.464844 39.066406 12.695312 L 39.359375 12.695312 L 39.085938 10.683594 L 33.773438 10.683594 L 33.773438 10.996094 L 33.988281 10.996094 C 34.652344 10.996094 34.671875 11.09375 34.671875 11.386719 L 34.671875 15.898438 C 34.671875 16.191406 34.652344 16.289062 33.988281 16.289062 L 33.773438 16.289062 L 33.773438 16.601562 L 39.242188 16.601562 L 39.632812 14.316406 Z M 39.632812 14.316406 "/>
<path style=" stroke:none;fill-rule:nonzero;fill:rgb(0%,0%,100%);fill-opacity:1;" d="M 43.53125 15.46875 C 43.53125 15.136719 43.375 14.863281 43.140625 14.667969 C 42.808594 14.355469 42.417969 14.277344 42.105469 14.238281 C 41.421875 14.101562 40.855469 14.003906 40.855469 13.535156 C 40.855469 13.261719 41.089844 12.929688 41.910156 12.929688 C 42.925781 12.929688 42.964844 13.632812 42.984375 13.886719 C 42.984375 13.984375 43.101562 13.984375 43.121094 13.984375 C 43.277344 13.984375 43.277344 13.925781 43.277344 13.75 L 43.277344 12.949219 C 43.277344 12.792969 43.277344 12.714844 43.160156 12.714844 C 43.121094 12.714844 43.101562 12.714844 42.984375 12.8125 C 42.964844 12.832031 42.886719 12.910156 42.828125 12.949219 C 42.554688 12.773438 42.242188 12.714844 41.910156 12.714844 C 40.660156 12.714844 40.367188 13.378906 40.367188 13.808594 C 40.367188 14.082031 40.484375 14.316406 40.699219 14.492188 C 41.03125 14.765625 41.363281 14.824219 41.910156 14.921875 C 42.339844 15 43.042969 15.117188 43.042969 15.703125 C 43.042969 16.035156 42.808594 16.445312 41.96875 16.445312 C 41.128906 16.445312 40.835938 15.898438 40.679688 15.3125 C 40.640625 15.195312 40.640625 15.15625 40.523438 15.15625 C 40.367188 15.15625 40.367188 15.214844 40.367188 15.390625 L 40.367188 16.464844 C 40.367188 16.601562 40.367188 16.679688 40.484375 16.679688 C 40.5625 16.679688 40.738281 16.503906 40.914062 16.308594 C 41.285156 16.679688 41.753906 16.679688 41.96875 16.679688 C 43.101562 16.679688 43.53125 16.074219 43.53125 15.46875 Z M 43.53125 15.46875 "/>
<path style=" stroke:none;fill-rule:nonzero;fill:rgb(0%,0%,100%);fill-opacity:1;" d="M 49 14.726562 C 49 13.652344 48.121094 12.753906 47.007812 12.753906 C 46.519531 12.753906 46.011719 12.949219 45.660156 13.300781 L 45.660156 12.753906 L 44.351562 12.851562 L 44.351562 13.164062 C 44.957031 13.164062 44.996094 13.222656 44.996094 13.574219 L 44.996094 17.597656 C 44.996094 17.96875 44.917969 17.96875 44.351562 17.96875 L 44.351562 18.300781 C 44.351562 18.300781 44.976562 18.261719 45.347656 18.261719 C 45.660156 18.261719 46.265625 18.28125 46.34375 18.300781 L 46.34375 17.96875 C 45.777344 17.96875 45.699219 17.96875 45.699219 17.597656 L 45.699219 16.191406 C 45.738281 16.230469 46.148438 16.679688 46.871094 16.679688 C 48.023438 16.679688 49 15.820312 49 14.726562 Z M 48.21875 14.726562 C 48.21875 15.722656 47.554688 16.445312 46.832031 16.445312 C 46.050781 16.445312 45.71875 15.78125 45.699219 15.722656 L 45.699219 13.691406 C 45.953125 13.261719 46.460938 13.046875 46.910156 13.046875 C 47.652344 13.046875 48.21875 13.808594 48.21875 14.726562 Z M 48.21875 14.726562 "/>
<path style=" stroke:none;fill-rule:nonzero;fill:rgb(0%,0%,100%);fill-opacity:1;" d="M 54.167969 15.820312 L 54.167969 15.332031 L 53.855469 15.332031 L 53.855469 15.800781 C 53.855469 15.898438 53.855469 16.308594 53.542969 16.308594 C 53.210938 16.308594 53.210938 15.898438 53.210938 15.800781 L 53.210938 14.257812 C 53.210938 13.808594 53.210938 13.476562 52.820312 13.144531 C 52.46875 12.851562 52.039062 12.714844 51.53125 12.714844 C 50.710938 12.714844 50.125 13.027344 50.125 13.554688 C 50.125 13.847656 50.300781 13.984375 50.535156 13.984375 C 50.769531 13.984375 50.945312 13.808594 50.945312 13.574219 C 50.945312 13.4375 50.867188 13.242188 50.632812 13.183594 C 50.945312 12.96875 51.453125 12.96875 51.511719 12.96875 C 52 12.96875 52.527344 13.28125 52.527344 14.023438 L 52.527344 14.277344 C 52.058594 14.296875 51.472656 14.335938 50.847656 14.570312 C 50.066406 14.84375 49.8125 15.332031 49.8125 15.722656 C 49.8125 16.464844 50.710938 16.679688 51.335938 16.679688 C 52.039062 16.679688 52.449219 16.289062 52.625 15.957031 C 52.664062 16.308594 52.898438 16.640625 53.289062 16.640625 C 53.289062 16.640625 54.167969 16.640625 54.167969 15.820312 Z M 52.527344 15.371094 C 52.527344 16.210938 51.804688 16.445312 51.414062 16.445312 C 50.964844 16.445312 50.554688 16.152344 50.554688 15.722656 C 50.554688 15.234375 50.964844 14.570312 52.527344 14.511719 L 52.527344 15.371094 Z M 52.527344 15.371094 "/>
<path style=" stroke:none;fill-rule:nonzero;fill:rgb(0%,0%,100%);fill-opacity:1;" d="M 58.46875 15.546875 C 58.46875 15.449219 58.351562 15.449219 58.3125 15.449219 C 58.195312 15.449219 58.195312 15.46875 58.15625 15.605469 C 57.960938 16.132812 57.492188 16.40625 56.964844 16.40625 C 56.359375 16.40625 55.578125 15.957031 55.578125 14.707031 C 55.578125 13.613281 56.125 12.988281 56.925781 12.988281 C 57.042969 12.988281 57.453125 12.988281 57.765625 13.125 C 57.609375 13.203125 57.53125 13.339844 57.53125 13.515625 C 57.53125 13.75 57.6875 13.925781 57.941406 13.925781 C 58.175781 13.925781 58.351562 13.769531 58.351562 13.496094 C 58.351562 12.714844 57.140625 12.714844 56.90625 12.714844 C 55.597656 12.714844 54.796875 13.710938 54.796875 14.726562 C 54.796875 15.820312 55.714844 16.679688 56.867188 16.679688 C 58.15625 16.679688 58.46875 15.664062 58.46875 15.546875 Z M 58.46875 15.546875 "/>
<path style=" stroke:none;fill-rule:nonzero;fill:rgb(0%,0%,100%);fill-opacity:1;" d="M 62.898438 15.546875 C 62.898438 15.527344 62.878906 15.429688 62.742188 15.429688 C 62.625 15.429688 62.605469 15.488281 62.585938 15.566406 C 62.3125 16.269531 61.648438 16.40625 61.335938 16.40625 C 60.925781 16.40625 60.535156 16.230469 60.28125 15.898438 C 59.949219 15.488281 59.949219 14.960938 59.949219 14.609375 L 62.644531 14.609375 C 62.839844 14.609375 62.898438 14.609375 62.898438 14.433594 C 62.898438 13.652344 62.46875 12.714844 61.160156 12.714844 C 60.027344 12.714844 59.148438 13.613281 59.148438 14.6875 C 59.148438 15.800781 60.125 16.679688 61.277344 16.679688 C 62.449219 16.679688 62.898438 15.742188 62.898438 15.546875 Z M 62.292969 14.394531 L 59.949219 14.394531 C 60.046875 13.164062 60.828125 12.96875 61.160156 12.96875 C 62.234375 12.96875 62.273438 14.179688 62.292969 14.394531 Z M 62.292969 14.394531 "/>
<path style=" stroke:none;fill-rule:nonzero;fill:rgb(0%,0%,100%);fill-opacity:1;" d="M 71.207031 14.746094 C 71.207031 13.652344 70.269531 12.714844 69.078125 12.714844 C 67.867188 12.714844 66.929688 13.652344 66.929688 14.746094 C 66.929688 15.820312 67.886719 16.679688 69.078125 16.679688 C 70.25 16.679688 71.207031 15.820312 71.207031 14.746094 Z M 70.40625 14.667969 C 70.40625 15.078125 70.386719 15.546875 70.132812 15.898438 C 69.898438 16.230469 69.507812 16.40625 69.078125 16.40625 C 68.746094 16.40625 68.277344 16.308594 67.984375 15.878906 C 67.75 15.527344 67.730469 15.078125 67.730469 14.667969 C 67.730469 14.296875 67.730469 13.769531 68.042969 13.398438 C 68.257812 13.144531 68.628906 12.96875 69.078125 12.96875 C 69.585938 12.96875 69.957031 13.203125 70.152344 13.476562 C 70.386719 13.808594 70.40625 14.257812 70.40625 14.667969 Z M 70.40625 14.667969 "/>
<path style=" stroke:none;fill-rule:nonzero;fill:rgb(0%,0%,100%);fill-opacity:1;" d="M 76.640625 14.726562 C 76.640625 13.652344 75.761719 12.753906 74.609375 12.753906 C 74.082031 12.753906 73.613281 12.96875 73.300781 13.28125 L 73.300781 10.546875 L 71.992188 10.644531 L 71.992188 10.957031 C 72.578125 10.957031 72.636719 11.035156 72.636719 11.464844 L 72.636719 16.601562 L 72.929688 16.601562 L 73.242188 16.074219 C 73.574219 16.503906 74.0625 16.679688 74.511719 16.679688 C 75.664062 16.679688 76.640625 15.820312 76.640625 14.726562 Z M 75.859375 14.707031 C 75.859375 14.902344 75.859375 15.566406 75.507812 15.976562 C 75.15625 16.367188 74.726562 16.445312 74.472656 16.445312 C 73.769531 16.445312 73.417969 15.898438 73.339844 15.722656 L 73.339844 13.691406 C 73.574219 13.28125 74.042969 13.007812 74.570312 13.007812 C 75.058594 13.007812 75.410156 13.28125 75.585938 13.535156 C 75.761719 13.789062 75.859375 14.140625 75.859375 14.707031 Z M 75.859375 14.707031 "/>
<path style=" stroke:none;fill-rule:nonzero;fill:rgb(0%,0%,100%);fill-opacity:1;" d="M 79.441406 17.011719 L 79.441406 12.753906 L 78.074219 12.851562 L 78.074219 13.164062 C 78.71875 13.164062 78.796875 13.222656 78.796875 13.652344 L 78.796875 17.011719 C 78.796875 17.34375 78.71875 18.125 78.132812 18.125 C 78.113281 18.125 77.898438 18.125 77.703125 18.046875 C 77.722656 18.046875 77.917969 17.929688 77.917969 17.675781 C 77.917969 17.441406 77.742188 17.265625 77.507812 17.265625 C 77.253906 17.265625 77.097656 17.441406 77.097656 17.675781 C 77.097656 18.144531 77.625 18.378906 78.152344 18.378906 C 78.855469 18.378906 79.441406 17.832031 79.441406 17.011719 Z M 79.441406 11.367188 C 79.441406 11.074219 79.226562 10.859375 78.953125 10.859375 C 78.660156 10.859375 78.464844 11.09375 78.464844 11.347656 C 78.464844 11.621094 78.679688 11.855469 78.953125 11.855469 C 79.246094 11.855469 79.441406 11.601562 79.441406 11.367188 Z M 79.441406 11.367188 "/>
<path style=" stroke:none;fill-rule:nonzero;fill:rgb(0%,0%,100%);fill-opacity:1;" d="M 84.503906 15.546875 C 84.503906 15.527344 84.484375 15.429688 84.347656 15.429688 C 84.230469 15.429688 84.210938 15.488281 84.191406 15.566406 C 83.917969 16.269531 83.253906 16.40625 82.941406 16.40625 C 82.53125 16.40625 82.140625 16.230469 81.886719 15.898438 C 81.554688 15.488281 81.554688 14.960938 81.554688 14.609375 L 84.25 14.609375 C 84.445312 14.609375 84.503906 14.609375 84.503906 14.433594 C 84.503906 13.652344 84.074219 12.714844 82.765625 12.714844 C 81.632812 12.714844 80.753906 13.613281 80.753906 14.6875 C 80.753906 15.800781 81.730469 16.679688 82.882812 16.679688 C 84.054688 16.679688 84.503906 15.742188 84.503906 15.546875 Z M 83.898438 14.394531 L 81.554688 14.394531 C 81.652344 13.164062 82.433594 12.96875 82.765625 12.96875 C 83.839844 12.96875 83.878906 14.179688 83.898438 14.394531 Z M 83.898438 14.394531 "/>
<path style=" stroke:none;fill-rule:nonzero;fill:rgb(0%,0%,100%);fill-opacity:1;" d="M 88.109375 15.507812 L 88.109375 15.019531 L 87.816406 15.019531 L 87.816406 15.488281 C 87.816406 16.09375 87.542969 16.40625 87.191406 16.40625 C 86.605469 16.40625 86.605469 15.683594 86.605469 15.527344 L 86.605469 13.164062 L 87.953125 13.164062 L 87.953125 12.851562 L 86.605469 12.851562 L 86.605469 11.25 L 86.292969 11.25 C 86.292969 12.03125 85.941406 12.890625 85.101562 12.910156 L 85.101562 13.164062 L 85.902344 13.164062 L 85.902344 15.507812 C 85.902344 16.484375 86.644531 16.679688 87.132812 16.679688 C 87.71875 16.679688 88.109375 16.191406 88.109375 15.507812 Z M 88.109375 15.507812 "/>
<path style=" stroke:none;fill-rule:nonzero;fill:rgb(0%,0%,100%);fill-opacity:1;" d="M 95.648438 13.320312 C 95.648438 13.027344 95.355469 12.753906 94.945312 12.753906 C 94.515625 12.753906 94.027344 13.027344 93.773438 13.691406 L 93.773438 13.691406 L 93.773438 12.753906 L 92.523438 12.851562 L 92.523438 13.164062 C 93.109375 13.164062 93.167969 13.222656 93.167969 13.652344 L 93.167969 15.917969 C 93.167969 16.289062 93.089844 16.289062 92.523438 16.289062 L 92.523438 16.601562 C 92.5625 16.601562 93.148438 16.5625 93.519531 16.5625 L 94.652344 16.601562 L 94.652344 16.289062 L 94.476562 16.289062 C 93.832031 16.289062 93.832031 16.191406 93.832031 15.898438 L 93.832031 14.609375 C 93.832031 13.886719 94.164062 13.007812 95.003906 13.007812 C 94.925781 13.066406 94.847656 13.183594 94.847656 13.320312 C 94.847656 13.613281 95.082031 13.710938 95.238281 13.710938 C 95.453125 13.710938 95.648438 13.574219 95.648438 13.320312 Z M 95.648438 13.320312 "/>
<path style=" stroke:none;fill-rule:nonzero;fill:rgb(0%,0%,100%);fill-opacity:1;" d="M 100.070312 15.546875 C 100.070312 15.527344 100.050781 15.429688 99.914062 15.429688 C 99.796875 15.429688 99.777344 15.488281 99.757812 15.566406 C 99.484375 16.269531 98.820312 16.40625 98.507812 16.40625 C 98.097656 16.40625 97.707031 16.230469 97.453125 15.898438 C 97.121094 15.488281 97.121094 14.960938 97.121094 14.609375 L 99.816406 14.609375 C 100.011719 14.609375 100.070312 14.609375 100.070312 14.433594 C 100.070312 13.652344 99.640625 12.714844 98.332031 12.714844 C 97.199219 12.714844 96.320312 13.613281 96.320312 14.6875 C 96.320312 15.800781 97.296875 16.679688 98.449219 16.679688 C 99.621094 16.679688 100.070312 15.742188 100.070312 15.546875 Z M 99.464844 14.394531 L 97.121094 14.394531 C 97.21875 13.164062 98 12.96875 98.332031 12.96875 C 99.40625 12.96875 99.445312 14.179688 99.464844 14.394531 Z M 99.386719 10.878906 C 99.386719 10.722656 99.25 10.527344 99.035156 10.527344 C 98.898438 10.527344 98.820312 10.605469 98.742188 10.703125 L 97.609375 11.972656 L 97.804688 12.1875 L 99.171875 11.191406 C 99.308594 11.113281 99.386719 11.035156 99.386719 10.878906 Z M 99.386719 10.878906 "/>
<path style=" stroke:none;fill-rule:nonzero;fill:rgb(0%,0%,100%);fill-opacity:1;" d="M 104.496094 15.546875 C 104.496094 15.527344 104.476562 15.429688 104.339844 15.429688 C 104.222656 15.429688 104.203125 15.488281 104.183594 15.566406 C 103.910156 16.269531 103.246094 16.40625 102.933594 16.40625 C 102.523438 16.40625 102.132812 16.230469 101.878906 15.898438 C 101.546875 15.488281 101.546875 14.960938 101.546875 14.609375 L 104.242188 14.609375 C 104.4375 14.609375 104.496094 14.609375 104.496094 14.433594 C 104.496094 13.652344 104.066406 12.714844 102.757812 12.714844 C 101.625 12.714844 100.746094 13.613281 100.746094 14.6875 C 100.746094 15.800781 101.722656 16.679688 102.875 16.679688 C 104.046875 16.679688 104.496094 15.742188 104.496094 15.546875 Z M 103.890625 14.394531 L 101.546875 14.394531 C 101.644531 13.164062 102.425781 12.96875 102.757812 12.96875 C 103.832031 12.96875 103.871094 14.179688 103.890625 14.394531 Z M 103.890625 14.394531 "/>
<path style=" stroke:none;fill-rule:nonzero;fill:rgb(0%,0%,100%);fill-opacity:1;" d="M 107.285156 16.601562 L 107.285156 16.289062 C 106.71875 16.289062 106.640625 16.289062 106.640625 15.917969 L 106.640625 10.546875 L 105.332031 10.644531 L 105.332031 10.957031 C 105.917969 10.957031 105.976562 11.035156 105.976562 11.445312 L 105.976562 15.917969 C 105.976562 16.289062 105.898438 16.289062 105.332031 16.289062 L 105.332031 16.601562 C 105.332031 16.601562 105.957031 16.5625 106.308594 16.5625 C 106.640625 16.5625 106.953125 16.582031 107.285156 16.601562 Z M 107.285156 16.601562 "/>
<path style="fill:none;stroke-width:1.59404;stroke-linecap:butt;stroke-linejoin:miter;stroke:rgb(0%,100%,0%);stroke-opacity:1;stroke-miterlimit:10;" d="M -144.567875 18.071875 L 36.557125 18.071875 " transform="matrix(1.25,0,0,-1.25,187.9325,59.625)"/>
<path style=" stroke:none;fill-rule:nonzero;fill:rgb(0%,100%,0%);fill-opacity:1;" d="M 242.148438 37.035156 C 239.625 36.5625 235.523438 35.140625 232.679688 33.484375 L 232.679688 40.585938 C 235.523438 38.929688 239.625 37.507812 242.148438 37.035156 "/>
<path style=" stroke:none;fill-rule:nonzero;fill:rgb(100%,100%,100%);fill-opacity:1;" d="M 71.605469 45.039062 L 177.765625 45.039062 L 177.765625 29.03125 L 71.605469 29.03125 L 71.605469 45.039062 Z M 71.605469 45.039062 "/>
<path style=" stroke:none;fill-rule:nonzero;fill:rgb(0%,100%,0%);fill-opacity:1;" d="M 82.105469 36.90625 L 81.8125 36.90625 C 81.578125 38.214844 81.382812 38.878906 79.761719 38.878906 L 78.394531 38.878906 C 77.984375 38.878906 77.964844 38.800781 77.964844 38.546875 L 77.964844 36.28125 L 78.84375 36.28125 C 79.722656 36.28125 79.859375 36.535156 79.859375 37.296875 L 80.152344 37.296875 L 80.152344 34.933594 L 79.859375 34.933594 C 79.859375 35.695312 79.722656 35.96875 78.84375 35.96875 L 77.964844 35.96875 L 77.964844 33.9375 C 77.964844 33.664062 77.984375 33.585938 78.394531 33.585938 L 79.703125 33.585938 C 81.128906 33.585938 81.382812 34.054688 81.539062 35.285156 L 81.832031 35.285156 L 81.558594 33.273438 L 76.246094 33.273438 L 76.246094 33.585938 L 76.460938 33.585938 C 77.125 33.585938 77.144531 33.683594 77.144531 33.976562 L 77.144531 38.488281 C 77.144531 38.78125 77.125 38.878906 76.460938 38.878906 L 76.246094 38.878906 L 76.246094 39.191406 L 81.714844 39.191406 L 82.105469 36.90625 Z M 82.105469 36.90625 "/>
<path style=" stroke:none;fill-rule:nonzero;fill:rgb(0%,100%,0%);fill-opacity:1;" d="M 86.003906 38.058594 C 86.003906 37.726562 85.847656 37.453125 85.613281 37.257812 C 85.28125 36.945312 84.890625 36.867188 84.578125 36.828125 C 83.894531 36.691406 83.328125 36.59375 83.328125 36.125 C 83.328125 35.851562 83.5625 35.519531 84.382812 35.519531 C 85.398438 35.519531 85.4375 36.222656 85.457031 36.476562 C 85.457031 36.574219 85.574219 36.574219 85.59375 36.574219 C 85.75 36.574219 85.75 36.515625 85.75 36.339844 L 85.75 35.539062 C 85.75 35.382812 85.75 35.304688 85.632812 35.304688 C 85.59375 35.304688 85.574219 35.304688 85.457031 35.402344 C 85.4375 35.421875 85.359375 35.5 85.300781 35.539062 C 85.027344 35.363281 84.714844 35.304688 84.382812 35.304688 C 83.132812 35.304688 82.839844 35.96875 82.839844 36.398438 C 82.839844 36.671875 82.957031 36.90625 83.171875 37.082031 C 83.503906 37.355469 83.835938 37.414062 84.382812 37.511719 C 84.8125 37.589844 85.515625 37.707031 85.515625 38.292969 C 85.515625 38.625 85.28125 39.035156 84.441406 39.035156 C 83.601562 39.035156 83.308594 38.488281 83.152344 37.902344 C 83.113281 37.785156 83.113281 37.746094 82.996094 37.746094 C 82.839844 37.746094 82.839844 37.804688 82.839844 37.980469 L 82.839844 39.054688 C 82.839844 39.191406 82.839844 39.269531 82.957031 39.269531 C 83.035156 39.269531 83.210938 39.09375 83.386719 38.898438 C 83.757812 39.269531 84.226562 39.269531 84.441406 39.269531 C 85.574219 39.269531 86.003906 38.664062 86.003906 38.058594 Z M 86.003906 38.058594 "/>
<path style=" stroke:none;fill-rule:nonzero;fill:rgb(0%,100%,0%);fill-opacity:1;" d="M 91.472656 37.316406 C 91.472656 36.242188 90.59375 35.34375 89.480469 35.34375 C 88.992188 35.34375 88.484375 35.539062 88.132812 35.890625 L 88.132812 35.34375 L 86.824219 35.441406 L 86.824219 35.753906 C 87.429688 35.753906 87.46875 35.8125 87.46875 36.164062 L 87.46875 40.1875 C 87.46875 40.558594 87.390625 40.558594 86.824219 40.558594 L 86.824219 40.890625 C 86.824219 40.890625 87.449219 40.851562 87.820312 40.851562 C 88.132812 40.851562 88.738281 40.871094 88.816406 40.890625 L 88.816406 40.558594 C 88.25 40.558594 88.171875 40.558594 88.171875 40.1875 L 88.171875 38.78125 C 88.210938 38.820312 88.621094 39.269531 89.34375 39.269531 C 90.496094 39.269531 91.472656 38.410156 91.472656 37.316406 Z M 90.691406 37.316406 C 90.691406 38.3125 90.027344 39.035156 89.304688 39.035156 C 88.523438 39.035156 88.191406 38.371094 88.171875 38.3125 L 88.171875 36.28125 C 88.425781 35.851562 88.933594 35.636719 89.382812 35.636719 C 90.125 35.636719 90.691406 36.398438 90.691406 37.316406 Z M 90.691406 37.316406 "/>
<path style=" stroke:none;fill-rule:nonzero;fill:rgb(0%,100%,0%);fill-opacity:1;" d="M 96.640625 38.410156 L 96.640625 37.921875 L 96.328125 37.921875 L 96.328125 38.390625 C 96.328125 38.488281 96.328125 38.898438 96.015625 38.898438 C 95.683594 38.898438 95.683594 38.488281 95.683594 38.390625 L 95.683594 36.847656 C 95.683594 36.398438 95.683594 36.066406 95.292969 35.734375 C 94.941406 35.441406 94.511719 35.304688 94.003906 35.304688 C 93.183594 35.304688 92.597656 35.617188 92.597656 36.144531 C 92.597656 36.4375 92.773438 36.574219 93.007812 36.574219 C 93.242188 36.574219 93.417969 36.398438 93.417969 36.164062 C 93.417969 36.027344 93.339844 35.832031 93.105469 35.773438 C 93.417969 35.558594 93.925781 35.558594 93.984375 35.558594 C 94.472656 35.558594 95 35.871094 95 36.613281 L 95 36.867188 C 94.53125 36.886719 93.945312 36.925781 93.320312 37.160156 C 92.539062 37.433594 92.285156 37.921875 92.285156 38.3125 C 92.285156 39.054688 93.183594 39.269531 93.808594 39.269531 C 94.511719 39.269531 94.921875 38.878906 95.097656 38.546875 C 95.136719 38.898438 95.371094 39.230469 95.761719 39.230469 C 95.761719 39.230469 96.640625 39.230469 96.640625 38.410156 Z M 95 37.960938 C 95 38.800781 94.277344 39.035156 93.886719 39.035156 C 93.4375 39.035156 93.027344 38.742188 93.027344 38.3125 C 93.027344 37.824219 93.4375 37.160156 95 37.101562 L 95 37.960938 Z M 95 37.960938 "/>
<path style=" stroke:none;fill-rule:nonzero;fill:rgb(0%,100%,0%);fill-opacity:1;" d="M 100.941406 38.136719 C 100.941406 38.039062 100.824219 38.039062 100.785156 38.039062 C 100.667969 38.039062 100.667969 38.058594 100.628906 38.195312 C 100.433594 38.722656 99.964844 38.996094 99.4375 38.996094 C 98.832031 38.996094 98.050781 38.546875 98.050781 37.296875 C 98.050781 36.203125 98.597656 35.578125 99.398438 35.578125 C 99.515625 35.578125 99.925781 35.578125 100.238281 35.714844 C 100.082031 35.792969 100.003906 35.929688 100.003906 36.105469 C 100.003906 36.339844 100.160156 36.515625 100.414062 36.515625 C 100.648438 36.515625 100.824219 36.359375 100.824219 36.085938 C 100.824219 35.304688 99.613281 35.304688 99.378906 35.304688 C 98.070312 35.304688 97.269531 36.300781 97.269531 37.316406 C 97.269531 38.410156 98.1875 39.269531 99.339844 39.269531 C 100.628906 39.269531 100.941406 38.253906 100.941406 38.136719 Z M 100.941406 38.136719 "/>
<path style=" stroke:none;fill-rule:nonzero;fill:rgb(0%,100%,0%);fill-opacity:1;" d="M 105.371094 38.136719 C 105.371094 38.117188 105.351562 38.019531 105.214844 38.019531 C 105.097656 38.019531 105.078125 38.078125 105.058594 38.15625 C 104.785156 38.859375 104.121094 38.996094 103.808594 38.996094 C 103.398438 38.996094 103.007812 38.820312 102.753906 38.488281 C 102.421875 38.078125 102.421875 37.550781 102.421875 37.199219 L 105.117188 37.199219 C 105.3125 37.199219 105.371094 37.199219 105.371094 37.023438 C 105.371094 36.242188 104.941406 35.304688 103.632812 35.304688 C 102.5 35.304688 101.621094 36.203125 101.621094 37.277344 C 101.621094 38.390625 102.597656 39.269531 103.75 39.269531 C 104.921875 39.269531 105.371094 38.332031 105.371094 38.136719 Z M 104.765625 36.984375 L 102.421875 36.984375 C 102.519531 35.753906 103.300781 35.558594 103.632812 35.558594 C 104.707031 35.558594 104.746094 36.769531 104.765625 36.984375 Z M 104.765625 36.984375 "/>
<path style=" stroke:none;fill-rule:nonzero;fill:rgb(0%,100%,0%);fill-opacity:1;" d="M 111.453125 39.191406 L 111.453125 38.878906 C 110.945312 38.878906 110.867188 38.878906 110.867188 38.507812 L 110.867188 35.34375 L 109.578125 35.441406 L 109.578125 35.753906 C 110.125 35.753906 110.203125 35.8125 110.203125 36.242188 L 110.203125 38.507812 C 110.203125 38.878906 110.125 38.878906 109.558594 38.878906 L 109.558594 39.191406 C 109.558594 39.191406 110.183594 39.152344 110.535156 39.152344 C 110.847656 39.152344 111.160156 39.171875 111.453125 39.191406 Z M 110.984375 33.957031 C 110.984375 33.664062 110.769531 33.449219 110.476562 33.449219 C 110.183594 33.449219 109.988281 33.683594 109.988281 33.9375 C 109.988281 34.210938 110.203125 34.445312 110.476562 34.445312 C 110.769531 34.445312 110.984375 34.191406 110.984375 33.957031 Z M 110.984375 33.957031 "/>
<path style=" stroke:none;fill-rule:nonzero;fill:rgb(0%,100%,0%);fill-opacity:1;" d="M 119.703125 39.191406 L 119.703125 38.878906 C 119.136719 38.878906 119.058594 38.878906 119.058594 38.507812 L 119.058594 36.554688 C 119.058594 35.792969 118.667969 35.34375 117.75 35.34375 C 117.046875 35.34375 116.578125 35.714844 116.34375 36.164062 C 116.167969 35.539062 115.699219 35.34375 115.074219 35.34375 C 114.351562 35.34375 113.902344 35.734375 113.648438 36.203125 L 113.648438 36.203125 L 113.648438 35.34375 L 112.359375 35.441406 L 112.359375 35.753906 C 112.945312 35.753906 113.023438 35.8125 113.023438 36.242188 L 113.023438 38.507812 C 113.023438 38.878906 112.925781 38.878906 112.359375 38.878906 L 112.359375 39.191406 C 112.359375 39.191406 112.984375 39.152344 113.355469 39.152344 C 113.667969 39.152344 114.273438 39.191406 114.351562 39.191406 L 114.351562 38.878906 C 113.785156 38.878906 113.707031 38.878906 113.707031 38.507812 L 113.707031 36.925781 C 113.707031 36.027344 114.429688 35.597656 114.996094 35.597656 C 115.601562 35.597656 115.679688 36.066406 115.679688 36.515625 L 115.679688 38.507812 C 115.679688 38.878906 115.601562 38.878906 115.035156 38.878906 L 115.035156 39.191406 C 115.035156 39.191406 115.660156 39.152344 116.03125 39.152344 C 116.34375 39.152344 116.949219 39.191406 117.027344 39.191406 L 117.027344 38.878906 C 116.460938 38.878906 116.382812 38.878906 116.382812 38.507812 L 116.382812 36.925781 C 116.382812 36.027344 117.105469 35.597656 117.671875 35.597656 C 118.277344 35.597656 118.355469 36.066406 118.355469 36.515625 L 118.355469 38.507812 C 118.355469 38.878906 118.277344 38.878906 117.710938 38.878906 L 117.710938 39.191406 C 117.710938 39.191406 118.335938 39.152344 118.707031 39.152344 C 119.019531 39.152344 119.625 39.191406 119.703125 39.191406 Z M 119.703125 39.191406 "/>
<path style=" stroke:none;fill-rule:nonzero;fill:rgb(0%,100%,0%);fill-opacity:1;" d="M 124.816406 38.410156 L 124.816406 37.921875 L 124.503906 37.921875 L 124.503906 38.390625 C 124.503906 38.488281 124.503906 38.898438 124.191406 38.898438 C 123.859375 38.898438 123.859375 38.488281 123.859375 38.390625 L 123.859375 36.847656 C 123.859375 36.398438 123.859375 36.066406 123.46875 35.734375 C 123.117188 35.441406 122.6875 35.304688 122.179688 35.304688 C 121.359375 35.304688 120.773438 35.617188 120.773438 36.144531 C 120.773438 36.4375 120.949219 36.574219 121.183594 36.574219 C 121.417969 36.574219 121.59375 36.398438 121.59375 36.164062 C 121.59375 36.027344 121.515625 35.832031 121.28125 35.773438 C 121.59375 35.558594 122.101562 35.558594 122.160156 35.558594 C 122.648438 35.558594 123.175781 35.871094 123.175781 36.613281 L 123.175781 36.867188 C 122.707031 36.886719 122.121094 36.925781 121.496094 37.160156 C 120.714844 37.433594 120.460938 37.921875 120.460938 38.3125 C 120.460938 39.054688 121.359375 39.269531 121.984375 39.269531 C 122.6875 39.269531 123.097656 38.878906 123.273438 38.546875 C 123.3125 38.898438 123.546875 39.230469 123.9375 39.230469 C 123.9375 39.230469 124.816406 39.230469 124.816406 38.410156 Z M 123.175781 37.960938 C 123.175781 38.800781 122.453125 39.035156 122.0625 39.035156 C 121.613281 39.035156 121.203125 38.742188 121.203125 38.3125 C 121.203125 37.824219 121.613281 37.160156 123.175781 37.101562 L 123.175781 37.960938 Z M 123.175781 37.960938 "/>
<path style=" stroke:none;fill-rule:nonzero;fill:rgb(0%,100%,0%);fill-opacity:1;" d="M 129.78125 35.714844 C 129.78125 35.5 129.625 35.265625 129.273438 35.265625 C 129.136719 35.265625 128.667969 35.285156 128.257812 35.65625 C 128.003906 35.480469 127.632812 35.34375 127.242188 35.34375 C 126.34375 35.34375 125.699219 35.949219 125.699219 36.632812 C 125.699219 36.964844 125.875 37.277344 126.109375 37.511719 C 126.050781 37.589844 125.855469 37.882812 125.855469 38.214844 C 125.855469 38.332031 125.875 38.742188 126.226562 38.996094 C 125.835938 39.113281 125.367188 39.40625 125.367188 39.855469 C 125.367188 40.5 126.324219 40.96875 127.515625 40.96875 C 128.609375 40.96875 129.644531 40.539062 129.644531 39.835938 C 129.644531 39.582031 129.546875 39.113281 129.058594 38.859375 C 128.550781 38.585938 128.023438 38.585938 127.183594 38.585938 C 126.988281 38.585938 126.675781 38.585938 126.617188 38.566406 C 126.324219 38.507812 126.167969 38.253906 126.167969 38 C 126.167969 37.785156 126.246094 37.707031 126.285156 37.648438 C 126.421875 37.726562 126.734375 37.902344 127.242188 37.902344 C 128.140625 37.902344 128.785156 37.316406 128.785156 36.632812 C 128.785156 36.28125 128.628906 36.027344 128.414062 35.792969 C 128.824219 35.519531 129.15625 35.5 129.3125 35.5 C 129.273438 35.539062 129.234375 35.578125 129.234375 35.714844 C 129.234375 35.890625 129.351562 35.988281 129.507812 35.988281 C 129.625 35.988281 129.78125 35.910156 129.78125 35.714844 Z M 128.101562 36.632812 C 128.101562 36.769531 128.101562 37.121094 127.925781 37.335938 C 127.789062 37.492188 127.554688 37.648438 127.242188 37.648438 C 126.402344 37.648438 126.402344 36.808594 126.402344 36.632812 C 126.402344 36.496094 126.402344 36.144531 126.558594 35.910156 C 126.695312 35.773438 126.929688 35.617188 127.242188 35.617188 C 128.101562 35.617188 128.101562 36.457031 128.101562 36.632812 Z M 129.117188 39.855469 C 129.117188 40.324219 128.414062 40.714844 127.515625 40.714844 C 126.597656 40.714844 125.914062 40.304688 125.914062 39.855469 C 125.914062 39.542969 126.1875 39.171875 126.734375 39.171875 L 127.242188 39.171875 C 128.023438 39.171875 129.117188 39.171875 129.117188 39.855469 Z M 129.117188 39.855469 "/>
<path style=" stroke:none;fill-rule:nonzero;fill:rgb(0%,100%,0%);fill-opacity:1;" d="M 134.082031 38.136719 C 134.082031 38.117188 134.0625 38.019531 133.925781 38.019531 C 133.808594 38.019531 133.789062 38.078125 133.769531 38.15625 C 133.496094 38.859375 132.832031 38.996094 132.519531 38.996094 C 132.109375 38.996094 131.71875 38.820312 131.464844 38.488281 C 131.132812 38.078125 131.132812 37.550781 131.132812 37.199219 L 133.828125 37.199219 C 134.023438 37.199219 134.082031 37.199219 134.082031 37.023438 C 134.082031 36.242188 133.652344 35.304688 132.34375 35.304688 C 131.210938 35.304688 130.332031 36.203125 130.332031 37.277344 C 130.332031 38.390625 131.308594 39.269531 132.460938 39.269531 C 133.632812 39.269531 134.082031 38.332031 134.082031 38.136719 Z M 133.476562 36.984375 L 131.132812 36.984375 C 131.230469 35.753906 132.011719 35.558594 132.34375 35.558594 C 133.417969 35.558594 133.457031 36.769531 133.476562 36.984375 Z M 133.476562 36.984375 "/>
<path style=" stroke:none;fill-rule:nonzero;fill:rgb(0%,100%,0%);fill-opacity:1;" d="M 142.722656 35.753906 L 142.722656 35.441406 C 142.507812 35.460938 142.292969 35.480469 142.058594 35.480469 C 141.824219 35.480469 141.511719 35.460938 141.277344 35.441406 L 141.277344 35.753906 C 141.648438 35.773438 141.648438 36.046875 141.648438 36.085938 C 141.648438 36.125 141.628906 36.203125 141.570312 36.339844 L 140.59375 38.488281 L 139.5 36.125 C 139.5 36.125 139.460938 36.007812 139.460938 35.949219 C 139.460938 35.753906 139.753906 35.753906 139.890625 35.753906 L 139.890625 35.441406 C 139.890625 35.441406 139.265625 35.480469 138.914062 35.480469 C 138.640625 35.480469 138.308594 35.460938 138.054688 35.441406 L 138.054688 35.753906 C 138.523438 35.753906 138.640625 35.773438 138.757812 36.066406 L 140.144531 39.09375 C 140.183594 39.191406 140.242188 39.269531 140.378906 39.269531 C 140.554688 39.269531 140.59375 39.191406 140.632812 39.113281 L 141.902344 36.28125 C 142.15625 35.753906 142.585938 35.753906 142.722656 35.753906 Z M 142.722656 35.753906 "/>
<path style=" stroke:none;fill-rule:nonzero;fill:rgb(0%,100%,0%);fill-opacity:1;" d="M 145.398438 39.191406 L 145.398438 38.878906 C 144.890625 38.878906 144.8125 38.878906 144.8125 38.507812 L 144.8125 35.34375 L 143.523438 35.441406 L 143.523438 35.753906 C 144.070312 35.753906 144.148438 35.8125 144.148438 36.242188 L 144.148438 38.507812 C 144.148438 38.878906 144.070312 38.878906 143.503906 38.878906 L 143.503906 39.191406 C 143.503906 39.191406 144.128906 39.152344 144.480469 39.152344 C 144.792969 39.152344 145.105469 39.171875 145.398438 39.191406 Z M 144.929688 33.957031 C 144.929688 33.664062 144.714844 33.449219 144.421875 33.449219 C 144.128906 33.449219 143.933594 33.683594 143.933594 33.9375 C 143.933594 34.210938 144.148438 34.445312 144.421875 34.445312 C 144.714844 34.445312 144.929688 34.191406 144.929688 33.957031 Z M 144.929688 33.957031 "/>
<path style=" stroke:none;fill-rule:nonzero;fill:rgb(0%,100%,0%);fill-opacity:1;" d="M 149.386719 35.910156 C 149.386719 35.617188 149.09375 35.34375 148.683594 35.34375 C 148.253906 35.34375 147.765625 35.617188 147.511719 36.28125 L 147.511719 36.28125 L 147.511719 35.34375 L 146.261719 35.441406 L 146.261719 35.753906 C 146.847656 35.753906 146.90625 35.8125 146.90625 36.242188 L 146.90625 38.507812 C 146.90625 38.878906 146.828125 38.878906 146.261719 38.878906 L 146.261719 39.191406 C 146.300781 39.191406 146.886719 39.152344 147.257812 39.152344 L 148.390625 39.191406 L 148.390625 38.878906 L 148.214844 38.878906 C 147.570312 38.878906 147.570312 38.78125 147.570312 38.488281 L 147.570312 37.199219 C 147.570312 36.476562 147.902344 35.597656 148.742188 35.597656 C 148.664062 35.65625 148.585938 35.773438 148.585938 35.910156 C 148.585938 36.203125 148.820312 36.300781 148.976562 36.300781 C 149.191406 36.300781 149.386719 36.164062 149.386719 35.910156 Z M 149.386719 35.910156 "/>
<path style=" stroke:none;fill-rule:nonzero;fill:rgb(0%,100%,0%);fill-opacity:1;" d="M 152.988281 38.097656 L 152.988281 37.609375 L 152.695312 37.609375 L 152.695312 38.078125 C 152.695312 38.683594 152.421875 38.996094 152.070312 38.996094 C 151.484375 38.996094 151.484375 38.273438 151.484375 38.117188 L 151.484375 35.753906 L 152.832031 35.753906 L 152.832031 35.441406 L 151.484375 35.441406 L 151.484375 33.839844 L 151.171875 33.839844 C 151.171875 34.621094 150.820312 35.480469 149.980469 35.5 L 149.980469 35.753906 L 150.78125 35.753906 L 150.78125 38.097656 C 150.78125 39.074219 151.523438 39.269531 152.011719 39.269531 C 152.597656 39.269531 152.988281 38.78125 152.988281 38.097656 Z M 152.988281 38.097656 "/>
<path style=" stroke:none;fill-rule:nonzero;fill:rgb(0%,100%,0%);fill-opacity:1;" d="M 158.753906 39.191406 L 158.753906 38.878906 C 158.167969 38.878906 158.109375 38.820312 158.109375 38.390625 L 158.109375 35.34375 L 156.761719 35.441406 L 156.761719 35.753906 C 157.347656 35.753906 157.40625 35.8125 157.40625 36.242188 L 157.40625 37.746094 C 157.40625 38.507812 156.917969 39.035156 156.253906 39.035156 C 155.472656 39.035156 155.433594 38.664062 155.433594 38.214844 L 155.433594 35.34375 L 154.085938 35.441406 L 154.085938 35.753906 C 154.75 35.753906 154.75 35.792969 154.75 36.554688 L 154.75 37.863281 C 154.75 38.46875 154.75 39.269531 156.195312 39.269531 C 156.390625 39.269531 157.015625 39.269531 157.445312 38.546875 L 157.445312 38.546875 L 157.445312 39.269531 L 158.753906 39.191406 Z M 158.753906 39.191406 "/>
<path style=" stroke:none;fill-rule:nonzero;fill:rgb(0%,100%,0%);fill-opacity:1;" d="M 163.199219 38.136719 C 163.199219 38.117188 163.179688 38.019531 163.042969 38.019531 C 162.925781 38.019531 162.90625 38.078125 162.886719 38.15625 C 162.613281 38.859375 161.949219 38.996094 161.636719 38.996094 C 161.226562 38.996094 160.835938 38.820312 160.582031 38.488281 C 160.25 38.078125 160.25 37.550781 160.25 37.199219 L 162.945312 37.199219 C 163.140625 37.199219 163.199219 37.199219 163.199219 37.023438 C 163.199219 36.242188 162.769531 35.304688 161.460938 35.304688 C 160.328125 35.304688 159.449219 36.203125 159.449219 37.277344 C 159.449219 38.390625 160.425781 39.269531 161.578125 39.269531 C 162.75 39.269531 163.199219 38.332031 163.199219 38.136719 Z M 162.59375 36.984375 L 160.25 36.984375 C 160.347656 35.753906 161.128906 35.558594 161.460938 35.558594 C 162.535156 35.558594 162.574219 36.769531 162.59375 36.984375 Z M 162.59375 36.984375 "/>
<path style=" stroke:none;fill-rule:nonzero;fill:rgb(0%,100%,0%);fill-opacity:1;" d="M 165.984375 39.191406 L 165.984375 38.878906 C 165.417969 38.878906 165.339844 38.878906 165.339844 38.507812 L 165.339844 33.136719 L 164.03125 33.234375 L 164.03125 33.546875 C 164.617188 33.546875 164.675781 33.625 164.675781 34.035156 L 164.675781 38.507812 C 164.675781 38.878906 164.597656 38.878906 164.03125 38.878906 L 164.03125 39.191406 C 164.03125 39.191406 164.65625 39.152344 165.007812 39.152344 C 165.339844 39.152344 165.652344 39.171875 165.984375 39.191406 Z M 165.984375 39.191406 "/>
<path style=" stroke:none;fill-rule:nonzero;fill:rgb(0%,100%,0%);fill-opacity:1;" d="M 168.804688 39.191406 L 168.804688 38.878906 C 168.238281 38.878906 168.160156 38.878906 168.160156 38.507812 L 168.160156 33.136719 L 166.851562 33.234375 L 166.851562 33.546875 C 167.4375 33.546875 167.496094 33.625 167.496094 34.035156 L 167.496094 38.507812 C 167.496094 38.878906 167.417969 38.878906 166.851562 38.878906 L 166.851562 39.191406 C 166.851562 39.191406 167.476562 39.152344 167.828125 39.152344 C 168.160156 39.152344 168.472656 39.171875 168.804688 39.191406 Z M 168.804688 39.191406 "/>
<path style=" stroke:none;fill-rule:nonzero;fill:rgb(0%,100%,0%);fill-opacity:1;" d="M 173.265625 38.136719 C 173.265625 38.117188 173.246094 38.019531 173.109375 38.019531 C 172.992188 38.019531 172.972656 38.078125 172.953125 38.15625 C 172.679688 38.859375 172.015625 38.996094 171.703125 38.996094 C 171.292969 38.996094 170.902344 38.820312 170.648438 38.488281 C 170.316406 38.078125 170.316406 37.550781 170.316406 37.199219 L 173.011719 37.199219 C 173.207031 37.199219 173.265625 37.199219 173.265625 37.023438 C 173.265625 36.242188 172.835938 35.304688 171.527344 35.304688 C 170.394531 35.304688 169.515625 36.203125 169.515625 37.277344 C 169.515625 38.390625 170.492188 39.269531 171.644531 39.269531 C 172.816406 39.269531 173.265625 38.332031 173.265625 38.136719 Z M 172.660156 36.984375 L 170.316406 36.984375 C 170.414062 35.753906 171.195312 35.558594 171.527344 35.558594 C 172.601562 35.558594 172.640625 36.769531 172.660156 36.984375 Z M 172.660156 36.984375 "/>
<path style="fill:none;stroke-width:1.59404;stroke-linecap:butt;stroke-linejoin:miter;stroke:rgb(100%,0%,0%);stroke-opacity:1;stroke-miterlimit:10;" d="M 144.5665 -18.06875 L -36.5585 -18.06875 " transform="matrix(1.25,0,0,-1.25,187.9325,59.625)"/>
<path style=" stroke:none;fill-rule:nonzero;fill:rgb(100%,0%,0%);fill-opacity:1;" d="M 133.71875 82.210938 C 136.246094 82.6875 140.34375 84.105469 143.183594 85.761719 L 143.183594 78.667969 C 140.34375 80.320312 136.246094 81.742188 133.71875 82.210938 "/>
<path style=" stroke:none;fill-rule:nonzero;fill:rgb(100%,100%,100%);fill-opacity:1;" d="M 203.335938 90.214844 L 299.027344 90.214844 L 299.027344 74.214844 L 203.335938 74.214844 L 203.335938 90.214844 Z M 203.335938 90.214844 "/>
<path style=" stroke:none;fill-rule:nonzero;fill:rgb(100%,0%,0%);fill-opacity:1;" d="M 213.832031 82.082031 L 213.539062 82.082031 C 213.304688 83.390625 213.109375 84.054688 211.488281 84.054688 L 210.121094 84.054688 C 209.710938 84.054688 209.691406 83.976562 209.691406 83.722656 L 209.691406 81.457031 L 210.570312 81.457031 C 211.449219 81.457031 211.585938 81.710938 211.585938 82.472656 L 211.878906 82.472656 L 211.878906 80.109375 L 211.585938 80.109375 C 211.585938 80.871094 211.449219 81.144531 210.570312 81.144531 L 209.691406 81.144531 L 209.691406 79.113281 C 209.691406 78.839844 209.710938 78.761719 210.121094 78.761719 L 211.429688 78.761719 C 212.855469 78.761719 213.109375 79.230469 213.265625 80.460938 L 213.558594 80.460938 L 213.285156 78.449219 L 207.972656 78.449219 L 207.972656 78.761719 L 208.1875 78.761719 C 208.851562 78.761719 208.871094 78.859375 208.871094 79.152344 L 208.871094 83.664062 C 208.871094 83.957031 208.851562 84.054688 208.1875 84.054688 L 207.972656 84.054688 L 207.972656 84.367188 L 213.441406 84.367188 L 213.832031 82.082031 Z M 213.832031 82.082031 "/>
<path style=" stroke:none;fill-rule:nonzero;fill:rgb(100%,0%,0%);fill-opacity:1;" d="M 217.734375 83.234375 C 217.734375 82.902344 217.578125 82.628906 217.34375 82.433594 C 217.011719 82.121094 216.621094 82.042969 216.308594 82.003906 C 215.625 81.867188 215.058594 81.769531 215.058594 81.300781 C 215.058594 81.027344 215.292969 80.695312 216.113281 80.695312 C 217.128906 80.695312 217.167969 81.398438 217.1875 81.652344 C 217.1875 81.75 217.304688 81.75 217.324219 81.75 C 217.480469 81.75 217.480469 81.691406 217.480469 81.515625 L 217.480469 80.714844 C 217.480469 80.558594 217.480469 80.480469 217.363281 80.480469 C 217.324219 80.480469 217.304688 80.480469 217.1875 80.578125 C 217.167969 80.597656 217.089844 80.675781 217.03125 80.714844 C 216.757812 80.539062 216.445312 80.480469 216.113281 80.480469 C 214.863281 80.480469 214.570312 81.144531 214.570312 81.574219 C 214.570312 81.847656 214.6875 82.082031 214.902344 82.257812 C 215.234375 82.53125 215.566406 82.589844 216.113281 82.6875 C 216.542969 82.765625 217.246094 82.882812 217.246094 83.46875 C 217.246094 83.800781 217.011719 84.210938 216.171875 84.210938 C 215.332031 84.210938 215.039062 83.664062 214.882812 83.078125 C 214.84375 82.960938 214.84375 82.921875 214.726562 82.921875 C 214.570312 82.921875 214.570312 82.980469 214.570312 83.15625 L 214.570312 84.230469 C 214.570312 84.367188 214.570312 84.445312 214.6875 84.445312 C 214.765625 84.445312 214.941406 84.269531 215.117188 84.074219 C 215.488281 84.445312 215.957031 84.445312 216.171875 84.445312 C 217.304688 84.445312 217.734375 83.839844 217.734375 83.234375 Z M 217.734375 83.234375 "/>
<path style=" stroke:none;fill-rule:nonzero;fill:rgb(100%,0%,0%);fill-opacity:1;" d="M 223.203125 82.492188 C 223.203125 81.417969 222.324219 80.519531 221.210938 80.519531 C 220.722656 80.519531 220.214844 80.714844 219.863281 81.066406 L 219.863281 80.519531 L 218.554688 80.617188 L 218.554688 80.929688 C 219.160156 80.929688 219.199219 80.988281 219.199219 81.339844 L 219.199219 85.363281 C 219.199219 85.734375 219.121094 85.734375 218.554688 85.734375 L 218.554688 86.066406 C 218.554688 86.066406 219.179688 86.027344 219.550781 86.027344 C 219.863281 86.027344 220.46875 86.046875 220.546875 86.066406 L 220.546875 85.734375 C 219.980469 85.734375 219.902344 85.734375 219.902344 85.363281 L 219.902344 83.957031 C 219.941406 83.996094 220.351562 84.445312 221.074219 84.445312 C 222.226562 84.445312 223.203125 83.585938 223.203125 82.492188 Z M 222.421875 82.492188 C 222.421875 83.488281 221.757812 84.210938 221.035156 84.210938 C 220.253906 84.210938 219.921875 83.546875 219.902344 83.488281 L 219.902344 81.457031 C 220.15625 81.027344 220.664062 80.8125 221.113281 80.8125 C 221.855469 80.8125 222.421875 81.574219 222.421875 82.492188 Z M 222.421875 82.492188 "/>
<path style=" stroke:none;fill-rule:nonzero;fill:rgb(100%,0%,0%);fill-opacity:1;" d="M 228.371094 83.585938 L 228.371094 83.097656 L 228.058594 83.097656 L 228.058594 83.566406 C 228.058594 83.664062 228.058594 84.074219 227.746094 84.074219 C 227.414062 84.074219 227.414062 83.664062 227.414062 83.566406 L 227.414062 82.023438 C 227.414062 81.574219 227.414062 81.242188 227.023438 80.910156 C 226.671875 80.617188 226.242188 80.480469 225.734375 80.480469 C 224.914062 80.480469 224.328125 80.792969 224.328125 81.320312 C 224.328125 81.613281 224.503906 81.75 224.738281 81.75 C 224.972656 81.75 225.148438 81.574219 225.148438 81.339844 C 225.148438 81.203125 225.070312 81.007812 224.835938 80.949219 C 225.148438 80.734375 225.65625 80.734375 225.714844 80.734375 C 226.203125 80.734375 226.730469 81.046875 226.730469 81.789062 L 226.730469 82.042969 C 226.261719 82.0625 225.675781 82.101562 225.050781 82.335938 C 224.269531 82.609375 224.015625 83.097656 224.015625 83.488281 C 224.015625 84.230469 224.914062 84.445312 225.539062 84.445312 C 226.242188 84.445312 226.652344 84.054688 226.828125 83.722656 C 226.867188 84.074219 227.101562 84.40625 227.492188 84.40625 C 227.492188 84.40625 228.371094 84.40625 228.371094 83.585938 Z M 226.730469 83.136719 C 226.730469 83.976562 226.007812 84.210938 225.617188 84.210938 C 225.167969 84.210938 224.757812 83.917969 224.757812 83.488281 C 224.757812 83 225.167969 82.335938 226.730469 82.277344 L 226.730469 83.136719 Z M 226.730469 83.136719 "/>
<path style=" stroke:none;fill-rule:nonzero;fill:rgb(100%,0%,0%);fill-opacity:1;" d="M 232.671875 83.3125 C 232.671875 83.214844 232.554688 83.214844 232.515625 83.214844 C 232.398438 83.214844 232.398438 83.234375 232.359375 83.371094 C 232.164062 83.898438 231.695312 84.171875 231.167969 84.171875 C 230.5625 84.171875 229.78125 83.722656 229.78125 82.472656 C 229.78125 81.378906 230.328125 80.753906 231.128906 80.753906 C 231.246094 80.753906 231.65625 80.753906 231.96875 80.890625 C 231.8125 80.96875 231.734375 81.105469 231.734375 81.28125 C 231.734375 81.515625 231.890625 81.691406 232.144531 81.691406 C 232.378906 81.691406 232.554688 81.535156 232.554688 81.261719 C 232.554688 80.480469 231.34375 80.480469 231.109375 80.480469 C 229.800781 80.480469 229 81.476562 229 82.492188 C 229 83.585938 229.917969 84.445312 231.070312 84.445312 C 232.359375 84.445312 232.671875 83.429688 232.671875 83.3125 Z M 232.671875 83.3125 "/>
<path style=" stroke:none;fill-rule:nonzero;fill:rgb(100%,0%,0%);fill-opacity:1;" d="M 237.097656 83.3125 C 237.097656 83.292969 237.078125 83.195312 236.941406 83.195312 C 236.824219 83.195312 236.804688 83.253906 236.785156 83.332031 C 236.511719 84.035156 235.847656 84.171875 235.535156 84.171875 C 235.125 84.171875 234.734375 83.996094 234.480469 83.664062 C 234.148438 83.253906 234.148438 82.726562 234.148438 82.375 L 236.84375 82.375 C 237.039062 82.375 237.097656 82.375 237.097656 82.199219 C 237.097656 81.417969 236.667969 80.480469 235.359375 80.480469 C 234.226562 80.480469 233.347656 81.378906 233.347656 82.453125 C 233.347656 83.566406 234.324219 84.445312 235.476562 84.445312 C 236.648438 84.445312 237.097656 83.507812 237.097656 83.3125 Z M 236.492188 82.160156 L 234.148438 82.160156 C 234.246094 80.929688 235.027344 80.734375 235.359375 80.734375 C 236.433594 80.734375 236.472656 81.945312 236.492188 82.160156 Z M 236.492188 82.160156 "/>
<path style=" stroke:none;fill-rule:nonzero;fill:rgb(100%,0%,0%);fill-opacity:1;" d="M 245.410156 82.511719 C 245.410156 81.417969 244.472656 80.480469 243.28125 80.480469 C 242.070312 80.480469 241.132812 81.417969 241.132812 82.511719 C 241.132812 83.585938 242.089844 84.445312 243.28125 84.445312 C 244.453125 84.445312 245.410156 83.585938 245.410156 82.511719 Z M 244.609375 82.433594 C 244.609375 82.84375 244.589844 83.3125 244.335938 83.664062 C 244.101562 83.996094 243.710938 84.171875 243.28125 84.171875 C 242.949219 84.171875 242.480469 84.074219 242.1875 83.644531 C 241.953125 83.292969 241.933594 82.84375 241.933594 82.433594 C 241.933594 82.0625 241.933594 81.535156 242.246094 81.164062 C 242.460938 80.910156 242.832031 80.734375 243.28125 80.734375 C 243.789062 80.734375 244.160156 80.96875 244.355469 81.242188 C 244.589844 81.574219 244.609375 82.023438 244.609375 82.433594 Z M 244.609375 82.433594 "/>
<path style=" stroke:none;fill-rule:nonzero;fill:rgb(100%,0%,0%);fill-opacity:1;" d="M 250.84375 82.492188 C 250.84375 81.417969 249.964844 80.519531 248.8125 80.519531 C 248.285156 80.519531 247.816406 80.734375 247.503906 81.046875 L 247.503906 78.3125 L 246.195312 78.410156 L 246.195312 78.722656 C 246.78125 78.722656 246.839844 78.800781 246.839844 79.230469 L 246.839844 84.367188 L 247.132812 84.367188 L 247.445312 83.839844 C 247.777344 84.269531 248.265625 84.445312 248.714844 84.445312 C 249.867188 84.445312 250.84375 83.585938 250.84375 82.492188 Z M 250.0625 82.472656 C 250.0625 82.667969 250.0625 83.332031 249.710938 83.742188 C 249.359375 84.132812 248.929688 84.210938 248.675781 84.210938 C 247.972656 84.210938 247.621094 83.664062 247.542969 83.488281 L 247.542969 81.457031 C 247.777344 81.046875 248.246094 80.773438 248.773438 80.773438 C 249.261719 80.773438 249.613281 81.046875 249.789062 81.300781 C 249.964844 81.554688 250.0625 81.90625 250.0625 82.472656 Z M 250.0625 82.472656 "/>
<path style=" stroke:none;fill-rule:nonzero;fill:rgb(100%,0%,0%);fill-opacity:1;" d="M 253.644531 84.777344 L 253.644531 80.519531 L 252.277344 80.617188 L 252.277344 80.929688 C 252.921875 80.929688 253 80.988281 253 81.417969 L 253 84.777344 C 253 85.109375 252.921875 85.890625 252.335938 85.890625 C 252.316406 85.890625 252.101562 85.890625 251.90625 85.8125 C 251.925781 85.8125 252.121094 85.695312 252.121094 85.441406 C 252.121094 85.207031 251.945312 85.03125 251.710938 85.03125 C 251.457031 85.03125 251.300781 85.207031 251.300781 85.441406 C 251.300781 85.910156 251.828125 86.144531 252.355469 86.144531 C 253.058594 86.144531 253.644531 85.597656 253.644531 84.777344 Z M 253.644531 79.132812 C 253.644531 78.839844 253.429688 78.625 253.15625 78.625 C 252.863281 78.625 252.667969 78.859375 252.667969 79.113281 C 252.667969 79.386719 252.882812 79.621094 253.15625 79.621094 C 253.449219 79.621094 253.644531 79.367188 253.644531 79.132812 Z M 253.644531 79.132812 "/>
<path style=" stroke:none;fill-rule:nonzero;fill:rgb(100%,0%,0%);fill-opacity:1;" d="M 258.703125 83.3125 C 258.703125 83.292969 258.683594 83.195312 258.546875 83.195312 C 258.429688 83.195312 258.410156 83.253906 258.390625 83.332031 C 258.117188 84.035156 257.453125 84.171875 257.140625 84.171875 C 256.730469 84.171875 256.339844 83.996094 256.085938 83.664062 C 255.753906 83.253906 255.753906 82.726562 255.753906 82.375 L 258.449219 82.375 C 258.644531 82.375 258.703125 82.375 258.703125 82.199219 C 258.703125 81.417969 258.273438 80.480469 256.964844 80.480469 C 255.832031 80.480469 254.953125 81.378906 254.953125 82.453125 C 254.953125 83.566406 255.929688 84.445312 257.082031 84.445312 C 258.253906 84.445312 258.703125 83.507812 258.703125 83.3125 Z M 258.097656 82.160156 L 255.753906 82.160156 C 255.851562 80.929688 256.632812 80.734375 256.964844 80.734375 C 258.039062 80.734375 258.078125 81.945312 258.097656 82.160156 Z M 258.097656 82.160156 "/>
<path style=" stroke:none;fill-rule:nonzero;fill:rgb(100%,0%,0%);fill-opacity:1;" d="M 262.3125 83.273438 L 262.3125 82.785156 L 262.019531 82.785156 L 262.019531 83.253906 C 262.019531 83.859375 261.746094 84.171875 261.394531 84.171875 C 260.808594 84.171875 260.808594 83.449219 260.808594 83.292969 L 260.808594 80.929688 L 262.15625 80.929688 L 262.15625 80.617188 L 260.808594 80.617188 L 260.808594 79.015625 L 260.496094 79.015625 C 260.496094 79.796875 260.144531 80.65625 259.304688 80.675781 L 259.304688 80.929688 L 260.105469 80.929688 L 260.105469 83.273438 C 260.105469 84.25 260.847656 84.445312 261.335938 84.445312 C 261.921875 84.445312 262.3125 83.957031 262.3125 83.273438 Z M 262.3125 83.273438 "/>
<path style=" stroke:none;fill-rule:nonzero;fill:rgb(100%,0%,0%);fill-opacity:1;" d="M 271.238281 80.929688 L 271.238281 80.617188 C 271.023438 80.636719 270.808594 80.65625 270.574219 80.65625 C 270.339844 80.65625 270.027344 80.636719 269.792969 80.617188 L 269.792969 80.929688 C 270.164062 80.949219 270.164062 81.222656 270.164062 81.261719 C 270.164062 81.300781 270.144531 81.378906 270.085938 81.515625 L 269.109375 83.664062 L 268.015625 81.300781 C 268.015625 81.300781 267.976562 81.183594 267.976562 81.125 C 267.976562 80.929688 268.269531 80.929688 268.40625 80.929688 L 268.40625 80.617188 C 268.40625 80.617188 267.78125 80.65625 267.429688 80.65625 C 267.15625 80.65625 266.824219 80.636719 266.570312 80.617188 L 266.570312 80.929688 C 267.039062 80.929688 267.15625 80.949219 267.273438 81.242188 L 268.660156 84.269531 C 268.699219 84.367188 268.757812 84.445312 268.894531 84.445312 C 269.070312 84.445312 269.109375 84.367188 269.148438 84.289062 L 270.417969 81.457031 C 270.671875 80.929688 271.101562 80.929688 271.238281 80.929688 Z M 271.238281 80.929688 "/>
<path style=" stroke:none;fill-rule:nonzero;fill:rgb(100%,0%,0%);fill-opacity:1;" d="M 273.914062 84.367188 L 273.914062 84.054688 C 273.40625 84.054688 273.328125 84.054688 273.328125 83.683594 L 273.328125 80.519531 L 272.039062 80.617188 L 272.039062 80.929688 C 272.585938 80.929688 272.664062 80.988281 272.664062 81.417969 L 272.664062 83.683594 C 272.664062 84.054688 272.585938 84.054688 272.019531 84.054688 L 272.019531 84.367188 C 272.019531 84.367188 272.644531 84.328125 272.996094 84.328125 C 273.308594 84.328125 273.621094 84.347656 273.914062 84.367188 Z M 273.445312 79.132812 C 273.445312 78.839844 273.230469 78.625 272.9375 78.625 C 272.644531 78.625 272.449219 78.859375 272.449219 79.113281 C 272.449219 79.386719 272.664062 79.621094 272.9375 79.621094 C 273.230469 79.621094 273.445312 79.367188 273.445312 79.132812 Z M 273.445312 79.132812 "/>
<path style=" stroke:none;fill-rule:nonzero;fill:rgb(100%,0%,0%);fill-opacity:1;" d="M 277.902344 81.085938 C 277.902344 80.792969 277.609375 80.519531 277.199219 80.519531 C 276.769531 80.519531 276.28125 80.792969 276.027344 81.457031 L 276.027344 81.457031 L 276.027344 80.519531 L 274.777344 80.617188 L 274.777344 80.929688 C 275.363281 80.929688 275.421875 80.988281 275.421875 81.417969 L 275.421875 83.683594 C 275.421875 84.054688 275.34375 84.054688 274.777344 84.054688 L 274.777344 84.367188 C 274.816406 84.367188 275.402344 84.328125 275.773438 84.328125 L 276.90625 84.367188 L 276.90625 84.054688 L 276.730469 84.054688 C 276.085938 84.054688 276.085938 83.957031 276.085938 83.664062 L 276.085938 82.375 C 276.085938 81.652344 276.417969 80.773438 277.257812 80.773438 C 277.179688 80.832031 277.101562 80.949219 277.101562 81.085938 C 277.101562 81.378906 277.335938 81.476562 277.492188 81.476562 C 277.707031 81.476562 277.902344 81.339844 277.902344 81.085938 Z M 277.902344 81.085938 "/>
<path style=" stroke:none;fill-rule:nonzero;fill:rgb(100%,0%,0%);fill-opacity:1;" d="M 281.503906 83.273438 L 281.503906 82.785156 L 281.210938 82.785156 L 281.210938 83.253906 C 281.210938 83.859375 280.9375 84.171875 280.585938 84.171875 C 280 84.171875 280 83.449219 280 83.292969 L 280 80.929688 L 281.347656 80.929688 L 281.347656 80.617188 L 280 80.617188 L 280 79.015625 L 279.6875 79.015625 C 279.6875 79.796875 279.335938 80.65625 278.496094 80.675781 L 278.496094 80.929688 L 279.296875 80.929688 L 279.296875 83.273438 C 279.296875 84.25 280.039062 84.445312 280.527344 84.445312 C 281.113281 84.445312 281.503906 83.957031 281.503906 83.273438 Z M 281.503906 83.273438 "/>
<path style=" stroke:none;fill-rule:nonzero;fill:rgb(100%,0%,0%);fill-opacity:1;" d="M 287.269531 84.367188 L 287.269531 84.054688 C 286.683594 84.054688 286.625 83.996094 286.625 83.566406 L 286.625 80.519531 L 285.277344 80.617188 L 285.277344 80.929688 C 285.863281 80.929688 285.921875 80.988281 285.921875 81.417969 L 285.921875 82.921875 C 285.921875 83.683594 285.433594 84.210938 284.769531 84.210938 C 283.988281 84.210938 283.949219 83.839844 283.949219 83.390625 L 283.949219 80.519531 L 282.601562 80.617188 L 282.601562 80.929688 C 283.265625 80.929688 283.265625 80.96875 283.265625 81.730469 L 283.265625 83.039062 C 283.265625 83.644531 283.265625 84.445312 284.710938 84.445312 C 284.90625 84.445312 285.53125 84.445312 285.960938 83.722656 L 285.960938 83.722656 L 285.960938 84.445312 L 287.269531 84.367188 Z M 287.269531 84.367188 "/>
<path style=" stroke:none;fill-rule:nonzero;fill:rgb(100%,0%,0%);fill-opacity:1;" d="M 291.714844 83.3125 C 291.714844 83.292969 291.695312 83.195312 291.558594 83.195312 C 291.441406 83.195312 291.421875 83.253906 291.402344 83.332031 C 291.128906 84.035156 290.464844 84.171875 290.152344 84.171875 C 289.742188 84.171875 289.351562 83.996094 289.097656 83.664062 C 288.765625 83.253906 288.765625 82.726562 288.765625 82.375 L 291.460938 82.375 C 291.65625 82.375 291.714844 82.375 291.714844 82.199219 C 291.714844 81.417969 291.285156 80.480469 289.976562 80.480469 C 288.84375 80.480469 287.964844 81.378906 287.964844 82.453125 C 287.964844 83.566406 288.941406 84.445312 290.09375 84.445312 C 291.265625 84.445312 291.714844 83.507812 291.714844 83.3125 Z M 291.109375 82.160156 L 288.765625 82.160156 C 288.863281 80.929688 289.644531 80.734375 289.976562 80.734375 C 291.050781 80.734375 291.089844 81.945312 291.109375 82.160156 Z M 291.109375 82.160156 "/>
<path style=" stroke:none;fill-rule:nonzero;fill:rgb(100%,0%,0%);fill-opacity:1;" d="M 294.5 84.367188 L 294.5 84.054688 C 293.933594 84.054688 293.855469 84.054688 293.855469 83.683594 L 293.855469 78.3125 L 292.546875 78.410156 L 292.546875 78.722656 C 293.132812 78.722656 293.191406 78.800781 293.191406 79.210938 L 293.191406 83.683594 C 293.191406 84.054688 293.113281 84.054688 292.546875 84.054688 L 292.546875 84.367188 C 292.546875 84.367188 293.171875 84.328125 293.523438 84.328125 C 293.855469 84.328125 294.167969 84.347656 294.5 84.367188 Z M 294.5 84.367188 "/>
<path style="fill:none;stroke-width:1.59404;stroke-linecap:butt;stroke-linejoin:miter;stroke:rgb(74.901961%,0%,25.098039%);stroke-opacity:1;stroke-miterlimit:10;" d="M 144.5665 -36.14375 L 50.18525 -36.14375 " transform="matrix(1.25,0,0,-1.25,187.9325,59.625)"/>
<path style=" stroke:none;fill-rule:nonzero;fill:rgb(74.901961%,0%,25.098039%);fill-opacity:1;" d="M 242.148438 104.804688 C 244.667969 105.277344 248.769531 106.695312 251.609375 108.355469 L 251.609375 101.253906 C 248.769531 102.910156 244.667969 104.332031 242.148438 104.804688 "/>
<path style=" stroke:none;fill-rule:nonzero;fill:rgb(100%,100%,100%);fill-opacity:1;" d="M 258.824219 112.804688 L 351.96875 112.804688 L 351.96875 96.800781 L 258.824219 96.800781 L 258.824219 112.804688 Z M 258.824219 112.804688 "/>
<path style=" stroke:none;fill-rule:nonzero;fill:rgb(74.901961%,0%,25.098039%);fill-opacity:1;" d="M 269.324219 104.671875 L 269.03125 104.671875 C 268.796875 105.980469 268.601562 106.644531 266.980469 106.644531 L 265.613281 106.644531 C 265.203125 106.644531 265.183594 106.566406 265.183594 106.3125 L 265.183594 104.046875 L 266.0625 104.046875 C 266.941406 104.046875 267.078125 104.300781 267.078125 105.0625 L 267.371094 105.0625 L 267.371094 102.699219 L 267.078125 102.699219 C 267.078125 103.460938 266.941406 103.734375 266.0625 103.734375 L 265.183594 103.734375 L 265.183594 101.703125 C 265.183594 101.429688 265.203125 101.351562 265.613281 101.351562 L 266.921875 101.351562 C 268.347656 101.351562 268.601562 101.820312 268.757812 103.050781 L 269.050781 103.050781 L 268.777344 101.039062 L 263.464844 101.039062 L 263.464844 101.351562 L 263.679688 101.351562 C 264.34375 101.351562 264.363281 101.449219 264.363281 101.742188 L 264.363281 106.253906 C 264.363281 106.546875 264.34375 106.644531 263.679688 106.644531 L 263.464844 106.644531 L 263.464844 106.957031 L 268.933594 106.957031 L 269.324219 104.671875 Z M 269.324219 104.671875 "/>
<path style=" stroke:none;fill-rule:nonzero;fill:rgb(74.901961%,0%,25.098039%);fill-opacity:1;" d="M 273.222656 105.824219 C 273.222656 105.492188 273.066406 105.21875 272.832031 105.023438 C 272.5 104.710938 272.109375 104.632812 271.796875 104.59375 C 271.113281 104.457031 270.546875 104.359375 270.546875 103.890625 C 270.546875 103.617188 270.78125 103.285156 271.601562 103.285156 C 272.617188 103.285156 272.65625 103.988281 272.675781 104.242188 C 272.675781 104.339844 272.792969 104.339844 272.8125 104.339844 C 272.96875 104.339844 272.96875 104.28125 272.96875 104.105469 L 272.96875 103.304688 C 272.96875 103.148438 272.96875 103.070312 272.851562 103.070312 C 272.8125 103.070312 272.792969 103.070312 272.675781 103.167969 C 272.65625 103.1875 272.578125 103.265625 272.519531 103.304688 C 272.246094 103.128906 271.933594 103.070312 271.601562 103.070312 C 270.351562 103.070312 270.058594 103.734375 270.058594 104.164062 C 270.058594 104.4375 270.175781 104.671875 270.390625 104.847656 C 270.722656 105.121094 271.054688 105.179688 271.601562 105.277344 C 272.03125 105.355469 272.734375 105.472656 272.734375 106.058594 C 272.734375 106.390625 272.5 106.800781 271.660156 106.800781 C 270.820312 106.800781 270.527344 106.253906 270.371094 105.667969 C 270.332031 105.550781 270.332031 105.511719 270.214844 105.511719 C 270.058594 105.511719 270.058594 105.570312 270.058594 105.746094 L 270.058594 106.820312 C 270.058594 106.957031 270.058594 107.035156 270.175781 107.035156 C 270.253906 107.035156 270.429688 106.859375 270.605469 106.664062 C 270.976562 107.035156 271.445312 107.035156 271.660156 107.035156 C 272.792969 107.035156 273.222656 106.429688 273.222656 105.824219 Z M 273.222656 105.824219 "/>
<path style=" stroke:none;fill-rule:nonzero;fill:rgb(74.901961%,0%,25.098039%);fill-opacity:1;" d="M 278.691406 105.082031 C 278.691406 104.007812 277.8125 103.109375 276.699219 103.109375 C 276.210938 103.109375 275.703125 103.304688 275.351562 103.65625 L 275.351562 103.109375 L 274.042969 103.207031 L 274.042969 103.519531 C 274.648438 103.519531 274.6875 103.578125 274.6875 103.929688 L 274.6875 107.953125 C 274.6875 108.324219 274.609375 108.324219 274.042969 108.324219 L 274.042969 108.65625 C 274.042969 108.65625 274.667969 108.617188 275.039062 108.617188 C 275.351562 108.617188 275.957031 108.636719 276.035156 108.65625 L 276.035156 108.324219 C 275.46875 108.324219 275.390625 108.324219 275.390625 107.953125 L 275.390625 106.546875 C 275.429688 106.585938 275.839844 107.035156 276.5625 107.035156 C 277.714844 107.035156 278.691406 106.175781 278.691406 105.082031 Z M 277.910156 105.082031 C 277.910156 106.078125 277.246094 106.800781 276.523438 106.800781 C 275.742188 106.800781 275.410156 106.136719 275.390625 106.078125 L 275.390625 104.046875 C 275.644531 103.617188 276.152344 103.402344 276.601562 103.402344 C 277.34375 103.402344 277.910156 104.164062 277.910156 105.082031 Z M 277.910156 105.082031 "/>
<path style=" stroke:none;fill-rule:nonzero;fill:rgb(74.901961%,0%,25.098039%);fill-opacity:1;" d="M 283.859375 106.175781 L 283.859375 105.6875 L 283.546875 105.6875 L 283.546875 106.15625 C 283.546875 106.253906 283.546875 106.664062 283.234375 106.664062 C 282.902344 106.664062 282.902344 106.253906 282.902344 106.15625 L 282.902344 104.613281 C 282.902344 104.164062 282.902344 103.832031 282.511719 103.5 C 282.160156 103.207031 281.730469 103.070312 281.222656 103.070312 C 280.402344 103.070312 279.816406 103.382812 279.816406 103.910156 C 279.816406 104.203125 279.992188 104.339844 280.226562 104.339844 C 280.460938 104.339844 280.636719 104.164062 280.636719 103.929688 C 280.636719 103.792969 280.558594 103.597656 280.324219 103.539062 C 280.636719 103.324219 281.144531 103.324219 281.203125 103.324219 C 281.691406 103.324219 282.21875 103.636719 282.21875 104.378906 L 282.21875 104.632812 C 281.75 104.652344 281.164062 104.691406 280.539062 104.925781 C 279.757812 105.199219 279.503906 105.6875 279.503906 106.078125 C 279.503906 106.820312 280.402344 107.035156 281.027344 107.035156 C 281.730469 107.035156 282.140625 106.644531 282.316406 106.3125 C 282.355469 106.664062 282.589844 106.996094 282.980469 106.996094 C 282.980469 106.996094 283.859375 106.996094 283.859375 106.175781 Z M 282.21875 105.726562 C 282.21875 106.566406 281.496094 106.800781 281.105469 106.800781 C 280.65625 106.800781 280.246094 106.507812 280.246094 106.078125 C 280.246094 105.589844 280.65625 104.925781 282.21875 104.867188 L 282.21875 105.726562 Z M 282.21875 105.726562 "/>
<path style=" stroke:none;fill-rule:nonzero;fill:rgb(74.901961%,0%,25.098039%);fill-opacity:1;" d="M 288.160156 105.902344 C 288.160156 105.804688 288.042969 105.804688 288.003906 105.804688 C 287.886719 105.804688 287.886719 105.824219 287.847656 105.960938 C 287.652344 106.488281 287.183594 106.761719 286.65625 106.761719 C 286.050781 106.761719 285.269531 106.3125 285.269531 105.0625 C 285.269531 103.96875 285.816406 103.34375 286.617188 103.34375 C 286.734375 103.34375 287.144531 103.34375 287.457031 103.480469 C 287.300781 103.558594 287.222656 103.695312 287.222656 103.871094 C 287.222656 104.105469 287.378906 104.28125 287.632812 104.28125 C 287.867188 104.28125 288.042969 104.125 288.042969 103.851562 C 288.042969 103.070312 286.832031 103.070312 286.597656 103.070312 C 285.289062 103.070312 284.488281 104.066406 284.488281 105.082031 C 284.488281 106.175781 285.40625 107.035156 286.558594 107.035156 C 287.847656 107.035156 288.160156 106.019531 288.160156 105.902344 Z M 288.160156 105.902344 "/>
<path style=" stroke:none;fill-rule:nonzero;fill:rgb(74.901961%,0%,25.098039%);fill-opacity:1;" d="M 292.589844 105.902344 C 292.589844 105.882812 292.570312 105.785156 292.433594 105.785156 C 292.316406 105.785156 292.296875 105.84375 292.277344 105.921875 C 292.003906 106.625 291.339844 106.761719 291.027344 106.761719 C 290.617188 106.761719 290.226562 106.585938 289.972656 106.253906 C 289.640625 105.84375 289.640625 105.316406 289.640625 104.964844 L 292.335938 104.964844 C 292.53125 104.964844 292.589844 104.964844 292.589844 104.789062 C 292.589844 104.007812 292.160156 103.070312 290.851562 103.070312 C 289.71875 103.070312 288.839844 103.96875 288.839844 105.042969 C 288.839844 106.15625 289.816406 107.035156 290.96875 107.035156 C 292.140625 107.035156 292.589844 106.097656 292.589844 105.902344 Z M 291.984375 104.75 L 289.640625 104.75 C 289.738281 103.519531 290.519531 103.324219 290.851562 103.324219 C 291.925781 103.324219 291.964844 104.535156 291.984375 104.75 Z M 291.984375 104.75 "/>
<path style=" stroke:none;fill-rule:nonzero;fill:rgb(74.901961%,0%,25.098039%);fill-opacity:1;" d="M 298.671875 106.957031 L 298.671875 106.644531 C 298.164062 106.644531 298.085938 106.644531 298.085938 106.273438 L 298.085938 103.109375 L 296.796875 103.207031 L 296.796875 103.519531 C 297.34375 103.519531 297.421875 103.578125 297.421875 104.007812 L 297.421875 106.273438 C 297.421875 106.644531 297.34375 106.644531 296.777344 106.644531 L 296.777344 106.957031 C 296.777344 106.957031 297.402344 106.917969 297.753906 106.917969 C 298.066406 106.917969 298.378906 106.9375 298.671875 106.957031 Z M 298.203125 101.722656 C 298.203125 101.429688 297.988281 101.214844 297.695312 101.214844 C 297.402344 101.214844 297.207031 101.449219 297.207031 101.703125 C 297.207031 101.976562 297.421875 102.210938 297.695312 102.210938 C 297.988281 102.210938 298.203125 101.957031 298.203125 101.722656 Z M 298.203125 101.722656 "/>
<path style=" stroke:none;fill-rule:nonzero;fill:rgb(74.901961%,0%,25.098039%);fill-opacity:1;" d="M 306.921875 106.957031 L 306.921875 106.644531 C 306.355469 106.644531 306.277344 106.644531 306.277344 106.273438 L 306.277344 104.320312 C 306.277344 103.558594 305.886719 103.109375 304.96875 103.109375 C 304.265625 103.109375 303.796875 103.480469 303.5625 103.929688 C 303.386719 103.304688 302.917969 103.109375 302.292969 103.109375 C 301.570312 103.109375 301.121094 103.5 300.867188 103.96875 L 300.867188 103.96875 L 300.867188 103.109375 L 299.578125 103.207031 L 299.578125 103.519531 C 300.164062 103.519531 300.242188 103.578125 300.242188 104.007812 L 300.242188 106.273438 C 300.242188 106.644531 300.144531 106.644531 299.578125 106.644531 L 299.578125 106.957031 C 299.578125 106.957031 300.203125 106.917969 300.574219 106.917969 C 300.886719 106.917969 301.492188 106.957031 301.570312 106.957031 L 301.570312 106.644531 C 301.003906 106.644531 300.925781 106.644531 300.925781 106.273438 L 300.925781 104.691406 C 300.925781 103.792969 301.648438 103.363281 302.214844 103.363281 C 302.820312 103.363281 302.898438 103.832031 302.898438 104.28125 L 302.898438 106.273438 C 302.898438 106.644531 302.820312 106.644531 302.253906 106.644531 L 302.253906 106.957031 C 302.253906 106.957031 302.878906 106.917969 303.25 106.917969 C 303.5625 106.917969 304.167969 106.957031 304.246094 106.957031 L 304.246094 106.644531 C 303.679688 106.644531 303.601562 106.644531 303.601562 106.273438 L 303.601562 104.691406 C 303.601562 103.792969 304.324219 103.363281 304.890625 103.363281 C 305.496094 103.363281 305.574219 103.832031 305.574219 104.28125 L 305.574219 106.273438 C 305.574219 106.644531 305.496094 106.644531 304.929688 106.644531 L 304.929688 106.957031 C 304.929688 106.957031 305.554688 106.917969 305.925781 106.917969 C 306.238281 106.917969 306.84375 106.957031 306.921875 106.957031 Z M 306.921875 106.957031 "/>
<path style=" stroke:none;fill-rule:nonzero;fill:rgb(74.901961%,0%,25.098039%);fill-opacity:1;" d="M 312.035156 106.175781 L 312.035156 105.6875 L 311.722656 105.6875 L 311.722656 106.15625 C 311.722656 106.253906 311.722656 106.664062 311.410156 106.664062 C 311.078125 106.664062 311.078125 106.253906 311.078125 106.15625 L 311.078125 104.613281 C 311.078125 104.164062 311.078125 103.832031 310.6875 103.5 C 310.335938 103.207031 309.90625 103.070312 309.398438 103.070312 C 308.578125 103.070312 307.992188 103.382812 307.992188 103.910156 C 307.992188 104.203125 308.167969 104.339844 308.402344 104.339844 C 308.636719 104.339844 308.8125 104.164062 308.8125 103.929688 C 308.8125 103.792969 308.734375 103.597656 308.5 103.539062 C 308.8125 103.324219 309.320312 103.324219 309.378906 103.324219 C 309.867188 103.324219 310.394531 103.636719 310.394531 104.378906 L 310.394531 104.632812 C 309.925781 104.652344 309.339844 104.691406 308.714844 104.925781 C 307.933594 105.199219 307.679688 105.6875 307.679688 106.078125 C 307.679688 106.820312 308.578125 107.035156 309.203125 107.035156 C 309.90625 107.035156 310.316406 106.644531 310.492188 106.3125 C 310.53125 106.664062 310.765625 106.996094 311.15625 106.996094 C 311.15625 106.996094 312.035156 106.996094 312.035156 106.175781 Z M 310.394531 105.726562 C 310.394531 106.566406 309.671875 106.800781 309.28125 106.800781 C 308.832031 106.800781 308.421875 106.507812 308.421875 106.078125 C 308.421875 105.589844 308.832031 104.925781 310.394531 104.867188 L 310.394531 105.726562 Z M 310.394531 105.726562 "/>
<path style=" stroke:none;fill-rule:nonzero;fill:rgb(74.901961%,0%,25.098039%);fill-opacity:1;" d="M 317 103.480469 C 317 103.265625 316.84375 103.03125 316.492188 103.03125 C 316.355469 103.03125 315.886719 103.050781 315.476562 103.421875 C 315.222656 103.246094 314.851562 103.109375 314.460938 103.109375 C 313.5625 103.109375 312.917969 103.714844 312.917969 104.398438 C 312.917969 104.730469 313.09375 105.042969 313.328125 105.277344 C 313.269531 105.355469 313.074219 105.648438 313.074219 105.980469 C 313.074219 106.097656 313.09375 106.507812 313.445312 106.761719 C 313.054688 106.878906 312.585938 107.171875 312.585938 107.621094 C 312.585938 108.265625 313.542969 108.734375 314.734375 108.734375 C 315.828125 108.734375 316.863281 108.304688 316.863281 107.601562 C 316.863281 107.347656 316.765625 106.878906 316.277344 106.625 C 315.769531 106.351562 315.242188 106.351562 314.402344 106.351562 C 314.207031 106.351562 313.894531 106.351562 313.835938 106.332031 C 313.542969 106.273438 313.386719 106.019531 313.386719 105.765625 C 313.386719 105.550781 313.464844 105.472656 313.503906 105.414062 C 313.640625 105.492188 313.953125 105.667969 314.460938 105.667969 C 315.359375 105.667969 316.003906 105.082031 316.003906 104.398438 C 316.003906 104.046875 315.847656 103.792969 315.632812 103.558594 C 316.042969 103.285156 316.375 103.265625 316.53125 103.265625 C 316.492188 103.304688 316.453125 103.34375 316.453125 103.480469 C 316.453125 103.65625 316.570312 103.753906 316.726562 103.753906 C 316.84375 103.753906 317 103.675781 317 103.480469 Z M 315.320312 104.398438 C 315.320312 104.535156 315.320312 104.886719 315.144531 105.101562 C 315.007812 105.257812 314.773438 105.414062 314.460938 105.414062 C 313.621094 105.414062 313.621094 104.574219 313.621094 104.398438 C 313.621094 104.261719 313.621094 103.910156 313.777344 103.675781 C 313.914062 103.539062 314.148438 103.382812 314.460938 103.382812 C 315.320312 103.382812 315.320312 104.222656 315.320312 104.398438 Z M 316.335938 107.621094 C 316.335938 108.089844 315.632812 108.480469 314.734375 108.480469 C 313.816406 108.480469 313.132812 108.070312 313.132812 107.621094 C 313.132812 107.308594 313.40625 106.9375 313.953125 106.9375 L 314.460938 106.9375 C 315.242188 106.9375 316.335938 106.9375 316.335938 107.621094 Z M 316.335938 107.621094 "/>
<path style=" stroke:none;fill-rule:nonzero;fill:rgb(74.901961%,0%,25.098039%);fill-opacity:1;" d="M 321.300781 105.902344 C 321.300781 105.882812 321.28125 105.785156 321.144531 105.785156 C 321.027344 105.785156 321.007812 105.84375 320.988281 105.921875 C 320.714844 106.625 320.050781 106.761719 319.738281 106.761719 C 319.328125 106.761719 318.9375 106.585938 318.683594 106.253906 C 318.351562 105.84375 318.351562 105.316406 318.351562 104.964844 L 321.046875 104.964844 C 321.242188 104.964844 321.300781 104.964844 321.300781 104.789062 C 321.300781 104.007812 320.871094 103.070312 319.5625 103.070312 C 318.429688 103.070312 317.550781 103.96875 317.550781 105.042969 C 317.550781 106.15625 318.527344 107.035156 319.679688 107.035156 C 320.851562 107.035156 321.300781 106.097656 321.300781 105.902344 Z M 320.695312 104.75 L 318.351562 104.75 C 318.449219 103.519531 319.230469 103.324219 319.5625 103.324219 C 320.636719 103.324219 320.675781 104.535156 320.695312 104.75 Z M 320.695312 104.75 "/>
<path style=" stroke:none;fill-rule:nonzero;fill:rgb(74.901961%,0%,25.098039%);fill-opacity:1;" d="M 328.554688 103.675781 C 328.554688 103.382812 328.261719 103.109375 327.851562 103.109375 C 327.421875 103.109375 326.933594 103.382812 326.679688 104.046875 L 326.679688 104.046875 L 326.679688 103.109375 L 325.429688 103.207031 L 325.429688 103.519531 C 326.015625 103.519531 326.074219 103.578125 326.074219 104.007812 L 326.074219 106.273438 C 326.074219 106.644531 325.996094 106.644531 325.429688 106.644531 L 325.429688 106.957031 C 325.46875 106.957031 326.054688 106.917969 326.425781 106.917969 L 327.558594 106.957031 L 327.558594 106.644531 L 327.382812 106.644531 C 326.738281 106.644531 326.738281 106.546875 326.738281 106.253906 L 326.738281 104.964844 C 326.738281 104.242188 327.070312 103.363281 327.910156 103.363281 C 327.832031 103.421875 327.753906 103.539062 327.753906 103.675781 C 327.753906 103.96875 327.988281 104.066406 328.144531 104.066406 C 328.359375 104.066406 328.554688 103.929688 328.554688 103.675781 Z M 328.554688 103.675781 "/>
<path style=" stroke:none;fill-rule:nonzero;fill:rgb(74.901961%,0%,25.098039%);fill-opacity:1;" d="M 332.972656 105.902344 C 332.972656 105.882812 332.953125 105.785156 332.816406 105.785156 C 332.699219 105.785156 332.679688 105.84375 332.660156 105.921875 C 332.386719 106.625 331.722656 106.761719 331.410156 106.761719 C 331 106.761719 330.609375 106.585938 330.355469 106.253906 C 330.023438 105.84375 330.023438 105.316406 330.023438 104.964844 L 332.71875 104.964844 C 332.914062 104.964844 332.972656 104.964844 332.972656 104.789062 C 332.972656 104.007812 332.542969 103.070312 331.234375 103.070312 C 330.101562 103.070312 329.222656 103.96875 329.222656 105.042969 C 329.222656 106.15625 330.199219 107.035156 331.351562 107.035156 C 332.523438 107.035156 332.972656 106.097656 332.972656 105.902344 Z M 332.367188 104.75 L 330.023438 104.75 C 330.121094 103.519531 330.902344 103.324219 331.234375 103.324219 C 332.308594 103.324219 332.347656 104.535156 332.367188 104.75 Z M 332.289062 101.234375 C 332.289062 101.078125 332.152344 100.882812 331.9375 100.882812 C 331.800781 100.882812 331.722656 100.960938 331.644531 101.058594 L 330.511719 102.328125 L 330.707031 102.542969 L 332.074219 101.546875 C 332.210938 101.46875 332.289062 101.390625 332.289062 101.234375 Z M 332.289062 101.234375 "/>
<path style=" stroke:none;fill-rule:nonzero;fill:rgb(74.901961%,0%,25.098039%);fill-opacity:1;" d="M 337.402344 105.902344 C 337.402344 105.882812 337.382812 105.785156 337.246094 105.785156 C 337.128906 105.785156 337.109375 105.84375 337.089844 105.921875 C 336.816406 106.625 336.152344 106.761719 335.839844 106.761719 C 335.429688 106.761719 335.039062 106.585938 334.785156 106.253906 C 334.453125 105.84375 334.453125 105.316406 334.453125 104.964844 L 337.148438 104.964844 C 337.34375 104.964844 337.402344 104.964844 337.402344 104.789062 C 337.402344 104.007812 336.972656 103.070312 335.664062 103.070312 C 334.53125 103.070312 333.652344 103.96875 333.652344 105.042969 C 333.652344 106.15625 334.628906 107.035156 335.78125 107.035156 C 336.953125 107.035156 337.402344 106.097656 337.402344 105.902344 Z M 336.796875 104.75 L 334.453125 104.75 C 334.550781 103.519531 335.332031 103.324219 335.664062 103.324219 C 336.738281 103.324219 336.777344 104.535156 336.796875 104.75 Z M 336.796875 104.75 "/>
<path style=" stroke:none;fill-rule:nonzero;fill:rgb(74.901961%,0%,25.098039%);fill-opacity:1;" d="M 340.1875 106.957031 L 340.1875 106.644531 C 339.621094 106.644531 339.542969 106.644531 339.542969 106.273438 L 339.542969 100.902344 L 338.234375 101 L 338.234375 101.3125 C 338.820312 101.3125 338.878906 101.390625 338.878906 101.800781 L 338.878906 106.273438 C 338.878906 106.644531 338.800781 106.644531 338.234375 106.644531 L 338.234375 106.957031 C 338.234375 106.957031 338.859375 106.917969 339.210938 106.917969 C 339.542969 106.917969 339.855469 106.9375 340.1875 106.957031 Z M 340.1875 106.957031 "/>
<path style=" stroke:none;fill-rule:nonzero;fill:rgb(74.901961%,0%,25.098039%);fill-opacity:1;" d="M 343.007812 106.957031 L 343.007812 106.644531 C 342.441406 106.644531 342.363281 106.644531 342.363281 106.273438 L 342.363281 100.902344 L 341.054688 101 L 341.054688 101.3125 C 341.640625 101.3125 341.699219 101.390625 341.699219 101.800781 L 341.699219 106.273438 C 341.699219 106.644531 341.621094 106.644531 341.054688 106.644531 L 341.054688 106.957031 C 341.054688 106.957031 341.679688 106.917969 342.03125 106.917969 C 342.363281 106.917969 342.675781 106.9375 343.007812 106.957031 Z M 343.007812 106.957031 "/>
<path style=" stroke:none;fill-rule:nonzero;fill:rgb(74.901961%,0%,25.098039%);fill-opacity:1;" d="M 347.46875 105.902344 C 347.46875 105.882812 347.449219 105.785156 347.3125 105.785156 C 347.195312 105.785156 347.175781 105.84375 347.15625 105.921875 C 346.882812 106.625 346.21875 106.761719 345.90625 106.761719 C 345.496094 106.761719 345.105469 106.585938 344.851562 106.253906 C 344.519531 105.84375 344.519531 105.316406 344.519531 104.964844 L 347.214844 104.964844 C 347.410156 104.964844 347.46875 104.964844 347.46875 104.789062 C 347.46875 104.007812 347.039062 103.070312 345.730469 103.070312 C 344.597656 103.070312 343.71875 103.96875 343.71875 105.042969 C 343.71875 106.15625 344.695312 107.035156 345.847656 107.035156 C 347.019531 107.035156 347.46875 106.097656 347.46875 105.902344 Z M 346.863281 104.75 L 344.519531 104.75 C 344.617188 103.519531 345.398438 103.324219 345.730469 103.324219 C 346.804688 103.324219 346.84375 104.535156 346.863281 104.75 Z M 346.863281 104.75 "/>
</g>
</svg>
