<?xml version="1.0" encoding="UTF-8"?>
<!-- Converted by misc2svg (http://www.network-science.de/tools/misc2svg/) -->
<svg xmlns="http://www.w3.org/2000/svg" xmlns:xlink="http://www.w3.org/1999/xlink" width="235pt" height="109pt" viewBox="0 0 235 109" version="1.1">
<g id="misc2svg">
<path style="fill:none;stroke-width:0.3985;stroke-linecap:butt;stroke-linejoin:miter;stroke:rgb(0%,0%,0%);stroke-opacity:1;stroke-miterlimit:10;" d="M -0.000375 56.695 L 40.818375 56.695 M 72.568375 56.695 L 113.387125 56.695 " transform="matrix(1.25,0,0,-1.25,35.77,102.3375)"/>
<path style="fill:none;stroke-width:0.797;stroke-linecap:butt;stroke-linejoin:miter;stroke:rgb(0%,0%,0%);stroke-opacity:1;stroke-miterlimit:10;" d="M 40.818375 62.648125 L 72.568375 62.648125 L 72.568375 50.741875 L 40.818375 50.741875 L 40.818375 62.648125 Z M 40.818375 62.648125 " transform="matrix(1.25,0,0,-1.25,35.77,102.3375)"/>
<path style=" stroke:none;fill-rule:nonzero;fill:rgb(0%,0%,0%);fill-opacity:1;" d="M 106.527344 11.230469 C 106.605469 10.9375 106.644531 10.820312 106.878906 10.78125 C 106.996094 10.761719 107.386719 10.761719 107.640625 10.761719 C 108.519531 10.761719 109.90625 10.761719 109.90625 11.992188 C 109.90625 12.421875 109.710938 13.28125 109.222656 13.769531 C 108.890625 14.082031 108.246094 14.492188 107.113281 14.492188 L 105.726562 14.492188 L 106.527344 11.230469 Z M 108.324219 14.648438 C 109.59375 14.375 111.058594 13.496094 111.058594 12.246094 C 111.058594 11.171875 109.945312 10.371094 108.304688 10.371094 L 104.769531 10.371094 C 104.515625 10.371094 104.398438 10.371094 104.398438 10.625 C 104.398438 10.761719 104.515625 10.761719 104.75 10.761719 C 104.769531 10.761719 105.003906 10.761719 105.21875 10.78125 C 105.453125 10.820312 105.550781 10.820312 105.550781 10.996094 C 105.550781 11.035156 105.550781 11.074219 105.511719 11.230469 L 103.832031 17.910156 C 103.714844 18.398438 103.695312 18.496094 102.699219 18.496094 C 102.484375 18.496094 102.367188 18.496094 102.367188 18.75 C 102.367188 18.886719 102.523438 18.886719 102.542969 18.886719 C 102.894531 18.886719 103.773438 18.847656 104.105469 18.847656 C 104.457031 18.847656 105.355469 18.886719 105.707031 18.886719 C 105.804688 18.886719 105.941406 18.886719 105.941406 18.632812 C 105.941406 18.496094 105.84375 18.496094 105.589844 18.496094 C 105.140625 18.496094 104.789062 18.496094 104.789062 18.28125 C 104.789062 18.203125 104.808594 18.144531 104.828125 18.066406 L 105.648438 14.765625 L 107.132812 14.765625 C 108.265625 14.765625 108.480469 15.46875 108.480469 15.898438 C 108.480469 16.074219 108.382812 16.464844 108.304688 16.757812 C 108.226562 17.109375 108.109375 17.558594 108.109375 17.8125 C 108.109375 19.160156 109.613281 19.160156 109.769531 19.160156 C 110.824219 19.160156 111.273438 17.910156 111.273438 17.734375 C 111.273438 17.578125 111.136719 17.578125 111.117188 17.578125 C 111 17.578125 110.980469 17.65625 110.960938 17.753906 C 110.648438 18.671875 110.101562 18.886719 109.828125 18.886719 C 109.417969 18.886719 109.320312 18.613281 109.320312 18.125 C 109.320312 17.734375 109.398438 17.109375 109.457031 16.699219 C 109.476562 16.523438 109.496094 16.289062 109.496094 16.113281 C 109.496094 15.15625 108.65625 14.765625 108.324219 14.648438 Z M 108.324219 14.648438 "/>
<path style="fill:none;stroke-width:0.3985;stroke-linecap:butt;stroke-linejoin:miter;stroke:rgb(0%,0%,0%);stroke-opacity:1;stroke-miterlimit:10;" d="M 113.387125 56.695 L 113.387125 32.316875 M 113.387125 24.379375 L 113.387125 -0.001875 " transform="matrix(1.25,0,0,-1.25,35.77,102.3375)"/>
<path style="fill:none;stroke-width:0.797;stroke-linecap:butt;stroke-linejoin:miter;stroke:rgb(0%,0%,0%);stroke-opacity:1;stroke-miterlimit:10;" d="M 125.293375 32.316875 L 101.480875 32.316875 M 125.293375 24.379375 L 101.480875 24.379375 " transform="matrix(1.25,0,0,-1.25,35.77,102.3375)"/>
<path style=" stroke:none;fill-rule:nonzero;fill:rgb(0%,0%,0%);fill-opacity:1;" d="M 156.414062 62.507812 C 156.414062 62.46875 156.394531 62.371094 156.277344 62.371094 C 156.238281 62.371094 156.21875 62.390625 156.082031 62.527344 L 155.222656 63.484375 C 155.105469 63.308594 154.539062 62.371094 153.152344 62.371094 C 150.359375 62.371094 147.566406 65.125 147.566406 68.015625 C 147.566406 70.066406 149.03125 71.433594 150.945312 71.433594 C 152.019531 71.433594 152.976562 70.945312 153.640625 70.359375 C 154.792969 69.34375 155.007812 68.210938 155.007812 68.171875 C 155.007812 68.035156 154.871094 68.035156 154.851562 68.035156 C 154.773438 68.035156 154.714844 68.074219 154.695312 68.171875 C 154.578125 68.523438 154.285156 69.421875 153.425781 70.144531 C 152.566406 70.828125 151.785156 71.042969 151.140625 71.042969 C 150.027344 71.042969 148.699219 70.398438 148.699219 68.464844 C 148.699219 67.742188 148.953125 65.730469 150.203125 64.265625 C 150.964844 63.386719 152.136719 62.761719 153.25 62.761719 C 154.519531 62.761719 155.261719 63.71875 155.261719 65.164062 C 155.261719 65.671875 155.222656 65.671875 155.222656 65.808594 C 155.222656 65.925781 155.359375 65.925781 155.398438 65.925781 C 155.554688 65.925781 155.554688 65.90625 155.632812 65.671875 L 156.414062 62.507812 Z M 156.414062 62.507812 "/>
<path style="fill:none;stroke-width:0.3985;stroke-linecap:butt;stroke-linejoin:miter;stroke:rgb(0%,0%,0%);stroke-opacity:1;stroke-miterlimit:10;" d="M 113.387125 -0.001875 L -0.000375 -0.001875 " transform="matrix(1.25,0,0,-1.25,35.77,102.3375)"/>
<path style="fill:none;stroke-width:0.3985;stroke-linecap:butt;stroke-linejoin:miter;stroke:rgb(0%,0%,0%);stroke-opacity:1;stroke-miterlimit:10;" d="M 136.062125 -0.001875 L 136.062125 55.885625 " transform="matrix(1.25,0,0,-1.25,35.77,102.3375)"/>
<path style="fill-rule:nonzero;fill:rgb(0%,0%,0%);fill-opacity:1;stroke-width:0.3985;stroke-linecap:butt;stroke-linejoin:miter;stroke:rgb(0%,0%,0%);stroke-opacity:1;stroke-miterlimit:10;" d="M -5.20217 2.33701 L 0.29783 0.002635 L -5.20217 -2.334865 L -5.20217 2.33701 Z M -5.20217 2.33701 " transform="matrix(0,-1.25,-1.25,0,205.85095,32.481663)"/>
<path style=" stroke:none;fill-rule:nonzero;fill:rgb(0%,0%,0%);fill-opacity:1;" d="M 216.089844 63.710938 C 216.089844 63.027344 215.757812 62.832031 215.542969 62.832031 C 215.230469 62.832031 214.917969 63.164062 214.917969 63.4375 C 214.917969 63.59375 214.976562 63.671875 215.113281 63.808594 C 215.386719 64.0625 215.542969 64.375 215.542969 64.824219 C 215.542969 65.351562 214.78125 68.203125 213.335938 68.203125 C 212.691406 68.203125 212.398438 67.773438 212.398438 67.109375 C 212.398438 66.425781 212.75 65.507812 213.121094 64.472656 C 213.21875 64.257812 213.277344 64.082031 213.277344 63.847656 C 213.277344 63.300781 212.886719 62.832031 212.261719 62.832031 C 211.089844 62.832031 210.621094 64.648438 210.621094 64.746094 C 210.621094 64.882812 210.738281 64.882812 210.757812 64.882812 C 210.894531 64.882812 210.894531 64.84375 210.953125 64.648438 C 211.324219 63.398438 211.851562 63.105469 212.222656 63.105469 C 212.320312 63.105469 212.535156 63.105469 212.535156 63.496094 C 212.535156 63.808594 212.398438 64.160156 212.320312 64.375 C 211.773438 65.820312 211.617188 66.386719 211.617188 66.933594 C 211.617188 68.28125 212.710938 68.476562 213.277344 68.476562 C 215.367188 68.476562 216.089844 64.355469 216.089844 63.710938 Z M 216.089844 63.710938 "/>
<path style="fill:none;stroke-width:0.398;stroke-linecap:butt;stroke-linejoin:miter;stroke:rgb(0%,0%,0%);stroke-opacity:1;stroke-miterlimit:10;" d="M 0.001 0.001375 L 5.1885 0.001375 " transform="matrix(1.25,0,0,-1.25,210.24875,70.08375)"/>
<path style=" stroke:none;fill-rule:nonzero;fill:rgb(0%,0%,0%);fill-opacity:1;" d="M 222.558594 66.925781 C 222.34375 66.984375 222.1875 67.160156 222.1875 67.335938 C 222.1875 67.550781 222.363281 67.628906 222.480469 67.628906 C 222.578125 67.628906 222.910156 67.570312 222.910156 67.121094 C 222.910156 66.554688 222.285156 66.359375 221.738281 66.359375 C 220.390625 66.359375 220.136719 67.375 220.136719 67.628906 C 220.136719 67.960938 220.332031 68.175781 220.449219 68.273438 C 220.664062 68.449219 220.820312 68.488281 221.425781 68.585938 C 221.621094 68.625 222.167969 68.722656 222.167969 69.152344 C 222.167969 69.308594 222.070312 69.640625 221.71875 69.855469 C 221.367188 70.050781 220.9375 70.050781 220.839844 70.050781 C 220.488281 70.050781 220 69.972656 219.785156 69.679688 C 220.078125 69.640625 220.273438 69.425781 220.273438 69.191406 C 220.273438 68.976562 220.117188 68.859375 219.941406 68.859375 C 219.6875 68.859375 219.433594 69.074219 219.433594 69.445312 C 219.433594 69.972656 219.980469 70.285156 220.820312 70.285156 C 222.441406 70.285156 222.734375 69.191406 222.734375 68.859375 C 222.734375 68.058594 221.855469 67.902344 221.523438 67.84375 C 221.445312 67.824219 221.230469 67.785156 221.171875 67.765625 C 220.859375 67.707031 220.703125 67.53125 220.703125 67.335938 C 220.703125 67.140625 220.859375 66.90625 221.054688 66.769531 C 221.289062 66.632812 221.582031 66.613281 221.738281 66.613281 C 221.914062 66.613281 222.363281 66.632812 222.558594 66.925781 Z M 222.558594 66.925781 "/>
<path style="fill:none;stroke-width:0.3985;stroke-linecap:butt;stroke-linejoin:miter;stroke:rgb(0%,0%,0%);stroke-opacity:1;stroke-miterlimit:10;" d="M -5.67225 -0.001875 L -5.67225 55.885625 " transform="matrix(1.25,0,0,-1.25,35.77,102.3375)"/>
<path style="fill-rule:nonzero;fill:rgb(0%,0%,0%);fill-opacity:1;stroke-width:0.3985;stroke-linecap:butt;stroke-linejoin:miter;stroke:rgb(0%,0%,0%);stroke-opacity:1;stroke-miterlimit:10;" d="M -5.20217 2.337355 L 0.29783 0.00298 L -5.20217 -2.33452 L -5.20217 2.337355 Z M -5.20217 2.337355 " transform="matrix(0,-1.25,-1.25,0,28.683412,32.481663)"/>
<path style=" stroke:none;fill-rule:nonzero;fill:rgb(0%,0%,0%);fill-opacity:1;" d="M 16.21875 63.710938 C 16.21875 63.027344 15.886719 62.832031 15.671875 62.832031 C 15.359375 62.832031 15.046875 63.164062 15.046875 63.4375 C 15.046875 63.59375 15.105469 63.671875 15.242188 63.808594 C 15.515625 64.0625 15.671875 64.375 15.671875 64.824219 C 15.671875 65.351562 14.910156 68.203125 13.464844 68.203125 C 12.820312 68.203125 12.527344 67.773438 12.527344 67.109375 C 12.527344 66.425781 12.878906 65.507812 13.25 64.472656 C 13.347656 64.257812 13.40625 64.082031 13.40625 63.847656 C 13.40625 63.300781 13.015625 62.832031 12.390625 62.832031 C 11.21875 62.832031 10.75 64.648438 10.75 64.746094 C 10.75 64.882812 10.867188 64.882812 10.886719 64.882812 C 11.023438 64.882812 11.023438 64.84375 11.082031 64.648438 C 11.453125 63.398438 11.980469 63.105469 12.351562 63.105469 C 12.449219 63.105469 12.664062 63.105469 12.664062 63.496094 C 12.664062 63.808594 12.527344 64.160156 12.449219 64.375 C 11.902344 65.820312 11.746094 66.386719 11.746094 66.933594 C 11.746094 68.28125 12.839844 68.476562 13.40625 68.476562 C 15.496094 68.476562 16.21875 64.355469 16.21875 63.710938 Z M 16.21875 63.710938 "/>
<path style="fill:none;stroke-width:0.398;stroke-linecap:butt;stroke-linejoin:miter;stroke:rgb(0%,0%,0%);stroke-opacity:1;stroke-miterlimit:10;" d="M -0.002 0.001375 L 5.1855 0.001375 " transform="matrix(1.25,0,0,-1.25,10.3775,70.08375)"/>
<path style=" stroke:none;fill-rule:nonzero;fill:rgb(0%,0%,0%);fill-opacity:1;" d="M 20.890625 68.214844 C 21.125 68.214844 21.828125 68.195312 22.296875 68.039062 C 22.941406 67.804688 23.058594 67.394531 23.058594 67.140625 C 23.058594 66.652344 22.570312 66.359375 21.984375 66.359375 C 20.929688 66.359375 19.523438 67.160156 19.523438 68.664062 C 19.523438 69.542969 20.070312 70.285156 21.085938 70.285156 C 22.570312 70.285156 23.253906 69.425781 23.253906 69.308594 C 23.253906 69.25 23.175781 69.152344 23.097656 69.152344 C 23.058594 69.152344 23.039062 69.171875 22.960938 69.25 C 22.277344 70.050781 21.261719 70.050781 21.105469 70.050781 C 20.578125 70.050781 20.226562 69.699219 20.226562 68.996094 C 20.226562 68.878906 20.226562 68.703125 20.34375 68.214844 L 20.890625 68.214844 Z M 20.402344 67.980469 C 20.773438 66.710938 21.730469 66.613281 21.984375 66.613281 C 22.355469 66.613281 22.6875 66.808594 22.6875 67.140625 C 22.6875 67.980469 21.203125 67.980469 20.832031 67.980469 L 20.402344 67.980469 Z M 20.402344 67.980469 "/>
</g>
</svg>
