<?xml version="1.0" encoding="UTF-8"?>
<!-- Converted by misc2svg (http://www.network-science.de/tools/misc2svg/) -->
<svg xmlns="http://www.w3.org/2000/svg" xmlns:xlink="http://www.w3.org/1999/xlink" width="201pt" height="190pt" viewBox="0 0 201 190" version="1.1">
<g id="misc2svg">
<path style="fill:none;stroke-width:0.3985;stroke-linecap:butt;stroke-linejoin:miter;stroke:rgb(0%,0%,0%);stroke-opacity:1;stroke-miterlimit:10;" d="M 68.034875 0.003 C 68.034875 12.524875 37.572375 22.678 0.0005 22.678 C -37.5745 22.678 -68.033875 12.524875 -68.033875 0.003 C -68.033875 -12.525125 -37.5745 -22.67825 0.0005 -22.67825 C 37.572375 -22.67825 68.034875 -12.525125 68.034875 0.003 Z M 68.034875 0.003 " transform="matrix(1.25,0,0,-1.25,91.515,98.0975)"/>
<path style="fill:none;stroke-width:0.79701;stroke-linecap:butt;stroke-linejoin:miter;stroke:rgb(0%,0%,0%);stroke-opacity:1;stroke-miterlimit:10;" d="M 0.0005 -68.0345 L 0.0005 63.368625 " transform="matrix(1.25,0,0,-1.25,91.515,98.0975)"/>
<path style=" stroke:none;fill-rule:nonzero;fill:rgb(0%,0%,0%);fill-opacity:1;" d="M 91.515625 13.054688 C 91.191406 14.785156 90.21875 17.585938 89.085938 19.53125 L 93.945312 19.53125 C 92.8125 17.585938 91.839844 14.785156 91.515625 13.054688 "/>
<path style=" stroke:none;fill-rule:nonzero;fill:rgb(0%,0%,0%);fill-opacity:1;" d="M 86.332031 13.414062 L 86.019531 13.414062 C 85.902344 14.878906 85.648438 15.425781 84.203125 15.425781 L 82.71875 15.425781 L 86.195312 10.738281 C 86.3125 10.601562 86.3125 10.582031 86.3125 10.523438 C 86.3125 10.367188 86.195312 10.367188 85.980469 10.367188 L 81.996094 10.367188 L 81.859375 12.378906 L 82.171875 12.378906 C 82.25 11.109375 82.484375 10.640625 83.851562 10.640625 L 85.277344 10.640625 L 81.800781 15.347656 C 81.683594 15.484375 81.683594 15.503906 81.683594 15.5625 C 81.683594 15.738281 81.761719 15.738281 81.996094 15.738281 L 86.117188 15.738281 L 86.332031 13.414062 Z M 86.332031 13.414062 "/>
<path style=" stroke:none;fill-rule:nonzero;fill:rgb(0%,0%,0%);fill-opacity:1;" d="M 93.929688 154.433594 C 93.929688 153.105469 92.816406 152.03125 91.527344 152.03125 C 90.160156 152.03125 89.105469 153.144531 89.105469 154.433594 C 89.105469 155.78125 90.199219 156.855469 91.507812 156.855469 C 92.855469 156.855469 93.929688 155.742188 93.929688 154.433594 Z M 93.929688 154.433594 "/>
<path style=" stroke:none;fill-rule:nonzero;fill:rgb(0%,0%,0%);fill-opacity:1;" d="M 86.414062 146.171875 C 86.414062 143.632812 84.539062 141.601562 82.273438 141.601562 C 80.027344 141.601562 78.132812 143.59375 78.132812 146.171875 C 78.132812 148.730469 80.046875 150.664062 82.273438 150.664062 C 84.539062 150.664062 86.414062 148.691406 86.414062 146.171875 Z M 85.125 145.996094 C 85.125 149.296875 83.425781 150.332031 82.273438 150.332031 C 81.082031 150.332031 79.402344 149.238281 79.402344 145.996094 C 79.402344 142.773438 81.238281 141.914062 82.273438 141.914062 C 83.347656 141.914062 85.125 142.792969 85.125 145.996094 Z M 85.125 145.996094 "/>
<path style=" stroke:none;fill-rule:nonzero;fill:rgb(0%,0%,0%);fill-opacity:1;" d="M 83.121094 176.414062 L 82.808594 176.414062 C 82.691406 177.878906 82.4375 178.425781 80.992188 178.425781 L 79.507812 178.425781 L 82.984375 173.738281 C 83.101562 173.601562 83.101562 173.582031 83.101562 173.523438 C 83.101562 173.367188 82.984375 173.367188 82.769531 173.367188 L 78.785156 173.367188 L 78.648438 175.378906 L 78.960938 175.378906 C 79.039062 174.109375 79.273438 173.640625 80.640625 173.640625 L 82.066406 173.640625 L 78.589844 178.347656 C 78.472656 178.484375 78.472656 178.503906 78.472656 178.5625 C 78.472656 178.738281 78.550781 178.738281 78.785156 178.738281 L 82.90625 178.738281 L 83.121094 176.414062 Z M 83.121094 176.414062 "/>
<path style=" stroke:none;fill-rule:nonzero;fill:rgb(0%,0%,0%);fill-opacity:1;" d="M 86.214844 171.394531 C 86.214844 170.652344 85.921875 170.085938 85.394531 170.085938 C 84.945312 170.085938 84.730469 170.417969 84.730469 170.75 C 84.730469 171.082031 84.945312 171.414062 85.394531 171.414062 C 85.628906 171.414062 85.804688 171.277344 85.882812 171.21875 C 85.902344 171.179688 85.921875 171.179688 85.921875 171.179688 C 85.921875 171.179688 85.941406 171.355469 85.941406 171.394531 C 85.941406 171.804688 85.863281 172.703125 85.082031 173.464844 C 84.925781 173.621094 84.925781 173.640625 84.925781 173.679688 C 84.925781 173.757812 84.984375 173.816406 85.042969 173.816406 C 85.179688 173.816406 86.214844 172.878906 86.214844 171.394531 Z M 86.214844 171.394531 "/>
<path style=" stroke:none;fill-rule:nonzero;fill:rgb(0%,0%,0%);fill-opacity:1;" d="M 150.621094 77.046875 C 150.621094 75.71875 149.507812 74.644531 148.21875 74.644531 C 146.851562 74.644531 145.796875 75.757812 145.796875 77.046875 C 145.796875 78.394531 146.890625 79.46875 148.199219 79.46875 C 149.546875 79.46875 150.621094 78.355469 150.621094 77.046875 Z M 150.621094 77.046875 "/>
<path style=" stroke:none;fill-rule:nonzero;fill:rgb(0%,0%,0%);fill-opacity:1;" d="M 164.273438 92.464844 L 164.273438 92.074219 L 163.960938 92.074219 C 163.003906 92.074219 162.984375 91.9375 162.984375 91.488281 L 162.984375 84.925781 C 162.984375 84.476562 163.003906 84.339844 163.960938 84.339844 L 164.273438 84.339844 L 164.273438 83.949219 L 162.164062 83.949219 C 161.832031 83.949219 161.832031 83.96875 161.753906 84.183594 L 159.019531 91.214844 L 156.324219 84.222656 C 156.207031 83.949219 156.167969 83.949219 155.875 83.949219 L 153.785156 83.949219 L 153.785156 84.339844 L 154.078125 84.339844 C 155.035156 84.339844 155.054688 84.476562 155.054688 84.925781 L 155.054688 91.15625 C 155.054688 91.488281 155.054688 92.074219 153.785156 92.074219 L 153.785156 92.464844 L 155.230469 92.425781 L 156.695312 92.464844 L 156.695312 92.074219 C 155.40625 92.074219 155.40625 91.488281 155.40625 91.15625 L 155.40625 84.4375 L 155.425781 84.4375 L 158.433594 92.191406 C 158.492188 92.347656 158.550781 92.464844 158.667969 92.464844 C 158.804688 92.464844 158.84375 92.367188 158.902344 92.230469 L 161.96875 84.339844 L 161.96875 84.339844 L 161.96875 91.488281 C 161.96875 91.9375 161.949219 92.074219 160.992188 92.074219 L 160.699219 92.074219 L 160.699219 92.464844 C 161.148438 92.425781 162.007812 92.425781 162.496094 92.425781 C 162.964844 92.425781 163.804688 92.425781 164.273438 92.464844 Z M 164.273438 92.464844 "/>
<path style=" stroke:none;fill-rule:nonzero;fill:rgb(0%,0%,0%);fill-opacity:1;" d="M 93.929688 97.738281 C 93.929688 96.410156 92.816406 95.335938 91.527344 95.335938 C 90.160156 95.335938 89.105469 96.449219 89.105469 97.738281 C 89.105469 99.085938 90.199219 100.160156 91.507812 100.160156 C 92.855469 100.160156 93.929688 99.046875 93.929688 97.738281 Z M 93.929688 97.738281 "/>
<path style=" stroke:none;fill-rule:nonzero;fill:rgb(0%,0%,0%);fill-opacity:1;" d="M 86.703125 93.699219 L 86.703125 93.308594 L 86.390625 93.308594 C 85.433594 93.308594 85.414062 93.171875 85.414062 92.722656 L 85.414062 86.160156 C 85.414062 85.710938 85.433594 85.574219 86.390625 85.574219 L 86.703125 85.574219 L 86.703125 85.183594 C 86.253906 85.222656 85.335938 85.222656 84.867188 85.222656 C 84.398438 85.222656 83.460938 85.222656 83.03125 85.183594 L 83.03125 85.574219 L 83.324219 85.574219 C 84.28125 85.574219 84.300781 85.710938 84.300781 86.160156 L 84.300781 89.070312 L 80.589844 89.070312 L 80.589844 86.160156 C 80.589844 85.710938 80.609375 85.574219 81.566406 85.574219 L 81.859375 85.574219 L 81.859375 85.183594 C 81.429688 85.222656 80.511719 85.222656 80.023438 85.222656 C 79.554688 85.222656 78.617188 85.222656 78.1875 85.183594 L 78.1875 85.574219 L 78.480469 85.574219 C 79.4375 85.574219 79.476562 85.710938 79.476562 86.160156 L 79.476562 92.722656 C 79.476562 93.171875 79.4375 93.308594 78.480469 93.308594 L 78.1875 93.308594 L 78.1875 93.699219 C 78.617188 93.660156 79.554688 93.660156 80.023438 93.660156 C 80.492188 93.660156 81.429688 93.660156 81.859375 93.699219 L 81.859375 93.308594 L 81.566406 93.308594 C 80.609375 93.308594 80.589844 93.171875 80.589844 92.722656 L 80.589844 89.460938 L 84.300781 89.460938 L 84.300781 92.722656 C 84.300781 93.171875 84.28125 93.308594 83.324219 93.308594 L 83.03125 93.308594 L 83.03125 93.699219 C 83.460938 93.660156 84.378906 93.660156 84.847656 93.660156 C 85.335938 93.660156 86.253906 93.660156 86.703125 93.699219 Z M 86.703125 93.699219 "/>
<path style="fill:none;stroke-width:0.99628;stroke-linecap:butt;stroke-linejoin:miter;stroke:rgb(0%,0%,0%);stroke-opacity:1;stroke-miterlimit:10;" d="M -5.66825 54.428 C -7.5495 52.256125 -6.433875 49.481125 -3.18075 48.231125 C 0.078625 46.978 4.238 47.72175 6.116125 49.893625 C 7.33175 51.293625 7.33175 53.02175 8.009875 52.237375 " transform="matrix(1.25,0,0,-1.25,91.515,98.0975)"/>
<path style=" stroke:none;fill-rule:nonzero;fill:rgb(0%,0%,0%);fill-opacity:1;" d="M 99.160156 30.0625 L 100.761719 36.34375 L 101.527344 32.804688 L 105.140625 32.546875 "/>
<path style=" stroke:none;fill-rule:nonzero;fill:rgb(0%,0%,0%);fill-opacity:1;" d="M 83.410156 47.253906 C 83.546875 46.707031 83.683594 46.082031 83.683594 45.59375 C 83.683594 45.261719 83.625 44.988281 83.449219 44.832031 C 83.371094 44.753906 83.273438 44.714844 83.15625 44.714844 C 83 44.714844 82.84375 44.792969 82.726562 44.910156 C 82.609375 45.046875 82.550781 45.183594 82.550781 45.320312 C 82.550781 45.4375 82.589844 45.535156 82.6875 45.632812 C 83 45.90625 83.15625 46.277344 83.15625 46.726562 C 83.15625 46.863281 83.136719 47.039062 83.097656 47.175781 C 82.824219 48.308594 82.101562 49.460938 81.105469 49.460938 C 80.421875 49.460938 80.011719 48.992188 79.894531 48.347656 C 80.050781 47.996094 80.167969 47.625 80.265625 47.253906 C 80.285156 47.136719 80.304688 47.019531 80.304688 46.921875 C 80.304688 46.726562 80.246094 46.589844 80.070312 46.589844 C 79.835938 46.589844 79.71875 46.902344 79.660156 47.175781 C 79.5625 47.566406 79.503906 47.9375 79.484375 48.308594 C 79.074219 48.972656 78.488281 49.460938 77.804688 49.460938 C 77.042969 49.460938 76.710938 48.835938 76.710938 48.054688 C 76.710938 47.800781 76.75 47.527344 76.808594 47.253906 C 77.003906 46.492188 77.453125 45.808594 77.921875 45.144531 C 77.960938 45.085938 77.980469 45.027344 77.980469 44.96875 C 77.980469 44.910156 77.941406 44.832031 77.863281 44.792969 C 77.824219 44.773438 77.804688 44.773438 77.765625 44.773438 C 77.6875 44.773438 77.589844 44.8125 77.53125 44.890625 C 77.023438 45.59375 76.710938 46.394531 76.515625 47.175781 C 76.378906 47.664062 76.320312 48.132812 76.320312 48.582031 C 76.320312 49.578125 76.691406 50.359375 77.628906 50.359375 C 78.410156 50.359375 79.074219 49.8125 79.542969 49.03125 C 79.679688 49.8125 80.109375 50.359375 80.949219 50.359375 C 82.238281 50.359375 83.039062 48.757812 83.410156 47.253906 Z M 83.410156 47.253906 "/>
<path style="fill:none;stroke-width:1.19553;stroke-linecap:butt;stroke-linejoin:miter;stroke:rgb(0%,0%,0%);stroke-opacity:1;stroke-miterlimit:10;" d="M 45.353625 16.556125 L 67.184875 24.7405 " transform="matrix(1.25,0,0,-1.25,91.515,98.0975)"/>
<path style=" stroke:none;fill-rule:nonzero;fill:rgb(0%,0%,0%);fill-opacity:1;" d="M 182.226562 64.648438 C 180.09375 65.023438 176.429688 65.117188 173.703125 64.648438 L 175.800781 70.253906 C 177.554688 68.105469 180.371094 65.773438 182.226562 64.648438 "/>
<path style=" stroke:none;fill-rule:nonzero;fill:rgb(0%,0%,0%);fill-opacity:1;" d="M 182.4375 76.304688 C 182.4375 76.070312 182.203125 76.070312 182.027344 76.070312 L 175.230469 76.070312 C 175.054688 76.070312 174.820312 76.070312 174.820312 76.304688 C 174.820312 76.558594 175.054688 76.558594 175.230469 76.558594 L 182.027344 76.558594 C 182.203125 76.558594 182.4375 76.558594 182.4375 76.304688 Z M 182.4375 76.304688 "/>
<path style=" stroke:none;fill-rule:nonzero;fill:rgb(0%,0%,0%);fill-opacity:1;" d="M 189.972656 76.304688 C 189.972656 76.246094 189.914062 76.207031 189.875 76.1875 C 188.527344 75.71875 187.550781 74.566406 187.316406 73.179688 C 187.296875 73.121094 187.238281 73.0625 187.179688 73.0625 L 186.945312 73.0625 C 186.867188 73.0625 186.808594 73.121094 186.808594 73.21875 C 187.003906 74.371094 187.667969 75.386719 188.585938 76.070312 L 179.152344 76.070312 C 178.996094 76.070312 178.898438 76.1875 178.898438 76.304688 C 178.898438 76.441406 178.996094 76.558594 179.152344 76.558594 L 188.585938 76.558594 C 187.667969 77.242188 187.003906 78.257812 186.808594 79.410156 C 186.808594 79.507812 186.867188 79.566406 186.945312 79.566406 L 187.179688 79.566406 C 187.238281 79.566406 187.296875 79.507812 187.316406 79.449219 C 187.550781 78.0625 188.527344 76.910156 189.875 76.441406 C 189.914062 76.421875 189.972656 76.382812 189.972656 76.304688 Z M 189.972656 76.304688 "/>
<path style=" stroke:none;fill-rule:nonzero;fill:rgb(0%,0%,0%);fill-opacity:1;" d="M 182.847656 80.71875 L 183.101562 78.550781 C 183.140625 78.21875 183.082031 78.21875 182.769531 78.21875 L 176.65625 78.21875 C 176.421875 78.21875 176.285156 78.21875 176.285156 78.472656 C 176.285156 78.609375 176.402344 78.609375 176.636719 78.609375 C 177.105469 78.609375 177.457031 78.609375 177.457031 78.824219 C 177.457031 78.882812 177.457031 78.902344 177.378906 79.136719 L 175.738281 85.71875 C 175.621094 86.207031 175.601562 86.304688 174.605469 86.304688 C 174.390625 86.304688 174.253906 86.304688 174.253906 86.539062 C 174.253906 86.695312 174.410156 86.695312 174.449219 86.695312 L 176.089844 86.65625 L 177.945312 86.695312 C 178.0625 86.695312 178.199219 86.695312 178.199219 86.460938 C 178.199219 86.363281 178.140625 86.324219 178.140625 86.324219 C 178.101562 86.304688 178.0625 86.304688 177.789062 86.304688 C 177.515625 86.304688 177.457031 86.304688 177.144531 86.285156 C 176.773438 86.246094 176.734375 86.1875 176.734375 86.03125 C 176.734375 86.03125 176.734375 85.933594 176.792969 85.757812 L 177.554688 82.652344 L 178.765625 82.652344 C 179.703125 82.652344 179.800781 82.847656 179.800781 83.199219 C 179.800781 83.296875 179.800781 83.433594 179.722656 83.824219 C 179.683594 83.882812 179.683594 83.960938 179.683594 83.960938 C 179.683594 84.058594 179.761719 84.097656 179.820312 84.097656 C 179.957031 84.097656 179.957031 84.058594 180.015625 83.84375 L 180.699219 81.128906 C 180.738281 80.992188 180.738281 80.972656 180.738281 80.933594 C 180.738281 80.933594 180.71875 80.796875 180.582031 80.796875 C 180.464844 80.796875 180.445312 80.855469 180.40625 81.070312 C 180.132812 82.027344 179.859375 82.261719 178.785156 82.261719 L 177.652344 82.261719 L 178.453125 79.097656 C 178.570312 78.648438 178.589844 78.609375 179.136719 78.609375 L 180.777344 78.609375 C 182.300781 78.609375 182.59375 79.019531 182.59375 79.976562 C 182.59375 80.269531 182.59375 80.308594 182.554688 80.660156 C 182.535156 80.816406 182.535156 80.835938 182.535156 80.875 C 182.535156 80.933594 182.574219 81.03125 182.691406 81.03125 C 182.828125 81.03125 182.828125 80.953125 182.847656 80.71875 Z M 182.847656 80.71875 "/>
<path style=" stroke:none;fill-rule:nonzero;fill:rgb(0%,0%,0%);fill-opacity:1;" d="M 184.625 83.113281 C 184.625 82.976562 184.507812 82.78125 184.273438 82.78125 C 184.039062 82.78125 183.785156 83.015625 183.785156 83.269531 C 183.785156 83.40625 183.882812 83.601562 184.136719 83.601562 C 184.371094 83.601562 184.625 83.347656 184.625 83.113281 Z M 184.839844 87.3125 C 184.839844 87.195312 184.722656 87.195312 184.703125 87.195312 C 184.585938 87.195312 184.566406 87.253906 184.527344 87.351562 C 184.332031 88.054688 183.960938 88.40625 183.609375 88.40625 C 183.433594 88.40625 183.394531 88.289062 183.394531 88.09375 C 183.394531 87.898438 183.453125 87.742188 183.53125 87.546875 L 183.804688 86.84375 L 184.234375 85.730469 C 184.273438 85.652344 184.292969 85.554688 184.292969 85.457031 C 184.292969 85.046875 183.941406 84.714844 183.472656 84.714844 C 182.59375 84.714844 182.203125 85.90625 182.203125 86.0625 C 182.203125 86.160156 182.320312 86.160156 182.359375 86.160156 C 182.476562 86.160156 182.476562 86.121094 182.515625 86.023438 C 182.730469 85.28125 183.121094 84.96875 183.433594 84.96875 C 183.570312 84.96875 183.648438 85.027344 183.648438 85.261719 C 183.648438 85.476562 183.609375 85.59375 183.394531 86.140625 L 182.847656 87.546875 C 182.808594 87.664062 182.769531 87.761719 182.769531 87.917969 C 182.769531 88.328125 183.101562 88.640625 183.589844 88.640625 C 184.449219 88.640625 184.839844 87.449219 184.839844 87.3125 Z M 184.839844 87.3125 "/>
<path style=" stroke:none;fill-rule:nonzero;fill:rgb(0%,0%,0%);fill-opacity:1;" d="M 189.632812 87.664062 C 189.632812 87.605469 189.554688 87.507812 189.476562 87.507812 C 189.4375 87.507812 189.417969 87.527344 189.339844 87.605469 C 188.65625 88.40625 187.640625 88.40625 187.484375 88.40625 C 186.957031 88.40625 186.605469 88.054688 186.605469 87.351562 C 186.605469 87.234375 186.605469 87.058594 186.722656 86.570312 L 187.269531 86.570312 C 187.503906 86.570312 188.207031 86.550781 188.675781 86.394531 C 189.320312 86.160156 189.4375 85.75 189.4375 85.496094 C 189.4375 85.007812 188.949219 84.714844 188.363281 84.714844 C 187.308594 84.714844 185.902344 85.515625 185.902344 87.019531 C 185.902344 87.898438 186.449219 88.640625 187.464844 88.640625 C 188.949219 88.640625 189.632812 87.78125 189.632812 87.664062 Z M 189.066406 85.496094 C 189.066406 86.335938 187.582031 86.335938 187.210938 86.335938 L 186.78125 86.335938 C 187.152344 85.066406 188.109375 84.96875 188.363281 84.96875 C 188.734375 84.96875 189.066406 85.164062 189.066406 85.496094 Z M 189.066406 85.496094 "/>
<path style="fill:none;stroke-width:1.19553;stroke-linecap:butt;stroke-linejoin:miter;stroke:rgb(0%,0%,0%);stroke-opacity:1;stroke-miterlimit:10;" d="M 45.353625 16.556125 L 23.522375 8.368625 " transform="matrix(1.25,0,0,-1.25,91.515,98.0975)"/>
<path style=" stroke:none;fill-rule:nonzero;fill:rgb(0%,0%,0%);fill-opacity:1;" d="M 114.195312 90.160156 C 116.328125 89.785156 119.984375 89.691406 122.71875 90.160156 L 120.617188 84.554688 C 118.863281 86.703125 116.046875 89.039062 114.195312 90.160156 "/>
<path style=" stroke:none;fill-rule:nonzero;fill:rgb(0%,0%,0%);fill-opacity:1;" d="M 116.046875 101.816406 C 116.046875 101.582031 115.8125 101.582031 115.636719 101.582031 L 108.839844 101.582031 C 108.664062 101.582031 108.429688 101.582031 108.429688 101.816406 C 108.429688 102.070312 108.664062 102.070312 108.839844 102.070312 L 115.636719 102.070312 C 115.8125 102.070312 116.046875 102.070312 116.046875 101.816406 Z M 116.046875 101.816406 "/>
<path style=" stroke:none;fill-rule:nonzero;fill:rgb(0%,0%,0%);fill-opacity:1;" d="M 120.296875 101.816406 C 120.296875 101.757812 120.238281 101.71875 120.199219 101.699219 C 118.851562 101.230469 117.875 100.078125 117.640625 98.691406 C 117.621094 98.632812 117.5625 98.574219 117.503906 98.574219 L 117.269531 98.574219 C 117.191406 98.574219 117.132812 98.632812 117.132812 98.730469 C 117.328125 99.882812 117.992188 100.898438 118.910156 101.582031 L 109.476562 101.582031 C 109.320312 101.582031 109.222656 101.699219 109.222656 101.816406 C 109.222656 101.953125 109.320312 102.070312 109.476562 102.070312 L 118.910156 102.070312 C 117.992188 102.753906 117.328125 103.769531 117.132812 104.921875 C 117.132812 105.019531 117.191406 105.078125 117.269531 105.078125 L 117.503906 105.078125 C 117.5625 105.078125 117.621094 105.019531 117.640625 104.960938 C 117.875 103.574219 118.851562 102.421875 120.199219 101.953125 C 120.238281 101.933594 120.296875 101.894531 120.296875 101.816406 Z M 120.296875 101.816406 "/>
<path style=" stroke:none;fill-rule:nonzero;fill:rgb(0%,0%,0%);fill-opacity:1;" d="M 116.457031 106.230469 L 116.710938 104.0625 C 116.75 103.730469 116.691406 103.730469 116.378906 103.730469 L 110.265625 103.730469 C 110.03125 103.730469 109.894531 103.730469 109.894531 103.984375 C 109.894531 104.121094 110.011719 104.121094 110.246094 104.121094 C 110.714844 104.121094 111.066406 104.121094 111.066406 104.335938 C 111.066406 104.394531 111.066406 104.414062 110.988281 104.648438 L 109.347656 111.230469 C 109.230469 111.71875 109.210938 111.816406 108.214844 111.816406 C 108 111.816406 107.863281 111.816406 107.863281 112.050781 C 107.863281 112.207031 108.019531 112.207031 108.058594 112.207031 L 109.699219 112.167969 L 111.554688 112.207031 C 111.671875 112.207031 111.808594 112.207031 111.808594 111.972656 C 111.808594 111.875 111.75 111.835938 111.75 111.835938 C 111.710938 111.816406 111.671875 111.816406 111.398438 111.816406 C 111.125 111.816406 111.066406 111.816406 110.753906 111.796875 C 110.382812 111.757812 110.34375 111.699219 110.34375 111.542969 C 110.34375 111.542969 110.34375 111.445312 110.402344 111.269531 L 111.164062 108.164062 L 112.375 108.164062 C 113.3125 108.164062 113.410156 108.359375 113.410156 108.710938 C 113.410156 108.808594 113.410156 108.945312 113.332031 109.335938 C 113.292969 109.394531 113.292969 109.472656 113.292969 109.472656 C 113.292969 109.570312 113.371094 109.609375 113.429688 109.609375 C 113.566406 109.609375 113.566406 109.570312 113.625 109.355469 L 114.308594 106.640625 C 114.347656 106.503906 114.347656 106.484375 114.347656 106.445312 C 114.347656 106.445312 114.328125 106.308594 114.191406 106.308594 C 114.074219 106.308594 114.054688 106.367188 114.015625 106.582031 C 113.742188 107.539062 113.46875 107.773438 112.394531 107.773438 L 111.261719 107.773438 L 112.0625 104.609375 C 112.179688 104.160156 112.199219 104.121094 112.746094 104.121094 L 114.386719 104.121094 C 115.910156 104.121094 116.203125 104.53125 116.203125 105.488281 C 116.203125 105.78125 116.203125 105.820312 116.164062 106.171875 C 116.144531 106.328125 116.144531 106.347656 116.144531 106.386719 C 116.144531 106.445312 116.183594 106.542969 116.300781 106.542969 C 116.4375 106.542969 116.4375 106.464844 116.457031 106.230469 Z M 116.457031 106.230469 "/>
<path style=" stroke:none;fill-rule:nonzero;fill:rgb(0%,0%,0%);fill-opacity:1;" d="M 119.894531 111.300781 C 119.894531 110.34375 119.777344 109.640625 119.386719 109.035156 C 119.113281 108.644531 118.566406 108.292969 117.882812 108.292969 C 115.851562 108.292969 115.851562 110.675781 115.851562 111.300781 C 115.851562 111.925781 115.851562 114.25 117.882812 114.25 C 119.894531 114.25 119.894531 111.925781 119.894531 111.300781 Z M 119.113281 111.183594 C 119.113281 111.828125 119.113281 112.472656 118.996094 113.019531 C 118.820312 113.820312 118.234375 113.996094 117.882812 113.996094 C 117.472656 113.996094 116.945312 113.761719 116.769531 113.058594 C 116.652344 112.550781 116.652344 111.828125 116.652344 111.183594 C 116.652344 110.539062 116.652344 109.875 116.769531 109.40625 C 116.964844 108.722656 117.511719 108.527344 117.882812 108.527344 C 118.351562 108.527344 118.800781 108.820312 118.957031 109.328125 C 119.09375 109.796875 119.113281 110.421875 119.113281 111.183594 Z M 119.113281 111.183594 "/>
<path style="fill:none;stroke-width:1.19553;stroke-linecap:butt;stroke-linejoin:miter;stroke:rgb(0%,0%,0%);stroke-opacity:1;stroke-miterlimit:10;" d="M 45.353625 16.556125 L 45.353625 38.028 " transform="matrix(1.25,0,0,-1.25,91.515,98.0975)"/>
<path style=" stroke:none;fill-rule:nonzero;fill:rgb(0%,0%,0%);fill-opacity:1;" d="M 148.207031 43.390625 C 147.8125 45.511719 146.617188 48.96875 145.21875 51.359375 L 151.195312 51.359375 C 149.804688 48.96875 148.609375 45.511719 148.207031 43.390625 "/>
<path style=" stroke:none;fill-rule:nonzero;fill:rgb(0%,0%,0%);fill-opacity:1;" d="M 150.632812 28.101562 C 150.632812 27.867188 150.398438 27.867188 150.222656 27.867188 L 143.425781 27.867188 C 143.25 27.867188 143.015625 27.867188 143.015625 28.101562 C 143.015625 28.355469 143.25 28.355469 143.425781 28.355469 L 150.222656 28.355469 C 150.398438 28.355469 150.632812 28.355469 150.632812 28.101562 Z M 150.632812 28.101562 "/>
<path style=" stroke:none;fill-rule:nonzero;fill:rgb(0%,0%,0%);fill-opacity:1;" d="M 153.738281 28.101562 C 153.738281 28.042969 153.679688 28.003906 153.640625 27.984375 C 152.292969 27.515625 151.316406 26.363281 151.082031 24.976562 C 151.0625 24.917969 151.003906 24.859375 150.945312 24.859375 L 150.710938 24.859375 C 150.632812 24.859375 150.574219 24.917969 150.574219 25.015625 C 150.769531 26.167969 151.433594 27.183594 152.351562 27.867188 L 142.917969 27.867188 C 142.761719 27.867188 142.664062 27.984375 142.664062 28.101562 C 142.664062 28.238281 142.761719 28.355469 142.917969 28.355469 L 152.351562 28.355469 C 151.433594 29.039062 150.769531 30.054688 150.574219 31.207031 C 150.574219 31.304688 150.632812 31.363281 150.710938 31.363281 L 150.945312 31.363281 C 151.003906 31.363281 151.0625 31.304688 151.082031 31.246094 C 151.316406 29.859375 152.292969 28.707031 153.640625 28.238281 C 153.679688 28.21875 153.738281 28.179688 153.738281 28.101562 Z M 153.738281 28.101562 "/>
<path style=" stroke:none;fill-rule:nonzero;fill:rgb(0%,0%,0%);fill-opacity:1;" d="M 151.480469 31.597656 C 151.480469 32.027344 151.285156 32.886719 150.796875 33.375 C 150.464844 33.6875 149.820312 34.097656 148.6875 34.097656 L 147.300781 34.097656 L 148.101562 30.835938 C 148.179688 30.542969 148.21875 30.425781 148.453125 30.386719 C 148.570312 30.367188 148.960938 30.367188 149.214844 30.367188 C 150.09375 30.367188 151.480469 30.367188 151.480469 31.597656 Z M 152.847656 37.339844 C 152.847656 37.183594 152.691406 37.183594 152.691406 37.183594 C 152.574219 37.183594 152.554688 37.261719 152.535156 37.359375 C 152.222656 38.277344 151.675781 38.492188 151.402344 38.492188 C 150.992188 38.492188 150.894531 38.21875 150.894531 37.730469 C 150.894531 37.339844 150.972656 36.714844 151.03125 36.304688 C 151.050781 36.128906 151.070312 35.894531 151.070312 35.71875 C 151.070312 34.761719 150.230469 34.371094 149.898438 34.253906 C 151.167969 33.980469 152.632812 33.101562 152.632812 31.851562 C 152.632812 30.777344 151.519531 29.976562 149.878906 29.976562 L 146.34375 29.976562 C 146.089844 29.976562 145.972656 29.976562 145.972656 30.230469 C 145.972656 30.367188 146.089844 30.367188 146.324219 30.367188 C 146.324219 30.367188 146.578125 30.367188 146.792969 30.386719 C 147.027344 30.425781 147.125 30.425781 147.125 30.601562 C 147.125 30.640625 147.125 30.679688 147.085938 30.835938 L 145.40625 37.515625 C 145.289062 38.003906 145.269531 38.101562 144.273438 38.101562 C 144.058594 38.101562 143.941406 38.101562 143.941406 38.355469 C 143.941406 38.492188 144.117188 38.492188 144.117188 38.492188 L 145.679688 38.453125 L 147.28125 38.492188 C 147.378906 38.492188 147.515625 38.492188 147.515625 38.238281 C 147.515625 38.101562 147.417969 38.101562 147.164062 38.101562 C 146.714844 38.101562 146.363281 38.101562 146.363281 37.886719 C 146.363281 37.808594 146.382812 37.75 146.402344 37.671875 L 147.222656 34.371094 L 148.707031 34.371094 C 149.839844 34.371094 150.054688 35.074219 150.054688 35.503906 C 150.054688 35.679688 149.957031 36.070312 149.878906 36.363281 C 149.800781 36.714844 149.683594 37.164062 149.683594 37.417969 C 149.683594 38.765625 151.1875 38.765625 151.34375 38.765625 C 152.398438 38.765625 152.847656 37.515625 152.847656 37.339844 Z M 152.847656 37.339844 "/>
<path style="fill:none;stroke-width:1.19553;stroke-linecap:butt;stroke-linejoin:miter;stroke:rgb(0%,0%,0%);stroke-opacity:1;stroke-miterlimit:10;" d="M 45.353625 16.556125 L 45.353625 -4.918875 " transform="matrix(1.25,0,0,-1.25,91.515,98.0975)"/>
<path style=" stroke:none;fill-rule:nonzero;fill:rgb(0%,0%,0%);fill-opacity:1;" d="M 148.207031 111.421875 C 148.609375 109.296875 149.804688 105.839844 151.195312 103.453125 L 145.21875 103.453125 C 146.617188 105.839844 147.8125 109.296875 148.207031 111.421875 "/>
<path style=" stroke:none;fill-rule:nonzero;fill:rgb(100%,100%,100%);fill-opacity:1;" d="M 138.246094 135.625 L 158.167969 135.625 L 158.167969 116.320312 L 138.246094 116.320312 L 138.246094 135.625 Z M 138.246094 135.625 "/>
<path style=" stroke:none;fill-rule:nonzero;fill:rgb(0%,0%,0%);fill-opacity:1;" d="M 150.632812 121.5 C 150.632812 121.265625 150.398438 121.265625 150.222656 121.265625 L 143.425781 121.265625 C 143.25 121.265625 143.015625 121.265625 143.015625 121.5 C 143.015625 121.753906 143.25 121.753906 143.425781 121.753906 L 150.222656 121.753906 C 150.398438 121.753906 150.632812 121.753906 150.632812 121.5 Z M 150.632812 121.5 "/>
<path style=" stroke:none;fill-rule:nonzero;fill:rgb(0%,0%,0%);fill-opacity:1;" d="M 153.738281 121.5 C 153.738281 121.441406 153.679688 121.402344 153.640625 121.382812 C 152.292969 120.914062 151.316406 119.761719 151.082031 118.375 C 151.0625 118.316406 151.003906 118.257812 150.945312 118.257812 L 150.710938 118.257812 C 150.632812 118.257812 150.574219 118.316406 150.574219 118.414062 C 150.769531 119.566406 151.433594 120.582031 152.351562 121.265625 L 142.917969 121.265625 C 142.761719 121.265625 142.664062 121.382812 142.664062 121.5 C 142.664062 121.636719 142.761719 121.753906 142.917969 121.753906 L 152.351562 121.753906 C 151.433594 122.4375 150.769531 123.453125 150.574219 124.605469 C 150.574219 124.703125 150.632812 124.761719 150.710938 124.761719 L 150.945312 124.761719 C 151.003906 124.761719 151.0625 124.703125 151.082031 124.644531 C 151.316406 123.257812 152.292969 122.105469 153.640625 121.636719 C 153.679688 121.617188 153.738281 121.578125 153.738281 121.5 Z M 153.738281 121.5 "/>
<path style=" stroke:none;fill-rule:nonzero;fill:rgb(0%,0%,0%);fill-opacity:1;" d="M 152.742188 125.265625 C 152.742188 124.289062 151.921875 123.371094 150.28125 123.371094 L 146.257812 123.371094 C 146.023438 123.371094 145.886719 123.371094 145.886719 123.605469 C 145.886719 123.761719 145.984375 123.761719 146.238281 123.761719 C 146.394531 123.761719 146.628906 123.78125 146.765625 123.78125 C 146.980469 123.820312 147.039062 123.839844 147.039062 123.996094 C 147.039062 124.035156 147.039062 124.074219 147 124.230469 L 145.320312 130.910156 C 145.203125 131.398438 145.183594 131.496094 144.1875 131.496094 C 143.992188 131.496094 143.855469 131.496094 143.855469 131.730469 C 143.855469 131.886719 143.992188 131.886719 144.03125 131.886719 L 145.613281 131.847656 L 146.414062 131.867188 C 146.6875 131.867188 146.960938 131.886719 147.214844 131.886719 C 147.3125 131.886719 147.46875 131.886719 147.46875 131.632812 C 147.46875 131.496094 147.351562 131.496094 147.117188 131.496094 C 146.667969 131.496094 146.316406 131.496094 146.316406 131.28125 C 146.316406 131.203125 146.335938 131.144531 146.355469 131.066406 L 147.117188 127.941406 L 149.246094 127.941406 C 151.003906 127.941406 152.742188 126.652344 152.742188 125.265625 Z M 151.589844 124.953125 C 151.589844 125.441406 151.335938 126.515625 150.847656 126.964844 C 150.222656 127.53125 149.480469 127.628906 148.933594 127.628906 L 147.175781 127.628906 L 148.015625 124.230469 C 148.132812 123.800781 148.152344 123.761719 148.699219 123.761719 L 149.890625 123.761719 C 150.925781 123.761719 151.589844 124.09375 151.589844 124.953125 Z M 151.589844 124.953125 "/>
<path style="fill:none;stroke-width:1.19553;stroke-linecap:butt;stroke-linejoin:miter;stroke:rgb(100%,0%,0%);stroke-opacity:1;stroke-miterlimit:10;" d="M 45.353625 16.556125 L 32.41925 22.099875 " transform="matrix(1.25,0,0,-1.25,91.515,98.0975)"/>
<path style=" stroke:none;fill-rule:nonzero;fill:rgb(100%,0%,0%);fill-opacity:1;" d="M 128.363281 68.902344 L 132.984375 74.359375 L 132.039062 70.472656 L 135.503906 68.480469 "/>
<path style=" stroke:none;fill-rule:nonzero;fill:rgb(100%,0%,0%);fill-opacity:1;" d="M 130.792969 54.464844 C 130.792969 54.230469 130.558594 54.230469 130.382812 54.230469 L 123.585938 54.230469 C 123.410156 54.230469 123.175781 54.230469 123.175781 54.464844 C 123.175781 54.71875 123.410156 54.71875 123.585938 54.71875 L 130.382812 54.71875 C 130.558594 54.71875 130.792969 54.71875 130.792969 54.464844 Z M 130.792969 54.464844 "/>
<path style=" stroke:none;fill-rule:nonzero;fill:rgb(100%,0%,0%);fill-opacity:1;" d="M 133.894531 54.464844 C 133.894531 54.40625 133.835938 54.367188 133.796875 54.347656 C 132.449219 53.878906 131.472656 52.726562 131.238281 51.339844 C 131.21875 51.28125 131.160156 51.222656 131.101562 51.222656 L 130.867188 51.222656 C 130.789062 51.222656 130.730469 51.28125 130.730469 51.378906 C 130.925781 52.53125 131.589844 53.546875 132.507812 54.230469 L 123.074219 54.230469 C 122.917969 54.230469 122.820312 54.347656 122.820312 54.464844 C 122.820312 54.601562 122.917969 54.71875 123.074219 54.71875 L 132.507812 54.71875 C 131.589844 55.402344 130.925781 56.417969 130.730469 57.570312 C 130.730469 57.667969 130.789062 57.726562 130.867188 57.726562 L 131.101562 57.726562 C 131.160156 57.726562 131.21875 57.667969 131.238281 57.609375 C 131.472656 56.222656 132.449219 55.070312 133.796875 54.601562 C 133.835938 54.582031 133.894531 54.542969 133.894531 54.464844 Z M 133.894531 54.464844 "/>
<path style=" stroke:none;fill-rule:nonzero;fill:rgb(100%,0%,0%);fill-opacity:1;" d="M 130.023438 62.226562 C 130.023438 62.089844 129.925781 62.089844 129.886719 62.089844 C 129.769531 62.089844 129.75 62.128906 129.691406 62.265625 C 129.164062 63.574219 128.5 63.867188 128.070312 63.867188 C 127.816406 63.867188 127.679688 63.710938 127.679688 63.300781 C 127.679688 62.988281 127.71875 62.910156 127.757812 62.695312 L 128.675781 59.023438 L 129.847656 59.023438 C 130.101562 59.023438 130.238281 59.023438 130.238281 58.769531 C 130.238281 58.632812 130.101562 58.632812 129.886719 58.632812 L 128.792969 58.632812 C 129.242188 56.855469 129.300781 56.621094 129.300781 56.542969 C 129.300781 56.328125 129.144531 56.210938 128.929688 56.210938 C 128.890625 56.210938 128.539062 56.210938 128.441406 56.660156 L 127.953125 58.632812 L 126.78125 58.632812 C 126.527344 58.632812 126.410156 58.632812 126.410156 58.867188 C 126.410156 59.023438 126.507812 59.023438 126.761719 59.023438 L 127.855469 59.023438 C 126.957031 62.558594 126.898438 62.773438 126.898438 62.988281 C 126.898438 63.671875 127.367188 64.140625 128.050781 64.140625 C 129.320312 64.140625 130.023438 62.324219 130.023438 62.226562 Z M 130.023438 62.226562 "/>
<path style="fill:none;stroke-width:1.19553;stroke-linecap:butt;stroke-linejoin:miter;stroke:rgb(100%,0%,0%);stroke-opacity:1;stroke-miterlimit:10;" d="M 45.353625 16.556125 L 32.491125 11.95925 " transform="matrix(1.25,0,0,-1.25,91.515,98.0975)"/>
<path style=" stroke:none;fill-rule:nonzero;fill:rgb(100%,0%,0%);fill-opacity:1;" d="M 128.363281 84.492188 L 135.460938 85.351562 L 132.128906 83.148438 L 133.3125 79.332031 "/>
<path style=" stroke:none;fill-rule:nonzero;fill:rgb(100%,0%,0%);fill-opacity:1;" d="M 136.460938 90.265625 C 136.460938 90.03125 136.226562 90.03125 136.050781 90.03125 L 129.253906 90.03125 C 129.078125 90.03125 128.84375 90.03125 128.84375 90.265625 C 128.84375 90.519531 129.078125 90.519531 129.253906 90.519531 L 136.050781 90.519531 C 136.226562 90.519531 136.460938 90.519531 136.460938 90.265625 Z M 136.460938 90.265625 "/>
<path style=" stroke:none;fill-rule:nonzero;fill:rgb(100%,0%,0%);fill-opacity:1;" d="M 139.5625 90.265625 C 139.5625 90.207031 139.503906 90.167969 139.464844 90.148438 C 138.117188 89.679688 137.140625 88.527344 136.90625 87.140625 C 136.886719 87.082031 136.828125 87.023438 136.769531 87.023438 L 136.535156 87.023438 C 136.457031 87.023438 136.398438 87.082031 136.398438 87.179688 C 136.59375 88.332031 137.257812 89.347656 138.175781 90.03125 L 128.742188 90.03125 C 128.585938 90.03125 128.488281 90.148438 128.488281 90.265625 C 128.488281 90.402344 128.585938 90.519531 128.742188 90.519531 L 138.175781 90.519531 C 137.257812 91.203125 136.59375 92.21875 136.398438 93.371094 C 136.398438 93.46875 136.457031 93.527344 136.535156 93.527344 L 136.769531 93.527344 C 136.828125 93.527344 136.886719 93.46875 136.90625 93.410156 C 137.140625 92.023438 138.117188 90.871094 139.464844 90.402344 C 139.503906 90.382812 139.5625 90.34375 139.5625 90.265625 Z M 139.5625 90.265625 "/>
<path style=" stroke:none;fill-rule:nonzero;fill:rgb(100%,0%,0%);fill-opacity:1;" d="M 137.40625 95.730469 C 137.40625 95.59375 137.308594 95.59375 137.269531 95.59375 C 137.132812 95.59375 137.132812 95.632812 137.074219 95.828125 C 136.820312 96.667969 136.410156 97.371094 135.804688 97.371094 C 135.589844 97.371094 135.511719 97.253906 135.511719 96.960938 C 135.511719 96.648438 135.609375 96.355469 135.726562 96.082031 C 135.960938 95.417969 136.488281 94.050781 136.488281 93.328125 C 136.488281 92.507812 135.960938 92 135.0625 92 C 133.929688 92 133.324219 92.800781 133.109375 93.09375 C 133.050781 92.390625 132.542969 92 131.957031 92 C 131.390625 92 131.15625 92.488281 131.039062 92.703125 C 130.824219 93.132812 130.667969 93.875 130.667969 93.914062 C 130.667969 94.050781 130.804688 94.050781 130.804688 94.050781 C 130.941406 94.050781 130.941406 94.03125 131.019531 93.757812 C 131.234375 92.878906 131.488281 92.273438 131.9375 92.273438 C 132.171875 92.273438 132.308594 92.429688 132.308594 92.839844 C 132.308594 93.113281 132.269531 93.25 132.113281 93.894531 L 131.390625 96.765625 C 131.351562 96.960938 131.273438 97.253906 131.273438 97.3125 C 131.273438 97.527344 131.449219 97.644531 131.644531 97.644531 C 131.800781 97.644531 132.015625 97.546875 132.113281 97.292969 C 132.113281 97.273438 132.269531 96.6875 132.347656 96.375 L 132.621094 95.261719 C 132.679688 94.96875 132.757812 94.695312 132.835938 94.421875 L 132.992188 93.796875 C 133.167969 93.40625 133.832031 92.273438 135.023438 92.273438 C 135.589844 92.273438 135.6875 92.742188 135.6875 93.152344 C 135.6875 93.914062 135.082031 95.515625 134.886719 96.042969 C 134.769531 96.335938 134.75 96.492188 134.75 96.628906 C 134.75 97.214844 135.199219 97.644531 135.785156 97.644531 C 136.957031 97.644531 137.40625 95.828125 137.40625 95.730469 Z M 137.40625 95.730469 "/>
<path style="fill:none;stroke-width:0.3985;stroke-linecap:butt;stroke-linejoin:miter;stroke:rgb(0%,0%,0%);stroke-opacity:1;stroke-dasharray:0.3985,1.99255;stroke-miterlimit:10;" d="M 0.0005 0.003 L 45.353625 16.556125 " transform="matrix(1.25,0,0,-1.25,91.515,98.0975)"/>
</g>
</svg>
