<?xml version="1.0" encoding="UTF-8"?>
<!-- Converted by misc2svg (http://www.network-science.de/tools/misc2svg/) -->
<svg xmlns="http://www.w3.org/2000/svg" xmlns:xlink="http://www.w3.org/1999/xlink" width="123pt" height="139pt" viewBox="0 0 123 139" version="1.1">
<g id="misc2svg">
<path style="fill:none;stroke-width:0.8;stroke-linecap:butt;stroke-linejoin:miter;stroke:rgb(100%,0%,0%);stroke-opacity:1;stroke-miterlimit:4;" d="M 38.78125 85.40625 L 1.58125 85.565625 " transform="matrix(1.25,0,0,1.25,0,0)"/>
<path style="fill-rule:evenodd;fill:rgb(100%,0%,0%);fill-opacity:1;stroke-width:0.399996;stroke-linecap:butt;stroke-linejoin:miter;stroke:rgb(100%,0%,0%);stroke-opacity:1;stroke-miterlimit:4;" d="M -0.806083 -85.572225 L -3.575483 -83.971665 L -3.574187 -87.171659 L -0.806083 -85.572225 Z M -0.806083 -85.572225 " transform="matrix(-1.25,0.00538898,-0.00538898,-1.25,0,0)"/>
<path style="fill:none;stroke-width:0.8;stroke-linecap:butt;stroke-linejoin:miter;stroke:rgb(100%,0%,0%);stroke-opacity:1;stroke-miterlimit:4;" d="M 38.575 34.60625 L 75.778125 34.765625 " transform="matrix(1.25,0,0,1.25,0,0)"/>
<path style="fill-rule:evenodd;fill:rgb(100%,0%,0%);fill-opacity:1;stroke-width:0.399996;stroke-linecap:butt;stroke-linejoin:miter;stroke:rgb(100%,0%,0%);stroke-opacity:1;stroke-miterlimit:4;" d="M 76.332851 34.439665 L 73.561621 36.039113 L 73.56345 32.839105 L 76.332851 34.439665 Z M 76.332851 34.439665 " transform="matrix(1.25,0.00538898,-0.00538898,1.25,0,0)"/>
<path style="fill:none;stroke-width:0.8;stroke-linecap:butt;stroke-linejoin:miter;stroke:rgb(0%,0%,0%);stroke-opacity:1;stroke-miterlimit:4;" d="M 38.65 111.5 L 38.65 1.4625 " transform="matrix(1.25,0,0,1.25,0,0)"/>
<path style="fill-rule:evenodd;fill:rgb(0%,0%,0%);fill-opacity:1;stroke-width:0.8;stroke-linecap:butt;stroke-linejoin:miter;stroke:rgb(0%,0%,0%);stroke-opacity:1;stroke-miterlimit:4;" d="M 9.4625 -38.65 L 12.659375 -41.846875 L 1.4625 -38.65 L 12.659375 -35.44375 L 9.4625 -38.65 Z M 9.4625 -38.65 " transform="matrix(0.000000000000000076,1.25,-1.25,0.000000000000000076,0,0)"/>
<path style=" stroke:none;fill-rule:nonzero;fill:rgb(0%,0%,0%);fill-opacity:1;" d="M 52.105469 43.109375 C 52.105469 45.203125 50.40625 46.90625 48.3125 46.90625 C 46.210938 46.90625 44.511719 45.203125 44.511719 43.109375 C 44.511719 41.015625 46.210938 39.316406 48.3125 39.316406 C 50.40625 39.316406 52.105469 41.015625 52.105469 43.109375 Z M 52.105469 43.109375 "/>
<path style=" stroke:none;fill-rule:nonzero;fill:rgb(0%,0%,0%);fill-opacity:1;" d="M 52.105469 106.679688 C 52.105469 108.78125 50.40625 110.476562 48.3125 110.476562 C 46.210938 110.476562 44.511719 108.78125 44.511719 106.679688 C 44.511719 104.585938 46.210938 102.886719 48.3125 102.886719 C 50.40625 102.886719 52.105469 104.585938 52.105469 106.679688 Z M 52.105469 106.679688 "/>
<path style=" stroke:none;fill-rule:nonzero;fill:rgb(0%,0%,0%);fill-opacity:1;" d="M 58.03125 88.074219 L 60.960938 88.074219 L 67.523438 96.140625 L 67.523438 89.949219 C 67.523438 89.285156 67.449219 88.867188 67.308594 88.699219 C 67.113281 88.476562 66.800781 88.367188 66.371094 88.367188 L 66 88.367188 L 66 88.074219 L 69.75 88.074219 L 69.75 88.367188 L 69.378906 88.367188 C 68.917969 88.367188 68.597656 88.503906 68.402344 88.777344 C 68.285156 88.945312 68.226562 89.335938 68.226562 89.949219 L 68.226562 99.011719 L 67.933594 99.011719 L 60.84375 90.339844 L 60.84375 96.980469 C 60.84375 97.632812 60.910156 98.042969 61.058594 98.210938 C 61.261719 98.433594 61.574219 98.542969 61.996094 98.542969 L 62.367188 98.542969 L 62.367188 98.835938 L 58.636719 98.835938 L 58.636719 98.542969 L 59.007812 98.542969 C 59.460938 98.542969 59.789062 98.40625 59.984375 98.132812 C 60.101562 97.964844 60.160156 97.578125 60.160156 96.980469 L 60.160156 89.480469 C 59.847656 89.117188 59.601562 88.882812 59.4375 88.777344 C 59.28125 88.660156 59.046875 88.550781 58.734375 88.445312 C 58.578125 88.394531 58.34375 88.367188 58.03125 88.367188 L 58.03125 88.074219 Z M 58.03125 88.074219 "/>
<path style=" stroke:none;fill-rule:nonzero;fill:rgb(0%,0%,0%);fill-opacity:1;" d="M 16.585938 29.867188 L 16.585938 32.992188 C 16.585938 33.671875 16.652344 34.09375 16.800781 34.261719 C 16.996094 34.496094 17.296875 34.613281 17.71875 34.613281 L 18.128906 34.613281 L 18.128906 34.90625 L 13.519531 34.90625 L 13.519531 34.613281 L 13.929688 34.613281 C 14.367188 34.613281 14.695312 34.464844 14.90625 34.164062 C 15.007812 34.007812 15.0625 33.617188 15.0625 32.992188 L 15.0625 26.058594 C 15.0625 25.382812 14.988281 24.960938 14.847656 24.789062 C 14.636719 24.554688 14.328125 24.4375 13.929688 24.4375 L 13.519531 24.4375 L 13.519531 24.144531 L 17.464844 24.144531 C 18.425781 24.144531 19.183594 24.25 19.730469 24.457031 C 20.285156 24.652344 20.753906 24.984375 21.136719 25.453125 C 21.511719 25.921875 21.703125 26.476562 21.703125 27.113281 C 21.703125 28 21.414062 28.714844 20.84375 29.261719 C 20.265625 29.808594 19.445312 30.082031 18.382812 30.082031 C 18.117188 30.082031 17.839844 30.070312 17.542969 30.042969 C 17.238281 30.003906 16.921875 29.945312 16.585938 29.867188 Z M 16.585938 29.417969 C 16.859375 29.472656 17.097656 29.511719 17.308594 29.535156 C 17.527344 29.5625 17.71875 29.574219 17.875 29.574219 C 18.429688 29.574219 18.910156 29.367188 19.300781 28.949219 C 19.699219 28.519531 19.90625 27.96875 19.90625 27.289062 C 19.90625 26.820312 19.808594 26.386719 19.613281 25.980469 C 19.425781 25.578125 19.164062 25.277344 18.8125 25.082031 C 18.460938 24.886719 18.058594 24.789062 17.621094 24.789062 C 17.347656 24.789062 17 24.84375 16.585938 24.945312 L 16.585938 29.417969 Z M 16.585938 29.417969 "/>
<path style=" stroke:none;fill-rule:nonzero;fill:rgb(0%,0%,0%);fill-opacity:1;" d="M 27.726562 35.082031 L 27.726562 35.277344 C 27.167969 35.003906 26.703125 34.675781 26.339844 34.300781 C 25.820312 33.761719 25.414062 33.136719 25.128906 32.425781 C 24.84375 31.710938 24.699219 30.960938 24.699219 30.179688 C 24.699219 29.046875 24.980469 28.011719 25.539062 27.074219 C 26.097656 26.136719 26.828125 25.46875 27.726562 25.0625 L 27.726562 25.296875 C 27.269531 25.546875 26.898438 25.882812 26.613281 26.3125 C 26.328125 26.742188 26.113281 27.289062 25.96875 27.953125 C 25.824219 28.617188 25.753906 29.316406 25.753906 30.042969 C 25.753906 30.824219 25.8125 31.535156 25.929688 32.171875 C 26.035156 32.679688 26.152344 33.078125 26.28125 33.382812 C 26.410156 33.695312 26.585938 33.988281 26.808594 34.261719 C 27.042969 34.542969 27.347656 34.816406 27.726562 35.082031 Z M 27.726562 35.082031 "/>
<path style=" stroke:none;fill-rule:nonzero;fill:rgb(0%,0%,0%);fill-opacity:1;" d="M 31.039062 32.09375 L 31.039062 29.359375 L 28.304688 29.359375 L 28.304688 28.910156 L 31.039062 28.910156 L 31.039062 26.175781 L 31.488281 26.175781 L 31.488281 28.910156 L 34.242188 28.910156 L 34.242188 29.359375 L 31.488281 29.359375 L 31.488281 32.09375 L 31.039062 32.09375 Z M 31.039062 32.09375 "/>
<path style=" stroke:none;fill-rule:nonzero;fill:rgb(0%,0%,0%);fill-opacity:1;" d="M 39.453125 27.699219 L 39.453125 34.164062 C 39.453125 34.484375 39.472656 34.695312 39.511719 34.789062 C 39.5625 34.875 39.632812 34.949219 39.726562 35.003906 C 39.816406 35.050781 40 35.082031 40.273438 35.082031 L 40.273438 35.277344 L 37.734375 35.277344 L 37.734375 35.082031 L 37.832031 35.082031 C 38.039062 35.082031 38.195312 35.046875 38.300781 34.984375 C 38.378906 34.945312 38.4375 34.871094 38.476562 34.769531 C 38.527344 34.660156 38.554688 34.460938 38.554688 34.164062 L 38.554688 31.996094 C 38.214844 32.402344 37.921875 32.675781 37.675781 32.816406 C 37.425781 32.957031 37.167969 33.03125 36.894531 33.03125 C 36.410156 33.03125 35.976562 32.8125 35.585938 32.367188 C 35.207031 31.925781 35.019531 31.332031 35.019531 30.589844 C 35.019531 29.730469 35.273438 29.035156 35.78125 28.5 C 36.289062 27.96875 36.898438 27.699219 37.617188 27.699219 C 37.824219 27.699219 38.011719 27.734375 38.183594 27.796875 C 38.363281 27.851562 38.519531 27.933594 38.652344 28.050781 C 38.871094 27.949219 39.082031 27.832031 39.277344 27.699219 L 39.453125 27.699219 Z M 38.554688 31.664062 L 38.554688 29.300781 C 38.554688 29.027344 38.515625 28.8125 38.4375 28.65625 C 38.371094 28.488281 38.246094 28.351562 38.066406 28.246094 C 37.882812 28.128906 37.675781 28.070312 37.441406 28.070312 C 37.023438 28.070312 36.664062 28.246094 36.367188 28.597656 C 36.078125 28.949219 35.9375 29.476562 35.9375 30.179688 C 35.9375 30.859375 36.085938 31.371094 36.386719 31.722656 C 36.683594 32.074219 37.050781 32.25 37.480469 32.25 C 37.6875 32.25 37.875 32.207031 38.046875 32.113281 C 38.214844 32.023438 38.382812 31.875 38.554688 31.664062 Z M 38.554688 31.664062 "/>
<path style=" stroke:none;fill-rule:nonzero;fill:rgb(0%,0%,0%);fill-opacity:1;" d="M 40.710938 25.296875 L 40.710938 25.0625 C 41.265625 25.335938 41.730469 25.664062 42.097656 26.039062 C 42.613281 26.574219 43.019531 27.199219 43.308594 27.914062 C 43.589844 28.632812 43.738281 29.378906 43.738281 30.160156 C 43.738281 31.308594 43.453125 32.34375 42.898438 33.265625 C 42.335938 34.203125 41.609375 34.871094 40.710938 35.277344 L 40.710938 35.082031 C 41.164062 34.816406 41.535156 34.476562 41.824219 34.046875 C 42.105469 33.617188 42.320312 33.070312 42.46875 32.40625 C 42.609375 31.742188 42.683594 31.054688 42.683594 30.335938 C 42.683594 29.554688 42.625 28.839844 42.507812 28.1875 C 42.414062 27.695312 42.296875 27.296875 42.15625 26.996094 C 42.023438 26.683594 41.84375 26.390625 41.609375 26.117188 C 41.382812 25.832031 41.085938 25.558594 40.710938 25.296875 Z M 40.710938 25.296875 "/>
<path style=" stroke:none;fill-rule:nonzero;fill:rgb(0%,0%,0%);fill-opacity:1;" d="M 73.351562 98.765625 L 73.351562 98.960938 C 72.789062 98.6875 72.324219 98.359375 71.964844 97.984375 C 71.441406 97.445312 71.035156 96.820312 70.753906 96.109375 C 70.464844 95.394531 70.324219 94.644531 70.324219 93.863281 C 70.324219 92.730469 70.601562 91.695312 71.164062 90.757812 C 71.71875 89.820312 72.453125 89.152344 73.351562 88.746094 L 73.351562 88.980469 C 72.890625 89.230469 72.519531 89.566406 72.238281 89.996094 C 71.949219 90.425781 71.734375 90.972656 71.59375 91.636719 C 71.445312 92.300781 71.378906 93 71.378906 93.726562 C 71.378906 94.507812 71.4375 95.21875 71.554688 95.855469 C 71.65625 96.363281 71.773438 96.761719 71.90625 97.066406 C 72.03125 97.378906 72.207031 97.671875 72.433594 97.945312 C 72.667969 98.226562 72.96875 98.5 73.351562 98.765625 Z M 73.351562 98.765625 "/>
<path style=" stroke:none;fill-rule:nonzero;fill:rgb(0%,0%,0%);fill-opacity:1;" d="M 74.183594 93.628906 L 77.035156 93.628906 L 77.035156 94.449219 L 74.183594 94.449219 L 74.183594 93.628906 Z M 74.183594 93.628906 "/>
<path style=" stroke:none;fill-rule:nonzero;fill:rgb(0%,0%,0%);fill-opacity:1;" d="M 82.417969 91.382812 L 82.417969 97.847656 C 82.417969 98.167969 82.4375 98.378906 82.476562 98.472656 C 82.523438 98.558594 82.597656 98.632812 82.691406 98.6875 C 82.777344 98.734375 82.964844 98.765625 83.238281 98.765625 L 83.238281 98.960938 L 80.699219 98.960938 L 80.699219 98.765625 L 80.796875 98.765625 C 81 98.765625 81.15625 98.730469 81.265625 98.667969 C 81.34375 98.628906 81.402344 98.554688 81.441406 98.453125 C 81.488281 98.34375 81.519531 98.144531 81.519531 97.847656 L 81.519531 95.679688 C 81.175781 96.085938 80.882812 96.359375 80.640625 96.5 C 80.390625 96.640625 80.132812 96.714844 79.859375 96.714844 C 79.375 96.714844 78.941406 96.496094 78.550781 96.050781 C 78.167969 95.609375 77.984375 95.015625 77.984375 94.273438 C 77.984375 93.414062 78.238281 92.71875 78.746094 92.183594 C 79.253906 91.652344 79.863281 91.382812 80.582031 91.382812 C 80.785156 91.382812 80.976562 91.417969 81.148438 91.480469 C 81.328125 91.535156 81.484375 91.617188 81.617188 91.734375 C 81.835938 91.632812 82.046875 91.515625 82.242188 91.382812 L 82.417969 91.382812 Z M 81.519531 95.347656 L 81.519531 92.984375 C 81.519531 92.710938 81.480469 92.496094 81.402344 92.339844 C 81.332031 92.171875 81.210938 92.035156 81.03125 91.929688 C 80.84375 91.8125 80.640625 91.753906 80.40625 91.753906 C 79.984375 91.753906 79.628906 91.929688 79.332031 92.28125 C 79.042969 92.632812 78.902344 93.160156 78.902344 93.863281 C 78.902344 94.542969 79.046875 95.054688 79.351562 95.40625 C 79.648438 95.757812 80.015625 95.933594 80.445312 95.933594 C 80.648438 95.933594 80.839844 95.890625 81.011719 95.796875 C 81.175781 95.707031 81.347656 95.558594 81.519531 95.347656 Z M 81.519531 95.347656 "/>
<path style=" stroke:none;fill-rule:nonzero;fill:rgb(0%,0%,0%);fill-opacity:1;" d="M 83.671875 88.980469 L 83.671875 88.746094 C 84.230469 89.019531 84.691406 89.347656 85.058594 89.722656 C 85.578125 90.257812 85.980469 90.882812 86.269531 91.597656 C 86.554688 92.316406 86.699219 93.0625 86.699219 93.84375 C 86.699219 94.992188 86.417969 96.027344 85.859375 96.949219 C 85.296875 97.886719 84.570312 98.554688 83.671875 98.960938 L 83.671875 98.765625 C 84.125 98.5 84.496094 98.160156 84.785156 97.730469 C 85.070312 97.300781 85.285156 96.753906 85.429688 96.089844 C 85.570312 95.425781 85.644531 94.738281 85.644531 94.019531 C 85.644531 93.238281 85.585938 92.523438 85.46875 91.871094 C 85.375 91.378906 85.257812 90.980469 85.117188 90.679688 C 84.984375 90.367188 84.804688 90.074219 84.570312 89.800781 C 84.347656 89.515625 84.046875 89.242188 83.671875 88.980469 Z M 83.671875 88.980469 "/>
<path style=" stroke:none;fill-rule:nonzero;fill:rgb(0%,0%,0%);fill-opacity:1;" d="M 59.65625 6.296875 L 61.394531 5.613281 L 61.609375 5.613281 L 61.609375 6.902344 C 61.90625 6.421875 62.199219 6.082031 62.488281 5.886719 C 62.769531 5.679688 63.078125 5.574219 63.40625 5.574219 C 63.960938 5.574219 64.429688 5.796875 64.8125 6.238281 C 65.265625 6.773438 65.496094 7.476562 65.496094 8.347656 C 65.496094 9.3125 65.222656 10.105469 64.675781 10.730469 C 64.214844 11.25 63.644531 11.511719 62.957031 11.511719 C 62.644531 11.511719 62.378906 11.460938 62.175781 11.375 C 62.003906 11.308594 61.8125 11.1875 61.609375 11.003906 L 61.609375 12.722656 C 61.609375 13.097656 61.632812 13.335938 61.6875 13.445312 C 61.734375 13.546875 61.8125 13.625 61.921875 13.679688 C 62.039062 13.742188 62.253906 13.777344 62.566406 13.777344 L 62.566406 14.011719 L 59.636719 14.011719 L 59.636719 13.777344 L 59.792969 13.777344 C 60.011719 13.785156 60.203125 13.746094 60.359375 13.660156 C 60.4375 13.605469 60.496094 13.527344 60.535156 13.425781 C 60.582031 13.332031 60.613281 13.082031 60.613281 12.683594 L 60.613281 7.390625 C 60.613281 7.027344 60.59375 6.796875 60.554688 6.707031 C 60.523438 6.601562 60.476562 6.53125 60.398438 6.492188 C 60.328125 6.441406 60.230469 6.414062 60.105469 6.414062 C 60.011719 6.414062 59.890625 6.441406 59.734375 6.492188 L 59.65625 6.296875 Z M 61.609375 7.273438 L 61.609375 9.363281 C 61.609375 9.804688 61.628906 10.097656 61.667969 10.242188 C 61.730469 10.476562 61.871094 10.683594 62.097656 10.867188 C 62.316406 11.050781 62.59375 11.140625 62.9375 11.140625 C 63.335938 11.140625 63.664062 10.984375 63.914062 10.671875 C 64.25 10.253906 64.421875 9.667969 64.421875 8.914062 C 64.421875 8.054688 64.230469 7.398438 63.855469 6.941406 C 63.589844 6.628906 63.277344 6.472656 62.917969 6.472656 C 62.722656 6.472656 62.53125 6.519531 62.351562 6.609375 C 62.195312 6.6875 61.945312 6.910156 61.609375 7.273438 Z M 61.609375 7.273438 "/>
<path style="fill:none;stroke-width:0.8;stroke-linecap:butt;stroke-linejoin:miter;stroke:rgb(0%,0%,0%);stroke-opacity:1;stroke-miterlimit:4;" d="M 46.88125 2.78125 L 52.88125 2.78125 " transform="matrix(1.25,0,0,1.25,0,0)"/>
<path style="fill-rule:evenodd;fill:rgb(0%,0%,0%);fill-opacity:1;stroke-width:0.4;stroke-linecap:butt;stroke-linejoin:miter;stroke:rgb(0%,0%,0%);stroke-opacity:1;stroke-miterlimit:4;" d="M 54.73125 2.78125 L 51.9625 4.38125 L 51.9625 1.18125 L 54.73125 2.78125 Z M 54.73125 2.78125 " transform="matrix(1.25,0,0,1.25,0,0)"/>
<path style="fill-rule:nonzero;fill:rgb(0%,0%,0%);fill-opacity:0.756863;stroke-width:1.3048;stroke-linecap:butt;stroke-linejoin:miter;stroke:rgb(0%,0%,100%);stroke-opacity:1;stroke-miterlimit:4;" d="M 66.878125 17.65 L 96.06875 17.65 " transform="matrix(1.25,0,0,1.25,0,0)"/>
<path style="fill-rule:evenodd;fill:rgb(0%,0%,100%);fill-opacity:1;stroke-width:0.4893;stroke-linecap:butt;stroke-linejoin:round;stroke:rgb(0%,0%,100%);stroke-opacity:1;stroke-miterlimit:4;" d="M -89.246875 -14.49375 L -97.8 -17.6375 L -89.246875 -20.78125 C -90.6125 -18.925 -90.60625 -16.384375 -89.246875 -14.49375 Z M -89.246875 -14.49375 " transform="matrix(-1.25,0.000000000000000153,-0.000000000000000153,-1.25,0,0)"/>
<path style=" stroke:none;fill-rule:nonzero;fill:rgb(0%,0%,100%);fill-opacity:1;" d="M 99.179688 8.292969 L 99.179688 11.652344 L 99.355469 11.652344 C 99.875 11.652344 100.253906 11.488281 100.488281 11.164062 C 100.722656 10.824219 100.871094 10.335938 100.9375 9.699219 L 101.171875 9.699219 L 101.171875 14.035156 L 100.9375 14.035156 C 100.898438 13.566406 100.800781 13.183594 100.644531 12.882812 C 100.488281 12.570312 100.304688 12.367188 100.097656 12.277344 C 99.886719 12.171875 99.582031 12.121094 99.179688 12.121094 L 99.179688 14.445312 C 99.179688 14.902344 99.199219 15.179688 99.238281 15.285156 C 99.277344 15.390625 99.347656 15.472656 99.453125 15.539062 C 99.570312 15.605469 99.746094 15.636719 99.980469 15.636719 L 100.46875 15.636719 C 101.234375 15.636719 101.855469 15.460938 102.324219 15.109375 C 102.792969 14.746094 103.128906 14.191406 103.339844 13.449219 L 103.554688 13.449219 L 103.183594 16.085938 L 96.035156 16.085938 L 96.035156 15.851562 L 96.308594 15.851562 C 96.542969 15.851562 96.738281 15.8125 96.894531 15.734375 C 96.996094 15.667969 97.074219 15.570312 97.128906 15.441406 C 97.179688 15.335938 97.207031 15.078125 97.207031 14.660156 L 97.207031 9.230469 C 97.207031 8.851562 97.191406 8.617188 97.167969 8.527344 C 97.128906 8.382812 97.050781 8.28125 96.933594 8.214844 C 96.789062 8.097656 96.582031 8.039062 96.308594 8.039062 L 96.035156 8.039062 L 96.035156 7.804688 L 102.96875 7.804688 L 102.96875 10.265625 L 102.734375 10.265625 C 102.617188 9.667969 102.445312 9.238281 102.226562 8.976562 C 102.015625 8.714844 101.71875 8.519531 101.328125 8.390625 C 101.09375 8.324219 100.664062 8.292969 100.039062 8.292969 L 99.179688 8.292969 Z M 99.179688 8.292969 "/>
<path style="fill-rule:nonzero;fill:rgb(0%,0%,100%);fill-opacity:1;stroke-width:0.8;stroke-linecap:butt;stroke-linejoin:miter;stroke:rgb(0%,0%,100%);stroke-opacity:1;stroke-miterlimit:4;" d="M 76.8 4.4 L 82.8 4.4 " transform="matrix(1.25,0,0,1.25,0,0)"/>
<path style="fill-rule:evenodd;fill:rgb(0%,0%,100%);fill-opacity:1;stroke-width:0.4;stroke-linecap:butt;stroke-linejoin:miter;stroke:rgb(0%,0%,100%);stroke-opacity:1;stroke-miterlimit:4;" d="M 84.65 4.4 L 81.878125 5.996875 L 81.878125 2.796875 L 84.65 4.4 Z M 84.65 4.4 " transform="matrix(1.25,0,0,1.25,0,0)"/>
<path style=" stroke:none;fill-rule:nonzero;fill:rgb(100%,0%,0%);fill-opacity:1;" d="M 92.96875 54.210938 L 92.96875 57.609375 L 93.203125 57.609375 C 93.5625 57.609375 93.867188 57.558594 94.101562 57.453125 C 94.335938 57.335938 94.53125 57.148438 94.6875 56.886719 C 94.851562 56.625 94.960938 56.273438 95 55.832031 L 95.214844 55.832031 L 95.214844 59.992188 L 95 59.992188 C 94.921875 59.199219 94.710938 58.675781 94.375 58.429688 C 94.03125 58.183594 93.640625 58.058594 93.203125 58.058594 L 92.96875 58.058594 L 92.96875 60.578125 C 92.96875 61.007812 92.988281 61.273438 93.027344 61.378906 C 93.078125 61.484375 93.167969 61.574219 93.300781 61.652344 C 93.441406 61.730469 93.632812 61.769531 93.867188 61.769531 L 94.140625 61.769531 L 94.140625 62.003906 L 89.804688 62.003906 L 89.804688 61.769531 L 90.078125 61.769531 C 90.320312 61.769531 90.515625 61.730469 90.664062 61.652344 C 90.765625 61.585938 90.851562 61.488281 90.917969 61.359375 C 90.957031 61.253906 90.976562 60.996094 90.976562 60.578125 L 90.976562 55.148438 C 90.976562 54.71875 90.945312 54.453125 90.898438 54.347656 C 90.859375 54.242188 90.765625 54.152344 90.625 54.074219 C 90.492188 53.996094 90.3125 53.957031 90.078125 53.957031 L 89.804688 53.957031 L 89.804688 53.722656 L 96.796875 53.722656 L 96.796875 56.105469 L 96.542969 56.105469 C 96.488281 55.546875 96.347656 55.136719 96.113281 54.875 C 95.878906 54.601562 95.539062 54.40625 95.097656 54.289062 C 94.847656 54.238281 94.394531 54.210938 93.730469 54.210938 L 92.96875 54.210938 Z M 92.96875 54.210938 "/>
<path style=" stroke:none;fill-rule:nonzero;fill:rgb(100%,0%,0%);fill-opacity:1;" d="M 98.898438 62.15625 L 98.898438 63.523438 C 98.898438 63.796875 98.90625 63.972656 98.9375 64.050781 C 98.976562 64.121094 99.035156 64.167969 99.113281 64.207031 C 99.203125 64.246094 99.359375 64.265625 99.582031 64.265625 L 99.582031 64.402344 L 97.0625 64.402344 L 97.0625 64.265625 C 97.28125 64.265625 97.433594 64.246094 97.511719 64.207031 C 97.601562 64.160156 97.65625 64.101562 97.6875 64.03125 C 97.726562 63.96875 97.746094 63.796875 97.746094 63.523438 L 97.746094 60.300781 C 97.746094 60.042969 97.726562 59.882812 97.6875 59.8125 C 97.65625 59.734375 97.601562 59.675781 97.511719 59.636719 C 97.433594 59.597656 97.28125 59.578125 97.0625 59.578125 L 97.0625 59.441406 L 99.230469 59.441406 C 99.933594 59.441406 100.441406 59.574219 100.753906 59.832031 C 101.066406 60.082031 101.222656 60.394531 101.222656 60.769531 C 101.222656 61.097656 101.117188 61.375 100.910156 61.609375 C 100.714844 61.835938 100.441406 61.980469 100.089844 62.058594 C 99.855469 62.128906 99.453125 62.15625 98.898438 62.15625 Z M 98.898438 59.714844 L 98.898438 61.863281 C 98.976562 61.878906 99.035156 61.882812 99.074219 61.882812 C 99.371094 61.882812 99.601562 61.796875 99.757812 61.609375 C 99.921875 61.429688 100.011719 61.15625 100.011719 60.789062 C 100.011719 60.429688 99.921875 60.160156 99.757812 59.988281 C 99.601562 59.808594 99.359375 59.714844 99.035156 59.714844 L 98.898438 59.714844 Z M 98.898438 59.714844 "/>
<path style="fill-rule:nonzero;fill:rgb(0%,0%,100%);fill-opacity:1;stroke-width:0.8;stroke-linecap:butt;stroke-linejoin:miter;stroke:rgb(100%,0%,0%);stroke-opacity:1;stroke-miterlimit:4;" d="M 71.8 41.13125 L 77.8 41.13125 " transform="matrix(1.25,0,0,1.25,0,0)"/>
<path style="fill-rule:evenodd;fill:rgb(100%,0%,0%);fill-opacity:1;stroke-width:0.4;stroke-linecap:butt;stroke-linejoin:miter;stroke:rgb(100%,0%,0%);stroke-opacity:1;stroke-miterlimit:4;" d="M 79.65 41.13125 L 76.878125 42.734375 L 76.878125 39.53125 L 79.65 41.13125 Z M 79.65 41.13125 " transform="matrix(1.25,0,0,1.25,0,0)"/>
<path style=" stroke:none;fill-rule:nonzero;fill:rgb(100%,0%,0%);fill-opacity:1;" d="M 3.21875 118.210938 L 3.21875 121.609375 L 3.453125 121.609375 C 3.8125 121.609375 4.117188 121.558594 4.351562 121.453125 C 4.585938 121.335938 4.78125 121.148438 4.9375 120.886719 C 5.101562 120.625 5.210938 120.273438 5.25 119.832031 L 5.464844 119.832031 L 5.464844 123.992188 L 5.25 123.992188 C 5.171875 123.199219 4.960938 122.675781 4.625 122.429688 C 4.28125 122.183594 3.890625 122.058594 3.453125 122.058594 L 3.21875 122.058594 L 3.21875 124.578125 C 3.21875 125.007812 3.238281 125.273438 3.277344 125.378906 C 3.328125 125.484375 3.417969 125.574219 3.550781 125.652344 C 3.691406 125.730469 3.882812 125.769531 4.117188 125.769531 L 4.390625 125.769531 L 4.390625 126.003906 L 0.0546875 126.003906 L 0.0546875 125.769531 L 0.328125 125.769531 C 0.570312 125.769531 0.765625 125.730469 0.914062 125.652344 C 1.015625 125.585938 1.101562 125.488281 1.167969 125.359375 C 1.207031 125.253906 1.226562 124.996094 1.226562 124.578125 L 1.226562 119.148438 C 1.226562 118.71875 1.195312 118.453125 1.148438 118.347656 C 1.109375 118.242188 1.015625 118.152344 0.875 118.074219 C 0.742188 117.996094 0.5625 117.957031 0.328125 117.957031 L 0.0546875 117.957031 L 0.0546875 117.722656 L 7.046875 117.722656 L 7.046875 120.105469 L 6.792969 120.105469 C 6.738281 119.546875 6.597656 119.136719 6.363281 118.875 C 6.128906 118.601562 5.789062 118.40625 5.347656 118.289062 C 5.097656 118.238281 4.644531 118.210938 3.980469 118.210938 L 3.21875 118.210938 Z M 3.21875 118.210938 "/>
<path style=" stroke:none;fill-rule:nonzero;fill:rgb(100%,0%,0%);fill-opacity:1;" d="M 8.992188 123.441406 L 11.433594 126.507812 L 11.433594 124.378906 C 11.433594 124.082031 11.394531 123.882812 11.316406 123.773438 C 11.199219 123.632812 10.992188 123.570312 10.710938 123.578125 L 10.710938 123.441406 L 12.351562 123.441406 L 12.351562 123.578125 C 12.140625 123.609375 12 123.636719 11.921875 123.675781 C 11.851562 123.714844 11.804688 123.789062 11.765625 123.890625 C 11.726562 123.984375 11.707031 124.144531 11.707031 124.378906 L 11.707031 128.519531 L 11.589844 128.519531 L 8.230469 124.378906 L 8.230469 127.542969 C 8.230469 127.832031 8.292969 128.027344 8.425781 128.128906 C 8.554688 128.222656 8.703125 128.265625 8.875 128.265625 L 8.992188 128.265625 L 8.992188 128.402344 L 7.214844 128.402344 L 7.214844 128.265625 C 7.488281 128.265625 7.671875 128.21875 7.78125 128.109375 C 7.898438 127.992188 7.957031 127.808594 7.957031 127.542969 L 7.957031 124.027344 L 7.859375 123.910156 C 7.742188 123.769531 7.644531 123.675781 7.566406 123.636719 C 7.488281 123.597656 7.371094 123.578125 7.214844 123.578125 L 7.214844 123.441406 L 8.992188 123.441406 Z M 8.992188 123.441406 "/>
<path style="fill-rule:nonzero;fill:rgb(0%,0%,100%);fill-opacity:1;stroke-width:0.8;stroke-linecap:butt;stroke-linejoin:miter;stroke:rgb(100%,0%,0%);stroke-opacity:1;stroke-miterlimit:4;" d="M 0 92.33125 L 6 92.33125 " transform="matrix(1.25,0,0,1.25,0,0)"/>
<path style="fill-rule:evenodd;fill:rgb(100%,0%,0%);fill-opacity:1;stroke-width:0.4;stroke-linecap:butt;stroke-linejoin:miter;stroke:rgb(100%,0%,0%);stroke-opacity:1;stroke-miterlimit:4;" d="M 7.846875 92.33125 L 5.08125 93.934375 L 5.08125 90.734375 L 7.846875 92.33125 Z M 7.846875 92.33125 " transform="matrix(1.25,0,0,1.25,0,0)"/>
</g>
</svg>
