<?xml version="1.0" encoding="UTF-8"?>
<!-- Converted by misc2svg (http://www.network-science.de/tools/misc2svg/) -->
<svg xmlns="http://www.w3.org/2000/svg" xmlns:xlink="http://www.w3.org/1999/xlink" width="311pt" height="262pt" viewBox="0 0 311 262" version="1.1">
<g id="misc2svg">
<path style="fill:none;stroke-width:8.96649;stroke-linecap:butt;stroke-linejoin:miter;stroke:rgb(85.882353%,94.117647%,97.647059%);stroke-opacity:1;stroke-miterlimit:10;" d="M 42.5205 -8.50275 C 42.5205 -26.11525 56.798625 -40.393375 74.408 -40.393375 C 92.0205 -40.393375 106.298625 -26.11525 106.298625 -8.50275 " transform="matrix(1.25,0,0,-1.25,142.20875,122.4575)"/>
<path style="fill-rule:nonzero;fill:rgb(85.882353%,94.117647%,97.647059%);fill-opacity:1;stroke-width:0.3985;stroke-linecap:butt;stroke-linejoin:miter;stroke:rgb(85.882353%,94.117647%,97.647059%);stroke-opacity:1;stroke-miterlimit:10;" d="M 37.736125 -8.50275 L 37.736125 7.441 L 47.30175 7.441 L 47.30175 -8.50275 L 37.736125 -8.50275 Z M 37.736125 -8.50275 " transform="matrix(1.25,0,0,-1.25,142.20875,122.4575)"/>
<path style="fill-rule:nonzero;fill:rgb(85.882353%,94.117647%,97.647059%);fill-opacity:1;stroke-width:0.3985;stroke-linecap:butt;stroke-linejoin:miter;stroke:rgb(85.882353%,94.117647%,97.647059%);stroke-opacity:1;stroke-miterlimit:10;" d="M 101.517375 -8.50275 L 101.517375 7.441 L 111.083 7.441 L 111.083 -8.50275 L 101.517375 -8.50275 Z M 101.517375 -8.50275 " transform="matrix(1.25,0,0,-1.25,142.20875,122.4575)"/>
<path style="fill-rule:nonzero;fill:rgb(85.882353%,94.117647%,97.647059%);fill-opacity:1;stroke-width:0.0498;stroke-linecap:butt;stroke-linejoin:miter;stroke:rgb(0%,0%,0%);stroke-opacity:1;stroke-miterlimit:10;" d="M 47.30175 7.441 C 47.30175 9.200375 45.161125 10.6285 42.5205 10.6285 C 39.87675 10.6285 37.736125 9.200375 37.736125 7.441 C 37.736125 5.681625 39.87675 4.250375 42.5205 4.250375 C 45.161125 4.250375 47.30175 5.681625 47.30175 7.441 Z M 47.30175 7.441 " transform="matrix(1.25,0,0,-1.25,142.20875,122.4575)"/>
<path style="fill-rule:nonzero;fill:rgb(85.882353%,94.117647%,97.647059%);fill-opacity:1;stroke-width:0.0498;stroke-linecap:butt;stroke-linejoin:miter;stroke:rgb(0%,0%,0%);stroke-opacity:1;stroke-miterlimit:10;" d="M 111.083 7.441 C 111.083 9.200375 108.942375 10.6285 106.298625 10.6285 C 103.658 10.6285 101.517375 9.200375 101.517375 7.441 C 101.517375 5.681625 103.658 4.250375 106.298625 4.250375 C 108.942375 4.250375 111.083 5.681625 111.083 7.441 Z M 111.083 7.441 " transform="matrix(1.25,0,0,-1.25,142.20875,122.4575)"/>
<path style="fill-rule:nonzero;fill:rgb(85.882353%,94.117647%,97.647059%);fill-opacity:0.701961;stroke-width:0.3985;stroke-linecap:butt;stroke-linejoin:miter;stroke:rgb(85.882353%,94.117647%,97.647059%);stroke-opacity:0.701961;stroke-miterlimit:10;" d="M 101.517375 7.441 L 101.517375 23.38475 L 111.083 23.38475 L 111.083 7.441 L 101.517375 7.441 Z M 101.517375 7.441 " transform="matrix(1.25,0,0,-1.25,142.20875,122.4575)"/>
<path style="fill-rule:nonzero;fill:rgb(85.882353%,94.117647%,97.647059%);fill-opacity:0.701961;stroke-width:0.0498;stroke-linecap:butt;stroke-linejoin:miter;stroke:rgb(0%,0%,0%);stroke-opacity:0.701961;stroke-miterlimit:10;" d="M 111.083 23.38475 C 111.083 25.144125 108.942375 26.575375 106.298625 26.575375 C 103.658 26.575375 101.517375 25.144125 101.517375 23.38475 C 101.517375 21.625375 103.658 20.19725 106.298625 20.19725 C 108.942375 20.19725 111.083 21.625375 111.083 23.38475 Z M 111.083 23.38475 " transform="matrix(1.25,0,0,-1.25,142.20875,122.4575)"/>
<path style="fill-rule:nonzero;fill:rgb(85.882353%,94.117647%,97.647059%);fill-opacity:0.701961;stroke-width:0.0498;stroke-linecap:butt;stroke-linejoin:miter;stroke:rgb(0%,0%,0%);stroke-opacity:0.701961;stroke-miterlimit:10;" d="M 47.30175 -8.50275 C 47.30175 -6.74025 45.161125 -5.31525 42.5205 -5.31525 C 39.87675 -5.31525 37.736125 -6.74025 37.736125 -8.50275 C 37.736125 -10.26525 39.87675 -11.693375 42.5205 -11.693375 C 45.161125 -11.693375 47.30175 -10.26525 47.30175 -8.50275 Z M 47.30175 -8.50275 " transform="matrix(1.25,0,0,-1.25,142.20875,122.4575)"/>
<path style="fill-rule:nonzero;fill:rgb(40%,40%,40%);fill-opacity:1;stroke-width:0.3985;stroke-linecap:butt;stroke-linejoin:miter;stroke:rgb(0%,0%,0%);stroke-opacity:1;stroke-miterlimit:10;" d="M 47.30175 42.519125 C 47.30175 44.281625 45.161125 45.706625 42.5205 45.706625 C 39.87675 45.706625 37.736125 44.281625 37.736125 42.519125 C 37.736125 40.75975 39.87675 39.3285 42.5205 39.3285 C 45.161125 39.3285 47.30175 40.75975 47.30175 42.519125 Z M 47.30175 42.519125 " transform="matrix(1.25,0,0,-1.25,142.20875,122.4575)"/>
<path style="fill:none;stroke-width:0.3985;stroke-linecap:butt;stroke-linejoin:miter;stroke:rgb(0%,0%,0%);stroke-opacity:1;stroke-miterlimit:10;" d="M 111.083 42.519125 C 111.083 44.281625 108.942375 45.706625 106.298625 45.706625 C 103.658 45.706625 101.517375 44.281625 101.517375 42.519125 C 101.517375 40.75975 103.658 39.3285 106.298625 39.3285 C 108.942375 39.3285 111.083 40.75975 111.083 42.519125 Z M 111.083 42.519125 " transform="matrix(1.25,0,0,-1.25,142.20875,122.4575)"/>
<path style="fill:none;stroke-width:0.3985;stroke-linecap:butt;stroke-linejoin:miter;stroke:rgb(0%,0%,0%);stroke-opacity:1;stroke-miterlimit:10;" d="M 37.736125 42.519125 L 37.736125 -8.50275 " transform="matrix(1.25,0,0,-1.25,142.20875,122.4575)"/>
<path style="fill:none;stroke-width:0.3985;stroke-linecap:butt;stroke-linejoin:miter;stroke:rgb(0%,0%,0%);stroke-opacity:1;stroke-miterlimit:10;" d="M 47.30175 42.519125 L 47.30175 -8.50275 " transform="matrix(1.25,0,0,-1.25,142.20875,122.4575)"/>
<path style="fill:none;stroke-width:0.3985;stroke-linecap:butt;stroke-linejoin:miter;stroke:rgb(0%,0%,0%);stroke-opacity:1;stroke-miterlimit:10;" d="M 101.517375 42.519125 L 101.517375 -8.50275 " transform="matrix(1.25,0,0,-1.25,142.20875,122.4575)"/>
<path style="fill:none;stroke-width:0.3985;stroke-linecap:butt;stroke-linejoin:miter;stroke:rgb(0%,0%,0%);stroke-opacity:1;stroke-miterlimit:10;" d="M 111.083 42.519125 L 111.083 -8.50275 " transform="matrix(1.25,0,0,-1.25,142.20875,122.4575)"/>
<path style="fill:none;stroke-width:0.3985;stroke-linecap:butt;stroke-linejoin:miter;stroke:rgb(0%,0%,0%);stroke-opacity:1;stroke-miterlimit:10;" d="M 37.736125 -8.50275 C 37.736125 -28.762125 54.154875 -45.17775 74.408 -45.17775 C 94.667375 -45.17775 111.083 -28.762125 111.083 -8.50275 " transform="matrix(1.25,0,0,-1.25,142.20875,122.4575)"/>
<path style="fill:none;stroke-width:0.3985;stroke-linecap:butt;stroke-linejoin:miter;stroke:rgb(0%,0%,0%);stroke-opacity:1;stroke-miterlimit:10;" d="M 47.30175 -8.50275 C 47.30175 -23.474625 59.43925 -35.612125 74.408 -35.612125 C 89.379875 -35.612125 101.517375 -23.474625 101.517375 -8.50275 " transform="matrix(1.25,0,0,-1.25,142.20875,122.4575)"/>
<path style="fill-rule:nonzero;fill:rgb(85.882353%,94.117647%,97.647059%);fill-opacity:1;stroke-width:0.3985;stroke-linecap:butt;stroke-linejoin:miter;stroke:rgb(0%,0%,0%);stroke-opacity:1;stroke-miterlimit:10;" d="M -85.042 -85.043375 C -59.638875 -106.359 -25.4045 -106.359 -0.001375 -85.043375 " transform="matrix(1.25,0,0,-1.25,142.20875,122.4575)"/>
<path style=" stroke:none;fill-rule:nonzero;fill:rgb(85.882353%,94.117647%,97.647059%);fill-opacity:1;" d="M 35.90625 228.757812 L 35.90625 149.03125 L 142.207031 149.03125 L 142.207031 228.757812 L 35.90625 228.757812 Z M 35.90625 228.757812 "/>
<path style="fill-rule:nonzero;fill:rgb(85.882353%,94.117647%,97.647059%);fill-opacity:1;stroke-width:0.3985;stroke-linecap:butt;stroke-linejoin:miter;stroke:rgb(0%,0%,0%);stroke-opacity:1;stroke-miterlimit:10;" d="M -0.001375 -21.262125 C -0.001375 -14.21525 -19.03575 -8.50275 -42.520125 -8.50275 C -66.0045 -8.50275 -85.042 -14.21525 -85.042 -21.262125 C -85.042 -28.30275 -66.0045 -34.01525 -42.520125 -34.01525 C -19.03575 -34.01525 -0.001375 -28.30275 -0.001375 -21.262125 Z M -0.001375 -21.262125 " transform="matrix(1.25,0,0,-1.25,142.20875,122.4575)"/>
<path style="fill:none;stroke-width:0.3985;stroke-linecap:butt;stroke-linejoin:miter;stroke:rgb(0%,0%,0%);stroke-opacity:1;stroke-miterlimit:10;" d="M -0.001375 12.7535 C -0.001375 19.800375 -19.03575 25.512875 -42.520125 25.512875 C -66.0045 25.512875 -85.042 19.800375 -85.042 12.7535 C -85.042 5.712875 -66.0045 0.000375 -42.520125 0.000375 C -19.03575 0.000375 -0.001375 5.712875 -0.001375 12.7535 Z M -0.001375 12.7535 " transform="matrix(1.25,0,0,-1.25,142.20875,122.4575)"/>
<path style="fill:none;stroke-width:0.3985;stroke-linecap:butt;stroke-linejoin:miter;stroke:rgb(0%,0%,0%);stroke-opacity:1;stroke-miterlimit:10;" d="M -85.042 -85.043375 L -85.042 12.7535 " transform="matrix(1.25,0,0,-1.25,142.20875,122.4575)"/>
<path style="fill:none;stroke-width:0.3985;stroke-linecap:butt;stroke-linejoin:miter;stroke:rgb(0%,0%,0%);stroke-opacity:1;stroke-miterlimit:10;" d="M -0.001375 -85.043375 L -0.001375 12.7535 " transform="matrix(1.25,0,0,-1.25,142.20875,122.4575)"/>
<path style="fill-rule:nonzero;fill:rgb(0%,0%,0%);fill-opacity:1;stroke-width:0.3985;stroke-linecap:butt;stroke-linejoin:miter;stroke:rgb(0%,0%,0%);stroke-opacity:1;stroke-miterlimit:10;" d="M -51.026375 -23.387125 L -51.026375 6.3785 L -46.770125 6.3785 L -46.770125 -23.387125 L -51.026375 -23.387125 Z M -51.026375 -23.387125 " transform="matrix(1.25,0,0,-1.25,142.20875,122.4575)"/>
<path style="fill-rule:nonzero;fill:rgb(0%,0%,0%);fill-opacity:1;stroke-width:0.3985;stroke-linecap:butt;stroke-linejoin:miter;stroke:rgb(0%,0%,0%);stroke-opacity:1;stroke-miterlimit:10;" d="M -59.5295 -31.89025 L -59.5295 -23.387125 L -25.513875 -23.387125 L -25.513875 -31.89025 L -59.5295 -31.89025 Z M -59.5295 -31.89025 " transform="matrix(1.25,0,0,-1.25,142.20875,122.4575)"/>
<path style="fill-rule:nonzero;fill:rgb(0%,0%,0%);fill-opacity:0.25098;stroke-width:0.3985;stroke-linecap:butt;stroke-linejoin:miter;stroke:rgb(0%,0%,0%);stroke-opacity:0.25098;stroke-miterlimit:10;" d="M -51.026375 -51.02775 L -51.026375 -21.262125 L -46.770125 -21.262125 L -46.770125 -51.02775 L -51.026375 -51.02775 Z M -51.026375 -51.02775 " transform="matrix(1.25,0,0,-1.25,142.20875,122.4575)"/>
<path style="fill-rule:nonzero;fill:rgb(0%,0%,0%);fill-opacity:0.25098;stroke-width:0.3985;stroke-linecap:butt;stroke-linejoin:miter;stroke:rgb(0%,0%,0%);stroke-opacity:0.25098;stroke-miterlimit:10;" d="M -59.5295 -59.530875 L -59.5295 -51.02775 L -25.513875 -51.02775 L -25.513875 -59.530875 L -59.5295 -59.530875 Z M -59.5295 -59.530875 " transform="matrix(1.25,0,0,-1.25,142.20875,122.4575)"/>
<path style="fill:none;stroke-width:3.9851;stroke-linecap:butt;stroke-linejoin:miter;stroke:rgb(40%,40%,40%);stroke-opacity:1;stroke-miterlimit:10;" d="M -48.901375 5.9535 C -48.901375 90.994125 34.01425 85.041 42.5205 42.519125 " transform="matrix(1.25,0,0,-1.25,142.20875,122.4575)"/>
<path style="fill:none;stroke-width:0.19925;stroke-linecap:butt;stroke-linejoin:miter;stroke:rgb(50.196078%,50.196078%,50.196078%);stroke-opacity:1;stroke-dasharray:2.98883,2.98883;stroke-miterlimit:10;" d="M 21.261125 7.6535 L 127.561125 7.6535 " transform="matrix(1.25,0,0,-1.25,142.20875,122.4575)"/>
<path style="fill:none;stroke-width:0.3985;stroke-linecap:butt;stroke-linejoin:miter;stroke:rgb(0%,0%,0%);stroke-opacity:1;stroke-miterlimit:10;" d="M 42.5205 7.6535 L 42.5205 9.7785 M 42.5205 7.6535 L 42.5205 5.5285 M 42.5205 7.6535 L 40.392375 7.6535 M 42.5205 7.6535 L 44.6455 7.6535 " transform="matrix(1.25,0,0,-1.25,142.20875,122.4575)"/>
<path style=" stroke:none;fill-rule:nonzero;fill:rgb(0%,0%,0%);fill-opacity:1;" d="M 183.671875 105.488281 L 183.671875 105.097656 L 183.457031 105.097656 C 182.714844 105.097656 182.539062 105.019531 182.402344 104.609375 L 179.707031 96.816406 C 179.648438 96.660156 179.609375 96.5625 179.414062 96.5625 C 179.21875 96.5625 179.179688 96.640625 179.121094 96.816406 L 176.542969 104.257812 C 176.308594 104.902344 175.820312 105.097656 175.136719 105.097656 L 175.136719 105.488281 L 176.40625 105.449219 L 177.851562 105.488281 L 177.851562 105.097656 C 177.226562 105.097656 176.914062 104.785156 176.914062 104.472656 C 176.914062 104.433594 176.933594 104.296875 176.933594 104.277344 L 177.519531 102.65625 L 180.585938 102.65625 L 181.25 104.550781 C 181.269531 104.609375 181.289062 104.6875 181.289062 104.726562 C 181.289062 105.097656 180.585938 105.097656 180.253906 105.097656 L 180.253906 105.488281 C 180.703125 105.449219 181.582031 105.449219 182.050781 105.449219 L 183.671875 105.488281 Z M 180.449219 102.265625 L 177.65625 102.265625 L 179.042969 98.203125 L 180.449219 102.265625 Z M 180.449219 102.265625 "/>
<path style="fill:none;stroke-width:0.3985;stroke-linecap:butt;stroke-linejoin:miter;stroke:rgb(0%,0%,0%);stroke-opacity:1;stroke-miterlimit:10;" d="M 106.298625 7.6535 L 106.298625 9.7785 M 106.298625 7.6535 L 106.298625 5.5285 M 106.298625 7.6535 L 104.173625 7.6535 M 106.298625 7.6535 L 108.423625 7.6535 " transform="matrix(1.25,0,0,-1.25,142.20875,122.4575)"/>
<path style=" stroke:none;fill-rule:nonzero;fill:rgb(0%,0%,0%);fill-opacity:1;" d="M 294.722656 124.460938 C 294.722656 123.386719 293.707031 122.449219 292.320312 122.292969 C 293.53125 122.058594 294.390625 121.257812 294.390625 120.339844 C 294.390625 119.265625 293.238281 118.230469 291.617188 118.230469 L 287.066406 118.230469 L 287.066406 118.621094 L 287.359375 118.621094 C 288.316406 118.621094 288.355469 118.757812 288.355469 119.207031 L 288.355469 125.769531 C 288.355469 126.21875 288.316406 126.355469 287.359375 126.355469 L 287.066406 126.355469 L 287.066406 126.746094 L 291.949219 126.746094 C 293.609375 126.746094 294.722656 125.632812 294.722656 124.460938 Z M 293.179688 120.339844 C 293.179688 121.140625 292.574219 122.175781 291.1875 122.175781 L 289.390625 122.175781 L 289.390625 119.128906 C 289.390625 118.699219 289.410156 118.621094 289.996094 118.621094 L 291.539062 118.621094 C 292.75 118.621094 293.179688 119.675781 293.179688 120.339844 Z M 293.492188 124.460938 C 293.492188 125.339844 292.828125 126.355469 291.558594 126.355469 L 289.996094 126.355469 C 289.410156 126.355469 289.390625 126.277344 289.390625 125.867188 L 289.390625 122.46875 L 291.734375 122.46875 C 292.964844 122.46875 293.492188 123.621094 293.492188 124.460938 Z M 293.492188 124.460938 "/>
<path style="fill:none;stroke-width:0.3985;stroke-linecap:butt;stroke-linejoin:miter;stroke:rgb(0%,0%,0%);stroke-opacity:0.34902;stroke-miterlimit:10;" d="M 42.5205 -8.50275 L 42.5205 -6.37775 M 42.5205 -8.50275 L 42.5205 -10.630875 M 42.5205 -8.50275 L 40.392375 -8.50275 M 42.5205 -8.50275 L 44.6455 -8.50275 " transform="matrix(1.25,0,0,-1.25,142.20875,122.4575)"/>
<path style=" stroke:none;fill-rule:nonzero;fill:rgb(0%,0%,0%);fill-opacity:0.34902;" d="M 219.144531 138.972656 L 219.144531 138.582031 L 218.929688 138.582031 C 218.1875 138.582031 218.011719 138.503906 217.875 138.09375 L 215.179688 130.300781 C 215.121094 130.144531 215.082031 130.046875 214.886719 130.046875 C 214.691406 130.046875 214.652344 130.125 214.59375 130.300781 L 212.015625 137.742188 C 211.78125 138.386719 211.292969 138.582031 210.609375 138.582031 L 210.609375 138.972656 L 211.878906 138.933594 L 213.324219 138.972656 L 213.324219 138.582031 C 212.699219 138.582031 212.386719 138.269531 212.386719 137.957031 C 212.386719 137.917969 212.40625 137.78125 212.40625 137.761719 L 212.992188 136.140625 L 216.058594 136.140625 L 216.722656 138.035156 C 216.742188 138.09375 216.761719 138.171875 216.761719 138.210938 C 216.761719 138.582031 216.058594 138.582031 215.726562 138.582031 L 215.726562 138.972656 C 216.175781 138.933594 217.054688 138.933594 217.523438 138.933594 L 219.144531 138.972656 Z M 215.921875 135.75 L 213.128906 135.75 L 214.515625 131.6875 L 215.921875 135.75 Z M 215.921875 135.75 "/>
<path style=" stroke:none;fill-rule:nonzero;fill:rgb(0%,0%,0%);fill-opacity:0.34902;" d="M 222.117188 131.628906 C 222.117188 130.886719 221.824219 130.320312 221.296875 130.320312 C 220.847656 130.320312 220.632812 130.652344 220.632812 130.984375 C 220.632812 131.316406 220.847656 131.648438 221.296875 131.648438 C 221.53125 131.648438 221.707031 131.511719 221.785156 131.453125 C 221.804688 131.414062 221.824219 131.414062 221.824219 131.414062 C 221.824219 131.414062 221.84375 131.589844 221.84375 131.628906 C 221.84375 132.039062 221.765625 132.9375 220.984375 133.699219 C 220.828125 133.855469 220.828125 133.875 220.828125 133.914062 C 220.828125 133.992188 220.886719 134.050781 220.945312 134.050781 C 221.082031 134.050781 222.117188 133.113281 222.117188 131.628906 Z M 222.117188 131.628906 "/>
<path style="fill:none;stroke-width:0.3985;stroke-linecap:butt;stroke-linejoin:miter;stroke:rgb(0%,0%,0%);stroke-opacity:0.34902;stroke-miterlimit:10;" d="M 106.298625 23.38475 L 106.298625 25.512875 M 106.298625 23.38475 L 106.298625 21.25975 M 106.298625 23.38475 L 104.173625 23.38475 M 106.298625 23.38475 L 108.423625 23.38475 " transform="matrix(1.25,0,0,-1.25,142.20875,122.4575)"/>
<path style=" stroke:none;fill-rule:nonzero;fill:rgb(0%,0%,0%);fill-opacity:0.34902;" d="M 296.714844 94.167969 C 296.714844 93.09375 295.699219 92.15625 294.3125 92 C 295.523438 91.765625 296.382812 90.964844 296.382812 90.046875 C 296.382812 88.972656 295.230469 87.9375 293.609375 87.9375 L 289.058594 87.9375 L 289.058594 88.328125 L 289.351562 88.328125 C 290.308594 88.328125 290.347656 88.464844 290.347656 88.914062 L 290.347656 95.476562 C 290.347656 95.925781 290.308594 96.0625 289.351562 96.0625 L 289.058594 96.0625 L 289.058594 96.453125 L 293.941406 96.453125 C 295.601562 96.453125 296.714844 95.339844 296.714844 94.167969 Z M 295.171875 90.046875 C 295.171875 90.847656 294.566406 91.882812 293.179688 91.882812 L 291.382812 91.882812 L 291.382812 88.835938 C 291.382812 88.40625 291.402344 88.328125 291.988281 88.328125 L 293.53125 88.328125 C 294.742188 88.328125 295.171875 89.382812 295.171875 90.046875 Z M 295.484375 94.167969 C 295.484375 95.046875 294.820312 96.0625 293.550781 96.0625 L 291.988281 96.0625 C 291.402344 96.0625 291.382812 95.984375 291.382812 95.574219 L 291.382812 92.175781 L 293.726562 92.175781 C 294.957031 92.175781 295.484375 93.328125 295.484375 94.167969 Z M 295.484375 94.167969 "/>
<path style=" stroke:none;fill-rule:nonzero;fill:rgb(0%,0%,0%);fill-opacity:0.34902;" d="M 299.988281 89.109375 C 299.988281 88.367188 299.695312 87.800781 299.167969 87.800781 C 298.71875 87.800781 298.503906 88.132812 298.503906 88.464844 C 298.503906 88.796875 298.71875 89.128906 299.167969 89.128906 C 299.402344 89.128906 299.578125 88.992188 299.65625 88.933594 C 299.675781 88.894531 299.695312 88.894531 299.695312 88.894531 C 299.695312 88.894531 299.714844 89.070312 299.714844 89.109375 C 299.714844 89.519531 299.636719 90.417969 298.855469 91.179688 C 298.699219 91.335938 298.699219 91.355469 298.699219 91.394531 C 298.699219 91.472656 298.757812 91.53125 298.816406 91.53125 C 298.953125 91.53125 299.988281 90.59375 299.988281 89.109375 Z M 299.988281 89.109375 "/>
<path style="fill:none;stroke-width:0.3985;stroke-linecap:butt;stroke-linejoin:miter;stroke:rgb(0%,0%,0%);stroke-opacity:1;stroke-miterlimit:10;" d="M 85.042375 9.35975 L 85.042375 24.656625 " transform="matrix(1.25,0,0,-1.25,142.20875,122.4575)"/>
<path style="fill:none;stroke-width:0.3985;stroke-linecap:square;stroke-linejoin:miter;stroke:rgb(0%,0%,0%);stroke-opacity:1;stroke-miterlimit:10;" d="M 0.09992 -2.58867 L 0.09992 2.589455 " transform="matrix(0,1.25,1.25,0,248.509275,111.453225)"/>
<path style="fill:none;stroke-width:0.31879;stroke-linecap:round;stroke-linejoin:round;stroke:rgb(0%,0%,0%);stroke-opacity:1;stroke-miterlimit:10;" d="M -1.195315 1.595705 C -1.095315 0.995705 0.00156 0.09883 0.298435 0.001955 C 0.00156 -0.10117 -1.095315 -0.99492 -1.195315 -1.591795 " transform="matrix(0,1.25,1.25,0,248.509275,110.755863)"/>
<path style="fill:none;stroke-width:0.3985;stroke-linecap:square;stroke-linejoin:miter;stroke:rgb(0%,0%,0%);stroke-opacity:1;stroke-miterlimit:10;" d="M 0.099385 -2.589455 L 0.099385 2.58867 " transform="matrix(0,-1.25,-1.25,0,248.509275,90.940638)"/>
<path style="fill:none;stroke-width:0.31879;stroke-linecap:round;stroke-linejoin:round;stroke:rgb(0%,0%,0%);stroke-opacity:1;stroke-miterlimit:10;" d="M -1.198975 1.591795 C -1.09585 0.99492 0.001025 0.10117 0.2979 -0.001955 C 0.001025 -0.09883 -1.09585 -0.995705 -1.198975 -1.595705 " transform="matrix(0,-1.25,-1.25,0,248.509275,91.638)"/>
<path style=" stroke:none;fill-rule:nonzero;fill:rgb(0%,0%,0%);fill-opacity:1;" d="M 243.851562 105.488281 L 243.851562 105.097656 C 243.207031 105.097656 242.894531 105.097656 242.894531 104.726562 L 242.894531 102.34375 C 242.894531 101.269531 242.894531 100.898438 242.503906 100.449219 C 242.328125 100.234375 241.917969 99.980469 241.195312 99.980469 C 240.140625 99.980469 239.59375 100.722656 239.398438 101.171875 L 239.378906 101.171875 L 239.378906 96.835938 L 237.582031 96.972656 L 237.582031 97.363281 C 238.460938 97.363281 238.558594 97.441406 238.558594 98.066406 L 238.558594 104.550781 C 238.558594 105.097656 238.421875 105.097656 237.582031 105.097656 L 237.582031 105.488281 L 239.007812 105.449219 L 240.394531 105.488281 L 240.394531 105.097656 C 239.554688 105.097656 239.417969 105.097656 239.417969 104.550781 L 239.417969 102.246094 C 239.417969 100.957031 240.316406 100.253906 241.097656 100.253906 C 241.898438 100.253906 242.035156 100.917969 242.035156 101.640625 L 242.035156 104.550781 C 242.035156 105.097656 241.898438 105.097656 241.058594 105.097656 L 241.058594 105.488281 L 242.464844 105.449219 L 243.851562 105.488281 Z M 243.851562 105.488281 "/>
<path style="fill:none;stroke-width:0.3985;stroke-linecap:butt;stroke-linejoin:miter;stroke:rgb(0%,0%,0%);stroke-opacity:1;stroke-miterlimit:10;" d="M -97.795125 -54.4215 L -97.795125 -26.36525 " transform="matrix(1.25,0,0,-1.25,142.20875,122.4575)"/>
<path style="fill:none;stroke-width:0.3985;stroke-linecap:square;stroke-linejoin:miter;stroke:rgb(0%,0%,0%);stroke-opacity:1;stroke-miterlimit:10;" d="M 0.10091 -2.592935 L 0.10091 2.59144 " transform="matrix(0,1.25,1.25,0,19.963825,191.17855)"/>
<path style="fill:none;stroke-width:0.31879;stroke-linecap:round;stroke-linejoin:round;stroke:rgb(0%,0%,0%);stroke-opacity:1;stroke-miterlimit:10;" d="M -1.19745 1.594565 C -1.094325 0.99769 0.00255 0.09769 0.299425 0.000815 C 0.00255 -0.099185 -1.094325 -0.99606 -1.19745 -1.592935 " transform="matrix(0,1.25,1.25,0,19.963825,190.481188)"/>
<path style="fill:none;stroke-width:0.3985;stroke-linecap:square;stroke-linejoin:miter;stroke:rgb(0%,0%,0%);stroke-opacity:1;stroke-miterlimit:10;" d="M 0.10092 -2.59144 L 0.10092 2.592935 " transform="matrix(0,-1.25,-1.25,0,19.963825,154.7199)"/>
<path style="fill:none;stroke-width:0.31879;stroke-linecap:round;stroke-linejoin:round;stroke:rgb(0%,0%,0%);stroke-opacity:1;stroke-miterlimit:10;" d="M -1.19744 1.592935 C -1.09744 0.99606 0.00256 0.099185 0.299435 -0.000815 C 0.00256 -0.09769 -1.09744 -0.99769 -1.19744 -1.594565 " transform="matrix(0,-1.25,-1.25,0,19.963825,155.417262)"/>
<path style=" stroke:none;fill-rule:nonzero;fill:rgb(0%,0%,0%);fill-opacity:1;" d="M 14.910156 176.21875 C 14.910156 176.179688 14.871094 176.0625 14.773438 176.0625 C 14.734375 176.0625 14.714844 176.082031 14.597656 176.179688 C 13.796875 176.960938 13.347656 177.15625 12.976562 177.15625 C 12.429688 177.15625 12.214844 176.492188 12.214844 175.535156 C 12.214844 175.457031 12.253906 174.890625 12.292969 174.8125 C 12.3125 174.773438 12.3125 174.753906 12.566406 174.5 C 13.5625 173.503906 15.339844 171.394531 15.339844 169.460938 C 15.339844 169.246094 15.339844 168.484375 14.597656 168.484375 C 13.5625 168.484375 12.644531 170.535156 12.527344 170.828125 C 11.921875 172.195312 11.53125 173.640625 11.53125 175.125 L 10.574219 176.042969 C 10.554688 176.082031 10.515625 176.121094 10.515625 176.160156 C 10.515625 176.21875 10.59375 176.335938 10.671875 176.335938 C 10.730469 176.335938 10.769531 176.296875 11.121094 175.945312 C 11.21875 175.847656 11.472656 175.613281 11.570312 175.515625 C 11.6875 176.492188 12.039062 177.429688 12.957031 177.429688 C 13.464844 177.429688 13.894531 177.136719 14.148438 176.941406 C 14.324219 176.824219 14.910156 176.335938 14.910156 176.21875 Z M 15.046875 169.402344 C 15.046875 171.492188 12.9375 173.679688 12.351562 174.304688 C 12.371094 174.148438 12.917969 171.394531 13.621094 169.929688 C 13.953125 169.265625 14.226562 168.757812 14.617188 168.757812 C 15.046875 168.757812 15.046875 169.207031 15.046875 169.402344 Z M 15.046875 169.402344 "/>
</g>
</svg>
