<?xml version="1.0" encoding="UTF-8" standalone="no"?>
<!-- Created with Inkscape (http://www.inkscape.org/) -->

<svg
   xmlns:dc="http://purl.org/dc/elements/1.1/"
   xmlns:cc="http://creativecommons.org/ns#"
   xmlns:rdf="http://www.w3.org/1999/02/22-rdf-syntax-ns#"
   xmlns:svg="http://www.w3.org/2000/svg"
   xmlns="http://www.w3.org/2000/svg"
   xmlns:sodipodi="http://sodipodi.sourceforge.net/DTD/sodipodi-0.dtd"
   xmlns:inkscape="http://www.inkscape.org/namespaces/inkscape"
   id="svg3270"
   version="1.1"
   inkscape:version="0.48.3.1 r9886"
   width="366.78375"
   height="295.9175"
   xml:space="preserve"
   sodipodi:docname="mes-figures-tikz.pdf"><metadata
     id="metadata3276"><rdf:RDF><cc:Work
         rdf:about=""><dc:format>image/svg+xml</dc:format><dc:type
           rdf:resource="http://purl.org/dc/dcmitype/StillImage" /><dc:title></dc:title></cc:Work></rdf:RDF></metadata><defs
     id="defs3274"><clipPath
       clipPathUnits="userSpaceOnUse"
       id="clipPath3726"><rect
         style="fill:none;stroke:#ffffff;stroke-width:4;stroke-miterlimit:4;stroke-opacity:1;stroke-dasharray:none"
         id="rect3728"
         width="292.90817"
         height="237.73711"
         x="-145.71089"
         y="-117.36389"
         transform="scale(1,-1)" /></clipPath></defs><sodipodi:namedview
     pagecolor="#ffffff"
     bordercolor="#666666"
     borderopacity="1"
     objecttolerance="10"
     gridtolerance="10"
     guidetolerance="10"
     inkscape:pageopacity="0"
     inkscape:pageshadow="2"
     inkscape:window-width="1317"
     inkscape:window-height="744"
     id="namedview3272"
     showgrid="false"
     inkscape:zoom="0.79751955"
     inkscape:cx="183.39188"
     inkscape:cy="147.95876"
     inkscape:window-x="49"
     inkscape:window-y="24"
     inkscape:window-maximized="1"
     inkscape:current-layer="g3278" /><g
     id="g3278"
     inkscape:groupmode="layer"
     inkscape:label="mes-figures-tikz"
     transform="matrix(1.25,0,0,-1.25,183.3925,147.95875)"><g
       id="g3280"
       clip-path="url(#clipPath3726)"><g
         id="g3282"><g
           id="g3284" /><g
           id="g3286" /><g
           id="g3288" /><g
           id="g3290" /><g
           id="g3292"><g
             id="g3294"><path
               d="M -85.04042,0 C -56.69362,28.3468 56.69362,28.3468 85.04042,0"
               style="fill:none;stroke:#ff0000;stroke-opacity:1;stroke-width:0.79701;stroke-linecap:butt;stroke-linejoin:miter;stroke-miterlimit:10;stroke-dasharray:none"
               id="path3296" /><g
               id="g3298"><g
                 id="g3300"><g
                   id="g3302"
                   transform="matrix(1.49992,-0.02019,0.02019,1.49992,-0.30785,21.28825)"><g
                     id="g3304"><g
                       id="g3306"><path
                         d="M 2.59026,0 -1.55415,2.0722 0,0 -1.55415,-2.0722"
                         style="fill:#ff0000;fill-opacity:1;fill-rule:nonzero;stroke:none"
                         id="path3308" /></g></g></g></g></g></g><g
             id="g3310"><path
               d="M -85.04042,0 C -56.69362,56.69362 56.69362,56.69362 85.04042,0"
               style="fill:none;stroke:#ff0000;stroke-opacity:1;stroke-width:0.79701;stroke-linecap:butt;stroke-linejoin:miter;stroke-miterlimit:10;stroke-dasharray:none"
               id="path3312" /><g
               id="g3314"><g
                 id="g3316"><g
                   id="g3318"
                   transform="matrix(1.49933,-0.0452,0.0452,1.49933,0.11835,42.57693)"><g
                     id="g3320"><g
                       id="g3322"><path
                         d="M 2.59026,0 -1.55415,2.0722 0,0 -1.55415,-2.0722"
                         style="fill:#ff0000;fill-opacity:1;fill-rule:nonzero;stroke:none"
                         id="path3324" /></g></g></g></g></g></g><g
             id="g3326"><path
               d="M -85.04042,0 C -56.69362,85.04042 56.69362,85.04042 85.04042,0"
               style="fill:none;stroke:#ff0000;stroke-opacity:1;stroke-width:0.79701;stroke-linecap:butt;stroke-linejoin:miter;stroke-miterlimit:10;stroke-dasharray:none"
               id="path3328" /><g
               id="g3330"><g
                 id="g3332"><g
                   id="g3334"
                   transform="matrix(1.49812,-0.07713,0.07713,1.49812,0.67564,63.86281)"><g
                     id="g3336"><g
                       id="g3338"><path
                         d="M 2.59026,0 -1.55415,2.0722 0,0 -1.55415,-2.0722"
                         style="fill:#ff0000;fill-opacity:1;fill-rule:nonzero;stroke:none"
                         id="path3340" /></g></g></g></g></g></g><g
             id="g3342"><path
               d="M -85.04042,0 C -56.69362,113.38724 56.69362,113.38724 85.04042,0"
               style="fill:none;stroke:#ff0000;stroke-opacity:1;stroke-width:0.79701;stroke-linecap:butt;stroke-linejoin:miter;stroke-miterlimit:10;stroke-dasharray:none"
               id="path3344" /><g
               id="g3346"><g
                 id="g3348"><g
                   id="g3350"
                   transform="matrix(1.49634,-0.11711,0.11711,1.49634,1.31529,85.14072)"><g
                     id="g3352"><g
                       id="g3354"><path
                         d="M 2.59026,0 -1.55415,2.0722 0,0 -1.55415,-2.0722"
                         style="fill:#ff0000;fill-opacity:1;fill-rule:nonzero;stroke:none"
                         id="path3356" /></g></g></g></g></g></g><g
             id="g3358"><path
               d="M -85.04042,0 C -56.69362,-28.3468 56.69362,-28.3468 85.04042,0"
               style="fill:none;stroke:#ff0000;stroke-opacity:1;stroke-width:0.79701;stroke-linecap:butt;stroke-linejoin:miter;stroke-miterlimit:10;stroke-dasharray:none"
               id="path3360" /><g
               id="g3362"><g
                 id="g3364"><g
                   id="g3366"
                   transform="matrix(1.49992,0.02019,-0.02019,1.49992,-0.30785,-21.28825)"><g
                     id="g3368"><g
                       id="g3370"><path
                         d="M 2.59026,0 -1.55415,2.0722 0,0 -1.55415,-2.0722"
                         style="fill:#ff0000;fill-opacity:1;fill-rule:nonzero;stroke:none"
                         id="path3372" /></g></g></g></g></g></g><g
             id="g3374"><path
               d="M -85.04042,0 C -56.69362,-56.69362 56.69362,-56.69362 85.04042,0"
               style="fill:none;stroke:#ff0000;stroke-opacity:1;stroke-width:0.79701;stroke-linecap:butt;stroke-linejoin:miter;stroke-miterlimit:10;stroke-dasharray:none"
               id="path3376" /><g
               id="g3378"><g
                 id="g3380"><g
                   id="g3382"
                   transform="matrix(1.49933,0.0452,-0.0452,1.49933,0.11835,-42.57693)"><g
                     id="g3384"><g
                       id="g3386"><path
                         d="M 2.59026,0 -1.55415,2.0722 0,0 -1.55415,-2.0722"
                         style="fill:#ff0000;fill-opacity:1;fill-rule:nonzero;stroke:none"
                         id="path3388" /></g></g></g></g></g></g><g
             id="g3390"><path
               d="M -85.04042,0 C -56.69362,-85.04042 56.69362,-85.04042 85.04042,0"
               style="fill:none;stroke:#ff0000;stroke-opacity:1;stroke-width:0.79701;stroke-linecap:butt;stroke-linejoin:miter;stroke-miterlimit:10;stroke-dasharray:none"
               id="path3392" /><g
               id="g3394"><g
                 id="g3396"><g
                   id="g3398"
                   transform="matrix(1.49812,0.07713,-0.07713,1.49812,0.67564,-63.86281)"><g
                     id="g3400"><g
                       id="g3402"><path
                         d="M 2.59026,0 -1.55415,2.0722 0,0 -1.55415,-2.0722"
                         style="fill:#ff0000;fill-opacity:1;fill-rule:nonzero;stroke:none"
                         id="path3404" /></g></g></g></g></g></g><g
             id="g3406"><path
               d="M -85.04042,0 C -56.69362,-113.38724 56.69362,-113.38724 85.04042,0"
               style="fill:none;stroke:#ff0000;stroke-opacity:1;stroke-width:0.79701;stroke-linecap:butt;stroke-linejoin:miter;stroke-miterlimit:10;stroke-dasharray:none"
               id="path3408" /><g
               id="g3410"><g
                 id="g3412"><g
                   id="g3414"
                   transform="matrix(1.49634,0.11711,-0.11711,1.49634,1.31529,-85.14072)"><g
                     id="g3416"><g
                       id="g3418"><path
                         d="M 2.59026,0 -1.55415,2.0722 0,0 -1.55415,-2.0722"
                         style="fill:#ff0000;fill-opacity:1;fill-rule:nonzero;stroke:none"
                         id="path3420" /></g></g></g></g></g></g></g><g
           id="g3422"><g
             id="g3424"><path
               d="M -85.04042,0 C -56.69362,226.77448 56.69362,226.77448 85.04042,0"
               style="fill:none;stroke:#ff0000;stroke-opacity:1;stroke-width:0.79701;stroke-linecap:butt;stroke-linejoin:miter;stroke-miterlimit:10;stroke-dasharray:none"
               id="path3426" /><g
               id="g3428"><g
                 id="g3430"><g
                   id="g3432"
                   transform="matrix(0.41846,1.44063,-1.44063,0.41846,-70.48187,75.47533)"><g
                     id="g3434"><g
                       id="g3436"><path
                         d="M 2.59026,0 -1.55415,2.0722 0,0 -1.55415,-2.0722"
                         style="fill:#ff0000;fill-opacity:1;fill-rule:nonzero;stroke:none"
                         id="path3438" /></g></g></g></g></g><g
               id="g3440"><g
                 id="g3442"><g
                   id="g3444"
                   transform="matrix(0.38818,-1.45172,1.45172,0.38818,70.57367,75.14177)"><g
                     id="g3446"><g
                       id="g3448"><path
                         d="M 2.59026,0 -1.55415,2.0722 0,0 -1.55415,-2.0722"
                         style="fill:#ff0000;fill-opacity:1;fill-rule:nonzero;stroke:none"
                         id="path3450" /></g></g></g></g></g></g><g
             id="g3452"><path
               d="M -85.04042,0 C -170.08086,283.4681 170.08086,283.4681 85.04042,0"
               style="fill:none;stroke:#ff0000;stroke-opacity:1;stroke-width:0.79701;stroke-linecap:butt;stroke-linejoin:miter;stroke-miterlimit:10;stroke-dasharray:none"
               id="path3454" /><g
               id="g3456"><g
                 id="g3458"><g
                   id="g3460"
                   transform="matrix(-0.04309,1.4997,-1.4997,-0.04309,-98.60257,74.6829)"><g
                     id="g3462"><g
                       id="g3464"><path
                         d="M 2.59026,0 -1.55415,2.0722 0,0 -1.55415,-2.0722"
                         style="fill:#ff0000;fill-opacity:1;fill-rule:nonzero;stroke:none"
                         id="path3466" /></g></g></g></g></g><g
               id="g3468"><g
                 id="g3470"><g
                   id="g3472"
                   transform="matrix(-0.10954,-1.4963,1.4963,-0.10954,98.45184,71.79237)"><g
                     id="g3474"><g
                       id="g3476"><path
                         d="M 2.59026,0 -1.55415,2.0722 0,0 -1.55415,-2.0722"
                         style="fill:#ff0000;fill-opacity:1;fill-rule:nonzero;stroke:none"
                         id="path3478" /></g></g></g></g></g></g><g
             id="g3480"><path
               d="M -85.04042,0 C -311.8149,283.4681 311.8149,283.4681 85.04042,0"
               style="fill:none;stroke:#ff0000;stroke-opacity:1;stroke-width:0.79701;stroke-linecap:butt;stroke-linejoin:miter;stroke-miterlimit:10;stroke-dasharray:none"
               id="path3482" /><g
               id="g3484"><g
                 id="g3486"><g
                   id="g3488"
                   transform="matrix(-0.58026,1.38786,-1.38786,-0.58026,-123.02145,60.21439)"><g
                     id="g3490"><g
                       id="g3492"><path
                         d="M 2.59026,0 -1.55415,2.0722 0,0 -1.55415,-2.0722"
                         style="fill:#ff0000;fill-opacity:1;fill-rule:nonzero;stroke:none"
                         id="path3494" /></g></g></g></g></g><g
               id="g3496"><g
                 id="g3498"><g
                   id="g3500"
                   transform="matrix(-0.62624,-1.36789,1.36789,-0.62624,123.63086,61.60983)"><g
                     id="g3502"><g
                       id="g3504"><path
                         d="M 2.59026,0 -1.55415,2.0722 0,0 -1.55415,-2.0722"
                         style="fill:#ff0000;fill-opacity:1;fill-rule:nonzero;stroke:none"
                         id="path3506" /></g></g></g></g></g></g><g
             id="g3508"><path
               d="M -85.04042,0 C -510.24257,283.4681 510.24257,283.4681 85.04042,0"
               style="fill:none;stroke:#ff0000;stroke-opacity:1;stroke-width:0.79701;stroke-linecap:butt;stroke-linejoin:miter;stroke-miterlimit:10;stroke-dasharray:none"
               id="path3510" /><g
               id="g3512"><g
                 id="g3514"><g
                   id="g3516"
                   transform="matrix(-1.13727,0.98883,-0.98883,-1.13727,-132.91386,35.65613)"><g
                     id="g3518"><g
                       id="g3520"><path
                         d="M 2.59026,0 -1.55415,2.0722 0,0 -1.55415,-2.0722"
                         style="fill:#ff0000;fill-opacity:1;fill-rule:nonzero;stroke:none"
                         id="path3522" /></g></g></g></g></g><g
               id="g3524"><g
                 id="g3526"><g
                   id="g3528"
                   transform="matrix(-1.1713,-0.93777,0.93777,-1.1713,126.66241,30.45374)"><g
                     id="g3530"><g
                       id="g3532"><path
                         d="M 2.59026,0 -1.55415,2.0722 0,0 -1.55415,-2.0722"
                         style="fill:#ff0000;fill-opacity:1;fill-rule:nonzero;stroke:none"
                         id="path3534" /></g></g></g></g></g></g><g
             id="g3536"><path
               d="M -85.04042,0 -283.4681,0"
               style="fill:none;stroke:#ff0000;stroke-opacity:1;stroke-width:0.79701;stroke-linecap:butt;stroke-linejoin:miter;stroke-miterlimit:10;stroke-dasharray:none"
               id="path3538" /><g
               id="g3540"><g
                 id="g3542"><g
                   id="g3544"
                   transform="matrix(-1.5,0,0,-1.5,-130.76192,0)"><g
                     id="g3546"><g
                       id="g3548"><path
                         d="M 2.59026,0 -1.55415,2.0722 0,0 -1.55415,-2.0722"
                         style="fill:#ff0000;fill-opacity:1;fill-rule:nonzero;stroke:none"
                         id="path3550" /></g></g></g></g></g></g><g
             id="g3552"><path
               d="M 85.04042,0 283.4681,0"
               style="fill:none;stroke:#ff0000;stroke-opacity:1;stroke-width:0.79701;stroke-linecap:butt;stroke-linejoin:miter;stroke-miterlimit:10;stroke-dasharray:none"
               id="path3554" /><g
               id="g3556"><g
                 id="g3558"><g
                   id="g3560"
                   transform="matrix(-1.5,0,0,1.5,130.76192,0)"><g
                     id="g3562"><g
                       id="g3564"><path
                         d="M 2.59026,0 -1.55415,2.0722 0,0 -1.55415,-2.0722"
                         style="fill:#ff0000;fill-opacity:1;fill-rule:nonzero;stroke:none"
                         id="path3566" /></g></g></g></g></g></g><g
             id="g3568"><path
               d="M -85.04042,0 C -56.69362,-226.77448 56.69362,-226.77448 85.04042,0"
               style="fill:none;stroke:#ff0000;stroke-opacity:1;stroke-width:0.79701;stroke-linecap:butt;stroke-linejoin:miter;stroke-miterlimit:10;stroke-dasharray:none"
               id="path3570" /><g
               id="g3572"><g
                 id="g3574"><g
                   id="g3576"
                   transform="matrix(0.41846,-1.44063,1.44063,0.41846,-70.48187,-75.47533)"><g
                     id="g3578"><g
                       id="g3580"><path
                         d="M 2.59026,0 -1.55415,2.0722 0,0 -1.55415,-2.0722"
                         style="fill:#ff0000;fill-opacity:1;fill-rule:nonzero;stroke:none"
                         id="path3582" /></g></g></g></g></g><g
               id="g3584"><g
                 id="g3586"><g
                   id="g3588"
                   transform="matrix(0.38818,1.45172,-1.45172,0.38818,70.57367,-75.14177)"><g
                     id="g3590"><g
                       id="g3592"><path
                         d="M 2.59026,0 -1.55415,2.0722 0,0 -1.55415,-2.0722"
                         style="fill:#ff0000;fill-opacity:1;fill-rule:nonzero;stroke:none"
                         id="path3594" /></g></g></g></g></g></g><g
             id="g3596"><path
               d="M -85.04042,0 C -170.08086,-283.4681 170.08086,-283.4681 85.04042,0"
               style="fill:none;stroke:#ff0000;stroke-opacity:1;stroke-width:0.79701;stroke-linecap:butt;stroke-linejoin:miter;stroke-miterlimit:10;stroke-dasharray:none"
               id="path3598" /><g
               id="g3600"><g
                 id="g3602"><g
                   id="g3604"
                   transform="matrix(-0.04309,-1.4997,1.4997,-0.04309,-98.60257,-74.6829)"><g
                     id="g3606"><g
                       id="g3608"><path
                         d="M 2.59026,0 -1.55415,2.0722 0,0 -1.55415,-2.0722"
                         style="fill:#ff0000;fill-opacity:1;fill-rule:nonzero;stroke:none"
                         id="path3610" /></g></g></g></g></g><g
               id="g3612"><g
                 id="g3614"><g
                   id="g3616"
                   transform="matrix(-0.10954,1.4963,-1.4963,-0.10954,98.45184,-71.79237)"><g
                     id="g3618"><g
                       id="g3620"><path
                         d="M 2.59026,0 -1.55415,2.0722 0,0 -1.55415,-2.0722"
                         style="fill:#ff0000;fill-opacity:1;fill-rule:nonzero;stroke:none"
                         id="path3622" /></g></g></g></g></g></g><g
             id="g3624"><path
               d="M -85.04042,0 C -311.8149,-283.4681 311.8149,-283.4681 85.04042,0"
               style="fill:none;stroke:#ff0000;stroke-opacity:1;stroke-width:0.79701;stroke-linecap:butt;stroke-linejoin:miter;stroke-miterlimit:10;stroke-dasharray:none"
               id="path3626" /><g
               id="g3628"><g
                 id="g3630"><g
                   id="g3632"
                   transform="matrix(-0.58026,-1.38786,1.38786,-0.58026,-123.02145,-60.21439)"><g
                     id="g3634"><g
                       id="g3636"><path
                         d="M 2.59026,0 -1.55415,2.0722 0,0 -1.55415,-2.0722"
                         style="fill:#ff0000;fill-opacity:1;fill-rule:nonzero;stroke:none"
                         id="path3638" /></g></g></g></g></g><g
               id="g3640"><g
                 id="g3642"><g
                   id="g3644"
                   transform="matrix(-0.62624,1.36789,-1.36789,-0.62624,123.63086,-61.60983)"><g
                     id="g3646"><g
                       id="g3648"><path
                         d="M 2.59026,0 -1.55415,2.0722 0,0 -1.55415,-2.0722"
                         style="fill:#ff0000;fill-opacity:1;fill-rule:nonzero;stroke:none"
                         id="path3650" /></g></g></g></g></g></g><g
             id="g3652"><path
               d="M -85.04042,0 C -510.24257,-283.4681 510.24257,-283.4681 85.04042,0"
               style="fill:none;stroke:#ff0000;stroke-opacity:1;stroke-width:0.79701;stroke-linecap:butt;stroke-linejoin:miter;stroke-miterlimit:10;stroke-dasharray:none"
               id="path3654" /><g
               id="g3656"><g
                 id="g3658"><g
                   id="g3660"
                   transform="matrix(-1.13727,-0.98883,0.98883,-1.13727,-132.91386,-35.65613)"><g
                     id="g3662"><g
                       id="g3664"><path
                         d="M 2.59026,0 -1.55415,2.0722 0,0 -1.55415,-2.0722"
                         style="fill:#ff0000;fill-opacity:1;fill-rule:nonzero;stroke:none"
                         id="path3666" /></g></g></g></g></g><g
               id="g3668"><g
                 id="g3670"><g
                   id="g3672"
                   transform="matrix(-1.1713,0.93777,-0.93777,-1.1713,126.66241,-30.45374)"><g
                     id="g3674"><g
                       id="g3676"><path
                         d="M 2.59026,0 -1.55415,2.0722 0,0 -1.55415,-2.0722"
                         style="fill:#ff0000;fill-opacity:1;fill-rule:nonzero;stroke:none"
                         id="path3678" /></g></g></g></g></g></g></g><path
           d="m -82.20575,0 c 0,1.56555 -1.26912,2.83466 -2.83467,2.83466 -1.56557,0 -2.83467,-1.26911 -2.83467,-2.83466 0,-1.56555 1.2691,-2.83466 2.83467,-2.83466 1.56555,0 2.83467,1.26911 2.83467,2.83466 z"
           style="fill:#000000;fill-opacity:1;fill-rule:nonzero;stroke:none"
           id="path3680" /><g
           id="g3682"><g
             id="g3684"
             transform="translate(-107.544,-12.32)"><g
               id="g3686"><g
                 id="g3688"
                 transform="translate(0,-4.926)"><path
                   d="m 0,0 18.984,0 0,13.726 L 0,13.726 0,0 z"
                   style="fill:#ffffff;fill-opacity:1;fill-rule:nonzero;stroke:none"
                   id="path3690" /></g><g
                 id="g3692"
                 transform="translate(-39.17,-106.047)"><text
                   transform="matrix(1,0,0,-1,42.159,106.047)"
                   id="text3694"><tspan
                     style="fill:#000000;fill-opacity:1;fill-rule:nonzero;stroke:none;font-family:CMR10;font-variant:normal;font-weight:normal;font-size:9.9626;writing-mode:lr;-inkscape-font-specification:CMR10"
                     x="0 7.74891028"
                     y="0"
                     sodipodi:role="line"
                     id="tspan3696">+q</tspan></text>
<g
                   id="g3698"
                   transform="translate(39.17,106.047)" /></g></g><g
               id="g3700"
               transform="translate(107.544,12.32)" /></g></g><path
           d="m 87.87509,0 c 0,1.56555 -1.2691,2.83466 -2.83467,2.83466 -1.56555,0 -2.83467,-1.26911 -2.83467,-2.83466 0,-1.56555 1.26912,-2.83466 2.83467,-2.83466 1.56557,0 2.83467,1.26911 2.83467,2.83466 z"
           style="fill:#000000;fill-opacity:1;fill-rule:nonzero;stroke:none"
           id="path3702" /><g
           id="g3704"><g
             id="g3706"
             transform="translate(88.559,-10.798)"><g
               id="g3708"><g
                 id="g3710"
                 transform="translate(0,-4.926)"><path
                   d="m 0,0 14.557,0 0,12.204 L 0,12.204 0,0 z"
                   style="fill:#ffffff;fill-opacity:1;fill-rule:nonzero;stroke:none"
                   id="path3712" /></g><g
                 id="g3714"
                 transform="translate(-235.273,-107.569)"><text
                   transform="matrix(1,0,0,-1,238.261,107.569)"
                   id="text3716"><tspan
                     style="fill:#000000;fill-opacity:1;fill-rule:nonzero;stroke:none;font-family:CMR10;font-variant:normal;font-weight:normal;font-size:9.9626;writing-mode:lr;-inkscape-font-specification:CMR10"
                     x="0 3.32053458"
                     y="0"
                     sodipodi:role="line"
                     id="tspan3718">-q</tspan></text>
<g
                   id="g3720"
                   transform="translate(235.273,107.569)" /></g></g><g
               id="g3722"
               transform="translate(-88.559,10.798)" /></g></g></g></g></g></svg>