<?xml version="1.0" encoding="UTF-8" standalone="no"?>
<!-- Created with Inkscape (http://www.inkscape.org/) -->

<svg
   xmlns:dc="http://purl.org/dc/elements/1.1/"
   xmlns:cc="http://creativecommons.org/ns#"
   xmlns:rdf="http://www.w3.org/1999/02/22-rdf-syntax-ns#"
   xmlns:svg="http://www.w3.org/2000/svg"
   xmlns="http://www.w3.org/2000/svg"
   xmlns:sodipodi="http://sodipodi.sourceforge.net/DTD/sodipodi-0.dtd"
   xmlns:inkscape="http://www.inkscape.org/namespaces/inkscape"
   id="svg6549"
   version="1.1"
   inkscape:version="0.48.3.1 r9886"
   width="282.99106"
   height="174.46568"
   xml:space="preserve"
   sodipodi:docname="ligne-champ-equipot.svg"><metadata
     id="metadata6555"><rdf:RDF><cc:Work
         rdf:about=""><dc:format>image/svg+xml</dc:format><dc:type
           rdf:resource="http://purl.org/dc/dcmitype/StillImage" /><dc:title></dc:title></cc:Work></rdf:RDF></metadata><defs
     id="defs6553" /><sodipodi:namedview
     pagecolor="#ffffff"
     bordercolor="#666666"
     borderopacity="1"
     objecttolerance="10"
     gridtolerance="10"
     guidetolerance="10"
     inkscape:pageopacity="0"
     inkscape:pageshadow="2"
     inkscape:window-width="1317"
     inkscape:window-height="744"
     id="namedview6551"
     showgrid="false"
     inkscape:zoom="1.5241527"
     inkscape:cx="91.446955"
     inkscape:cy="117.75024"
     inkscape:window-x="49"
     inkscape:window-y="24"
     inkscape:window-maximized="1"
     inkscape:current-layer="g6557"
     fit-margin-top="0"
     fit-margin-left="0"
     fit-margin-right="0"
     fit-margin-bottom="0" /><g
     id="g6557"
     inkscape:groupmode="layer"
     inkscape:label="mes-figures-tikz"
     transform="matrix(1.25,0,0,-1.25,92.216955,56.715446)"><g
       id="g6559"
       transform="matrix(1.5386671,0,0,1.5386671,39.739385,-24.431257)"><g
         id="g6561"><path
           d="M -45.35506,0 44.89677,0"
           style="fill:none;stroke:#000000;stroke-width:0.3985;stroke-linecap:butt;stroke-linejoin:miter;stroke-miterlimit:10;stroke-opacity:1;stroke-dasharray:none"
           id="path6563"
           inkscape:connector-curvature="0" /><g
           id="g6565"
           transform="translate(44.89677,0)"><g
             id="g6567"><path
               d="M -1.19551,1.59401 C -1.09587,0.99626 0,0.09961 0.29886,0 0,-0.09961 -1.09587,-0.99626 -1.19551,-1.59401"
               style="fill:none;stroke:#000000;stroke-width:0.31878999;stroke-linecap:round;stroke-linejoin:round;stroke-miterlimit:10;stroke-opacity:1;stroke-dasharray:none"
               id="path6569"
               inkscape:connector-curvature="0" /></g></g><path
           d="M 0,-45.35506 0,44.89677"
           style="fill:none;stroke:#000000;stroke-width:0.3985;stroke-linecap:butt;stroke-linejoin:miter;stroke-miterlimit:10;stroke-opacity:1;stroke-dasharray:none"
           id="path6571"
           inkscape:connector-curvature="0" /><g
           id="g6573"
           transform="matrix(0,1,-1,0,0,44.89677)"><g
             id="g6575"><path
               d="M -1.19551,1.59401 C -1.09587,0.99626 0,0.09961 0.29886,0 0,-0.09961 -1.09587,-0.99626 -1.19551,-1.59401"
               style="fill:none;stroke:#000000;stroke-width:0.31878999;stroke-linecap:round;stroke-linejoin:round;stroke-miterlimit:10;stroke-opacity:1;stroke-dasharray:none"
               id="path6577"
               inkscape:connector-curvature="0" /></g></g><g
           id="g6579"><g
             id="g6581" /><g
             id="g6583"
             transform="translate(-74.458,26.603)"><g
               id="g6585"><g
                 id="g6587"
                 transform="translate(-8.302,-77.138)"><text
   transform="matrix(1,0,0,-1,8.302,77.138)"
   id="text6589"><tspan
     style="font-size:6.97380018px;font-variant:normal;font-weight:normal;writing-mode:lr-tb;fill:#ff0000;fill-opacity:1;fill-rule:nonzero;stroke:none;font-family:CMR7;-inkscape-font-specification:CMR7"
     x="0 4.9262924 7.1816192 11.153198 15.553666 19.095659 24.936914 29.337381 35.564289 38.890095 43.290562 47.262138 53.807053"
     y="0"
     sodipodi:role="line"
     id="tspan6591">Lignesdechamp</tspan></text>

<g
   id="g6593"
   transform="translate(8.302,77.138)" /></g></g><g
               id="g6595"
               transform="translate(74.458,-26.603)" /></g></g><g
           id="g6597"><g
             id="g6599" /><g
             id="g6601"
             transform="translate(17.482,-30.09)"><g
               id="g6603"><g
                 id="g6605"
                 transform="translate(-100.242,-20.445)"><text
   transform="matrix(1,0,0,-1,100.242,20.445)"
   id="text6607"><tspan
     style="font-size:6.97380018px;font-variant:normal;font-weight:normal;writing-mode:lr-tb;fill:#0000ff;fill-opacity:1;fill-rule:nonzero;stroke:none;font-family:CMR7;-inkscape-font-specification:CMR7"
     x="0 5.3551812 9.5408554 13.941323 16.19665 20.813307 24.784885 27.897989 31.439983 35.624264 38.737366 40.992695 44.534687 46.790012 49.045341 52.587334"
     y="0"
     sodipodi:role="line"
     id="tspan6609">Equipotentielles</tspan></text>

<g
   id="g6611"
   transform="translate(100.242,20.445)" /></g></g><g
               id="g6613"
               transform="translate(-17.482,30.09)" /></g></g><g
           id="g6615"><path
             d="m -3e-5,0 c 0,0 -0.01854,2e-5 -0.03927,-0.00128 -0.02074,-0.00134 -0.06998,-0.00417 -0.11025,-0.00838 -0.04027,-0.00423 -0.12056,-0.01318 -0.17998,-0.02214 -0.0594,-0.00894 -0.17032,-0.02698 -0.24826,-0.04243 -0.07796,-0.01546 -0.21779,-0.04531 -0.31354,-0.06899 -0.09575,-0.0237 -0.26403,-0.06827 -0.3766,-0.10182 C -1.3805,-0.2786 -1.57446,-0.3402 -1.70265,-0.38515 -1.83083,-0.43008 -2.04922,-0.51126 -2.19183,-0.56903 -2.33444,-0.62682 -2.57483,-0.7297 -2.7305,-0.80165 -2.88617,-0.87361 -3.14673,-1.0004 -3.31378,-1.08763 -3.48085,-1.17488 -3.7579,-1.3269 -3.9346,-1.43039 -4.1113,-1.53387 -4.40276,-1.71297 -4.58731,-1.83354 -4.77187,-1.95413 -5.0742,-2.16113 -5.26477,-2.2995 -5.45535,-2.43787 -5.76624,-2.6742 -5.961,-2.83084 -6.15575,-2.98752 -6.4716,-3.25343 -6.66849,-3.4287 -6.86537,-3.60396 -7.1832,-3.90016 -7.38004,-4.09407 -7.57687,-4.28795 -7.89262,-4.61389 -8.08717,-4.82616 -8.28174,-5.0384 -8.59189,-5.3934 -8.78238,-5.62395 -8.97285,-5.8545 -9.27559,-6.23936 -9.46007,-6.48784 c -0.18448,-0.24844 -0.47551,-0.66121 -0.65191,-0.9268 -0.1764,-0.2656 -0.45325,-0.70574 -0.6194,-0.98746 -0.16616,-0.28172 -0.42414,-0.74623 -0.57819,-1.04303 -0.15403,-0.29681 -0.39177,-0.78542 -0.53206,-1.09617 -0.14032,-0.31078 -0.35422,-0.82018 -0.47922,-1.14367 -0.125,-0.32347 -0.31373,-0.8533 -0.42178,-1.18785 -0.10803,-0.33455 -0.2674,-0.87958 -0.35698,-1.2234 -0.0896,-0.34383 -0.21902,-0.90348 -0.28882,-1.2547 -0.06976,-0.35123 -0.16517,-0.91997 -0.21414,-1.27678 -0.04897,-0.35683 -0.11127,-0.93422 -0.13876,-1.295 -0.0275,-0.36078 -0.05428,-0.94281 -0.05944,-1.30525 -0.0051,-0.36247 0.0044,-0.94536 0.02221,-1.30707 0.01785,-0.36174 0.06509,-0.94153 0.1065,-1.30005 0.04141,-0.3585 0.12705,-0.93049 0.19199,-1.28392 0.06494,-0.35344 0.18791,-0.91693 0.27614,-1.2634 0.08824,-0.34646 0.24846,-0.89641 0.35978,-1.23374 0.11135,-0.33733 0.30852,-0.87174 0.44261,-1.19756 0.1341,-0.32581 0.3675,-0.83919 0.52388,-1.15074 0.15641,-0.31153 0.4255,-0.79917 0.60334,-1.09468 0.17782,-0.29549 0.4803,-0.75714 0.67834,-1.03511 0.19803,-0.27798 0.53191,-0.70988 0.749,-0.96833 0.2171,-0.25846 0.58096,-0.65705 0.81571,-0.89455 0.23477,-0.2375 0.62529,-0.6031 0.87638,-0.81716 0.25107,-0.21407 0.66731,-0.53681 0.93321,-0.72579 0.26592,-0.18896 0.70461,-0.4728 0.98329,-0.6362 0.27869,-0.16337 0.73573,-0.40428 1.0253,-0.54136 0.28957,-0.13707 0.7632,-0.33731 1.06172,-0.44659 0.29854,-0.10929 0.78438,-0.26095 1.08997,-0.34113 0.30559,-0.08017 0.80206,-0.18575 1.11253,-0.2368 0.31047,-0.05103 0.81229,-0.10953 1.1252,-0.13112 0.31293,-0.02159 0.81668,-0.03281 1.13007,-0.02461 0.31343,0.0082 0.8169,0.04596 1.1288,0.08366 0.3119,0.03772 0.81118,0.12135 1.1192,0.18814 0.308,0.06677 0.79872,0.19733 1.10075,0.29323 0.30203,0.09592 0.7822,0.27362 1.07617,0.39807 0.29398,0.12445 0.75876,0.34732 1.04264,0.4989 0.28389,0.1516 0.7315,0.41609 1.00338,0.59372 0.27187,0.17764 0.69803,0.48392 0.95615,0.68654 0.25812,0.20262 0.6617,0.54701 0.90424,0.77383 0.24255,0.22686 0.61843,0.61223 0.84387,0.86113 0.22545,0.24892 0.5741,0.66356 0.78097,0.93285 0.20688,0.26927 0.52317,0.72009 0.71016,1.00804 0.18701,0.28798 0.47133,0.76321 0.63776,1.06741 0.16643,0.30419 0.41736,0.80536 0.56177,1.12502 0.14444,0.31966 0.35757,0.8465 0.47928,1.17888 0.1217,0.3324 0.29898,0.87445 0.3979,1.21681 0.09889,0.34238 0.23933,0.90025 0.31499,1.25078 0.07568,0.35052 0.17827,0.91895 0.23039,1.27557 0.05212,0.35663 0.11679,0.93411 0.14535,1.29482 0.02857,0.36067 0.05526,0.94256 0.06057,1.30482 0.0053,0.36224 -0.0049,0.94438 -0.02228,1.30606 -0.01734,0.36171 -0.06346,0.94185 -0.10269,1.30081 -0.03922,0.35895 -0.11965,0.93218 -0.18007,1.28629 -0.06044,0.3541 -0.17485,0.91844 -0.2555,1.26584 -0.08064,0.34737 -0.226,0.89888 -0.32576,1.2379 -0.09976,0.33902 -0.27578,0.87678 -0.39326,1.20555 -0.11748,0.32878 -0.32007,0.84744 -0.45351,1.16414 -0.13345,0.31669 -0.36046,0.81515 -0.50837,1.11847 -0.1479,0.30331 -0.39689,0.77891 -0.5577,1.06767 -0.16081,0.28874 -0.4293,0.74025 -0.60126,1.01337 -0.17193,0.27313 -0.45694,0.69868 -0.63798,0.95506 -0.18105,0.25641 -0.47888,0.65405 -0.66695,0.89291 -0.18806,0.23885 -0.49557,0.60791 -0.68856,0.82865 -0.193,0.22072 -0.50645,0.55989 -0.70245,0.76219 -0.196,0.20232 -0.51315,0.51213 -0.71023,0.69592 -0.1971,0.18379 -0.51434,0.46356 -0.71031,0.62871 -0.19597,0.16513 -0.5094,0.41484 -0.70215,0.56152 -0.19275,0.14668 -0.4995,0.36705 -0.68709,0.49573 -0.18759,0.12866 -0.48452,0.32042 -0.66502,0.43164 -0.18051,0.11122 -0.46439,0.27545 -0.63603,0.37 C 3.42192,-1.14268 3.15346,-1.00452 2.9924,-0.92574 2.83134,-0.84694 2.58153,-0.73338 2.43275,-0.66927 2.28397,-0.60515 2.05496,-0.5142 1.91998,-0.46353 1.78502,-0.41287 1.57983,-0.3427 1.45998,-0.3041 1.34012,-0.2655 1.15973,-0.21342 1.05617,-0.1854 0.95258,-0.15738 0.79958,-0.12115 0.71338,-0.10214 0.62717,-0.08313 0.50285,-0.06003 0.43486,-0.04832 0.36687,-0.0366 0.27238,-0.02385 0.22328,-0.01768 0.1742,-0.01152 0.11064,-0.00626 0.08095,-0.00383 0.05125,-0.00139 0.0192,-6.7e-4 0.00916,-1.2e-4 -8.4e-4,3.8e-4 -0.00108,-3.8e-4 0.0086,1e-4 0.01833,6.6e-4 0.04985,0.00133 0.07924,0.00371 0.10864,0.00609 0.1717,0.01126 0.22049,0.01735 0.26929,0.02345 0.36314,0.03603 0.43083,0.04764 0.49852,0.05925 0.62247,0.08217 0.70837,0.10106 0.79428,0.11995 0.9468,0.15593 1.05008,0.18378 1.15338,0.21164 1.33333,0.26346 1.45291,0.30185 1.5725,0.34024 1.7773,0.41013 1.912,0.46057 2.04672,0.51102 2.27534,0.60158 2.4239,0.66548 2.57243,0.72935 2.82176,0.84245 2.98267,0.921 3.14355,0.99957 3.412,1.13737 3.58353,1.23167 3.75504,1.32596 4.03856,1.48969 4.21889,1.60059 4.39922,1.7115 4.6957,1.90273 4.8832,2.03111 c 0.18748,0.12839 0.49424,0.34838 0.68698,0.4948 0.19274,0.14642 0.50628,0.39575 0.70224,0.56058 0.19595,0.16482 0.51301,0.44403 0.71003,0.62745 0.19704,0.18341 0.51404,0.49259 0.71007,0.69458 0.19603,0.202 0.50972,0.54082 0.70284,0.7613 0.19313,0.22047 0.50102,0.58928 0.68916,0.82783 0.18814,0.23854 0.48567,0.63541 0.66684,0.89151 0.18118,0.2561 0.46686,0.68146 0.63896,0.95428 0.17209,0.2728 0.44044,0.72356 0.60136,1.01203 0.16091,0.28843 0.41021,0.76379 0.5584,1.06693 0.14818,0.30314 0.3759,0.80137 0.5097,1.11793 0.13381,0.31654 0.33689,0.83501 0.45472,1.16368 0.1178,0.32864 0.29444,0.86629 0.39445,1.20509 0.09998,0.3388 0.24542,0.88959 0.32628,1.23677 0.08086,0.3472 0.19577,0.91155 0.25655,1.2656 0.06077,0.35405 0.14181,0.92723 0.1815,1.28618 0.03969,0.35891 0.08678,0.93907 0.10454,1.30078 0.01776,0.36171 0.02844,0.94404 0.02345,1.30618 -0.005,0.36214 -0.0312,0.94333 -0.05945,1.30394 -0.02822,0.3606 -0.09239,0.93839 -0.14413,1.29514 -0.05175,0.35671 -0.15354,0.92535 -0.22875,1.27601 -0.07519,0.35065 -0.21492,0.9086 -0.31338,1.25132 -0.09847,0.34271 -0.27492,0.88619 -0.39629,1.21878 -0.12137,0.3326 -0.33437,0.85865 -0.47854,1.17836 -0.14417,0.3197 -0.39464,0.82127 -0.56066,1.12593 -0.16603,0.30464 -0.44916,0.78173 -0.63589,1.06977 -0.18671,0.28803 -0.50321,0.73659 -0.70984,1.00622 -0.20662,0.2696 -0.55437,0.68734 -0.77941,0.93702 C 9.2699,31.71677 8.8946,32.10251 8.65239,32.32951 8.41019,32.5565 8.00714,32.90038 7.7492,33.10316 7.49126,33.30595 7.065,33.6131 6.79324,33.79112 6.52147,33.96915 6.07416,34.23424 5.79044,34.38625 5.50673,34.53827 5.04208,34.76161 4.74832,34.8867 4.45457,35.01183 3.97507,35.19142 3.67322,35.288 3.37137,35.38457 2.88069,35.51556 2.57275,35.5828 2.26482,35.65002 1.7656,35.73462 1.45374,35.77255 c -0.31186,0.03794 -0.81533,0.07527 -1.12873,0.08368 -0.3134,0.0084 -0.81714,-0.0021 -1.13008,-0.02298 -0.31296,-0.02092 -0.81494,-0.07748 -1.12538,-0.12784 -0.31045,-0.05037 -0.80656,-0.15522 -1.11221,-0.2352 -0.30565,-0.07995 -0.792,-0.23228 -1.09072,-0.34112 -0.29873,-0.10886 -0.77249,-0.30725 -1.06232,-0.44345 -0.2898,-0.13622 -0.74764,-0.37531 -1.02657,-0.53827 -0.2789,-0.16297 -0.71764,-0.44756 -0.98373,-0.63635 -0.26606,-0.18882 -0.68266,-0.51068 -0.93395,-0.72437 -0.25127,-0.2137 -0.64217,-0.57872 -0.87717,-0.81587 -0.235,-0.23712 -0.59912,-0.63535 -0.8166,-0.8933 -0.21748,-0.25793 -0.55238,-0.68824 -0.7508,-0.96571 -0.19844,-0.27747 -0.50123,-0.73869 -0.67938,-1.03412 -0.17812,-0.29542 -0.44772,-0.78363 -0.60451,-1.09511 -0.15677,-0.31147 -0.39097,-0.82449 -0.52543,-1.1499 -0.13448,-0.32541 -0.33213,-0.85834 -0.44376,-1.19548 -0.11165,-0.33714 -0.27234,-0.88797 -0.36095,-1.23446 -0.08861,-0.3465 -0.21238,-0.9096 -0.27777,-1.2629 -0.0654,-0.35329 -0.15181,-0.92506 -0.19362,-1.28348 -0.04178,-0.35842 -0.08956,-0.93795 -0.10768,-1.29977 -0.01811,-0.36182 -0.02765,-0.94557 -0.02287,-1.308 0.0048,-0.36241 0.03032,-0.94351 0.05736,-1.30412 0.02705,-0.36064 0.089,-0.9382 0.1376,-1.29505 0.04858,-0.35687 0.14331,-0.92558 0.21274,-1.277 0.06943,-0.35143 0.19827,-0.91173 0.28769,-1.25589 0.08941,-0.34417 0.24907,-0.88996 0.35681,-1.22461 0.10774,-0.33468 0.29506,-0.86385 0.41974,-1.18746 0.12466,-0.32361 0.33877,-0.83391 0.47886,-1.14494 0.14008,-0.31102 0.37708,-0.79981 0.53086,-1.0968 0.15376,-0.297 0.41148,-0.76175 0.5775,-1.04375 0.16603,-0.28201 0.44282,-0.72287 0.61908,-0.98875 C -9.94603,7.16428 -9.65536,6.7512 -9.47104,6.50253 -9.28671,6.25385 -8.98422,5.86867 -8.7938,5.63782 -8.60336,5.40695 -8.29306,5.05121 -8.09854,4.83862 -7.904,4.62607 -7.5886,4.29985 -7.39178,4.10567 -7.19498,3.91147 -6.87697,3.6146 -6.68,3.43898 -6.48303,3.26337 -6.1669,2.99684 -5.97217,2.83989 -5.77742,2.68295 -5.46703,2.44656 -5.27637,2.3079 -5.08571,2.16925 -4.78273,1.96144 -4.598,1.84056 -4.41331,1.71965 -4.12192,1.54027 -3.94508,1.43654 -3.76828,1.33278 -3.49083,1.18022 -3.32361,1.09276 -3.15637,1.00528 -2.8957,0.87814 -2.73985,0.80597 -2.58403,0.7338 -2.34323,0.63048 -2.20038,0.57246 -2.05753,0.51447 -1.83868,0.43294 -1.71025,0.3878 -1.58179,0.34265 -1.38736,0.28073 -1.27455,0.247 -1.16176,0.21327 -0.99326,0.1685 -0.89725,0.14467 -0.80122,0.12083 -0.66074,0.09071 -0.58247,0.07515 -0.50421,0.05957 -0.39293,0.04137 -0.3332,0.03233 -0.27348,0.02328 -0.19257,0.0142 -0.15196,0.0099 -0.11136,0.00562 -0.06158,0.00273 -0.04053,0.00134 -0.01945,0 -9e-5,0 -9e-5,0"
             style="fill:none;stroke:#ff0000;stroke-width:0.3985;stroke-linecap:butt;stroke-linejoin:miter;stroke-miterlimit:10;stroke-opacity:1;stroke-dasharray:none"
             id="path6617"
             inkscape:connector-curvature="0" /></g><g
           id="g6619"><path
             d="m 0,0 c 0,0 -0.00821,0 -0.01743,-5.5e-4 -0.0092,-5.9e-4 -0.03111,-0.00186 -0.04899,-0.00372 -0.0179,-0.00188 -0.05362,-0.00588 -0.08003,-0.00984 -0.0264,-0.00399 -0.07569,-0.012 -0.11034,-0.01886 -0.03462,-0.00689 -0.0968,-0.02015 -0.13936,-0.03069 C -0.4387,-0.07417 -0.51349,-0.09398 -0.56349,-0.1089 -0.61353,-0.1238 -0.69975,-0.15118 -0.75671,-0.17117 -0.81367,-0.19113 -0.91075,-0.22722 -0.97414,-0.2529 -1.0375,-0.27858 -1.14436,-0.32431 -1.21355,-0.35628 -1.28271,-0.38824 -1.39851,-0.44463 -1.47276,-0.48337 -1.54701,-0.52214 -1.67017,-0.58972 -1.7487,-0.63571 -1.82724,-0.6817 -1.95673,-0.76129 -2.03874,-0.81488 -2.12076,-0.86847 -2.25514,-0.96046 -2.33984,-1.02196 -2.42456,-1.08347 -2.56276,-1.1885 -2.64932,-1.25813 -2.73586,-1.32776 -2.87625,-1.44595 -2.96376,-1.52385 -3.05125,-1.60175 -3.19254,-1.7334 -3.28,-1.81956 -3.36748,-1.90573 -3.5078,-2.05058 -3.59427,-2.14493 -3.68074,-2.23927 -3.81857,-2.39703 -3.90324,-2.4995 -3.9879,-2.60196 -4.12248,-2.77304 -4.20445,-2.88345 -4.28644,-2.99387 -4.41579,-3.17732 -4.49419,-3.29536 -4.57259,-3.41342 -4.69563,-3.60905 -4.76947,-3.73425 -4.84332,-3.85945 -4.95796,-4.06589 -5.02641,-4.19778 -5.09488,-4.3297 -5.20058,-4.54688 -5.26294,-4.685 -5.32527,-4.82312 -5.42035,-5.04953 -5.47589,-5.1933 -5.53146,-5.33705 -5.61534,-5.57253 -5.66336,-5.7212 -5.71138,-5.8699 -5.7822,-6.11215 -5.82204,-6.26495 -5.86185,-6.41779 -5.91937,-6.66649 -5.95038,-6.8226 -5.9814,-6.9787 -6.0238,-7.23148 -6.04556,-7.39008 c -0.02178,-0.15858 -0.04949,-0.41523 -0.06169,-0.57557 -0.01221,-0.16033 -0.02411,-0.41899 -0.02639,-0.58008 -0.00229,-0.16107 0.00191,-0.42018 0.00984,-0.58093 0.00794,-0.16077 0.02895,-0.41846 0.04735,-0.57779 0.01841,-0.15932 0.05648,-0.41355 0.08533,-0.57062 0.02887,-0.15709 0.08352,-0.40752 0.12274,-0.56151 0.0392,-0.15399 0.11041,-0.39844 0.15988,-0.54835 0.04947,-0.14992 0.13713,-0.38742 0.19672,-0.53223 0.0596,-0.14481 0.16333,-0.373 0.23283,-0.51147 0.06951,-0.13847 0.18912,-0.3552 0.26816,-0.4865 0.07901,-0.13132 0.21347,-0.33649 0.3015,-0.46002 0.088,-0.12354 0.23637,-0.31554 0.33286,-0.43042 0.09648,-0.11489 0.2582,-0.29204 0.36256,-0.39759 0.10432,-0.10553 0.27789,-0.268 0.38948,-0.36315 0.11159,-0.09514 0.29662,-0.23858 0.41478,-0.32256 0.11818,-0.08398 0.31316,-0.21019 0.43701,-0.28281 0.12384,-0.0726 0.32698,-0.17965 0.45569,-0.24055 0.12869,-0.06091 0.33921,-0.1499 0.47188,-0.19847 0.13269,-0.04859 0.34862,-0.11598 0.48443,-0.15161 0.13579,-0.03563 0.35646,-0.08257 0.49445,-0.10526 0.13799,-0.0227 0.36102,-0.04869 0.50009,-0.0583 0.13907,-0.0096 0.36296,-0.01459 0.50223,-0.01094 0.13928,0.0036 0.36307,0.02043 0.50169,0.0372 0.13861,0.01674 0.36052,0.05397 0.49741,0.08365 0.1369,0.02967 0.35499,0.08766 0.48924,0.13028 0.13423,0.04261 0.34763,0.12161 0.47827,0.17694 0.13066,0.05529 0.33724,0.15435 0.46342,0.22171 0.12615,0.06738 0.32511,0.18493 0.44595,0.26387 0.12082,0.07895 0.31022,0.2151 0.42495,0.30514 0.11472,0.09004 0.2941,0.24311 0.40187,0.34392 0.10781,0.10082 0.27488,0.27211 0.37505,0.38274 0.10019,0.11061 0.25518,0.2949 0.34711,0.41459 0.09195,0.11968 0.23249,0.32004 0.31562,0.44803 0.08312,0.12798 0.20949,0.33917 0.28347,0.47437 0.07397,0.13519 0.18548,0.35794 0.24968,0.5 0.06418,0.14207 0.15892,0.37623 0.21298,0.52397 0.05409,0.14772 0.13292,0.38864 0.17686,0.54079 0.04395,0.15216 0.10637,0.40011 0.14,0.55591 0.03363,0.15579 0.0792,0.40846 0.10237,0.56695 0.02317,0.15851 0.05191,0.41516 0.06463,0.57547 0.01269,0.16029 0.02456,0.4189 0.0269,0.57989 0.00235,0.161 -0.00222,0.41977 -0.00992,0.58052 C 6.11603,-8.07011 6.0955,-7.81226 6.07808,-7.65274 6.06064,-7.49321 6.02492,-7.23846 5.99806,-7.08107 5.9712,-6.9237 5.92035,-6.67287 5.88449,-6.51848 5.84866,-6.36407 5.78407,-6.11897 5.73975,-5.9683 5.69542,-5.81764 5.61717,-5.57864 5.56497,-5.43253 5.51274,-5.2864 5.42268,-5.05586 5.36339,-4.91512 5.30406,-4.77434 5.20319,-4.55283 5.13745,-4.41801 5.07172,-4.2832 4.96101,-4.07181 4.88956,-3.94348 4.81808,-3.81514 4.69878,-3.61447 4.62236,-3.4931 4.54594,-3.37173 4.41924,-3.18257 4.33878,-3.06862 4.25833,-2.95467 4.12598,-2.77795 4.04239,-2.6718 3.9588,-2.56564 3.82211,-2.40158 3.73633,-2.30348 3.65056,-2.2054 3.51126,-2.05466 3.42415,-1.96474 3.33705,-1.87483 3.19609,-1.73714 3.10849,-1.65546 3.02092,-1.57378 2.8799,-1.44943 2.79282,-1.37602 2.70572,-1.30263 2.56642,-1.19167 2.48076,-1.12648 2.39508,-1.0613 2.25873,-0.96333 2.17535,-0.90614 2.09196,-0.84895 1.95999,-0.7637 1.87978,-0.7143 1.79958,-0.66487 1.6734,-0.59189 1.59712,-0.54987 1.52084,-0.50784 1.40152,-0.44644 1.32994,-0.41142 1.25836,-0.3764 1.14731,-0.32593 1.08118,-0.29744 1.01506,-0.26895 0.91328,-0.22852 0.8533,-0.20601 0.7933,-0.1835 0.70212,-0.15228 0.64885,-0.13513 0.59558,-0.118 0.51538,-0.09482 0.46936,-0.08238 0.42332,-0.06993 0.3553,-0.05382 0.31702,-0.04538 0.27872,-0.03694 0.22346,-0.02667 0.19324,-0.02145 0.16304,-0.01627 0.12102,-0.01057 0.0992,-0.00784 0.0774,-0.0051 0.04912,-0.00276 0.03593,-0.0017 0.02274,-6.1e-4 0.0085,-2.7e-4 0.00406,-5e-5 -3.7e-4,1.5e-4 -4.7e-4,-1.7e-4 0.00381,3e-5 0.00813,2.6e-4 0.02216,5.8e-4 0.0352,0.00163 0.04826,0.0027 0.07626,0.00499 0.09795,0.0077 0.1196,0.01039 0.16136,0.016 0.19145,0.02115 0.22153,0.02632 0.27663,0.03651 0.3148,0.0449 0.353,0.05328 0.42078,0.0693 0.46669,0.08167 0.51259,0.09406 0.59253,0.11708 0.64568,0.13414 0.69882,0.1512 0.78987,0.18227 0.84973,0.20467 0.90962,0.2271 1.01122,0.26736 1.07722,0.29575 1.14325,0.32413 1.25409,0.37442 1.3256,0.40932 1.39711,0.44423 1.51643,0.5055 1.59265,0.54738 1.66888,0.58928 1.79488,0.66205 1.875,0.71133 1.95514,0.76064 2.08694,0.84564 2.17027,0.9027 2.2536,0.95973 2.38991,1.05751 2.47559,1.12259 2.56125,1.18767 2.70064,1.2985 2.78773,1.37178 2.87482,1.44504 3.01573,1.56909 3.10329,1.65062 3.19086,1.73213 3.33179,1.86957 3.4189,1.95935 3.50603,2.04913 3.64546,2.1997 3.7313,2.2977 3.81711,2.39569 3.95393,2.5596 4.03755,2.66562 4.12115,2.77162 4.2534,2.948 4.33391,3.06183 4.41441,3.17563 4.54138,3.36467 4.61787,3.48593 4.69435,3.60718 4.81366,3.80754 4.88518,3.93575 4.95671,4.06393 5.0675,4.27522 5.13336,4.40994 5.19922,4.54466 5.30042,4.7661 5.35988,4.9068 5.41934,5.04747 5.50961,5.27792 5.56197,5.42398 5.61432,5.57004 5.69284,5.809 5.73727,5.95958 5.78171,6.11014 5.84637,6.35495 5.88231,6.50925 5.91824,6.66357 5.96933,6.9144 5.99634,7.07176 6.02335,7.2291 6.05936,7.48387 6.077,7.64339 6.09464,7.80287 6.11555,8.06073 6.12346,8.2215 6.13135,8.38225 6.13611,8.64108 6.13388,8.80205 6.13167,8.96298 6.12003,9.2213 6.10747,9.38156 6.09492,9.54184 6.06638,9.79863 6.04338,9.95717 6.0204,10.11569 5.97514,10.36842 5.94171,10.52428 5.9083,10.68011 5.8462,10.9281 5.80244,11.08041 5.75868,11.23271 5.68025,11.47429 5.62633,11.62212 5.57239,11.76993 5.47772,12.00372 5.41364,12.14581 5.34955,12.28789 5.23822,12.5108 5.16444,12.6462 5.09068,12.7816 4.96484,12.9937 4.88187,13.12172 4.79887,13.24973 4.6582,13.4491 4.56636,13.56891 4.47453,13.68872 4.31996,13.87439 4.21996,13.98534 4.11992,14.0963 3.95314,14.26776 3.8455,14.36864 3.73785,14.46953 3.55872,14.62236 3.44408,14.7125 3.32942,14.80261 3.13997,14.93913 3.0192,15.01823 2.8984,15.09735 2.6996,15.21516 2.5735,15.28273 2.44742,15.35028 2.24092,15.44962 2.11037,15.5052 1.97981,15.5608 1.76668,15.64061 1.63254,15.6835 1.49838,15.72643 1.28029,15.78464 1.14343,15.81451 1.00658,15.84439 0.7847,15.88203 0.64609,15.8989 0.50749,15.91577 0.28372,15.93236 0.14442,15.9361 0.00514,15.93983 -0.21872,15.93518 -0.3578,15.92587 -0.49689,15.91656 -0.71999,15.89142 -0.85796,15.86902 -0.99594,15.84663 -1.21643,15.80003 -1.35226,15.7645 -1.48811,15.72896 -1.70428,15.66125 -1.83705,15.6129 -1.96982,15.56453 -2.18037,15.47635 -2.30919,15.41582 -2.43799,15.3553 -2.64148,15.24904 -2.76544,15.1766 -2.8894,15.10416 -3.0844,14.97768 -3.20264,14.89377 -3.32089,14.80984 -3.50606,14.66676 -3.61772,14.5718 -3.7294,14.47682 -3.90315,14.31462 -4.0076,14.20921 -4.11203,14.10382 -4.27388,13.92683 -4.37051,13.8122 -4.46716,13.69756 -4.61603,13.50629 -4.70421,13.38297 -4.7924,13.25964 -4.927,13.05467 -5.00615,12.92337 -5.08533,12.7921 -5.20514,12.57506 -5.27481,12.43663 -5.3445,12.2982 -5.4486,12.07022 -5.50836,11.92561 -5.56813,11.78098 -5.65594,11.54408 -5.70557,11.39424 -5.75519,11.2444 -5.82663,10.99962 -5.86601,10.84563 -5.9054,10.69164 -5.96042,10.44138 -5.98947,10.28436 -6.01851,10.12733 -6.05693,9.87317 -6.0755,9.71387 -6.09407,9.55458 -6.11531,9.29703 -6.12337,9.13622 -6.13142,8.9754 -6.13567,8.71599 -6.13354,8.5549 -6.13142,8.39384 -6.12006,8.13556 -6.10803,7.97528 -6.09602,7.815 -6.06847,7.55827 -6.04688,7.39967 -6.02527,7.24107 -5.9832,6.98834 -5.95235,6.83215 -5.9215,6.67596 -5.86423,6.42694 -5.82448,6.27399 -5.78474,6.12102 -5.71378,5.87845 -5.6659,5.7297 -5.61803,5.58098 -5.53476,5.34576 -5.47935,5.20195 -5.42393,5.05814 -5.32874,4.8313 -5.2665,4.69307 -5.20424,4.55484 -5.09892,4.33762 -5.03058,4.20561 -4.96225,4.07364 -4.84769,3.86707 -4.77391,3.74173 -4.70012,3.6164 -4.57709,3.42044 -4.49876,3.30228 -4.42044,3.1841 -4.29128,3.00053 -4.20935,2.89 -4.12743,2.77948 -3.99294,2.60826 -3.9083,2.50566 -3.82365,2.40306 -3.68578,2.24496 -3.59933,2.1505 -3.51288,2.05602 -3.37267,1.91101 -3.2852,1.8247 -3.19771,1.7384 -3.05637,1.60645 -2.96883,1.5284 -2.8813,1.45035 -2.74083,1.3319 -2.6543,1.26216 -2.56776,1.19243 -2.42976,1.08734 -2.34503,1.02571 -2.26031,0.9641 -2.12566,0.87175 -2.04356,0.81801 -1.96147,0.76428 -1.83192,0.68454 -1.75333,0.63843 -1.67473,0.59232 -1.55144,0.52452 -1.47711,0.48566 -1.40279,0.44676 -1.28693,0.39027 -1.21767,0.3582 -1.1484,0.32611 -1.04137,0.2802 -0.97789,0.25441 -0.91441,0.22864 -0.81715,0.1924 -0.76007,0.17233 -0.70299,0.15227 -0.61656,0.12474 -0.56644,0.10976 -0.51631,0.09477 -0.4414,0.07487 -0.39876,0.06429 -0.35608,0.05368 -0.29364,0.04031 -0.25887,0.03337 -0.2241,0.02646 -0.17464,0.01837 -0.14807,0.01436 -0.12154,0.01035 -0.08556,0.0063 -0.0675,0.00438 -0.04945,0.00249 -0.02733,0.00119 -0.01797,5.8e-4 -0.00862,0 -3e-5,0 -3e-5,0"
             style="fill:none;stroke:#ff0000;stroke-width:0.3985;stroke-linecap:butt;stroke-linejoin:miter;stroke-miterlimit:10;stroke-opacity:1;stroke-dasharray:none"
             id="path6621"
             inkscape:connector-curvature="0" /></g><g
           id="g6623"><path
             d="m -35.86499,0 c 0,0 0.01274,-0.81786 0.02791,-1.13142 0.01517,-0.31358 0.05162,-0.81615 0.08146,-1.12864 0.02987,-0.31248 0.08954,-0.81309 0.13381,-1.12365 0.04426,-0.31058 0.12648,-0.80692 0.18527,-1.11479 0.05882,-0.30787 0.16509,-0.7998 0.23862,-1.1042 0.07355,-0.30444 0.20334,-0.78988 0.29146,-1.08982 0.0881,-0.29996 0.24144,-0.77716 0.34366,-1.07205 0.10221,-0.29491 0.27717,-0.76418 0.39306,-1.05343 0.11589,-0.28924 0.31308,-0.74845 0.44219,-1.03135 0.12909,-0.28293 0.34603,-0.73203 0.48831,-1.00771 0.14227,-0.27568 0.38148,-0.71173 0.53715,-0.97923 0.15567,-0.26747 0.41654,-0.68985 0.58481,-0.94868 0.16831,-0.25884 0.44817,-0.66723 0.62816,-0.9169 0.17998,-0.24968 0.47777,-0.64293 0.66916,-0.88266 0.19137,-0.23972 0.50773,-0.61607 0.71025,-0.84513 0.20251,-0.22903 0.53611,-0.58804 0.74941,-0.80578 0.2133,-0.21776 0.56445,-0.55786 0.7879,-0.76371 0.22346,-0.20585 0.5898,-0.52659 0.82263,-0.71994 0.23283,-0.19336 0.61404,-0.49313 0.85557,-0.67358 0.24152,-0.18047 0.63549,-0.46003 0.8852,-0.62706 0.2497,-0.16704 0.65715,-0.42409 0.91462,-0.57683 0.25747,-0.15272 0.67673,-0.38597 0.94108,-0.52394 0.26434,-0.13797 0.6937,-0.34767 0.96423,-0.47055 0.27052,-0.12286 0.70964,-0.30774 0.98557,-0.41516 0.27592,-0.10742 0.72276,-0.2675 1.00317,-0.35902 0.28038,-0.09151 0.73326,-0.22579 1.0178,-0.30063 0.28455,-0.07486 0.74511,-0.18116 1.03303,-0.23896 0.28793,-0.05778 0.7521,-0.13703 1.04222,-0.17759 0.29011,-0.04056 0.7572,-0.09199 1.04876,-0.11478 0.29157,-0.02281 0.76062,-0.0448 1.05271,-0.04962 0.29206,-0.0048 0.76051,0.0011 1.0524,0.01474 0.29185,0.01363 0.76019,0.05044 1.05119,0.08348 0.291,0.03302 0.75723,0.10209 1.04622,0.15462 0.289,0.0525 0.7508,0.15173 1.03671,0.22387 0.2859,0.07216 0.74205,0.20365 1.02399,0.2961 0.28192,0.09244 0.73097,0.25667 1.00802,0.37018 0.27704,0.11351 0.71741,0.31235 0.98871,0.44798 0.27133,0.13565 0.70233,0.37142 0.96677,0.52973 0.26443,0.15829 0.68298,0.42951 0.93915,0.61121 0.25615,0.1817 0.66011,0.49137 0.90712,0.69836 0.24703,0.20698 0.63659,0.55957 0.87333,0.79358 0.23676,0.23399 0.6082,0.62965 0.83304,0.89302 0.22484,0.26334 0.57594,0.70861 0.78755,1.00514 0.2116,0.2965 0.54085,0.7973 0.73754,1.13197 0.1967,0.33466 0.50033,0.89913 0.68008,1.28013 0.17975,0.38099 0.45511,1.02424 0.61546,1.46577 0.16034,0.44154 0.40276,1.18626 0.5403,1.71653 0.13756,0.53026 0.34201,1.41195 0.45111,2.10527 0.10909,0.69333 0.26712,2.16012 0.3353,2.8919 0.06818,0.73175 0.09917,2.59976 0.15614,2.38229 0.05699,-0.21747 0.16429,-3.06609 0.25466,-3.94963 0.09037,-0.88356 0.27269,-1.82079 0.39668,-2.41844 0.12399,-0.59766 0.34774,-1.40738 0.49696,-1.88909 0.14923,-0.4817 0.40833,-1.17308 0.57858,-1.58271 0.17023,-0.40963 0.46007,-1.01252 0.64844,-1.36963 0.18839,-0.35714 0.50502,-0.88913 0.70926,-1.20433 0.20426,-0.31519 0.54451,-0.78775 0.76283,-1.06753 0.21834,-0.2798 0.57991,-0.7005 0.81073,-0.94906 0.23079,-0.24854 0.61087,-0.62194 0.85276,-0.84232 0.24188,-0.22036 0.63882,-0.55152 0.89058,-0.74606 0.25172,-0.19452 0.66342,-0.48581 0.92376,-0.65594 0.26034,-0.17014 0.68473,-0.42336 0.95258,-0.57033 0.26786,-0.14697 0.7038,-0.36435 0.97803,-0.489 0.27421,-0.12463 0.71884,-0.30621 0.99843,-0.40938 0.27961,-0.10316 0.73265,-0.25171 1.01675,-0.3342 0.28412,-0.0825 0.74344,-0.19807 1.03095,-0.26049 0.28748,-0.06242 0.75105,-0.1466 1.0412,-0.18947 0.29015,-0.04291 0.75852,-0.09632 1.05007,-0.11975 0.29158,-0.02344 0.75939,-0.04479 1.05135,-0.0493 0.29196,-0.0045 0.76108,0.003 1.05299,0.01678 0.29193,0.01376 0.76007,0.05082 1.05107,0.08242 0.291,0.0316 0.75728,0.09632 1.04636,0.14536 0.28908,0.04903 0.75087,0.14191 1.03711,0.20804 0.28627,0.06616 0.74339,0.18578 1.02614,0.26879 0.28273,0.08301 0.73336,0.23007 1.01164,0.32951 0.27829,0.09943 0.72075,0.27203 0.99405,0.38714 0.27328,0.11512 0.70794,0.31218 0.97571,0.44249 0.26774,0.13033 0.69285,0.35172 0.95411,0.49687 0.26125,0.14515 0.6753,0.38964 0.92893,0.54938 0.25361,0.15976 0.65341,0.42835 0.89907,0.60204 0.24564,0.17369 0.63407,0.46303 0.87145,0.64986 0.2374,0.18681 0.61122,0.49716 0.83948,0.6967 0.22825,0.19955 0.5871,0.52982 0.80563,0.74156 0.21855,0.21171 0.56144,0.56102 0.7695,0.78444 0.20809,0.22345 0.53313,0.59152 0.73023,0.82597 0.19709,0.23448 0.5045,0.61928 0.69034,0.86392 0.18582,0.24463 0.47485,0.64505 0.649,0.89927 0.17416,0.25422 0.44409,0.66996 0.60632,0.9331 0.16223,0.26314 0.41356,0.69188 0.56293,0.96347 0.14934,0.27158 0.37772,0.71466 0.51361,0.99397 0.13588,0.27935 0.34314,0.73322 0.46588,1.01929 0.12273,0.28607 0.30959,0.75037 0.41878,1.04251 0.10917,0.29216 0.27282,0.76557 0.36816,1.06312 0.09535,0.29757 0.23807,0.77933 0.31899,1.08152 0.08091,0.30217 0.198,0.7903 0.26426,1.09641 0.06627,0.3061 0.16166,0.80055 0.21337,1.10989 0.05169,0.30934 0.12204,0.8081 0.1593,1.11969 0.03727,0.31157 0.08647,0.81296 0.1093,1.12599 0.02282,0.31303 0.04751,0.81635 0.05523,1.13025 0.0078,0.31389 0.0082,0.81828 5.5e-4,1.13217 -0.0076,0.31391 -0.03279,0.81712 -0.05523,1.13027 -0.02246,0.31312 -0.06977,0.81503 -0.10657,1.12664 -0.03682,0.3116 -0.10738,0.80991 -0.15877,1.11921 -0.05139,0.30931 -0.14577,0.80383 -0.21173,1.11007 -0.06598,0.30623 -0.18304,0.79476 -0.26376,1.09712 -0.08071,0.30239 -0.2228,0.78458 -0.31792,1.0822 -0.09513,0.29761 -0.2587,0.77074 -0.36768,1.06287 -0.10896,0.29213 -0.29528,0.75648 -0.41774,1.0427 -0.12245,0.2862 -0.3294,0.74062 -0.46487,1.02015 -0.13545,0.2795 -0.36264,0.72267 -0.51157,0.99437 -0.14895,0.27171 -0.40007,0.70062 -0.56197,0.96391 -0.16189,0.26331 -0.43088,0.67931 -0.60488,0.93378 -0.17398,0.25449 -0.46346,0.65546 -0.64911,0.90039 -0.18564,0.24493 -0.49216,0.63028 -0.68895,0.86496 -0.19679,0.2347 -0.52146,0.60286 -0.72938,0.82654 -0.20792,0.22368 -0.55075,0.57365 -0.76923,0.78558 -0.21845,0.21193 -0.57721,0.54213 -0.80533,0.7419 -0.2281,0.19975 -0.60168,0.51067 -0.83873,0.69789 -0.23704,0.18723 -0.62425,0.47755 -0.86978,0.65152 -0.24553,0.17397 -0.64629,0.44244 -0.89987,0.60243 -0.25359,0.15996 -0.66677,0.40509 -0.92783,0.5506 -0.26103,0.14549 -0.68594,0.36743 -0.95355,0.49811 -0.26759,0.13067 -0.702,0.32841 -0.9752,0.44375 -0.27321,0.11535 -0.71576,0.28791 -0.99398,0.38756 -0.27821,0.09967 -0.72867,0.24739 -1.01124,0.33081 -0.28258,0.08342 -0.73928,0.20383 -1.02541,0.27048 -0.28613,0.06664 -0.74785,0.16034 -1.03685,0.20978 -0.289,0.04947 -0.75514,0.11481 -1.04614,0.14671 -0.291,0.03189 -0.75937,0.06917 -1.05126,0.08328 -0.29188,0.01415 -0.76048,0.02279 -1.05258,0.01857 -0.29208,-0.0042 -0.7611,-0.02575 -1.05273,-0.0489 -0.29161,-0.02315 -0.7591,-0.0755 -1.04914,-0.11792 C 13.0994,22.03926 12.63571,21.9559 12.34811,21.8939 12.06052,21.83191 11.60083,21.71687 11.3166,21.63474 11.03238,21.5526 10.5793,21.40451 10.29958,21.30182 10.01988,21.19913 9.57501,21.0188 9.30067,20.89458 9.0263,20.77037 8.59023,20.55313 8.32219,20.40654 8.05418,20.25993 7.62941,20.00745 7.36896,19.83795 7.10849,19.66844 6.69676,19.37878 6.44489,19.1849 6.193,18.99101 5.79558,18.66055 5.5534,18.44058 5.31125,18.2206 4.93054,17.84744 4.6995,17.59944 4.46844,17.35144 4.10674,16.93222 3.88817,16.65315 3.6696,16.37407 3.32866,15.90234 3.12413,15.58804 2.9196,15.27374 2.60278,14.74391 2.4141,14.38783 2.2254,14.03174 1.93481,13.43005 1.76413,13.02159 1.59346,12.61313 1.33365,11.92375 1.18394,11.44386 1.03423,10.96396 0.80965,10.1571 0.68509,9.56279 0.56052,8.96848 0.3774,8.03172 0.28615,7.1604 0.19493,6.28906 0.08473,3.51927 0.02748,3.28282 c -0.0572,-0.23645 -0.08641,1.46674 -0.1539,2.17337 -0.06746,0.70662 -0.22401,2.22101 -0.33243,2.91959 -0.10843,0.69858 -0.31199,1.58285 -0.449,2.11529 -0.13703,0.53247 -0.37863,1.27947 -0.53853,1.72237 -0.15988,0.44292 -0.43445,1.08771 -0.61386,1.46989 -0.1794,0.38221 -0.48285,0.9491 -0.67925,1.28475 -0.19636,0.33565 -0.52491,0.83712 -0.73622,1.1344 -0.21132,0.29725 -0.56222,0.74397 -0.78686,1.00813 -0.22464,0.26416 -0.59586,0.66132 -0.83225,0.89579 -0.2364,0.23443 -0.62472,0.5866 -0.87158,0.79403 -0.24687,0.20743 -0.65169,0.51865 -0.90776,0.70102 -0.25607,0.18237 -0.67381,0.45477 -0.93793,0.61343 -0.26413,0.15866 -0.69459,0.39426 -0.9657,0.53015 -0.27108,0.13591 -0.71116,0.33541 -0.98817,0.44942 -0.27701,0.11402 -0.72634,0.27931 -1.0083,0.37235 -0.28197,0.09303 -0.73804,0.22549 -1.024,0.29825 -0.28597,0.07275 -0.7482,0.17327 -1.03711,0.22615 -0.28891,0.05287 -0.75446,0.12179 -1.04523,0.155 -0.29077,0.0332 -0.75865,0.07026 -1.05048,0.08431 -0.29181,0.01406 -0.76062,0.02141 -1.05276,0.01696 -0.29215,-0.0045 -0.7612,-0.02672 -1.05283,-0.04915 -0.29161,-0.02245 -0.75877,-0.07252 -1.04895,-0.11261 -0.29018,-0.04007 -0.75451,-0.11873 -1.04248,-0.17627 -0.28796,-0.05753 -0.74832,-0.16391 -1.03296,-0.23848 -0.28464,-0.07457 -0.73796,-0.20795 -1.01857,-0.29895 -0.28062,-0.09097 -0.72805,-0.2498 -1.00398,-0.35689 -0.27595,-0.10712 -0.71422,-0.29242 -0.98477,-0.41512 -0.27057,-0.12269 -0.70062,-0.33163 -0.96527,-0.4693 -0.26463,-0.13766 -0.68448,-0.37034 -0.94205,-0.52284 -0.25758,-0.15249 -0.66453,-0.40959 -0.91438,-0.57627 -0.24983,-0.16668 -0.64453,-0.44495 -0.88631,-0.62503 -0.24177,-0.18009 -0.62331,-0.4798 -0.85629,-0.67293 -0.23297,-0.19312 -0.59932,-0.51358 -0.82292,-0.71909 -0.2236,-0.20547 -0.57517,-0.54452 -0.78868,-0.76205 -0.21351,-0.21752 -0.54747,-0.57679 -0.75023,-0.80573 -0.20275,-0.22893 -0.51946,-0.6048 -0.71117,-0.8443 -0.1917,-0.23948 -0.49031,-0.63243 -0.67055,-0.88189 -0.18022,-0.24949 -0.46014,-0.65743 -0.62854,-0.91613 -0.16839,-0.25869 -0.42938,-0.68112 -0.58525,-0.94844 -0.15587,-0.26733 -0.39549,-0.70285 -0.53811,-0.97827 -0.14263,-0.2754 -0.36031,-0.72403 -0.48984,-1.00677 C -33.84749,9.58823 -34.04546,9.1291 -34.16171,8.83992 -34.27794,8.55077 -34.45337,8.0817 -34.5558,7.78679 -34.65823,7.4919 -34.81166,7.01434 -34.9,6.71436 -34.98831,6.41438 -35.11874,5.92897 -35.19249,5.62476 -35.26625,5.32053 -35.37244,4.82942 -35.43163,4.52173 -35.49081,4.21404 -35.57439,3.71764 -35.6191,3.4071 -35.66382,3.09656 -35.7238,2.59602 -35.75397,2.28354 -35.78413,1.97105 -35.82114,1.46852 -35.83653,1.15495 -35.85193,0.84138 -35.86499,0.02351 -35.86499,0.02351"
             style="fill:none;stroke:#0000ff;stroke-width:0.3985;stroke-linecap:butt;stroke-linejoin:miter;stroke-miterlimit:10;stroke-opacity:1;stroke-dasharray:none"
             id="path6625"
             inkscape:connector-curvature="0" /></g><g
           id="g6627"><path
             d="m -23.90999,0 c 0,0 0.0085,-0.54523 0.01862,-0.75427 0.01008,-0.20906 0.03439,-0.54412 0.05429,-0.75243 0.01993,-0.20833 0.05971,-0.54207 0.08922,-0.74911 0.02948,-0.20705 0.0843,-0.53792 0.1235,-0.74319 0.03922,-0.20525 0.11005,-0.5332 0.15907,-0.73614 0.04903,-0.20294 0.13556,-0.52659 0.19431,-0.72655 0.05873,-0.19996 0.16098,-0.51809 0.22913,-0.71469 0.06814,-0.19659 0.18476,-0.50944 0.26203,-0.70228 0.07726,-0.19284 0.20872,-0.49898 0.29479,-0.68756 0.08607,-0.18862 0.2307,-0.48802 0.32556,-0.67182 0.09483,-0.18377 0.25429,-0.47448 0.35808,-0.6528 0.10377,-0.17833 0.27769,-0.4599 0.38988,-0.63246 0.11219,-0.17256 0.29878,-0.44481 0.41877,-0.61127 0.11997,-0.16647 0.31852,-0.42862 0.44611,-0.58843 0.12756,-0.15983 0.33848,-0.41073 0.47351,-0.56342 0.13501,-0.15271 0.35741,-0.39202 0.4996,-0.5372 0.14218,-0.14516 0.37628,-0.37191 0.52527,-0.50913 0.14896,-0.13722 0.39319,-0.35109 0.5484,-0.47996 0.15521,-0.12889 0.40938,-0.32877 0.57039,-0.44905 0.161,-0.12032 0.42365,-0.30671 0.59014,-0.41806 0.16647,-0.11136 0.43809,-0.28272 0.60974,-0.38454 0.17166,-0.10182 0.45114,-0.25731 0.62738,-0.34929 0.17624,-0.09198 0.46249,-0.2318 0.64283,-0.31372 0.18035,-0.08191 0.4731,-0.20514 0.65705,-0.27677 0.18394,-0.07159 0.48182,-0.17832 0.66876,-0.23933 0.18694,-0.06102 0.48885,-0.15053 0.67854,-0.20044 0.1897,-0.04989 0.49674,-0.12076 0.68869,-0.15929 0.19194,-0.03852 0.50141,-0.09136 0.69483,-0.1184 0.1934,-0.02703 0.50477,-0.06131 0.69917,-0.07651 0.19437,-0.01521 0.5071,-0.02986 0.7018,-0.03308 0.1947,-0.0032 0.50702,7.5e-4 0.70158,0.0098 0.19457,0.0091 0.50681,0.03364 0.70081,0.05565 0.194,0.02201 0.50484,0.06807 0.69749,0.10309 0.19266,0.03499 0.50052,0.10117 0.69113,0.14925 0.19062,0.04808 0.49471,0.13576 0.68265,0.19738 0.18796,0.06164 0.48734,0.17113 0.67201,0.2468 0.18468,0.07567 0.47829,0.2082 0.65917,0.29865 0.18086,0.09044 0.4682,0.24762 0.64449,0.35316 0.17628,0.10552 0.45533,0.28633 0.6261,0.40747 0.17077,0.12112 0.44009,0.32758 0.60476,0.46558 0.16467,0.13798 0.42439,0.37303 0.58221,0.52902 0.15784,0.15601 0.40546,0.41978 0.55535,0.59537 0.14988,0.17557 0.38398,0.47241 0.52505,0.67007 0.14105,0.19769 0.36057,0.53156 0.49169,0.75466 0.13113,0.22311 0.33357,0.59945 0.4534,0.85342 0.11984,0.25398 0.3034,0.68285 0.4103,0.97719 0.10689,0.29436 0.2685,0.79085 0.36019,1.14435 0.0917,0.3535 0.22801,0.9413 0.30075,1.40352 0.07274,0.46223 0.17807,1.44006 0.22352,1.92791 0.04545,0.48784 0.06612,1.73317 0.10408,1.58821 0.03798,-0.14497 0.10955,-2.04405 0.16979,-2.63308 0.06024,-0.58904 0.18178,-1.21386 0.26443,-1.6123 0.08266,-0.39845 0.23183,-0.93824 0.33132,-1.25938 0.0995,-0.32112 0.27222,-0.78206 0.38573,-1.05514 0.11347,-0.2731 0.3067,-0.67502 0.43229,-0.91312 0.12558,-0.23806 0.33669,-0.59273 0.47284,-0.80287 0.13617,-0.21014 0.36301,-0.52516 0.50855,-0.71169 0.14557,-0.18652 0.38662,-0.46699 0.54048,-0.63269 0.15387,-0.16568 0.40725,-0.41464 0.56851,-0.56155 0.16124,-0.14691 0.42589,-0.36769 0.5937,-0.49738 0.16782,-0.12968 0.4423,-0.32386 0.61586,-0.43728 0.17356,-0.11344 0.45649,-0.28224 0.63506,-0.38024 0.17856,-0.09799 0.46919,-0.24292 0.65199,-0.326 0.18283,-0.08308 0.47925,-0.20415 0.66564,-0.27292 0.18641,-0.06877 0.48845,-0.1678 0.67784,-0.22279 0.18941,-0.05503 0.49562,-0.13205 0.68728,-0.17366 0.19167,-0.04161 0.50071,-0.09773 0.69414,-0.12633 0.19344,-0.02859 0.50568,-0.06419 0.70006,-0.07982 0.19438,-0.01562 0.50624,-0.02988 0.70089,-0.03288 0.19465,-0.003 0.50739,0.002 0.702,0.01118 0.19461,0.0092 0.5067,0.03391 0.7007,0.05498 0.19402,0.02106 0.50488,0.06421 0.69757,0.09689 0.19272,0.03269 0.5006,0.09461 0.69143,0.13871 0.19084,0.04409 0.49558,0.12384 0.68409,0.17917 0.18848,0.05535 0.48892,0.15341 0.67442,0.21968 0.18554,0.06628 0.48052,0.18136 0.66269,0.2581 0.1822,0.07673 0.47197,0.20811 0.65049,0.295 0.17848,0.0869 0.46189,0.23446 0.63606,0.33123 0.17418,0.09678 0.45021,0.25975 0.61928,0.36626 0.16909,0.10651 0.43563,0.28557 0.59941,0.40137 0.16374,0.11578 0.4227,0.30867 0.58095,0.43323 0.15826,0.12454 0.40748,0.33144 0.55966,0.46447 0.15217,0.13303 0.39138,0.3532 0.53709,0.49436 0.14569,0.14114 0.37428,0.37402 0.51299,0.52298 0.13871,0.14894 0.35543,0.39435 0.48683,0.55066 0.13139,0.15629 0.33633,0.41284 0.46022,0.57592 0.12387,0.16309 0.31657,0.43005 0.43266,0.59951 0.11612,0.16949 0.29608,0.44665 0.40422,0.62208 0.10816,0.17542 0.27571,0.46126 0.37528,0.64231 0.09956,0.18104 0.25183,0.47644 0.34242,0.66265 0.09059,0.1862 0.22874,0.4888 0.31056,0.67952 0.08183,0.19071 0.20642,0.50023 0.27921,0.69501 0.07278,0.19478 0.18188,0.51036 0.24545,0.70874 0.06354,0.19837 0.15871,0.51958 0.21265,0.72101 0.05394,0.20146 0.132,0.52686 0.17617,0.73092 0.04418,0.20408 0.10778,0.53373 0.14225,0.73995 0.03445,0.20624 0.08137,0.53875 0.1062,0.74646 0.02484,0.20772 0.05765,0.54198 0.07286,0.75066 0.01521,0.20869 0.03168,0.54423 0.03683,0.75351 0.0052,0.20926 0.0054,0.5455 3.7e-4,0.75476 C 23.90056,0.57881 23.88373,0.9143 23.86877,1.12305 23.8538,1.3318 23.82227,1.66641 23.79773,1.87415 23.77318,2.0819 23.72615,2.4141 23.69188,2.6203 23.65762,2.82649 23.5947,3.15617 23.55074,3.36034 23.50674,3.5645 23.4287,3.89018 23.3749,4.09175 23.3211,4.29333 23.22636,4.6148 23.16296,4.81322 23.09953,5.01163 22.99048,5.32704 22.91783,5.52179 22.84518,5.71654 22.72098,6.02611 22.63933,6.21692 22.5577,6.40771 22.41974,6.7107 22.32942,6.89702 22.2391,7.08337 22.08766,7.3788 21.98836,7.55995 c -0.09929,0.18114 -0.2667,0.46707 -0.37464,0.6426 -0.10792,0.17553 -0.28727,0.45288 -0.40324,0.62252 -0.116,0.16967 -0.30898,0.43698 -0.43274,0.60025 -0.12378,0.16329 -0.32812,0.42018 -0.45932,0.57665 -0.13118,0.15646 -0.34762,0.4019 -0.48624,0.55103 -0.13862,0.1491 -0.36718,0.38242 -0.51281,0.52372 -0.14563,0.14127 -0.38483,0.36142 -0.5369,0.4946 -0.15205,0.13316 -0.40111,0.34042 -0.55916,0.46526 -0.15802,0.1248 -0.41617,0.31835 -0.57985,0.43434 -0.16368,0.11599 -0.43084,0.29496 -0.59991,0.40162 -0.16904,0.10665 -0.44452,0.27007 -0.61855,0.36707 -0.17402,0.097 -0.45729,0.24495 -0.6357,0.33206 -0.1784,0.08711 -0.468,0.21895 -0.65014,0.29584 -0.18216,0.0769 -0.47716,0.19195 -0.66264,0.25839 -0.18549,0.06644 -0.48578,0.16492 -0.67417,0.22054 -0.18838,0.0556 -0.49284,0.13589 -0.68359,0.18029 -0.19076,0.04442 -0.49858,0.10691 -0.69124,0.13987 -0.19267,0.03297 -0.50343,0.07653 -0.69743,0.0978 -0.19402,0.02126 -0.50624,0.04612 -0.70085,0.05555 -0.1946,0.0094 -0.50698,0.01515 -0.70171,0.01235 C 10.1328,14.82951 9.82011,14.81512 9.6257,14.7997 9.43129,14.78429 9.11964,14.74936 8.92627,14.7211 8.73293,14.69284 8.4238,14.63728 8.23207,14.59593 8.04034,14.5546 7.73386,14.4779 7.54439,14.42314 7.3549,14.3684 7.05284,14.26967 6.86638,14.2012 6.67993,14.13274 6.38333,14.01253 6.20044,13.9297 6.01753,13.8469 5.7268,13.70209 5.54814,13.60435 5.36945,13.50662 5.08627,13.33829 4.91263,13.22528 4.73898,13.1123 4.46451,12.91917 4.29657,12.78993 4.12865,12.66068 3.86371,12.44037 3.70227,12.29372 3.54082,12.14708 3.28702,11.89827 3.13298,11.73296 2.97896,11.56763 2.73781,11.28815 2.5921,11.10208 2.4464,10.91605 2.21909,10.60156 2.08275,10.39201 1.94641,10.1825 1.73518,9.82925 1.60938,9.59187 1.4836,9.35448 1.28987,8.95337 1.17609,8.68105 1.0623,8.40874 0.8891,7.94916 0.78928,7.62923 0.68948,7.3093 0.53975,6.7714 0.45673,6.37518 0.37367,5.97897 0.25159,5.35448 0.19077,4.77359 0.12994,4.19272 0.05649,2.34618 0.01831,2.18854 -0.01982,2.03091 -0.03928,3.16637 -0.08427,3.63747 c -0.04499,0.47107 -0.14934,1.48066 -0.22164,1.94638 -0.07226,0.46573 -0.20798,1.05523 -0.2993,1.41021 -0.09134,0.35497 -0.25244,0.85297 -0.35902,1.14823 -0.1066,0.29527 -0.28963,0.72513 -0.40924,0.97992 -0.11962,0.2548 -0.32192,0.63273 -0.45284,0.8565 -0.13092,0.22376 -0.34996,0.55809 -0.49083,0.75626 -0.14088,0.19818 -0.3748,0.49599 -0.52458,0.67209 -0.14975,0.1761 -0.3972,0.4409 -0.55483,0.5972 -0.15759,0.15629 -0.41647,0.39106 -0.58105,0.52936 -0.16458,0.13828 -0.43445,0.34576 -0.60516,0.46734 -0.17072,0.12158 -0.44922,0.30319 -0.62529,0.40895 -0.17609,0.10578 -0.46308,0.26283 -0.64379,0.35344 -0.18072,0.09061 -0.47412,0.2236 -0.6588,0.29961 -0.18466,0.07602 -0.4842,0.18622 -0.67218,0.24824 -0.18798,0.06201 -0.49205,0.15033 -0.68269,0.19883 -0.19064,0.0485 -0.49879,0.11552 -0.69141,0.15075 -0.19259,0.03523 -0.50296,0.08121 -0.6968,0.10335 -0.19385,0.02212 -0.50578,0.04684 -0.70034,0.05621 -0.19453,0.0094 -0.50706,0.01426 -0.70182,0.01129 -0.19475,-0.003 -0.50748,-0.0178 -0.70189,-0.03276 -0.1944,-0.01495 -0.50585,-0.04835 -0.69931,-0.07507 -0.19344,-0.02672 -0.50301,-0.07916 -0.69498,-0.11752 -0.19197,-0.03835 -0.49889,-0.10928 -0.68864,-0.15898 -0.18976,-0.04972 -0.49196,-0.13865 -0.67904,-0.1993 -0.1871,-0.06065 -0.48538,-0.16652 -0.66932,-0.23793 -0.18396,-0.0714 -0.47615,-0.19493 -0.65653,-0.27673 -0.18037,-0.0818 -0.46708,-0.2211 -0.64351,-0.31287 -0.1764,-0.09178 -0.45631,-0.24692 -0.62802,-0.34857 -0.17172,-0.10165 -0.44305,-0.27306 -0.6096,-0.38417 -0.16655,-0.11112 -0.4297,-0.29663 -0.59087,-0.4167 -0.16118,-0.12004 -0.41554,-0.31986 -0.57084,-0.44861 -0.15532,-0.12876 -0.39957,-0.34239 -0.54862,-0.4794 -0.14908,-0.137 -0.38345,-0.36302 -0.52579,-0.50803 -0.14233,-0.14502 -0.36499,-0.38454 -0.50016,-0.53715 -0.13518,-0.15261 -0.34632,-0.4032 -0.47411,-0.56287 C -20.6649,9.57529 -20.86398,9.31335 -20.98413,9.14703 -21.1043,8.98073 -21.29088,8.70876 -21.40317,8.5363 -21.51544,8.36383 -21.68942,8.08221 -21.79335,7.904 -21.89726,7.72577 -22.05699,7.43541 -22.15207,7.25182 -22.24716,7.0682 -22.39229,6.76913 -22.47864,6.58063 -22.56499,6.39214 -22.69698,6.08606 -22.77446,5.89328 -22.85196,5.7005 -22.9689,5.38779 -23.03719,5.1912 c -0.06829,-0.19662 -0.17059,-0.51499 -0.22946,-0.71497 -0.0589,-0.19998 -0.14584,-0.52361 -0.19499,-0.7264 -0.04918,-0.2028 -0.11998,-0.53023 -0.15944,-0.73536 -0.03946,-0.20513 -0.09517,-0.53605 -0.12497,-0.74309 -0.02981,-0.20702 -0.06982,-0.5407 -0.08993,-0.74903 -0.0201,-0.20831 -0.04477,-0.54333 -0.05502,-0.75239 -0.01029,-0.20905 -0.01899,-0.75429 -0.01899,-0.75429"
             style="fill:none;stroke:#0000ff;stroke-width:0.3985;stroke-linecap:butt;stroke-linejoin:miter;stroke-miterlimit:10;stroke-opacity:1;stroke-dasharray:none"
             id="path6629"
             inkscape:connector-curvature="0" /></g></g></g></g></svg>