<?xml version="1.0" encoding="UTF-8"?>
<!-- Converted by misc2svg (http://www.network-science.de/tools/misc2svg/) -->
<svg xmlns="http://www.w3.org/2000/svg" xmlns:xlink="http://www.w3.org/1999/xlink" width="155pt" height="127pt" viewBox="0 0 155 127" version="1.1">
<defs>
<clipPath id="clip1">
  <path d="M 7.429688 119.398438 L 7.429688 7.429688 L 147.75 7.429688 L 147.75 119.398438 L 7.429688 119.398438 Z M 7.429688 119.398438 "/>
</clipPath>
</defs>
<g id="misc2svg">
<path style="fill:none;stroke-width:0.79701;stroke-linecap:butt;stroke-linejoin:miter;stroke:rgb(0%,0%,0%);stroke-opacity:1;stroke-miterlimit:10;" d="M -0.001875 9.962 L -0.001875 80.746375 C -0.001875 86.246375 4.460625 90.708875 9.96375 90.708875 L 103.42 90.708875 C 108.92625 90.708875 113.385625 86.246375 113.385625 80.746375 L 113.385625 9.962 C 113.385625 4.462 108.92625 -0.0005 103.42 -0.0005 L 9.96375 -0.0005 C 4.460625 -0.0005 -0.001875 4.462 -0.001875 9.962 Z M -0.001875 9.962 " transform="matrix(1.25,0,0,-1.25,6.725,120.10875)"/>
<g clip-path="url(#clip1)" clip-rule="nonzero">
<path style="fill:none;stroke-width:0.19925;stroke-linecap:butt;stroke-linejoin:miter;stroke:rgb(90.196078%,90.196078%,90.196078%);stroke-opacity:1;stroke-miterlimit:10;" d="M 11.33875 0.56825 L 11.33875 90.14325 " transform="matrix(1.25,0,0,-1.25,6.725,120.10875)"/>
<path style="fill:none;stroke-width:0.19925;stroke-linecap:butt;stroke-linejoin:miter;stroke:rgb(90.196078%,90.196078%,90.196078%);stroke-opacity:1;stroke-miterlimit:10;" d="M 22.679375 0.56825 L 22.679375 90.14325 " transform="matrix(1.25,0,0,-1.25,6.725,120.10875)"/>
<path style="fill:none;stroke-width:0.19925;stroke-linecap:butt;stroke-linejoin:miter;stroke:rgb(90.196078%,90.196078%,90.196078%);stroke-opacity:1;stroke-miterlimit:10;" d="M 34.01375 0.56825 L 34.01375 90.14325 " transform="matrix(1.25,0,0,-1.25,6.725,120.10875)"/>
<path style="fill:none;stroke-width:0.19925;stroke-linecap:butt;stroke-linejoin:miter;stroke:rgb(90.196078%,90.196078%,90.196078%);stroke-opacity:1;stroke-miterlimit:10;" d="M 45.354375 0.56825 L 45.354375 90.14325 " transform="matrix(1.25,0,0,-1.25,6.725,120.10875)"/>
<path style="fill:none;stroke-width:0.19925;stroke-linecap:butt;stroke-linejoin:miter;stroke:rgb(90.196078%,90.196078%,90.196078%);stroke-opacity:1;stroke-miterlimit:10;" d="M 56.695 0.56825 L 56.695 90.14325 " transform="matrix(1.25,0,0,-1.25,6.725,120.10875)"/>
<path style="fill:none;stroke-width:0.19925;stroke-linecap:butt;stroke-linejoin:miter;stroke:rgb(90.196078%,90.196078%,90.196078%);stroke-opacity:1;stroke-miterlimit:10;" d="M 68.029375 0.56825 L 68.029375 90.14325 " transform="matrix(1.25,0,0,-1.25,6.725,120.10875)"/>
<path style="fill:none;stroke-width:0.19925;stroke-linecap:butt;stroke-linejoin:miter;stroke:rgb(90.196078%,90.196078%,90.196078%);stroke-opacity:1;stroke-miterlimit:10;" d="M 79.37 0.56825 L 79.37 90.14325 " transform="matrix(1.25,0,0,-1.25,6.725,120.10875)"/>
<path style="fill:none;stroke-width:0.19925;stroke-linecap:butt;stroke-linejoin:miter;stroke:rgb(90.196078%,90.196078%,90.196078%);stroke-opacity:1;stroke-miterlimit:10;" d="M 90.710625 0.56825 L 90.710625 90.14325 " transform="matrix(1.25,0,0,-1.25,6.725,120.10875)"/>
<path style="fill:none;stroke-width:0.19925;stroke-linecap:butt;stroke-linejoin:miter;stroke:rgb(90.196078%,90.196078%,90.196078%);stroke-opacity:1;stroke-miterlimit:10;" d="M 102.045 0.56825 L 102.045 90.14325 " transform="matrix(1.25,0,0,-1.25,6.725,120.10875)"/>
<path style="fill:none;stroke-width:0.19925;stroke-linecap:butt;stroke-linejoin:miter;stroke:rgb(90.196078%,90.196078%,90.196078%);stroke-opacity:1;stroke-miterlimit:10;" d="M 0.566875 11.337 L 112.82 11.337 " transform="matrix(1.25,0,0,-1.25,6.725,120.10875)"/>
<path style="fill:none;stroke-width:0.19925;stroke-linecap:butt;stroke-linejoin:miter;stroke:rgb(90.196078%,90.196078%,90.196078%);stroke-opacity:1;stroke-miterlimit:10;" d="M 0.566875 22.677625 L 112.82 22.677625 " transform="matrix(1.25,0,0,-1.25,6.725,120.10875)"/>
<path style="fill:none;stroke-width:0.19925;stroke-linecap:butt;stroke-linejoin:miter;stroke:rgb(90.196078%,90.196078%,90.196078%);stroke-opacity:1;stroke-miterlimit:10;" d="M 0.566875 34.01825 L 112.82 34.01825 " transform="matrix(1.25,0,0,-1.25,6.725,120.10875)"/>
<path style="fill:none;stroke-width:0.19925;stroke-linecap:butt;stroke-linejoin:miter;stroke:rgb(90.196078%,90.196078%,90.196078%);stroke-opacity:1;stroke-miterlimit:10;" d="M 0.566875 45.352625 L 112.82 45.352625 " transform="matrix(1.25,0,0,-1.25,6.725,120.10875)"/>
<path style="fill:none;stroke-width:0.19925;stroke-linecap:butt;stroke-linejoin:miter;stroke:rgb(90.196078%,90.196078%,90.196078%);stroke-opacity:1;stroke-miterlimit:10;" d="M 0.566875 56.69325 L 112.82 56.69325 " transform="matrix(1.25,0,0,-1.25,6.725,120.10875)"/>
<path style="fill:none;stroke-width:0.19925;stroke-linecap:butt;stroke-linejoin:miter;stroke:rgb(90.196078%,90.196078%,90.196078%);stroke-opacity:1;stroke-miterlimit:10;" d="M 0.566875 68.033875 L 112.82 68.033875 " transform="matrix(1.25,0,0,-1.25,6.725,120.10875)"/>
<path style="fill:none;stroke-width:0.19925;stroke-linecap:butt;stroke-linejoin:miter;stroke:rgb(90.196078%,90.196078%,90.196078%);stroke-opacity:1;stroke-miterlimit:10;" d="M 0.566875 79.36825 L 112.82 79.36825 " transform="matrix(1.25,0,0,-1.25,6.725,120.10875)"/>
<path style="fill:none;stroke-width:0.19925;stroke-linecap:butt;stroke-linejoin:miter;stroke:rgb(90.196078%,90.196078%,90.196078%);stroke-opacity:1;stroke-miterlimit:10;" d="M 2.27 46.490125 L 2.27 44.221375 " transform="matrix(1.25,0,0,-1.25,6.725,120.10875)"/>
<path style="fill:none;stroke-width:0.19925;stroke-linecap:butt;stroke-linejoin:miter;stroke:rgb(90.196078%,90.196078%,90.196078%);stroke-opacity:1;stroke-miterlimit:10;" d="M 4.535625 46.490125 L 4.535625 44.221375 " transform="matrix(1.25,0,0,-1.25,6.725,120.10875)"/>
<path style="fill:none;stroke-width:0.19925;stroke-linecap:butt;stroke-linejoin:miter;stroke:rgb(90.196078%,90.196078%,90.196078%);stroke-opacity:1;stroke-miterlimit:10;" d="M 6.804375 46.490125 L 6.804375 44.221375 " transform="matrix(1.25,0,0,-1.25,6.725,120.10875)"/>
<path style="fill:none;stroke-width:0.19925;stroke-linecap:butt;stroke-linejoin:miter;stroke:rgb(90.196078%,90.196078%,90.196078%);stroke-opacity:1;stroke-miterlimit:10;" d="M 9.07 46.490125 L 9.07 44.221375 " transform="matrix(1.25,0,0,-1.25,6.725,120.10875)"/>
<path style="fill:none;stroke-width:0.19925;stroke-linecap:butt;stroke-linejoin:miter;stroke:rgb(90.196078%,90.196078%,90.196078%);stroke-opacity:1;stroke-miterlimit:10;" d="M 11.33875 46.490125 L 11.33875 44.221375 " transform="matrix(1.25,0,0,-1.25,6.725,120.10875)"/>
<path style="fill:none;stroke-width:0.19925;stroke-linecap:butt;stroke-linejoin:miter;stroke:rgb(90.196078%,90.196078%,90.196078%);stroke-opacity:1;stroke-miterlimit:10;" d="M 13.604375 46.490125 L 13.604375 44.221375 " transform="matrix(1.25,0,0,-1.25,6.725,120.10875)"/>
<path style="fill:none;stroke-width:0.19925;stroke-linecap:butt;stroke-linejoin:miter;stroke:rgb(90.196078%,90.196078%,90.196078%);stroke-opacity:1;stroke-miterlimit:10;" d="M 15.873125 46.490125 L 15.873125 44.221375 " transform="matrix(1.25,0,0,-1.25,6.725,120.10875)"/>
<path style="fill:none;stroke-width:0.19925;stroke-linecap:butt;stroke-linejoin:miter;stroke:rgb(90.196078%,90.196078%,90.196078%);stroke-opacity:1;stroke-miterlimit:10;" d="M 18.13875 46.490125 L 18.13875 44.221375 " transform="matrix(1.25,0,0,-1.25,6.725,120.10875)"/>
<path style="fill:none;stroke-width:0.19925;stroke-linecap:butt;stroke-linejoin:miter;stroke:rgb(90.196078%,90.196078%,90.196078%);stroke-opacity:1;stroke-miterlimit:10;" d="M 20.410625 46.490125 L 20.410625 44.221375 " transform="matrix(1.25,0,0,-1.25,6.725,120.10875)"/>
<path style="fill:none;stroke-width:0.19925;stroke-linecap:butt;stroke-linejoin:miter;stroke:rgb(90.196078%,90.196078%,90.196078%);stroke-opacity:1;stroke-miterlimit:10;" d="M 22.679375 46.490125 L 22.679375 44.221375 " transform="matrix(1.25,0,0,-1.25,6.725,120.10875)"/>
<path style="fill:none;stroke-width:0.19925;stroke-linecap:butt;stroke-linejoin:miter;stroke:rgb(90.196078%,90.196078%,90.196078%);stroke-opacity:1;stroke-miterlimit:10;" d="M 24.945 46.490125 L 24.945 44.221375 " transform="matrix(1.25,0,0,-1.25,6.725,120.10875)"/>
<path style="fill:none;stroke-width:0.19925;stroke-linecap:butt;stroke-linejoin:miter;stroke:rgb(90.196078%,90.196078%,90.196078%);stroke-opacity:1;stroke-miterlimit:10;" d="M 27.21375 46.490125 L 27.21375 44.221375 " transform="matrix(1.25,0,0,-1.25,6.725,120.10875)"/>
<path style="fill:none;stroke-width:0.19925;stroke-linecap:butt;stroke-linejoin:miter;stroke:rgb(90.196078%,90.196078%,90.196078%);stroke-opacity:1;stroke-miterlimit:10;" d="M 29.479375 46.490125 L 29.479375 44.221375 " transform="matrix(1.25,0,0,-1.25,6.725,120.10875)"/>
<path style="fill:none;stroke-width:0.19925;stroke-linecap:butt;stroke-linejoin:miter;stroke:rgb(90.196078%,90.196078%,90.196078%);stroke-opacity:1;stroke-miterlimit:10;" d="M 31.748125 46.490125 L 31.748125 44.221375 " transform="matrix(1.25,0,0,-1.25,6.725,120.10875)"/>
<path style="fill:none;stroke-width:0.19925;stroke-linecap:butt;stroke-linejoin:miter;stroke:rgb(90.196078%,90.196078%,90.196078%);stroke-opacity:1;stroke-miterlimit:10;" d="M 34.01375 46.490125 L 34.01375 44.221375 " transform="matrix(1.25,0,0,-1.25,6.725,120.10875)"/>
<path style="fill:none;stroke-width:0.19925;stroke-linecap:butt;stroke-linejoin:miter;stroke:rgb(90.196078%,90.196078%,90.196078%);stroke-opacity:1;stroke-miterlimit:10;" d="M 36.2825 46.490125 L 36.2825 44.221375 " transform="matrix(1.25,0,0,-1.25,6.725,120.10875)"/>
<path style="fill:none;stroke-width:0.19925;stroke-linecap:butt;stroke-linejoin:miter;stroke:rgb(90.196078%,90.196078%,90.196078%);stroke-opacity:1;stroke-miterlimit:10;" d="M 38.548125 46.490125 L 38.548125 44.221375 " transform="matrix(1.25,0,0,-1.25,6.725,120.10875)"/>
<path style="fill:none;stroke-width:0.19925;stroke-linecap:butt;stroke-linejoin:miter;stroke:rgb(90.196078%,90.196078%,90.196078%);stroke-opacity:1;stroke-miterlimit:10;" d="M 40.82 46.490125 L 40.82 44.221375 " transform="matrix(1.25,0,0,-1.25,6.725,120.10875)"/>
<path style="fill:none;stroke-width:0.19925;stroke-linecap:butt;stroke-linejoin:miter;stroke:rgb(90.196078%,90.196078%,90.196078%);stroke-opacity:1;stroke-miterlimit:10;" d="M 43.085625 46.490125 L 43.085625 44.221375 " transform="matrix(1.25,0,0,-1.25,6.725,120.10875)"/>
<path style="fill:none;stroke-width:0.19925;stroke-linecap:butt;stroke-linejoin:miter;stroke:rgb(90.196078%,90.196078%,90.196078%);stroke-opacity:1;stroke-miterlimit:10;" d="M 45.354375 46.490125 L 45.354375 44.221375 " transform="matrix(1.25,0,0,-1.25,6.725,120.10875)"/>
<path style="fill:none;stroke-width:0.19925;stroke-linecap:butt;stroke-linejoin:miter;stroke:rgb(90.196078%,90.196078%,90.196078%);stroke-opacity:1;stroke-miterlimit:10;" d="M 47.62 46.490125 L 47.62 44.221375 " transform="matrix(1.25,0,0,-1.25,6.725,120.10875)"/>
<path style="fill:none;stroke-width:0.19925;stroke-linecap:butt;stroke-linejoin:miter;stroke:rgb(90.196078%,90.196078%,90.196078%);stroke-opacity:1;stroke-miterlimit:10;" d="M 49.88875 46.490125 L 49.88875 44.221375 " transform="matrix(1.25,0,0,-1.25,6.725,120.10875)"/>
<path style="fill:none;stroke-width:0.19925;stroke-linecap:butt;stroke-linejoin:miter;stroke:rgb(90.196078%,90.196078%,90.196078%);stroke-opacity:1;stroke-miterlimit:10;" d="M 52.154375 46.490125 L 52.154375 44.221375 " transform="matrix(1.25,0,0,-1.25,6.725,120.10875)"/>
<path style="fill:none;stroke-width:0.19925;stroke-linecap:butt;stroke-linejoin:miter;stroke:rgb(90.196078%,90.196078%,90.196078%);stroke-opacity:1;stroke-miterlimit:10;" d="M 54.423125 46.490125 L 54.423125 44.221375 " transform="matrix(1.25,0,0,-1.25,6.725,120.10875)"/>
<path style="fill:none;stroke-width:0.19925;stroke-linecap:butt;stroke-linejoin:miter;stroke:rgb(90.196078%,90.196078%,90.196078%);stroke-opacity:1;stroke-miterlimit:10;" d="M 56.68875 46.490125 L 56.68875 44.221375 " transform="matrix(1.25,0,0,-1.25,6.725,120.10875)"/>
<path style="fill:none;stroke-width:0.19925;stroke-linecap:butt;stroke-linejoin:miter;stroke:rgb(90.196078%,90.196078%,90.196078%);stroke-opacity:1;stroke-miterlimit:10;" d="M 58.960625 46.490125 L 58.960625 44.221375 " transform="matrix(1.25,0,0,-1.25,6.725,120.10875)"/>
<path style="fill:none;stroke-width:0.19925;stroke-linecap:butt;stroke-linejoin:miter;stroke:rgb(90.196078%,90.196078%,90.196078%);stroke-opacity:1;stroke-miterlimit:10;" d="M 61.22625 46.490125 L 61.22625 44.221375 " transform="matrix(1.25,0,0,-1.25,6.725,120.10875)"/>
<path style="fill:none;stroke-width:0.19925;stroke-linecap:butt;stroke-linejoin:miter;stroke:rgb(90.196078%,90.196078%,90.196078%);stroke-opacity:1;stroke-miterlimit:10;" d="M 63.495 46.490125 L 63.495 44.221375 " transform="matrix(1.25,0,0,-1.25,6.725,120.10875)"/>
<path style="fill:none;stroke-width:0.19925;stroke-linecap:butt;stroke-linejoin:miter;stroke:rgb(90.196078%,90.196078%,90.196078%);stroke-opacity:1;stroke-miterlimit:10;" d="M 65.760625 46.490125 L 65.760625 44.221375 " transform="matrix(1.25,0,0,-1.25,6.725,120.10875)"/>
<path style="fill:none;stroke-width:0.19925;stroke-linecap:butt;stroke-linejoin:miter;stroke:rgb(90.196078%,90.196078%,90.196078%);stroke-opacity:1;stroke-miterlimit:10;" d="M 68.029375 46.490125 L 68.029375 44.221375 " transform="matrix(1.25,0,0,-1.25,6.725,120.10875)"/>
<path style="fill:none;stroke-width:0.19925;stroke-linecap:butt;stroke-linejoin:miter;stroke:rgb(90.196078%,90.196078%,90.196078%);stroke-opacity:1;stroke-miterlimit:10;" d="M 70.30125 46.490125 L 70.30125 44.221375 " transform="matrix(1.25,0,0,-1.25,6.725,120.10875)"/>
<path style="fill:none;stroke-width:0.19925;stroke-linecap:butt;stroke-linejoin:miter;stroke:rgb(90.196078%,90.196078%,90.196078%);stroke-opacity:1;stroke-miterlimit:10;" d="M 72.566875 46.490125 L 72.566875 44.221375 " transform="matrix(1.25,0,0,-1.25,6.725,120.10875)"/>
<path style="fill:none;stroke-width:0.19925;stroke-linecap:butt;stroke-linejoin:miter;stroke:rgb(90.196078%,90.196078%,90.196078%);stroke-opacity:1;stroke-miterlimit:10;" d="M 74.835625 46.490125 L 74.835625 44.221375 " transform="matrix(1.25,0,0,-1.25,6.725,120.10875)"/>
<path style="fill:none;stroke-width:0.19925;stroke-linecap:butt;stroke-linejoin:miter;stroke:rgb(90.196078%,90.196078%,90.196078%);stroke-opacity:1;stroke-miterlimit:10;" d="M 77.10125 46.490125 L 77.10125 44.221375 " transform="matrix(1.25,0,0,-1.25,6.725,120.10875)"/>
<path style="fill:none;stroke-width:0.19925;stroke-linecap:butt;stroke-linejoin:miter;stroke:rgb(90.196078%,90.196078%,90.196078%);stroke-opacity:1;stroke-miterlimit:10;" d="M 79.37 46.490125 L 79.37 44.221375 " transform="matrix(1.25,0,0,-1.25,6.725,120.10875)"/>
<path style="fill:none;stroke-width:0.19925;stroke-linecap:butt;stroke-linejoin:miter;stroke:rgb(90.196078%,90.196078%,90.196078%);stroke-opacity:1;stroke-miterlimit:10;" d="M 81.635625 46.490125 L 81.635625 44.221375 " transform="matrix(1.25,0,0,-1.25,6.725,120.10875)"/>
<path style="fill:none;stroke-width:0.19925;stroke-linecap:butt;stroke-linejoin:miter;stroke:rgb(90.196078%,90.196078%,90.196078%);stroke-opacity:1;stroke-miterlimit:10;" d="M 83.904375 46.490125 L 83.904375 44.221375 " transform="matrix(1.25,0,0,-1.25,6.725,120.10875)"/>
<path style="fill:none;stroke-width:0.19925;stroke-linecap:butt;stroke-linejoin:miter;stroke:rgb(90.196078%,90.196078%,90.196078%);stroke-opacity:1;stroke-miterlimit:10;" d="M 86.17 46.490125 L 86.17 44.221375 " transform="matrix(1.25,0,0,-1.25,6.725,120.10875)"/>
<path style="fill:none;stroke-width:0.19925;stroke-linecap:butt;stroke-linejoin:miter;stroke:rgb(90.196078%,90.196078%,90.196078%);stroke-opacity:1;stroke-miterlimit:10;" d="M 88.441875 46.490125 L 88.441875 44.221375 " transform="matrix(1.25,0,0,-1.25,6.725,120.10875)"/>
<path style="fill:none;stroke-width:0.19925;stroke-linecap:butt;stroke-linejoin:miter;stroke:rgb(90.196078%,90.196078%,90.196078%);stroke-opacity:1;stroke-miterlimit:10;" d="M 90.7075 46.490125 L 90.7075 44.221375 " transform="matrix(1.25,0,0,-1.25,6.725,120.10875)"/>
<path style="fill:none;stroke-width:0.19925;stroke-linecap:butt;stroke-linejoin:miter;stroke:rgb(90.196078%,90.196078%,90.196078%);stroke-opacity:1;stroke-miterlimit:10;" d="M 92.97625 46.490125 L 92.97625 44.221375 " transform="matrix(1.25,0,0,-1.25,6.725,120.10875)"/>
<path style="fill:none;stroke-width:0.19925;stroke-linecap:butt;stroke-linejoin:miter;stroke:rgb(90.196078%,90.196078%,90.196078%);stroke-opacity:1;stroke-miterlimit:10;" d="M 95.241875 46.490125 L 95.241875 44.221375 " transform="matrix(1.25,0,0,-1.25,6.725,120.10875)"/>
<path style="fill:none;stroke-width:0.19925;stroke-linecap:butt;stroke-linejoin:miter;stroke:rgb(90.196078%,90.196078%,90.196078%);stroke-opacity:1;stroke-miterlimit:10;" d="M 97.510625 46.490125 L 97.510625 44.221375 " transform="matrix(1.25,0,0,-1.25,6.725,120.10875)"/>
<path style="fill:none;stroke-width:0.19925;stroke-linecap:butt;stroke-linejoin:miter;stroke:rgb(90.196078%,90.196078%,90.196078%);stroke-opacity:1;stroke-miterlimit:10;" d="M 99.77625 46.490125 L 99.77625 44.221375 " transform="matrix(1.25,0,0,-1.25,6.725,120.10875)"/>
<path style="fill:none;stroke-width:0.19925;stroke-linecap:butt;stroke-linejoin:miter;stroke:rgb(90.196078%,90.196078%,90.196078%);stroke-opacity:1;stroke-miterlimit:10;" d="M 102.045 46.490125 L 102.045 44.221375 " transform="matrix(1.25,0,0,-1.25,6.725,120.10875)"/>
<path style="fill:none;stroke-width:0.19925;stroke-linecap:butt;stroke-linejoin:miter;stroke:rgb(90.196078%,90.196078%,90.196078%);stroke-opacity:1;stroke-miterlimit:10;" d="M 104.310625 46.490125 L 104.310625 44.221375 " transform="matrix(1.25,0,0,-1.25,6.725,120.10875)"/>
<path style="fill:none;stroke-width:0.19925;stroke-linecap:butt;stroke-linejoin:miter;stroke:rgb(90.196078%,90.196078%,90.196078%);stroke-opacity:1;stroke-miterlimit:10;" d="M 106.5825 46.490125 L 106.5825 44.221375 " transform="matrix(1.25,0,0,-1.25,6.725,120.10875)"/>
<path style="fill:none;stroke-width:0.19925;stroke-linecap:butt;stroke-linejoin:miter;stroke:rgb(90.196078%,90.196078%,90.196078%);stroke-opacity:1;stroke-miterlimit:10;" d="M 108.848125 46.490125 L 108.848125 44.221375 " transform="matrix(1.25,0,0,-1.25,6.725,120.10875)"/>
<path style="fill:none;stroke-width:0.19925;stroke-linecap:butt;stroke-linejoin:miter;stroke:rgb(90.196078%,90.196078%,90.196078%);stroke-opacity:1;stroke-miterlimit:10;" d="M 111.116875 46.490125 L 111.116875 44.221375 " transform="matrix(1.25,0,0,-1.25,6.725,120.10875)"/>
<path style="fill:none;stroke-width:0.19925;stroke-linecap:butt;stroke-linejoin:miter;stroke:rgb(90.196078%,90.196078%,90.196078%);stroke-opacity:1;stroke-miterlimit:10;" d="M 57.82625 2.26825 L 55.5575 2.26825 " transform="matrix(1.25,0,0,-1.25,6.725,120.10875)"/>
<path style="fill:none;stroke-width:0.19925;stroke-linecap:butt;stroke-linejoin:miter;stroke:rgb(90.196078%,90.196078%,90.196078%);stroke-opacity:1;stroke-miterlimit:10;" d="M 57.82625 4.537 L 55.5575 4.537 " transform="matrix(1.25,0,0,-1.25,6.725,120.10875)"/>
<path style="fill:none;stroke-width:0.19925;stroke-linecap:butt;stroke-linejoin:miter;stroke:rgb(90.196078%,90.196078%,90.196078%);stroke-opacity:1;stroke-miterlimit:10;" d="M 57.82625 6.802625 L 55.5575 6.802625 " transform="matrix(1.25,0,0,-1.25,6.725,120.10875)"/>
<path style="fill:none;stroke-width:0.19925;stroke-linecap:butt;stroke-linejoin:miter;stroke:rgb(90.196078%,90.196078%,90.196078%);stroke-opacity:1;stroke-miterlimit:10;" d="M 57.82625 9.071375 L 55.5575 9.071375 " transform="matrix(1.25,0,0,-1.25,6.725,120.10875)"/>
<path style="fill:none;stroke-width:0.19925;stroke-linecap:butt;stroke-linejoin:miter;stroke:rgb(90.196078%,90.196078%,90.196078%);stroke-opacity:1;stroke-miterlimit:10;" d="M 57.82625 11.337 L 55.5575 11.337 " transform="matrix(1.25,0,0,-1.25,6.725,120.10875)"/>
<path style="fill:none;stroke-width:0.19925;stroke-linecap:butt;stroke-linejoin:miter;stroke:rgb(90.196078%,90.196078%,90.196078%);stroke-opacity:1;stroke-miterlimit:10;" d="M 57.82625 13.60575 L 55.5575 13.60575 " transform="matrix(1.25,0,0,-1.25,6.725,120.10875)"/>
<path style="fill:none;stroke-width:0.19925;stroke-linecap:butt;stroke-linejoin:miter;stroke:rgb(90.196078%,90.196078%,90.196078%);stroke-opacity:1;stroke-miterlimit:10;" d="M 57.82625 15.871375 L 55.5575 15.871375 " transform="matrix(1.25,0,0,-1.25,6.725,120.10875)"/>
<path style="fill:none;stroke-width:0.19925;stroke-linecap:butt;stroke-linejoin:miter;stroke:rgb(90.196078%,90.196078%,90.196078%);stroke-opacity:1;stroke-miterlimit:10;" d="M 57.82625 18.14325 L 55.5575 18.14325 " transform="matrix(1.25,0,0,-1.25,6.725,120.10875)"/>
<path style="fill:none;stroke-width:0.19925;stroke-linecap:butt;stroke-linejoin:miter;stroke:rgb(90.196078%,90.196078%,90.196078%);stroke-opacity:1;stroke-miterlimit:10;" d="M 57.82625 20.408875 L 55.5575 20.408875 " transform="matrix(1.25,0,0,-1.25,6.725,120.10875)"/>
<path style="fill:none;stroke-width:0.19925;stroke-linecap:butt;stroke-linejoin:miter;stroke:rgb(90.196078%,90.196078%,90.196078%);stroke-opacity:1;stroke-miterlimit:10;" d="M 57.82625 22.677625 L 55.5575 22.677625 " transform="matrix(1.25,0,0,-1.25,6.725,120.10875)"/>
<path style="fill:none;stroke-width:0.19925;stroke-linecap:butt;stroke-linejoin:miter;stroke:rgb(90.196078%,90.196078%,90.196078%);stroke-opacity:1;stroke-miterlimit:10;" d="M 57.82625 24.94325 L 55.5575 24.94325 " transform="matrix(1.25,0,0,-1.25,6.725,120.10875)"/>
<path style="fill:none;stroke-width:0.19925;stroke-linecap:butt;stroke-linejoin:miter;stroke:rgb(90.196078%,90.196078%,90.196078%);stroke-opacity:1;stroke-miterlimit:10;" d="M 57.82625 27.212 L 55.5575 27.212 " transform="matrix(1.25,0,0,-1.25,6.725,120.10875)"/>
<path style="fill:none;stroke-width:0.19925;stroke-linecap:butt;stroke-linejoin:miter;stroke:rgb(90.196078%,90.196078%,90.196078%);stroke-opacity:1;stroke-miterlimit:10;" d="M 57.82625 29.48075 L 55.5575 29.48075 " transform="matrix(1.25,0,0,-1.25,6.725,120.10875)"/>
<path style="fill:none;stroke-width:0.19925;stroke-linecap:butt;stroke-linejoin:miter;stroke:rgb(90.196078%,90.196078%,90.196078%);stroke-opacity:1;stroke-miterlimit:10;" d="M 57.82625 31.746375 L 55.5575 31.746375 " transform="matrix(1.25,0,0,-1.25,6.725,120.10875)"/>
<path style="fill:none;stroke-width:0.19925;stroke-linecap:butt;stroke-linejoin:miter;stroke:rgb(90.196078%,90.196078%,90.196078%);stroke-opacity:1;stroke-miterlimit:10;" d="M 57.82625 34.01825 L 55.5575 34.01825 " transform="matrix(1.25,0,0,-1.25,6.725,120.10875)"/>
<path style="fill:none;stroke-width:0.19925;stroke-linecap:butt;stroke-linejoin:miter;stroke:rgb(90.196078%,90.196078%,90.196078%);stroke-opacity:1;stroke-miterlimit:10;" d="M 57.82625 36.283875 L 55.5575 36.283875 " transform="matrix(1.25,0,0,-1.25,6.725,120.10875)"/>
<path style="fill:none;stroke-width:0.19925;stroke-linecap:butt;stroke-linejoin:miter;stroke:rgb(90.196078%,90.196078%,90.196078%);stroke-opacity:1;stroke-miterlimit:10;" d="M 57.82625 38.552625 L 55.5575 38.552625 " transform="matrix(1.25,0,0,-1.25,6.725,120.10875)"/>
<path style="fill:none;stroke-width:0.19925;stroke-linecap:butt;stroke-linejoin:miter;stroke:rgb(90.196078%,90.196078%,90.196078%);stroke-opacity:1;stroke-miterlimit:10;" d="M 57.82625 40.81825 L 55.5575 40.81825 " transform="matrix(1.25,0,0,-1.25,6.725,120.10875)"/>
<path style="fill:none;stroke-width:0.19925;stroke-linecap:butt;stroke-linejoin:miter;stroke:rgb(90.196078%,90.196078%,90.196078%);stroke-opacity:1;stroke-miterlimit:10;" d="M 57.82625 43.087 L 55.5575 43.087 " transform="matrix(1.25,0,0,-1.25,6.725,120.10875)"/>
<path style="fill:none;stroke-width:0.19925;stroke-linecap:butt;stroke-linejoin:miter;stroke:rgb(90.196078%,90.196078%,90.196078%);stroke-opacity:1;stroke-miterlimit:10;" d="M 57.82625 45.352625 L 55.5575 45.352625 " transform="matrix(1.25,0,0,-1.25,6.725,120.10875)"/>
<path style="fill:none;stroke-width:0.19925;stroke-linecap:butt;stroke-linejoin:miter;stroke:rgb(90.196078%,90.196078%,90.196078%);stroke-opacity:1;stroke-miterlimit:10;" d="M 57.82625 47.621375 L 55.5575 47.621375 " transform="matrix(1.25,0,0,-1.25,6.725,120.10875)"/>
<path style="fill:none;stroke-width:0.19925;stroke-linecap:butt;stroke-linejoin:miter;stroke:rgb(90.196078%,90.196078%,90.196078%);stroke-opacity:1;stroke-miterlimit:10;" d="M 57.82625 49.887 L 55.5575 49.887 " transform="matrix(1.25,0,0,-1.25,6.725,120.10875)"/>
<path style="fill:none;stroke-width:0.19925;stroke-linecap:butt;stroke-linejoin:miter;stroke:rgb(90.196078%,90.196078%,90.196078%);stroke-opacity:1;stroke-miterlimit:10;" d="M 57.82625 52.158875 L 55.5575 52.158875 " transform="matrix(1.25,0,0,-1.25,6.725,120.10875)"/>
<path style="fill:none;stroke-width:0.19925;stroke-linecap:butt;stroke-linejoin:miter;stroke:rgb(90.196078%,90.196078%,90.196078%);stroke-opacity:1;stroke-miterlimit:10;" d="M 57.82625 54.4245 L 55.5575 54.4245 " transform="matrix(1.25,0,0,-1.25,6.725,120.10875)"/>
<path style="fill:none;stroke-width:0.19925;stroke-linecap:butt;stroke-linejoin:miter;stroke:rgb(90.196078%,90.196078%,90.196078%);stroke-opacity:1;stroke-miterlimit:10;" d="M 57.82625 56.69325 L 55.5575 56.69325 " transform="matrix(1.25,0,0,-1.25,6.725,120.10875)"/>
<path style="fill:none;stroke-width:0.19925;stroke-linecap:butt;stroke-linejoin:miter;stroke:rgb(90.196078%,90.196078%,90.196078%);stroke-opacity:1;stroke-miterlimit:10;" d="M 57.82625 58.958875 L 55.5575 58.958875 " transform="matrix(1.25,0,0,-1.25,6.725,120.10875)"/>
<path style="fill:none;stroke-width:0.19925;stroke-linecap:butt;stroke-linejoin:miter;stroke:rgb(90.196078%,90.196078%,90.196078%);stroke-opacity:1;stroke-miterlimit:10;" d="M 57.82625 61.227625 L 55.5575 61.227625 " transform="matrix(1.25,0,0,-1.25,6.725,120.10875)"/>
<path style="fill:none;stroke-width:0.19925;stroke-linecap:butt;stroke-linejoin:miter;stroke:rgb(90.196078%,90.196078%,90.196078%);stroke-opacity:1;stroke-miterlimit:10;" d="M 57.82625 63.49325 L 55.5575 63.49325 " transform="matrix(1.25,0,0,-1.25,6.725,120.10875)"/>
<path style="fill:none;stroke-width:0.19925;stroke-linecap:butt;stroke-linejoin:miter;stroke:rgb(90.196078%,90.196078%,90.196078%);stroke-opacity:1;stroke-miterlimit:10;" d="M 57.82625 65.762 L 55.5575 65.762 " transform="matrix(1.25,0,0,-1.25,6.725,120.10875)"/>
<path style="fill:none;stroke-width:0.19925;stroke-linecap:butt;stroke-linejoin:miter;stroke:rgb(90.196078%,90.196078%,90.196078%);stroke-opacity:1;stroke-miterlimit:10;" d="M 57.82625 68.027625 L 55.5575 68.027625 " transform="matrix(1.25,0,0,-1.25,6.725,120.10875)"/>
<path style="fill:none;stroke-width:0.19925;stroke-linecap:butt;stroke-linejoin:miter;stroke:rgb(90.196078%,90.196078%,90.196078%);stroke-opacity:1;stroke-miterlimit:10;" d="M 57.82625 70.2995 L 55.5575 70.2995 " transform="matrix(1.25,0,0,-1.25,6.725,120.10875)"/>
<path style="fill:none;stroke-width:0.19925;stroke-linecap:butt;stroke-linejoin:miter;stroke:rgb(90.196078%,90.196078%,90.196078%);stroke-opacity:1;stroke-miterlimit:10;" d="M 57.82625 72.56825 L 55.5575 72.56825 " transform="matrix(1.25,0,0,-1.25,6.725,120.10875)"/>
<path style="fill:none;stroke-width:0.19925;stroke-linecap:butt;stroke-linejoin:miter;stroke:rgb(90.196078%,90.196078%,90.196078%);stroke-opacity:1;stroke-miterlimit:10;" d="M 57.82625 74.833875 L 55.5575 74.833875 " transform="matrix(1.25,0,0,-1.25,6.725,120.10875)"/>
<path style="fill:none;stroke-width:0.19925;stroke-linecap:butt;stroke-linejoin:miter;stroke:rgb(90.196078%,90.196078%,90.196078%);stroke-opacity:1;stroke-miterlimit:10;" d="M 57.82625 77.102625 L 55.5575 77.102625 " transform="matrix(1.25,0,0,-1.25,6.725,120.10875)"/>
<path style="fill:none;stroke-width:0.19925;stroke-linecap:butt;stroke-linejoin:miter;stroke:rgb(90.196078%,90.196078%,90.196078%);stroke-opacity:1;stroke-miterlimit:10;" d="M 57.82625 79.36825 L 55.5575 79.36825 " transform="matrix(1.25,0,0,-1.25,6.725,120.10875)"/>
<path style="fill:none;stroke-width:0.19925;stroke-linecap:butt;stroke-linejoin:miter;stroke:rgb(90.196078%,90.196078%,90.196078%);stroke-opacity:1;stroke-miterlimit:10;" d="M 57.82625 81.637 L 55.5575 81.637 " transform="matrix(1.25,0,0,-1.25,6.725,120.10875)"/>
<path style="fill:none;stroke-width:0.19925;stroke-linecap:butt;stroke-linejoin:miter;stroke:rgb(90.196078%,90.196078%,90.196078%);stroke-opacity:1;stroke-miterlimit:10;" d="M 57.82625 83.902625 L 55.5575 83.902625 " transform="matrix(1.25,0,0,-1.25,6.725,120.10875)"/>
<path style="fill:none;stroke-width:0.19925;stroke-linecap:butt;stroke-linejoin:miter;stroke:rgb(90.196078%,90.196078%,90.196078%);stroke-opacity:1;stroke-miterlimit:10;" d="M 57.82625 86.1745 L 55.5575 86.1745 " transform="matrix(1.25,0,0,-1.25,6.725,120.10875)"/>
<path style="fill:none;stroke-width:0.19925;stroke-linecap:butt;stroke-linejoin:miter;stroke:rgb(90.196078%,90.196078%,90.196078%);stroke-opacity:1;stroke-miterlimit:10;" d="M 57.82625 88.440125 L 55.5575 88.440125 " transform="matrix(1.25,0,0,-1.25,6.725,120.10875)"/>
<path style="fill:none;stroke-width:0.79701;stroke-linecap:butt;stroke-linejoin:miter;stroke:rgb(0%,100%,0%);stroke-opacity:1;stroke-miterlimit:10;" d="M 56.695 45.352625 C 56.695 45.352625 58.76375 48.462 59.5575 49.646375 C 60.35125 50.8245 61.616875 52.712 62.40125 53.86825 C 63.185625 55.021375 64.435625 56.846375 65.2075 57.95575 C 65.97625 59.058875 67.198125 60.7995 67.948125 61.837 C 68.698125 62.88075 69.885625 64.502625 70.61375 65.458875 C 71.33875 66.41825 72.4825 67.896375 73.179375 68.758875 C 73.873125 69.621375 74.96375 70.93075 75.623125 71.683875 C 76.285625 72.440125 77.316875 73.558875 77.935625 74.19325 C 78.5575 74.8245 79.523125 75.740125 80.098125 76.237 C 80.67625 76.737 81.566875 77.43075 82.091875 77.790125 C 82.623125 78.146375 83.4325 78.612 83.910625 78.821375 C 84.385625 79.037 85.1075 79.258875 85.529375 79.321375 C 85.95125 79.383875 86.585625 79.365125 86.948125 79.2745 C 87.310625 79.190125 87.848125 78.927625 88.148125 78.690125 C 88.45125 78.45575 88.885625 77.95575 89.129375 77.571375 C 89.366875 77.19325 89.698125 76.462 89.873125 75.940125 C 90.05125 75.41825 90.27625 74.471375 90.385625 73.81825 C 90.495 73.165125 90.616875 72.012 90.660625 71.240125 C 90.70125 70.471375 90.71375 69.13075 90.691875 68.252625 C 90.666875 67.371375 90.573125 65.86825 90.479375 64.896375 C 90.38875 63.91825 90.185625 62.277625 90.029375 61.227625 C 89.87 60.1745 89.566875 58.41825 89.341875 57.30575 C 89.12 56.19325 88.710625 54.352625 88.42625 53.19325 C 88.135625 52.033875 87.629375 50.137 87.279375 48.95575 C 86.9325 47.771375 86.323125 45.8495 85.916875 44.662 C 85.5075 43.471375 84.8075 41.55575 84.348125 40.377625 C 83.8825 39.196375 83.098125 37.31825 82.5825 36.1745 C 82.066875 35.0245 81.195 33.208875 80.629375 32.115125 C 80.066875 31.01825 79.12 29.29325 78.510625 28.26825 C 77.90125 27.237 76.885625 25.637 76.2325 24.69325 C 75.585625 23.746375 74.5075 22.2995 73.82 21.4495 C 73.1325 20.602625 72.004375 19.321375 71.285625 18.587 C 70.566875 17.852625 69.38875 16.76825 68.645 16.152625 C 67.90125 15.54325 66.685625 14.665125 65.92 14.190125 C 65.154375 13.712 63.9075 13.052625 63.12625 12.721375 C 62.35125 12.383875 61.085625 11.958875 60.291875 11.771375 C 59.50125 11.58075 58.22625 11.396375 57.4325 11.35575 C 56.63875 11.31825 55.3575 11.38075 54.56375 11.490125 C 53.773125 11.602625 52.50125 11.902625 51.71375 12.162 C 50.929375 12.4245 49.67 12.962 48.898125 13.365125 C 48.123125 13.771375 46.891875 14.537 46.13875 15.08075 C 45.3825 15.621375 44.1825 16.60575 43.45125 17.277625 C 42.716875 17.9495 41.56375 19.133875 40.860625 19.9245 C 40.154375 20.715125 39.048125 22.08075 38.3825 22.9745 C 37.710625 23.871375 36.66375 25.396375 36.029375 26.383875 C 35.40125 27.371375 34.416875 29.037 33.829375 30.0995 C 33.241875 31.162 32.329375 32.93075 31.78875 34.05575 C 31.248125 35.177625 30.416875 37.027625 29.92625 38.19325 C 29.435625 39.35575 28.691875 41.258875 28.254375 42.446375 C 27.82 43.63075 27.16375 45.552625 26.785625 46.74325 C 26.404375 47.93075 25.841875 49.846375 25.52625 51.01825 C 25.2075 52.19325 24.745 54.065125 24.48875 55.20575 C 24.2325 56.346375 23.873125 58.146375 23.679375 59.23075 C 23.48875 60.31825 23.2325 62.021375 23.1075 63.040125 C 22.9825 64.05575 22.835625 65.63075 22.773125 66.558875 C 22.71375 67.49325 22.67 68.91825 22.679375 69.746375 C 22.685625 70.58075 22.754375 71.83075 22.82625 72.54325 C 22.90125 73.258875 23.07625 74.315125 23.216875 74.902625 C 23.3575 75.49325 23.635625 76.337 23.841875 76.79325 C 24.05125 77.246375 24.4325 77.86825 24.70125 78.18075 C 24.97625 78.49325 25.460625 78.877625 25.791875 79.04325 C 26.123125 79.208875 26.7075 79.352625 27.10125 79.365125 C 27.491875 79.38075 28.166875 79.283875 28.616875 79.146375 C 29.066875 79.012 29.8325 78.6745 30.3325 78.387 C 30.835625 78.102625 31.6825 77.527625 32.2325 77.102625 C 32.78875 76.6745 33.71375 75.871375 34.31375 75.30575 C 34.91375 74.74325 35.9075 73.7245 36.548125 73.033875 C 37.18875 72.340125 38.25125 71.127625 38.9325 70.31825 C 39.6075 69.508875 40.72625 68.11825 41.435625 67.208875 C 42.148125 66.29325 43.31375 64.74325 44.054375 63.74325 C 44.791875 62.740125 45.995 61.058875 46.7575 59.987 C 47.51375 58.912 48.75125 57.127625 49.529375 55.996375 C 50.3075 54.865125 51.57 53.00575 52.3575 51.837 C 53.148125 50.665125 54.42 48.758875 55.21375 47.571375 C 56.0075 46.383875 57.28875 44.462 58.079375 43.2745 C 58.873125 42.087 60.148125 40.177625 60.935625 39.008875 C 61.72625 37.837 62.985625 35.9745 63.76375 34.840125 C 64.541875 33.708875 65.779375 31.9245 66.541875 30.846375 C 67.304375 29.771375 68.510625 28.087 69.248125 27.08075 C 69.98875 26.0745 71.154375 24.5245 71.866875 23.60575 C 72.57625 22.69325 73.698125 21.29325 74.379375 20.48075 C 75.0575 19.66825 76.12 18.4495 76.760625 17.75575 C 77.40125 17.058875 78.40125 16.037 79.004375 15.465125 C 79.604375 14.8995 80.529375 14.090125 81.085625 13.658875 C 81.63875 13.2245 82.491875 12.64325 82.995 12.352625 C 83.498125 12.065125 84.27 11.715125 84.716875 11.58075 C 85.166875 11.440125 85.85125 11.333875 86.241875 11.340125 C 86.635625 11.352625 87.223125 11.490125 87.5575 11.6495 C 87.88875 11.80575 88.379375 12.183875 88.65125 12.49325 C 88.92625 12.7995 89.310625 13.415125 89.52 13.865125 C 89.72625 14.315125 90.010625 15.152625 90.15125 15.740125 C 90.295 16.321375 90.473125 17.371375 90.55125 18.083875 C 90.623125 18.79325 90.695 20.040125 90.7075 20.865125 C 90.71375 21.69325 90.67625 23.112 90.62 24.040125 C 90.560625 24.965125 90.416875 26.540125 90.291875 27.55575 C 90.166875 28.56825 89.916875 30.26825 89.72625 31.352625 C 89.53875 32.440125 89.179375 34.237 88.92625 35.371375 C 88.67 36.512 88.21375 38.383875 87.898125 39.55575 C 87.5825 40.727625 87.023125 42.64325 86.645 43.83075 C 86.27 45.021375 85.616875 46.94325 85.1825 48.127625 C 84.745 49.315125 84.004375 51.215125 83.51375 52.383875 C 83.02625 53.5495 82.198125 55.3995 81.660625 56.5245 C 81.116875 57.6495 80.210625 59.4245 79.623125 60.487 C 79.03875 61.552625 78.0575 63.215125 77.42625 64.208875 C 76.795 65.1995 75.748125 66.73075 75.0825 67.63075 C 74.41375 68.527625 73.3075 69.8995 72.6075 70.69325 C 71.904375 71.490125 70.748125 72.677625 70.02 73.352625 C 69.28875 74.027625 68.08875 75.021375 67.335625 75.56825 C 66.5825 76.115125 65.348125 76.887 64.573125 77.2995 C 63.798125 77.70575 62.545 78.252625 61.760625 78.51825 C 60.97625 78.783875 59.70125 79.087 58.9075 79.20575 C 58.116875 79.321375 56.83875 79.387 56.045 79.352625 C 55.248125 79.321375 53.97625 79.146375 53.1825 78.962 C 52.391875 78.777625 51.12625 78.362 50.345 78.027625 C 49.56375 77.696375 48.32 77.0495 47.554375 76.5745 C 46.78875 76.102625 45.573125 75.23075 44.82625 74.621375 C 44.079375 74.01825 42.904375 72.933875 42.185625 72.20575 C 41.46375 71.4745 40.329375 70.1995 39.641875 69.35575 C 38.954375 68.512 37.87625 67.06825 37.22625 66.121375 C 36.573125 65.18075 35.5575 63.587 34.948125 62.558875 C 34.335625 61.533875 33.38875 59.81825 32.823125 58.721375 C 32.2575 57.627625 31.3825 55.815125 30.866875 54.66825 C 30.348125 53.5245 29.5575 51.646375 29.091875 50.465125 C 28.629375 49.290125 27.92625 47.377625 27.51375 46.183875 C 27.1075 44.99325 26.498125 43.0745 26.148125 41.887 C 25.795 40.70575 25.285625 38.808875 24.995 37.6495 C 24.7075 36.490125 24.295 34.6495 24.07 33.533875 C 23.848125 32.415125 23.535625 30.658875 23.373125 29.602625 C 23.21375 28.5495 23.010625 26.902625 22.916875 25.927625 C 22.823125 24.946375 22.72625 23.44325 22.698125 22.558875 C 22.67 21.677625 22.6825 20.333875 22.723125 19.55575 C 22.760625 18.783875 22.879375 17.621375 22.98875 16.965125 C 23.091875 16.308875 23.32 15.352625 23.491875 14.83075 C 23.66375 14.302625 23.995 13.565125 24.2325 13.18075 C 24.466875 12.79325 24.90125 12.287 25.20125 12.04325 C 25.504375 11.80575 26.035625 11.537 26.398125 11.44325 C 26.7575 11.3495 27.385625 11.321375 27.8075 11.38075 C 28.22625 11.440125 28.948125 11.652625 29.42 11.862 C 29.898125 12.071375 30.7075 12.5245 31.2325 12.88075 C 31.760625 13.23075 32.648125 13.91825 33.22 14.415125 C 33.795 14.912 34.7575 15.81825 35.37625 16.44325 C 35.998125 17.071375 37.02625 18.183875 37.685625 18.933875 C 38.345 19.683875 39.435625 20.990125 40.12625 21.8495 C 40.823125 22.712 41.966875 24.18075 42.68875 25.137 C 43.416875 26.0995 44.60125 27.712 45.35125 28.752625 C 46.10125 29.790125 47.323125 31.5245 48.091875 32.63075 C 48.860625 33.73075 50.110625 35.558875 50.891875 36.708875 C 51.679375 37.862 52.945 39.746375 53.735625 40.927625 C 54.529375 42.112 56.60125 45.215125 56.60125 45.215125 " transform="matrix(1.25,0,0,-1.25,6.725,120.10875)"/>
<path style="fill:none;stroke-width:0.19925;stroke-linecap:butt;stroke-linejoin:miter;stroke:rgb(100%,0%,0%);stroke-opacity:1;stroke-dasharray:2.98883,2.98883;stroke-miterlimit:10;" d="M 22.679375 11.337 L 22.679375 79.36825 L 90.710625 79.36825 L 90.710625 11.337 L 22.679375 11.337 Z M 22.679375 11.337 " transform="matrix(1.25,0,0,-1.25,6.725,120.10875)"/>
<path style="fill-rule:nonzero;fill:rgb(0%,0%,100%);fill-opacity:1;stroke-width:0.3985;stroke-linecap:butt;stroke-linejoin:miter;stroke:rgb(0%,0%,100%);stroke-opacity:1;stroke-miterlimit:10;" d="M 30.045 11.337 C 30.045 12.277625 29.285625 13.040125 28.348125 13.040125 C 27.404375 13.040125 26.648125 12.277625 26.648125 11.337 C 26.648125 10.3995 27.404375 9.637 28.348125 9.637 C 29.285625 9.637 30.045 10.3995 30.045 11.337 Z M 30.045 11.337 " transform="matrix(1.25,0,0,-1.25,6.725,120.10875)"/>
<path style="fill-rule:nonzero;fill:rgb(0%,0%,100%);fill-opacity:1;stroke-width:0.3985;stroke-linecap:butt;stroke-linejoin:miter;stroke:rgb(0%,0%,100%);stroke-opacity:1;stroke-miterlimit:10;" d="M 58.391875 11.337 C 58.391875 12.277625 57.6325 13.040125 56.695 13.040125 C 55.75125 13.040125 54.991875 12.277625 54.991875 11.337 C 54.991875 10.3995 55.75125 9.637 56.695 9.637 C 57.6325 9.637 58.391875 10.3995 58.391875 11.337 Z M 58.391875 11.337 " transform="matrix(1.25,0,0,-1.25,6.725,120.10875)"/>
<path style="fill-rule:nonzero;fill:rgb(0%,0%,100%);fill-opacity:1;stroke-width:0.3985;stroke-linecap:butt;stroke-linejoin:miter;stroke:rgb(0%,0%,100%);stroke-opacity:1;stroke-miterlimit:10;" d="M 86.741875 11.337 C 86.741875 12.277625 85.979375 13.040125 85.03875 13.040125 C 84.10125 13.040125 83.33875 12.277625 83.33875 11.337 C 83.33875 10.3995 84.10125 9.637 85.03875 9.637 C 85.979375 9.637 86.741875 10.3995 86.741875 11.337 Z M 86.741875 11.337 " transform="matrix(1.25,0,0,-1.25,6.725,120.10875)"/>
<path style="fill-rule:nonzero;fill:rgb(0%,0%,100%);fill-opacity:1;stroke-width:0.3985;stroke-linecap:butt;stroke-linejoin:miter;stroke:rgb(0%,0%,100%);stroke-opacity:1;stroke-miterlimit:10;" d="M 24.379375 22.677625 C 24.379375 23.61825 23.616875 24.377625 22.679375 24.377625 C 21.73875 24.377625 20.97625 23.61825 20.97625 22.677625 C 20.97625 21.740125 21.73875 20.977625 22.679375 20.977625 C 23.616875 20.977625 24.379375 21.740125 24.379375 22.677625 Z M 24.379375 22.677625 " transform="matrix(1.25,0,0,-1.25,6.725,120.10875)"/>
<path style="fill-rule:nonzero;fill:rgb(0%,0%,100%);fill-opacity:1;stroke-width:0.3985;stroke-linecap:butt;stroke-linejoin:miter;stroke:rgb(0%,0%,100%);stroke-opacity:1;stroke-miterlimit:10;" d="M 24.379375 68.033875 C 24.379375 68.971375 23.616875 69.73075 22.679375 69.73075 C 21.73875 69.73075 20.97625 68.971375 20.97625 68.033875 C 20.97625 67.090125 21.73875 66.33075 22.679375 66.33075 C 23.616875 66.33075 24.379375 67.090125 24.379375 68.033875 Z M 24.379375 68.033875 " transform="matrix(1.25,0,0,-1.25,6.725,120.10875)"/>
</g>
</g>
</svg>
