<?xml version="1.0" encoding="UTF-8"?>
<!-- Converted by misc2svg (http://www.network-science.de/tools/misc2svg/) -->
<svg xmlns="http://www.w3.org/2000/svg" xmlns:xlink="http://www.w3.org/1999/xlink" width="453pt" height="236pt" viewBox="0 0 453 236" version="1.1">
<g id="misc2svg">
<path style="fill:none;stroke-width:0.3985;stroke-linecap:butt;stroke-linejoin:miter;stroke:rgb(0%,0%,0%);stroke-opacity:1;stroke-miterlimit:10;" d="M -70.868875 0.0015 L 268.83425 0.0015 " transform="matrix(1.25,0,0,-1.25,95.05875,96.7675)"/>
<path style="fill:none;stroke-width:0.31879;stroke-linecap:round;stroke-linejoin:round;stroke:rgb(0%,0%,0%);stroke-opacity:1;stroke-miterlimit:10;" d="M -1.19591 1.59525 C -1.092785 0.99525 -0.00216 0.1015 0.300965 0.0015 C -0.00216 -0.0985 -1.092785 -0.995375 -1.19591 -1.59225 " transform="matrix(1.25,0,0,-1.25,431.104263,96.7675)"/>
<path style=" stroke:none;fill-rule:nonzero;fill:rgb(100%,100%,100%);fill-opacity:1;" d="M 431.921875 96.519531 L 446.625 96.519531 L 446.625 83.164062 L 431.921875 83.164062 L 431.921875 96.519531 Z M 431.921875 96.519531 "/>
<path style=" stroke:none;fill-rule:nonzero;fill:rgb(0%,0%,0%);fill-opacity:1;" d="M 441.875 89.765625 C 441.875 89.589844 441.699219 89.589844 441.621094 89.589844 L 439.453125 89.589844 L 439.453125 87.421875 C 439.453125 87.34375 439.453125 87.167969 439.277344 87.167969 C 439.101562 87.167969 439.101562 87.34375 439.101562 87.421875 L 439.101562 89.589844 L 436.933594 89.589844 C 436.855469 89.589844 436.679688 89.589844 436.679688 89.765625 C 436.679688 89.941406 436.855469 89.941406 436.933594 89.941406 L 439.101562 89.941406 L 439.101562 92.109375 C 439.101562 92.207031 439.101562 92.363281 439.277344 92.363281 C 439.453125 92.363281 439.453125 92.207031 439.453125 92.109375 L 439.453125 89.941406 L 441.621094 89.941406 C 441.699219 89.941406 441.875 89.941406 441.875 89.765625 Z M 441.875 89.765625 "/>
<path style="fill:none;stroke-width:1.59404;stroke-linecap:butt;stroke-linejoin:miter;stroke:rgb(0%,0%,0%);stroke-opacity:1;stroke-miterlimit:10;" d="M -0.000125 -49.87975 L -0.000125 49.879625 " transform="matrix(1.25,0,0,-1.25,95.05875,96.7675)"/>
<path style=" stroke:none;fill-rule:nonzero;fill:rgb(0%,0%,0%);fill-opacity:1;" d="M 95.058594 167.636719 C 95.53125 165.113281 96.953125 161.011719 98.609375 158.167969 L 91.507812 158.167969 C 93.164062 161.011719 94.585938 165.113281 95.058594 167.636719 "/>
<path style=" stroke:none;fill-rule:nonzero;fill:rgb(0%,0%,0%);fill-opacity:1;" d="M 95.058594 25.898438 C 94.585938 28.421875 93.164062 32.523438 91.507812 35.367188 L 98.609375 35.367188 C 96.953125 32.523438 95.53125 28.421875 95.058594 25.898438 "/>
<path style=" stroke:none;fill-rule:nonzero;fill:rgb(0%,0%,0%);fill-opacity:1;" d="M 96.152344 17.109375 C 96.152344 17.109375 96.074219 17.070312 96.035156 17.070312 C 95.859375 17.070312 95.546875 17.226562 95.351562 17.363281 C 95 17.578125 94.980469 17.65625 94.902344 17.871094 C 94.824219 18.066406 94.707031 18.242188 94.707031 18.242188 C 94.589844 18.378906 94.589844 18.378906 94.394531 18.378906 C 93.847656 18.378906 93.183594 18.222656 92.695312 18.085938 C 92.070312 17.890625 91.347656 17.675781 90.683594 17.675781 C 90.390625 17.675781 90.351562 17.695312 90.214844 17.734375 C 90.878906 16.757812 91.113281 15.800781 91.230469 15.292969 C 91.464844 14.355469 92.050781 12.050781 92.949219 11.152344 C 93.125 10.957031 93.203125 10.878906 93.613281 10.878906 C 94.355469 10.878906 94.472656 11.601562 94.472656 11.914062 C 94.472656 12.109375 94.414062 12.324219 94.414062 12.363281 C 94.414062 12.363281 94.414062 12.460938 94.53125 12.460938 C 94.707031 12.460938 95.058594 12.304688 95.351562 12.089844 C 95.546875 11.933594 95.683594 11.835938 95.683594 11.269531 C 95.683594 10.703125 95.429688 10.097656 94.609375 10.097656 C 93.59375 10.097656 92.421875 10.820312 91.835938 11.523438 C 90.957031 12.578125 90.527344 13.90625 90.019531 15.898438 C 89.550781 17.773438 88.828125 18.476562 88.808594 18.515625 C 88.398438 18.867188 88.359375 19.042969 88.359375 19.082031 C 88.359375 19.082031 88.378906 19.160156 88.476562 19.160156 C 88.691406 19.160156 89.316406 18.867188 89.628906 18.457031 C 90.019531 18.457031 90.351562 18.457031 91.523438 18.808594 C 91.953125 18.925781 92.734375 19.160156 93.398438 19.160156 C 94.316406 19.160156 95.859375 18.320312 96.152344 17.109375 Z M 96.152344 17.109375 "/>
<path style=" stroke:none;fill-rule:nonzero;fill:rgb(0%,0%,0%);fill-opacity:1;" d="M 100.679688 20.753906 L 100.679688 20.441406 L 100.347656 20.441406 C 99.46875 20.441406 99.46875 20.324219 99.46875 20.03125 L 99.46875 15.207031 C 99.46875 14.972656 99.46875 14.972656 99.214844 14.972656 C 98.648438 15.519531 97.867188 15.519531 97.515625 15.519531 L 97.515625 15.832031 C 97.710938 15.832031 98.296875 15.832031 98.765625 15.597656 L 98.765625 20.03125 C 98.765625 20.324219 98.765625 20.441406 97.90625 20.441406 L 97.574219 20.441406 L 97.574219 20.753906 L 99.117188 20.714844 L 100.679688 20.753906 Z M 100.679688 20.753906 "/>
<path style="fill:none;stroke-width:1.59404;stroke-linecap:butt;stroke-linejoin:miter;stroke:rgb(0%,0%,0%);stroke-opacity:1;stroke-miterlimit:10;" d="M 170.081125 -55.936 L 170.081125 55.939 " transform="matrix(1.25,0,0,-1.25,95.05875,96.7675)"/>
<path style=" stroke:none;fill-rule:nonzero;fill:rgb(0%,0%,0%);fill-opacity:1;" d="M 307.660156 158.167969 C 308.132812 160.695312 309.550781 164.796875 311.210938 167.636719 L 304.109375 167.636719 C 305.765625 164.796875 307.1875 160.695312 307.660156 158.167969 "/>
<path style=" stroke:none;fill-rule:nonzero;fill:rgb(0%,0%,0%);fill-opacity:1;" d="M 307.660156 35.367188 C 307.1875 32.84375 305.765625 28.742188 304.109375 25.898438 L 311.210938 25.898438 C 309.550781 28.742188 308.132812 32.84375 307.660156 35.367188 "/>
<path style=" stroke:none;fill-rule:nonzero;fill:rgb(0%,0%,0%);fill-opacity:1;" d="M 308.753906 17.109375 C 308.753906 17.109375 308.675781 17.070312 308.636719 17.070312 C 308.460938 17.070312 308.148438 17.226562 307.953125 17.363281 C 307.601562 17.578125 307.582031 17.65625 307.503906 17.871094 C 307.425781 18.066406 307.308594 18.242188 307.308594 18.242188 C 307.191406 18.378906 307.191406 18.378906 306.996094 18.378906 C 306.449219 18.378906 305.785156 18.222656 305.296875 18.085938 C 304.671875 17.890625 303.949219 17.675781 303.285156 17.675781 C 302.992188 17.675781 302.953125 17.695312 302.816406 17.734375 C 303.480469 16.757812 303.714844 15.800781 303.832031 15.292969 C 304.066406 14.355469 304.652344 12.050781 305.550781 11.152344 C 305.726562 10.957031 305.804688 10.878906 306.214844 10.878906 C 306.957031 10.878906 307.074219 11.601562 307.074219 11.914062 C 307.074219 12.109375 307.015625 12.324219 307.015625 12.363281 C 307.015625 12.363281 307.015625 12.460938 307.132812 12.460938 C 307.308594 12.460938 307.660156 12.304688 307.953125 12.089844 C 308.148438 11.933594 308.285156 11.835938 308.285156 11.269531 C 308.285156 10.703125 308.03125 10.097656 307.210938 10.097656 C 306.195312 10.097656 305.023438 10.820312 304.4375 11.523438 C 303.558594 12.578125 303.128906 13.90625 302.621094 15.898438 C 302.152344 17.773438 301.429688 18.476562 301.410156 18.515625 C 301 18.867188 300.960938 19.042969 300.960938 19.082031 C 300.960938 19.082031 300.980469 19.160156 301.078125 19.160156 C 301.292969 19.160156 301.917969 18.867188 302.230469 18.457031 C 302.621094 18.457031 302.953125 18.457031 304.125 18.808594 C 304.554688 18.925781 305.335938 19.160156 306 19.160156 C 306.917969 19.160156 308.460938 18.320312 308.753906 17.109375 Z M 308.753906 17.109375 "/>
<path style=" stroke:none;fill-rule:nonzero;fill:rgb(0%,0%,0%);fill-opacity:1;" d="M 313.550781 19.171875 L 313.257812 19.171875 C 313.238281 19.367188 313.140625 19.875 313.023438 19.953125 C 312.964844 20.011719 312.300781 20.011719 312.164062 20.011719 L 310.5625 20.011719 C 311.480469 19.210938 311.792969 18.957031 312.300781 18.546875 C 312.945312 18.039062 313.550781 17.492188 313.550781 16.671875 C 313.550781 15.617188 312.632812 14.972656 311.519531 14.972656 C 310.445312 14.972656 309.703125 15.734375 309.703125 16.535156 C 309.703125 16.964844 310.074219 17.023438 310.171875 17.023438 C 310.367188 17.023438 310.621094 16.867188 310.621094 16.554688 C 310.621094 16.398438 310.5625 16.085938 310.113281 16.085938 C 310.386719 15.480469 310.972656 15.285156 311.382812 15.285156 C 312.261719 15.285156 312.710938 15.96875 312.710938 16.671875 C 312.710938 17.433594 312.164062 18.019531 311.890625 18.332031 L 309.800781 20.421875 C 309.703125 20.5 309.703125 20.519531 309.703125 20.753906 L 313.296875 20.753906 L 313.550781 19.171875 Z M 313.550781 19.171875 "/>
<path style="fill:none;stroke-width:0.79701;stroke-linecap:butt;stroke-linejoin:miter;stroke:rgb(100%,0%,0%);stroke-opacity:1;stroke-miterlimit:10;" d="M -56.697 14.173375 L -0.000125 0.0015 L 170.081125 -42.520375 " transform="matrix(1.25,0,0,-1.25,95.05875,96.7675)"/>
<path style=" stroke:none;fill-rule:nonzero;fill:rgb(100%,0%,0%);fill-opacity:1;" d="M 165.945312 114.417969 L 161.546875 110.65625 L 162.808594 113.632812 L 160.296875 115.679688 "/>
<path style="fill:none;stroke-width:0.3985;stroke-linecap:butt;stroke-linejoin:miter;stroke:rgb(0%,0%,0%);stroke-opacity:1;stroke-dasharray:2.98883,2.98883;stroke-miterlimit:10;" d="M 170.081125 0.0015 L 113.387375 14.173375 M 170.081125 0.0015 L 226.77175 -14.170375 " transform="matrix(1.25,0,0,-1.25,95.05875,96.7675)"/>
<path style="fill:none;stroke-width:0.3985;stroke-linecap:butt;stroke-linejoin:miter;stroke:rgb(0%,0%,0%);stroke-opacity:1;stroke-dasharray:2.98883,2.98883;stroke-miterlimit:10;" d="M 113.387375 14.173375 L 85.037375 21.260875 " transform="matrix(1.25,0,0,-1.25,95.05875,96.7675)"/>
<path style="fill:none;stroke-width:0.3985;stroke-linecap:butt;stroke-linejoin:miter;stroke:rgb(100%,0%,0%);stroke-opacity:1;stroke-dasharray:2.98883,2.98883;stroke-miterlimit:10;" d="M 113.387375 14.173375 L 170.081125 -42.520375 " transform="matrix(1.25,0,0,-1.25,95.05875,96.7675)"/>
<path style="fill:none;stroke-width:0.3985;stroke-linecap:butt;stroke-linejoin:miter;stroke:rgb(100%,0%,0%);stroke-opacity:1;stroke-dasharray:2.98883,2.98883;stroke-miterlimit:10;" d="M 113.387375 14.173375 L 85.037375 42.52025 " transform="matrix(1.25,0,0,-1.25,95.05875,96.7675)"/>
<path style="fill:none;stroke-width:0.3985;stroke-linecap:butt;stroke-linejoin:miter;stroke:rgb(100%,0%,0%);stroke-opacity:1;stroke-dasharray:2.98883,2.98883;stroke-miterlimit:10;" d="M 170.081125 -42.520375 L 229.60925 -57.401625 " transform="matrix(1.25,0,0,-1.25,95.05875,96.7675)"/>
<path style="fill:none;stroke-width:0.79701;stroke-linecap:butt;stroke-linejoin:miter;stroke:rgb(100%,0%,0%);stroke-opacity:1;stroke-miterlimit:10;" d="M 170.081125 -42.520375 L 221.106125 -93.54225 " transform="matrix(1.25,0,0,-1.25,95.05875,96.7675)"/>
<path style=" stroke:none;fill-rule:nonzero;fill:rgb(100%,0%,0%);fill-opacity:1;" d="M 339.5625 181.753906 L 337.726562 176.257812 L 337.269531 179.46875 L 334.0625 179.925781 "/>
<path style="fill:none;stroke-width:0.79701;stroke-linecap:butt;stroke-linejoin:miter;stroke:rgb(0%,0%,100%);stroke-opacity:1;stroke-miterlimit:10;" d="M -56.697 28.348375 L -0.000125 14.173375 " transform="matrix(1.25,0,0,-1.25,95.05875,96.7675)"/>
<path style=" stroke:none;fill-rule:nonzero;fill:rgb(0%,0%,100%);fill-opacity:1;" d="M 59.632812 70.121094 L 55.230469 66.363281 L 56.488281 69.339844 L 53.980469 71.390625 "/>
<path style=" stroke:none;fill-rule:nonzero;fill:rgb(0%,0%,100%);fill-opacity:1;" d="M 53.636719 68.636719 L 49.234375 64.875 L 50.492188 67.855469 L 47.984375 69.902344 "/>
<path style="fill:none;stroke-width:0.79701;stroke-linecap:butt;stroke-linejoin:miter;stroke:rgb(0%,0%,100%);stroke-opacity:1;stroke-miterlimit:10;" d="M -0.000125 14.173375 L 170.081125 -38.976625 " transform="matrix(1.25,0,0,-1.25,95.05875,96.7675)"/>
<path style=" stroke:none;fill-rule:nonzero;fill:rgb(0%,0%,100%);fill-opacity:1;" d="M 201.398438 112.117188 L 197.21875 108.109375 L 198.300781 111.15625 L 195.679688 113.054688 "/>
<path style=" stroke:none;fill-rule:nonzero;fill:rgb(0%,0%,100%);fill-opacity:1;" d="M 195.5 110.289062 L 191.320312 106.273438 L 192.40625 109.328125 L 189.78125 111.21875 "/>
<path style="fill:none;stroke-width:0.3985;stroke-linecap:butt;stroke-linejoin:miter;stroke:rgb(0%,0%,100%);stroke-opacity:1;stroke-dasharray:2.98883,2.98883;stroke-miterlimit:10;" d="M 170.081125 -38.976625 L 238.112375 -60.239125 " transform="matrix(1.25,0,0,-1.25,95.05875,96.7675)"/>
<path style="fill:none;stroke-width:0.79701;stroke-linecap:butt;stroke-linejoin:miter;stroke:rgb(0%,0%,100%);stroke-opacity:1;stroke-miterlimit:10;" d="M 170.081125 -39.11725 L 221.106125 -90.139125 " transform="matrix(1.25,0,0,-1.25,95.05875,96.7675)"/>
<path style=" stroke:none;fill-rule:nonzero;fill:rgb(0%,0%,100%);fill-opacity:1;" d="M 339.5625 177.5 L 337.726562 172.011719 L 337.269531 175.214844 L 334.0625 175.671875 "/>
<path style=" stroke:none;fill-rule:nonzero;fill:rgb(0%,0%,100%);fill-opacity:1;" d="M 335.191406 173.140625 L 333.351562 167.648438 L 332.894531 170.851562 L 329.691406 171.3125 "/>
<path style="fill:none;stroke-width:0.3985;stroke-linecap:butt;stroke-linejoin:miter;stroke:rgb(0%,0%,100%);stroke-opacity:1;stroke-dasharray:2.98883,2.98883;stroke-miterlimit:10;" d="M 113.387375 17.573375 L 170.081125 -39.11725 " transform="matrix(1.25,0,0,-1.25,95.05875,96.7675)"/>
<path style="fill:none;stroke-width:0.3985;stroke-linecap:butt;stroke-linejoin:miter;stroke:rgb(0%,0%,100%);stroke-opacity:1;stroke-dasharray:2.98883,2.98883;stroke-miterlimit:10;" d="M 113.387375 17.573375 L 85.037375 45.923375 " transform="matrix(1.25,0,0,-1.25,95.05875,96.7675)"/>
<path style="fill:none;stroke-width:0.3985;stroke-linecap:butt;stroke-linejoin:miter;stroke:rgb(0%,0%,0%);stroke-opacity:1;stroke-dasharray:2.98883,2.98883;stroke-miterlimit:10;" d="M 170.081125 0.0015 L 113.387375 17.573375 M 170.081125 0.0015 L 226.77175 -17.5735 " transform="matrix(1.25,0,0,-1.25,95.05875,96.7675)"/>
<path style="fill:none;stroke-width:0.3985;stroke-linecap:butt;stroke-linejoin:miter;stroke:rgb(0%,0%,0%);stroke-opacity:1;stroke-dasharray:2.98883,2.98883;stroke-miterlimit:10;" d="M 113.387375 17.573375 L 85.037375 26.364 " transform="matrix(1.25,0,0,-1.25,95.05875,96.7675)"/>
<path style=" stroke:none;fill-rule:nonzero;fill:rgb(0%,0%,0%);fill-opacity:1;" d="M 108.441406 86.28125 C 108.441406 83.742188 106.566406 81.710938 104.300781 81.710938 C 102.054688 81.710938 100.160156 83.703125 100.160156 86.28125 C 100.160156 88.839844 102.074219 90.773438 104.300781 90.773438 C 106.566406 90.773438 108.441406 88.800781 108.441406 86.28125 Z M 107.152344 86.105469 C 107.152344 89.40625 105.453125 90.441406 104.300781 90.441406 C 103.109375 90.441406 101.429688 89.347656 101.429688 86.105469 C 101.429688 82.882812 103.265625 82.023438 104.300781 82.023438 C 105.375 82.023438 107.152344 82.902344 107.152344 86.105469 Z M 107.152344 86.105469 "/>
<path style=" stroke:none;fill-rule:nonzero;fill:rgb(0%,0%,0%);fill-opacity:1;" d="M 113.265625 92.367188 L 113.265625 92.054688 L 112.933594 92.054688 C 112.054688 92.054688 112.054688 91.9375 112.054688 91.644531 L 112.054688 86.820312 C 112.054688 86.585938 112.054688 86.585938 111.800781 86.585938 C 111.234375 87.132812 110.453125 87.132812 110.101562 87.132812 L 110.101562 87.445312 C 110.296875 87.445312 110.882812 87.445312 111.351562 87.210938 L 111.351562 91.644531 C 111.351562 91.9375 111.351562 92.054688 110.492188 92.054688 L 110.160156 92.054688 L 110.160156 92.367188 L 111.703125 92.328125 L 113.265625 92.367188 Z M 113.265625 92.367188 "/>
<path style="fill:none;stroke-width:0.3985;stroke-linecap:butt;stroke-linejoin:miter;stroke:rgb(0%,0%,0%);stroke-opacity:1;stroke-miterlimit:10;" d="M 226.77175 1.992125 L 226.77175 -1.99225 " transform="matrix(1.25,0,0,-1.25,95.05875,96.7675)"/>
<path style=" stroke:none;fill-rule:nonzero;fill:rgb(0%,0%,0%);fill-opacity:1;" d="M 390.519531 107.355469 L 390.167969 104.542969 L 383.332031 104.542969 L 383.332031 104.933594 L 383.625 104.933594 C 384.582031 104.933594 384.621094 105.070312 384.621094 105.519531 L 384.621094 112.042969 C 384.621094 112.492188 384.582031 112.628906 383.625 112.628906 L 383.332031 112.628906 L 383.332031 113.019531 C 383.761719 112.980469 384.738281 112.980469 385.226562 112.980469 C 385.734375 112.980469 386.867188 112.980469 387.316406 113.019531 L 387.316406 112.628906 L 386.90625 112.628906 C 385.734375 112.628906 385.734375 112.472656 385.734375 112.042969 L 385.734375 108.976562 L 386.789062 108.976562 C 388 108.976562 388.117188 109.367188 388.117188 110.421875 L 388.429688 110.421875 L 388.429688 107.121094 L 388.117188 107.121094 C 388.117188 108.175781 388 108.585938 386.789062 108.585938 L 385.734375 108.585938 L 385.734375 105.421875 C 385.734375 105.011719 385.753906 104.933594 386.339844 104.933594 L 387.824219 104.933594 C 389.699219 104.933594 390.011719 105.636719 390.207031 107.355469 L 390.519531 107.355469 Z M 390.519531 107.355469 "/>
<path style=" stroke:none;fill-rule:nonzero;fill:rgb(0%,0%,0%);fill-opacity:1;" d="M 393.648438 104.105469 C 393.648438 103.832031 393.414062 103.636719 393.140625 103.636719 C 392.789062 103.636719 392.710938 103.910156 392.671875 104.027344 L 391.519531 107.796875 L 391.460938 107.953125 C 391.460938 108.050781 391.734375 108.148438 391.8125 108.148438 C 391.871094 108.148438 391.910156 108.089844 391.929688 108.011719 L 393.589844 104.378906 C 393.628906 104.300781 393.648438 104.222656 393.648438 104.105469 Z M 393.648438 104.105469 "/>
<path style=" stroke:none;fill-rule:nonzero;fill:rgb(0%,0%,0%);fill-opacity:1;" d="M 398.667969 114.886719 L 398.667969 114.574219 L 398.335938 114.574219 C 397.457031 114.574219 397.457031 114.457031 397.457031 114.164062 L 397.457031 109.339844 C 397.457031 109.105469 397.457031 109.105469 397.203125 109.105469 C 396.636719 109.652344 395.855469 109.652344 395.503906 109.652344 L 395.503906 109.964844 C 395.699219 109.964844 396.285156 109.964844 396.753906 109.730469 L 396.753906 114.164062 C 396.753906 114.457031 396.753906 114.574219 395.894531 114.574219 L 395.5625 114.574219 L 395.5625 114.886719 L 397.105469 114.847656 L 398.667969 114.886719 Z M 398.667969 114.886719 "/>
<path style=" stroke:none;fill-rule:nonzero;fill:rgb(0%,0%,0%);fill-opacity:1;" d="M 321.039062 86.28125 C 321.039062 83.742188 319.164062 81.710938 316.898438 81.710938 C 314.652344 81.710938 312.757812 83.703125 312.757812 86.28125 C 312.757812 88.839844 314.671875 90.773438 316.898438 90.773438 C 319.164062 90.773438 321.039062 88.800781 321.039062 86.28125 Z M 319.75 86.105469 C 319.75 89.40625 318.050781 90.441406 316.898438 90.441406 C 315.707031 90.441406 314.027344 89.347656 314.027344 86.105469 C 314.027344 82.882812 315.863281 82.023438 316.898438 82.023438 C 317.972656 82.023438 319.75 82.902344 319.75 86.105469 Z M 319.75 86.105469 "/>
<path style=" stroke:none;fill-rule:nonzero;fill:rgb(0%,0%,0%);fill-opacity:1;" d="M 326.136719 90.785156 L 325.84375 90.785156 C 325.824219 90.980469 325.726562 91.488281 325.609375 91.566406 C 325.550781 91.625 324.886719 91.625 324.75 91.625 L 323.148438 91.625 C 324.066406 90.824219 324.378906 90.570312 324.886719 90.160156 C 325.53125 89.652344 326.136719 89.105469 326.136719 88.285156 C 326.136719 87.230469 325.21875 86.585938 324.105469 86.585938 C 323.03125 86.585938 322.289062 87.347656 322.289062 88.148438 C 322.289062 88.578125 322.660156 88.636719 322.757812 88.636719 C 322.953125 88.636719 323.207031 88.480469 323.207031 88.167969 C 323.207031 88.011719 323.148438 87.699219 322.699219 87.699219 C 322.972656 87.09375 323.558594 86.898438 323.96875 86.898438 C 324.847656 86.898438 325.296875 87.582031 325.296875 88.285156 C 325.296875 89.046875 324.75 89.632812 324.476562 89.945312 L 322.386719 92.035156 C 322.289062 92.113281 322.289062 92.132812 322.289062 92.367188 L 325.882812 92.367188 L 326.136719 90.785156 Z M 326.136719 90.785156 "/>
<path style="fill:none;stroke-width:0.3985;stroke-linecap:butt;stroke-linejoin:miter;stroke:rgb(0%,0%,0%);stroke-opacity:1;stroke-miterlimit:10;" d="M 113.387375 1.992125 L 113.387375 -1.99225 " transform="matrix(1.25,0,0,-1.25,95.05875,96.7675)"/>
<path style=" stroke:none;fill-rule:nonzero;fill:rgb(0%,0%,0%);fill-opacity:1;" d="M 235.78125 107.355469 L 235.429688 104.542969 L 228.59375 104.542969 L 228.59375 104.933594 L 228.886719 104.933594 C 229.84375 104.933594 229.882812 105.070312 229.882812 105.519531 L 229.882812 112.042969 C 229.882812 112.492188 229.84375 112.628906 228.886719 112.628906 L 228.59375 112.628906 L 228.59375 113.019531 C 229.023438 112.980469 230 112.980469 230.488281 112.980469 C 230.996094 112.980469 232.128906 112.980469 232.578125 113.019531 L 232.578125 112.628906 L 232.167969 112.628906 C 230.996094 112.628906 230.996094 112.472656 230.996094 112.042969 L 230.996094 108.976562 L 232.050781 108.976562 C 233.261719 108.976562 233.378906 109.367188 233.378906 110.421875 L 233.691406 110.421875 L 233.691406 107.121094 L 233.378906 107.121094 C 233.378906 108.175781 233.261719 108.585938 232.050781 108.585938 L 230.996094 108.585938 L 230.996094 105.421875 C 230.996094 105.011719 231.015625 104.933594 231.601562 104.933594 L 233.085938 104.933594 C 234.960938 104.933594 235.273438 105.636719 235.46875 107.355469 L 235.78125 107.355469 Z M 235.78125 107.355469 "/>
<path style=" stroke:none;fill-rule:nonzero;fill:rgb(0%,0%,0%);fill-opacity:1;" d="M 238.914062 104.105469 C 238.914062 103.832031 238.679688 103.636719 238.40625 103.636719 C 238.054688 103.636719 237.976562 103.910156 237.9375 104.027344 L 236.785156 107.796875 L 236.726562 107.953125 C 236.726562 108.050781 237 108.148438 237.078125 108.148438 C 237.136719 108.148438 237.175781 108.089844 237.195312 108.011719 L 238.855469 104.378906 C 238.894531 104.300781 238.914062 104.222656 238.914062 104.105469 Z M 238.914062 104.105469 "/>
<path style=" stroke:none;fill-rule:nonzero;fill:rgb(0%,0%,0%);fill-opacity:1;" d="M 244.203125 113.304688 L 243.910156 113.304688 C 243.890625 113.5 243.792969 114.007812 243.675781 114.085938 C 243.617188 114.144531 242.953125 114.144531 242.816406 114.144531 L 241.214844 114.144531 C 242.132812 113.34375 242.445312 113.089844 242.953125 112.679688 C 243.597656 112.171875 244.203125 111.625 244.203125 110.804688 C 244.203125 109.75 243.285156 109.105469 242.171875 109.105469 C 241.097656 109.105469 240.355469 109.867188 240.355469 110.667969 C 240.355469 111.097656 240.726562 111.15625 240.824219 111.15625 C 241.019531 111.15625 241.273438 111 241.273438 110.6875 C 241.273438 110.53125 241.214844 110.21875 240.765625 110.21875 C 241.039062 109.613281 241.625 109.417969 242.035156 109.417969 C 242.914062 109.417969 243.363281 110.101562 243.363281 110.804688 C 243.363281 111.566406 242.816406 112.152344 242.542969 112.464844 L 240.453125 114.554688 C 240.355469 114.632812 240.355469 114.652344 240.355469 114.886719 L 243.949219 114.886719 L 244.203125 113.304688 Z M 244.203125 113.304688 "/>
<path style="fill:none;stroke-width:0.3985;stroke-linecap:butt;stroke-linejoin:miter;stroke:rgb(0%,0%,0%);stroke-opacity:1;stroke-miterlimit:10;" d="M 226.77175 1.992125 L 226.77175 -1.99225 " transform="matrix(1.25,0,0,-1.25,95.05875,96.7675)"/>
<path style=" stroke:none;fill-rule:nonzero;fill:rgb(0%,0%,0%);fill-opacity:1;" d="M 390.519531 87.324219 L 390.167969 84.511719 L 383.332031 84.511719 L 383.332031 84.902344 L 383.625 84.902344 C 384.582031 84.902344 384.621094 85.039062 384.621094 85.488281 L 384.621094 92.011719 C 384.621094 92.460938 384.582031 92.597656 383.625 92.597656 L 383.332031 92.597656 L 383.332031 92.988281 C 383.761719 92.949219 384.738281 92.949219 385.226562 92.949219 C 385.734375 92.949219 386.867188 92.949219 387.316406 92.988281 L 387.316406 92.597656 L 386.90625 92.597656 C 385.734375 92.597656 385.734375 92.441406 385.734375 92.011719 L 385.734375 88.945312 L 386.789062 88.945312 C 388 88.945312 388.117188 89.335938 388.117188 90.390625 L 388.429688 90.390625 L 388.429688 87.089844 L 388.117188 87.089844 C 388.117188 88.144531 388 88.554688 386.789062 88.554688 L 385.734375 88.554688 L 385.734375 85.390625 C 385.734375 84.980469 385.753906 84.902344 386.339844 84.902344 L 387.824219 84.902344 C 389.699219 84.902344 390.011719 85.605469 390.207031 87.324219 L 390.519531 87.324219 Z M 390.519531 87.324219 "/>
<path style=" stroke:none;fill-rule:nonzero;fill:rgb(0%,0%,0%);fill-opacity:1;" d="M 395.445312 93.277344 L 395.152344 93.277344 C 395.132812 93.472656 395.035156 93.980469 394.917969 94.058594 C 394.859375 94.117188 394.195312 94.117188 394.058594 94.117188 L 392.457031 94.117188 C 393.375 93.316406 393.6875 93.0625 394.195312 92.652344 C 394.839844 92.144531 395.445312 91.597656 395.445312 90.777344 C 395.445312 89.722656 394.527344 89.078125 393.414062 89.078125 C 392.339844 89.078125 391.597656 89.839844 391.597656 90.640625 C 391.597656 91.070312 391.96875 91.128906 392.066406 91.128906 C 392.261719 91.128906 392.515625 90.972656 392.515625 90.660156 C 392.515625 90.503906 392.457031 90.191406 392.007812 90.191406 C 392.28125 89.585938 392.867188 89.390625 393.277344 89.390625 C 394.15625 89.390625 394.605469 90.074219 394.605469 90.777344 C 394.605469 91.539062 394.058594 92.125 393.785156 92.4375 L 391.695312 94.527344 C 391.597656 94.605469 391.597656 94.625 391.597656 94.859375 L 395.191406 94.859375 L 395.445312 93.277344 Z M 395.445312 93.277344 "/>
<path style="fill:none;stroke-width:0.79701;stroke-linecap:butt;stroke-linejoin:miter;stroke:rgb(0%,0%,0%);stroke-opacity:1;stroke-miterlimit:10;" d="M 82.206125 45.354625 L 74.162375 53.398375 " transform="matrix(1.25,0,0,-1.25,95.05875,96.7675)"/>
<path style=" stroke:none;fill-rule:nonzero;fill:rgb(0%,0%,0%);fill-opacity:1;" d="M 183.640625 25.898438 C 184.632812 27.347656 185.933594 30.019531 186.503906 32.195312 L 189.9375 28.765625 C 187.765625 28.1875 185.09375 26.894531 183.640625 25.898438 "/>
<path style=" stroke:none;fill-rule:nonzero;fill:rgb(0%,0%,0%);fill-opacity:1;" d="M 196.402344 34.527344 L 196.402344 34.253906 L 196.1875 34.253906 C 195.679688 34.253906 195.679688 34.195312 195.679688 34 L 195.679688 30.796875 C 195.679688 30.601562 195.679688 30.542969 196.1875 30.542969 L 196.402344 30.542969 L 196.402344 30.269531 L 195.347656 30.289062 L 194.292969 30.269531 L 194.292969 30.542969 L 194.488281 30.542969 C 195.015625 30.542969 195.015625 30.601562 195.015625 30.796875 L 195.015625 34 C 195.015625 34.195312 195.015625 34.253906 194.488281 34.253906 L 194.292969 34.253906 L 194.292969 34.527344 L 195.347656 34.507812 L 196.402344 34.527344 Z M 196.402344 34.527344 "/>
<path style=" stroke:none;fill-rule:nonzero;fill:rgb(0%,0%,0%);fill-opacity:1;" d="M 203.308594 34.527344 L 203.308594 34.253906 L 203.191406 34.253906 C 202.78125 34.253906 202.78125 34.195312 202.78125 34 L 202.78125 32.652344 C 202.78125 31.871094 202.195312 31.773438 201.746094 31.773438 C 201.121094 31.773438 200.769531 32.085938 200.59375 32.359375 C 200.4375 31.773438 199.8125 31.773438 199.578125 31.773438 C 198.933594 31.773438 198.5625 32.125 198.40625 32.378906 L 198.40625 31.773438 L 197.390625 31.851562 L 197.390625 32.125 C 197.859375 32.125 197.917969 32.164062 197.917969 32.457031 L 197.917969 34 C 197.917969 34.195312 197.917969 34.253906 197.507812 34.253906 L 197.390625 34.253906 L 197.390625 34.527344 C 197.664062 34.507812 197.917969 34.507812 198.191406 34.507812 C 198.445312 34.507812 198.71875 34.507812 198.992188 34.527344 L 198.992188 34.253906 L 198.875 34.253906 C 198.464844 34.253906 198.464844 34.195312 198.464844 34 L 198.464844 32.925781 C 198.464844 32.222656 199.109375 31.988281 199.5 31.988281 C 199.96875 31.988281 200.066406 32.242188 200.066406 32.632812 L 200.066406 34 C 200.066406 34.195312 200.066406 34.253906 199.675781 34.253906 L 199.558594 34.253906 L 199.558594 34.527344 C 199.832031 34.507812 200.085938 34.507812 200.359375 34.507812 C 200.613281 34.507812 200.886719 34.507812 201.140625 34.527344 L 201.140625 34.253906 L 201.023438 34.253906 C 200.632812 34.253906 200.632812 34.195312 200.632812 34 L 200.632812 32.925781 C 200.632812 32.222656 201.257812 31.988281 201.667969 31.988281 C 202.117188 31.988281 202.234375 32.242188 202.234375 32.632812 L 202.234375 34 C 202.234375 34.195312 202.234375 34.253906 201.824219 34.253906 L 201.726562 34.253906 L 201.726562 34.527344 C 201.980469 34.507812 202.253906 34.507812 202.507812 34.507812 C 202.78125 34.507812 203.035156 34.507812 203.308594 34.527344 Z M 203.308594 34.527344 "/>
<path style=" stroke:none;fill-rule:nonzero;fill:rgb(0%,0%,0%);fill-opacity:1;" d="M 207.679688 33.960938 L 207.679688 33.628906 L 207.40625 33.628906 L 207.40625 33.960938 C 207.40625 34.019531 207.40625 34.292969 207.152344 34.292969 C 206.917969 34.292969 206.917969 34.019531 206.917969 33.960938 L 206.917969 32.671875 C 206.917969 32.085938 206.273438 31.734375 205.511719 31.734375 C 205.121094 31.734375 204.398438 31.753906 204.398438 32.28125 C 204.398438 32.515625 204.574219 32.613281 204.730469 32.613281 C 204.90625 32.613281 205.0625 32.496094 205.0625 32.28125 C 205.0625 32.144531 204.984375 32.046875 204.925781 32.007812 C 205.121094 31.949219 205.433594 31.949219 205.492188 31.949219 C 206.019531 31.949219 206.351562 32.242188 206.351562 32.691406 L 206.351562 32.847656 C 205.746094 32.867188 205.414062 32.886719 204.945312 33.0625 C 204.515625 33.199219 204.164062 33.472656 204.164062 33.882812 C 204.164062 34.449219 204.886719 34.605469 205.375 34.605469 C 205.863281 34.605469 206.234375 34.410156 206.429688 34.078125 C 206.449219 34.3125 206.605469 34.566406 206.917969 34.566406 C 206.957031 34.566406 207.679688 34.566406 207.679688 33.960938 Z M 206.351562 33.648438 C 206.351562 34.332031 205.609375 34.390625 205.453125 34.390625 C 205.082031 34.390625 204.730469 34.195312 204.730469 33.882812 C 204.730469 33.667969 204.867188 33.101562 206.351562 33.023438 L 206.351562 33.648438 Z M 206.351562 33.648438 "/>
<path style=" stroke:none;fill-rule:nonzero;fill:rgb(0%,0%,0%);fill-opacity:1;" d="M 211.917969 32.066406 C 211.917969 31.890625 211.78125 31.695312 211.488281 31.695312 C 211.332031 31.695312 211 31.734375 210.667969 31.988281 C 210.53125 31.910156 210.238281 31.773438 209.867188 31.773438 C 209.125 31.773438 208.617188 32.203125 208.617188 32.691406 C 208.617188 33.003906 208.851562 33.238281 208.929688 33.316406 C 208.792969 33.492188 208.753906 33.6875 208.753906 33.824219 C 208.753906 34.15625 208.96875 34.351562 209.027344 34.390625 C 208.714844 34.46875 208.34375 34.683594 208.34375 35.015625 C 208.34375 35.503906 209.164062 35.816406 210.0625 35.816406 C 210.902344 35.816406 211.800781 35.542969 211.800781 34.996094 C 211.800781 34.722656 211.644531 34.410156 211.332031 34.273438 C 210.921875 34.058594 210.511719 34.058594 209.847656 34.058594 C 209.691406 34.058594 209.417969 34.058594 209.378906 34.058594 C 209.085938 34.019531 209.027344 33.765625 209.027344 33.648438 C 209.027344 33.53125 209.085938 33.433594 209.105469 33.433594 C 209.105469 33.433594 209.125 33.433594 209.144531 33.433594 C 209.398438 33.570312 209.632812 33.609375 209.847656 33.609375 C 210.589844 33.609375 211.097656 33.160156 211.097656 32.691406 C 211.097656 32.398438 210.902344 32.164062 210.824219 32.105469 C 211.117188 31.929688 211.390625 31.910156 211.507812 31.910156 C 211.488281 31.929688 211.449219 31.96875 211.449219 32.066406 C 211.449219 32.183594 211.527344 32.28125 211.683594 32.28125 C 211.820312 32.28125 211.917969 32.183594 211.917969 32.066406 Z M 210.550781 32.691406 C 210.550781 33.023438 210.394531 33.394531 209.867188 33.394531 C 209.320312 33.394531 209.164062 33.042969 209.164062 32.691406 C 209.164062 32.339844 209.320312 31.988281 209.847656 31.988281 C 210.394531 31.988281 210.550781 32.339844 210.550781 32.691406 Z M 211.371094 35.015625 C 211.371094 35.308594 210.804688 35.601562 210.0625 35.601562 C 209.359375 35.601562 208.773438 35.328125 208.773438 34.996094 C 208.773438 34.800781 208.988281 34.546875 209.457031 34.546875 L 209.867188 34.546875 C 210.492188 34.546875 211.371094 34.546875 211.371094 35.015625 Z M 211.371094 35.015625 "/>
<path style=" stroke:none;fill-rule:nonzero;fill:rgb(0%,0%,0%);fill-opacity:1;" d="M 215.589844 33.785156 C 215.589844 33.6875 215.492188 33.6875 215.472656 33.6875 C 215.375 33.6875 215.355469 33.707031 215.316406 33.785156 C 215.160156 34.214844 214.691406 34.371094 214.339844 34.371094 C 213.832031 34.371094 213.558594 34.097656 213.460938 33.980469 C 213.226562 33.6875 213.226562 33.296875 213.226562 33.121094 L 215.414062 33.121094 C 215.550781 33.121094 215.589844 33.121094 215.589844 32.984375 C 215.589844 32.554688 215.375 31.734375 214.203125 31.734375 C 213.265625 31.734375 212.601562 32.417969 212.601562 33.160156 C 212.601562 33.941406 213.363281 34.605469 214.300781 34.605469 C 215.296875 34.605469 215.589844 33.902344 215.589844 33.785156 Z M 215.121094 32.925781 L 213.226562 32.925781 C 213.304688 32.105469 213.910156 31.949219 214.203125 31.949219 C 215.0625 31.949219 215.121094 32.75 215.121094 32.925781 Z M 215.121094 32.925781 "/>
<path style="fill:none;stroke-width:0.79701;stroke-linecap:butt;stroke-linejoin:miter;stroke:rgb(0%,0%,0%);stroke-opacity:1;stroke-dasharray:2.98883,2.98883;stroke-miterlimit:10;" d="M 226.77175 -0.5985 L 226.77175 -55.982875 " transform="matrix(1.25,0,0,-1.25,95.05875,96.7675)"/>
<path style="fill:none;stroke-width:0.79701;stroke-linecap:square;stroke-linejoin:miter;stroke:rgb(0%,0%,0%);stroke-opacity:1;stroke-miterlimit:10;" d="M 0.19925 -3.18477 L 0.19925 3.19023 " transform="matrix(0,-1.25,-1.25,0,378.52685,97.514688)"/>
<path style="fill:none;stroke-width:0.6376;stroke-linecap:round;stroke-linejoin:round;stroke:rgb(0%,0%,0%);stroke-opacity:1;stroke-miterlimit:10;" d="M -1.553375 2.07227 C -1.422125 1.294145 -0.00025 0.12852 0.390375 -0.00273 C -0.00025 -0.130855 -1.422125 -1.293355 -1.553375 -2.07148 " transform="matrix(0,1.25,1.25,0,378.52685,166.750313)"/>
<path style=" stroke:none;fill-rule:nonzero;fill:rgb(0%,0%,0%);fill-opacity:1;" d="M 367.875 90.25 L 367.875 89.859375 L 367.660156 89.859375 C 366.917969 89.859375 366.742188 89.78125 366.605469 89.371094 L 363.910156 81.578125 C 363.851562 81.421875 363.8125 81.324219 363.617188 81.324219 C 363.421875 81.324219 363.382812 81.402344 363.324219 81.578125 L 360.746094 89.019531 C 360.511719 89.664062 360.023438 89.859375 359.339844 89.859375 L 359.339844 90.25 L 360.609375 90.210938 L 362.054688 90.25 L 362.054688 89.859375 C 361.429688 89.859375 361.117188 89.546875 361.117188 89.234375 C 361.117188 89.195312 361.136719 89.058594 361.136719 89.039062 L 361.722656 87.417969 L 364.789062 87.417969 L 365.453125 89.3125 C 365.472656 89.371094 365.492188 89.449219 365.492188 89.488281 C 365.492188 89.859375 364.789062 89.859375 364.457031 89.859375 L 364.457031 90.25 C 364.90625 90.210938 365.785156 90.210938 366.253906 90.210938 L 367.875 90.25 Z M 364.652344 87.027344 L 361.859375 87.027344 L 363.246094 82.964844 L 364.652344 87.027344 Z M 364.652344 87.027344 "/>
<path style=" stroke:none;fill-rule:nonzero;fill:rgb(0%,0%,0%);fill-opacity:1;" d="M 372.410156 92.117188 L 372.410156 91.804688 L 372.078125 91.804688 C 371.199219 91.804688 371.199219 91.6875 371.199219 91.394531 L 371.199219 86.570312 C 371.199219 86.335938 371.199219 86.335938 370.945312 86.335938 C 370.378906 86.882812 369.597656 86.882812 369.246094 86.882812 L 369.246094 87.195312 C 369.441406 87.195312 370.027344 87.195312 370.496094 86.960938 L 370.496094 91.394531 C 370.496094 91.6875 370.496094 91.804688 369.636719 91.804688 L 369.304688 91.804688 L 369.304688 92.117188 L 370.847656 92.078125 L 372.410156 92.117188 Z M 372.410156 92.117188 "/>
<path style=" stroke:none;fill-rule:nonzero;fill:rgb(0%,0%,0%);fill-opacity:1;" d="M 379.425781 178.574219 C 379.425781 177.5 378.410156 176.5625 377.023438 176.40625 C 378.234375 176.171875 379.09375 175.371094 379.09375 174.453125 C 379.09375 173.378906 377.941406 172.34375 376.320312 172.34375 L 371.769531 172.34375 L 371.769531 172.734375 L 372.0625 172.734375 C 373.019531 172.734375 373.058594 172.871094 373.058594 173.320312 L 373.058594 179.882812 C 373.058594 180.332031 373.019531 180.46875 372.0625 180.46875 L 371.769531 180.46875 L 371.769531 180.859375 L 376.652344 180.859375 C 378.3125 180.859375 379.425781 179.746094 379.425781 178.574219 Z M 377.882812 174.453125 C 377.882812 175.253906 377.277344 176.289062 375.890625 176.289062 L 374.09375 176.289062 L 374.09375 173.242188 C 374.09375 172.8125 374.113281 172.734375 374.699219 172.734375 L 376.242188 172.734375 C 377.453125 172.734375 377.882812 173.789062 377.882812 174.453125 Z M 378.195312 178.574219 C 378.195312 179.453125 377.53125 180.46875 376.261719 180.46875 L 374.699219 180.46875 C 374.113281 180.46875 374.09375 180.390625 374.09375 179.980469 L 374.09375 176.582031 L 376.4375 176.582031 C 377.667969 176.582031 378.195312 177.734375 378.195312 178.574219 Z M 378.195312 178.574219 "/>
<path style=" stroke:none;fill-rule:nonzero;fill:rgb(0%,0%,0%);fill-opacity:1;" d="M 384.261719 182.730469 L 384.261719 182.417969 L 383.929688 182.417969 C 383.050781 182.417969 383.050781 182.300781 383.050781 182.007812 L 383.050781 177.183594 C 383.050781 176.949219 383.050781 176.949219 382.796875 176.949219 C 382.230469 177.496094 381.449219 177.496094 381.097656 177.496094 L 381.097656 177.808594 C 381.292969 177.808594 381.878906 177.808594 382.347656 177.574219 L 382.347656 182.007812 C 382.347656 182.300781 382.347656 182.417969 381.488281 182.417969 L 381.15625 182.417969 L 381.15625 182.730469 L 382.699219 182.691406 L 384.261719 182.730469 Z M 384.261719 182.730469 "/>
<path style="fill:none;stroke-width:0.3985;stroke-linecap:butt;stroke-linejoin:miter;stroke:rgb(0%,0%,0%);stroke-opacity:1;stroke-dasharray:2.98883,2.98883;stroke-miterlimit:10;" d="M 226.77175 -56.695375 L 170.081125 0.0015 " transform="matrix(1.25,0,0,-1.25,95.05875,96.7675)"/>
<path style="fill:none;stroke-width:0.3985;stroke-linecap:butt;stroke-linejoin:miter;stroke:rgb(0%,0%,0%);stroke-opacity:1;stroke-miterlimit:10;" d="M -34.01575 0.0015 C -35.675125 2.87025 -35.675125 5.63275 -34.01575 8.504625 " transform="matrix(1.25,0,0,-1.25,95.05875,96.7675)"/>
<path style=" stroke:none;fill-rule:nonzero;fill:rgb(0%,0%,0%);fill-opacity:1;" d="M 48.09375 92.800781 C 48.09375 92.703125 47.976562 92.703125 47.9375 92.703125 C 47.820312 92.703125 47.800781 92.742188 47.78125 92.78125 C 47.664062 93.113281 47.390625 93.171875 47.292969 93.171875 C 47.175781 93.171875 47.019531 93.171875 46.980469 92.097656 C 47.78125 91.277344 48.09375 90.105469 48.09375 90.027344 C 48.09375 89.910156 47.996094 89.910156 47.957031 89.910156 C 47.839844 89.910156 47.839844 89.929688 47.78125 90.125 C 47.625 90.691406 47.332031 91.238281 46.960938 91.707031 C 46.960938 91.570312 46.941406 90.984375 46.921875 90.90625 C 46.785156 90.046875 46.140625 89.480469 45.261719 89.480469 C 43.992188 89.480469 42.761719 90.671875 42.761719 91.902344 C 42.761719 92.703125 43.347656 93.40625 44.34375 93.40625 C 45.144531 93.40625 45.867188 93.054688 46.355469 92.683594 C 46.570312 93.308594 47 93.40625 47.273438 93.40625 C 47.78125 93.40625 48.09375 92.996094 48.09375 92.800781 Z M 46.296875 92.390625 C 45.4375 93.09375 44.714844 93.171875 44.382812 93.171875 C 43.796875 93.171875 43.484375 92.78125 43.484375 92.195312 C 43.484375 91.960938 43.601562 91.003906 44.050781 90.398438 C 44.460938 89.871094 44.949219 89.734375 45.261719 89.734375 C 45.945312 89.734375 46.160156 90.398438 46.21875 90.945312 C 46.277344 91.316406 46.257812 91.941406 46.296875 92.390625 Z M 46.296875 92.390625 "/>
<path style="fill:none;stroke-width:0.3985;stroke-linecap:butt;stroke-linejoin:miter;stroke:rgb(0%,0%,0%);stroke-opacity:1;stroke-miterlimit:10;" d="M 141.73425 0.0015 C 142.268625 -3.136 141.34675 -5.620375 138.89675 -7.651625 " transform="matrix(1.25,0,0,-1.25,95.05875,96.7675)"/>
<path style=" stroke:none;fill-rule:nonzero;fill:rgb(0%,0%,0%);fill-opacity:1;" d="M 283.8125 106.933594 C 283.8125 106.835938 283.695312 106.835938 283.65625 106.835938 C 283.539062 106.835938 283.519531 106.875 283.5 106.914062 C 283.382812 107.246094 283.109375 107.304688 283.011719 107.304688 C 282.894531 107.304688 282.738281 107.304688 282.699219 106.230469 C 283.5 105.410156 283.8125 104.238281 283.8125 104.160156 C 283.8125 104.042969 283.714844 104.042969 283.675781 104.042969 C 283.558594 104.042969 283.558594 104.0625 283.5 104.257812 C 283.34375 104.824219 283.050781 105.371094 282.679688 105.839844 C 282.679688 105.703125 282.660156 105.117188 282.640625 105.039062 C 282.503906 104.179688 281.859375 103.613281 280.980469 103.613281 C 279.710938 103.613281 278.480469 104.804688 278.480469 106.035156 C 278.480469 106.835938 279.066406 107.539062 280.0625 107.539062 C 280.863281 107.539062 281.585938 107.1875 282.074219 106.816406 C 282.289062 107.441406 282.71875 107.539062 282.992188 107.539062 C 283.5 107.539062 283.8125 107.128906 283.8125 106.933594 Z M 282.015625 106.523438 C 281.15625 107.226562 280.433594 107.304688 280.101562 107.304688 C 279.515625 107.304688 279.203125 106.914062 279.203125 106.328125 C 279.203125 106.09375 279.320312 105.136719 279.769531 104.53125 C 280.179688 104.003906 280.667969 103.867188 280.980469 103.867188 C 281.664062 103.867188 281.878906 104.53125 281.9375 105.078125 C 281.996094 105.449219 281.976562 106.074219 282.015625 106.523438 Z M 282.015625 106.523438 "/>
<path style=" stroke:none;fill-rule:nonzero;fill:rgb(0%,0%,0%);fill-opacity:1;" d="M 286.710938 100.578125 C 286.710938 100.382812 286.515625 100.226562 286.320312 100.226562 C 286.066406 100.226562 286.007812 100.441406 285.96875 100.5 L 285.011719 103.195312 C 284.992188 103.292969 284.992188 103.3125 284.992188 103.3125 C 284.992188 103.390625 285.1875 103.46875 285.246094 103.46875 C 285.304688 103.46875 285.324219 103.449219 285.34375 103.371094 L 286.652344 100.792969 C 286.691406 100.734375 286.710938 100.675781 286.710938 100.578125 Z M 286.710938 100.578125 "/>
<path style="fill:none;stroke-width:0.3985;stroke-linecap:butt;stroke-linejoin:miter;stroke:rgb(0%,0%,0%);stroke-opacity:1;stroke-miterlimit:10;" d="M 181.418625 0.0015 C 181.953 -3.136 181.03425 -5.620375 178.58425 -7.651625 " transform="matrix(1.25,0,0,-1.25,95.05875,96.7675)"/>
<path style=" stroke:none;fill-rule:nonzero;fill:rgb(100%,100%,100%);fill-opacity:1;" d="M 332.460938 103.851562 L 332.460938 109.171875 L 337.777344 109.171875 L 337.777344 103.851562 L 332.460938 103.851562 Z M 332.460938 103.851562 L 332.460938 109.171875 L 327.148438 109.171875 L 327.148438 103.851562 L 332.460938 103.851562 Z M 332.460938 103.851562 L 332.460938 98.539062 L 327.148438 98.539062 L 327.148438 103.851562 L 332.460938 103.851562 Z M 332.460938 103.851562 L 332.460938 98.539062 L 337.777344 98.539062 L 337.777344 103.851562 L 332.460938 103.851562 Z M 332.460938 103.851562 "/>
<path style=" stroke:none;fill-rule:nonzero;fill:rgb(0%,0%,0%);fill-opacity:1;" d="M 333.417969 106.933594 C 333.417969 106.835938 333.300781 106.835938 333.261719 106.835938 C 333.144531 106.835938 333.125 106.875 333.105469 106.914062 C 332.988281 107.246094 332.714844 107.304688 332.617188 107.304688 C 332.5 107.304688 332.34375 107.304688 332.304688 106.230469 C 333.105469 105.410156 333.417969 104.238281 333.417969 104.160156 C 333.417969 104.042969 333.320312 104.042969 333.28125 104.042969 C 333.164062 104.042969 333.164062 104.0625 333.105469 104.257812 C 332.949219 104.824219 332.65625 105.371094 332.285156 105.839844 C 332.285156 105.703125 332.265625 105.117188 332.246094 105.039062 C 332.109375 104.179688 331.464844 103.613281 330.585938 103.613281 C 329.316406 103.613281 328.085938 104.804688 328.085938 106.035156 C 328.085938 106.835938 328.671875 107.539062 329.667969 107.539062 C 330.46875 107.539062 331.191406 107.1875 331.679688 106.816406 C 331.894531 107.441406 332.324219 107.539062 332.597656 107.539062 C 333.105469 107.539062 333.417969 107.128906 333.417969 106.933594 Z M 331.621094 106.523438 C 330.761719 107.226562 330.039062 107.304688 329.707031 107.304688 C 329.121094 107.304688 328.808594 106.914062 328.808594 106.328125 C 328.808594 106.09375 328.925781 105.136719 329.375 104.53125 C 329.785156 104.003906 330.273438 103.867188 330.585938 103.867188 C 331.269531 103.867188 331.484375 104.53125 331.542969 105.078125 C 331.601562 105.449219 331.582031 106.074219 331.621094 106.523438 Z M 331.621094 106.523438 "/>
<path style=" stroke:none;fill-rule:nonzero;fill:rgb(0%,0%,0%);fill-opacity:1;" d="M 336.316406 100.578125 C 336.316406 100.382812 336.121094 100.226562 335.925781 100.226562 C 335.671875 100.226562 335.613281 100.441406 335.574219 100.5 L 334.617188 103.195312 C 334.597656 103.292969 334.597656 103.3125 334.597656 103.3125 C 334.597656 103.390625 334.792969 103.46875 334.851562 103.46875 C 334.910156 103.46875 334.929688 103.449219 334.949219 103.371094 L 336.257812 100.792969 C 336.296875 100.734375 336.316406 100.675781 336.316406 100.578125 Z M 336.316406 100.578125 "/>
<path style="fill:none;stroke-width:0.79701;stroke-linecap:butt;stroke-linejoin:miter;stroke:rgb(0%,0%,0%);stroke-opacity:1;stroke-miterlimit:10;" d="M 224.918625 -87.357875 L 232.753 -102.732875 C 233.756125 -104.701625 233.0655 -105.3235 231.2155 -104.120375 L 216.737375 -94.7235 " transform="matrix(1.25,0,0,-1.25,95.05875,96.7675)"/>
<path style="fill:none;stroke-width:0.3985;stroke-linecap:butt;stroke-linejoin:miter;stroke:rgb(0%,0%,0%);stroke-opacity:1;stroke-miterlimit:10;" d="M 226.84675 -91.1485 C 224.187375 -92.4985 221.928 -94.536 220.303 -97.039125 " transform="matrix(1.25,0,0,-1.25,95.05875,96.7675)"/>
<path style="fill-rule:nonzero;fill:rgb(0%,0%,0%);fill-opacity:1;stroke-width:0.3985;stroke-linecap:butt;stroke-linejoin:miter;stroke:rgb(0%,0%,0%);stroke-opacity:1;stroke-miterlimit:10;" d="M 223.187375 -93.661 C 222.3155 -94.445375 221.924875 -95.436 222.318625 -95.8735 C 222.7155 -96.307875 223.737375 -96.026625 224.612375 -95.24225 C 225.48425 -94.457875 225.874875 -93.464125 225.481125 -93.026625 C 225.08425 -92.59225 224.062375 -92.8735 223.187375 -93.661 Z M 223.187375 -93.661 " transform="matrix(1.25,0,0,-1.25,95.05875,96.7675)"/>
</g>
</svg>
