<?xml version="1.0" encoding="UTF-8"?>
<!-- Converted by misc2svg (http://www.network-science.de/tools/misc2svg/) -->
<svg xmlns="http://www.w3.org/2000/svg" xmlns:xlink="http://www.w3.org/1999/xlink" width="488pt" height="259pt" viewBox="0 0 488 259" version="1.1">
<g id="misc2svg">
<path style="fill:none;stroke-width:0.3985;stroke-linecap:butt;stroke-linejoin:miter;stroke:rgb(0%,0%,0%);stroke-opacity:1;stroke-miterlimit:10;" d="M -70.868875 -0.0015 L 297.18425 -0.0015 " transform="matrix(1.25,0,0,-1.25,95.05875,132.20125)"/>
<path style="fill:none;stroke-width:0.31879;stroke-linecap:round;stroke-linejoin:round;stroke:rgb(0%,0%,0%);stroke-opacity:1;stroke-miterlimit:10;" d="M -1.195855 1.59225 C -1.09898 0.995375 0.00102 0.101625 0.297895 -0.0015 C 0.00102 -0.098375 -1.09898 -0.998375 -1.195855 -1.59525 " transform="matrix(1.25,0,0,-1.25,466.537788,132.20125)"/>
<path style=" stroke:none;fill-rule:nonzero;fill:rgb(100%,100%,100%);fill-opacity:1;" d="M 467.359375 131.953125 L 482.0625 131.953125 L 482.0625 118.597656 L 467.359375 118.597656 L 467.359375 131.953125 Z M 467.359375 131.953125 "/>
<path style=" stroke:none;fill-rule:nonzero;fill:rgb(0%,0%,0%);fill-opacity:1;" d="M 477.304688 125.199219 C 477.304688 125.023438 477.128906 125.023438 477.050781 125.023438 L 474.882812 125.023438 L 474.882812 122.855469 C 474.882812 122.777344 474.882812 122.601562 474.707031 122.601562 C 474.53125 122.601562 474.53125 122.777344 474.53125 122.855469 L 474.53125 125.023438 L 472.363281 125.023438 C 472.285156 125.023438 472.109375 125.023438 472.109375 125.199219 C 472.109375 125.375 472.285156 125.375 472.363281 125.375 L 474.53125 125.375 L 474.53125 127.542969 C 474.53125 127.640625 474.53125 127.796875 474.707031 127.796875 C 474.882812 127.796875 474.882812 127.640625 474.882812 127.542969 L 474.882812 125.375 L 477.050781 125.375 C 477.128906 125.375 477.304688 125.375 477.304688 125.199219 Z M 477.304688 125.199219 "/>
<path style="fill:none;stroke-width:1.59404;stroke-linecap:butt;stroke-linejoin:miter;stroke:rgb(0%,0%,0%);stroke-opacity:1;stroke-miterlimit:10;" d="M -0.000125 -49.879625 L -0.000125 49.876625 " transform="matrix(1.25,0,0,-1.25,95.05875,132.20125)"/>
<path style=" stroke:none;fill-rule:nonzero;fill:rgb(0%,0%,0%);fill-opacity:1;" d="M 95.058594 203.066406 C 95.53125 200.542969 96.953125 196.445312 98.609375 193.601562 L 91.507812 193.601562 C 93.164062 196.445312 94.585938 200.542969 95.058594 203.066406 "/>
<path style=" stroke:none;fill-rule:nonzero;fill:rgb(0%,0%,0%);fill-opacity:1;" d="M 95.058594 61.332031 C 94.585938 63.859375 93.164062 67.960938 91.507812 70.800781 L 98.609375 70.800781 C 96.953125 67.960938 95.53125 63.859375 95.058594 61.332031 "/>
<path style=" stroke:none;fill-rule:nonzero;fill:rgb(0%,0%,0%);fill-opacity:1;" d="M 96.152344 52.542969 C 96.152344 52.542969 96.074219 52.503906 96.035156 52.503906 C 95.859375 52.503906 95.546875 52.660156 95.351562 52.796875 C 95 53.011719 94.980469 53.089844 94.902344 53.304688 C 94.824219 53.5 94.707031 53.675781 94.707031 53.675781 C 94.589844 53.8125 94.589844 53.8125 94.394531 53.8125 C 93.847656 53.8125 93.183594 53.65625 92.695312 53.519531 C 92.070312 53.324219 91.347656 53.109375 90.683594 53.109375 C 90.390625 53.109375 90.351562 53.128906 90.214844 53.167969 C 90.878906 52.191406 91.113281 51.234375 91.230469 50.726562 C 91.464844 49.789062 92.050781 47.484375 92.949219 46.585938 C 93.125 46.390625 93.203125 46.3125 93.613281 46.3125 C 94.355469 46.3125 94.472656 47.035156 94.472656 47.347656 C 94.472656 47.542969 94.414062 47.757812 94.414062 47.796875 C 94.414062 47.796875 94.414062 47.894531 94.53125 47.894531 C 94.707031 47.894531 95.058594 47.738281 95.351562 47.523438 C 95.546875 47.367188 95.683594 47.269531 95.683594 46.703125 C 95.683594 46.136719 95.429688 45.53125 94.609375 45.53125 C 93.59375 45.53125 92.421875 46.253906 91.835938 46.957031 C 90.957031 48.011719 90.527344 49.339844 90.019531 51.332031 C 89.550781 53.207031 88.828125 53.910156 88.808594 53.949219 C 88.398438 54.300781 88.359375 54.476562 88.359375 54.515625 C 88.359375 54.515625 88.378906 54.59375 88.476562 54.59375 C 88.691406 54.59375 89.316406 54.300781 89.628906 53.890625 C 90.019531 53.890625 90.351562 53.890625 91.523438 54.242188 C 91.953125 54.359375 92.734375 54.59375 93.398438 54.59375 C 94.316406 54.59375 95.859375 53.753906 96.152344 52.542969 Z M 96.152344 52.542969 "/>
<path style=" stroke:none;fill-rule:nonzero;fill:rgb(0%,0%,0%);fill-opacity:1;" d="M 100.679688 56.1875 L 100.679688 55.875 L 100.347656 55.875 C 99.46875 55.875 99.46875 55.757812 99.46875 55.464844 L 99.46875 50.640625 C 99.46875 50.40625 99.46875 50.40625 99.214844 50.40625 C 98.648438 50.953125 97.867188 50.953125 97.515625 50.953125 L 97.515625 51.265625 C 97.710938 51.265625 98.296875 51.265625 98.765625 51.03125 L 98.765625 55.464844 C 98.765625 55.757812 98.765625 55.875 97.90625 55.875 L 97.574219 55.875 L 97.574219 56.1875 L 99.117188 56.148438 L 100.679688 56.1875 Z M 100.679688 56.1875 "/>
<path style="fill:none;stroke-width:1.59404;stroke-linecap:butt;stroke-linejoin:miter;stroke:rgb(0%,0%,0%);stroke-opacity:1;stroke-miterlimit:10;" d="M 170.081125 -78.2265 L 170.081125 78.226625 " transform="matrix(1.25,0,0,-1.25,95.05875,132.20125)"/>
<path style=" stroke:none;fill-rule:nonzero;fill:rgb(0%,0%,0%);fill-opacity:1;" d="M 307.660156 238.5 C 308.132812 235.976562 309.550781 231.875 311.210938 229.039062 L 304.109375 229.039062 C 305.765625 231.875 307.1875 235.976562 307.660156 238.5 "/>
<path style=" stroke:none;fill-rule:nonzero;fill:rgb(0%,0%,0%);fill-opacity:1;" d="M 307.660156 25.898438 C 307.1875 28.421875 305.765625 32.523438 304.109375 35.367188 L 311.210938 35.367188 C 309.550781 32.523438 308.132812 28.421875 307.660156 25.898438 "/>
<path style=" stroke:none;fill-rule:nonzero;fill:rgb(0%,0%,0%);fill-opacity:1;" d="M 308.753906 17.109375 C 308.753906 17.109375 308.675781 17.070312 308.636719 17.070312 C 308.460938 17.070312 308.148438 17.226562 307.953125 17.363281 C 307.601562 17.578125 307.582031 17.65625 307.503906 17.871094 C 307.425781 18.066406 307.308594 18.242188 307.308594 18.242188 C 307.191406 18.378906 307.191406 18.378906 306.996094 18.378906 C 306.449219 18.378906 305.785156 18.222656 305.296875 18.085938 C 304.671875 17.890625 303.949219 17.675781 303.285156 17.675781 C 302.992188 17.675781 302.953125 17.695312 302.816406 17.734375 C 303.480469 16.757812 303.714844 15.800781 303.832031 15.292969 C 304.066406 14.355469 304.652344 12.050781 305.550781 11.152344 C 305.726562 10.957031 305.804688 10.878906 306.214844 10.878906 C 306.957031 10.878906 307.074219 11.601562 307.074219 11.914062 C 307.074219 12.109375 307.015625 12.324219 307.015625 12.363281 C 307.015625 12.363281 307.015625 12.460938 307.132812 12.460938 C 307.308594 12.460938 307.660156 12.304688 307.953125 12.089844 C 308.148438 11.933594 308.285156 11.835938 308.285156 11.269531 C 308.285156 10.703125 308.03125 10.097656 307.210938 10.097656 C 306.195312 10.097656 305.023438 10.820312 304.4375 11.523438 C 303.558594 12.578125 303.128906 13.90625 302.621094 15.898438 C 302.152344 17.773438 301.429688 18.476562 301.410156 18.515625 C 301 18.867188 300.960938 19.042969 300.960938 19.082031 C 300.960938 19.082031 300.980469 19.160156 301.078125 19.160156 C 301.292969 19.160156 301.917969 18.867188 302.230469 18.457031 C 302.621094 18.457031 302.953125 18.457031 304.125 18.808594 C 304.554688 18.925781 305.335938 19.160156 306 19.160156 C 306.917969 19.160156 308.460938 18.320312 308.753906 17.109375 Z M 308.753906 17.109375 "/>
<path style=" stroke:none;fill-rule:nonzero;fill:rgb(0%,0%,0%);fill-opacity:1;" d="M 313.550781 19.171875 L 313.257812 19.171875 C 313.238281 19.367188 313.140625 19.875 313.023438 19.953125 C 312.964844 20.011719 312.300781 20.011719 312.164062 20.011719 L 310.5625 20.011719 C 311.480469 19.210938 311.792969 18.957031 312.300781 18.546875 C 312.945312 18.039062 313.550781 17.492188 313.550781 16.671875 C 313.550781 15.617188 312.632812 14.972656 311.519531 14.972656 C 310.445312 14.972656 309.703125 15.734375 309.703125 16.535156 C 309.703125 16.964844 310.074219 17.023438 310.171875 17.023438 C 310.367188 17.023438 310.621094 16.867188 310.621094 16.554688 C 310.621094 16.398438 310.5625 16.085938 310.113281 16.085938 C 310.386719 15.480469 310.972656 15.285156 311.382812 15.285156 C 312.261719 15.285156 312.710938 15.96875 312.710938 16.671875 C 312.710938 17.433594 312.164062 18.019531 311.890625 18.332031 L 309.800781 20.421875 C 309.703125 20.5 309.703125 20.519531 309.703125 20.753906 L 313.296875 20.753906 L 313.550781 19.171875 Z M 313.550781 19.171875 "/>
<path style="fill:none;stroke-width:0.79701;stroke-linecap:butt;stroke-linejoin:miter;stroke:rgb(100%,0%,0%);stroke-opacity:1;stroke-miterlimit:10;" d="M -56.697 14.1735 L -0.000125 -0.0015 L 170.081125 -42.52025 " transform="matrix(1.25,0,0,-1.25,95.05875,132.20125)"/>
<path style=" stroke:none;fill-rule:nonzero;fill:rgb(100%,0%,0%);fill-opacity:1;" d="M 165.945312 149.847656 L 161.546875 146.085938 L 162.808594 149.066406 L 160.296875 151.113281 "/>
<path style="fill:none;stroke-width:0.3985;stroke-linecap:butt;stroke-linejoin:miter;stroke:rgb(0%,0%,0%);stroke-opacity:1;stroke-dasharray:2.98883,2.98883;stroke-miterlimit:10;" d="M 170.081125 -0.0015 L 113.387375 14.1735 M 170.081125 -0.0015 L 226.77175 -14.173375 " transform="matrix(1.25,0,0,-1.25,95.05875,132.20125)"/>
<path style="fill:none;stroke-width:0.3985;stroke-linecap:butt;stroke-linejoin:miter;stroke:rgb(0%,0%,0%);stroke-opacity:1;stroke-dasharray:2.98883,2.98883;stroke-miterlimit:10;" d="M 226.77175 -14.173375 L 255.12175 -21.25775 " transform="matrix(1.25,0,0,-1.25,95.05875,132.20125)"/>
<path style="fill:none;stroke-width:0.3985;stroke-linecap:butt;stroke-linejoin:miter;stroke:rgb(100%,0%,0%);stroke-opacity:1;stroke-dasharray:2.98883,2.98883;stroke-miterlimit:10;" d="M 170.081125 -42.52025 L 85.037375 -85.039 " transform="matrix(1.25,0,0,-1.25,95.05875,132.20125)"/>
<path style="fill:none;stroke-width:0.79701;stroke-linecap:butt;stroke-linejoin:miter;stroke:rgb(100%,0%,0%);stroke-opacity:1;stroke-miterlimit:10;" d="M 170.081125 -42.52025 L 226.77175 -14.173375 L 267.878 6.376625 " transform="matrix(1.25,0,0,-1.25,95.05875,132.20125)"/>
<path style=" stroke:none;fill-rule:nonzero;fill:rgb(100%,0%,0%);fill-opacity:1;" d="M 368.8125 154.957031 L 363.023438 154.941406 L 365.917969 156.398438 L 365.328125 159.578125 "/>
<path style="fill:none;stroke-width:0.79701;stroke-linecap:butt;stroke-linejoin:miter;stroke:rgb(0%,0%,100%);stroke-opacity:1;stroke-miterlimit:10;" d="M -56.697 28.345375 L -0.000125 14.1735 " transform="matrix(1.25,0,0,-1.25,95.05875,132.20125)"/>
<path style=" stroke:none;fill-rule:nonzero;fill:rgb(0%,0%,100%);fill-opacity:1;" d="M 59.632812 105.554688 L 55.230469 101.796875 L 56.488281 104.773438 L 53.980469 106.820312 "/>
<path style=" stroke:none;fill-rule:nonzero;fill:rgb(0%,0%,100%);fill-opacity:1;" d="M 53.636719 104.066406 L 49.234375 100.308594 L 50.492188 103.289062 L 47.984375 105.335938 "/>
<path style="fill:none;stroke-width:0.79701;stroke-linecap:butt;stroke-linejoin:miter;stroke:rgb(0%,0%,100%);stroke-opacity:1;stroke-miterlimit:10;" d="M -0.000125 14.1735 L 170.081125 -49.60775 " transform="matrix(1.25,0,0,-1.25,95.05875,132.20125)"/>
<path style=" stroke:none;fill-rule:nonzero;fill:rgb(0%,0%,100%);fill-opacity:1;" d="M 201.386719 154.25 L 197.441406 150.007812 L 198.355469 153.117188 L 195.625 154.859375 "/>
<path style=" stroke:none;fill-rule:nonzero;fill:rgb(0%,0%,100%);fill-opacity:1;" d="M 195.601562 152.085938 L 191.65625 147.847656 L 192.570312 150.953125 L 189.839844 152.695312 "/>
<path style="fill:none;stroke-width:0.79701;stroke-linecap:butt;stroke-linejoin:miter;stroke:rgb(0%,0%,100%);stroke-opacity:1;stroke-miterlimit:10;" d="M 170.081125 -49.60775 L 270.70925 0.711 " transform="matrix(1.25,0,0,-1.25,95.05875,132.20125)"/>
<path style=" stroke:none;fill-rule:nonzero;fill:rgb(0%,0%,100%);fill-opacity:1;" d="M 370.578125 162.8125 L 364.785156 162.808594 L 367.679688 164.257812 L 367.101562 167.445312 "/>
<path style=" stroke:none;fill-rule:nonzero;fill:rgb(0%,0%,100%);fill-opacity:1;" d="M 365.046875 165.570312 L 359.257812 165.566406 L 362.152344 167.015625 L 361.570312 170.199219 "/>
<path style="fill:none;stroke-width:0.3985;stroke-linecap:butt;stroke-linejoin:miter;stroke:rgb(0%,0%,100%);stroke-opacity:1;stroke-dasharray:2.98883,2.98883;stroke-miterlimit:10;" d="M 170.081125 -49.60775 L 85.037375 -92.1265 " transform="matrix(1.25,0,0,-1.25,95.05875,132.20125)"/>
<path style="fill:none;stroke-width:0.3985;stroke-linecap:butt;stroke-linejoin:miter;stroke:rgb(0%,0%,0%);stroke-opacity:1;stroke-dasharray:2.98883,2.98883;stroke-miterlimit:10;" d="M 170.081125 -0.0015 L 113.387375 21.261 M 170.081125 -0.0015 L 226.77175 -21.25775 " transform="matrix(1.25,0,0,-1.25,95.05875,132.20125)"/>
<path style="fill:none;stroke-width:0.3985;stroke-linecap:butt;stroke-linejoin:miter;stroke:rgb(0%,0%,0%);stroke-opacity:1;stroke-dasharray:2.98883,2.98883;stroke-miterlimit:10;" d="M 226.77175 -21.25775 L 255.12175 -31.892125 " transform="matrix(1.25,0,0,-1.25,95.05875,132.20125)"/>
<path style=" stroke:none;fill-rule:nonzero;fill:rgb(0%,0%,0%);fill-opacity:1;" d="M 84.371094 140.960938 C 84.371094 138.421875 82.496094 136.390625 80.230469 136.390625 C 77.984375 136.390625 76.089844 138.382812 76.089844 140.960938 C 76.089844 143.519531 78.003906 145.453125 80.230469 145.453125 C 82.496094 145.453125 84.371094 143.480469 84.371094 140.960938 Z M 83.082031 140.785156 C 83.082031 144.085938 81.382812 145.121094 80.230469 145.121094 C 79.039062 145.121094 77.359375 144.027344 77.359375 140.785156 C 77.359375 137.5625 79.195312 136.703125 80.230469 136.703125 C 81.304688 136.703125 83.082031 137.582031 83.082031 140.785156 Z M 83.082031 140.785156 "/>
<path style=" stroke:none;fill-rule:nonzero;fill:rgb(0%,0%,0%);fill-opacity:1;" d="M 89.195312 147.046875 L 89.195312 146.734375 L 88.863281 146.734375 C 87.984375 146.734375 87.984375 146.617188 87.984375 146.324219 L 87.984375 141.5 C 87.984375 141.265625 87.984375 141.265625 87.730469 141.265625 C 87.164062 141.8125 86.382812 141.8125 86.03125 141.8125 L 86.03125 142.125 C 86.226562 142.125 86.8125 142.125 87.28125 141.890625 L 87.28125 146.324219 C 87.28125 146.617188 87.28125 146.734375 86.421875 146.734375 L 86.089844 146.734375 L 86.089844 147.046875 L 87.632812 147.007812 L 89.195312 147.046875 Z M 89.195312 147.046875 "/>
<path style="fill:none;stroke-width:0.3985;stroke-linecap:butt;stroke-linejoin:miter;stroke:rgb(0%,0%,0%);stroke-opacity:1;stroke-miterlimit:10;" d="M 113.387375 1.99225 L 113.387375 -1.992125 " transform="matrix(1.25,0,0,-1.25,95.05875,132.20125)"/>
<path style=" stroke:none;fill-rule:nonzero;fill:rgb(0%,0%,0%);fill-opacity:1;" d="M 248.789062 142.789062 L 248.4375 139.976562 L 241.601562 139.976562 L 241.601562 140.367188 L 241.894531 140.367188 C 242.851562 140.367188 242.890625 140.503906 242.890625 140.953125 L 242.890625 147.476562 C 242.890625 147.925781 242.851562 148.0625 241.894531 148.0625 L 241.601562 148.0625 L 241.601562 148.453125 C 242.03125 148.414062 243.007812 148.414062 243.496094 148.414062 C 244.003906 148.414062 245.136719 148.414062 245.585938 148.453125 L 245.585938 148.0625 L 245.175781 148.0625 C 244.003906 148.0625 244.003906 147.90625 244.003906 147.476562 L 244.003906 144.410156 L 245.058594 144.410156 C 246.269531 144.410156 246.386719 144.800781 246.386719 145.855469 L 246.699219 145.855469 L 246.699219 142.554688 L 246.386719 142.554688 C 246.386719 143.609375 246.269531 144.019531 245.058594 144.019531 L 244.003906 144.019531 L 244.003906 140.855469 C 244.003906 140.445312 244.023438 140.367188 244.609375 140.367188 L 246.09375 140.367188 C 247.96875 140.367188 248.28125 141.070312 248.476562 142.789062 L 248.789062 142.789062 Z M 248.789062 142.789062 "/>
<path style=" stroke:none;fill-rule:nonzero;fill:rgb(0%,0%,0%);fill-opacity:1;" d="M 251.917969 139.539062 C 251.917969 139.265625 251.683594 139.070312 251.410156 139.070312 C 251.058594 139.070312 250.980469 139.34375 250.941406 139.460938 L 249.789062 143.230469 L 249.730469 143.386719 C 249.730469 143.484375 250.003906 143.582031 250.082031 143.582031 C 250.140625 143.582031 250.179688 143.523438 250.199219 143.445312 L 251.859375 139.8125 C 251.898438 139.734375 251.917969 139.65625 251.917969 139.539062 Z M 251.917969 139.539062 "/>
<path style=" stroke:none;fill-rule:nonzero;fill:rgb(0%,0%,0%);fill-opacity:1;" d="M 256.933594 150.320312 L 256.933594 150.007812 L 256.601562 150.007812 C 255.722656 150.007812 255.722656 149.890625 255.722656 149.597656 L 255.722656 144.773438 C 255.722656 144.539062 255.722656 144.539062 255.46875 144.539062 C 254.902344 145.085938 254.121094 145.085938 253.769531 145.085938 L 253.769531 145.398438 C 253.964844 145.398438 254.550781 145.398438 255.019531 145.164062 L 255.019531 149.597656 C 255.019531 149.890625 255.019531 150.007812 254.160156 150.007812 L 253.828125 150.007812 L 253.828125 150.320312 L 255.371094 150.28125 L 256.933594 150.320312 Z M 256.933594 150.320312 "/>
<path style=" stroke:none;fill-rule:nonzero;fill:rgb(0%,0%,0%);fill-opacity:1;" d="M 296.96875 118.171875 C 296.96875 115.632812 295.09375 113.601562 292.828125 113.601562 C 290.582031 113.601562 288.6875 115.59375 288.6875 118.171875 C 288.6875 120.730469 290.601562 122.664062 292.828125 122.664062 C 295.09375 122.664062 296.96875 120.691406 296.96875 118.171875 Z M 295.679688 117.996094 C 295.679688 121.296875 293.980469 122.332031 292.828125 122.332031 C 291.636719 122.332031 289.957031 121.238281 289.957031 117.996094 C 289.957031 114.773438 291.792969 113.914062 292.828125 113.914062 C 293.902344 113.914062 295.679688 114.792969 295.679688 117.996094 Z M 295.679688 117.996094 "/>
<path style=" stroke:none;fill-rule:nonzero;fill:rgb(0%,0%,0%);fill-opacity:1;" d="M 302.066406 122.675781 L 301.773438 122.675781 C 301.753906 122.871094 301.65625 123.378906 301.539062 123.457031 C 301.480469 123.515625 300.816406 123.515625 300.679688 123.515625 L 299.078125 123.515625 C 299.996094 122.714844 300.308594 122.460938 300.816406 122.050781 C 301.460938 121.542969 302.066406 120.996094 302.066406 120.175781 C 302.066406 119.121094 301.148438 118.476562 300.035156 118.476562 C 298.960938 118.476562 298.21875 119.238281 298.21875 120.039062 C 298.21875 120.46875 298.589844 120.527344 298.6875 120.527344 C 298.882812 120.527344 299.136719 120.371094 299.136719 120.058594 C 299.136719 119.902344 299.078125 119.589844 298.628906 119.589844 C 298.902344 118.984375 299.488281 118.789062 299.898438 118.789062 C 300.777344 118.789062 301.226562 119.472656 301.226562 120.175781 C 301.226562 120.9375 300.679688 121.523438 300.40625 121.835938 L 298.316406 123.925781 C 298.21875 124.003906 298.21875 124.023438 298.21875 124.257812 L 301.8125 124.257812 L 302.066406 122.675781 Z M 302.066406 122.675781 "/>
<path style="fill:none;stroke-width:0.3985;stroke-linecap:butt;stroke-linejoin:miter;stroke:rgb(0%,0%,0%);stroke-opacity:1;stroke-miterlimit:10;" d="M 226.77175 1.99225 L 226.77175 -1.992125 " transform="matrix(1.25,0,0,-1.25,95.05875,132.20125)"/>
<path style=" stroke:none;fill-rule:nonzero;fill:rgb(0%,0%,0%);fill-opacity:1;" d="M 364.511719 122.757812 L 364.160156 119.945312 L 357.324219 119.945312 L 357.324219 120.335938 L 357.617188 120.335938 C 358.574219 120.335938 358.613281 120.472656 358.613281 120.921875 L 358.613281 127.445312 C 358.613281 127.894531 358.574219 128.03125 357.617188 128.03125 L 357.324219 128.03125 L 357.324219 128.421875 C 357.753906 128.382812 358.730469 128.382812 359.21875 128.382812 C 359.726562 128.382812 360.859375 128.382812 361.308594 128.421875 L 361.308594 128.03125 L 360.898438 128.03125 C 359.726562 128.03125 359.726562 127.875 359.726562 127.445312 L 359.726562 124.378906 L 360.78125 124.378906 C 361.992188 124.378906 362.109375 124.769531 362.109375 125.824219 L 362.421875 125.824219 L 362.421875 122.523438 L 362.109375 122.523438 C 362.109375 123.578125 361.992188 123.988281 360.78125 123.988281 L 359.726562 123.988281 L 359.726562 120.824219 C 359.726562 120.414062 359.746094 120.335938 360.332031 120.335938 L 361.816406 120.335938 C 363.691406 120.335938 364.003906 121.039062 364.199219 122.757812 L 364.511719 122.757812 Z M 364.511719 122.757812 "/>
<path style=" stroke:none;fill-rule:nonzero;fill:rgb(0%,0%,0%);fill-opacity:1;" d="M 367.640625 119.511719 C 367.640625 119.238281 367.40625 119.042969 367.132812 119.042969 C 366.78125 119.042969 366.703125 119.316406 366.664062 119.433594 L 365.511719 123.203125 L 365.453125 123.359375 C 365.453125 123.457031 365.726562 123.554688 365.804688 123.554688 C 365.863281 123.554688 365.902344 123.496094 365.921875 123.417969 L 367.582031 119.785156 C 367.621094 119.707031 367.640625 119.628906 367.640625 119.511719 Z M 367.640625 119.511719 "/>
<path style=" stroke:none;fill-rule:nonzero;fill:rgb(0%,0%,0%);fill-opacity:1;" d="M 372.929688 128.710938 L 372.636719 128.710938 C 372.617188 128.90625 372.519531 129.414062 372.402344 129.492188 C 372.34375 129.550781 371.679688 129.550781 371.542969 129.550781 L 369.941406 129.550781 C 370.859375 128.75 371.171875 128.496094 371.679688 128.085938 C 372.324219 127.578125 372.929688 127.03125 372.929688 126.210938 C 372.929688 125.15625 372.011719 124.511719 370.898438 124.511719 C 369.824219 124.511719 369.082031 125.273438 369.082031 126.074219 C 369.082031 126.503906 369.453125 126.5625 369.550781 126.5625 C 369.746094 126.5625 370 126.40625 370 126.09375 C 370 125.9375 369.941406 125.625 369.492188 125.625 C 369.765625 125.019531 370.351562 124.824219 370.761719 124.824219 C 371.640625 124.824219 372.089844 125.507812 372.089844 126.210938 C 372.089844 126.972656 371.542969 127.558594 371.269531 127.871094 L 369.179688 129.960938 C 369.082031 130.039062 369.082031 130.058594 369.082031 130.292969 L 372.675781 130.292969 L 372.929688 128.710938 Z M 372.929688 128.710938 "/>
<path style="fill:none;stroke-width:0.3985;stroke-linecap:butt;stroke-linejoin:miter;stroke:rgb(0%,0%,0%);stroke-opacity:1;stroke-miterlimit:10;" d="M 113.387375 1.99225 L 113.387375 -1.992125 " transform="matrix(1.25,0,0,-1.25,95.05875,132.20125)"/>
<path style=" stroke:none;fill-rule:nonzero;fill:rgb(0%,0%,0%);fill-opacity:1;" d="M 248.789062 122.757812 L 248.4375 119.945312 L 241.601562 119.945312 L 241.601562 120.335938 L 241.894531 120.335938 C 242.851562 120.335938 242.890625 120.472656 242.890625 120.921875 L 242.890625 127.445312 C 242.890625 127.894531 242.851562 128.03125 241.894531 128.03125 L 241.601562 128.03125 L 241.601562 128.421875 C 242.03125 128.382812 243.007812 128.382812 243.496094 128.382812 C 244.003906 128.382812 245.136719 128.382812 245.585938 128.421875 L 245.585938 128.03125 L 245.175781 128.03125 C 244.003906 128.03125 244.003906 127.875 244.003906 127.445312 L 244.003906 124.378906 L 245.058594 124.378906 C 246.269531 124.378906 246.386719 124.769531 246.386719 125.824219 L 246.699219 125.824219 L 246.699219 122.523438 L 246.386719 122.523438 C 246.386719 123.578125 246.269531 123.988281 245.058594 123.988281 L 244.003906 123.988281 L 244.003906 120.824219 C 244.003906 120.414062 244.023438 120.335938 244.609375 120.335938 L 246.09375 120.335938 C 247.96875 120.335938 248.28125 121.039062 248.476562 122.757812 L 248.789062 122.757812 Z M 248.789062 122.757812 "/>
<path style=" stroke:none;fill-rule:nonzero;fill:rgb(0%,0%,0%);fill-opacity:1;" d="M 253.714844 128.710938 L 253.421875 128.710938 C 253.402344 128.90625 253.304688 129.414062 253.1875 129.492188 C 253.128906 129.550781 252.464844 129.550781 252.328125 129.550781 L 250.726562 129.550781 C 251.644531 128.75 251.957031 128.496094 252.464844 128.085938 C 253.109375 127.578125 253.714844 127.03125 253.714844 126.210938 C 253.714844 125.15625 252.796875 124.511719 251.683594 124.511719 C 250.609375 124.511719 249.867188 125.273438 249.867188 126.074219 C 249.867188 126.503906 250.238281 126.5625 250.335938 126.5625 C 250.53125 126.5625 250.785156 126.40625 250.785156 126.09375 C 250.785156 125.9375 250.726562 125.625 250.277344 125.625 C 250.550781 125.019531 251.136719 124.824219 251.546875 124.824219 C 252.425781 124.824219 252.875 125.507812 252.875 126.210938 C 252.875 126.972656 252.328125 127.558594 252.054688 127.871094 L 249.964844 129.960938 C 249.867188 130.039062 249.867188 130.058594 249.867188 130.292969 L 253.460938 130.292969 L 253.714844 128.710938 Z M 253.714844 128.710938 "/>
<path style="fill:none;stroke-width:0.3985;stroke-linecap:butt;stroke-linejoin:miter;stroke:rgb(0%,0%,0%);stroke-opacity:1;stroke-dasharray:0.3985,1.99255;stroke-miterlimit:10;" d="M 226.77175 -0.0015 L 226.77175 56.695375 M 226.77175 -0.0015 L 226.77175 -56.692125 " transform="matrix(1.25,0,0,-1.25,95.05875,132.20125)"/>
<path style="fill:none;stroke-width:0.79701;stroke-linecap:butt;stroke-linejoin:miter;stroke:rgb(0%,0%,0%);stroke-opacity:1;stroke-miterlimit:10;" d="M 85.037375 -87.8765 L 74.881125 -93.97025 " transform="matrix(1.25,0,0,-1.25,95.05875,132.20125)"/>
<path style=" stroke:none;fill-rule:nonzero;fill:rgb(0%,0%,0%);fill-opacity:1;" d="M 183.640625 252.675781 C 185.296875 252.0625 188.21875 251.449219 190.472656 251.421875 L 187.964844 247.234375 C 186.875 249.21875 184.960938 251.503906 183.640625 252.675781 "/>
<path style=" stroke:none;fill-rule:nonzero;fill:rgb(0%,0%,0%);fill-opacity:1;" d="M 175.144531 243.582031 L 175.144531 243.308594 L 174.929688 243.308594 C 174.421875 243.308594 174.421875 243.25 174.421875 243.054688 L 174.421875 239.851562 C 174.421875 239.65625 174.421875 239.597656 174.929688 239.597656 L 175.144531 239.597656 L 175.144531 239.324219 L 174.089844 239.34375 L 173.035156 239.324219 L 173.035156 239.597656 L 173.230469 239.597656 C 173.757812 239.597656 173.757812 239.65625 173.757812 239.851562 L 173.757812 243.054688 C 173.757812 243.25 173.757812 243.308594 173.230469 243.308594 L 173.035156 243.308594 L 173.035156 243.582031 L 174.089844 243.5625 L 175.144531 243.582031 Z M 175.144531 243.582031 "/>
<path style=" stroke:none;fill-rule:nonzero;fill:rgb(0%,0%,0%);fill-opacity:1;" d="M 182.050781 243.582031 L 182.050781 243.308594 L 181.933594 243.308594 C 181.523438 243.308594 181.523438 243.25 181.523438 243.054688 L 181.523438 241.707031 C 181.523438 240.925781 180.9375 240.828125 180.488281 240.828125 C 179.863281 240.828125 179.511719 241.140625 179.335938 241.414062 C 179.179688 240.828125 178.554688 240.828125 178.320312 240.828125 C 177.675781 240.828125 177.304688 241.179688 177.148438 241.433594 L 177.148438 240.828125 L 176.132812 240.90625 L 176.132812 241.179688 C 176.601562 241.179688 176.660156 241.21875 176.660156 241.511719 L 176.660156 243.054688 C 176.660156 243.25 176.660156 243.308594 176.25 243.308594 L 176.132812 243.308594 L 176.132812 243.582031 C 176.40625 243.5625 176.660156 243.5625 176.933594 243.5625 C 177.1875 243.5625 177.460938 243.5625 177.734375 243.582031 L 177.734375 243.308594 L 177.617188 243.308594 C 177.207031 243.308594 177.207031 243.25 177.207031 243.054688 L 177.207031 241.980469 C 177.207031 241.277344 177.851562 241.042969 178.242188 241.042969 C 178.710938 241.042969 178.808594 241.296875 178.808594 241.6875 L 178.808594 243.054688 C 178.808594 243.25 178.808594 243.308594 178.417969 243.308594 L 178.300781 243.308594 L 178.300781 243.582031 C 178.574219 243.5625 178.828125 243.5625 179.101562 243.5625 C 179.355469 243.5625 179.628906 243.5625 179.882812 243.582031 L 179.882812 243.308594 L 179.765625 243.308594 C 179.375 243.308594 179.375 243.25 179.375 243.054688 L 179.375 241.980469 C 179.375 241.277344 180 241.042969 180.410156 241.042969 C 180.859375 241.042969 180.976562 241.296875 180.976562 241.6875 L 180.976562 243.054688 C 180.976562 243.25 180.976562 243.308594 180.566406 243.308594 L 180.46875 243.308594 L 180.46875 243.582031 C 180.722656 243.5625 180.996094 243.5625 181.25 243.5625 C 181.523438 243.5625 181.777344 243.5625 182.050781 243.582031 Z M 182.050781 243.582031 "/>
<path style=" stroke:none;fill-rule:nonzero;fill:rgb(0%,0%,0%);fill-opacity:1;" d="M 186.421875 243.015625 L 186.421875 242.683594 L 186.148438 242.683594 L 186.148438 243.015625 C 186.148438 243.074219 186.148438 243.347656 185.894531 243.347656 C 185.660156 243.347656 185.660156 243.074219 185.660156 243.015625 L 185.660156 241.726562 C 185.660156 241.140625 185.015625 240.789062 184.253906 240.789062 C 183.863281 240.789062 183.140625 240.808594 183.140625 241.335938 C 183.140625 241.570312 183.316406 241.667969 183.472656 241.667969 C 183.648438 241.667969 183.804688 241.550781 183.804688 241.335938 C 183.804688 241.199219 183.726562 241.101562 183.667969 241.0625 C 183.863281 241.003906 184.175781 241.003906 184.234375 241.003906 C 184.761719 241.003906 185.09375 241.296875 185.09375 241.746094 L 185.09375 241.902344 C 184.488281 241.921875 184.15625 241.941406 183.6875 242.117188 C 183.257812 242.253906 182.90625 242.527344 182.90625 242.9375 C 182.90625 243.503906 183.628906 243.660156 184.117188 243.660156 C 184.605469 243.660156 184.976562 243.464844 185.171875 243.132812 C 185.191406 243.367188 185.347656 243.621094 185.660156 243.621094 C 185.699219 243.621094 186.421875 243.621094 186.421875 243.015625 Z M 185.09375 242.703125 C 185.09375 243.386719 184.351562 243.445312 184.195312 243.445312 C 183.824219 243.445312 183.472656 243.25 183.472656 242.9375 C 183.472656 242.722656 183.609375 242.15625 185.09375 242.078125 L 185.09375 242.703125 Z M 185.09375 242.703125 "/>
<path style=" stroke:none;fill-rule:nonzero;fill:rgb(0%,0%,0%);fill-opacity:1;" d="M 190.65625 241.121094 C 190.65625 240.945312 190.519531 240.75 190.226562 240.75 C 190.070312 240.75 189.738281 240.789062 189.40625 241.042969 C 189.269531 240.964844 188.976562 240.828125 188.605469 240.828125 C 187.863281 240.828125 187.355469 241.257812 187.355469 241.746094 C 187.355469 242.058594 187.589844 242.292969 187.667969 242.371094 C 187.53125 242.546875 187.492188 242.742188 187.492188 242.878906 C 187.492188 243.210938 187.707031 243.40625 187.765625 243.445312 C 187.453125 243.523438 187.082031 243.738281 187.082031 244.070312 C 187.082031 244.558594 187.902344 244.871094 188.800781 244.871094 C 189.640625 244.871094 190.539062 244.597656 190.539062 244.050781 C 190.539062 243.777344 190.382812 243.464844 190.070312 243.328125 C 189.660156 243.113281 189.25 243.113281 188.585938 243.113281 C 188.429688 243.113281 188.15625 243.113281 188.117188 243.113281 C 187.824219 243.074219 187.765625 242.820312 187.765625 242.703125 C 187.765625 242.585938 187.824219 242.488281 187.84375 242.488281 C 187.84375 242.488281 187.863281 242.488281 187.882812 242.488281 C 188.136719 242.625 188.371094 242.664062 188.585938 242.664062 C 189.328125 242.664062 189.835938 242.214844 189.835938 241.746094 C 189.835938 241.453125 189.640625 241.21875 189.5625 241.160156 C 189.855469 240.984375 190.128906 240.964844 190.246094 240.964844 C 190.226562 240.984375 190.1875 241.023438 190.1875 241.121094 C 190.1875 241.238281 190.265625 241.335938 190.421875 241.335938 C 190.558594 241.335938 190.65625 241.238281 190.65625 241.121094 Z M 189.289062 241.746094 C 189.289062 242.078125 189.132812 242.449219 188.605469 242.449219 C 188.058594 242.449219 187.902344 242.097656 187.902344 241.746094 C 187.902344 241.394531 188.058594 241.042969 188.585938 241.042969 C 189.132812 241.042969 189.289062 241.394531 189.289062 241.746094 Z M 190.109375 244.070312 C 190.109375 244.363281 189.542969 244.65625 188.800781 244.65625 C 188.097656 244.65625 187.511719 244.382812 187.511719 244.050781 C 187.511719 243.855469 187.726562 243.601562 188.195312 243.601562 L 188.605469 243.601562 C 189.230469 243.601562 190.109375 243.601562 190.109375 244.070312 Z M 190.109375 244.070312 "/>
<path style=" stroke:none;fill-rule:nonzero;fill:rgb(0%,0%,0%);fill-opacity:1;" d="M 194.328125 242.839844 C 194.328125 242.742188 194.230469 242.742188 194.210938 242.742188 C 194.113281 242.742188 194.09375 242.761719 194.054688 242.839844 C 193.898438 243.269531 193.429688 243.425781 193.078125 243.425781 C 192.570312 243.425781 192.296875 243.152344 192.199219 243.035156 C 191.964844 242.742188 191.964844 242.351562 191.964844 242.175781 L 194.152344 242.175781 C 194.289062 242.175781 194.328125 242.175781 194.328125 242.039062 C 194.328125 241.609375 194.113281 240.789062 192.941406 240.789062 C 192.003906 240.789062 191.339844 241.472656 191.339844 242.214844 C 191.339844 242.996094 192.101562 243.660156 193.039062 243.660156 C 194.035156 243.660156 194.328125 242.957031 194.328125 242.839844 Z M 193.859375 241.980469 L 191.964844 241.980469 C 192.042969 241.160156 192.648438 241.003906 192.941406 241.003906 C 193.800781 241.003906 193.859375 241.804688 193.859375 241.980469 Z M 193.859375 241.980469 "/>
<path style="fill:none;stroke-width:0.79701;stroke-linecap:butt;stroke-linejoin:miter;stroke:rgb(0%,0%,0%);stroke-opacity:1;stroke-dasharray:2.98883,2.98883;stroke-miterlimit:10;" d="M 113.387375 -0.598375 L 113.387375 -27.642125 " transform="matrix(1.25,0,0,-1.25,95.05875,132.20125)"/>
<path style="fill:none;stroke-width:0.79701;stroke-linecap:square;stroke-linejoin:miter;stroke:rgb(0%,0%,0%);stroke-opacity:1;stroke-miterlimit:10;" d="M 0.199375 -3.187635 L 0.199375 3.187365 " transform="matrix(0,-1.25,-1.25,0,236.7928,132.948438)"/>
<path style="fill:none;stroke-width:0.6376;stroke-linecap:round;stroke-linejoin:round;stroke:rgb(0%,0%,0%);stroke-opacity:1;stroke-miterlimit:10;" d="M -1.553555 2.07201 C -1.422305 1.29701 0.002695 0.12826 0.390195 0.000135 C 0.002695 -0.131115 -1.422305 -1.293615 -1.553555 -2.07174 " transform="matrix(0,1.25,1.25,0,236.7928,166.750538)"/>
<path style=" stroke:none;fill-rule:nonzero;fill:rgb(0%,0%,0%);fill-opacity:1;" d="M 226.140625 125.683594 L 226.140625 125.292969 L 225.925781 125.292969 C 225.183594 125.292969 225.007812 125.214844 224.871094 124.804688 L 222.175781 117.011719 C 222.117188 116.855469 222.078125 116.757812 221.882812 116.757812 C 221.6875 116.757812 221.648438 116.835938 221.589844 117.011719 L 219.011719 124.453125 C 218.777344 125.097656 218.289062 125.292969 217.605469 125.292969 L 217.605469 125.683594 L 218.875 125.644531 L 220.320312 125.683594 L 220.320312 125.292969 C 219.695312 125.292969 219.382812 124.980469 219.382812 124.667969 C 219.382812 124.628906 219.402344 124.492188 219.402344 124.472656 L 219.988281 122.851562 L 223.054688 122.851562 L 223.71875 124.746094 C 223.738281 124.804688 223.757812 124.882812 223.757812 124.921875 C 223.757812 125.292969 223.054688 125.292969 222.722656 125.292969 L 222.722656 125.683594 C 223.171875 125.644531 224.050781 125.644531 224.519531 125.644531 L 226.140625 125.683594 Z M 222.917969 122.460938 L 220.125 122.460938 L 221.511719 118.398438 L 222.917969 122.460938 Z M 222.917969 122.460938 "/>
<path style=" stroke:none;fill-rule:nonzero;fill:rgb(0%,0%,0%);fill-opacity:1;" d="M 230.675781 127.550781 L 230.675781 127.238281 L 230.34375 127.238281 C 229.464844 127.238281 229.464844 127.121094 229.464844 126.828125 L 229.464844 122.003906 C 229.464844 121.769531 229.464844 121.769531 229.210938 121.769531 C 228.644531 122.316406 227.863281 122.316406 227.511719 122.316406 L 227.511719 122.628906 C 227.707031 122.628906 228.292969 122.628906 228.761719 122.394531 L 228.761719 126.828125 C 228.761719 127.121094 228.761719 127.238281 227.902344 127.238281 L 227.570312 127.238281 L 227.570312 127.550781 L 229.113281 127.511719 L 230.675781 127.550781 Z M 230.675781 127.550781 "/>
<path style=" stroke:none;fill-rule:nonzero;fill:rgb(0%,0%,0%);fill-opacity:1;" d="M 237.691406 178.578125 C 237.691406 177.503906 236.675781 176.566406 235.289062 176.410156 C 236.5 176.175781 237.359375 175.375 237.359375 174.457031 C 237.359375 173.382812 236.207031 172.347656 234.585938 172.347656 L 230.035156 172.347656 L 230.035156 172.738281 L 230.328125 172.738281 C 231.285156 172.738281 231.324219 172.875 231.324219 173.324219 L 231.324219 179.886719 C 231.324219 180.335938 231.285156 180.472656 230.328125 180.472656 L 230.035156 180.472656 L 230.035156 180.863281 L 234.917969 180.863281 C 236.578125 180.863281 237.691406 179.75 237.691406 178.578125 Z M 236.148438 174.457031 C 236.148438 175.257812 235.542969 176.292969 234.15625 176.292969 L 232.359375 176.292969 L 232.359375 173.246094 C 232.359375 172.816406 232.378906 172.738281 232.964844 172.738281 L 234.507812 172.738281 C 235.71875 172.738281 236.148438 173.792969 236.148438 174.457031 Z M 236.460938 178.578125 C 236.460938 179.457031 235.796875 180.472656 234.527344 180.472656 L 232.964844 180.472656 C 232.378906 180.472656 232.359375 180.394531 232.359375 179.984375 L 232.359375 176.585938 L 234.703125 176.585938 C 235.933594 176.585938 236.460938 177.738281 236.460938 178.578125 Z M 236.460938 178.578125 "/>
<path style=" stroke:none;fill-rule:nonzero;fill:rgb(0%,0%,0%);fill-opacity:1;" d="M 242.527344 182.730469 L 242.527344 182.417969 L 242.195312 182.417969 C 241.316406 182.417969 241.316406 182.300781 241.316406 182.007812 L 241.316406 177.183594 C 241.316406 176.949219 241.316406 176.949219 241.0625 176.949219 C 240.496094 177.496094 239.714844 177.496094 239.363281 177.496094 L 239.363281 177.808594 C 239.558594 177.808594 240.144531 177.808594 240.613281 177.574219 L 240.613281 182.007812 C 240.613281 182.300781 240.613281 182.417969 239.753906 182.417969 L 239.421875 182.417969 L 239.421875 182.730469 L 240.964844 182.691406 L 242.527344 182.730469 Z M 242.527344 182.730469 "/>
<path style="fill:none;stroke-width:0.3985;stroke-linecap:butt;stroke-linejoin:miter;stroke:rgb(0%,0%,0%);stroke-opacity:1;stroke-dasharray:2.98883,2.98883;stroke-miterlimit:10;" d="M 113.387375 -28.348375 L 240.949875 35.432875 " transform="matrix(1.25,0,0,-1.25,95.05875,132.20125)"/>
<path style="fill:none;stroke-width:0.3985;stroke-linecap:butt;stroke-linejoin:miter;stroke:rgb(0%,0%,0%);stroke-opacity:1;stroke-miterlimit:10;" d="M -34.01575 -0.0015 C -35.675125 2.870375 -35.675125 5.632875 -34.01575 8.501625 " transform="matrix(1.25,0,0,-1.25,95.05875,132.20125)"/>
<path style=" stroke:none;fill-rule:nonzero;fill:rgb(0%,0%,0%);fill-opacity:1;" d="M 48.09375 128.238281 C 48.09375 128.140625 47.976562 128.140625 47.9375 128.140625 C 47.820312 128.140625 47.800781 128.179688 47.78125 128.21875 C 47.664062 128.550781 47.390625 128.609375 47.292969 128.609375 C 47.175781 128.609375 47.019531 128.609375 46.980469 127.535156 C 47.78125 126.714844 48.09375 125.542969 48.09375 125.464844 C 48.09375 125.347656 47.996094 125.347656 47.957031 125.347656 C 47.839844 125.347656 47.839844 125.367188 47.78125 125.5625 C 47.625 126.128906 47.332031 126.675781 46.960938 127.144531 C 46.960938 127.007812 46.941406 126.421875 46.921875 126.34375 C 46.785156 125.484375 46.140625 124.917969 45.261719 124.917969 C 43.992188 124.917969 42.761719 126.109375 42.761719 127.339844 C 42.761719 128.140625 43.347656 128.84375 44.34375 128.84375 C 45.144531 128.84375 45.867188 128.492188 46.355469 128.121094 C 46.570312 128.746094 47 128.84375 47.273438 128.84375 C 47.78125 128.84375 48.09375 128.433594 48.09375 128.238281 Z M 46.296875 127.828125 C 45.4375 128.53125 44.714844 128.609375 44.382812 128.609375 C 43.796875 128.609375 43.484375 128.21875 43.484375 127.632812 C 43.484375 127.398438 43.601562 126.441406 44.050781 125.835938 C 44.460938 125.308594 44.949219 125.171875 45.261719 125.171875 C 45.945312 125.171875 46.160156 125.835938 46.21875 126.382812 C 46.277344 126.753906 46.257812 127.378906 46.296875 127.828125 Z M 46.296875 127.828125 "/>
<path style="fill:none;stroke-width:0.3985;stroke-linecap:butt;stroke-linejoin:miter;stroke:rgb(0%,0%,0%);stroke-opacity:1;stroke-miterlimit:10;" d="M 153.074875 -0.0015 C 152.537375 -3.139 153.456125 -5.623375 155.906125 -7.654625 " transform="matrix(1.25,0,0,-1.25,95.05875,132.20125)"/>
<path style=" stroke:none;fill-rule:nonzero;fill:rgb(0%,0%,0%);fill-opacity:1;" d="M 280.269531 140.597656 C 280.269531 140.5 280.152344 140.5 280.113281 140.5 C 279.996094 140.5 279.976562 140.539062 279.957031 140.578125 C 279.839844 140.910156 279.566406 140.96875 279.46875 140.96875 C 279.351562 140.96875 279.195312 140.96875 279.15625 139.894531 C 279.957031 139.074219 280.269531 137.902344 280.269531 137.824219 C 280.269531 137.707031 280.171875 137.707031 280.132812 137.707031 C 280.015625 137.707031 280.015625 137.726562 279.957031 137.921875 C 279.800781 138.488281 279.507812 139.035156 279.136719 139.503906 C 279.136719 139.367188 279.117188 138.78125 279.097656 138.703125 C 278.960938 137.84375 278.316406 137.277344 277.4375 137.277344 C 276.167969 137.277344 274.9375 138.46875 274.9375 139.699219 C 274.9375 140.5 275.523438 141.203125 276.519531 141.203125 C 277.320312 141.203125 278.042969 140.851562 278.53125 140.480469 C 278.746094 141.105469 279.175781 141.203125 279.449219 141.203125 C 279.957031 141.203125 280.269531 140.792969 280.269531 140.597656 Z M 278.472656 140.1875 C 277.613281 140.890625 276.890625 140.96875 276.558594 140.96875 C 275.972656 140.96875 275.660156 140.578125 275.660156 139.992188 C 275.660156 139.757812 275.777344 138.800781 276.226562 138.195312 C 276.636719 137.667969 277.125 137.53125 277.4375 137.53125 C 278.121094 137.53125 278.335938 138.195312 278.394531 138.742188 C 278.453125 139.113281 278.433594 139.738281 278.472656 140.1875 Z M 278.472656 140.1875 "/>
<path style=" stroke:none;fill-rule:nonzero;fill:rgb(0%,0%,0%);fill-opacity:1;" d="M 283.167969 134.242188 C 283.167969 134.046875 282.972656 133.890625 282.777344 133.890625 C 282.523438 133.890625 282.464844 134.105469 282.425781 134.164062 L 281.46875 136.859375 C 281.449219 136.957031 281.449219 136.976562 281.449219 136.976562 C 281.449219 137.054688 281.644531 137.132812 281.703125 137.132812 C 281.761719 137.132812 281.78125 137.113281 281.800781 137.035156 L 283.109375 134.457031 C 283.148438 134.398438 283.167969 134.339844 283.167969 134.242188 Z M 283.167969 134.242188 "/>
<path style="fill:none;stroke-width:0.3985;stroke-linecap:butt;stroke-linejoin:miter;stroke:rgb(0%,0%,0%);stroke-opacity:1;stroke-miterlimit:10;" d="M 188.506125 -0.0015 C 189.043625 3.136 188.12175 5.620375 185.67175 7.65475 " transform="matrix(1.25,0,0,-1.25,95.05875,132.20125)"/>
<path style=" stroke:none;fill-rule:nonzero;fill:rgb(0%,0%,0%);fill-opacity:1;" d="M 338.734375 128.195312 C 338.734375 128.097656 338.617188 128.097656 338.578125 128.097656 C 338.460938 128.097656 338.441406 128.136719 338.421875 128.175781 C 338.304688 128.507812 338.03125 128.566406 337.933594 128.566406 C 337.816406 128.566406 337.660156 128.566406 337.621094 127.492188 C 338.421875 126.671875 338.734375 125.5 338.734375 125.421875 C 338.734375 125.304688 338.636719 125.304688 338.597656 125.304688 C 338.480469 125.304688 338.480469 125.324219 338.421875 125.519531 C 338.265625 126.085938 337.972656 126.632812 337.601562 127.101562 C 337.601562 126.964844 337.582031 126.378906 337.5625 126.300781 C 337.425781 125.441406 336.78125 124.875 335.902344 124.875 C 334.632812 124.875 333.402344 126.066406 333.402344 127.296875 C 333.402344 128.097656 333.988281 128.800781 334.984375 128.800781 C 335.785156 128.800781 336.507812 128.449219 336.996094 128.078125 C 337.210938 128.703125 337.640625 128.800781 337.914062 128.800781 C 338.421875 128.800781 338.734375 128.390625 338.734375 128.195312 Z M 336.9375 127.785156 C 336.078125 128.488281 335.355469 128.566406 335.023438 128.566406 C 334.4375 128.566406 334.125 128.175781 334.125 127.589844 C 334.125 127.355469 334.242188 126.398438 334.691406 125.792969 C 335.101562 125.265625 335.589844 125.128906 335.902344 125.128906 C 336.585938 125.128906 336.800781 125.792969 336.859375 126.339844 C 336.917969 126.710938 336.898438 127.335938 336.9375 127.785156 Z M 336.9375 127.785156 "/>
<path style=" stroke:none;fill-rule:nonzero;fill:rgb(0%,0%,0%);fill-opacity:1;" d="M 341.632812 121.839844 C 341.632812 121.644531 341.4375 121.488281 341.242188 121.488281 C 340.988281 121.488281 340.929688 121.703125 340.890625 121.761719 L 339.933594 124.457031 C 339.914062 124.554688 339.914062 124.574219 339.914062 124.574219 C 339.914062 124.652344 340.109375 124.730469 340.167969 124.730469 C 340.226562 124.730469 340.246094 124.710938 340.265625 124.632812 L 341.574219 122.054688 C 341.613281 121.996094 341.632812 121.9375 341.632812 121.839844 Z M 341.632812 121.839844 "/>
<path style="fill:none;stroke-width:0.79701;stroke-linecap:butt;stroke-linejoin:miter;stroke:rgb(0%,0%,0%);stroke-opacity:1;stroke-miterlimit:10;" d="M 267.18425 8.670375 L 283.862375 13.139125 C 285.9905 13.711 286.456125 12.914125 284.903 11.35475 L 272.687375 -0.860875 " transform="matrix(1.25,0,0,-1.25,95.05875,132.20125)"/>
<path style="fill:none;stroke-width:0.3985;stroke-linecap:butt;stroke-linejoin:miter;stroke:rgb(0%,0%,0%);stroke-opacity:1;stroke-miterlimit:10;" d="M 271.293625 9.7735 C 272.062375 6.889125 273.581125 4.257875 275.693625 2.1485 " transform="matrix(1.25,0,0,-1.25,95.05875,132.20125)"/>
<path style="fill-rule:nonzero;fill:rgb(0%,0%,0%);fill-opacity:1;stroke-width:0.3985;stroke-linecap:butt;stroke-linejoin:miter;stroke:rgb(0%,0%,0%);stroke-opacity:1;stroke-miterlimit:10;" d="M 272.9905 5.670375 C 273.578 4.651625 274.4655 4.064125 274.97175 4.357875 C 275.48425 4.651625 275.418625 5.714125 274.831125 6.732875 C 274.24675 7.7485 273.356125 8.336 272.84675 8.04225 C 272.3405 7.7485 272.403 6.686 272.9905 5.670375 Z M 272.9905 5.670375 " transform="matrix(1.25,0,0,-1.25,95.05875,132.20125)"/>
</g>
</svg>
