<?xml version="1.0" encoding="UTF-8"?>
<!-- Converted by misc2svg (http://www.network-science.de/tools/misc2svg/) -->
<svg xmlns="http://www.w3.org/2000/svg" xmlns:xlink="http://www.w3.org/1999/xlink" width="541pt" height="246pt" viewBox="0 0 541 246" version="1.1">
<g id="misc2svg">
<path style="fill:none;stroke-width:0.3985;stroke-linecap:butt;stroke-linejoin:miter;stroke:rgb(0%,0%,0%);stroke-opacity:1;stroke-miterlimit:10;" d="M -56.69175 -0.0015 L 353.877 -0.0015 " transform="matrix(1.25,0,0,-1.25,77.34125,132.20125)"/>
<path style="fill:none;stroke-width:0.31879;stroke-linecap:round;stroke-linejoin:round;stroke:rgb(0%,0%,0%);stroke-opacity:1;stroke-miterlimit:10;" d="M -1.19358 1.59225 C -1.096705 0.995375 0.00017 0.101625 0.297045 -0.0015 C 0.00017 -0.098375 -1.096705 -0.998375 -1.19358 -1.59525 " transform="matrix(1.25,0,0,-1.25,519.687287,132.20125)"/>
<path style=" stroke:none;fill-rule:nonzero;fill:rgb(100%,100%,100%);fill-opacity:1;" d="M 520.507812 131.953125 L 535.210938 131.953125 L 535.210938 118.597656 L 520.507812 118.597656 L 520.507812 131.953125 Z M 520.507812 131.953125 "/>
<path style=" stroke:none;fill-rule:nonzero;fill:rgb(0%,0%,0%);fill-opacity:1;" d="M 530.457031 125.199219 C 530.457031 125.023438 530.28125 125.023438 530.203125 125.023438 L 528.035156 125.023438 L 528.035156 122.855469 C 528.035156 122.777344 528.035156 122.601562 527.859375 122.601562 C 527.683594 122.601562 527.683594 122.777344 527.683594 122.855469 L 527.683594 125.023438 L 525.515625 125.023438 C 525.4375 125.023438 525.261719 125.023438 525.261719 125.199219 C 525.261719 125.375 525.4375 125.375 525.515625 125.375 L 527.683594 125.375 L 527.683594 127.542969 C 527.683594 127.640625 527.683594 127.796875 527.859375 127.796875 C 528.035156 127.796875 528.035156 127.640625 528.035156 127.542969 L 528.035156 125.375 L 530.203125 125.375 C 530.28125 125.375 530.457031 125.375 530.457031 125.199219 Z M 530.457031 125.199219 "/>
<path style="fill:none;stroke-width:0.79701;stroke-linecap:butt;stroke-linejoin:miter;stroke:rgb(0%,0%,0%);stroke-opacity:1;stroke-miterlimit:10;" d="M -34.01675 -0.598375 L -34.01675 -6.379625 " transform="matrix(1.25,0,0,-1.25,77.34125,132.20125)"/>
<path style="fill:none;stroke-width:0.79701;stroke-linecap:square;stroke-linejoin:miter;stroke:rgb(0%,0%,0%);stroke-opacity:1;stroke-miterlimit:10;" d="M 0.199375 -3.189955 L 0.199375 3.18817 " transform="matrix(0,-1.25,-1.25,0,34.82115,132.948438)"/>
<path style="fill:none;stroke-width:0.6376;stroke-linecap:round;stroke-linejoin:round;stroke:rgb(0%,0%,0%);stroke-opacity:1;stroke-miterlimit:10;" d="M -1.55282 2.071205 C -1.424695 1.296205 0.000305 0.13058 0.387805 -0.00067 C 0.000305 -0.13192 -1.424695 -1.29442 -1.55282 -2.072545 " transform="matrix(0,1.25,1.25,0,34.82115,140.1754)"/>
<path style=" stroke:none;fill-rule:nonzero;fill:rgb(0%,0%,0%);fill-opacity:1;" d="M 39.078125 127.550781 L 39.078125 127.160156 L 38.863281 127.160156 C 38.121094 127.160156 37.945312 127.082031 37.808594 126.671875 L 35.113281 118.878906 C 35.054688 118.722656 35.015625 118.625 34.820312 118.625 C 34.625 118.625 34.585938 118.703125 34.527344 118.878906 L 31.949219 126.320312 C 31.714844 126.964844 31.226562 127.160156 30.542969 127.160156 L 30.542969 127.550781 L 31.8125 127.511719 L 33.257812 127.550781 L 33.257812 127.160156 C 32.632812 127.160156 32.320312 126.847656 32.320312 126.535156 C 32.320312 126.496094 32.339844 126.359375 32.339844 126.339844 L 32.925781 124.71875 L 35.992188 124.71875 L 36.65625 126.613281 C 36.675781 126.671875 36.695312 126.75 36.695312 126.789062 C 36.695312 127.160156 35.992188 127.160156 35.660156 127.160156 L 35.660156 127.550781 C 36.109375 127.511719 36.988281 127.511719 37.457031 127.511719 L 39.078125 127.550781 Z M 35.855469 124.328125 L 33.0625 124.328125 L 34.449219 120.265625 L 35.855469 124.328125 Z M 35.855469 124.328125 "/>
<path style=" stroke:none;fill-rule:nonzero;fill:rgb(0%,0%,0%);fill-opacity:1;" d="M 38.519531 152.003906 C 38.519531 150.929688 37.503906 149.992188 36.117188 149.835938 C 37.328125 149.601562 38.1875 148.800781 38.1875 147.882812 C 38.1875 146.808594 37.035156 145.773438 35.414062 145.773438 L 30.863281 145.773438 L 30.863281 146.164062 L 31.15625 146.164062 C 32.113281 146.164062 32.152344 146.300781 32.152344 146.75 L 32.152344 153.3125 C 32.152344 153.761719 32.113281 153.898438 31.15625 153.898438 L 30.863281 153.898438 L 30.863281 154.289062 L 35.746094 154.289062 C 37.40625 154.289062 38.519531 153.175781 38.519531 152.003906 Z M 36.976562 147.882812 C 36.976562 148.683594 36.371094 149.71875 34.984375 149.71875 L 33.1875 149.71875 L 33.1875 146.671875 C 33.1875 146.242188 33.207031 146.164062 33.792969 146.164062 L 35.335938 146.164062 C 36.546875 146.164062 36.976562 147.21875 36.976562 147.882812 Z M 37.289062 152.003906 C 37.289062 152.882812 36.625 153.898438 35.355469 153.898438 L 33.792969 153.898438 C 33.207031 153.898438 33.1875 153.820312 33.1875 153.410156 L 33.1875 150.011719 L 35.53125 150.011719 C 36.761719 150.011719 37.289062 151.164062 37.289062 152.003906 Z M 37.289062 152.003906 "/>
<path style="fill:none;stroke-width:0.79701;stroke-linecap:butt;stroke-linejoin:miter;stroke:rgb(0%,0%,0%);stroke-opacity:1;stroke-miterlimit:10;" d="M 170.080125 0.595375 L 170.080125 34.726625 " transform="matrix(1.25,0,0,-1.25,77.34125,132.20125)"/>
<path style="fill:none;stroke-width:0.79701;stroke-linecap:square;stroke-linejoin:miter;stroke:rgb(0%,0%,0%);stroke-opacity:1;stroke-miterlimit:10;" d="M 0.19925 -3.187785 L 0.19925 3.187215 " transform="matrix(0,1.25,1.25,0,289.941762,131.454063)"/>
<path style="fill:none;stroke-width:0.6376;stroke-linecap:round;stroke-linejoin:round;stroke:rgb(0%,0%,0%);stroke-opacity:1;stroke-miterlimit:10;" d="M -1.555765 2.07216 C -1.42764 1.294035 0.000485 0.12841 0.39111 0.000285 C 0.000485 -0.12784 -1.42764 -1.29659 -1.555765 -2.074715 " transform="matrix(0,-1.25,-1.25,0,289.941762,88.793575)"/>
<path style=" stroke:none;fill-rule:nonzero;fill:rgb(0%,0%,0%);fill-opacity:1;" d="M 291.402344 145.429688 L 291.402344 145.039062 L 291.1875 145.039062 C 290.445312 145.039062 290.269531 144.960938 290.132812 144.550781 L 287.4375 136.757812 C 287.378906 136.601562 287.339844 136.503906 287.144531 136.503906 C 286.949219 136.503906 286.910156 136.582031 286.851562 136.757812 L 284.273438 144.199219 C 284.039062 144.84375 283.550781 145.039062 282.867188 145.039062 L 282.867188 145.429688 L 284.136719 145.390625 L 285.582031 145.429688 L 285.582031 145.039062 C 284.957031 145.039062 284.644531 144.726562 284.644531 144.414062 C 284.644531 144.375 284.664062 144.238281 284.664062 144.21875 L 285.25 142.597656 L 288.316406 142.597656 L 288.980469 144.492188 C 289 144.550781 289.019531 144.628906 289.019531 144.667969 C 289.019531 145.039062 288.316406 145.039062 287.984375 145.039062 L 287.984375 145.429688 C 288.433594 145.390625 289.3125 145.390625 289.78125 145.390625 L 291.402344 145.429688 Z M 288.179688 142.207031 L 285.386719 142.207031 L 286.773438 138.144531 L 288.179688 142.207031 Z M 288.179688 142.207031 "/>
<path style=" stroke:none;fill-rule:nonzero;fill:rgb(0%,0%,0%);fill-opacity:1;" d="M 295.9375 147.296875 L 295.9375 146.984375 L 295.605469 146.984375 C 294.726562 146.984375 294.726562 146.867188 294.726562 146.574219 L 294.726562 141.75 C 294.726562 141.515625 294.726562 141.515625 294.472656 141.515625 C 293.90625 142.0625 293.125 142.0625 292.773438 142.0625 L 292.773438 142.375 C 292.96875 142.375 293.554688 142.375 294.023438 142.140625 L 294.023438 146.574219 C 294.023438 146.867188 294.023438 146.984375 293.164062 146.984375 L 292.832031 146.984375 L 292.832031 147.296875 L 294.375 147.257812 L 295.9375 147.296875 Z M 295.9375 147.296875 "/>
<path style=" stroke:none;fill-rule:nonzero;fill:rgb(0%,0%,0%);fill-opacity:1;" d="M 290.839844 79.109375 C 290.839844 78.035156 289.824219 77.097656 288.4375 76.941406 C 289.648438 76.707031 290.507812 75.90625 290.507812 74.988281 C 290.507812 73.914062 289.355469 72.878906 287.734375 72.878906 L 283.183594 72.878906 L 283.183594 73.269531 L 283.476562 73.269531 C 284.433594 73.269531 284.472656 73.40625 284.472656 73.855469 L 284.472656 80.417969 C 284.472656 80.867188 284.433594 81.003906 283.476562 81.003906 L 283.183594 81.003906 L 283.183594 81.394531 L 288.066406 81.394531 C 289.726562 81.394531 290.839844 80.28125 290.839844 79.109375 Z M 289.296875 74.988281 C 289.296875 75.789062 288.691406 76.824219 287.304688 76.824219 L 285.507812 76.824219 L 285.507812 73.777344 C 285.507812 73.347656 285.527344 73.269531 286.113281 73.269531 L 287.65625 73.269531 C 288.867188 73.269531 289.296875 74.324219 289.296875 74.988281 Z M 289.609375 79.109375 C 289.609375 79.988281 288.945312 81.003906 287.675781 81.003906 L 286.113281 81.003906 C 285.527344 81.003906 285.507812 80.925781 285.507812 80.515625 L 285.507812 77.117188 L 287.851562 77.117188 C 289.082031 77.117188 289.609375 78.269531 289.609375 79.109375 Z M 289.609375 79.109375 "/>
<path style=" stroke:none;fill-rule:nonzero;fill:rgb(0%,0%,0%);fill-opacity:1;" d="M 295.675781 83.261719 L 295.675781 82.949219 L 295.34375 82.949219 C 294.464844 82.949219 294.464844 82.832031 294.464844 82.539062 L 294.464844 77.714844 C 294.464844 77.480469 294.464844 77.480469 294.210938 77.480469 C 293.644531 78.027344 292.863281 78.027344 292.511719 78.027344 L 292.511719 78.339844 C 292.707031 78.339844 293.292969 78.339844 293.761719 78.105469 L 293.761719 82.539062 C 293.761719 82.832031 293.761719 82.949219 292.902344 82.949219 L 292.570312 82.949219 L 292.570312 83.261719 L 294.113281 83.222656 L 295.675781 83.261719 Z M 295.675781 83.261719 "/>
<path style="fill:none;stroke-width:1.59404;stroke-linecap:butt;stroke-linejoin:miter;stroke:rgb(0%,0%,0%);stroke-opacity:1;stroke-miterlimit:10;" d="M -0.001125 -49.879625 L -0.001125 49.876625 " transform="matrix(1.25,0,0,-1.25,77.34125,132.20125)"/>
<path style=" stroke:none;fill-rule:nonzero;fill:rgb(0%,0%,0%);fill-opacity:1;" d="M 77.339844 203.066406 C 77.8125 200.542969 79.234375 196.445312 80.890625 193.601562 L 73.792969 193.601562 C 75.449219 196.445312 76.871094 200.542969 77.339844 203.066406 "/>
<path style=" stroke:none;fill-rule:nonzero;fill:rgb(0%,0%,0%);fill-opacity:1;" d="M 77.339844 61.332031 C 76.871094 63.859375 75.449219 67.960938 73.792969 70.800781 L 80.890625 70.800781 C 79.234375 67.960938 77.8125 63.859375 77.339844 61.332031 "/>
<path style=" stroke:none;fill-rule:nonzero;fill:rgb(0%,0%,0%);fill-opacity:1;" d="M 78.4375 52.542969 C 78.4375 52.542969 78.359375 52.503906 78.320312 52.503906 C 78.144531 52.503906 77.832031 52.660156 77.636719 52.796875 C 77.285156 53.011719 77.265625 53.089844 77.1875 53.304688 C 77.109375 53.5 76.992188 53.675781 76.992188 53.675781 C 76.875 53.8125 76.875 53.8125 76.679688 53.8125 C 76.132812 53.8125 75.46875 53.65625 74.980469 53.519531 C 74.355469 53.324219 73.632812 53.109375 72.96875 53.109375 C 72.675781 53.109375 72.636719 53.128906 72.5 53.167969 C 73.164062 52.191406 73.398438 51.234375 73.515625 50.726562 C 73.75 49.789062 74.335938 47.484375 75.234375 46.585938 C 75.410156 46.390625 75.488281 46.3125 75.898438 46.3125 C 76.640625 46.3125 76.757812 47.035156 76.757812 47.347656 C 76.757812 47.542969 76.699219 47.757812 76.699219 47.796875 C 76.699219 47.796875 76.699219 47.894531 76.816406 47.894531 C 76.992188 47.894531 77.34375 47.738281 77.636719 47.523438 C 77.832031 47.367188 77.96875 47.269531 77.96875 46.703125 C 77.96875 46.136719 77.714844 45.53125 76.894531 45.53125 C 75.878906 45.53125 74.707031 46.253906 74.121094 46.957031 C 73.242188 48.011719 72.8125 49.339844 72.304688 51.332031 C 71.835938 53.207031 71.113281 53.910156 71.09375 53.949219 C 70.683594 54.300781 70.644531 54.476562 70.644531 54.515625 C 70.644531 54.515625 70.664062 54.59375 70.761719 54.59375 C 70.976562 54.59375 71.601562 54.300781 71.914062 53.890625 C 72.304688 53.890625 72.636719 53.890625 73.808594 54.242188 C 74.238281 54.359375 75.019531 54.59375 75.683594 54.59375 C 76.601562 54.59375 78.144531 53.753906 78.4375 52.542969 Z M 78.4375 52.542969 "/>
<path style=" stroke:none;fill-rule:nonzero;fill:rgb(0%,0%,0%);fill-opacity:1;" d="M 82.964844 56.1875 L 82.964844 55.875 L 82.632812 55.875 C 81.753906 55.875 81.753906 55.757812 81.753906 55.464844 L 81.753906 50.640625 C 81.753906 50.40625 81.753906 50.40625 81.5 50.40625 C 80.933594 50.953125 80.152344 50.953125 79.800781 50.953125 L 79.800781 51.265625 C 79.996094 51.265625 80.582031 51.265625 81.050781 51.03125 L 81.050781 55.464844 C 81.050781 55.757812 81.050781 55.875 80.191406 55.875 L 79.859375 55.875 L 79.859375 56.1875 L 81.402344 56.148438 L 82.964844 56.1875 Z M 82.964844 56.1875 "/>
<path style="fill:none;stroke-width:1.59404;stroke-linecap:butt;stroke-linejoin:miter;stroke:rgb(0%,0%,0%);stroke-opacity:1;stroke-miterlimit:10;" d="M 226.777 -78.2265 L 226.777 78.226625 " transform="matrix(1.25,0,0,-1.25,77.34125,132.20125)"/>
<path style=" stroke:none;fill-rule:nonzero;fill:rgb(0%,0%,0%);fill-opacity:1;" d="M 360.8125 238.5 C 361.285156 235.976562 362.699219 231.875 364.359375 229.039062 L 357.261719 229.039062 C 358.914062 231.875 360.335938 235.976562 360.8125 238.5 "/>
<path style=" stroke:none;fill-rule:nonzero;fill:rgb(0%,0%,0%);fill-opacity:1;" d="M 360.8125 25.898438 C 360.335938 28.421875 358.914062 32.523438 357.261719 35.367188 L 364.359375 35.367188 C 362.699219 32.523438 361.285156 28.421875 360.8125 25.898438 "/>
<path style=" stroke:none;fill-rule:nonzero;fill:rgb(0%,0%,0%);fill-opacity:1;" d="M 361.902344 17.109375 C 361.902344 17.109375 361.824219 17.070312 361.785156 17.070312 C 361.609375 17.070312 361.296875 17.226562 361.101562 17.363281 C 360.75 17.578125 360.730469 17.65625 360.652344 17.871094 C 360.574219 18.066406 360.457031 18.242188 360.457031 18.242188 C 360.339844 18.378906 360.339844 18.378906 360.144531 18.378906 C 359.597656 18.378906 358.933594 18.222656 358.445312 18.085938 C 357.820312 17.890625 357.097656 17.675781 356.433594 17.675781 C 356.140625 17.675781 356.101562 17.695312 355.964844 17.734375 C 356.628906 16.757812 356.863281 15.800781 356.980469 15.292969 C 357.214844 14.355469 357.800781 12.050781 358.699219 11.152344 C 358.875 10.957031 358.953125 10.878906 359.363281 10.878906 C 360.105469 10.878906 360.222656 11.601562 360.222656 11.914062 C 360.222656 12.109375 360.164062 12.324219 360.164062 12.363281 C 360.164062 12.363281 360.164062 12.460938 360.28125 12.460938 C 360.457031 12.460938 360.808594 12.304688 361.101562 12.089844 C 361.296875 11.933594 361.433594 11.835938 361.433594 11.269531 C 361.433594 10.703125 361.179688 10.097656 360.359375 10.097656 C 359.34375 10.097656 358.171875 10.820312 357.585938 11.523438 C 356.707031 12.578125 356.277344 13.90625 355.769531 15.898438 C 355.300781 17.773438 354.578125 18.476562 354.558594 18.515625 C 354.148438 18.867188 354.109375 19.042969 354.109375 19.082031 C 354.109375 19.082031 354.128906 19.160156 354.226562 19.160156 C 354.441406 19.160156 355.066406 18.867188 355.378906 18.457031 C 355.769531 18.457031 356.101562 18.457031 357.273438 18.808594 C 357.703125 18.925781 358.484375 19.160156 359.148438 19.160156 C 360.066406 19.160156 361.609375 18.320312 361.902344 17.109375 Z M 361.902344 17.109375 "/>
<path style=" stroke:none;fill-rule:nonzero;fill:rgb(0%,0%,0%);fill-opacity:1;" d="M 366.703125 19.171875 L 366.410156 19.171875 C 366.390625 19.367188 366.292969 19.875 366.175781 19.953125 C 366.117188 20.011719 365.453125 20.011719 365.316406 20.011719 L 363.714844 20.011719 C 364.632812 19.210938 364.945312 18.957031 365.453125 18.546875 C 366.097656 18.039062 366.703125 17.492188 366.703125 16.671875 C 366.703125 15.617188 365.785156 14.972656 364.671875 14.972656 C 363.597656 14.972656 362.855469 15.734375 362.855469 16.535156 C 362.855469 16.964844 363.226562 17.023438 363.324219 17.023438 C 363.519531 17.023438 363.773438 16.867188 363.773438 16.554688 C 363.773438 16.398438 363.714844 16.085938 363.265625 16.085938 C 363.539062 15.480469 364.125 15.285156 364.535156 15.285156 C 365.414062 15.285156 365.863281 15.96875 365.863281 16.671875 C 365.863281 17.433594 365.316406 18.019531 365.042969 18.332031 L 362.953125 20.421875 C 362.855469 20.5 362.855469 20.519531 362.855469 20.753906 L 366.449219 20.753906 L 366.703125 19.171875 Z M 366.703125 19.171875 "/>
<path style="fill:none;stroke-width:0.3985;stroke-linecap:butt;stroke-linejoin:miter;stroke:rgb(100%,0%,0%);stroke-opacity:1;stroke-miterlimit:10;" d="M -34.01675 -7.085875 L -0.001125 -0.0015 L 170.080125 35.432875 L 227.05825 47.30475 " transform="matrix(1.25,0,0,-1.25,77.34125,132.20125)"/>
<path style=" stroke:none;fill-rule:nonzero;fill:rgb(100%,0%,0%);fill-opacity:1;" d="M 198.007812 107.222656 L 193.707031 106.078125 L 195.570312 107.730469 L 194.511719 109.980469 "/>
<path style="fill:none;stroke-width:0.3985;stroke-linecap:butt;stroke-linejoin:miter;stroke:rgb(100%,0%,0%);stroke-opacity:1;stroke-miterlimit:10;" d="M 226.777 47.6235 L 283.467625 11.339125 L 340.161375 -24.94525 " transform="matrix(1.25,0,0,-1.25,77.34125,132.20125)"/>
<path style=" stroke:none;fill-rule:nonzero;fill:rgb(100%,0%,0%);fill-opacity:1;" d="M 431.683594 117.820312 L 429.394531 114 L 429.585938 116.484375 L 427.257812 117.363281 "/>
<path style="fill:none;stroke-width:0.3985;stroke-linecap:butt;stroke-linejoin:miter;stroke:rgb(0%,0%,0%);stroke-opacity:1;stroke-dasharray:2.98883,2.98883;stroke-miterlimit:10;" d="M 226.777 -0.0015 L 170.080125 -11.335875 M 226.777 -0.0015 L 311.8145 17.007875 " transform="matrix(1.25,0,0,-1.25,77.34125,132.20125)"/>
<path style="fill:none;stroke-width:0.3985;stroke-linecap:butt;stroke-linejoin:miter;stroke:rgb(100%,0%,0%);stroke-opacity:1;stroke-dasharray:2.98883,2.98883;stroke-miterlimit:10;" d="M 226.777 47.6235 L 170.080125 83.90475 " transform="matrix(1.25,0,0,-1.25,77.34125,132.20125)"/>
<path style="fill:none;stroke-width:0.3985;stroke-linecap:butt;stroke-linejoin:miter;stroke:rgb(0%,0%,100%);stroke-opacity:1;stroke-miterlimit:10;" d="M -34.01675 -7.085875 L -0.001125 -7.085875 " transform="matrix(1.25,0,0,-1.25,77.34125,132.20125)"/>
<path style=" stroke:none;fill-rule:nonzero;fill:rgb(0%,0%,100%);fill-opacity:1;" d="M 56.078125 141.058594 L 52.09375 139.066406 L 53.589844 141.058594 L 52.09375 143.050781 "/>
<path style=" stroke:none;fill-rule:nonzero;fill:rgb(0%,0%,100%);fill-opacity:1;" d="M 51.597656 141.058594 L 47.613281 139.066406 L 49.105469 141.058594 L 47.613281 143.050781 "/>
<path style="fill:none;stroke-width:0.3985;stroke-linecap:butt;stroke-linejoin:miter;stroke:rgb(0%,0%,100%);stroke-opacity:1;stroke-miterlimit:10;" d="M -0.001125 -7.085875 L 28.34575 -0.0015 L 226.777 49.607875 " transform="matrix(1.25,0,0,-1.25,77.34125,132.20125)"/>
<path style=" stroke:none;fill-rule:nonzero;fill:rgb(0%,0%,100%);fill-opacity:1;" d="M 219.101562 105.726562 L 214.75 104.761719 L 216.683594 106.332031 L 215.710938 108.628906 "/>
<path style=" stroke:none;fill-rule:nonzero;fill:rgb(0%,0%,100%);fill-opacity:1;" d="M 214.75 106.8125 L 210.398438 105.839844 L 212.335938 107.414062 L 211.363281 109.707031 "/>
<path style="fill:none;stroke-width:0.3985;stroke-linecap:butt;stroke-linejoin:miter;stroke:rgb(0%,0%,0%);stroke-opacity:1;stroke-dasharray:2.98883,2.98883;stroke-miterlimit:10;" d="M 226.777 -0.0015 L 170.080125 -14.173375 M 226.777 -0.0015 L 311.8145 21.261 " transform="matrix(1.25,0,0,-1.25,77.34125,132.20125)"/>
<path style="fill:none;stroke-width:0.3985;stroke-linecap:butt;stroke-linejoin:miter;stroke:rgb(0%,0%,100%);stroke-opacity:1;stroke-miterlimit:10;" d="M 226.777 49.889125 L 283.467625 13.60475 L 340.161375 -22.6765 " transform="matrix(1.25,0,0,-1.25,77.34125,132.20125)"/>
<path style=" stroke:none;fill-rule:nonzero;fill:rgb(0%,0%,100%);fill-opacity:1;" d="M 431.683594 114.984375 L 429.394531 111.167969 L 429.585938 113.648438 L 427.257812 114.527344 "/>
<path style=" stroke:none;fill-rule:nonzero;fill:rgb(0%,0%,100%);fill-opacity:1;" d="M 427.90625 112.578125 L 425.617188 108.753906 L 425.804688 111.242188 L 423.472656 112.117188 "/>
<path style="fill:none;stroke-width:0.3985;stroke-linecap:butt;stroke-linejoin:miter;stroke:rgb(0%,0%,100%);stroke-opacity:1;stroke-dasharray:2.98883,2.98883;stroke-miterlimit:10;" d="M 226.777 49.889125 L 170.080125 86.1735 " transform="matrix(1.25,0,0,-1.25,77.34125,132.20125)"/>
<path style="fill:none;stroke-width:0.3985;stroke-linecap:butt;stroke-linejoin:miter;stroke:rgb(0%,100%,0%);stroke-opacity:1;stroke-dasharray:2.98883,2.98883;stroke-miterlimit:10;" d="M 226.777 -0.0015 L 170.080125 35.432875 L 113.386375 70.86725 " transform="matrix(1.25,0,0,-1.25,77.34125,132.20125)"/>
<path style="fill:none;stroke-width:0.79701;stroke-linecap:butt;stroke-linejoin:miter;stroke:rgb(0%,0%,0%);stroke-opacity:1;stroke-miterlimit:10;" d="M -34.01675 -0.598375 L -34.01675 -6.379625 " transform="matrix(1.25,0,0,-1.25,77.34125,132.20125)"/>
<path style="fill:none;stroke-width:0.79701;stroke-linecap:square;stroke-linejoin:miter;stroke:rgb(0%,0%,0%);stroke-opacity:1;stroke-miterlimit:10;" d="M 0.199375 -3.189955 L 0.199375 3.18817 " transform="matrix(0,-1.25,-1.25,0,34.82115,132.948438)"/>
<path style="fill:none;stroke-width:0.6376;stroke-linecap:round;stroke-linejoin:round;stroke:rgb(0%,0%,0%);stroke-opacity:1;stroke-miterlimit:10;" d="M -1.55282 2.071205 C -1.424695 1.296205 0.000305 0.13058 0.387805 -0.00067 C 0.000305 -0.13192 -1.424695 -1.29442 -1.55282 -2.072545 " transform="matrix(0,1.25,1.25,0,34.82115,140.1754)"/>
<path style=" stroke:none;fill-rule:nonzero;fill:rgb(0%,0%,0%);fill-opacity:1;" d="M 39.078125 127.550781 L 39.078125 127.160156 L 38.863281 127.160156 C 38.121094 127.160156 37.945312 127.082031 37.808594 126.671875 L 35.113281 118.878906 C 35.054688 118.722656 35.015625 118.625 34.820312 118.625 C 34.625 118.625 34.585938 118.703125 34.527344 118.878906 L 31.949219 126.320312 C 31.714844 126.964844 31.226562 127.160156 30.542969 127.160156 L 30.542969 127.550781 L 31.8125 127.511719 L 33.257812 127.550781 L 33.257812 127.160156 C 32.632812 127.160156 32.320312 126.847656 32.320312 126.535156 C 32.320312 126.496094 32.339844 126.359375 32.339844 126.339844 L 32.925781 124.71875 L 35.992188 124.71875 L 36.65625 126.613281 C 36.675781 126.671875 36.695312 126.75 36.695312 126.789062 C 36.695312 127.160156 35.992188 127.160156 35.660156 127.160156 L 35.660156 127.550781 C 36.109375 127.511719 36.988281 127.511719 37.457031 127.511719 L 39.078125 127.550781 Z M 35.855469 124.328125 L 33.0625 124.328125 L 34.449219 120.265625 L 35.855469 124.328125 Z M 35.855469 124.328125 "/>
<path style=" stroke:none;fill-rule:nonzero;fill:rgb(0%,0%,0%);fill-opacity:1;" d="M 38.519531 152.003906 C 38.519531 150.929688 37.503906 149.992188 36.117188 149.835938 C 37.328125 149.601562 38.1875 148.800781 38.1875 147.882812 C 38.1875 146.808594 37.035156 145.773438 35.414062 145.773438 L 30.863281 145.773438 L 30.863281 146.164062 L 31.15625 146.164062 C 32.113281 146.164062 32.152344 146.300781 32.152344 146.75 L 32.152344 153.3125 C 32.152344 153.761719 32.113281 153.898438 31.15625 153.898438 L 30.863281 153.898438 L 30.863281 154.289062 L 35.746094 154.289062 C 37.40625 154.289062 38.519531 153.175781 38.519531 152.003906 Z M 36.976562 147.882812 C 36.976562 148.683594 36.371094 149.71875 34.984375 149.71875 L 33.1875 149.71875 L 33.1875 146.671875 C 33.1875 146.242188 33.207031 146.164062 33.792969 146.164062 L 35.335938 146.164062 C 36.546875 146.164062 36.976562 147.21875 36.976562 147.882812 Z M 37.289062 152.003906 C 37.289062 152.882812 36.625 153.898438 35.355469 153.898438 L 33.792969 153.898438 C 33.207031 153.898438 33.1875 153.820312 33.1875 153.410156 L 33.1875 150.011719 L 35.53125 150.011719 C 36.761719 150.011719 37.289062 151.164062 37.289062 152.003906 Z M 37.289062 152.003906 "/>
<path style="fill:none;stroke-width:0.79701;stroke-linecap:butt;stroke-linejoin:miter;stroke:rgb(0%,0%,0%);stroke-opacity:1;stroke-miterlimit:10;" d="M 170.080125 0.595375 L 170.080125 34.726625 " transform="matrix(1.25,0,0,-1.25,77.34125,132.20125)"/>
<path style="fill:none;stroke-width:0.79701;stroke-linecap:square;stroke-linejoin:miter;stroke:rgb(0%,0%,0%);stroke-opacity:1;stroke-miterlimit:10;" d="M 0.19925 -3.187785 L 0.19925 3.187215 " transform="matrix(0,1.25,1.25,0,289.941762,131.454063)"/>
<path style="fill:none;stroke-width:0.6376;stroke-linecap:round;stroke-linejoin:round;stroke:rgb(0%,0%,0%);stroke-opacity:1;stroke-miterlimit:10;" d="M -1.555765 2.07216 C -1.42764 1.294035 0.000485 0.12841 0.39111 0.000285 C 0.000485 -0.12784 -1.42764 -1.29659 -1.555765 -2.074715 " transform="matrix(0,-1.25,-1.25,0,289.941762,88.793575)"/>
<path style=" stroke:none;fill-rule:nonzero;fill:rgb(0%,0%,0%);fill-opacity:1;" d="M 291.402344 145.429688 L 291.402344 145.039062 L 291.1875 145.039062 C 290.445312 145.039062 290.269531 144.960938 290.132812 144.550781 L 287.4375 136.757812 C 287.378906 136.601562 287.339844 136.503906 287.144531 136.503906 C 286.949219 136.503906 286.910156 136.582031 286.851562 136.757812 L 284.273438 144.199219 C 284.039062 144.84375 283.550781 145.039062 282.867188 145.039062 L 282.867188 145.429688 L 284.136719 145.390625 L 285.582031 145.429688 L 285.582031 145.039062 C 284.957031 145.039062 284.644531 144.726562 284.644531 144.414062 C 284.644531 144.375 284.664062 144.238281 284.664062 144.21875 L 285.25 142.597656 L 288.316406 142.597656 L 288.980469 144.492188 C 289 144.550781 289.019531 144.628906 289.019531 144.667969 C 289.019531 145.039062 288.316406 145.039062 287.984375 145.039062 L 287.984375 145.429688 C 288.433594 145.390625 289.3125 145.390625 289.78125 145.390625 L 291.402344 145.429688 Z M 288.179688 142.207031 L 285.386719 142.207031 L 286.773438 138.144531 L 288.179688 142.207031 Z M 288.179688 142.207031 "/>
<path style=" stroke:none;fill-rule:nonzero;fill:rgb(0%,0%,0%);fill-opacity:1;" d="M 295.9375 147.296875 L 295.9375 146.984375 L 295.605469 146.984375 C 294.726562 146.984375 294.726562 146.867188 294.726562 146.574219 L 294.726562 141.75 C 294.726562 141.515625 294.726562 141.515625 294.472656 141.515625 C 293.90625 142.0625 293.125 142.0625 292.773438 142.0625 L 292.773438 142.375 C 292.96875 142.375 293.554688 142.375 294.023438 142.140625 L 294.023438 146.574219 C 294.023438 146.867188 294.023438 146.984375 293.164062 146.984375 L 292.832031 146.984375 L 292.832031 147.296875 L 294.375 147.257812 L 295.9375 147.296875 Z M 295.9375 147.296875 "/>
<path style=" stroke:none;fill-rule:nonzero;fill:rgb(0%,0%,0%);fill-opacity:1;" d="M 290.839844 79.109375 C 290.839844 78.035156 289.824219 77.097656 288.4375 76.941406 C 289.648438 76.707031 290.507812 75.90625 290.507812 74.988281 C 290.507812 73.914062 289.355469 72.878906 287.734375 72.878906 L 283.183594 72.878906 L 283.183594 73.269531 L 283.476562 73.269531 C 284.433594 73.269531 284.472656 73.40625 284.472656 73.855469 L 284.472656 80.417969 C 284.472656 80.867188 284.433594 81.003906 283.476562 81.003906 L 283.183594 81.003906 L 283.183594 81.394531 L 288.066406 81.394531 C 289.726562 81.394531 290.839844 80.28125 290.839844 79.109375 Z M 289.296875 74.988281 C 289.296875 75.789062 288.691406 76.824219 287.304688 76.824219 L 285.507812 76.824219 L 285.507812 73.777344 C 285.507812 73.347656 285.527344 73.269531 286.113281 73.269531 L 287.65625 73.269531 C 288.867188 73.269531 289.296875 74.324219 289.296875 74.988281 Z M 289.609375 79.109375 C 289.609375 79.988281 288.945312 81.003906 287.675781 81.003906 L 286.113281 81.003906 C 285.527344 81.003906 285.507812 80.925781 285.507812 80.515625 L 285.507812 77.117188 L 287.851562 77.117188 C 289.082031 77.117188 289.609375 78.269531 289.609375 79.109375 Z M 289.609375 79.109375 "/>
<path style=" stroke:none;fill-rule:nonzero;fill:rgb(0%,0%,0%);fill-opacity:1;" d="M 295.675781 83.261719 L 295.675781 82.949219 L 295.34375 82.949219 C 294.464844 82.949219 294.464844 82.832031 294.464844 82.539062 L 294.464844 77.714844 C 294.464844 77.480469 294.464844 77.480469 294.210938 77.480469 C 293.644531 78.027344 292.863281 78.027344 292.511719 78.027344 L 292.511719 78.339844 C 292.707031 78.339844 293.292969 78.339844 293.761719 78.105469 L 293.761719 82.539062 C 293.761719 82.832031 293.761719 82.949219 292.902344 82.949219 L 292.570312 82.949219 L 292.570312 83.261719 L 294.113281 83.222656 L 295.675781 83.261719 Z M 295.675781 83.261719 "/>
<path style=" stroke:none;fill-rule:nonzero;fill:rgb(0%,0%,0%);fill-opacity:1;" d="M 90.726562 121.714844 C 90.726562 119.175781 88.851562 117.144531 86.585938 117.144531 C 84.339844 117.144531 82.445312 119.136719 82.445312 121.714844 C 82.445312 124.273438 84.359375 126.207031 86.585938 126.207031 C 88.851562 126.207031 90.726562 124.234375 90.726562 121.714844 Z M 89.4375 121.539062 C 89.4375 124.839844 87.738281 125.875 86.585938 125.875 C 85.394531 125.875 83.714844 124.78125 83.714844 121.539062 C 83.714844 118.316406 85.550781 117.457031 86.585938 117.457031 C 87.660156 117.457031 89.4375 118.335938 89.4375 121.539062 Z M 89.4375 121.539062 "/>
<path style=" stroke:none;fill-rule:nonzero;fill:rgb(0%,0%,0%);fill-opacity:1;" d="M 95.546875 127.800781 L 95.546875 127.488281 L 95.214844 127.488281 C 94.335938 127.488281 94.335938 127.371094 94.335938 127.078125 L 94.335938 122.253906 C 94.335938 122.019531 94.335938 122.019531 94.082031 122.019531 C 93.515625 122.566406 92.734375 122.566406 92.382812 122.566406 L 92.382812 122.878906 C 92.578125 122.878906 93.164062 122.878906 93.632812 122.644531 L 93.632812 127.078125 C 93.632812 127.371094 93.632812 127.488281 92.773438 127.488281 L 92.441406 127.488281 L 92.441406 127.800781 L 93.984375 127.761719 L 95.546875 127.800781 Z M 95.546875 127.800781 "/>
<path style="fill:none;stroke-width:0.3985;stroke-linecap:butt;stroke-linejoin:miter;stroke:rgb(0%,0%,0%);stroke-opacity:1;stroke-miterlimit:10;" d="M 28.34575 1.99225 L 28.34575 -1.992125 " transform="matrix(1.25,0,0,-1.25,77.34125,132.20125)"/>
<path style=" stroke:none;fill-rule:nonzero;fill:rgb(0%,0%,0%);fill-opacity:1;" d="M 124.773438 142.789062 L 124.421875 139.976562 L 117.585938 139.976562 L 117.585938 140.367188 L 117.878906 140.367188 C 118.835938 140.367188 118.875 140.503906 118.875 140.953125 L 118.875 147.476562 C 118.875 147.925781 118.835938 148.0625 117.878906 148.0625 L 117.585938 148.0625 L 117.585938 148.453125 C 118.015625 148.414062 118.992188 148.414062 119.480469 148.414062 C 119.988281 148.414062 121.121094 148.414062 121.570312 148.453125 L 121.570312 148.0625 L 121.160156 148.0625 C 119.988281 148.0625 119.988281 147.90625 119.988281 147.476562 L 119.988281 144.410156 L 121.042969 144.410156 C 122.253906 144.410156 122.371094 144.800781 122.371094 145.855469 L 122.683594 145.855469 L 122.683594 142.554688 L 122.371094 142.554688 C 122.371094 143.609375 122.253906 144.019531 121.042969 144.019531 L 119.988281 144.019531 L 119.988281 140.855469 C 119.988281 140.445312 120.007812 140.367188 120.59375 140.367188 L 122.078125 140.367188 C 123.953125 140.367188 124.265625 141.070312 124.460938 142.789062 L 124.773438 142.789062 Z M 124.773438 142.789062 "/>
<path style=" stroke:none;fill-rule:nonzero;fill:rgb(0%,0%,0%);fill-opacity:1;" d="M 127.902344 139.539062 C 127.902344 139.265625 127.667969 139.070312 127.394531 139.070312 C 127.042969 139.070312 126.964844 139.34375 126.925781 139.460938 L 125.773438 143.230469 L 125.714844 143.386719 C 125.714844 143.484375 125.988281 143.582031 126.066406 143.582031 C 126.125 143.582031 126.164062 143.523438 126.183594 143.445312 L 127.84375 139.8125 C 127.882812 139.734375 127.902344 139.65625 127.902344 139.539062 Z M 127.902344 139.539062 "/>
<path style=" stroke:none;fill-rule:nonzero;fill:rgb(0%,0%,0%);fill-opacity:1;" d="M 132.917969 150.324219 L 132.917969 150.011719 L 132.585938 150.011719 C 131.707031 150.011719 131.707031 149.894531 131.707031 149.601562 L 131.707031 144.777344 C 131.707031 144.542969 131.707031 144.542969 131.453125 144.542969 C 130.886719 145.089844 130.105469 145.089844 129.753906 145.089844 L 129.753906 145.402344 C 129.949219 145.402344 130.535156 145.402344 131.003906 145.167969 L 131.003906 149.601562 C 131.003906 149.894531 131.003906 150.011719 130.144531 150.011719 L 129.8125 150.011719 L 129.8125 150.324219 L 131.355469 150.285156 L 132.917969 150.324219 Z M 132.917969 150.324219 "/>
<path style="fill:none;stroke-width:0.3985;stroke-linecap:butt;stroke-linejoin:miter;stroke:rgb(0%,0%,0%);stroke-opacity:1;stroke-miterlimit:10;" d="M -28.344875 1.99225 L -28.344875 -1.992125 " transform="matrix(1.25,0,0,-1.25,77.34125,132.20125)"/>
<path style=" stroke:none;fill-rule:nonzero;fill:rgb(0%,0%,0%);fill-opacity:1;" d="M 53.90625 122.761719 L 53.554688 119.949219 L 46.71875 119.949219 L 46.71875 120.339844 L 47.011719 120.339844 C 47.96875 120.339844 48.007812 120.476562 48.007812 120.925781 L 48.007812 127.449219 C 48.007812 127.898438 47.96875 128.035156 47.011719 128.035156 L 46.71875 128.035156 L 46.71875 128.425781 C 47.148438 128.386719 48.125 128.386719 48.613281 128.386719 C 49.121094 128.386719 50.253906 128.386719 50.703125 128.425781 L 50.703125 128.035156 L 50.292969 128.035156 C 49.121094 128.035156 49.121094 127.878906 49.121094 127.449219 L 49.121094 124.382812 L 50.175781 124.382812 C 51.386719 124.382812 51.503906 124.773438 51.503906 125.828125 L 51.816406 125.828125 L 51.816406 122.527344 L 51.503906 122.527344 C 51.503906 123.582031 51.386719 123.992188 50.175781 123.992188 L 49.121094 123.992188 L 49.121094 120.828125 C 49.121094 120.417969 49.140625 120.339844 49.726562 120.339844 L 51.210938 120.339844 C 53.085938 120.339844 53.398438 121.042969 53.59375 122.761719 L 53.90625 122.761719 Z M 53.90625 122.761719 "/>
<path style=" stroke:none;fill-rule:nonzero;fill:rgb(0%,0%,0%);fill-opacity:1;" d="M 58.558594 130.292969 L 58.558594 129.980469 L 58.226562 129.980469 C 57.347656 129.980469 57.347656 129.863281 57.347656 129.570312 L 57.347656 124.746094 C 57.347656 124.511719 57.347656 124.511719 57.09375 124.511719 C 56.527344 125.058594 55.746094 125.058594 55.394531 125.058594 L 55.394531 125.371094 C 55.589844 125.371094 56.175781 125.371094 56.644531 125.136719 L 56.644531 129.570312 C 56.644531 129.863281 56.644531 129.980469 55.785156 129.980469 L 55.453125 129.980469 L 55.453125 130.292969 L 56.996094 130.253906 L 58.558594 130.292969 Z M 58.558594 130.292969 "/>
<path style=" stroke:none;fill-rule:nonzero;fill:rgb(0%,0%,0%);fill-opacity:1;" d="M 374.191406 121.714844 C 374.191406 119.175781 372.316406 117.144531 370.050781 117.144531 C 367.804688 117.144531 365.910156 119.136719 365.910156 121.714844 C 365.910156 124.273438 367.824219 126.207031 370.050781 126.207031 C 372.316406 126.207031 374.191406 124.234375 374.191406 121.714844 Z M 372.902344 121.539062 C 372.902344 124.839844 371.203125 125.875 370.050781 125.875 C 368.859375 125.875 367.179688 124.78125 367.179688 121.539062 C 367.179688 118.316406 369.015625 117.457031 370.050781 117.457031 C 371.125 117.457031 372.902344 118.335938 372.902344 121.539062 Z M 372.902344 121.539062 "/>
<path style=" stroke:none;fill-rule:nonzero;fill:rgb(0%,0%,0%);fill-opacity:1;" d="M 379.285156 126.21875 L 378.992188 126.21875 C 378.972656 126.414062 378.875 126.921875 378.757812 127 C 378.699219 127.058594 378.035156 127.058594 377.898438 127.058594 L 376.296875 127.058594 C 377.214844 126.257812 377.527344 126.003906 378.035156 125.59375 C 378.679688 125.085938 379.285156 124.539062 379.285156 123.71875 C 379.285156 122.664062 378.367188 122.019531 377.253906 122.019531 C 376.179688 122.019531 375.4375 122.78125 375.4375 123.582031 C 375.4375 124.011719 375.808594 124.070312 375.90625 124.070312 C 376.101562 124.070312 376.355469 123.914062 376.355469 123.601562 C 376.355469 123.445312 376.296875 123.132812 375.847656 123.132812 C 376.121094 122.527344 376.707031 122.332031 377.117188 122.332031 C 377.996094 122.332031 378.445312 123.015625 378.445312 123.71875 C 378.445312 124.480469 377.898438 125.066406 377.625 125.378906 L 375.535156 127.46875 C 375.4375 127.546875 375.4375 127.566406 375.4375 127.800781 L 379.03125 127.800781 L 379.285156 126.21875 Z M 379.285156 126.21875 "/>
<path style="fill:none;stroke-width:0.3985;stroke-linecap:butt;stroke-linejoin:miter;stroke:rgb(0%,0%,0%);stroke-opacity:1;stroke-miterlimit:10;" d="M 283.467625 1.99225 L 283.467625 -1.992125 " transform="matrix(1.25,0,0,-1.25,77.34125,132.20125)"/>
<path style=" stroke:none;fill-rule:nonzero;fill:rgb(0%,0%,0%);fill-opacity:1;" d="M 430.664062 142.789062 L 430.3125 139.976562 L 423.476562 139.976562 L 423.476562 140.367188 L 423.769531 140.367188 C 424.726562 140.367188 424.765625 140.503906 424.765625 140.953125 L 424.765625 147.476562 C 424.765625 147.925781 424.726562 148.0625 423.769531 148.0625 L 423.476562 148.0625 L 423.476562 148.453125 C 423.90625 148.414062 424.882812 148.414062 425.371094 148.414062 C 425.878906 148.414062 427.011719 148.414062 427.460938 148.453125 L 427.460938 148.0625 L 427.050781 148.0625 C 425.878906 148.0625 425.878906 147.90625 425.878906 147.476562 L 425.878906 144.410156 L 426.933594 144.410156 C 428.144531 144.410156 428.261719 144.800781 428.261719 145.855469 L 428.574219 145.855469 L 428.574219 142.554688 L 428.261719 142.554688 C 428.261719 143.609375 428.144531 144.019531 426.933594 144.019531 L 425.878906 144.019531 L 425.878906 140.855469 C 425.878906 140.445312 425.898438 140.367188 426.484375 140.367188 L 427.96875 140.367188 C 429.84375 140.367188 430.15625 141.070312 430.351562 142.789062 L 430.664062 142.789062 Z M 430.664062 142.789062 "/>
<path style=" stroke:none;fill-rule:nonzero;fill:rgb(0%,0%,0%);fill-opacity:1;" d="M 433.796875 139.539062 C 433.796875 139.265625 433.5625 139.070312 433.289062 139.070312 C 432.9375 139.070312 432.859375 139.34375 432.820312 139.460938 L 431.667969 143.230469 L 431.609375 143.386719 C 431.609375 143.484375 431.882812 143.582031 431.960938 143.582031 C 432.019531 143.582031 432.058594 143.523438 432.078125 143.445312 L 433.738281 139.8125 C 433.777344 139.734375 433.796875 139.65625 433.796875 139.539062 Z M 433.796875 139.539062 "/>
<path style=" stroke:none;fill-rule:nonzero;fill:rgb(0%,0%,0%);fill-opacity:1;" d="M 439.085938 148.742188 L 438.792969 148.742188 C 438.773438 148.9375 438.675781 149.445312 438.558594 149.523438 C 438.5 149.582031 437.835938 149.582031 437.699219 149.582031 L 436.097656 149.582031 C 437.015625 148.78125 437.328125 148.527344 437.835938 148.117188 C 438.480469 147.609375 439.085938 147.0625 439.085938 146.242188 C 439.085938 145.1875 438.167969 144.542969 437.054688 144.542969 C 435.980469 144.542969 435.238281 145.304688 435.238281 146.105469 C 435.238281 146.535156 435.609375 146.59375 435.707031 146.59375 C 435.902344 146.59375 436.15625 146.4375 436.15625 146.125 C 436.15625 145.96875 436.097656 145.65625 435.648438 145.65625 C 435.921875 145.050781 436.507812 144.855469 436.917969 144.855469 C 437.796875 144.855469 438.246094 145.539062 438.246094 146.242188 C 438.246094 147.003906 437.699219 147.589844 437.425781 147.902344 L 435.335938 149.992188 C 435.238281 150.070312 435.238281 150.089844 435.238281 150.324219 L 438.832031 150.324219 L 439.085938 148.742188 Z M 439.085938 148.742188 "/>
<path style="fill:none;stroke-width:0.3985;stroke-linecap:butt;stroke-linejoin:miter;stroke:rgb(0%,0%,0%);stroke-opacity:1;stroke-miterlimit:10;" d="M 170.080125 1.99225 L 170.080125 -1.992125 " transform="matrix(1.25,0,0,-1.25,77.34125,132.20125)"/>
<path style=" stroke:none;fill-rule:nonzero;fill:rgb(0%,0%,0%);fill-opacity:1;" d="M 301.9375 122.761719 L 301.585938 119.949219 L 294.75 119.949219 L 294.75 120.339844 L 295.042969 120.339844 C 296 120.339844 296.039062 120.476562 296.039062 120.925781 L 296.039062 127.449219 C 296.039062 127.898438 296 128.035156 295.042969 128.035156 L 294.75 128.035156 L 294.75 128.425781 C 295.179688 128.386719 296.15625 128.386719 296.644531 128.386719 C 297.152344 128.386719 298.285156 128.386719 298.734375 128.425781 L 298.734375 128.035156 L 298.324219 128.035156 C 297.152344 128.035156 297.152344 127.878906 297.152344 127.449219 L 297.152344 124.382812 L 298.207031 124.382812 C 299.417969 124.382812 299.535156 124.773438 299.535156 125.828125 L 299.847656 125.828125 L 299.847656 122.527344 L 299.535156 122.527344 C 299.535156 123.582031 299.417969 123.992188 298.207031 123.992188 L 297.152344 123.992188 L 297.152344 120.828125 C 297.152344 120.417969 297.171875 120.339844 297.757812 120.339844 L 299.242188 120.339844 C 301.117188 120.339844 301.429688 121.042969 301.625 122.761719 L 301.9375 122.761719 Z M 301.9375 122.761719 "/>
<path style=" stroke:none;fill-rule:nonzero;fill:rgb(0%,0%,0%);fill-opacity:1;" d="M 306.863281 128.710938 L 306.570312 128.710938 C 306.550781 128.90625 306.453125 129.414062 306.335938 129.492188 C 306.277344 129.550781 305.613281 129.550781 305.476562 129.550781 L 303.875 129.550781 C 304.792969 128.75 305.105469 128.496094 305.613281 128.085938 C 306.257812 127.578125 306.863281 127.03125 306.863281 126.210938 C 306.863281 125.15625 305.945312 124.511719 304.832031 124.511719 C 303.757812 124.511719 303.015625 125.273438 303.015625 126.074219 C 303.015625 126.503906 303.386719 126.5625 303.484375 126.5625 C 303.679688 126.5625 303.933594 126.40625 303.933594 126.09375 C 303.933594 125.9375 303.875 125.625 303.425781 125.625 C 303.699219 125.019531 304.285156 124.824219 304.695312 124.824219 C 305.574219 124.824219 306.023438 125.507812 306.023438 126.210938 C 306.023438 126.972656 305.476562 127.558594 305.203125 127.871094 L 303.113281 129.960938 C 303.015625 130.039062 303.015625 130.058594 303.015625 130.292969 L 306.609375 130.292969 L 306.863281 128.710938 Z M 306.863281 128.710938 "/>
<path style="fill:none;stroke-width:0.3985;stroke-linecap:butt;stroke-linejoin:miter;stroke:rgb(0%,0%,0%);stroke-opacity:1;stroke-dasharray:0.3985,1.99255;stroke-miterlimit:10;" d="M 283.467625 -0.0015 L 283.467625 -1.42025 M 283.467625 -0.0015 L 283.467625 1.41725 " transform="matrix(1.25,0,0,-1.25,77.34125,132.20125)"/>
<path style="fill:none;stroke-width:0.79701;stroke-linecap:butt;stroke-linejoin:miter;stroke:rgb(0%,0%,0%);stroke-opacity:1;stroke-miterlimit:10;" d="M 167.24575 86.45475 L 157.0895 92.55475 " transform="matrix(1.25,0,0,-1.25,77.34125,132.20125)"/>
<path style=" stroke:none;fill-rule:nonzero;fill:rgb(0%,0%,0%);fill-opacity:1;" d="M 268.679688 13.5 C 270 14.667969 271.917969 16.957031 273.003906 18.9375 L 275.511719 14.757812 C 273.257812 14.726562 270.335938 14.109375 268.679688 13.5 "/>
<path style=" stroke:none;fill-rule:nonzero;fill:rgb(0%,0%,0%);fill-opacity:1;" d="M 281.441406 16.8125 L 281.441406 16.539062 L 281.226562 16.539062 C 280.71875 16.539062 280.71875 16.480469 280.71875 16.285156 L 280.71875 13.082031 C 280.71875 12.886719 280.71875 12.828125 281.226562 12.828125 L 281.441406 12.828125 L 281.441406 12.554688 L 280.386719 12.574219 L 279.332031 12.554688 L 279.332031 12.828125 L 279.527344 12.828125 C 280.054688 12.828125 280.054688 12.886719 280.054688 13.082031 L 280.054688 16.285156 C 280.054688 16.480469 280.054688 16.539062 279.527344 16.539062 L 279.332031 16.539062 L 279.332031 16.8125 L 280.386719 16.792969 L 281.441406 16.8125 Z M 281.441406 16.8125 "/>
<path style=" stroke:none;fill-rule:nonzero;fill:rgb(0%,0%,0%);fill-opacity:1;" d="M 288.347656 16.8125 L 288.347656 16.539062 L 288.230469 16.539062 C 287.820312 16.539062 287.820312 16.480469 287.820312 16.285156 L 287.820312 14.9375 C 287.820312 14.15625 287.234375 14.058594 286.785156 14.058594 C 286.160156 14.058594 285.808594 14.371094 285.632812 14.644531 C 285.476562 14.058594 284.851562 14.058594 284.617188 14.058594 C 283.972656 14.058594 283.601562 14.410156 283.445312 14.664062 L 283.445312 14.058594 L 282.429688 14.136719 L 282.429688 14.410156 C 282.898438 14.410156 282.957031 14.449219 282.957031 14.742188 L 282.957031 16.285156 C 282.957031 16.480469 282.957031 16.539062 282.546875 16.539062 L 282.429688 16.539062 L 282.429688 16.8125 C 282.703125 16.792969 282.957031 16.792969 283.230469 16.792969 C 283.484375 16.792969 283.757812 16.792969 284.03125 16.8125 L 284.03125 16.539062 L 283.914062 16.539062 C 283.503906 16.539062 283.503906 16.480469 283.503906 16.285156 L 283.503906 15.210938 C 283.503906 14.507812 284.148438 14.273438 284.539062 14.273438 C 285.007812 14.273438 285.105469 14.527344 285.105469 14.917969 L 285.105469 16.285156 C 285.105469 16.480469 285.105469 16.539062 284.714844 16.539062 L 284.597656 16.539062 L 284.597656 16.8125 C 284.871094 16.792969 285.125 16.792969 285.398438 16.792969 C 285.652344 16.792969 285.925781 16.792969 286.179688 16.8125 L 286.179688 16.539062 L 286.0625 16.539062 C 285.671875 16.539062 285.671875 16.480469 285.671875 16.285156 L 285.671875 15.210938 C 285.671875 14.507812 286.296875 14.273438 286.707031 14.273438 C 287.15625 14.273438 287.273438 14.527344 287.273438 14.917969 L 287.273438 16.285156 C 287.273438 16.480469 287.273438 16.539062 286.863281 16.539062 L 286.765625 16.539062 L 286.765625 16.8125 C 287.019531 16.792969 287.292969 16.792969 287.546875 16.792969 C 287.820312 16.792969 288.074219 16.792969 288.347656 16.8125 Z M 288.347656 16.8125 "/>
<path style=" stroke:none;fill-rule:nonzero;fill:rgb(0%,0%,0%);fill-opacity:1;" d="M 292.71875 16.246094 L 292.71875 15.914062 L 292.445312 15.914062 L 292.445312 16.246094 C 292.445312 16.304688 292.445312 16.578125 292.191406 16.578125 C 291.957031 16.578125 291.957031 16.304688 291.957031 16.246094 L 291.957031 14.957031 C 291.957031 14.371094 291.3125 14.019531 290.550781 14.019531 C 290.160156 14.019531 289.4375 14.039062 289.4375 14.566406 C 289.4375 14.800781 289.613281 14.898438 289.769531 14.898438 C 289.945312 14.898438 290.101562 14.78125 290.101562 14.566406 C 290.101562 14.429688 290.023438 14.332031 289.964844 14.292969 C 290.160156 14.234375 290.472656 14.234375 290.53125 14.234375 C 291.058594 14.234375 291.390625 14.527344 291.390625 14.976562 L 291.390625 15.132812 C 290.785156 15.152344 290.453125 15.171875 289.984375 15.347656 C 289.554688 15.484375 289.203125 15.757812 289.203125 16.167969 C 289.203125 16.734375 289.925781 16.890625 290.414062 16.890625 C 290.902344 16.890625 291.273438 16.695312 291.46875 16.363281 C 291.488281 16.597656 291.644531 16.851562 291.957031 16.851562 C 291.996094 16.851562 292.71875 16.851562 292.71875 16.246094 Z M 291.390625 15.933594 C 291.390625 16.617188 290.648438 16.675781 290.492188 16.675781 C 290.121094 16.675781 289.769531 16.480469 289.769531 16.167969 C 289.769531 15.953125 289.90625 15.386719 291.390625 15.308594 L 291.390625 15.933594 Z M 291.390625 15.933594 "/>
<path style=" stroke:none;fill-rule:nonzero;fill:rgb(0%,0%,0%);fill-opacity:1;" d="M 296.957031 14.351562 C 296.957031 14.175781 296.820312 13.980469 296.527344 13.980469 C 296.371094 13.980469 296.039062 14.019531 295.707031 14.273438 C 295.570312 14.195312 295.277344 14.058594 294.90625 14.058594 C 294.164062 14.058594 293.65625 14.488281 293.65625 14.976562 C 293.65625 15.289062 293.890625 15.523438 293.96875 15.601562 C 293.832031 15.777344 293.792969 15.972656 293.792969 16.109375 C 293.792969 16.441406 294.007812 16.636719 294.066406 16.675781 C 293.753906 16.753906 293.382812 16.96875 293.382812 17.300781 C 293.382812 17.789062 294.203125 18.101562 295.101562 18.101562 C 295.941406 18.101562 296.839844 17.828125 296.839844 17.28125 C 296.839844 17.007812 296.683594 16.695312 296.371094 16.558594 C 295.960938 16.34375 295.550781 16.34375 294.886719 16.34375 C 294.730469 16.34375 294.457031 16.34375 294.417969 16.34375 C 294.125 16.304688 294.066406 16.050781 294.066406 15.933594 C 294.066406 15.816406 294.125 15.71875 294.144531 15.71875 C 294.144531 15.71875 294.164062 15.71875 294.183594 15.71875 C 294.4375 15.855469 294.671875 15.894531 294.886719 15.894531 C 295.628906 15.894531 296.136719 15.445312 296.136719 14.976562 C 296.136719 14.683594 295.941406 14.449219 295.863281 14.390625 C 296.15625 14.214844 296.429688 14.195312 296.546875 14.195312 C 296.527344 14.214844 296.488281 14.253906 296.488281 14.351562 C 296.488281 14.46875 296.566406 14.566406 296.722656 14.566406 C 296.859375 14.566406 296.957031 14.46875 296.957031 14.351562 Z M 295.589844 14.976562 C 295.589844 15.308594 295.433594 15.679688 294.90625 15.679688 C 294.359375 15.679688 294.203125 15.328125 294.203125 14.976562 C 294.203125 14.625 294.359375 14.273438 294.886719 14.273438 C 295.433594 14.273438 295.589844 14.625 295.589844 14.976562 Z M 296.410156 17.300781 C 296.410156 17.59375 295.84375 17.886719 295.101562 17.886719 C 294.398438 17.886719 293.8125 17.613281 293.8125 17.28125 C 293.8125 17.085938 294.027344 16.832031 294.496094 16.832031 L 294.90625 16.832031 C 295.53125 16.832031 296.410156 16.832031 296.410156 17.300781 Z M 296.410156 17.300781 "/>
<path style=" stroke:none;fill-rule:nonzero;fill:rgb(0%,0%,0%);fill-opacity:1;" d="M 300.628906 16.070312 C 300.628906 15.972656 300.53125 15.972656 300.511719 15.972656 C 300.414062 15.972656 300.394531 15.992188 300.355469 16.070312 C 300.199219 16.5 299.730469 16.65625 299.378906 16.65625 C 298.871094 16.65625 298.597656 16.382812 298.5 16.265625 C 298.265625 15.972656 298.265625 15.582031 298.265625 15.40625 L 300.453125 15.40625 C 300.589844 15.40625 300.628906 15.40625 300.628906 15.269531 C 300.628906 14.839844 300.414062 14.019531 299.242188 14.019531 C 298.304688 14.019531 297.640625 14.703125 297.640625 15.445312 C 297.640625 16.226562 298.402344 16.890625 299.339844 16.890625 C 300.335938 16.890625 300.628906 16.1875 300.628906 16.070312 Z M 300.160156 15.210938 L 298.265625 15.210938 C 298.34375 14.390625 298.949219 14.234375 299.242188 14.234375 C 300.101562 14.234375 300.160156 15.035156 300.160156 15.210938 Z M 300.160156 15.210938 "/>
<path style="fill:none;stroke-width:0.3985;stroke-linecap:butt;stroke-linejoin:miter;stroke:rgb(0%,0%,0%);stroke-opacity:1;stroke-miterlimit:10;" d="M 212.598875 -0.0015 C 211.58325 2.870375 212.042625 5.336 214.017625 7.65475 " transform="matrix(1.25,0,0,-1.25,77.34125,132.20125)"/>
<path style=" stroke:none;fill-rule:nonzero;fill:rgb(0%,0%,0%);fill-opacity:1;" d="M 337.59375 129.054688 C 337.59375 128.957031 337.515625 128.917969 337.4375 128.917969 C 337.359375 128.917969 337.320312 128.957031 337.28125 129.054688 C 337.046875 129.660156 336.578125 129.660156 336.578125 129.660156 C 336.1875 129.660156 336.1875 128.683594 336.1875 128.390625 C 336.1875 128.136719 336.1875 128.097656 336.324219 127.960938 C 337.496094 126.476562 337.75 125.03125 337.75 125.03125 C 337.75 125.03125 337.730469 124.894531 337.59375 124.894531 C 337.476562 124.894531 337.476562 124.933594 337.417969 125.167969 C 337.183594 125.949219 336.773438 126.886719 336.1875 127.628906 L 336.1875 126.847656 C 336.1875 124.894531 335.035156 124.289062 334.117188 124.289062 C 332.398438 124.289062 330.757812 126.066406 330.757812 127.824219 C 330.757812 128.996094 331.5 129.933594 332.789062 129.933594 C 333.570312 129.933594 334.46875 129.640625 335.40625 128.878906 C 335.5625 129.542969 335.972656 129.933594 336.539062 129.933594 C 337.203125 129.933594 337.59375 129.25 337.59375 129.054688 Z M 335.367188 128.566406 C 334.253906 129.523438 333.296875 129.660156 332.808594 129.660156 C 332.066406 129.660156 331.675781 129.09375 331.675781 128.292969 C 331.675781 127.6875 332.007812 126.339844 332.398438 125.714844 C 332.984375 124.796875 333.667969 124.5625 334.097656 124.5625 C 335.328125 124.5625 335.328125 126.203125 335.328125 127.160156 C 335.328125 127.628906 335.328125 128.351562 335.367188 128.566406 Z M 335.367188 128.566406 "/>
<path style=" stroke:none;fill-rule:nonzero;fill:rgb(0%,0%,0%);fill-opacity:1;" d="M 340.859375 120.882812 C 340.859375 120.609375 340.625 120.414062 340.351562 120.414062 C 340 120.414062 339.921875 120.6875 339.882812 120.804688 L 338.730469 124.574219 L 338.671875 124.730469 C 338.671875 124.828125 338.945312 124.925781 339.023438 124.925781 C 339.082031 124.925781 339.121094 124.867188 339.140625 124.789062 L 340.800781 121.15625 C 340.839844 121.078125 340.859375 121 340.859375 120.882812 Z M 340.859375 120.882812 "/>
<path style="fill:none;stroke-width:0.3985;stroke-linecap:butt;stroke-linejoin:miter;stroke:rgb(0%,0%,0%);stroke-opacity:1;stroke-miterlimit:10;" d="M 287.155125 -0.0015 C 286.136375 2.870375 286.592625 5.336 288.573875 7.65475 " transform="matrix(1.25,0,0,-1.25,77.34125,132.20125)"/>
<path style=" stroke:none;fill-rule:nonzero;fill:rgb(0%,0%,0%);fill-opacity:1;" d="M 430.78125 129.054688 C 430.78125 128.957031 430.703125 128.917969 430.625 128.917969 C 430.546875 128.917969 430.507812 128.957031 430.46875 129.054688 C 430.234375 129.660156 429.765625 129.660156 429.765625 129.660156 C 429.375 129.660156 429.375 128.683594 429.375 128.390625 C 429.375 128.136719 429.375 128.097656 429.511719 127.960938 C 430.683594 126.476562 430.9375 125.03125 430.9375 125.03125 C 430.9375 125.03125 430.917969 124.894531 430.78125 124.894531 C 430.664062 124.894531 430.664062 124.933594 430.605469 125.167969 C 430.371094 125.949219 429.960938 126.886719 429.375 127.628906 L 429.375 126.847656 C 429.375 124.894531 428.222656 124.289062 427.304688 124.289062 C 425.585938 124.289062 423.945312 126.066406 423.945312 127.824219 C 423.945312 128.996094 424.6875 129.933594 425.976562 129.933594 C 426.757812 129.933594 427.65625 129.640625 428.59375 128.878906 C 428.75 129.542969 429.160156 129.933594 429.726562 129.933594 C 430.390625 129.933594 430.78125 129.25 430.78125 129.054688 Z M 428.554688 128.566406 C 427.441406 129.523438 426.484375 129.660156 425.996094 129.660156 C 425.253906 129.660156 424.863281 129.09375 424.863281 128.292969 C 424.863281 127.6875 425.195312 126.339844 425.585938 125.714844 C 426.171875 124.796875 426.855469 124.5625 427.285156 124.5625 C 428.515625 124.5625 428.515625 126.203125 428.515625 127.160156 C 428.515625 127.628906 428.515625 128.351562 428.554688 128.566406 Z M 428.554688 128.566406 "/>
<path style=" stroke:none;fill-rule:nonzero;fill:rgb(0%,0%,0%);fill-opacity:1;" d="M 434.050781 120.882812 C 434.050781 120.609375 433.816406 120.414062 433.542969 120.414062 C 433.191406 120.414062 433.113281 120.6875 433.074219 120.804688 L 431.921875 124.574219 L 431.863281 124.730469 C 431.863281 124.828125 432.136719 124.925781 432.214844 124.925781 C 432.273438 124.925781 432.3125 124.867188 432.332031 124.789062 L 433.992188 121.15625 C 434.03125 121.078125 434.050781 121 434.050781 120.882812 Z M 434.050781 120.882812 "/>
<path style="fill:none;stroke-width:0.79701;stroke-linecap:butt;stroke-linejoin:miter;stroke:rgb(0%,0%,0%);stroke-opacity:1;stroke-miterlimit:10;" d="M 345.02075 -18.7265 L 358.848875 -35.2015 C 360.27075 -36.89525 359.74575 -37.65775 357.673875 -36.904625 L 337.448875 -29.54525 " transform="matrix(1.25,0,0,-1.25,77.34125,132.20125)"/>
<path style="fill:none;stroke-width:0.3985;stroke-linecap:butt;stroke-linejoin:miter;stroke:rgb(0%,0%,0%);stroke-opacity:1;stroke-miterlimit:10;" d="M 348.302 -22.63275 C 345.561375 -24.939 343.467625 -27.923375 342.24575 -31.289 " transform="matrix(1.25,0,0,-1.25,77.34125,132.20125)"/>
<path style="fill-rule:nonzero;fill:rgb(0%,0%,0%);fill-opacity:1;stroke-width:0.3985;stroke-linecap:butt;stroke-linejoin:miter;stroke:rgb(0%,0%,0%);stroke-opacity:1;stroke-miterlimit:10;" d="M 344.705125 -26.564 C 343.89575 -27.717125 343.70825 -28.98275 344.28325 -29.38275 C 344.861375 -29.785875 345.986375 -29.179625 346.79575 -28.023375 C 347.598875 -26.873375 347.786375 -25.60775 347.2145 -25.204625 C 346.636375 -24.8015 345.511375 -25.40775 344.705125 -26.564 Z M 344.705125 -26.564 " transform="matrix(1.25,0,0,-1.25,77.34125,132.20125)"/>
</g>
</svg>
