<?xml version="1.0" encoding="UTF-8"?>
<!-- Converted by misc2svg (http://www.network-science.de/tools/misc2svg/) -->
<svg xmlns="http://www.w3.org/2000/svg" xmlns:xlink="http://www.w3.org/1999/xlink" width="268pt" height="270pt" viewBox="0 0 268 270" version="1.1">
<g id="misc2svg">
<path style="fill:none;stroke-width:0.3985;stroke-linecap:butt;stroke-linejoin:miter;stroke:rgb(0%,0%,0%);stroke-opacity:1;stroke-miterlimit:10;" d="M -184.253875 -0.001125 L 13.714875 -0.001125 " transform="matrix(1.25,0,0,-1.25,236.79,94.22125)"/>
<path style="fill:none;stroke-width:0.31879;stroke-linecap:round;stroke-linejoin:round;stroke:rgb(0%,0%,0%);stroke-opacity:1;stroke-miterlimit:10;" d="M -1.194005 1.59575 C -1.09713 0.998875 0.00287 0.098875 0.29662 -0.001125 C 0.00287 -0.101125 -1.09713 -0.998 -1.194005 -1.594875 " transform="matrix(1.25,0,0,-1.25,253.933913,94.22125)"/>
<path style="fill:none;stroke-width:0.79701;stroke-linecap:butt;stroke-linejoin:miter;stroke:rgb(0%,0%,0%);stroke-opacity:1;stroke-miterlimit:10;" d="M -170.082 -0.001125 L -170.082 52.030125 " transform="matrix(1.25,0,0,-1.25,236.79,94.22125)"/>
<path style=" stroke:none;fill-rule:nonzero;fill:rgb(0%,0%,0%);fill-opacity:1;" d="M 24.1875 23.355469 C 23.867188 25.082031 22.894531 27.886719 21.761719 29.828125 L 26.617188 29.828125 C 25.484375 27.886719 24.511719 25.082031 24.1875 23.355469 "/>
<path style=" stroke:none;fill-rule:nonzero;fill:rgb(0%,0%,0%);fill-opacity:1;" d="M 26.605469 93.863281 C 26.605469 92.535156 25.492188 91.460938 24.203125 91.460938 C 22.835938 91.460938 21.78125 92.574219 21.78125 93.863281 C 21.78125 95.210938 22.875 96.285156 24.183594 96.285156 C 25.53125 96.285156 26.605469 95.171875 26.605469 93.863281 Z M 26.605469 93.863281 "/>
<path style="fill:none;stroke-width:0.79701;stroke-linecap:butt;stroke-linejoin:miter;stroke:rgb(0%,0%,0%);stroke-opacity:1;stroke-miterlimit:10;" d="M -85.041375 -0.001125 L -85.041375 -23.6855 " transform="matrix(1.25,0,0,-1.25,236.79,94.22125)"/>
<path style=" stroke:none;fill-rule:nonzero;fill:rgb(0%,0%,0%);fill-opacity:1;" d="M 130.488281 129.652344 C 130.816406 127.929688 131.78125 125.121094 132.921875 123.179688 L 128.0625 123.179688 C 129.195312 125.121094 130.164062 127.929688 130.488281 129.652344 "/>
<path style=" stroke:none;fill-rule:nonzero;fill:rgb(0%,0%,0%);fill-opacity:1;" d="M 132.90625 93.863281 C 132.90625 92.535156 131.792969 91.460938 130.503906 91.460938 C 129.136719 91.460938 128.082031 92.574219 128.082031 93.863281 C 128.082031 95.210938 129.175781 96.285156 130.484375 96.285156 C 131.832031 96.285156 132.90625 95.171875 132.90625 93.863281 Z M 132.90625 93.863281 "/>
<path style="fill:none;stroke-width:0.79701;stroke-linecap:butt;stroke-linejoin:miter;stroke:rgb(100%,0%,0%);stroke-opacity:1;stroke-miterlimit:10;" d="M -170.082 56.692625 L 0.002375 56.692625 " transform="matrix(1.25,0,0,-1.25,236.79,94.22125)"/>
<path style=" stroke:none;fill-rule:nonzero;fill:rgb(100%,0%,0%);fill-opacity:1;" d="M 130.488281 23.355469 L 125.308594 20.761719 L 127.25 23.355469 L 125.308594 25.941406 "/>
<path style="fill:none;stroke-width:0.79701;stroke-linecap:butt;stroke-linejoin:miter;stroke:rgb(100%,0%,0%);stroke-opacity:1;stroke-miterlimit:10;" d="M 0.002375 56.692625 L -85.041375 -28.344875 L -110.553875 -53.857375 " transform="matrix(1.25,0,0,-1.25,236.79,94.22125)"/>
<path style=" stroke:none;fill-rule:nonzero;fill:rgb(100%,0%,0%);fill-opacity:1;" d="M 167.664062 92.269531 L 173.164062 90.449219 L 169.960938 89.984375 L 169.507812 86.777344 "/>
<path style="fill:none;stroke-width:0.79701;stroke-linecap:butt;stroke-linejoin:miter;stroke:rgb(0%,0%,100%);stroke-opacity:1;stroke-miterlimit:10;" d="M -170.082 56.692625 L 0.002375 -28.344875 " transform="matrix(1.25,0,0,-1.25,236.79,94.22125)"/>
<path style=" stroke:none;fill-rule:nonzero;fill:rgb(0%,0%,100%);fill-opacity:1;" d="M 130.566406 76.328125 L 127.085938 71.703125 L 127.664062 74.886719 L 124.773438 76.335938 "/>
<path style=" stroke:none;fill-rule:nonzero;fill:rgb(0%,0%,100%);fill-opacity:1;" d="M 125.039062 73.574219 L 121.554688 68.949219 L 122.140625 72.132812 L 119.25 73.585938 "/>
<path style="fill:none;stroke-width:0.79701;stroke-linecap:butt;stroke-linejoin:miter;stroke:rgb(0%,0%,100%);stroke-opacity:1;stroke-miterlimit:10;" d="M 0.002375 -28.344875 L -85.041375 -28.344875 L -110.553875 -28.344875 " transform="matrix(1.25,0,0,-1.25,236.79,94.22125)"/>
<path style=" stroke:none;fill-rule:nonzero;fill:rgb(0%,0%,100%);fill-opacity:1;" d="M 167.695312 129.652344 L 172.875 132.246094 L 170.933594 129.652344 L 172.875 127.066406 "/>
<path style=" stroke:none;fill-rule:nonzero;fill:rgb(0%,0%,100%);fill-opacity:1;" d="M 173.871094 129.652344 L 179.054688 132.246094 L 177.109375 129.652344 L 179.054688 127.066406 "/>
<path style="fill:none;stroke-width:0.79701;stroke-linecap:butt;stroke-linejoin:miter;stroke:rgb(100%,50.196078%,0%);stroke-opacity:1;stroke-miterlimit:10;" d="M -170.082 56.692625 L 0.002375 -0.001125 " transform="matrix(1.25,0,0,-1.25,236.79,94.22125)"/>
<path style=" stroke:none;fill-rule:nonzero;fill:rgb(100%,50.196078%,0%);fill-opacity:1;" d="M 130.523438 58.65625 L 124.375 52.519531 L 125.914062 57.125 L 121.921875 59.890625 "/>
<path style="fill:none;stroke-width:0.79701;stroke-linecap:butt;stroke-linejoin:miter;stroke:rgb(100%,50.196078%,0%);stroke-opacity:1;stroke-miterlimit:10;" d="M 0.002375 -0.001125 L -85.041375 -28.344875 L -110.553875 -36.851125 " transform="matrix(1.25,0,0,-1.25,236.79,94.22125)"/>
<path style=" stroke:none;fill-rule:nonzero;fill:rgb(100%,50.196078%,0%);fill-opacity:1;" d="M 167.6875 117.164062 L 176.285156 118.402344 L 172.296875 115.632812 L 173.835938 111.023438 "/>
<path style="fill:none;stroke-width:1.59404;stroke-linecap:butt;stroke-linejoin:miter;stroke:rgb(0%,0%,0%);stroke-opacity:1;stroke-miterlimit:10;" d="M 0.002375 -0.001125 L 0.002375 56.692625 L -4.253875 64.055125 " transform="matrix(1.25,0,0,-1.25,236.79,94.22125)"/>
<path style="fill:none;stroke-width:1.59404;stroke-linecap:butt;stroke-linejoin:miter;stroke:rgb(0%,0%,0%);stroke-opacity:1;stroke-miterlimit:10;" d="M 0.002375 -0.001125 L 0.002375 -127.5605 L -4.253875 -134.923 " transform="matrix(1.25,0,0,-1.25,236.79,94.22125)"/>
<path style="fill:none;stroke-width:0.79701;stroke-linecap:butt;stroke-linejoin:miter;stroke:rgb(0%,100%,0%);stroke-opacity:1;stroke-miterlimit:10;" d="M -170.082 56.692625 L -85.041375 -28.344875 " transform="matrix(1.25,0,0,-1.25,236.79,94.22125)"/>
<path style=" stroke:none;fill-rule:nonzero;fill:rgb(0%,100%,0%);fill-opacity:1;" d="M 77.351562 76.363281 L 74.59375 68.125 L 73.914062 72.929688 L 69.105469 73.628906 "/>
<path style=" stroke:none;fill-rule:nonzero;fill:rgb(0%,100%,0%);fill-opacity:1;" d="M 70.796875 69.820312 L 68.03125 61.582031 L 67.351562 66.390625 L 62.546875 67.085938 "/>
<path style="fill:none;stroke-width:0.79701;stroke-linecap:butt;stroke-linejoin:miter;stroke:rgb(0%,100%,0%);stroke-opacity:1;stroke-miterlimit:10;" d="M -85.041375 -28.344875 L 0.002375 -113.388625 " transform="matrix(1.25,0,0,-1.25,236.79,94.22125)"/>
<path style=" stroke:none;fill-rule:nonzero;fill:rgb(0%,100%,0%);fill-opacity:1;" d="M 171.59375 170.632812 L 179.839844 173.367188 L 175.03125 174.0625 L 174.351562 178.871094 "/>
<path style=" stroke:none;fill-rule:nonzero;fill:rgb(0%,100%,0%);fill-opacity:1;" d="M 178.15625 177.171875 L 186.398438 179.914062 L 181.59375 180.605469 L 180.914062 185.414062 "/>
<path style="fill:none;stroke-width:0.3985;stroke-linecap:butt;stroke-linejoin:miter;stroke:rgb(0%,0%,0%);stroke-opacity:1;stroke-miterlimit:10;" d="M -170.082 1.992625 L -170.082 -1.994875 " transform="matrix(1.25,0,0,-1.25,236.79,94.22125)"/>
<path style=" stroke:none;fill-rule:nonzero;fill:rgb(0%,0%,0%);fill-opacity:1;" d="M 28.449219 109.691406 L 28.449219 109.300781 L 28.234375 109.300781 C 27.492188 109.300781 27.316406 109.222656 27.179688 108.8125 L 24.484375 101.019531 C 24.425781 100.863281 24.386719 100.765625 24.191406 100.765625 C 23.996094 100.765625 23.957031 100.84375 23.898438 101.019531 L 21.320312 108.460938 C 21.085938 109.105469 20.597656 109.300781 19.914062 109.300781 L 19.914062 109.691406 L 21.183594 109.652344 L 22.628906 109.691406 L 22.628906 109.300781 C 22.003906 109.300781 21.691406 108.988281 21.691406 108.675781 C 21.691406 108.636719 21.710938 108.5 21.710938 108.480469 L 22.296875 106.859375 L 25.363281 106.859375 L 26.027344 108.753906 C 26.046875 108.8125 26.066406 108.890625 26.066406 108.929688 C 26.066406 109.300781 25.363281 109.300781 25.03125 109.300781 L 25.03125 109.691406 C 25.480469 109.652344 26.359375 109.652344 26.828125 109.652344 L 28.449219 109.691406 Z M 25.226562 106.46875 L 22.433594 106.46875 L 23.820312 102.40625 L 25.226562 106.46875 Z M 25.226562 106.46875 "/>
<path style="fill:none;stroke-width:0.3985;stroke-linecap:butt;stroke-linejoin:miter;stroke:rgb(0%,0%,0%);stroke-opacity:1;stroke-miterlimit:10;" d="M -113.38825 1.992625 L -113.38825 -1.994875 " transform="matrix(1.25,0,0,-1.25,236.79,94.22125)"/>
<path style=" stroke:none;fill-rule:nonzero;fill:rgb(0%,0%,0%);fill-opacity:1;" d="M 98.84375 106.78125 C 98.84375 106.664062 98.84375 106.566406 98.6875 106.566406 C 98.550781 106.566406 98.550781 106.644531 98.53125 106.78125 C 98.433594 108.558594 97.105469 109.574219 95.738281 109.574219 C 94.976562 109.574219 92.535156 109.164062 92.535156 105.433594 C 92.535156 101.722656 94.976562 101.292969 95.738281 101.292969 C 97.085938 101.292969 98.199219 102.425781 98.453125 104.242188 C 98.472656 104.417969 98.472656 104.457031 98.648438 104.457031 C 98.84375 104.457031 98.84375 104.417969 98.84375 104.164062 L 98.84375 101.214844 C 98.84375 101 98.84375 100.902344 98.707031 100.902344 C 98.667969 100.902344 98.609375 100.902344 98.511719 101.058594 L 97.886719 101.976562 C 97.4375 101.527344 96.792969 100.902344 95.601562 100.902344 C 93.257812 100.902344 91.265625 102.894531 91.265625 105.433594 C 91.265625 108.011719 93.277344 109.964844 95.601562 109.964844 C 97.632812 109.964844 98.84375 108.226562 98.84375 106.78125 Z M 98.84375 106.78125 "/>
<path style="fill:none;stroke-width:0.3985;stroke-linecap:butt;stroke-linejoin:miter;stroke:rgb(0%,0%,0%);stroke-opacity:1;stroke-miterlimit:10;" d="M -56.6945 1.992625 L -56.6945 -1.994875 " transform="matrix(1.25,0,0,-1.25,236.79,94.22125)"/>
<path style=" stroke:none;fill-rule:nonzero;fill:rgb(0%,0%,0%);fill-opacity:1;" d="M 169.457031 104.027344 L 169.105469 101.214844 L 162.269531 101.214844 L 162.269531 101.605469 L 162.5625 101.605469 C 163.519531 101.605469 163.558594 101.742188 163.558594 102.191406 L 163.558594 108.714844 C 163.558594 109.164062 163.519531 109.300781 162.5625 109.300781 L 162.269531 109.300781 L 162.269531 109.691406 C 162.699219 109.652344 163.675781 109.652344 164.164062 109.652344 C 164.671875 109.652344 165.804688 109.652344 166.253906 109.691406 L 166.253906 109.300781 L 165.84375 109.300781 C 164.671875 109.300781 164.671875 109.144531 164.671875 108.714844 L 164.671875 105.648438 L 165.726562 105.648438 C 166.9375 105.648438 167.054688 106.039062 167.054688 107.09375 L 167.367188 107.09375 L 167.367188 103.792969 L 167.054688 103.792969 C 167.054688 104.847656 166.9375 105.257812 165.726562 105.257812 L 164.671875 105.257812 L 164.671875 102.09375 C 164.671875 101.683594 164.691406 101.605469 165.277344 101.605469 L 166.761719 101.605469 C 168.636719 101.605469 168.949219 102.308594 169.144531 104.027344 L 169.457031 104.027344 Z M 169.457031 104.027344 "/>
<path style=" stroke:none;fill-rule:nonzero;fill:rgb(0%,0%,0%);fill-opacity:1;" d="M 133.015625 89.824219 L 133.015625 89.433594 L 132.800781 89.433594 C 132.058594 89.433594 131.882812 89.355469 131.746094 88.945312 L 129.050781 81.152344 C 128.992188 80.996094 128.953125 80.898438 128.757812 80.898438 C 128.5625 80.898438 128.523438 80.976562 128.464844 81.152344 L 125.886719 88.59375 C 125.652344 89.238281 125.164062 89.433594 124.480469 89.433594 L 124.480469 89.824219 L 125.75 89.785156 L 127.195312 89.824219 L 127.195312 89.433594 C 126.570312 89.433594 126.257812 89.121094 126.257812 88.808594 C 126.257812 88.769531 126.277344 88.632812 126.277344 88.613281 L 126.863281 86.992188 L 129.929688 86.992188 L 130.59375 88.886719 C 130.613281 88.945312 130.632812 89.023438 130.632812 89.0625 C 130.632812 89.433594 129.929688 89.433594 129.597656 89.433594 L 129.597656 89.824219 C 130.046875 89.785156 130.925781 89.785156 131.394531 89.785156 L 133.015625 89.824219 Z M 129.792969 86.601562 L 127 86.601562 L 128.386719 82.539062 L 129.792969 86.601562 Z M 129.792969 86.601562 "/>
<path style=" stroke:none;fill-rule:nonzero;fill:rgb(0%,0%,0%);fill-opacity:1;" d="M 135.988281 82.480469 C 135.988281 81.738281 135.695312 81.171875 135.167969 81.171875 C 134.71875 81.171875 134.503906 81.503906 134.503906 81.835938 C 134.503906 82.167969 134.71875 82.5 135.167969 82.5 C 135.402344 82.5 135.578125 82.363281 135.65625 82.304688 C 135.675781 82.265625 135.695312 82.265625 135.695312 82.265625 C 135.695312 82.265625 135.714844 82.441406 135.714844 82.480469 C 135.714844 82.890625 135.636719 83.789062 134.855469 84.550781 C 134.699219 84.707031 134.699219 84.726562 134.699219 84.765625 C 134.699219 84.84375 134.757812 84.902344 134.816406 84.902344 C 134.953125 84.902344 135.988281 83.964844 135.988281 82.480469 Z M 135.988281 82.480469 "/>
<path style=" stroke:none;fill-rule:nonzero;fill:rgb(0%,0%,0%);fill-opacity:1;" d="M 27.886719 16.671875 C 27.886719 15.597656 26.871094 14.660156 25.484375 14.503906 C 26.695312 14.269531 27.554688 13.46875 27.554688 12.550781 C 27.554688 11.476562 26.402344 10.441406 24.78125 10.441406 L 20.230469 10.441406 L 20.230469 10.832031 L 20.523438 10.832031 C 21.480469 10.832031 21.519531 10.96875 21.519531 11.417969 L 21.519531 17.980469 C 21.519531 18.429688 21.480469 18.566406 20.523438 18.566406 L 20.230469 18.566406 L 20.230469 18.957031 L 25.113281 18.957031 C 26.773438 18.957031 27.886719 17.84375 27.886719 16.671875 Z M 26.34375 12.550781 C 26.34375 13.351562 25.738281 14.386719 24.351562 14.386719 L 22.554688 14.386719 L 22.554688 11.339844 C 22.554688 10.910156 22.574219 10.832031 23.160156 10.832031 L 24.703125 10.832031 C 25.914062 10.832031 26.34375 11.886719 26.34375 12.550781 Z M 26.65625 16.671875 C 26.65625 17.550781 25.992188 18.566406 24.722656 18.566406 L 23.160156 18.566406 C 22.574219 18.566406 22.554688 18.488281 22.554688 18.078125 L 22.554688 14.679688 L 24.898438 14.679688 C 26.128906 14.679688 26.65625 15.832031 26.65625 16.671875 Z M 26.65625 16.671875 "/>
<path style=" stroke:none;fill-rule:nonzero;fill:rgb(0%,0%,0%);fill-opacity:1;" d="M 132.457031 140.347656 C 132.457031 139.273438 131.441406 138.335938 130.054688 138.179688 C 131.265625 137.945312 132.125 137.144531 132.125 136.226562 C 132.125 135.152344 130.972656 134.117188 129.351562 134.117188 L 124.800781 134.117188 L 124.800781 134.507812 L 125.09375 134.507812 C 126.050781 134.507812 126.089844 134.644531 126.089844 135.09375 L 126.089844 141.65625 C 126.089844 142.105469 126.050781 142.242188 125.09375 142.242188 L 124.800781 142.242188 L 124.800781 142.632812 L 129.683594 142.632812 C 131.34375 142.632812 132.457031 141.519531 132.457031 140.347656 Z M 130.914062 136.226562 C 130.914062 137.027344 130.308594 138.0625 128.921875 138.0625 L 127.125 138.0625 L 127.125 135.015625 C 127.125 134.585938 127.144531 134.507812 127.730469 134.507812 L 129.273438 134.507812 C 130.484375 134.507812 130.914062 135.5625 130.914062 136.226562 Z M 131.226562 140.347656 C 131.226562 141.226562 130.5625 142.242188 129.292969 142.242188 L 127.730469 142.242188 C 127.144531 142.242188 127.125 142.164062 127.125 141.753906 L 127.125 138.355469 L 129.46875 138.355469 C 130.699219 138.355469 131.226562 139.507812 131.226562 140.347656 Z M 131.226562 140.347656 "/>
<path style=" stroke:none;fill-rule:nonzero;fill:rgb(0%,0%,0%);fill-opacity:1;" d="M 135.730469 135.289062 C 135.730469 134.546875 135.4375 133.980469 134.910156 133.980469 C 134.460938 133.980469 134.246094 134.3125 134.246094 134.644531 C 134.246094 134.976562 134.460938 135.308594 134.910156 135.308594 C 135.144531 135.308594 135.320312 135.171875 135.398438 135.113281 C 135.417969 135.074219 135.4375 135.074219 135.4375 135.074219 C 135.4375 135.074219 135.457031 135.25 135.457031 135.289062 C 135.457031 135.699219 135.378906 136.597656 134.597656 137.359375 C 134.441406 137.515625 134.441406 137.535156 134.441406 137.574219 C 134.441406 137.652344 134.5 137.710938 134.558594 137.710938 C 134.695312 137.710938 135.730469 136.773438 135.730469 135.289062 Z M 135.730469 135.289062 "/>
<path style="fill:none;stroke-width:0.3985;stroke-linecap:butt;stroke-linejoin:miter;stroke:rgb(0%,0%,0%);stroke-opacity:1;stroke-miterlimit:10;" d="M 0.002375 53.85825 L 7.08675 49.60825 " transform="matrix(1.25,0,0,-1.25,236.79,94.22125)"/>
<path style="fill:none;stroke-width:0.3985;stroke-linecap:butt;stroke-linejoin:miter;stroke:rgb(0%,0%,0%);stroke-opacity:1;stroke-miterlimit:10;" d="M 0.002375 48.1895 L 7.08675 43.9395 " transform="matrix(1.25,0,0,-1.25,236.79,94.22125)"/>
<path style="fill:none;stroke-width:0.3985;stroke-linecap:butt;stroke-linejoin:miter;stroke:rgb(0%,0%,0%);stroke-opacity:1;stroke-miterlimit:10;" d="M 0.002375 42.52075 L 7.08675 38.267625 " transform="matrix(1.25,0,0,-1.25,236.79,94.22125)"/>
<path style="fill:none;stroke-width:0.3985;stroke-linecap:butt;stroke-linejoin:miter;stroke:rgb(0%,0%,0%);stroke-opacity:1;stroke-miterlimit:10;" d="M 0.002375 36.848875 L 7.08675 32.598875 " transform="matrix(1.25,0,0,-1.25,236.79,94.22125)"/>
<path style="fill:none;stroke-width:0.3985;stroke-linecap:butt;stroke-linejoin:miter;stroke:rgb(0%,0%,0%);stroke-opacity:1;stroke-miterlimit:10;" d="M 0.002375 31.180125 L 7.08675 26.930125 " transform="matrix(1.25,0,0,-1.25,236.79,94.22125)"/>
<path style="fill:none;stroke-width:0.3985;stroke-linecap:butt;stroke-linejoin:miter;stroke:rgb(0%,0%,0%);stroke-opacity:1;stroke-miterlimit:10;" d="M 0.002375 25.5145 L 7.08675 21.25825 " transform="matrix(1.25,0,0,-1.25,236.79,94.22125)"/>
<path style="fill:none;stroke-width:0.3985;stroke-linecap:butt;stroke-linejoin:miter;stroke:rgb(0%,0%,0%);stroke-opacity:1;stroke-miterlimit:10;" d="M 0.002375 19.842625 L 7.08675 15.592625 " transform="matrix(1.25,0,0,-1.25,236.79,94.22125)"/>
<path style="fill:none;stroke-width:0.3985;stroke-linecap:butt;stroke-linejoin:miter;stroke:rgb(0%,0%,0%);stroke-opacity:1;stroke-miterlimit:10;" d="M 0.002375 14.173875 L 7.08675 9.923875 " transform="matrix(1.25,0,0,-1.25,236.79,94.22125)"/>
<path style="fill:none;stroke-width:0.3985;stroke-linecap:butt;stroke-linejoin:miter;stroke:rgb(0%,0%,0%);stroke-opacity:1;stroke-miterlimit:10;" d="M 0.002375 8.505125 L 7.08675 4.252 " transform="matrix(1.25,0,0,-1.25,236.79,94.22125)"/>
<path style="fill:none;stroke-width:0.3985;stroke-linecap:butt;stroke-linejoin:miter;stroke:rgb(0%,0%,0%);stroke-opacity:1;stroke-miterlimit:10;" d="M 0.002375 2.83325 L 7.08675 -1.41675 " transform="matrix(1.25,0,0,-1.25,236.79,94.22125)"/>
<path style="fill:none;stroke-width:0.3985;stroke-linecap:butt;stroke-linejoin:miter;stroke:rgb(0%,0%,0%);stroke-opacity:1;stroke-miterlimit:10;" d="M 0.002375 -127.5605 L 7.08675 -131.813625 " transform="matrix(1.25,0,0,-1.25,236.79,94.22125)"/>
<path style="fill:none;stroke-width:0.3985;stroke-linecap:butt;stroke-linejoin:miter;stroke:rgb(0%,0%,0%);stroke-opacity:1;stroke-miterlimit:10;" d="M 0.002375 -121.89175 L 7.08675 -126.14175 " transform="matrix(1.25,0,0,-1.25,236.79,94.22125)"/>
<path style="fill:none;stroke-width:0.3985;stroke-linecap:butt;stroke-linejoin:miter;stroke:rgb(0%,0%,0%);stroke-opacity:1;stroke-miterlimit:10;" d="M 0.002375 -116.219875 L 7.08675 -120.476125 " transform="matrix(1.25,0,0,-1.25,236.79,94.22125)"/>
<path style="fill:none;stroke-width:0.3985;stroke-linecap:butt;stroke-linejoin:miter;stroke:rgb(0%,0%,0%);stroke-opacity:1;stroke-miterlimit:10;" d="M 0.002375 -110.55425 L 7.08675 -114.80425 " transform="matrix(1.25,0,0,-1.25,236.79,94.22125)"/>
<path style="fill:none;stroke-width:0.3985;stroke-linecap:butt;stroke-linejoin:miter;stroke:rgb(0%,0%,0%);stroke-opacity:1;stroke-miterlimit:10;" d="M 0.002375 -104.8855 L 7.08675 -109.1355 " transform="matrix(1.25,0,0,-1.25,236.79,94.22125)"/>
<path style="fill:none;stroke-width:0.3985;stroke-linecap:butt;stroke-linejoin:miter;stroke:rgb(0%,0%,0%);stroke-opacity:1;stroke-miterlimit:10;" d="M 0.002375 -99.213625 L 7.08675 -103.46675 " transform="matrix(1.25,0,0,-1.25,236.79,94.22125)"/>
<path style="fill:none;stroke-width:0.3985;stroke-linecap:butt;stroke-linejoin:miter;stroke:rgb(0%,0%,0%);stroke-opacity:1;stroke-miterlimit:10;" d="M 0.002375 -93.544875 L 7.08675 -97.794875 " transform="matrix(1.25,0,0,-1.25,236.79,94.22125)"/>
<path style="fill:none;stroke-width:0.3985;stroke-linecap:butt;stroke-linejoin:miter;stroke:rgb(0%,0%,0%);stroke-opacity:1;stroke-miterlimit:10;" d="M 0.002375 -87.876125 L 7.08675 -92.126125 " transform="matrix(1.25,0,0,-1.25,236.79,94.22125)"/>
<path style="fill:none;stroke-width:0.3985;stroke-linecap:butt;stroke-linejoin:miter;stroke:rgb(0%,0%,0%);stroke-opacity:1;stroke-miterlimit:10;" d="M 0.002375 -82.20425 L 7.08675 -86.4605 " transform="matrix(1.25,0,0,-1.25,236.79,94.22125)"/>
<path style="fill:none;stroke-width:0.3985;stroke-linecap:butt;stroke-linejoin:miter;stroke:rgb(0%,0%,0%);stroke-opacity:1;stroke-miterlimit:10;" d="M 0.002375 -76.538625 L 7.08675 -80.788625 " transform="matrix(1.25,0,0,-1.25,236.79,94.22125)"/>
<path style="fill:none;stroke-width:0.3985;stroke-linecap:butt;stroke-linejoin:miter;stroke:rgb(0%,0%,0%);stroke-opacity:1;stroke-miterlimit:10;" d="M 0.002375 -70.869875 L 7.08675 -75.119875 " transform="matrix(1.25,0,0,-1.25,236.79,94.22125)"/>
<path style="fill:none;stroke-width:0.3985;stroke-linecap:butt;stroke-linejoin:miter;stroke:rgb(0%,0%,0%);stroke-opacity:1;stroke-miterlimit:10;" d="M 0.002375 -65.198 L 7.08675 -69.451125 " transform="matrix(1.25,0,0,-1.25,236.79,94.22125)"/>
<path style="fill:none;stroke-width:0.3985;stroke-linecap:butt;stroke-linejoin:miter;stroke:rgb(0%,0%,0%);stroke-opacity:1;stroke-miterlimit:10;" d="M 0.002375 -59.52925 L 7.08675 -63.77925 " transform="matrix(1.25,0,0,-1.25,236.79,94.22125)"/>
<path style="fill:none;stroke-width:0.3985;stroke-linecap:butt;stroke-linejoin:miter;stroke:rgb(0%,0%,0%);stroke-opacity:1;stroke-miterlimit:10;" d="M 0.002375 -53.8605 L 7.08675 -58.1105 " transform="matrix(1.25,0,0,-1.25,236.79,94.22125)"/>
<path style="fill:none;stroke-width:0.3985;stroke-linecap:butt;stroke-linejoin:miter;stroke:rgb(0%,0%,0%);stroke-opacity:1;stroke-miterlimit:10;" d="M 0.002375 -48.188625 L 7.08675 -52.444875 " transform="matrix(1.25,0,0,-1.25,236.79,94.22125)"/>
<path style="fill:none;stroke-width:0.3985;stroke-linecap:butt;stroke-linejoin:miter;stroke:rgb(0%,0%,0%);stroke-opacity:1;stroke-miterlimit:10;" d="M 0.002375 -42.523 L 7.08675 -46.773 " transform="matrix(1.25,0,0,-1.25,236.79,94.22125)"/>
<path style="fill:none;stroke-width:0.3985;stroke-linecap:butt;stroke-linejoin:miter;stroke:rgb(0%,0%,0%);stroke-opacity:1;stroke-miterlimit:10;" d="M 0.002375 -36.85425 L 7.08675 -41.10425 " transform="matrix(1.25,0,0,-1.25,236.79,94.22125)"/>
<path style="fill:none;stroke-width:0.3985;stroke-linecap:butt;stroke-linejoin:miter;stroke:rgb(0%,0%,0%);stroke-opacity:1;stroke-miterlimit:10;" d="M 0.002375 -31.182375 L 7.08675 -35.4355 " transform="matrix(1.25,0,0,-1.25,236.79,94.22125)"/>
<path style="fill:none;stroke-width:0.3985;stroke-linecap:butt;stroke-linejoin:miter;stroke:rgb(0%,0%,0%);stroke-opacity:1;stroke-miterlimit:10;" d="M 0.002375 -25.513625 L 7.08675 -29.763625 " transform="matrix(1.25,0,0,-1.25,236.79,94.22125)"/>
<path style="fill:none;stroke-width:0.3985;stroke-linecap:butt;stroke-linejoin:miter;stroke:rgb(0%,0%,0%);stroke-opacity:1;stroke-miterlimit:10;" d="M 0.002375 -19.844875 L 7.08675 -24.094875 " transform="matrix(1.25,0,0,-1.25,236.79,94.22125)"/>
<path style="fill:none;stroke-width:0.3985;stroke-linecap:butt;stroke-linejoin:miter;stroke:rgb(0%,0%,0%);stroke-opacity:1;stroke-miterlimit:10;" d="M 0.002375 -14.173 L 7.08675 -18.42925 " transform="matrix(1.25,0,0,-1.25,236.79,94.22125)"/>
<path style="fill:none;stroke-width:0.3985;stroke-linecap:butt;stroke-linejoin:miter;stroke:rgb(0%,0%,0%);stroke-opacity:1;stroke-miterlimit:10;" d="M 0.002375 -8.507375 L 7.08675 -12.757375 " transform="matrix(1.25,0,0,-1.25,236.79,94.22125)"/>
<path style="fill:none;stroke-width:0.3985;stroke-linecap:butt;stroke-linejoin:miter;stroke:rgb(0%,0%,0%);stroke-opacity:1;stroke-miterlimit:10;" d="M 0.002375 -2.838625 L 7.08675 -7.088625 " transform="matrix(1.25,0,0,-1.25,236.79,94.22125)"/>
<path style=" stroke:none;fill-rule:nonzero;fill:rgb(100%,100%,100%);fill-opacity:1;" d="M 239.546875 113.859375 L 254.765625 113.859375 L 254.765625 96.976562 L 239.546875 96.976562 L 239.546875 113.859375 Z M 239.546875 113.859375 "/>
<path style=" stroke:none;fill-rule:nonzero;fill:rgb(0%,0%,0%);fill-opacity:1;" d="M 249.90625 107.382812 C 249.90625 106.152344 249.085938 105.117188 248.050781 104.863281 L 246.449219 104.492188 C 245.667969 104.296875 245.199219 103.632812 245.199219 102.910156 C 245.199219 102.03125 245.863281 101.269531 246.839844 101.269531 C 248.910156 101.269531 249.183594 103.320312 249.261719 103.867188 C 249.28125 103.945312 249.28125 104.023438 249.417969 104.023438 C 249.574219 104.023438 249.574219 103.964844 249.574219 103.730469 L 249.574219 101.230469 C 249.574219 101.015625 249.574219 100.917969 249.4375 100.917969 C 249.359375 100.917969 249.339844 100.9375 249.261719 101.09375 L 248.8125 101.796875 C 248.441406 101.425781 247.933594 100.917969 246.820312 100.917969 C 245.433594 100.917969 244.398438 102.011719 244.398438 103.339844 C 244.398438 104.375 245.0625 105.292969 246.019531 105.625 C 246.15625 105.664062 246.800781 105.820312 247.679688 106.035156 C 248.011719 106.113281 248.382812 106.210938 248.734375 106.660156 C 248.988281 106.992188 249.125 107.402344 249.125 107.8125 C 249.125 108.691406 248.5 109.589844 247.445312 109.589844 C 247.09375 109.589844 246.136719 109.53125 245.472656 108.925781 C 244.75 108.242188 244.710938 107.460938 244.710938 107.011719 C 244.691406 106.875 244.59375 106.875 244.554688 106.875 C 244.398438 106.875 244.398438 106.972656 244.398438 107.1875 L 244.398438 109.6875 C 244.398438 109.902344 244.398438 109.980469 244.535156 109.980469 C 244.613281 109.980469 244.632812 109.960938 244.710938 109.824219 C 244.710938 109.824219 244.75 109.765625 245.160156 109.101562 C 245.550781 109.53125 246.351562 109.980469 247.464844 109.980469 C 248.910156 109.980469 249.90625 108.769531 249.90625 107.382812 Z M 249.90625 107.382812 "/>
<path style=" stroke:none;fill-rule:nonzero;fill:rgb(100%,100%,100%);fill-opacity:1;" d="M 240.582031 31.792969 L 258.222656 31.792969 L 258.222656 14.914062 L 240.582031 14.914062 L 240.582031 31.792969 Z M 240.582031 31.792969 "/>
<path style=" stroke:none;fill-rule:nonzero;fill:rgb(0%,0%,0%);fill-opacity:1;" d="M 253.660156 27.644531 L 253.660156 27.253906 L 253.347656 27.253906 C 252.390625 27.253906 252.371094 27.117188 252.371094 26.667969 L 252.371094 20.105469 C 252.371094 19.65625 252.390625 19.519531 253.347656 19.519531 L 253.660156 19.519531 L 253.660156 19.128906 C 253.210938 19.167969 252.292969 19.167969 251.824219 19.167969 C 251.355469 19.167969 250.417969 19.167969 249.988281 19.128906 L 249.988281 19.519531 L 250.28125 19.519531 C 251.238281 19.519531 251.257812 19.65625 251.257812 20.105469 L 251.257812 23.015625 L 247.546875 23.015625 L 247.546875 20.105469 C 247.546875 19.65625 247.566406 19.519531 248.523438 19.519531 L 248.816406 19.519531 L 248.816406 19.128906 C 248.386719 19.167969 247.46875 19.167969 246.980469 19.167969 C 246.511719 19.167969 245.574219 19.167969 245.144531 19.128906 L 245.144531 19.519531 L 245.4375 19.519531 C 246.394531 19.519531 246.433594 19.65625 246.433594 20.105469 L 246.433594 26.667969 C 246.433594 27.117188 246.394531 27.253906 245.4375 27.253906 L 245.144531 27.253906 L 245.144531 27.644531 C 245.574219 27.605469 246.511719 27.605469 246.980469 27.605469 C 247.449219 27.605469 248.386719 27.605469 248.816406 27.644531 L 248.816406 27.253906 L 248.523438 27.253906 C 247.566406 27.253906 247.546875 27.117188 247.546875 26.667969 L 247.546875 23.40625 L 251.257812 23.40625 L 251.257812 26.667969 C 251.257812 27.117188 251.238281 27.253906 250.28125 27.253906 L 249.988281 27.253906 L 249.988281 27.644531 C 250.417969 27.605469 251.335938 27.605469 251.804688 27.605469 C 252.292969 27.605469 253.210938 27.605469 253.660156 27.644531 Z M 253.660156 27.644531 "/>
<path style=" stroke:none;fill-rule:nonzero;fill:rgb(100%,100%,100%);fill-opacity:1;" d="M 240.582031 138.09375 L 261.683594 138.09375 L 261.683594 121.214844 L 240.582031 121.214844 L 240.582031 138.09375 Z M 240.582031 138.09375 "/>
<path style=" stroke:none;fill-rule:nonzero;fill:rgb(0%,0%,0%);fill-opacity:1;" d="M 253.660156 133.945312 L 253.660156 133.554688 L 253.347656 133.554688 C 252.390625 133.554688 252.371094 133.417969 252.371094 132.96875 L 252.371094 126.40625 C 252.371094 125.957031 252.390625 125.820312 253.347656 125.820312 L 253.660156 125.820312 L 253.660156 125.429688 C 253.210938 125.46875 252.292969 125.46875 251.824219 125.46875 C 251.355469 125.46875 250.417969 125.46875 249.988281 125.429688 L 249.988281 125.820312 L 250.28125 125.820312 C 251.238281 125.820312 251.257812 125.957031 251.257812 126.40625 L 251.257812 129.316406 L 247.546875 129.316406 L 247.546875 126.40625 C 247.546875 125.957031 247.566406 125.820312 248.523438 125.820312 L 248.816406 125.820312 L 248.816406 125.429688 C 248.386719 125.46875 247.46875 125.46875 246.980469 125.46875 C 246.511719 125.46875 245.574219 125.46875 245.144531 125.429688 L 245.144531 125.820312 L 245.4375 125.820312 C 246.394531 125.820312 246.433594 125.957031 246.433594 126.40625 L 246.433594 132.96875 C 246.433594 133.417969 246.394531 133.554688 245.4375 133.554688 L 245.144531 133.554688 L 245.144531 133.945312 C 245.574219 133.90625 246.511719 133.90625 246.980469 133.90625 C 247.449219 133.90625 248.386719 133.90625 248.816406 133.945312 L 248.816406 133.554688 L 248.523438 133.554688 C 247.566406 133.554688 247.546875 133.417969 247.546875 132.96875 L 247.546875 129.707031 L 251.257812 129.707031 L 251.257812 132.96875 C 251.257812 133.417969 251.238281 133.554688 250.28125 133.554688 L 249.988281 133.554688 L 249.988281 133.945312 C 250.417969 133.90625 251.335938 133.90625 251.804688 133.90625 C 252.292969 133.90625 253.210938 133.90625 253.660156 133.945312 Z M 253.660156 133.945312 "/>
<path style=" stroke:none;fill-rule:nonzero;fill:rgb(0%,0%,0%);fill-opacity:1;" d="M 256.632812 126.601562 C 256.632812 125.859375 256.339844 125.292969 255.8125 125.292969 C 255.363281 125.292969 255.148438 125.625 255.148438 125.957031 C 255.148438 126.289062 255.363281 126.621094 255.8125 126.621094 C 256.046875 126.621094 256.222656 126.484375 256.300781 126.425781 C 256.320312 126.386719 256.339844 126.386719 256.339844 126.386719 C 256.339844 126.386719 256.359375 126.5625 256.359375 126.601562 C 256.359375 127.011719 256.28125 127.910156 255.5 128.671875 C 255.34375 128.828125 255.34375 128.847656 255.34375 128.886719 C 255.34375 128.964844 255.402344 129.023438 255.460938 129.023438 C 255.597656 129.023438 256.632812 128.085938 256.632812 126.601562 Z M 256.632812 126.601562 "/>
</g>
</svg>
