<?xml version="1.0" encoding="UTF-8"?>
<!-- Converted by misc2svg (http://www.network-science.de/tools/misc2svg/) -->
<svg xmlns="http://www.w3.org/2000/svg" xmlns:xlink="http://www.w3.org/1999/xlink" width="296pt" height="212pt" viewBox="0 0 296 212" version="1.1">
<defs>
<clipPath id="clip1">
  <path d="M 148.207031 205.152344 L 148.207031 56.328125 L 173.011719 56.328125 L 173.011719 205.152344 L 148.207031 205.152344 Z M 148.207031 205.152344 "/>
</clipPath>
<clipPath id="clip2">
  <path d="M 185.414062 279.578125 L 185.414062 -18.09375 L 135.800781 -18.09375 L 135.800781 279.578125 L 185.414062 279.578125 Z M 185.414062 279.578125 "/>
</clipPath>
<linearGradient id="linear0" gradientUnits="userSpaceOnUse" x1="0" y1="25.003906" x2="0" y2="74.996094" gradientTransform="matrix(0,-2.976762,-0.496125,0,185.415413,279.578375)">
<stop offset="0.015625" style="stop-color:rgb(100%,100%,100%);stop-opacity:1;"/>
<stop offset="0.03125" style="stop-color:rgb(99.607843%,99.607843%,99.607843%);stop-opacity:1;"/>
<stop offset="0.046875" style="stop-color:rgb(99.215686%,99.215686%,99.215686%);stop-opacity:1;"/>
<stop offset="0.0625" style="stop-color:rgb(98.823529%,98.823529%,98.823529%);stop-opacity:1;"/>
<stop offset="0.078125" style="stop-color:rgb(98.431373%,98.431373%,98.431373%);stop-opacity:1;"/>
<stop offset="0.09375" style="stop-color:rgb(98.039216%,98.039216%,98.039216%);stop-opacity:1;"/>
<stop offset="0.109375" style="stop-color:rgb(97.647059%,97.647059%,97.647059%);stop-opacity:1;"/>
<stop offset="0.125" style="stop-color:rgb(97.254902%,97.254902%,97.254902%);stop-opacity:1;"/>
<stop offset="0.140625" style="stop-color:rgb(96.862745%,96.862745%,96.862745%);stop-opacity:1;"/>
<stop offset="0.15625" style="stop-color:rgb(96.470588%,96.470588%,96.470588%);stop-opacity:1;"/>
<stop offset="0.171875" style="stop-color:rgb(96.078431%,96.078431%,96.078431%);stop-opacity:1;"/>
<stop offset="0.1875" style="stop-color:rgb(95.686275%,95.686275%,95.686275%);stop-opacity:1;"/>
<stop offset="0.203125" style="stop-color:rgb(95.294118%,95.294118%,95.294118%);stop-opacity:1;"/>
<stop offset="0.21875" style="stop-color:rgb(94.901961%,94.901961%,94.901961%);stop-opacity:1;"/>
<stop offset="0.234375" style="stop-color:rgb(94.509804%,94.509804%,94.509804%);stop-opacity:1;"/>
<stop offset="0.25" style="stop-color:rgb(94.117647%,94.117647%,94.117647%);stop-opacity:1;"/>
<stop offset="0.265625" style="stop-color:rgb(93.72549%,93.72549%,93.72549%);stop-opacity:1;"/>
<stop offset="0.28125" style="stop-color:rgb(93.333333%,93.333333%,93.333333%);stop-opacity:1;"/>
<stop offset="0.296875" style="stop-color:rgb(92.941176%,92.941176%,92.941176%);stop-opacity:1;"/>
<stop offset="0.3125" style="stop-color:rgb(92.54902%,92.54902%,92.54902%);stop-opacity:1;"/>
<stop offset="0.328125" style="stop-color:rgb(92.156863%,92.156863%,92.156863%);stop-opacity:1;"/>
<stop offset="0.34375" style="stop-color:rgb(91.764706%,91.764706%,91.764706%);stop-opacity:1;"/>
<stop offset="0.359375" style="stop-color:rgb(91.372549%,91.372549%,91.372549%);stop-opacity:1;"/>
<stop offset="0.375" style="stop-color:rgb(90.980392%,90.980392%,90.980392%);stop-opacity:1;"/>
<stop offset="0.390625" style="stop-color:rgb(90.588235%,90.588235%,90.588235%);stop-opacity:1;"/>
<stop offset="0.40625" style="stop-color:rgb(90.196078%,90.196078%,90.196078%);stop-opacity:1;"/>
<stop offset="0.421875" style="stop-color:rgb(89.803922%,89.803922%,89.803922%);stop-opacity:1;"/>
<stop offset="0.4375" style="stop-color:rgb(89.411765%,89.411765%,89.411765%);stop-opacity:1;"/>
<stop offset="0.453125" style="stop-color:rgb(89.019608%,89.019608%,89.019608%);stop-opacity:1;"/>
<stop offset="0.46875" style="stop-color:rgb(88.627451%,88.627451%,88.627451%);stop-opacity:1;"/>
<stop offset="0.484375" style="stop-color:rgb(88.235294%,88.235294%,88.235294%);stop-opacity:1;"/>
<stop offset="0.5" style="stop-color:rgb(87.843137%,87.843137%,87.843137%);stop-opacity:1;"/>
<stop offset="0.515625" style="stop-color:rgb(87.45098%,87.45098%,87.45098%);stop-opacity:1;"/>
<stop offset="0.53125" style="stop-color:rgb(87.058824%,87.058824%,87.058824%);stop-opacity:1;"/>
<stop offset="0.546875" style="stop-color:rgb(86.666667%,86.666667%,86.666667%);stop-opacity:1;"/>
<stop offset="0.5625" style="stop-color:rgb(86.27451%,86.27451%,86.27451%);stop-opacity:1;"/>
<stop offset="0.578125" style="stop-color:rgb(85.882353%,85.882353%,85.882353%);stop-opacity:1;"/>
<stop offset="0.59375" style="stop-color:rgb(85.490196%,85.490196%,85.490196%);stop-opacity:1;"/>
<stop offset="0.609375" style="stop-color:rgb(85.098039%,85.098039%,85.098039%);stop-opacity:1;"/>
<stop offset="0.625" style="stop-color:rgb(84.705882%,84.705882%,84.705882%);stop-opacity:1;"/>
<stop offset="0.640625" style="stop-color:rgb(84.313725%,84.313725%,84.313725%);stop-opacity:1;"/>
<stop offset="0.65625" style="stop-color:rgb(83.921569%,83.921569%,83.921569%);stop-opacity:1;"/>
<stop offset="0.671875" style="stop-color:rgb(83.529412%,83.529412%,83.529412%);stop-opacity:1;"/>
<stop offset="0.6875" style="stop-color:rgb(83.137255%,83.137255%,83.137255%);stop-opacity:1;"/>
<stop offset="0.703125" style="stop-color:rgb(82.745098%,82.745098%,82.745098%);stop-opacity:1;"/>
<stop offset="0.71875" style="stop-color:rgb(82.352941%,82.352941%,82.352941%);stop-opacity:1;"/>
<stop offset="0.734375" style="stop-color:rgb(81.960784%,81.960784%,81.960784%);stop-opacity:1;"/>
<stop offset="0.75" style="stop-color:rgb(81.568627%,81.568627%,81.568627%);stop-opacity:1;"/>
<stop offset="0.765625" style="stop-color:rgb(81.176471%,81.176471%,81.176471%);stop-opacity:1;"/>
<stop offset="0.78125" style="stop-color:rgb(80.784314%,80.784314%,80.784314%);stop-opacity:1;"/>
<stop offset="0.796875" style="stop-color:rgb(80.392157%,80.392157%,80.392157%);stop-opacity:1;"/>
<stop offset="0.8125" style="stop-color:rgb(80%,80%,80%);stop-opacity:1;"/>
<stop offset="0.828125" style="stop-color:rgb(79.607843%,79.607843%,79.607843%);stop-opacity:1;"/>
<stop offset="0.84375" style="stop-color:rgb(79.215686%,79.215686%,79.215686%);stop-opacity:1;"/>
<stop offset="0.859375" style="stop-color:rgb(78.823529%,78.823529%,78.823529%);stop-opacity:1;"/>
<stop offset="0.875" style="stop-color:rgb(78.431373%,78.431373%,78.431373%);stop-opacity:1;"/>
<stop offset="0.890625" style="stop-color:rgb(78.039216%,78.039216%,78.039216%);stop-opacity:1;"/>
<stop offset="0.90625" style="stop-color:rgb(77.647059%,77.647059%,77.647059%);stop-opacity:1;"/>
<stop offset="0.921875" style="stop-color:rgb(77.254902%,77.254902%,77.254902%);stop-opacity:1;"/>
<stop offset="0.9375" style="stop-color:rgb(76.862745%,76.862745%,76.862745%);stop-opacity:1;"/>
<stop offset="0.953125" style="stop-color:rgb(76.470588%,76.470588%,76.470588%);stop-opacity:1;"/>
<stop offset="0.96875" style="stop-color:rgb(76.078431%,76.078431%,76.078431%);stop-opacity:1;"/>
<stop offset="0.984375" style="stop-color:rgb(75.686275%,75.686275%,75.686275%);stop-opacity:1;"/>
<stop offset="1" style="stop-color:rgb(100%,100%,100%);stop-opacity:1;"/>
<stop offset="1" style="stop-color:rgb(75.294118%,75.294118%,75.294118%);stop-opacity:1;"/>
</linearGradient>
</defs>
<g id="misc2svg">
<g clip-path="url(#clip1)" clip-rule="nonzero">
<g clip-path="url(#clip2)" clip-rule="nonzero">
<path style=" stroke:none;fill-rule:nonzero;fill:url(#linear0);" d="M 173.011719 205.152344 L 148.207031 205.152344 L 148.207031 56.328125 L 173.011719 56.328125 L 173.011719 205.152344 Z M 173.011719 205.152344 "/>
</g>
</g>
<path style="fill:none;stroke-width:0.3985;stroke-linecap:butt;stroke-linejoin:miter;stroke:rgb(100%,100%,100%);stroke-opacity:1;stroke-miterlimit:10;" d="M -0.000375 -59.529875 L -0.000375 59.5295 L 19.843375 59.5295 L 19.843375 -59.529875 L -0.000375 -59.529875 Z M -0.000375 -59.529875 " transform="matrix(1.25,0,0,-1.25,148.2075,130.74)"/>
<path style="fill:none;stroke-width:0.79701;stroke-linecap:butt;stroke-linejoin:miter;stroke:rgb(0%,0%,0%);stroke-opacity:1;stroke-miterlimit:10;" d="M -0.000375 -59.529875 L -0.000375 59.5295 " transform="matrix(1.25,0,0,-1.25,148.2075,130.74)"/>
<path style="fill:none;stroke-width:0.3985;stroke-linecap:butt;stroke-linejoin:miter;stroke:rgb(0%,0%,0%);stroke-opacity:1;stroke-miterlimit:10;" d="M -0.000375 -53.858 L 7.087125 -58.111125 " transform="matrix(1.25,0,0,-1.25,148.2075,130.74)"/>
<path style="fill:none;stroke-width:0.3985;stroke-linecap:butt;stroke-linejoin:miter;stroke:rgb(0%,0%,0%);stroke-opacity:1;stroke-miterlimit:10;" d="M -0.000375 -48.18925 L 7.087125 -52.442375 " transform="matrix(1.25,0,0,-1.25,148.2075,130.74)"/>
<path style="fill:none;stroke-width:0.3985;stroke-linecap:butt;stroke-linejoin:miter;stroke:rgb(0%,0%,0%);stroke-opacity:1;stroke-miterlimit:10;" d="M -0.000375 -42.5205 L 7.087125 -46.7705 " transform="matrix(1.25,0,0,-1.25,148.2075,130.74)"/>
<path style="fill:none;stroke-width:0.3985;stroke-linecap:butt;stroke-linejoin:miter;stroke:rgb(0%,0%,0%);stroke-opacity:1;stroke-miterlimit:10;" d="M -0.000375 -36.848625 L 7.087125 -41.104875 " transform="matrix(1.25,0,0,-1.25,148.2075,130.74)"/>
<path style="fill:none;stroke-width:0.3985;stroke-linecap:butt;stroke-linejoin:miter;stroke:rgb(0%,0%,0%);stroke-opacity:1;stroke-miterlimit:10;" d="M -0.000375 -31.183 L 7.087125 -35.436125 " transform="matrix(1.25,0,0,-1.25,148.2075,130.74)"/>
<path style="fill:none;stroke-width:0.3985;stroke-linecap:butt;stroke-linejoin:miter;stroke:rgb(0%,0%,0%);stroke-opacity:1;stroke-miterlimit:10;" d="M -0.000375 -25.51425 L 7.087125 -29.76425 " transform="matrix(1.25,0,0,-1.25,148.2075,130.74)"/>
<path style="fill:none;stroke-width:0.3985;stroke-linecap:butt;stroke-linejoin:miter;stroke:rgb(0%,0%,0%);stroke-opacity:1;stroke-miterlimit:10;" d="M -0.000375 -19.842375 L 7.087125 -24.0955 " transform="matrix(1.25,0,0,-1.25,148.2075,130.74)"/>
<path style="fill:none;stroke-width:0.3985;stroke-linecap:butt;stroke-linejoin:miter;stroke:rgb(0%,0%,0%);stroke-opacity:1;stroke-miterlimit:10;" d="M -0.000375 -14.173625 L 7.087125 -18.42675 " transform="matrix(1.25,0,0,-1.25,148.2075,130.74)"/>
<path style="fill:none;stroke-width:0.3985;stroke-linecap:butt;stroke-linejoin:miter;stroke:rgb(0%,0%,0%);stroke-opacity:1;stroke-miterlimit:10;" d="M -0.000375 -8.504875 L 7.087125 -12.754875 " transform="matrix(1.25,0,0,-1.25,148.2075,130.74)"/>
<path style="fill:none;stroke-width:0.3985;stroke-linecap:butt;stroke-linejoin:miter;stroke:rgb(0%,0%,0%);stroke-opacity:1;stroke-miterlimit:10;" d="M -0.000375 -2.833 L 7.087125 -7.08925 " transform="matrix(1.25,0,0,-1.25,148.2075,130.74)"/>
<path style="fill:none;stroke-width:0.3985;stroke-linecap:butt;stroke-linejoin:miter;stroke:rgb(0%,0%,0%);stroke-opacity:1;stroke-miterlimit:10;" d="M -0.000375 2.832625 L 7.087125 -1.4205 " transform="matrix(1.25,0,0,-1.25,148.2075,130.74)"/>
<path style="fill:none;stroke-width:0.3985;stroke-linecap:butt;stroke-linejoin:miter;stroke:rgb(0%,0%,0%);stroke-opacity:1;stroke-miterlimit:10;" d="M -0.000375 8.501375 L 7.087125 4.251375 " transform="matrix(1.25,0,0,-1.25,148.2075,130.74)"/>
<path style="fill:none;stroke-width:0.3985;stroke-linecap:butt;stroke-linejoin:miter;stroke:rgb(0%,0%,0%);stroke-opacity:1;stroke-miterlimit:10;" d="M -0.000375 14.17325 L 7.087125 9.920125 " transform="matrix(1.25,0,0,-1.25,148.2075,130.74)"/>
<path style="fill:none;stroke-width:0.3985;stroke-linecap:butt;stroke-linejoin:miter;stroke:rgb(0%,0%,0%);stroke-opacity:1;stroke-miterlimit:10;" d="M -0.000375 19.842 L 7.087125 15.588875 " transform="matrix(1.25,0,0,-1.25,148.2075,130.74)"/>
<path style="fill:none;stroke-width:0.3985;stroke-linecap:butt;stroke-linejoin:miter;stroke:rgb(0%,0%,0%);stroke-opacity:1;stroke-miterlimit:10;" d="M -0.000375 25.51075 L 7.087125 21.26075 " transform="matrix(1.25,0,0,-1.25,148.2075,130.74)"/>
<path style="fill:none;stroke-width:0.3985;stroke-linecap:butt;stroke-linejoin:miter;stroke:rgb(0%,0%,0%);stroke-opacity:1;stroke-miterlimit:10;" d="M -0.000375 31.182625 L 7.087125 26.926375 " transform="matrix(1.25,0,0,-1.25,148.2075,130.74)"/>
<path style="fill:none;stroke-width:0.3985;stroke-linecap:butt;stroke-linejoin:miter;stroke:rgb(0%,0%,0%);stroke-opacity:1;stroke-miterlimit:10;" d="M -0.000375 36.84825 L 7.087125 32.595125 " transform="matrix(1.25,0,0,-1.25,148.2075,130.74)"/>
<path style="fill:none;stroke-width:0.3985;stroke-linecap:butt;stroke-linejoin:miter;stroke:rgb(0%,0%,0%);stroke-opacity:1;stroke-miterlimit:10;" d="M -0.000375 42.517 L 7.087125 38.267 " transform="matrix(1.25,0,0,-1.25,148.2075,130.74)"/>
<path style="fill:none;stroke-width:0.3985;stroke-linecap:butt;stroke-linejoin:miter;stroke:rgb(0%,0%,0%);stroke-opacity:1;stroke-miterlimit:10;" d="M -0.000375 48.188875 L 7.087125 43.93575 " transform="matrix(1.25,0,0,-1.25,148.2075,130.74)"/>
<path style="fill:none;stroke-width:0.3985;stroke-linecap:butt;stroke-linejoin:miter;stroke:rgb(0%,0%,0%);stroke-opacity:1;stroke-miterlimit:10;" d="M -0.000375 53.857625 L 7.087125 49.6045 " transform="matrix(1.25,0,0,-1.25,148.2075,130.74)"/>
<path style="fill:none;stroke-width:0.3985;stroke-linecap:butt;stroke-linejoin:miter;stroke:rgb(0%,0%,0%);stroke-opacity:1;stroke-miterlimit:10;" d="M -0.000375 59.526375 L 7.087125 55.276375 " transform="matrix(1.25,0,0,-1.25,148.2075,130.74)"/>
<path style="fill:none;stroke-width:0.3985;stroke-linecap:butt;stroke-linejoin:miter;stroke:rgb(0%,0%,0%);stroke-opacity:1;stroke-dasharray:0.3985,1.99255;stroke-miterlimit:10;" d="M -113.387875 -42.5205 L 113.387125 -42.5205 " transform="matrix(1.25,0,0,-1.25,148.2075,130.74)"/>
<path style="fill:none;stroke-width:0.3985;stroke-linecap:butt;stroke-linejoin:miter;stroke:rgb(0%,0%,0%);stroke-opacity:1;stroke-dasharray:2.98883,2.98883;stroke-miterlimit:10;" d="M -99.216 -0.00175 L -0.000375 -0.00175 " transform="matrix(1.25,0,0,-1.25,148.2075,130.74)"/>
<path style=" stroke:none;fill-rule:nonzero;fill:rgb(100%,100%,100%);fill-opacity:1;" d="M 33.671875 137.894531 L 76.71875 137.894531 L 76.71875 123.589844 L 33.671875 123.589844 L 33.671875 137.894531 Z M 33.671875 137.894531 "/>
<path style=" stroke:none;fill-rule:nonzero;fill:rgb(0%,0%,0%);fill-opacity:1;" d="M 42.960938 133.742188 L 42.960938 133.429688 C 42.394531 133.429688 42.316406 133.429688 42.316406 133.058594 L 42.316406 131.105469 C 42.316406 130.34375 41.945312 129.894531 41.007812 129.894531 C 40.285156 129.894531 39.835938 130.285156 39.582031 130.753906 L 39.582031 130.753906 L 39.582031 129.894531 L 38.292969 129.992188 L 38.292969 130.304688 C 38.878906 130.304688 38.957031 130.363281 38.957031 130.792969 L 38.957031 133.058594 C 38.957031 133.429688 38.859375 133.429688 38.292969 133.429688 L 38.292969 133.742188 C 38.292969 133.742188 38.917969 133.703125 39.289062 133.703125 C 39.601562 133.703125 40.207031 133.742188 40.285156 133.742188 L 40.285156 133.429688 C 39.71875 133.429688 39.640625 133.429688 39.640625 133.058594 L 39.640625 131.476562 C 39.640625 130.578125 40.363281 130.148438 40.929688 130.148438 C 41.535156 130.148438 41.613281 130.617188 41.613281 131.066406 L 41.613281 133.058594 C 41.613281 133.429688 41.535156 133.429688 40.96875 133.429688 L 40.96875 133.742188 C 40.96875 133.742188 41.59375 133.703125 41.964844 133.703125 C 42.277344 133.703125 42.882812 133.742188 42.960938 133.742188 Z M 42.960938 133.742188 "/>
<path style=" stroke:none;fill-rule:nonzero;fill:rgb(0%,0%,0%);fill-opacity:1;" d="M 47.933594 131.886719 C 47.933594 130.792969 46.996094 129.855469 45.804688 129.855469 C 44.59375 129.855469 43.65625 130.792969 43.65625 131.886719 C 43.65625 132.960938 44.613281 133.820312 45.804688 133.820312 C 46.976562 133.820312 47.933594 132.960938 47.933594 131.886719 Z M 47.132812 131.808594 C 47.132812 132.21875 47.113281 132.6875 46.859375 133.039062 C 46.625 133.371094 46.234375 133.546875 45.804688 133.546875 C 45.472656 133.546875 45.003906 133.449219 44.710938 133.019531 C 44.476562 132.667969 44.457031 132.21875 44.457031 131.808594 C 44.457031 131.4375 44.457031 130.910156 44.769531 130.539062 C 44.984375 130.285156 45.355469 130.109375 45.804688 130.109375 C 46.3125 130.109375 46.683594 130.34375 46.878906 130.617188 C 47.113281 130.949219 47.132812 131.398438 47.132812 131.808594 Z M 47.132812 131.808594 "/>
<path style=" stroke:none;fill-rule:nonzero;fill:rgb(0%,0%,0%);fill-opacity:1;" d="M 51.839844 130.460938 C 51.839844 130.167969 51.546875 129.894531 51.136719 129.894531 C 50.707031 129.894531 50.21875 130.167969 49.964844 130.832031 L 49.964844 130.832031 L 49.964844 129.894531 L 48.714844 129.992188 L 48.714844 130.304688 C 49.300781 130.304688 49.359375 130.363281 49.359375 130.792969 L 49.359375 133.058594 C 49.359375 133.429688 49.28125 133.429688 48.714844 133.429688 L 48.714844 133.742188 C 48.753906 133.742188 49.339844 133.703125 49.710938 133.703125 L 50.84375 133.742188 L 50.84375 133.429688 L 50.667969 133.429688 C 50.023438 133.429688 50.023438 133.332031 50.023438 133.039062 L 50.023438 131.75 C 50.023438 131.027344 50.355469 130.148438 51.195312 130.148438 C 51.117188 130.207031 51.039062 130.324219 51.039062 130.460938 C 51.039062 130.753906 51.273438 130.851562 51.429688 130.851562 C 51.644531 130.851562 51.839844 130.714844 51.839844 130.460938 Z M 51.839844 130.460938 "/>
<path style=" stroke:none;fill-rule:nonzero;fill:rgb(0%,0%,0%);fill-opacity:1;" d="M 59.992188 133.742188 L 59.992188 133.429688 C 59.425781 133.429688 59.347656 133.429688 59.347656 133.058594 L 59.347656 131.105469 C 59.347656 130.34375 58.957031 129.894531 58.039062 129.894531 C 57.335938 129.894531 56.867188 130.265625 56.632812 130.714844 C 56.457031 130.089844 55.988281 129.894531 55.363281 129.894531 C 54.640625 129.894531 54.191406 130.285156 53.9375 130.753906 L 53.9375 130.753906 L 53.9375 129.894531 L 52.648438 129.992188 L 52.648438 130.304688 C 53.234375 130.304688 53.3125 130.363281 53.3125 130.792969 L 53.3125 133.058594 C 53.3125 133.429688 53.214844 133.429688 52.648438 133.429688 L 52.648438 133.742188 C 52.648438 133.742188 53.273438 133.703125 53.644531 133.703125 C 53.957031 133.703125 54.5625 133.742188 54.640625 133.742188 L 54.640625 133.429688 C 54.074219 133.429688 53.996094 133.429688 53.996094 133.058594 L 53.996094 131.476562 C 53.996094 130.578125 54.71875 130.148438 55.285156 130.148438 C 55.890625 130.148438 55.96875 130.617188 55.96875 131.066406 L 55.96875 133.058594 C 55.96875 133.429688 55.890625 133.429688 55.324219 133.429688 L 55.324219 133.742188 C 55.324219 133.742188 55.949219 133.703125 56.320312 133.703125 C 56.632812 133.703125 57.238281 133.742188 57.316406 133.742188 L 57.316406 133.429688 C 56.75 133.429688 56.671875 133.429688 56.671875 133.058594 L 56.671875 131.476562 C 56.671875 130.578125 57.394531 130.148438 57.960938 130.148438 C 58.566406 130.148438 58.644531 130.617188 58.644531 131.066406 L 58.644531 133.058594 C 58.644531 133.429688 58.566406 133.429688 58 133.429688 L 58 133.742188 C 58 133.742188 58.625 133.703125 58.996094 133.703125 C 59.308594 133.703125 59.914062 133.742188 59.992188 133.742188 Z M 59.992188 133.742188 "/>
<path style=" stroke:none;fill-rule:nonzero;fill:rgb(0%,0%,0%);fill-opacity:1;" d="M 65.105469 132.960938 L 65.105469 132.472656 L 64.792969 132.472656 L 64.792969 132.941406 C 64.792969 133.039062 64.792969 133.449219 64.480469 133.449219 C 64.148438 133.449219 64.148438 133.039062 64.148438 132.941406 L 64.148438 131.398438 C 64.148438 130.949219 64.148438 130.617188 63.757812 130.285156 C 63.40625 129.992188 62.976562 129.855469 62.46875 129.855469 C 61.648438 129.855469 61.0625 130.167969 61.0625 130.695312 C 61.0625 130.988281 61.238281 131.125 61.472656 131.125 C 61.707031 131.125 61.882812 130.949219 61.882812 130.714844 C 61.882812 130.578125 61.804688 130.382812 61.570312 130.324219 C 61.882812 130.109375 62.390625 130.109375 62.449219 130.109375 C 62.9375 130.109375 63.464844 130.421875 63.464844 131.164062 L 63.464844 131.417969 C 62.996094 131.4375 62.410156 131.476562 61.785156 131.710938 C 61.003906 131.984375 60.75 132.472656 60.75 132.863281 C 60.75 133.605469 61.648438 133.820312 62.273438 133.820312 C 62.976562 133.820312 63.386719 133.429688 63.5625 133.097656 C 63.601562 133.449219 63.835938 133.78125 64.226562 133.78125 C 64.226562 133.78125 65.105469 133.78125 65.105469 132.960938 Z M 63.464844 132.511719 C 63.464844 133.351562 62.742188 133.585938 62.351562 133.585938 C 61.902344 133.585938 61.492188 133.292969 61.492188 132.863281 C 61.492188 132.375 61.902344 131.710938 63.464844 131.652344 L 63.464844 132.511719 Z M 63.464844 132.511719 "/>
<path style=" stroke:none;fill-rule:nonzero;fill:rgb(0%,0%,0%);fill-opacity:1;" d="M 67.765625 133.742188 L 67.765625 133.429688 C 67.199219 133.429688 67.121094 133.429688 67.121094 133.058594 L 67.121094 127.6875 L 65.8125 127.785156 L 65.8125 128.097656 C 66.398438 128.097656 66.457031 128.175781 66.457031 128.585938 L 66.457031 133.058594 C 66.457031 133.429688 66.378906 133.429688 65.8125 133.429688 L 65.8125 133.742188 C 65.8125 133.742188 66.4375 133.703125 66.789062 133.703125 C 67.121094 133.703125 67.433594 133.722656 67.765625 133.742188 Z M 67.765625 133.742188 "/>
<path style=" stroke:none;fill-rule:nonzero;fill:rgb(0%,0%,0%);fill-opacity:1;" d="M 72.222656 132.6875 C 72.222656 132.667969 72.203125 132.570312 72.066406 132.570312 C 71.949219 132.570312 71.929688 132.628906 71.910156 132.707031 C 71.636719 133.410156 70.972656 133.546875 70.660156 133.546875 C 70.25 133.546875 69.859375 133.371094 69.605469 133.039062 C 69.273438 132.628906 69.273438 132.101562 69.273438 131.75 L 71.96875 131.75 C 72.164062 131.75 72.222656 131.75 72.222656 131.574219 C 72.222656 130.792969 71.792969 129.855469 70.484375 129.855469 C 69.351562 129.855469 68.472656 130.753906 68.472656 131.828125 C 68.472656 132.941406 69.449219 133.820312 70.601562 133.820312 C 71.773438 133.820312 72.222656 132.882812 72.222656 132.6875 Z M 71.617188 131.535156 L 69.273438 131.535156 C 69.371094 130.304688 70.152344 130.109375 70.484375 130.109375 C 71.558594 130.109375 71.597656 131.320312 71.617188 131.535156 Z M 71.617188 131.535156 "/>
<path style="fill:none;stroke-width:0.3985;stroke-linecap:butt;stroke-linejoin:miter;stroke:rgb(0%,0%,0%);stroke-opacity:1;stroke-dasharray:2.98883,2.98883;stroke-miterlimit:10;" d="M -99.216 28.345125 L -0.000375 28.345125 " transform="matrix(1.25,0,0,-1.25,148.2075,130.74)"/>
<path style=" stroke:none;fill-rule:nonzero;fill:rgb(0%,0%,0%);fill-opacity:1;" d="M 46.164062 196.867188 L 46.164062 196.476562 L 45.949219 196.476562 C 45.207031 196.476562 45.03125 196.398438 44.894531 195.988281 L 42.199219 188.195312 C 42.140625 188.039062 42.101562 187.941406 41.90625 187.941406 C 41.710938 187.941406 41.671875 188.019531 41.613281 188.195312 L 39.035156 195.636719 C 38.800781 196.28125 38.3125 196.476562 37.628906 196.476562 L 37.628906 196.867188 L 38.898438 196.828125 L 40.34375 196.867188 L 40.34375 196.476562 C 39.71875 196.476562 39.40625 196.164062 39.40625 195.851562 C 39.40625 195.8125 39.425781 195.675781 39.425781 195.65625 L 40.011719 194.035156 L 43.078125 194.035156 L 43.742188 195.929688 C 43.761719 195.988281 43.78125 196.066406 43.78125 196.105469 C 43.78125 196.476562 43.078125 196.476562 42.746094 196.476562 L 42.746094 196.867188 C 43.195312 196.828125 44.074219 196.828125 44.542969 196.828125 L 46.164062 196.867188 Z M 42.941406 193.644531 L 40.148438 193.644531 L 41.535156 189.582031 L 42.941406 193.644531 Z M 42.941406 193.644531 "/>
<path style="fill:none;stroke-width:0.3985;stroke-linecap:butt;stroke-linejoin:miter;stroke:rgb(0%,0%,0%);stroke-opacity:1;stroke-miterlimit:10;" d="M -85.037875 -41.104875 L -85.037875 -43.93925 " transform="matrix(1.25,0,0,-1.25,148.2075,130.74)"/>
<path style="fill:none;stroke-width:0.79701;stroke-linecap:butt;stroke-linejoin:miter;stroke:rgb(100%,0%,0%);stroke-opacity:1;stroke-miterlimit:10;" d="M -85.037875 -42.5205 L -0.000375 -0.00175 " transform="matrix(1.25,0,0,-1.25,148.2075,130.74)"/>
<path style=" stroke:none;fill-rule:nonzero;fill:rgb(100%,0%,0%);fill-opacity:1;" d="M 95.074219 157.414062 L 89.28125 157.402344 L 92.171875 158.859375 L 91.59375 162.039062 "/>
<path style="fill:none;stroke-width:0.79701;stroke-linecap:butt;stroke-linejoin:miter;stroke:rgb(100%,0%,0%);stroke-opacity:1;stroke-miterlimit:10;" d="M -0.000375 -0.00175 L -85.037875 42.520125 " transform="matrix(1.25,0,0,-1.25,148.2075,130.74)"/>
<path style=" stroke:none;fill-rule:nonzero;fill:rgb(100%,0%,0%);fill-opacity:1;" d="M 95.042969 104.261719 L 98.523438 108.890625 L 97.9375 105.707031 L 100.835938 104.253906 "/>
<path style=" stroke:none;fill-rule:nonzero;fill:rgb(0%,0%,0%);fill-opacity:1;" d="M 257.035156 196.867188 L 257.035156 196.476562 L 256.820312 196.476562 C 256.078125 196.476562 255.902344 196.398438 255.765625 195.988281 L 253.070312 188.195312 C 253.011719 188.039062 252.972656 187.941406 252.777344 187.941406 C 252.582031 187.941406 252.542969 188.019531 252.484375 188.195312 L 249.90625 195.636719 C 249.671875 196.28125 249.183594 196.476562 248.5 196.476562 L 248.5 196.867188 L 249.769531 196.828125 L 251.214844 196.867188 L 251.214844 196.476562 C 250.589844 196.476562 250.277344 196.164062 250.277344 195.851562 C 250.277344 195.8125 250.296875 195.675781 250.296875 195.65625 L 250.882812 194.035156 L 253.949219 194.035156 L 254.613281 195.929688 C 254.632812 195.988281 254.652344 196.066406 254.652344 196.105469 C 254.652344 196.476562 253.949219 196.476562 253.617188 196.476562 L 253.617188 196.867188 C 254.066406 196.828125 254.945312 196.828125 255.414062 196.828125 L 257.035156 196.867188 Z M 253.8125 193.644531 L 251.019531 193.644531 L 252.40625 189.582031 L 253.8125 193.644531 Z M 253.8125 193.644531 "/>
<path style=" stroke:none;fill-rule:nonzero;fill:rgb(0%,0%,0%);fill-opacity:1;" d="M 260.007812 189.523438 C 260.007812 188.78125 259.714844 188.214844 259.1875 188.214844 C 258.738281 188.214844 258.523438 188.546875 258.523438 188.878906 C 258.523438 189.210938 258.738281 189.542969 259.1875 189.542969 C 259.421875 189.542969 259.597656 189.40625 259.675781 189.347656 C 259.695312 189.308594 259.714844 189.308594 259.714844 189.308594 C 259.714844 189.308594 259.734375 189.484375 259.734375 189.523438 C 259.734375 189.933594 259.65625 190.832031 258.875 191.59375 C 258.71875 191.75 258.71875 191.769531 258.71875 191.808594 C 258.71875 191.886719 258.777344 191.945312 258.835938 191.945312 C 258.972656 191.945312 260.007812 191.007812 260.007812 189.523438 Z M 260.007812 189.523438 "/>
<path style="fill:none;stroke-width:0.3985;stroke-linecap:butt;stroke-linejoin:miter;stroke:rgb(0%,0%,0%);stroke-opacity:1;stroke-miterlimit:10;" d="M 85.04025 -41.104875 L 85.04025 -43.93925 " transform="matrix(1.25,0,0,-1.25,148.2075,130.74)"/>
<path style="fill:none;stroke-width:0.79701;stroke-linecap:butt;stroke-linejoin:miter;stroke:rgb(100%,0%,0%);stroke-opacity:1;stroke-dasharray:2.98883,2.98883;stroke-miterlimit:10;" d="M -0.000375 -0.00175 L 85.04025 -42.5205 " transform="matrix(1.25,0,0,-1.25,148.2075,130.74)"/>
<path style=" stroke:none;fill-rule:nonzero;fill:rgb(0%,0%,0%);fill-opacity:1;" d="M 46.164062 196.867188 L 46.164062 196.476562 L 45.949219 196.476562 C 45.207031 196.476562 45.03125 196.398438 44.894531 195.988281 L 42.199219 188.195312 C 42.140625 188.039062 42.101562 187.941406 41.90625 187.941406 C 41.710938 187.941406 41.671875 188.019531 41.613281 188.195312 L 39.035156 195.636719 C 38.800781 196.28125 38.3125 196.476562 37.628906 196.476562 L 37.628906 196.867188 L 38.898438 196.828125 L 40.34375 196.867188 L 40.34375 196.476562 C 39.71875 196.476562 39.40625 196.164062 39.40625 195.851562 C 39.40625 195.8125 39.425781 195.675781 39.425781 195.65625 L 40.011719 194.035156 L 43.078125 194.035156 L 43.742188 195.929688 C 43.761719 195.988281 43.78125 196.066406 43.78125 196.105469 C 43.78125 196.476562 43.078125 196.476562 42.746094 196.476562 L 42.746094 196.867188 C 43.195312 196.828125 44.074219 196.828125 44.542969 196.828125 L 46.164062 196.867188 Z M 42.941406 193.644531 L 40.148438 193.644531 L 41.535156 189.582031 L 42.941406 193.644531 Z M 42.941406 193.644531 "/>
<path style="fill:none;stroke-width:0.3985;stroke-linecap:butt;stroke-linejoin:miter;stroke:rgb(0%,0%,0%);stroke-opacity:1;stroke-miterlimit:10;" d="M -85.037875 -41.104875 L -85.037875 -43.93925 " transform="matrix(1.25,0,0,-1.25,148.2075,130.74)"/>
<path style="fill:none;stroke-width:0.79701;stroke-linecap:butt;stroke-linejoin:miter;stroke:rgb(0%,0%,100%);stroke-opacity:1;stroke-miterlimit:10;" d="M -85.037875 -42.5205 L -0.000375 28.345125 " transform="matrix(1.25,0,0,-1.25,148.2075,130.74)"/>
<path style=" stroke:none;fill-rule:nonzero;fill:rgb(0%,0%,100%);fill-opacity:1;" d="M 95.0625 139.71875 L 89.421875 141.035156 L 92.574219 141.789062 L 92.734375 145.019531 "/>
<path style=" stroke:none;fill-rule:nonzero;fill:rgb(0%,0%,100%);fill-opacity:1;" d="M 90.3125 143.667969 L 84.671875 144.984375 L 87.820312 145.734375 L 87.984375 148.96875 "/>
<path style="fill:none;stroke-width:0.79701;stroke-linecap:butt;stroke-linejoin:miter;stroke:rgb(0%,0%,100%);stroke-opacity:1;stroke-miterlimit:10;" d="M -0.000375 28.345125 L -85.037875 99.213875 " transform="matrix(1.25,0,0,-1.25,148.2075,130.74)"/>
<path style=" stroke:none;fill-rule:nonzero;fill:rgb(0%,0%,100%);fill-opacity:1;" d="M 95.046875 51.132812 L 97.378906 56.4375 L 97.539062 53.203125 L 100.6875 52.453125 "/>
<path style=" stroke:none;fill-rule:nonzero;fill:rgb(0%,0%,100%);fill-opacity:1;" d="M 99.800781 55.082031 L 102.128906 60.386719 L 102.289062 57.148438 L 105.4375 56.402344 "/>
<path style=" stroke:none;fill-rule:nonzero;fill:rgb(0%,0%,0%);fill-opacity:1;" d="M 257.035156 196.867188 L 257.035156 196.476562 L 256.820312 196.476562 C 256.078125 196.476562 255.902344 196.398438 255.765625 195.988281 L 253.070312 188.195312 C 253.011719 188.039062 252.972656 187.941406 252.777344 187.941406 C 252.582031 187.941406 252.542969 188.019531 252.484375 188.195312 L 249.90625 195.636719 C 249.671875 196.28125 249.183594 196.476562 248.5 196.476562 L 248.5 196.867188 L 249.769531 196.828125 L 251.214844 196.867188 L 251.214844 196.476562 C 250.589844 196.476562 250.277344 196.164062 250.277344 195.851562 C 250.277344 195.8125 250.296875 195.675781 250.296875 195.65625 L 250.882812 194.035156 L 253.949219 194.035156 L 254.613281 195.929688 C 254.632812 195.988281 254.652344 196.066406 254.652344 196.105469 C 254.652344 196.476562 253.949219 196.476562 253.617188 196.476562 L 253.617188 196.867188 C 254.066406 196.828125 254.945312 196.828125 255.414062 196.828125 L 257.035156 196.867188 Z M 253.8125 193.644531 L 251.019531 193.644531 L 252.40625 189.582031 L 253.8125 193.644531 Z M 253.8125 193.644531 "/>
<path style=" stroke:none;fill-rule:nonzero;fill:rgb(0%,0%,0%);fill-opacity:1;" d="M 260.007812 189.523438 C 260.007812 188.78125 259.714844 188.214844 259.1875 188.214844 C 258.738281 188.214844 258.523438 188.546875 258.523438 188.878906 C 258.523438 189.210938 258.738281 189.542969 259.1875 189.542969 C 259.421875 189.542969 259.597656 189.40625 259.675781 189.347656 C 259.695312 189.308594 259.714844 189.308594 259.714844 189.308594 C 259.714844 189.308594 259.734375 189.484375 259.734375 189.523438 C 259.734375 189.933594 259.65625 190.832031 258.875 191.59375 C 258.71875 191.75 258.71875 191.769531 258.71875 191.808594 C 258.71875 191.886719 258.777344 191.945312 258.835938 191.945312 C 258.972656 191.945312 260.007812 191.007812 260.007812 189.523438 Z M 260.007812 189.523438 "/>
<path style="fill:none;stroke-width:0.3985;stroke-linecap:butt;stroke-linejoin:miter;stroke:rgb(0%,0%,0%);stroke-opacity:1;stroke-miterlimit:10;" d="M 85.04025 -41.104875 L 85.04025 -43.93925 " transform="matrix(1.25,0,0,-1.25,148.2075,130.74)"/>
<path style="fill:none;stroke-width:0.79701;stroke-linecap:butt;stroke-linejoin:miter;stroke:rgb(0%,0%,100%);stroke-opacity:1;stroke-dasharray:2.98883,2.98883;stroke-miterlimit:10;" d="M -0.000375 28.345125 L 85.04025 -42.5205 " transform="matrix(1.25,0,0,-1.25,148.2075,130.74)"/>
</g>
</svg>
