<?xml version="1.0" encoding="UTF-8"?>
<!-- Converted by misc2svg (http://www.network-science.de/tools/misc2svg/) -->
<svg xmlns="http://www.w3.org/2000/svg" xmlns:xlink="http://www.w3.org/1999/xlink" width="155pt" height="127pt" viewBox="0 0 155 127" version="1.1">
<defs>
<clipPath id="clip1">
  <path d="M 7.429688 119.398438 L 7.429688 7.429688 L 147.75 7.429688 L 147.75 119.398438 L 7.429688 119.398438 Z M 7.429688 119.398438 "/>
</clipPath>
</defs>
<g id="misc2svg">
<path style="fill:none;stroke-width:0.79701;stroke-linecap:butt;stroke-linejoin:miter;stroke:rgb(0%,0%,0%);stroke-opacity:1;stroke-miterlimit:10;" d="M -0.001875 9.962 L -0.001875 80.746375 C -0.001875 86.246375 4.460625 90.708875 9.96375 90.708875 L 103.42 90.708875 C 108.92625 90.708875 113.385625 86.246375 113.385625 80.746375 L 113.385625 9.962 C 113.385625 4.462 108.92625 -0.0005 103.42 -0.0005 L 9.96375 -0.0005 C 4.460625 -0.0005 -0.001875 4.462 -0.001875 9.962 Z M -0.001875 9.962 " transform="matrix(1.25,0,0,-1.25,6.725,120.10875)"/>
<g clip-path="url(#clip1)" clip-rule="nonzero">
<path style="fill:none;stroke-width:0.19925;stroke-linecap:butt;stroke-linejoin:miter;stroke:rgb(90.196078%,90.196078%,90.196078%);stroke-opacity:1;stroke-miterlimit:10;" d="M 11.33875 0.56825 L 11.33875 90.14325 " transform="matrix(1.25,0,0,-1.25,6.725,120.10875)"/>
<path style="fill:none;stroke-width:0.19925;stroke-linecap:butt;stroke-linejoin:miter;stroke:rgb(90.196078%,90.196078%,90.196078%);stroke-opacity:1;stroke-miterlimit:10;" d="M 22.679375 0.56825 L 22.679375 90.14325 " transform="matrix(1.25,0,0,-1.25,6.725,120.10875)"/>
<path style="fill:none;stroke-width:0.19925;stroke-linecap:butt;stroke-linejoin:miter;stroke:rgb(90.196078%,90.196078%,90.196078%);stroke-opacity:1;stroke-miterlimit:10;" d="M 34.01375 0.56825 L 34.01375 90.14325 " transform="matrix(1.25,0,0,-1.25,6.725,120.10875)"/>
<path style="fill:none;stroke-width:0.19925;stroke-linecap:butt;stroke-linejoin:miter;stroke:rgb(90.196078%,90.196078%,90.196078%);stroke-opacity:1;stroke-miterlimit:10;" d="M 45.354375 0.56825 L 45.354375 90.14325 " transform="matrix(1.25,0,0,-1.25,6.725,120.10875)"/>
<path style="fill:none;stroke-width:0.19925;stroke-linecap:butt;stroke-linejoin:miter;stroke:rgb(90.196078%,90.196078%,90.196078%);stroke-opacity:1;stroke-miterlimit:10;" d="M 56.695 0.56825 L 56.695 90.14325 " transform="matrix(1.25,0,0,-1.25,6.725,120.10875)"/>
<path style="fill:none;stroke-width:0.19925;stroke-linecap:butt;stroke-linejoin:miter;stroke:rgb(90.196078%,90.196078%,90.196078%);stroke-opacity:1;stroke-miterlimit:10;" d="M 68.029375 0.56825 L 68.029375 90.14325 " transform="matrix(1.25,0,0,-1.25,6.725,120.10875)"/>
<path style="fill:none;stroke-width:0.19925;stroke-linecap:butt;stroke-linejoin:miter;stroke:rgb(90.196078%,90.196078%,90.196078%);stroke-opacity:1;stroke-miterlimit:10;" d="M 79.37 0.56825 L 79.37 90.14325 " transform="matrix(1.25,0,0,-1.25,6.725,120.10875)"/>
<path style="fill:none;stroke-width:0.19925;stroke-linecap:butt;stroke-linejoin:miter;stroke:rgb(90.196078%,90.196078%,90.196078%);stroke-opacity:1;stroke-miterlimit:10;" d="M 90.710625 0.56825 L 90.710625 90.14325 " transform="matrix(1.25,0,0,-1.25,6.725,120.10875)"/>
<path style="fill:none;stroke-width:0.19925;stroke-linecap:butt;stroke-linejoin:miter;stroke:rgb(90.196078%,90.196078%,90.196078%);stroke-opacity:1;stroke-miterlimit:10;" d="M 102.045 0.56825 L 102.045 90.14325 " transform="matrix(1.25,0,0,-1.25,6.725,120.10875)"/>
<path style="fill:none;stroke-width:0.19925;stroke-linecap:butt;stroke-linejoin:miter;stroke:rgb(90.196078%,90.196078%,90.196078%);stroke-opacity:1;stroke-miterlimit:10;" d="M 0.566875 11.337 L 112.82 11.337 " transform="matrix(1.25,0,0,-1.25,6.725,120.10875)"/>
<path style="fill:none;stroke-width:0.19925;stroke-linecap:butt;stroke-linejoin:miter;stroke:rgb(90.196078%,90.196078%,90.196078%);stroke-opacity:1;stroke-miterlimit:10;" d="M 0.566875 22.677625 L 112.82 22.677625 " transform="matrix(1.25,0,0,-1.25,6.725,120.10875)"/>
<path style="fill:none;stroke-width:0.19925;stroke-linecap:butt;stroke-linejoin:miter;stroke:rgb(90.196078%,90.196078%,90.196078%);stroke-opacity:1;stroke-miterlimit:10;" d="M 0.566875 34.01825 L 112.82 34.01825 " transform="matrix(1.25,0,0,-1.25,6.725,120.10875)"/>
<path style="fill:none;stroke-width:0.19925;stroke-linecap:butt;stroke-linejoin:miter;stroke:rgb(90.196078%,90.196078%,90.196078%);stroke-opacity:1;stroke-miterlimit:10;" d="M 0.566875 45.352625 L 112.82 45.352625 " transform="matrix(1.25,0,0,-1.25,6.725,120.10875)"/>
<path style="fill:none;stroke-width:0.19925;stroke-linecap:butt;stroke-linejoin:miter;stroke:rgb(90.196078%,90.196078%,90.196078%);stroke-opacity:1;stroke-miterlimit:10;" d="M 0.566875 56.69325 L 112.82 56.69325 " transform="matrix(1.25,0,0,-1.25,6.725,120.10875)"/>
<path style="fill:none;stroke-width:0.19925;stroke-linecap:butt;stroke-linejoin:miter;stroke:rgb(90.196078%,90.196078%,90.196078%);stroke-opacity:1;stroke-miterlimit:10;" d="M 0.566875 68.033875 L 112.82 68.033875 " transform="matrix(1.25,0,0,-1.25,6.725,120.10875)"/>
<path style="fill:none;stroke-width:0.19925;stroke-linecap:butt;stroke-linejoin:miter;stroke:rgb(90.196078%,90.196078%,90.196078%);stroke-opacity:1;stroke-miterlimit:10;" d="M 0.566875 79.36825 L 112.82 79.36825 " transform="matrix(1.25,0,0,-1.25,6.725,120.10875)"/>
<path style="fill:none;stroke-width:0.19925;stroke-linecap:butt;stroke-linejoin:miter;stroke:rgb(90.196078%,90.196078%,90.196078%);stroke-opacity:1;stroke-miterlimit:10;" d="M 2.27 46.490125 L 2.27 44.221375 " transform="matrix(1.25,0,0,-1.25,6.725,120.10875)"/>
<path style="fill:none;stroke-width:0.19925;stroke-linecap:butt;stroke-linejoin:miter;stroke:rgb(90.196078%,90.196078%,90.196078%);stroke-opacity:1;stroke-miterlimit:10;" d="M 4.535625 46.490125 L 4.535625 44.221375 " transform="matrix(1.25,0,0,-1.25,6.725,120.10875)"/>
<path style="fill:none;stroke-width:0.19925;stroke-linecap:butt;stroke-linejoin:miter;stroke:rgb(90.196078%,90.196078%,90.196078%);stroke-opacity:1;stroke-miterlimit:10;" d="M 6.804375 46.490125 L 6.804375 44.221375 " transform="matrix(1.25,0,0,-1.25,6.725,120.10875)"/>
<path style="fill:none;stroke-width:0.19925;stroke-linecap:butt;stroke-linejoin:miter;stroke:rgb(90.196078%,90.196078%,90.196078%);stroke-opacity:1;stroke-miterlimit:10;" d="M 9.07 46.490125 L 9.07 44.221375 " transform="matrix(1.25,0,0,-1.25,6.725,120.10875)"/>
<path style="fill:none;stroke-width:0.19925;stroke-linecap:butt;stroke-linejoin:miter;stroke:rgb(90.196078%,90.196078%,90.196078%);stroke-opacity:1;stroke-miterlimit:10;" d="M 11.33875 46.490125 L 11.33875 44.221375 " transform="matrix(1.25,0,0,-1.25,6.725,120.10875)"/>
<path style="fill:none;stroke-width:0.19925;stroke-linecap:butt;stroke-linejoin:miter;stroke:rgb(90.196078%,90.196078%,90.196078%);stroke-opacity:1;stroke-miterlimit:10;" d="M 13.604375 46.490125 L 13.604375 44.221375 " transform="matrix(1.25,0,0,-1.25,6.725,120.10875)"/>
<path style="fill:none;stroke-width:0.19925;stroke-linecap:butt;stroke-linejoin:miter;stroke:rgb(90.196078%,90.196078%,90.196078%);stroke-opacity:1;stroke-miterlimit:10;" d="M 15.873125 46.490125 L 15.873125 44.221375 " transform="matrix(1.25,0,0,-1.25,6.725,120.10875)"/>
<path style="fill:none;stroke-width:0.19925;stroke-linecap:butt;stroke-linejoin:miter;stroke:rgb(90.196078%,90.196078%,90.196078%);stroke-opacity:1;stroke-miterlimit:10;" d="M 18.13875 46.490125 L 18.13875 44.221375 " transform="matrix(1.25,0,0,-1.25,6.725,120.10875)"/>
<path style="fill:none;stroke-width:0.19925;stroke-linecap:butt;stroke-linejoin:miter;stroke:rgb(90.196078%,90.196078%,90.196078%);stroke-opacity:1;stroke-miterlimit:10;" d="M 20.410625 46.490125 L 20.410625 44.221375 " transform="matrix(1.25,0,0,-1.25,6.725,120.10875)"/>
<path style="fill:none;stroke-width:0.19925;stroke-linecap:butt;stroke-linejoin:miter;stroke:rgb(90.196078%,90.196078%,90.196078%);stroke-opacity:1;stroke-miterlimit:10;" d="M 22.679375 46.490125 L 22.679375 44.221375 " transform="matrix(1.25,0,0,-1.25,6.725,120.10875)"/>
<path style="fill:none;stroke-width:0.19925;stroke-linecap:butt;stroke-linejoin:miter;stroke:rgb(90.196078%,90.196078%,90.196078%);stroke-opacity:1;stroke-miterlimit:10;" d="M 24.945 46.490125 L 24.945 44.221375 " transform="matrix(1.25,0,0,-1.25,6.725,120.10875)"/>
<path style="fill:none;stroke-width:0.19925;stroke-linecap:butt;stroke-linejoin:miter;stroke:rgb(90.196078%,90.196078%,90.196078%);stroke-opacity:1;stroke-miterlimit:10;" d="M 27.21375 46.490125 L 27.21375 44.221375 " transform="matrix(1.25,0,0,-1.25,6.725,120.10875)"/>
<path style="fill:none;stroke-width:0.19925;stroke-linecap:butt;stroke-linejoin:miter;stroke:rgb(90.196078%,90.196078%,90.196078%);stroke-opacity:1;stroke-miterlimit:10;" d="M 29.479375 46.490125 L 29.479375 44.221375 " transform="matrix(1.25,0,0,-1.25,6.725,120.10875)"/>
<path style="fill:none;stroke-width:0.19925;stroke-linecap:butt;stroke-linejoin:miter;stroke:rgb(90.196078%,90.196078%,90.196078%);stroke-opacity:1;stroke-miterlimit:10;" d="M 31.748125 46.490125 L 31.748125 44.221375 " transform="matrix(1.25,0,0,-1.25,6.725,120.10875)"/>
<path style="fill:none;stroke-width:0.19925;stroke-linecap:butt;stroke-linejoin:miter;stroke:rgb(90.196078%,90.196078%,90.196078%);stroke-opacity:1;stroke-miterlimit:10;" d="M 34.01375 46.490125 L 34.01375 44.221375 " transform="matrix(1.25,0,0,-1.25,6.725,120.10875)"/>
<path style="fill:none;stroke-width:0.19925;stroke-linecap:butt;stroke-linejoin:miter;stroke:rgb(90.196078%,90.196078%,90.196078%);stroke-opacity:1;stroke-miterlimit:10;" d="M 36.2825 46.490125 L 36.2825 44.221375 " transform="matrix(1.25,0,0,-1.25,6.725,120.10875)"/>
<path style="fill:none;stroke-width:0.19925;stroke-linecap:butt;stroke-linejoin:miter;stroke:rgb(90.196078%,90.196078%,90.196078%);stroke-opacity:1;stroke-miterlimit:10;" d="M 38.548125 46.490125 L 38.548125 44.221375 " transform="matrix(1.25,0,0,-1.25,6.725,120.10875)"/>
<path style="fill:none;stroke-width:0.19925;stroke-linecap:butt;stroke-linejoin:miter;stroke:rgb(90.196078%,90.196078%,90.196078%);stroke-opacity:1;stroke-miterlimit:10;" d="M 40.82 46.490125 L 40.82 44.221375 " transform="matrix(1.25,0,0,-1.25,6.725,120.10875)"/>
<path style="fill:none;stroke-width:0.19925;stroke-linecap:butt;stroke-linejoin:miter;stroke:rgb(90.196078%,90.196078%,90.196078%);stroke-opacity:1;stroke-miterlimit:10;" d="M 43.085625 46.490125 L 43.085625 44.221375 " transform="matrix(1.25,0,0,-1.25,6.725,120.10875)"/>
<path style="fill:none;stroke-width:0.19925;stroke-linecap:butt;stroke-linejoin:miter;stroke:rgb(90.196078%,90.196078%,90.196078%);stroke-opacity:1;stroke-miterlimit:10;" d="M 45.354375 46.490125 L 45.354375 44.221375 " transform="matrix(1.25,0,0,-1.25,6.725,120.10875)"/>
<path style="fill:none;stroke-width:0.19925;stroke-linecap:butt;stroke-linejoin:miter;stroke:rgb(90.196078%,90.196078%,90.196078%);stroke-opacity:1;stroke-miterlimit:10;" d="M 47.62 46.490125 L 47.62 44.221375 " transform="matrix(1.25,0,0,-1.25,6.725,120.10875)"/>
<path style="fill:none;stroke-width:0.19925;stroke-linecap:butt;stroke-linejoin:miter;stroke:rgb(90.196078%,90.196078%,90.196078%);stroke-opacity:1;stroke-miterlimit:10;" d="M 49.88875 46.490125 L 49.88875 44.221375 " transform="matrix(1.25,0,0,-1.25,6.725,120.10875)"/>
<path style="fill:none;stroke-width:0.19925;stroke-linecap:butt;stroke-linejoin:miter;stroke:rgb(90.196078%,90.196078%,90.196078%);stroke-opacity:1;stroke-miterlimit:10;" d="M 52.154375 46.490125 L 52.154375 44.221375 " transform="matrix(1.25,0,0,-1.25,6.725,120.10875)"/>
<path style="fill:none;stroke-width:0.19925;stroke-linecap:butt;stroke-linejoin:miter;stroke:rgb(90.196078%,90.196078%,90.196078%);stroke-opacity:1;stroke-miterlimit:10;" d="M 54.423125 46.490125 L 54.423125 44.221375 " transform="matrix(1.25,0,0,-1.25,6.725,120.10875)"/>
<path style="fill:none;stroke-width:0.19925;stroke-linecap:butt;stroke-linejoin:miter;stroke:rgb(90.196078%,90.196078%,90.196078%);stroke-opacity:1;stroke-miterlimit:10;" d="M 56.68875 46.490125 L 56.68875 44.221375 " transform="matrix(1.25,0,0,-1.25,6.725,120.10875)"/>
<path style="fill:none;stroke-width:0.19925;stroke-linecap:butt;stroke-linejoin:miter;stroke:rgb(90.196078%,90.196078%,90.196078%);stroke-opacity:1;stroke-miterlimit:10;" d="M 58.960625 46.490125 L 58.960625 44.221375 " transform="matrix(1.25,0,0,-1.25,6.725,120.10875)"/>
<path style="fill:none;stroke-width:0.19925;stroke-linecap:butt;stroke-linejoin:miter;stroke:rgb(90.196078%,90.196078%,90.196078%);stroke-opacity:1;stroke-miterlimit:10;" d="M 61.22625 46.490125 L 61.22625 44.221375 " transform="matrix(1.25,0,0,-1.25,6.725,120.10875)"/>
<path style="fill:none;stroke-width:0.19925;stroke-linecap:butt;stroke-linejoin:miter;stroke:rgb(90.196078%,90.196078%,90.196078%);stroke-opacity:1;stroke-miterlimit:10;" d="M 63.495 46.490125 L 63.495 44.221375 " transform="matrix(1.25,0,0,-1.25,6.725,120.10875)"/>
<path style="fill:none;stroke-width:0.19925;stroke-linecap:butt;stroke-linejoin:miter;stroke:rgb(90.196078%,90.196078%,90.196078%);stroke-opacity:1;stroke-miterlimit:10;" d="M 65.760625 46.490125 L 65.760625 44.221375 " transform="matrix(1.25,0,0,-1.25,6.725,120.10875)"/>
<path style="fill:none;stroke-width:0.19925;stroke-linecap:butt;stroke-linejoin:miter;stroke:rgb(90.196078%,90.196078%,90.196078%);stroke-opacity:1;stroke-miterlimit:10;" d="M 68.029375 46.490125 L 68.029375 44.221375 " transform="matrix(1.25,0,0,-1.25,6.725,120.10875)"/>
<path style="fill:none;stroke-width:0.19925;stroke-linecap:butt;stroke-linejoin:miter;stroke:rgb(90.196078%,90.196078%,90.196078%);stroke-opacity:1;stroke-miterlimit:10;" d="M 70.30125 46.490125 L 70.30125 44.221375 " transform="matrix(1.25,0,0,-1.25,6.725,120.10875)"/>
<path style="fill:none;stroke-width:0.19925;stroke-linecap:butt;stroke-linejoin:miter;stroke:rgb(90.196078%,90.196078%,90.196078%);stroke-opacity:1;stroke-miterlimit:10;" d="M 72.566875 46.490125 L 72.566875 44.221375 " transform="matrix(1.25,0,0,-1.25,6.725,120.10875)"/>
<path style="fill:none;stroke-width:0.19925;stroke-linecap:butt;stroke-linejoin:miter;stroke:rgb(90.196078%,90.196078%,90.196078%);stroke-opacity:1;stroke-miterlimit:10;" d="M 74.835625 46.490125 L 74.835625 44.221375 " transform="matrix(1.25,0,0,-1.25,6.725,120.10875)"/>
<path style="fill:none;stroke-width:0.19925;stroke-linecap:butt;stroke-linejoin:miter;stroke:rgb(90.196078%,90.196078%,90.196078%);stroke-opacity:1;stroke-miterlimit:10;" d="M 77.10125 46.490125 L 77.10125 44.221375 " transform="matrix(1.25,0,0,-1.25,6.725,120.10875)"/>
<path style="fill:none;stroke-width:0.19925;stroke-linecap:butt;stroke-linejoin:miter;stroke:rgb(90.196078%,90.196078%,90.196078%);stroke-opacity:1;stroke-miterlimit:10;" d="M 79.37 46.490125 L 79.37 44.221375 " transform="matrix(1.25,0,0,-1.25,6.725,120.10875)"/>
<path style="fill:none;stroke-width:0.19925;stroke-linecap:butt;stroke-linejoin:miter;stroke:rgb(90.196078%,90.196078%,90.196078%);stroke-opacity:1;stroke-miterlimit:10;" d="M 81.635625 46.490125 L 81.635625 44.221375 " transform="matrix(1.25,0,0,-1.25,6.725,120.10875)"/>
<path style="fill:none;stroke-width:0.19925;stroke-linecap:butt;stroke-linejoin:miter;stroke:rgb(90.196078%,90.196078%,90.196078%);stroke-opacity:1;stroke-miterlimit:10;" d="M 83.904375 46.490125 L 83.904375 44.221375 " transform="matrix(1.25,0,0,-1.25,6.725,120.10875)"/>
<path style="fill:none;stroke-width:0.19925;stroke-linecap:butt;stroke-linejoin:miter;stroke:rgb(90.196078%,90.196078%,90.196078%);stroke-opacity:1;stroke-miterlimit:10;" d="M 86.17 46.490125 L 86.17 44.221375 " transform="matrix(1.25,0,0,-1.25,6.725,120.10875)"/>
<path style="fill:none;stroke-width:0.19925;stroke-linecap:butt;stroke-linejoin:miter;stroke:rgb(90.196078%,90.196078%,90.196078%);stroke-opacity:1;stroke-miterlimit:10;" d="M 88.441875 46.490125 L 88.441875 44.221375 " transform="matrix(1.25,0,0,-1.25,6.725,120.10875)"/>
<path style="fill:none;stroke-width:0.19925;stroke-linecap:butt;stroke-linejoin:miter;stroke:rgb(90.196078%,90.196078%,90.196078%);stroke-opacity:1;stroke-miterlimit:10;" d="M 90.7075 46.490125 L 90.7075 44.221375 " transform="matrix(1.25,0,0,-1.25,6.725,120.10875)"/>
<path style="fill:none;stroke-width:0.19925;stroke-linecap:butt;stroke-linejoin:miter;stroke:rgb(90.196078%,90.196078%,90.196078%);stroke-opacity:1;stroke-miterlimit:10;" d="M 92.97625 46.490125 L 92.97625 44.221375 " transform="matrix(1.25,0,0,-1.25,6.725,120.10875)"/>
<path style="fill:none;stroke-width:0.19925;stroke-linecap:butt;stroke-linejoin:miter;stroke:rgb(90.196078%,90.196078%,90.196078%);stroke-opacity:1;stroke-miterlimit:10;" d="M 95.241875 46.490125 L 95.241875 44.221375 " transform="matrix(1.25,0,0,-1.25,6.725,120.10875)"/>
<path style="fill:none;stroke-width:0.19925;stroke-linecap:butt;stroke-linejoin:miter;stroke:rgb(90.196078%,90.196078%,90.196078%);stroke-opacity:1;stroke-miterlimit:10;" d="M 97.510625 46.490125 L 97.510625 44.221375 " transform="matrix(1.25,0,0,-1.25,6.725,120.10875)"/>
<path style="fill:none;stroke-width:0.19925;stroke-linecap:butt;stroke-linejoin:miter;stroke:rgb(90.196078%,90.196078%,90.196078%);stroke-opacity:1;stroke-miterlimit:10;" d="M 99.77625 46.490125 L 99.77625 44.221375 " transform="matrix(1.25,0,0,-1.25,6.725,120.10875)"/>
<path style="fill:none;stroke-width:0.19925;stroke-linecap:butt;stroke-linejoin:miter;stroke:rgb(90.196078%,90.196078%,90.196078%);stroke-opacity:1;stroke-miterlimit:10;" d="M 102.045 46.490125 L 102.045 44.221375 " transform="matrix(1.25,0,0,-1.25,6.725,120.10875)"/>
<path style="fill:none;stroke-width:0.19925;stroke-linecap:butt;stroke-linejoin:miter;stroke:rgb(90.196078%,90.196078%,90.196078%);stroke-opacity:1;stroke-miterlimit:10;" d="M 104.310625 46.490125 L 104.310625 44.221375 " transform="matrix(1.25,0,0,-1.25,6.725,120.10875)"/>
<path style="fill:none;stroke-width:0.19925;stroke-linecap:butt;stroke-linejoin:miter;stroke:rgb(90.196078%,90.196078%,90.196078%);stroke-opacity:1;stroke-miterlimit:10;" d="M 106.5825 46.490125 L 106.5825 44.221375 " transform="matrix(1.25,0,0,-1.25,6.725,120.10875)"/>
<path style="fill:none;stroke-width:0.19925;stroke-linecap:butt;stroke-linejoin:miter;stroke:rgb(90.196078%,90.196078%,90.196078%);stroke-opacity:1;stroke-miterlimit:10;" d="M 108.848125 46.490125 L 108.848125 44.221375 " transform="matrix(1.25,0,0,-1.25,6.725,120.10875)"/>
<path style="fill:none;stroke-width:0.19925;stroke-linecap:butt;stroke-linejoin:miter;stroke:rgb(90.196078%,90.196078%,90.196078%);stroke-opacity:1;stroke-miterlimit:10;" d="M 111.116875 46.490125 L 111.116875 44.221375 " transform="matrix(1.25,0,0,-1.25,6.725,120.10875)"/>
<path style="fill:none;stroke-width:0.19925;stroke-linecap:butt;stroke-linejoin:miter;stroke:rgb(90.196078%,90.196078%,90.196078%);stroke-opacity:1;stroke-miterlimit:10;" d="M 57.82625 2.26825 L 55.5575 2.26825 " transform="matrix(1.25,0,0,-1.25,6.725,120.10875)"/>
<path style="fill:none;stroke-width:0.19925;stroke-linecap:butt;stroke-linejoin:miter;stroke:rgb(90.196078%,90.196078%,90.196078%);stroke-opacity:1;stroke-miterlimit:10;" d="M 57.82625 4.537 L 55.5575 4.537 " transform="matrix(1.25,0,0,-1.25,6.725,120.10875)"/>
<path style="fill:none;stroke-width:0.19925;stroke-linecap:butt;stroke-linejoin:miter;stroke:rgb(90.196078%,90.196078%,90.196078%);stroke-opacity:1;stroke-miterlimit:10;" d="M 57.82625 6.802625 L 55.5575 6.802625 " transform="matrix(1.25,0,0,-1.25,6.725,120.10875)"/>
<path style="fill:none;stroke-width:0.19925;stroke-linecap:butt;stroke-linejoin:miter;stroke:rgb(90.196078%,90.196078%,90.196078%);stroke-opacity:1;stroke-miterlimit:10;" d="M 57.82625 9.071375 L 55.5575 9.071375 " transform="matrix(1.25,0,0,-1.25,6.725,120.10875)"/>
<path style="fill:none;stroke-width:0.19925;stroke-linecap:butt;stroke-linejoin:miter;stroke:rgb(90.196078%,90.196078%,90.196078%);stroke-opacity:1;stroke-miterlimit:10;" d="M 57.82625 11.337 L 55.5575 11.337 " transform="matrix(1.25,0,0,-1.25,6.725,120.10875)"/>
<path style="fill:none;stroke-width:0.19925;stroke-linecap:butt;stroke-linejoin:miter;stroke:rgb(90.196078%,90.196078%,90.196078%);stroke-opacity:1;stroke-miterlimit:10;" d="M 57.82625 13.60575 L 55.5575 13.60575 " transform="matrix(1.25,0,0,-1.25,6.725,120.10875)"/>
<path style="fill:none;stroke-width:0.19925;stroke-linecap:butt;stroke-linejoin:miter;stroke:rgb(90.196078%,90.196078%,90.196078%);stroke-opacity:1;stroke-miterlimit:10;" d="M 57.82625 15.871375 L 55.5575 15.871375 " transform="matrix(1.25,0,0,-1.25,6.725,120.10875)"/>
<path style="fill:none;stroke-width:0.19925;stroke-linecap:butt;stroke-linejoin:miter;stroke:rgb(90.196078%,90.196078%,90.196078%);stroke-opacity:1;stroke-miterlimit:10;" d="M 57.82625 18.14325 L 55.5575 18.14325 " transform="matrix(1.25,0,0,-1.25,6.725,120.10875)"/>
<path style="fill:none;stroke-width:0.19925;stroke-linecap:butt;stroke-linejoin:miter;stroke:rgb(90.196078%,90.196078%,90.196078%);stroke-opacity:1;stroke-miterlimit:10;" d="M 57.82625 20.408875 L 55.5575 20.408875 " transform="matrix(1.25,0,0,-1.25,6.725,120.10875)"/>
<path style="fill:none;stroke-width:0.19925;stroke-linecap:butt;stroke-linejoin:miter;stroke:rgb(90.196078%,90.196078%,90.196078%);stroke-opacity:1;stroke-miterlimit:10;" d="M 57.82625 22.677625 L 55.5575 22.677625 " transform="matrix(1.25,0,0,-1.25,6.725,120.10875)"/>
<path style="fill:none;stroke-width:0.19925;stroke-linecap:butt;stroke-linejoin:miter;stroke:rgb(90.196078%,90.196078%,90.196078%);stroke-opacity:1;stroke-miterlimit:10;" d="M 57.82625 24.94325 L 55.5575 24.94325 " transform="matrix(1.25,0,0,-1.25,6.725,120.10875)"/>
<path style="fill:none;stroke-width:0.19925;stroke-linecap:butt;stroke-linejoin:miter;stroke:rgb(90.196078%,90.196078%,90.196078%);stroke-opacity:1;stroke-miterlimit:10;" d="M 57.82625 27.212 L 55.5575 27.212 " transform="matrix(1.25,0,0,-1.25,6.725,120.10875)"/>
<path style="fill:none;stroke-width:0.19925;stroke-linecap:butt;stroke-linejoin:miter;stroke:rgb(90.196078%,90.196078%,90.196078%);stroke-opacity:1;stroke-miterlimit:10;" d="M 57.82625 29.48075 L 55.5575 29.48075 " transform="matrix(1.25,0,0,-1.25,6.725,120.10875)"/>
<path style="fill:none;stroke-width:0.19925;stroke-linecap:butt;stroke-linejoin:miter;stroke:rgb(90.196078%,90.196078%,90.196078%);stroke-opacity:1;stroke-miterlimit:10;" d="M 57.82625 31.746375 L 55.5575 31.746375 " transform="matrix(1.25,0,0,-1.25,6.725,120.10875)"/>
<path style="fill:none;stroke-width:0.19925;stroke-linecap:butt;stroke-linejoin:miter;stroke:rgb(90.196078%,90.196078%,90.196078%);stroke-opacity:1;stroke-miterlimit:10;" d="M 57.82625 34.01825 L 55.5575 34.01825 " transform="matrix(1.25,0,0,-1.25,6.725,120.10875)"/>
<path style="fill:none;stroke-width:0.19925;stroke-linecap:butt;stroke-linejoin:miter;stroke:rgb(90.196078%,90.196078%,90.196078%);stroke-opacity:1;stroke-miterlimit:10;" d="M 57.82625 36.283875 L 55.5575 36.283875 " transform="matrix(1.25,0,0,-1.25,6.725,120.10875)"/>
<path style="fill:none;stroke-width:0.19925;stroke-linecap:butt;stroke-linejoin:miter;stroke:rgb(90.196078%,90.196078%,90.196078%);stroke-opacity:1;stroke-miterlimit:10;" d="M 57.82625 38.552625 L 55.5575 38.552625 " transform="matrix(1.25,0,0,-1.25,6.725,120.10875)"/>
<path style="fill:none;stroke-width:0.19925;stroke-linecap:butt;stroke-linejoin:miter;stroke:rgb(90.196078%,90.196078%,90.196078%);stroke-opacity:1;stroke-miterlimit:10;" d="M 57.82625 40.81825 L 55.5575 40.81825 " transform="matrix(1.25,0,0,-1.25,6.725,120.10875)"/>
<path style="fill:none;stroke-width:0.19925;stroke-linecap:butt;stroke-linejoin:miter;stroke:rgb(90.196078%,90.196078%,90.196078%);stroke-opacity:1;stroke-miterlimit:10;" d="M 57.82625 43.087 L 55.5575 43.087 " transform="matrix(1.25,0,0,-1.25,6.725,120.10875)"/>
<path style="fill:none;stroke-width:0.19925;stroke-linecap:butt;stroke-linejoin:miter;stroke:rgb(90.196078%,90.196078%,90.196078%);stroke-opacity:1;stroke-miterlimit:10;" d="M 57.82625 45.352625 L 55.5575 45.352625 " transform="matrix(1.25,0,0,-1.25,6.725,120.10875)"/>
<path style="fill:none;stroke-width:0.19925;stroke-linecap:butt;stroke-linejoin:miter;stroke:rgb(90.196078%,90.196078%,90.196078%);stroke-opacity:1;stroke-miterlimit:10;" d="M 57.82625 47.621375 L 55.5575 47.621375 " transform="matrix(1.25,0,0,-1.25,6.725,120.10875)"/>
<path style="fill:none;stroke-width:0.19925;stroke-linecap:butt;stroke-linejoin:miter;stroke:rgb(90.196078%,90.196078%,90.196078%);stroke-opacity:1;stroke-miterlimit:10;" d="M 57.82625 49.887 L 55.5575 49.887 " transform="matrix(1.25,0,0,-1.25,6.725,120.10875)"/>
<path style="fill:none;stroke-width:0.19925;stroke-linecap:butt;stroke-linejoin:miter;stroke:rgb(90.196078%,90.196078%,90.196078%);stroke-opacity:1;stroke-miterlimit:10;" d="M 57.82625 52.158875 L 55.5575 52.158875 " transform="matrix(1.25,0,0,-1.25,6.725,120.10875)"/>
<path style="fill:none;stroke-width:0.19925;stroke-linecap:butt;stroke-linejoin:miter;stroke:rgb(90.196078%,90.196078%,90.196078%);stroke-opacity:1;stroke-miterlimit:10;" d="M 57.82625 54.4245 L 55.5575 54.4245 " transform="matrix(1.25,0,0,-1.25,6.725,120.10875)"/>
<path style="fill:none;stroke-width:0.19925;stroke-linecap:butt;stroke-linejoin:miter;stroke:rgb(90.196078%,90.196078%,90.196078%);stroke-opacity:1;stroke-miterlimit:10;" d="M 57.82625 56.69325 L 55.5575 56.69325 " transform="matrix(1.25,0,0,-1.25,6.725,120.10875)"/>
<path style="fill:none;stroke-width:0.19925;stroke-linecap:butt;stroke-linejoin:miter;stroke:rgb(90.196078%,90.196078%,90.196078%);stroke-opacity:1;stroke-miterlimit:10;" d="M 57.82625 58.958875 L 55.5575 58.958875 " transform="matrix(1.25,0,0,-1.25,6.725,120.10875)"/>
<path style="fill:none;stroke-width:0.19925;stroke-linecap:butt;stroke-linejoin:miter;stroke:rgb(90.196078%,90.196078%,90.196078%);stroke-opacity:1;stroke-miterlimit:10;" d="M 57.82625 61.227625 L 55.5575 61.227625 " transform="matrix(1.25,0,0,-1.25,6.725,120.10875)"/>
<path style="fill:none;stroke-width:0.19925;stroke-linecap:butt;stroke-linejoin:miter;stroke:rgb(90.196078%,90.196078%,90.196078%);stroke-opacity:1;stroke-miterlimit:10;" d="M 57.82625 63.49325 L 55.5575 63.49325 " transform="matrix(1.25,0,0,-1.25,6.725,120.10875)"/>
<path style="fill:none;stroke-width:0.19925;stroke-linecap:butt;stroke-linejoin:miter;stroke:rgb(90.196078%,90.196078%,90.196078%);stroke-opacity:1;stroke-miterlimit:10;" d="M 57.82625 65.762 L 55.5575 65.762 " transform="matrix(1.25,0,0,-1.25,6.725,120.10875)"/>
<path style="fill:none;stroke-width:0.19925;stroke-linecap:butt;stroke-linejoin:miter;stroke:rgb(90.196078%,90.196078%,90.196078%);stroke-opacity:1;stroke-miterlimit:10;" d="M 57.82625 68.027625 L 55.5575 68.027625 " transform="matrix(1.25,0,0,-1.25,6.725,120.10875)"/>
<path style="fill:none;stroke-width:0.19925;stroke-linecap:butt;stroke-linejoin:miter;stroke:rgb(90.196078%,90.196078%,90.196078%);stroke-opacity:1;stroke-miterlimit:10;" d="M 57.82625 70.2995 L 55.5575 70.2995 " transform="matrix(1.25,0,0,-1.25,6.725,120.10875)"/>
<path style="fill:none;stroke-width:0.19925;stroke-linecap:butt;stroke-linejoin:miter;stroke:rgb(90.196078%,90.196078%,90.196078%);stroke-opacity:1;stroke-miterlimit:10;" d="M 57.82625 72.56825 L 55.5575 72.56825 " transform="matrix(1.25,0,0,-1.25,6.725,120.10875)"/>
<path style="fill:none;stroke-width:0.19925;stroke-linecap:butt;stroke-linejoin:miter;stroke:rgb(90.196078%,90.196078%,90.196078%);stroke-opacity:1;stroke-miterlimit:10;" d="M 57.82625 74.833875 L 55.5575 74.833875 " transform="matrix(1.25,0,0,-1.25,6.725,120.10875)"/>
<path style="fill:none;stroke-width:0.19925;stroke-linecap:butt;stroke-linejoin:miter;stroke:rgb(90.196078%,90.196078%,90.196078%);stroke-opacity:1;stroke-miterlimit:10;" d="M 57.82625 77.102625 L 55.5575 77.102625 " transform="matrix(1.25,0,0,-1.25,6.725,120.10875)"/>
<path style="fill:none;stroke-width:0.19925;stroke-linecap:butt;stroke-linejoin:miter;stroke:rgb(90.196078%,90.196078%,90.196078%);stroke-opacity:1;stroke-miterlimit:10;" d="M 57.82625 79.36825 L 55.5575 79.36825 " transform="matrix(1.25,0,0,-1.25,6.725,120.10875)"/>
<path style="fill:none;stroke-width:0.19925;stroke-linecap:butt;stroke-linejoin:miter;stroke:rgb(90.196078%,90.196078%,90.196078%);stroke-opacity:1;stroke-miterlimit:10;" d="M 57.82625 81.637 L 55.5575 81.637 " transform="matrix(1.25,0,0,-1.25,6.725,120.10875)"/>
<path style="fill:none;stroke-width:0.19925;stroke-linecap:butt;stroke-linejoin:miter;stroke:rgb(90.196078%,90.196078%,90.196078%);stroke-opacity:1;stroke-miterlimit:10;" d="M 57.82625 83.902625 L 55.5575 83.902625 " transform="matrix(1.25,0,0,-1.25,6.725,120.10875)"/>
<path style="fill:none;stroke-width:0.19925;stroke-linecap:butt;stroke-linejoin:miter;stroke:rgb(90.196078%,90.196078%,90.196078%);stroke-opacity:1;stroke-miterlimit:10;" d="M 57.82625 86.1745 L 55.5575 86.1745 " transform="matrix(1.25,0,0,-1.25,6.725,120.10875)"/>
<path style="fill:none;stroke-width:0.19925;stroke-linecap:butt;stroke-linejoin:miter;stroke:rgb(90.196078%,90.196078%,90.196078%);stroke-opacity:1;stroke-miterlimit:10;" d="M 57.82625 88.440125 L 55.5575 88.440125 " transform="matrix(1.25,0,0,-1.25,6.725,120.10875)"/>
<path style="fill:none;stroke-width:0.79701;stroke-linecap:butt;stroke-linejoin:miter;stroke:rgb(0%,100%,0%);stroke-opacity:1;stroke-miterlimit:10;" d="M -0.001875 45.352625 C -0.001875 45.352625 0.55125 45.833875 0.760625 46.01825 C 0.973125 46.1995 1.310625 46.49325 1.523125 46.677625 C 1.7325 46.862 2.073125 47.152625 2.285625 47.337 C 2.495 47.521375 2.8325 47.815125 3.041875 47.996375 C 3.254375 48.18075 3.591875 48.4745 3.804375 48.658875 C 4.01375 48.837 4.354375 49.13075 4.566875 49.315125 C 4.77625 49.49325 5.116875 49.787 5.32625 49.965125 C 5.53875 50.146375 5.879375 50.440125 6.08875 50.61825 C 6.30125 50.7995 6.635625 51.087 6.848125 51.26825 C 7.0575 51.446375 7.398125 51.737 7.6075 51.915125 C 7.82 52.090125 8.160625 52.377625 8.37 52.55575 C 8.5825 52.73075 8.92 53.01825 9.1325 53.19325 C 9.341875 53.371375 9.6825 53.652625 9.895 53.83075 C 10.104375 54.002625 10.441875 54.283875 10.65125 54.458875 C 10.86375 54.63075 11.20125 54.912 11.41375 55.083875 C 11.623125 55.25575 11.96375 55.527625 12.17625 55.6995 C 12.385625 55.871375 12.72625 56.146375 12.935625 56.315125 C 13.148125 56.48075 13.4825 56.75575 13.698125 56.9245 C 13.910625 57.090125 14.245 57.35575 14.4575 57.521375 C 14.666875 57.690125 15.0075 57.95575 15.216875 58.11825 C 15.429375 58.283875 15.77 58.54325 15.979375 58.70575 C 16.191875 58.86825 16.529375 59.127625 16.741875 59.287 C 16.95125 59.446375 17.28875 59.6995 17.504375 59.85575 C 17.71375 60.01825 18.05125 60.26825 18.260625 60.4245 C 18.473125 60.58075 18.810625 60.8245 19.023125 60.977625 C 19.2325 61.133875 19.573125 61.377625 19.785625 61.527625 C 19.995 61.677625 20.335625 61.91825 20.545 62.06825 C 20.7575 62.215125 21.091875 62.4495 21.304375 62.596375 C 21.52 62.74325 21.854375 62.9745 22.066875 63.11825 C 22.27625 63.258875 22.616875 63.490125 22.82625 63.63075 C 23.03875 63.76825 23.379375 63.990125 23.58875 64.13075 C 23.80125 64.26825 24.13875 64.487 24.35125 64.61825 C 24.560625 64.75575 24.898125 64.971375 25.1075 65.0995 C 25.32 65.23075 25.660625 65.44325 25.87 65.56825 C 26.0825 65.696375 26.42 65.902625 26.6325 66.027625 C 26.841875 66.152625 27.1825 66.352625 27.395 66.4745 C 27.604375 66.5995 27.945 66.790125 28.154375 66.912 C 28.366875 67.027625 28.70125 67.221375 28.91375 67.333875 C 29.123125 67.4495 29.46375 67.633875 29.67625 67.746375 C 29.885625 67.862 30.22625 68.037 30.435625 68.146375 C 30.648125 68.25575 30.98875 68.427625 31.198125 68.533875 C 31.410625 68.637 31.748125 68.80575 31.960625 68.908875 C 32.17 69.008875 32.5075 69.1745 32.716875 69.271375 C 32.929375 69.36825 33.266875 69.5245 33.479375 69.61825 C 33.68875 69.712 34.029375 69.865125 34.241875 69.95575 C 34.45125 70.0495 34.791875 70.190125 35.00125 70.277625 C 35.21375 70.365125 35.548125 70.502625 35.76375 70.587 C 35.97625 70.66825 36.310625 70.802625 36.523125 70.88075 C 36.7325 70.958875 37.073125 71.083875 37.2825 71.162 C 37.495 71.237 37.835625 71.35575 38.045 71.427625 C 38.2575 71.502625 38.595 71.612 38.8075 71.68075 C 39.016875 71.746375 39.354375 71.852625 39.56375 71.91825 C 39.779375 71.98075 40.116875 72.083875 40.32625 72.14325 C 40.53875 72.20575 40.87625 72.29325 41.08875 72.352625 C 41.298125 72.408875 41.63875 72.49325 41.85125 72.54325 C 42.060625 72.5995 42.40125 72.677625 42.610625 72.7245 C 42.823125 72.7745 43.1575 72.846375 43.37 72.887 C 43.585625 72.933875 43.92 73.002625 44.1325 73.040125 C 44.341875 73.08075 44.6825 73.137 44.891875 73.1745 C 45.104375 73.208875 45.445 73.262 45.654375 73.29325 C 45.866875 73.3245 46.204375 73.36825 46.416875 73.396375 C 46.62625 73.4245 46.96375 73.462 47.173125 73.487 C 47.385625 73.508875 47.72625 73.540125 47.935625 73.558875 C 48.148125 73.5745 48.485625 73.602625 48.698125 73.61825 C 48.9075 73.63075 49.248125 73.6495 49.460625 73.662 C 49.67 73.66825 50.010625 73.68075 50.22 73.690125 C 50.4325 73.69325 50.766875 73.696375 50.979375 73.6995 C 51.18875 73.6995 51.529375 73.6995 51.741875 73.696375 C 51.95125 73.69325 52.291875 73.683875 52.50125 73.677625 C 52.71375 73.66825 53.054375 73.652625 53.26375 73.64325 C 53.47625 73.63075 53.81375 73.60575 54.02625 73.590125 C 54.235625 73.5745 54.573125 73.5495 54.7825 73.5245 C 54.995 73.50575 55.335625 73.471375 55.545 73.446375 C 55.7575 73.41825 56.095 73.38075 56.3075 73.3495 C 56.516875 73.321375 56.8575 73.271375 57.07 73.237 C 57.279375 73.20575 57.616875 73.1495 57.829375 73.112 C 58.041875 73.0745 58.37625 73.012 58.58875 72.971375 C 58.798125 72.927625 59.13875 72.85575 59.35125 72.815125 C 59.560625 72.76825 59.90125 72.690125 60.110625 72.64325 C 60.323125 72.590125 60.66375 72.508875 60.873125 72.45575 C 61.085625 72.3995 61.42 72.308875 61.6325 72.252625 C 61.845 72.196375 62.1825 72.0995 62.391875 72.037 C 62.604375 71.9745 62.945 71.871375 63.154375 71.80575 C 63.366875 71.740125 63.704375 71.63075 63.916875 71.558875 C 64.129375 71.490125 64.466875 71.377625 64.679375 71.302625 C 64.88875 71.227625 65.22625 71.10575 65.435625 71.027625 C 65.65125 70.9495 65.98875 70.821375 66.198125 70.740125 C 66.410625 70.658875 66.748125 70.5245 66.960625 70.440125 C 67.17 70.352625 67.510625 70.212 67.723125 70.127625 C 67.9325 70.037 68.273125 69.887 68.4825 69.79325 C 68.695 69.6995 69.029375 69.552625 69.241875 69.45575 C 69.45125 69.35575 69.791875 69.1995 70.004375 69.0995 C 70.21375 68.996375 70.554375 68.833875 70.76375 68.73075 C 70.97625 68.627625 71.316875 68.458875 71.52625 68.3495 C 71.73875 68.24325 72.07625 68.06825 72.28875 67.958875 C 72.498125 67.846375 72.835625 67.665125 73.045 67.552625 C 73.2575 67.433875 73.598125 67.252625 73.8075 67.133875 C 74.02 67.01825 74.3575 66.8245 74.57 66.70575 C 74.779375 66.583875 75.12 66.383875 75.3325 66.262 C 75.541875 66.137 75.879375 65.933875 76.091875 65.808875 C 76.304375 65.68075 76.63875 65.477625 76.85125 65.346375 C 77.060625 65.215125 77.40125 65.00575 77.61375 64.871375 C 77.823125 64.740125 78.16375 64.521375 78.373125 64.383875 C 78.585625 64.252625 78.92625 64.027625 79.135625 63.89325 C 79.348125 63.752625 79.6825 63.5245 79.898125 63.383875 C 80.1075 63.24325 80.445 63.012 80.654375 62.86825 C 80.866875 62.7245 81.2075 62.490125 81.416875 62.346375 C 81.629375 62.196375 81.966875 61.958875 82.179375 61.808875 C 82.38875 61.658875 82.729375 61.41825 82.941875 61.26825 C 83.15125 61.115125 83.48875 60.86825 83.698125 60.712 C 83.91375 60.558875 84.248125 60.308875 84.460625 60.152625 C 84.67 59.996375 85.010625 59.74325 85.223125 59.583875 C 85.4325 59.427625 85.773125 59.16825 85.9825 59.008875 C 86.195 58.846375 86.535625 58.587 86.745 58.4245 C 86.9575 58.258875 87.291875 57.996375 87.504375 57.833875 C 87.71375 57.66825 88.054375 57.402625 88.26375 57.237 C 88.47625 57.06825 88.816875 56.7995 89.02625 56.63075 C 89.23875 56.462 89.57625 56.19325 89.78875 56.021375 C 89.998125 55.8495 90.33875 55.5745 90.55125 55.402625 C 90.760625 55.23075 91.098125 54.95575 91.3075 54.783875 C 91.52 54.612 91.8575 54.33075 92.07 54.158875 C 92.279375 53.98075 92.62 53.6995 92.8325 53.5245 C 93.041875 53.3495 93.3825 53.065125 93.591875 52.887 C 93.804375 52.712 94.145 52.427625 94.354375 52.246375 C 94.566875 52.071375 94.90125 51.783875 95.11375 51.602625 C 95.323125 51.427625 95.66375 51.137 95.873125 50.958875 C 96.085625 50.777625 96.42625 50.487 96.635625 50.30575 C 96.848125 50.127625 97.185625 49.837 97.398125 49.652625 C 97.6075 49.4745 97.945 49.18075 98.160625 48.996375 C 98.37 48.81825 98.7075 48.5245 98.916875 48.340125 C 99.129375 48.158875 99.466875 47.865125 99.679375 47.68075 C 99.88875 47.496375 100.229375 47.20575 100.441875 47.021375 C 100.65125 46.837 100.991875 46.54325 101.20125 46.362 C 101.41375 46.177625 101.748125 45.883875 101.96375 45.6995 C 102.17625 45.51825 102.510625 45.221375 102.723125 45.037 C 102.9325 44.852625 103.273125 44.558875 103.4825 44.377625 C 103.695 44.19325 104.035625 43.896375 104.245 43.712 C 104.4575 43.527625 104.795 43.237 105.0075 43.052625 C 105.216875 42.871375 105.554375 42.58075 105.76375 42.396375 C 105.979375 42.212 106.316875 41.91825 106.52625 41.740125 C 106.73875 41.55575 107.07625 41.262 107.28875 41.083875 C 107.498125 40.8995 107.83875 40.612 108.05125 40.427625 C 108.260625 40.246375 108.60125 39.958875 108.810625 39.777625 C 109.023125 39.5995 109.3575 39.308875 109.57 39.13075 C 109.779375 38.9495 110.12 38.665125 110.3325 38.487 C 110.541875 38.308875 110.8825 38.0245 111.091875 37.846375 C 111.304375 37.66825 111.645 37.383875 111.854375 37.208875 C 112.066875 37.033875 112.404375 36.752625 112.616875 36.58075 C 112.82625 36.402625 113.373125 35.9495 113.373125 35.9495 " transform="matrix(1.25,0,0,-1.25,6.725,120.10875)"/>
<path style="fill:none;stroke-width:0.79701;stroke-linecap:butt;stroke-linejoin:miter;stroke:rgb(0%,100%,0%);stroke-opacity:1;stroke-dasharray:2.98883,2.98883;stroke-miterlimit:10;" d="M -0.001875 24.946375 C -0.001875 24.946375 0.55125 24.946375 0.760625 24.9495 C 0.973125 24.95575 1.310625 24.962 1.523125 24.971375 C 1.7325 24.9745 2.073125 24.987 2.285625 24.996375 C 2.495 25.00575 2.8325 25.021375 3.041875 25.037 C 3.254375 25.0495 3.591875 25.071375 3.804375 25.083875 C 4.01375 25.0995 4.354375 25.127625 4.566875 25.146375 C 4.77625 25.165125 5.116875 25.196375 5.32625 25.221375 C 5.53875 25.240125 5.879375 25.2745 6.08875 25.302625 C 6.30125 25.3245 6.635625 25.36825 6.848125 25.396375 C 7.0575 25.4245 7.398125 25.471375 7.6075 25.502625 C 7.82 25.533875 8.160625 25.583875 8.37 25.615125 C 8.5825 25.6495 8.92 25.70575 9.1325 25.74325 C 9.341875 25.777625 9.6825 25.840125 9.895 25.88075 C 10.104375 25.91825 10.441875 25.987 10.65125 26.027625 C 10.86375 26.06825 11.20125 26.137 11.41375 26.183875 C 11.623125 26.23075 11.96375 26.30575 12.17625 26.352625 C 12.385625 26.402625 12.72625 26.48075 12.935625 26.533875 C 13.148125 26.583875 13.4825 26.66825 13.698125 26.7245 C 13.910625 26.777625 14.245 26.865125 14.4575 26.9245 C 14.666875 26.977625 15.0075 27.071375 15.216875 27.13075 C 15.429375 27.19325 15.77 27.290125 15.979375 27.352625 C 16.191875 27.415125 16.529375 27.51825 16.741875 27.583875 C 16.95125 27.646375 17.28875 27.752625 17.504375 27.821375 C 17.71375 27.887 18.05125 27.996375 18.260625 28.06825 C 18.473125 28.137 18.810625 28.25575 19.023125 28.3245 C 19.2325 28.3995 19.573125 28.51825 19.785625 28.596375 C 19.995 28.66825 20.335625 28.79325 20.545 28.871375 C 20.7575 28.9495 21.091875 29.0745 21.304375 29.158875 C 21.52 29.237 21.854375 29.36825 22.066875 29.4495 C 22.27625 29.533875 22.616875 29.66825 22.82625 29.75575 C 23.03875 29.837 23.379375 29.977625 23.58875 30.065125 C 23.80125 30.152625 24.13875 30.29325 24.35125 30.383875 C 24.560625 30.4745 24.898125 30.621375 25.1075 30.712 C 25.32 30.80575 25.660625 30.95575 25.87 31.0495 C 26.0825 31.14325 26.42 31.29325 26.6325 31.39325 C 26.841875 31.490125 27.1825 31.646375 27.395 31.74325 C 27.604375 31.840125 27.945 32.002625 28.154375 32.102625 C 28.366875 32.20575 28.70125 32.36825 28.91375 32.471375 C 29.123125 32.571375 29.46375 32.740125 29.67625 32.840125 C 29.885625 32.946375 30.22625 33.115125 30.435625 33.2245 C 30.648125 33.33075 30.98875 33.502625 31.198125 33.60575 C 31.410625 33.715125 31.748125 33.89325 31.960625 34.002625 C 32.17 34.112 32.5075 34.290125 32.716875 34.3995 C 32.929375 34.512 33.266875 34.69325 33.479375 34.80575 C 33.68875 34.91825 34.029375 35.102625 34.241875 35.215125 C 34.45125 35.33075 34.791875 35.51825 35.00125 35.633875 C 35.21375 35.752625 35.548125 35.940125 35.76375 36.05575 C 35.97625 36.1745 36.310625 36.362 36.523125 36.48075 C 36.7325 36.5995 37.073125 36.79325 37.2825 36.912 C 37.495 37.033875 37.835625 37.227625 38.045 37.3495 C 38.2575 37.471375 38.595 37.665125 38.8075 37.790125 C 39.016875 37.912 39.354375 38.112 39.56375 38.237 C 39.779375 38.35575 40.116875 38.558875 40.32625 38.68075 C 40.53875 38.80575 40.87625 39.008875 41.08875 39.133875 C 41.298125 39.262 41.63875 39.465125 41.85125 39.590125 C 42.060625 39.715125 42.40125 39.9245 42.610625 40.0495 C 42.823125 40.177625 43.1575 40.383875 43.37 40.512 C 43.585625 40.64325 43.92 40.846375 44.1325 40.9745 C 44.341875 41.10575 44.6825 41.315125 44.891875 41.44325 C 45.104375 41.571375 45.445 41.783875 45.654375 41.912 C 45.866875 42.040125 46.204375 42.252625 46.416875 42.38075 C 46.62625 42.512 46.96375 42.7245 47.173125 42.852625 C 47.385625 42.987 47.72625 43.196375 47.935625 43.33075 C 48.148125 43.458875 48.485625 43.66825 48.698125 43.802625 C 48.9075 43.933875 49.248125 44.146375 49.460625 44.277625 C 49.67 44.412 50.010625 44.621375 50.22 44.75575 C 50.4325 44.887 50.766875 45.0995 50.979375 45.23075 C 51.18875 45.365125 51.529375 45.5745 51.741875 45.708875 C 51.95125 45.840125 52.291875 46.052625 52.50125 46.183875 C 52.71375 46.315125 53.054375 46.527625 53.26375 46.658875 C 53.47625 46.790125 53.81375 47.002625 54.02625 47.133875 C 54.235625 47.26825 54.573125 47.477625 54.7825 47.612 C 54.995 47.740125 55.335625 47.9495 55.545 48.083875 C 55.7575 48.212 56.095 48.4245 56.3075 48.552625 C 56.516875 48.683875 56.8575 48.89325 57.07 49.0245 C 57.279375 49.152625 57.616875 49.362 57.829375 49.490125 C 58.041875 49.621375 58.37625 49.83075 58.58875 49.958875 C 58.798125 50.087 59.13875 50.290125 59.35125 50.41825 C 59.560625 50.5495 59.90125 50.752625 60.110625 50.88075 C 60.323125 51.008875 60.66375 51.212 60.873125 51.337 C 61.085625 51.462 61.42 51.665125 61.6325 51.790125 C 61.845 51.915125 62.1825 52.11825 62.391875 52.24325 C 62.604375 52.365125 62.945 52.565125 63.154375 52.690125 C 63.366875 52.815125 63.704375 53.008875 63.916875 53.13075 C 64.129375 53.252625 64.466875 53.4495 64.679375 53.571375 C 64.88875 53.69325 65.22625 53.883875 65.435625 54.00575 C 65.65125 54.121375 65.98875 54.315125 66.198125 54.43075 C 66.410625 54.552625 66.748125 54.740125 66.960625 54.85575 C 67.17 54.9745 67.510625 55.162 67.723125 55.277625 C 67.9325 55.39325 68.273125 55.5745 68.4825 55.690125 C 68.695 55.80575 69.029375 55.987 69.241875 56.0995 C 69.45125 56.212 69.791875 56.39325 70.004375 56.502625 C 70.21375 56.612 70.554375 56.787 70.76375 56.896375 C 70.97625 57.00575 71.316875 57.18075 71.52625 57.287 C 71.73875 57.396375 72.07625 57.565125 72.28875 57.66825 C 72.498125 57.7745 72.835625 57.94325 73.045 58.0495 C 73.2575 58.1495 73.598125 58.315125 73.8075 58.415125 C 74.02 58.51825 74.3575 58.68075 74.57 58.777625 C 74.779375 58.88075 75.12 59.037 75.3325 59.133875 C 75.541875 59.23075 75.879375 59.387 76.091875 59.48075 C 76.304375 59.58075 76.63875 59.727625 76.85125 59.821375 C 77.060625 59.915125 77.40125 60.065125 77.61375 60.152625 C 77.823125 60.246375 78.16375 60.387 78.373125 60.477625 C 78.585625 60.56825 78.92625 60.708875 79.135625 60.79325 C 79.348125 60.88075 79.6825 61.01825 79.898125 61.102625 C 80.1075 61.183875 80.445 61.31825 80.654375 61.3995 C 80.866875 61.48075 81.2075 61.612 81.416875 61.69325 C 81.629375 61.771375 81.966875 61.896375 82.179375 61.971375 C 82.38875 62.0495 82.729375 62.16825 82.941875 62.24325 C 83.15125 62.31825 83.48875 62.433875 83.698125 62.508875 C 83.91375 62.58075 84.248125 62.69325 84.460625 62.758875 C 84.67 62.83075 85.010625 62.940125 85.223125 63.00575 C 85.4325 63.071375 85.773125 63.177625 85.9825 63.240125 C 86.195 63.302625 86.535625 63.402625 86.745 63.462 C 86.9575 63.5245 87.291875 63.621375 87.504375 63.677625 C 87.71375 63.737 88.054375 63.83075 88.26375 63.883875 C 88.47625 63.940125 88.816875 64.0245 89.02625 64.08075 C 89.23875 64.13075 89.57625 64.212 89.78875 64.262 C 89.998125 64.315125 90.33875 64.39325 90.55125 64.440125 C 90.760625 64.487 91.098125 64.55575 91.3075 64.5995 C 91.52 64.646375 91.8575 64.712 92.07 64.75575 C 92.279375 64.79325 92.62 64.85575 92.8325 64.896375 C 93.041875 64.933875 93.3825 64.99325 93.591875 65.027625 C 93.804375 65.065125 94.145 65.11825 94.354375 65.1495 C 94.566875 65.18075 94.90125 65.23075 95.11375 65.258875 C 95.323125 65.290125 95.66375 65.333875 95.873125 65.362 C 96.085625 65.387 96.42625 65.427625 96.635625 65.4495 C 96.848125 65.4745 97.185625 65.50575 97.398125 65.5245 C 97.6075 65.5495 97.945 65.5745 98.160625 65.596375 C 98.37 65.612 98.7075 65.633875 98.916875 65.6495 C 99.129375 65.665125 99.466875 65.68075 99.679375 65.69325 C 99.88875 65.70575 100.229375 65.721375 100.441875 65.727625 C 100.65125 65.737 100.991875 65.746375 101.20125 65.752625 C 101.41375 65.75575 101.748125 65.758875 101.96375 65.762 C 102.17625 65.762 102.510625 65.762 102.723125 65.762 C 102.9325 65.758875 103.273125 65.75575 103.4825 65.752625 C 103.695 65.746375 104.035625 65.737 104.245 65.727625 C 104.4575 65.721375 104.795 65.70575 105.0075 65.696375 C 105.216875 65.683875 105.554375 65.665125 105.76375 65.6495 C 105.979375 65.637 106.316875 65.615125 106.52625 65.596375 C 106.73875 65.58075 107.07625 65.5495 107.28875 65.527625 C 107.498125 65.508875 107.83875 65.477625 108.05125 65.45575 C 108.260625 65.43075 108.60125 65.39325 108.810625 65.365125 C 109.023125 65.337 109.3575 65.29325 109.57 65.262 C 109.779375 65.237 110.12 65.190125 110.3325 65.152625 C 110.541875 65.121375 110.8825 65.06825 111.091875 65.033875 C 111.304375 64.996375 111.645 64.940125 111.854375 64.902625 C 112.066875 64.865125 112.404375 64.802625 112.616875 64.758875 C 112.82625 64.721375 113.373125 64.60575 113.373125 64.60575 " transform="matrix(1.25,0,0,-1.25,6.725,120.10875)"/>
<path style="fill:none;stroke-width:0.99628;stroke-linecap:butt;stroke-linejoin:miter;stroke:rgb(60%,60%,60%);stroke-opacity:1;stroke-miterlimit:10;" d="M 2.785625 45.352625 L 99.26375 45.352625 " transform="matrix(1.25,0,0,-1.25,6.725,120.10875)"/>
<path style="fill-rule:nonzero;fill:rgb(60%,60%,60%);fill-opacity:1;stroke-width:0.99628;stroke-linecap:butt;stroke-linejoin:miter;stroke:rgb(60%,60%,60%);stroke-opacity:1;stroke-miterlimit:10;" d="M -6.506 2.920315 L 0.372125 0.001565 L -6.506 -2.92031 L -6.506 2.920315 Z M -6.506 2.920315 " transform="matrix(-1.25,0,0,1.25,10.203438,63.416013)"/>
<path style="fill-rule:nonzero;fill:rgb(60%,60%,60%);fill-opacity:1;stroke-width:0.99628;stroke-linecap:butt;stroke-linejoin:miter;stroke:rgb(60%,60%,60%);stroke-opacity:1;stroke-miterlimit:10;" d="M -6.503565 2.92031 L 0.37456 -0.001565 L -6.503565 -2.920315 L -6.503565 2.92031 Z M -6.503565 2.92031 " transform="matrix(1.25,0,0,-1.25,130.805238,63.416013)"/>
<path style=" stroke:none;fill-rule:nonzero;fill:rgb(100%,100%,100%);fill-opacity:1;" d="M 43.832031 81.671875 L 97.171875 81.671875 L 97.171875 68.1875 L 43.832031 68.1875 L 43.832031 81.671875 Z M 43.832031 81.671875 "/>
<path style=" stroke:none;fill-rule:nonzero;fill:rgb(50.196078%,50.196078%,50.196078%);fill-opacity:1;" d="M 52.042969 75.058594 C 52.042969 72.910156 51.085938 72.148438 50.070312 72.148438 C 49.777344 72.148438 49.191406 72.1875 48.683594 72.675781 C 48.390625 72.96875 48.039062 73.300781 48.039062 74.082031 C 48.039062 75.195312 48.917969 76.015625 49.933594 76.015625 C 50.636719 76.015625 51.007812 75.546875 51.203125 75.15625 L 51.203125 75.332031 C 51.203125 77.5 50.148438 77.832031 49.621094 77.832031 C 49.425781 77.832031 48.957031 77.8125 48.722656 77.539062 C 49.09375 77.5 49.113281 77.207031 49.113281 77.128906 C 49.113281 76.914062 48.957031 76.71875 48.703125 76.71875 C 48.449219 76.71875 48.292969 76.894531 48.292969 77.148438 C 48.292969 77.734375 48.78125 78.105469 49.621094 78.105469 C 50.871094 78.105469 52.042969 76.933594 52.042969 75.058594 Z M 51.183594 74.179688 C 51.183594 75.3125 50.539062 75.761719 49.992188 75.761719 C 49.640625 75.761719 49.328125 75.664062 49.074219 75.253906 C 48.878906 74.941406 48.878906 74.570312 48.878906 74.082031 C 48.878906 73.574219 48.878906 73.242188 49.132812 72.890625 C 49.347656 72.578125 49.621094 72.402344 50.070312 72.402344 C 50.519531 72.402344 50.792969 72.675781 50.929688 72.910156 C 51.164062 73.261719 51.183594 73.886719 51.183594 74.179688 Z M 51.183594 74.179688 "/>
<path style=" stroke:none;fill-rule:nonzero;fill:rgb(50.196078%,50.196078%,50.196078%);fill-opacity:1;" d="M 60.949219 77.929688 L 60.949219 77.617188 C 60.363281 77.617188 60.304688 77.558594 60.304688 77.128906 L 60.304688 71.875 L 58.996094 71.972656 L 58.996094 72.285156 C 59.582031 72.285156 59.640625 72.363281 59.640625 72.773438 L 59.640625 74.589844 C 59.328125 74.277344 58.898438 74.082031 58.429688 74.082031 C 57.257812 74.082031 56.300781 74.960938 56.300781 76.054688 C 56.300781 77.148438 57.21875 78.007812 58.3125 78.007812 C 59.035156 78.007812 59.464844 77.636719 59.601562 77.480469 L 59.601562 78.007812 L 60.949219 77.929688 Z M 59.601562 77.011719 C 59.386719 77.421875 58.9375 77.773438 58.371094 77.773438 C 57.882812 77.773438 57.53125 77.480469 57.355469 77.226562 C 57.179688 76.972656 57.082031 76.621094 57.082031 76.074219 C 57.082031 75.859375 57.082031 75.214844 57.433594 74.804688 C 57.785156 74.414062 58.214844 74.335938 58.46875 74.335938 C 58.878906 74.335938 59.269531 74.53125 59.503906 74.84375 C 59.601562 74.980469 59.601562 74.980469 59.601562 75.15625 L 59.601562 77.011719 Z M 59.601562 77.011719 "/>
<path style=" stroke:none;fill-rule:nonzero;fill:rgb(50.196078%,50.196078%,50.196078%);fill-opacity:1;" d="M 63.773438 77.929688 L 63.773438 77.617188 C 63.265625 77.617188 63.1875 77.617188 63.1875 77.246094 L 63.1875 74.082031 L 61.898438 74.179688 L 61.898438 74.492188 C 62.445312 74.492188 62.523438 74.550781 62.523438 74.980469 L 62.523438 77.246094 C 62.523438 77.617188 62.445312 77.617188 61.878906 77.617188 L 61.878906 77.929688 C 61.878906 77.929688 62.503906 77.890625 62.855469 77.890625 C 63.167969 77.890625 63.480469 77.910156 63.773438 77.929688 Z M 63.304688 72.695312 C 63.304688 72.402344 63.089844 72.1875 62.796875 72.1875 C 62.503906 72.1875 62.308594 72.421875 62.308594 72.675781 C 62.308594 72.949219 62.523438 73.183594 62.796875 73.183594 C 63.089844 73.183594 63.304688 72.929688 63.304688 72.695312 Z M 63.304688 72.695312 "/>
<path style=" stroke:none;fill-rule:nonzero;fill:rgb(50.196078%,50.196078%,50.196078%);fill-opacity:1;" d="M 69.152344 74.492188 L 69.152344 74.179688 C 68.9375 74.199219 68.722656 74.21875 68.488281 74.21875 C 68.253906 74.21875 67.941406 74.199219 67.707031 74.179688 L 67.707031 74.492188 C 68.078125 74.511719 68.078125 74.785156 68.078125 74.824219 C 68.078125 74.863281 68.058594 74.941406 68 75.078125 L 67.023438 77.226562 L 65.929688 74.863281 C 65.929688 74.863281 65.890625 74.746094 65.890625 74.6875 C 65.890625 74.492188 66.183594 74.492188 66.320312 74.492188 L 66.320312 74.179688 C 66.320312 74.179688 65.695312 74.21875 65.34375 74.21875 C 65.070312 74.21875 64.738281 74.199219 64.484375 74.179688 L 64.484375 74.492188 C 64.953125 74.492188 65.070312 74.511719 65.1875 74.804688 L 66.574219 77.832031 C 66.613281 77.929688 66.671875 78.007812 66.808594 78.007812 C 66.984375 78.007812 67.023438 77.929688 67.0625 77.851562 L 68.332031 75.019531 C 68.585938 74.492188 69.015625 74.492188 69.152344 74.492188 Z M 69.152344 74.492188 "/>
<path style=" stroke:none;fill-rule:nonzero;fill:rgb(50.196078%,50.196078%,50.196078%);fill-opacity:1;" d="M 71.824219 77.929688 L 71.824219 77.617188 C 71.316406 77.617188 71.238281 77.617188 71.238281 77.246094 L 71.238281 74.082031 L 69.949219 74.179688 L 69.949219 74.492188 C 70.496094 74.492188 70.574219 74.550781 70.574219 74.980469 L 70.574219 77.246094 C 70.574219 77.617188 70.496094 77.617188 69.929688 77.617188 L 69.929688 77.929688 C 69.929688 77.929688 70.554688 77.890625 70.90625 77.890625 C 71.21875 77.890625 71.53125 77.910156 71.824219 77.929688 Z M 71.355469 72.695312 C 71.355469 72.402344 71.140625 72.1875 70.847656 72.1875 C 70.554688 72.1875 70.359375 72.421875 70.359375 72.675781 C 70.359375 72.949219 70.574219 73.183594 70.847656 73.183594 C 71.140625 73.183594 71.355469 72.929688 71.355469 72.695312 Z M 71.355469 72.695312 "/>
<path style=" stroke:none;fill-rule:nonzero;fill:rgb(50.196078%,50.196078%,50.196078%);fill-opacity:1;" d="M 75.816406 76.796875 C 75.816406 76.464844 75.660156 76.191406 75.425781 75.996094 C 75.09375 75.683594 74.703125 75.605469 74.390625 75.566406 C 73.707031 75.429688 73.140625 75.332031 73.140625 74.863281 C 73.140625 74.589844 73.375 74.257812 74.195312 74.257812 C 75.210938 74.257812 75.25 74.960938 75.269531 75.214844 C 75.269531 75.3125 75.386719 75.3125 75.40625 75.3125 C 75.5625 75.3125 75.5625 75.253906 75.5625 75.078125 L 75.5625 74.277344 C 75.5625 74.121094 75.5625 74.042969 75.445312 74.042969 C 75.40625 74.042969 75.386719 74.042969 75.269531 74.140625 C 75.25 74.160156 75.171875 74.238281 75.113281 74.277344 C 74.839844 74.101562 74.527344 74.042969 74.195312 74.042969 C 72.945312 74.042969 72.652344 74.707031 72.652344 75.136719 C 72.652344 75.410156 72.769531 75.644531 72.984375 75.820312 C 73.316406 76.09375 73.648438 76.152344 74.195312 76.25 C 74.625 76.328125 75.328125 76.445312 75.328125 77.03125 C 75.328125 77.363281 75.09375 77.773438 74.253906 77.773438 C 73.414062 77.773438 73.121094 77.226562 72.964844 76.640625 C 72.925781 76.523438 72.925781 76.484375 72.808594 76.484375 C 72.652344 76.484375 72.652344 76.542969 72.652344 76.71875 L 72.652344 77.792969 C 72.652344 77.929688 72.652344 78.007812 72.769531 78.007812 C 72.847656 78.007812 73.023438 77.832031 73.199219 77.636719 C 73.570312 78.007812 74.039062 78.007812 74.253906 78.007812 C 75.386719 78.007812 75.816406 77.402344 75.816406 76.796875 Z M 75.816406 76.796875 "/>
<path style=" stroke:none;fill-rule:nonzero;fill:rgb(50.196078%,50.196078%,50.196078%);fill-opacity:1;" d="M 78.589844 77.929688 L 78.589844 77.617188 C 78.082031 77.617188 78.003906 77.617188 78.003906 77.246094 L 78.003906 74.082031 L 76.714844 74.179688 L 76.714844 74.492188 C 77.261719 74.492188 77.339844 74.550781 77.339844 74.980469 L 77.339844 77.246094 C 77.339844 77.617188 77.261719 77.617188 76.695312 77.617188 L 76.695312 77.929688 C 76.695312 77.929688 77.320312 77.890625 77.671875 77.890625 C 77.984375 77.890625 78.296875 77.910156 78.589844 77.929688 Z M 78.121094 72.695312 C 78.121094 72.402344 77.90625 72.1875 77.613281 72.1875 C 77.320312 72.1875 77.125 72.421875 77.125 72.675781 C 77.125 72.949219 77.339844 73.183594 77.613281 73.183594 C 77.90625 73.183594 78.121094 72.929688 78.121094 72.695312 Z M 78.121094 72.695312 "/>
<path style=" stroke:none;fill-rule:nonzero;fill:rgb(50.196078%,50.196078%,50.196078%);fill-opacity:1;" d="M 83.636719 76.074219 C 83.636719 74.980469 82.699219 74.042969 81.507812 74.042969 C 80.296875 74.042969 79.359375 74.980469 79.359375 76.074219 C 79.359375 77.148438 80.316406 78.007812 81.507812 78.007812 C 82.679688 78.007812 83.636719 77.148438 83.636719 76.074219 Z M 82.835938 75.996094 C 82.835938 76.40625 82.816406 76.875 82.5625 77.226562 C 82.328125 77.558594 81.9375 77.734375 81.507812 77.734375 C 81.175781 77.734375 80.707031 77.636719 80.414062 77.207031 C 80.179688 76.855469 80.160156 76.40625 80.160156 75.996094 C 80.160156 75.625 80.160156 75.097656 80.472656 74.726562 C 80.6875 74.472656 81.058594 74.296875 81.507812 74.296875 C 82.015625 74.296875 82.386719 74.53125 82.582031 74.804688 C 82.816406 75.136719 82.835938 75.585938 82.835938 75.996094 Z M 82.835938 75.996094 "/>
<path style=" stroke:none;fill-rule:nonzero;fill:rgb(50.196078%,50.196078%,50.196078%);fill-opacity:1;" d="M 89.125 77.929688 L 89.125 77.617188 C 88.558594 77.617188 88.480469 77.617188 88.480469 77.246094 L 88.480469 75.292969 C 88.480469 74.53125 88.109375 74.082031 87.171875 74.082031 C 86.449219 74.082031 86 74.472656 85.746094 74.941406 L 85.746094 74.941406 L 85.746094 74.082031 L 84.457031 74.179688 L 84.457031 74.492188 C 85.042969 74.492188 85.121094 74.550781 85.121094 74.980469 L 85.121094 77.246094 C 85.121094 77.617188 85.023438 77.617188 84.457031 77.617188 L 84.457031 77.929688 C 84.457031 77.929688 85.082031 77.890625 85.453125 77.890625 C 85.765625 77.890625 86.371094 77.929688 86.449219 77.929688 L 86.449219 77.617188 C 85.882812 77.617188 85.804688 77.617188 85.804688 77.246094 L 85.804688 75.664062 C 85.804688 74.765625 86.527344 74.335938 87.09375 74.335938 C 87.699219 74.335938 87.777344 74.804688 87.777344 75.253906 L 87.777344 77.246094 C 87.777344 77.617188 87.699219 77.617188 87.132812 77.617188 L 87.132812 77.929688 C 87.132812 77.929688 87.757812 77.890625 88.128906 77.890625 C 88.441406 77.890625 89.046875 77.929688 89.125 77.929688 Z M 89.125 77.929688 "/>
<path style=" stroke:none;fill-rule:nonzero;fill:rgb(50.196078%,50.196078%,50.196078%);fill-opacity:1;" d="M 93.046875 76.796875 C 93.046875 76.464844 92.890625 76.191406 92.65625 75.996094 C 92.324219 75.683594 91.933594 75.605469 91.621094 75.566406 C 90.9375 75.429688 90.371094 75.332031 90.371094 74.863281 C 90.371094 74.589844 90.605469 74.257812 91.425781 74.257812 C 92.441406 74.257812 92.480469 74.960938 92.5 75.214844 C 92.5 75.3125 92.617188 75.3125 92.636719 75.3125 C 92.792969 75.3125 92.792969 75.253906 92.792969 75.078125 L 92.792969 74.277344 C 92.792969 74.121094 92.792969 74.042969 92.675781 74.042969 C 92.636719 74.042969 92.617188 74.042969 92.5 74.140625 C 92.480469 74.160156 92.402344 74.238281 92.34375 74.277344 C 92.070312 74.101562 91.757812 74.042969 91.425781 74.042969 C 90.175781 74.042969 89.882812 74.707031 89.882812 75.136719 C 89.882812 75.410156 90 75.644531 90.214844 75.820312 C 90.546875 76.09375 90.878906 76.152344 91.425781 76.25 C 91.855469 76.328125 92.558594 76.445312 92.558594 77.03125 C 92.558594 77.363281 92.324219 77.773438 91.484375 77.773438 C 90.644531 77.773438 90.351562 77.226562 90.195312 76.640625 C 90.15625 76.523438 90.15625 76.484375 90.039062 76.484375 C 89.882812 76.484375 89.882812 76.542969 89.882812 76.71875 L 89.882812 77.792969 C 89.882812 77.929688 89.882812 78.007812 90 78.007812 C 90.078125 78.007812 90.253906 77.832031 90.429688 77.636719 C 90.800781 78.007812 91.269531 78.007812 91.484375 78.007812 C 92.617188 78.007812 93.046875 77.402344 93.046875 76.796875 Z M 93.046875 76.796875 "/>
</g>
</g>
</svg>
