<?xml version="1.0" encoding="UTF-8" standalone="no"?>
<!-- Created with Inkscape (http://www.inkscape.org/) -->

<svg
   xmlns:dc="http://purl.org/dc/elements/1.1/"
   xmlns:cc="http://creativecommons.org/ns#"
   xmlns:rdf="http://www.w3.org/1999/02/22-rdf-syntax-ns#"
   xmlns:svg="http://www.w3.org/2000/svg"
   xmlns="http://www.w3.org/2000/svg"
   xmlns:sodipodi="http://sodipodi.sourceforge.net/DTD/sodipodi-0.dtd"
   xmlns:inkscape="http://www.inkscape.org/namespaces/inkscape"
   width="327.51578"
   height="168.18066"
   id="svg2"
   version="1.1"
   inkscape:version="0.48.2 r9819"
   sodipodi:docname="pointe.svg">
  <defs
     id="defs4" />
  <sodipodi:namedview
     id="base"
     pagecolor="#ffffff"
     bordercolor="#666666"
     borderopacity="1.0"
     inkscape:pageopacity="0.0"
     inkscape:pageshadow="2"
     inkscape:zoom="2"
     inkscape:cx="248.59003"
     inkscape:cy="80.232587"
     inkscape:document-units="px"
     inkscape:current-layer="layer1"
     showgrid="false"
     inkscape:window-width="1366"
     inkscape:window-height="706"
     inkscape:window-x="-8"
     inkscape:window-y="-8"
     inkscape:window-maximized="1"
     fit-margin-top="0"
     fit-margin-left="0"
     fit-margin-right="0"
     fit-margin-bottom="0" />
  <metadata
     id="metadata7">
    <rdf:RDF>
      <cc:Work
         rdf:about="">
        <dc:format>image/svg+xml</dc:format>
        <dc:type
           rdf:resource="http://purl.org/dc/dcmitype/StillImage" />
        <dc:title></dc:title>
      </cc:Work>
    </rdf:RDF>
  </metadata>
  <g
     inkscape:label="Calque 1"
     inkscape:groupmode="layer"
     id="layer1"
     transform="translate(-164.65994,-149.00504)">
    <path
       style="fill:none;stroke:#000000;stroke-width:1px;stroke-linecap:round;stroke-linejoin:miter;stroke-opacity:1"
       d="m 180,149.50504 311.6126,83.49634"
       id="path2985"
       inkscape:connector-curvature="0" />
    <path
       inkscape:connector-curvature="0"
       id="path2987"
       d="m 180.06313,316.68571 311.6126,-83.49634"
       style="fill:none;stroke:#000000;stroke-width:1px;stroke-linecap:round;stroke-linejoin:round;stroke-opacity:1" />
    <path
       sodipodi:type="arc"
       style="color:#000000;fill:none;stroke:#000000;stroke-width:0.83773583;stroke-miterlimit:4;stroke-dasharray:3.35094338, 1.67547169;stroke-dashoffset:0;marker:none;visibility:visible;display:inline;overflow:visible;enable-background:accumulate"
       id="path3757"
       sodipodi:cx="226.27417"
       sodipodi:cy="265.45334"
       sodipodi:rx="56.063465"
       sodipodi:ry="56.063465"
       d="m 282.33764,265.45334 c 0,30.963 -25.10047,56.06346 -56.06347,56.06346 -30.963,0 -56.06347,-25.10046 -56.06347,-56.06346 0,-30.963 25.10047,-56.06347 56.06347,-56.06347 30.963,0 56.06347,25.10047 56.06347,56.06347 z"
       transform="matrix(1.1936937,0,0,1.1936937,-38.019503,-83.994058)" />
    <path
       transform="matrix(0.84941903,0,0,0.84941903,114.37971,7.6473404)"
       d="m 282.33764,265.45334 c 0,30.963 -25.10047,56.06346 -56.06347,56.06346 -30.963,0 -56.06347,-25.10046 -56.06347,-56.06346 0,-30.963 25.10047,-56.06347 56.06347,-56.06347 30.963,0 56.06347,25.10047 56.06347,56.06347 z"
       sodipodi:ry="56.063465"
       sodipodi:rx="56.063465"
       sodipodi:cy="265.45334"
       sodipodi:cx="226.27417"
       id="path3763"
       style="color:#000000;fill:none;stroke:#000000;stroke-width:1.1772753;stroke-miterlimit:4;stroke-dasharray:4.709101, 2.3545505;stroke-dashoffset:0;marker:none;visibility:visible;display:inline;overflow:visible;enable-background:accumulate"
       sodipodi:type="arc" />
    <path
       sodipodi:type="arc"
       style="color:#000000;fill:none;stroke:#000000;stroke-width:1.681898;stroke-miterlimit:4;stroke-dasharray:6.72759219, 3.3637961;stroke-dashoffset:0;marker:none;visibility:visible;display:inline;overflow:visible;enable-background:accumulate"
       id="path3765"
       sodipodi:cx="226.27417"
       sodipodi:cy="265.45334"
       sodipodi:rx="56.063465"
       sodipodi:ry="56.063465"
       d="m 282.33764,265.45334 c 0,30.963 -25.10047,56.06346 -56.06347,56.06346 -30.963,0 -56.06347,-25.10046 -56.06347,-56.06346 0,-30.963 25.10047,-56.06347 56.06347,-56.06347 30.963,0 56.06347,25.10047 56.06347,56.06347 z"
       transform="matrix(0.59456636,0,0,0.59456636,228.86737,75.046299)" />
    <path
       transform="matrix(0.41125128,0,0,0.41125128,307.97502,123.96043)"
       d="m 282.33764,265.45334 c 0,30.963 -25.10047,56.06346 -56.06347,56.06346 -30.963,0 -56.06347,-25.10046 -56.06347,-56.06346 0,-30.963 25.10047,-56.06347 56.06347,-56.06347 30.963,0 56.06347,25.10047 56.06347,56.06347 z"
       sodipodi:ry="56.063465"
       sodipodi:rx="56.063465"
       sodipodi:cy="265.45334"
       sodipodi:cx="226.27417"
       id="path3767"
       style="color:#000000;fill:none;stroke:#000000;stroke-width:2.43160343;stroke-miterlimit:4;stroke-dasharray:9.7264135, 4.86320675;stroke-dashoffset:0;marker:none;visibility:visible;display:inline;overflow:visible;enable-background:accumulate"
       sodipodi:type="arc" />
    <path
       sodipodi:type="arc"
       style="color:#000000;fill:none;stroke:#000000;stroke-width:3.55127025;stroke-miterlimit:4;stroke-dasharray:14.20508067, 7.10254033;stroke-dashoffset:0;marker:none;visibility:visible;display:inline;overflow:visible;enable-background:accumulate"
       id="path3769"
       sodipodi:cx="226.27417"
       sodipodi:cy="265.45334"
       sodipodi:rx="56.063465"
       sodipodi:ry="56.063465"
       d="m 282.33764,265.45334 c 0,30.963 -25.10047,56.06346 -56.06347,56.06346 -30.963,0 -56.06347,-25.10046 -56.06347,-56.06346 0,-30.963 25.10047,-56.06347 56.06347,-56.06347 30.963,0 56.06347,25.10047 56.06347,56.06347 z"
       transform="matrix(0.28158939,0,0,0.28158939,368.37634,158.12708)" />
    <path
       transform="matrix(0.16757057,0,0,0.16757057,417.2831,188.52001)"
       d="m 282.33764,265.45334 c 0,30.963 -25.10047,56.06346 -56.06347,56.06346 -30.963,0 -56.06347,-25.10046 -56.06347,-56.06346 0,-30.963 25.10047,-56.06347 56.06347,-56.06347 30.963,0 56.06347,25.10047 56.06347,56.06347 z"
       sodipodi:ry="56.063465"
       sodipodi:rx="56.063465"
       sodipodi:cy="265.45334"
       sodipodi:cx="226.27417"
       id="path3771"
       style="color:#000000;fill:none;stroke:#000000;stroke-width:5.96763515;stroke-miterlimit:4;stroke-dasharray:23.87054004, 11.93527002;stroke-dashoffset:0;marker:none;visibility:visible;display:inline;overflow:visible;enable-background:accumulate"
       sodipodi:type="arc" />
    <path
       sodipodi:type="arc"
       style="color:#000000;fill:none;stroke:#000000;stroke-width:9.94984436;stroke-miterlimit:4;stroke-dasharray:39.79937929, 19.89968964;stroke-dashoffset:0;marker:none;visibility:visible;display:inline;overflow:visible;enable-background:accumulate"
       id="path3773"
       sodipodi:cx="226.27417"
       sodipodi:cy="265.45334"
       sodipodi:rx="56.063465"
       sodipodi:ry="56.063465"
       d="m 282.33764,265.45334 c 0,30.963 -25.10047,56.06346 -56.06347,56.06346 -30.963,0 -56.06347,-25.10046 -56.06347,-56.06346 0,-30.963 25.10047,-56.06347 56.06347,-56.06347 30.963,0 56.06347,25.10047 56.06347,56.06347 z"
       transform="matrix(0.10050408,0,0,0.10050408,446.09558,206.32304)" />
  </g>
</svg>
