<?xml version="1.0" encoding="UTF-8"?>
<!-- Converted by misc2svg (http://www.network-science.de/tools/misc2svg/) -->
<svg xmlns="http://www.w3.org/2000/svg" xmlns:xlink="http://www.w3.org/1999/xlink" width="605pt" height="208pt" viewBox="0 0 605 208" version="1.1">
<g id="misc2svg">
<path style="fill:none;stroke-width:0.79701;stroke-linecap:butt;stroke-linejoin:miter;stroke:rgb(0%,0%,0%);stroke-opacity:1;stroke-miterlimit:10;" d="M -212.603 -0.0015 L 212.600125 -0.0015 " transform="matrix(1.25,0,0,-1.25,272.4725,201.3575)"/>
<path style="fill:none;stroke-width:0.79701;stroke-linecap:butt;stroke-linejoin:miter;stroke:rgb(0%,0%,0%);stroke-opacity:1;stroke-miterlimit:10;" d="M -212.603 28.3485 L 212.600125 28.3485 " transform="matrix(1.25,0,0,-1.25,272.4725,201.3575)"/>
<path style="fill:none;stroke-width:0.79701;stroke-linecap:butt;stroke-linejoin:miter;stroke:rgb(0%,0%,0%);stroke-opacity:1;stroke-miterlimit:10;" d="M -212.603 56.695375 L 212.600125 56.695375 " transform="matrix(1.25,0,0,-1.25,272.4725,201.3575)"/>
<path style="fill:none;stroke-width:0.79701;stroke-linecap:butt;stroke-linejoin:miter;stroke:rgb(0%,0%,0%);stroke-opacity:1;stroke-miterlimit:10;" d="M -212.603 85.039125 L 212.600125 85.039125 " transform="matrix(1.25,0,0,-1.25,272.4725,201.3575)"/>
<path style="fill:none;stroke-width:0.79701;stroke-linecap:butt;stroke-linejoin:miter;stroke:rgb(0%,0%,0%);stroke-opacity:1;stroke-miterlimit:10;" d="M -212.603 113.386 L 212.600125 113.386 " transform="matrix(1.25,0,0,-1.25,272.4725,201.3575)"/>
<path style="fill:none;stroke-width:0.79701;stroke-linecap:butt;stroke-linejoin:miter;stroke:rgb(0%,0%,0%);stroke-opacity:1;stroke-miterlimit:10;" d="M -212.603 141.736 L 212.600125 141.736 " transform="matrix(1.25,0,0,-1.25,272.4725,201.3575)"/>
<path style=" stroke:none;fill-rule:nonzero;fill:rgb(0%,0%,0%);fill-opacity:1;" d="M 574.230469 183.609375 C 574.230469 183.472656 574.132812 183.472656 574.09375 183.472656 C 573.957031 183.472656 573.957031 183.511719 573.898438 183.707031 C 573.644531 184.546875 573.234375 185.25 572.628906 185.25 C 572.414062 185.25 572.335938 185.132812 572.335938 184.839844 C 572.335938 184.527344 572.433594 184.234375 572.550781 183.960938 C 572.785156 183.296875 573.3125 181.929688 573.3125 181.207031 C 573.3125 180.386719 572.785156 179.878906 571.886719 179.878906 C 570.753906 179.878906 570.148438 180.679688 569.933594 180.972656 C 569.875 180.269531 569.367188 179.878906 568.78125 179.878906 C 568.214844 179.878906 567.980469 180.367188 567.863281 180.582031 C 567.648438 181.011719 567.492188 181.753906 567.492188 181.792969 C 567.492188 181.929688 567.628906 181.929688 567.628906 181.929688 C 567.765625 181.929688 567.765625 181.910156 567.84375 181.636719 C 568.058594 180.757812 568.3125 180.152344 568.761719 180.152344 C 568.996094 180.152344 569.132812 180.308594 569.132812 180.71875 C 569.132812 180.992188 569.09375 181.128906 568.9375 181.773438 L 568.214844 184.644531 C 568.175781 184.839844 568.097656 185.132812 568.097656 185.191406 C 568.097656 185.40625 568.273438 185.523438 568.46875 185.523438 C 568.625 185.523438 568.839844 185.425781 568.9375 185.171875 C 568.9375 185.152344 569.09375 184.566406 569.171875 184.253906 L 569.445312 183.140625 C 569.503906 182.847656 569.582031 182.574219 569.660156 182.300781 L 569.816406 181.675781 C 569.992188 181.285156 570.65625 180.152344 571.847656 180.152344 C 572.414062 180.152344 572.511719 180.621094 572.511719 181.03125 C 572.511719 181.792969 571.90625 183.394531 571.710938 183.921875 C 571.59375 184.214844 571.574219 184.371094 571.574219 184.507812 C 571.574219 185.09375 572.023438 185.523438 572.609375 185.523438 C 573.78125 185.523438 574.230469 183.707031 574.230469 183.609375 Z M 574.230469 183.609375 "/>
<path style=" stroke:none;fill-rule:nonzero;fill:rgb(0%,0%,0%);fill-opacity:1;" d="M 578.71875 187.257812 L 578.71875 186.945312 L 578.386719 186.945312 C 577.507812 186.945312 577.507812 186.828125 577.507812 186.535156 L 577.507812 181.710938 C 577.507812 181.476562 577.507812 181.476562 577.253906 181.476562 C 576.6875 182.023438 575.90625 182.023438 575.554688 182.023438 L 575.554688 182.335938 C 575.75 182.335938 576.335938 182.335938 576.804688 182.101562 L 576.804688 186.535156 C 576.804688 186.828125 576.804688 186.945312 575.945312 186.945312 L 575.613281 186.945312 L 575.613281 187.257812 L 577.15625 187.21875 L 578.71875 187.257812 Z M 578.71875 187.257812 "/>
<path style=" stroke:none;fill-rule:nonzero;fill:rgb(0%,0%,0%);fill-opacity:1;" d="M 559.398438 148.855469 C 559.398438 148.71875 559.300781 148.71875 559.261719 148.71875 C 559.125 148.71875 559.125 148.757812 559.066406 148.953125 C 558.8125 149.792969 558.402344 150.496094 557.796875 150.496094 C 557.582031 150.496094 557.503906 150.378906 557.503906 150.085938 C 557.503906 149.773438 557.601562 149.480469 557.71875 149.207031 C 557.953125 148.542969 558.480469 147.175781 558.480469 146.453125 C 558.480469 145.632812 557.953125 145.125 557.054688 145.125 C 555.921875 145.125 555.316406 145.925781 555.101562 146.21875 C 555.042969 145.515625 554.535156 145.125 553.949219 145.125 C 553.382812 145.125 553.148438 145.613281 553.03125 145.828125 C 552.816406 146.257812 552.660156 147 552.660156 147.039062 C 552.660156 147.175781 552.796875 147.175781 552.796875 147.175781 C 552.933594 147.175781 552.933594 147.15625 553.011719 146.882812 C 553.226562 146.003906 553.480469 145.398438 553.929688 145.398438 C 554.164062 145.398438 554.300781 145.554688 554.300781 145.964844 C 554.300781 146.238281 554.261719 146.375 554.105469 147.019531 L 553.382812 149.890625 C 553.34375 150.085938 553.265625 150.378906 553.265625 150.4375 C 553.265625 150.652344 553.441406 150.769531 553.636719 150.769531 C 553.792969 150.769531 554.007812 150.671875 554.105469 150.417969 C 554.105469 150.398438 554.261719 149.8125 554.339844 149.5 L 554.613281 148.386719 C 554.671875 148.09375 554.75 147.820312 554.828125 147.546875 L 554.984375 146.921875 C 555.160156 146.53125 555.824219 145.398438 557.015625 145.398438 C 557.582031 145.398438 557.679688 145.867188 557.679688 146.277344 C 557.679688 147.039062 557.074219 148.640625 556.878906 149.167969 C 556.761719 149.460938 556.742188 149.617188 556.742188 149.753906 C 556.742188 150.339844 557.191406 150.769531 557.777344 150.769531 C 558.949219 150.769531 559.398438 148.953125 559.398438 148.855469 Z M 559.398438 148.855469 "/>
<path style=" stroke:none;fill-rule:nonzero;fill:rgb(0%,0%,0%);fill-opacity:1;" d="M 564.160156 150.917969 L 563.867188 150.917969 C 563.847656 151.113281 563.75 151.621094 563.632812 151.699219 C 563.574219 151.757812 562.910156 151.757812 562.773438 151.757812 L 561.171875 151.757812 C 562.089844 150.957031 562.402344 150.703125 562.910156 150.292969 C 563.554688 149.785156 564.160156 149.238281 564.160156 148.417969 C 564.160156 147.363281 563.242188 146.71875 562.128906 146.71875 C 561.054688 146.71875 560.3125 147.480469 560.3125 148.28125 C 560.3125 148.710938 560.683594 148.769531 560.78125 148.769531 C 560.976562 148.769531 561.230469 148.613281 561.230469 148.300781 C 561.230469 148.144531 561.171875 147.832031 560.722656 147.832031 C 560.996094 147.226562 561.582031 147.03125 561.992188 147.03125 C 562.871094 147.03125 563.320312 147.714844 563.320312 148.417969 C 563.320312 149.179688 562.773438 149.765625 562.5 150.078125 L 560.410156 152.167969 C 560.3125 152.246094 560.3125 152.265625 560.3125 152.5 L 563.90625 152.5 L 564.160156 150.917969 Z M 564.160156 150.917969 "/>
<path style=" stroke:none;fill-rule:nonzero;fill:rgb(0%,0%,0%);fill-opacity:1;" d="M 577.464844 150.886719 C 577.464844 150.75 577.367188 150.691406 577.230469 150.613281 L 570.6875 147.507812 L 577.230469 144.421875 C 577.367188 144.34375 577.464844 144.285156 577.464844 144.148438 C 577.464844 144.011719 577.347656 143.894531 577.210938 143.894531 C 577.171875 143.894531 577.152344 143.894531 576.996094 143.992188 L 570.082031 147.234375 C 569.945312 147.3125 569.847656 147.371094 569.847656 147.507812 C 569.847656 147.664062 569.945312 147.722656 570.082031 147.800781 L 576.996094 151.042969 C 577.152344 151.140625 577.171875 151.140625 577.210938 151.140625 C 577.347656 151.140625 577.464844 151.023438 577.464844 150.886719 Z M 577.464844 150.886719 "/>
<path style=" stroke:none;fill-rule:nonzero;fill:rgb(0%,0%,0%);fill-opacity:1;" d="M 589.070312 148.855469 C 589.070312 148.71875 588.972656 148.71875 588.933594 148.71875 C 588.796875 148.71875 588.796875 148.757812 588.738281 148.953125 C 588.484375 149.792969 588.074219 150.496094 587.46875 150.496094 C 587.253906 150.496094 587.175781 150.378906 587.175781 150.085938 C 587.175781 149.773438 587.273438 149.480469 587.390625 149.207031 C 587.625 148.542969 588.152344 147.175781 588.152344 146.453125 C 588.152344 145.632812 587.625 145.125 586.726562 145.125 C 585.59375 145.125 584.988281 145.925781 584.773438 146.21875 C 584.714844 145.515625 584.207031 145.125 583.621094 145.125 C 583.054688 145.125 582.820312 145.613281 582.703125 145.828125 C 582.488281 146.257812 582.332031 147 582.332031 147.039062 C 582.332031 147.175781 582.46875 147.175781 582.46875 147.175781 C 582.605469 147.175781 582.605469 147.15625 582.683594 146.882812 C 582.898438 146.003906 583.152344 145.398438 583.601562 145.398438 C 583.835938 145.398438 583.972656 145.554688 583.972656 145.964844 C 583.972656 146.238281 583.933594 146.375 583.777344 147.019531 L 583.054688 149.890625 C 583.015625 150.085938 582.9375 150.378906 582.9375 150.4375 C 582.9375 150.652344 583.113281 150.769531 583.308594 150.769531 C 583.464844 150.769531 583.679688 150.671875 583.777344 150.417969 C 583.777344 150.398438 583.933594 149.8125 584.011719 149.5 L 584.285156 148.386719 C 584.34375 148.09375 584.421875 147.820312 584.5 147.546875 L 584.65625 146.921875 C 584.832031 146.53125 585.496094 145.398438 586.6875 145.398438 C 587.253906 145.398438 587.351562 145.867188 587.351562 146.277344 C 587.351562 147.039062 586.746094 148.640625 586.550781 149.167969 C 586.433594 149.460938 586.414062 149.617188 586.414062 149.753906 C 586.414062 150.339844 586.863281 150.769531 587.449219 150.769531 C 588.621094 150.769531 589.070312 148.953125 589.070312 148.855469 Z M 589.070312 148.855469 "/>
<path style=" stroke:none;fill-rule:nonzero;fill:rgb(0%,0%,0%);fill-opacity:1;" d="M 593.550781 152.5 L 593.550781 152.1875 L 593.21875 152.1875 C 592.339844 152.1875 592.339844 152.070312 592.339844 151.777344 L 592.339844 146.953125 C 592.339844 146.71875 592.339844 146.71875 592.085938 146.71875 C 591.519531 147.265625 590.738281 147.265625 590.386719 147.265625 L 590.386719 147.578125 C 590.582031 147.578125 591.167969 147.578125 591.636719 147.34375 L 591.636719 151.777344 C 591.636719 152.070312 591.636719 152.1875 590.777344 152.1875 L 590.445312 152.1875 L 590.445312 152.5 L 591.988281 152.460938 L 593.550781 152.5 Z M 593.550781 152.5 "/>
<path style=" stroke:none;fill-rule:nonzero;fill:rgb(0%,0%,0%);fill-opacity:1;" d="M 559.398438 113.421875 C 559.398438 113.285156 559.300781 113.285156 559.261719 113.285156 C 559.125 113.285156 559.125 113.324219 559.066406 113.519531 C 558.8125 114.359375 558.402344 115.0625 557.796875 115.0625 C 557.582031 115.0625 557.503906 114.945312 557.503906 114.652344 C 557.503906 114.339844 557.601562 114.046875 557.71875 113.773438 C 557.953125 113.109375 558.480469 111.742188 558.480469 111.019531 C 558.480469 110.199219 557.953125 109.691406 557.054688 109.691406 C 555.921875 109.691406 555.316406 110.492188 555.101562 110.785156 C 555.042969 110.082031 554.535156 109.691406 553.949219 109.691406 C 553.382812 109.691406 553.148438 110.179688 553.03125 110.394531 C 552.816406 110.824219 552.660156 111.566406 552.660156 111.605469 C 552.660156 111.742188 552.796875 111.742188 552.796875 111.742188 C 552.933594 111.742188 552.933594 111.722656 553.011719 111.449219 C 553.226562 110.570312 553.480469 109.964844 553.929688 109.964844 C 554.164062 109.964844 554.300781 110.121094 554.300781 110.53125 C 554.300781 110.804688 554.261719 110.941406 554.105469 111.585938 L 553.382812 114.457031 C 553.34375 114.652344 553.265625 114.945312 553.265625 115.003906 C 553.265625 115.21875 553.441406 115.335938 553.636719 115.335938 C 553.792969 115.335938 554.007812 115.238281 554.105469 114.984375 C 554.105469 114.964844 554.261719 114.378906 554.339844 114.066406 L 554.613281 112.953125 C 554.671875 112.660156 554.75 112.386719 554.828125 112.113281 L 554.984375 111.488281 C 555.160156 111.097656 555.824219 109.964844 557.015625 109.964844 C 557.582031 109.964844 557.679688 110.433594 557.679688 110.84375 C 557.679688 111.605469 557.074219 113.207031 556.878906 113.734375 C 556.761719 114.027344 556.742188 114.183594 556.742188 114.320312 C 556.742188 114.90625 557.191406 115.335938 557.777344 115.335938 C 558.949219 115.335938 559.398438 113.519531 559.398438 113.421875 Z M 559.398438 113.421875 "/>
<path style=" stroke:none;fill-rule:nonzero;fill:rgb(0%,0%,0%);fill-opacity:1;" d="M 564.238281 115.5625 C 564.238281 114.878906 563.691406 114.195312 562.734375 114 C 563.632812 113.667969 563.964844 113.023438 563.964844 112.476562 C 563.964844 111.792969 563.183594 111.285156 562.207031 111.285156 C 561.25 111.285156 560.507812 111.753906 560.507812 112.457031 C 560.507812 112.75 560.703125 112.90625 560.957031 112.90625 C 561.230469 112.90625 561.40625 112.710938 561.40625 112.476562 C 561.40625 112.222656 561.230469 112.027344 560.957031 112.007812 C 561.269531 111.636719 561.855469 111.539062 562.1875 111.539062 C 562.578125 111.539062 563.125 111.734375 563.125 112.476562 C 563.125 112.847656 563.007812 113.257812 562.773438 113.511719 C 562.5 113.84375 562.246094 113.863281 561.816406 113.902344 C 561.601562 113.921875 561.582031 113.921875 561.542969 113.921875 C 561.542969 113.921875 561.445312 113.941406 561.445312 114.039062 C 561.445312 114.15625 561.523438 114.15625 561.679688 114.15625 L 562.148438 114.15625 C 562.832031 114.15625 563.320312 114.625 563.320312 115.5625 C 563.320312 116.636719 562.675781 116.96875 562.1875 116.96875 C 561.835938 116.96875 561.054688 116.871094 560.703125 116.34375 C 561.113281 116.34375 561.210938 116.050781 561.210938 115.855469 C 561.210938 115.582031 560.996094 115.386719 560.722656 115.386719 C 560.488281 115.386719 560.234375 115.542969 560.234375 115.894531 C 560.234375 116.714844 561.132812 117.242188 562.1875 117.242188 C 563.398438 117.242188 564.238281 116.421875 564.238281 115.5625 Z M 564.238281 115.5625 "/>
<path style=" stroke:none;fill-rule:nonzero;fill:rgb(0%,0%,0%);fill-opacity:1;" d="M 577.464844 115.453125 C 577.464844 115.316406 577.367188 115.257812 577.230469 115.179688 L 570.6875 112.074219 L 577.230469 108.988281 C 577.367188 108.910156 577.464844 108.851562 577.464844 108.714844 C 577.464844 108.578125 577.347656 108.460938 577.210938 108.460938 C 577.171875 108.460938 577.152344 108.460938 576.996094 108.558594 L 570.082031 111.800781 C 569.945312 111.878906 569.847656 111.9375 569.847656 112.074219 C 569.847656 112.230469 569.945312 112.289062 570.082031 112.367188 L 576.996094 115.609375 C 577.152344 115.707031 577.171875 115.707031 577.210938 115.707031 C 577.347656 115.707031 577.464844 115.589844 577.464844 115.453125 Z M 577.464844 115.453125 "/>
<path style=" stroke:none;fill-rule:nonzero;fill:rgb(0%,0%,0%);fill-opacity:1;" d="M 589.070312 113.421875 C 589.070312 113.285156 588.972656 113.285156 588.933594 113.285156 C 588.796875 113.285156 588.796875 113.324219 588.738281 113.519531 C 588.484375 114.359375 588.074219 115.0625 587.46875 115.0625 C 587.253906 115.0625 587.175781 114.945312 587.175781 114.652344 C 587.175781 114.339844 587.273438 114.046875 587.390625 113.773438 C 587.625 113.109375 588.152344 111.742188 588.152344 111.019531 C 588.152344 110.199219 587.625 109.691406 586.726562 109.691406 C 585.59375 109.691406 584.988281 110.492188 584.773438 110.785156 C 584.714844 110.082031 584.207031 109.691406 583.621094 109.691406 C 583.054688 109.691406 582.820312 110.179688 582.703125 110.394531 C 582.488281 110.824219 582.332031 111.566406 582.332031 111.605469 C 582.332031 111.742188 582.46875 111.742188 582.46875 111.742188 C 582.605469 111.742188 582.605469 111.722656 582.683594 111.449219 C 582.898438 110.570312 583.152344 109.964844 583.601562 109.964844 C 583.835938 109.964844 583.972656 110.121094 583.972656 110.53125 C 583.972656 110.804688 583.933594 110.941406 583.777344 111.585938 L 583.054688 114.457031 C 583.015625 114.652344 582.9375 114.945312 582.9375 115.003906 C 582.9375 115.21875 583.113281 115.335938 583.308594 115.335938 C 583.464844 115.335938 583.679688 115.238281 583.777344 114.984375 C 583.777344 114.964844 583.933594 114.378906 584.011719 114.066406 L 584.285156 112.953125 C 584.34375 112.660156 584.421875 112.386719 584.5 112.113281 L 584.65625 111.488281 C 584.832031 111.097656 585.496094 109.964844 586.6875 109.964844 C 587.253906 109.964844 587.351562 110.433594 587.351562 110.84375 C 587.351562 111.605469 586.746094 113.207031 586.550781 113.734375 C 586.433594 114.027344 586.414062 114.183594 586.414062 114.320312 C 586.414062 114.90625 586.863281 115.335938 587.449219 115.335938 C 588.621094 115.335938 589.070312 113.519531 589.070312 113.421875 Z M 589.070312 113.421875 "/>
<path style=" stroke:none;fill-rule:nonzero;fill:rgb(0%,0%,0%);fill-opacity:1;" d="M 593.824219 115.484375 L 593.53125 115.484375 C 593.511719 115.679688 593.414062 116.1875 593.296875 116.265625 C 593.238281 116.324219 592.574219 116.324219 592.4375 116.324219 L 590.835938 116.324219 C 591.753906 115.523438 592.066406 115.269531 592.574219 114.859375 C 593.21875 114.351562 593.824219 113.804688 593.824219 112.984375 C 593.824219 111.929688 592.90625 111.285156 591.792969 111.285156 C 590.71875 111.285156 589.976562 112.046875 589.976562 112.847656 C 589.976562 113.277344 590.347656 113.335938 590.445312 113.335938 C 590.640625 113.335938 590.894531 113.179688 590.894531 112.867188 C 590.894531 112.710938 590.835938 112.398438 590.386719 112.398438 C 590.660156 111.792969 591.246094 111.597656 591.65625 111.597656 C 592.535156 111.597656 592.984375 112.28125 592.984375 112.984375 C 592.984375 113.746094 592.4375 114.332031 592.164062 114.644531 L 590.074219 116.734375 C 589.976562 116.8125 589.976562 116.832031 589.976562 117.066406 L 593.570312 117.066406 L 593.824219 115.484375 Z M 593.824219 115.484375 "/>
<path style=" stroke:none;fill-rule:nonzero;fill:rgb(0%,0%,0%);fill-opacity:1;" d="M 559.398438 77.988281 C 559.398438 77.851562 559.300781 77.851562 559.261719 77.851562 C 559.125 77.851562 559.125 77.890625 559.066406 78.085938 C 558.8125 78.925781 558.402344 79.628906 557.796875 79.628906 C 557.582031 79.628906 557.503906 79.511719 557.503906 79.21875 C 557.503906 78.90625 557.601562 78.613281 557.71875 78.339844 C 557.953125 77.675781 558.480469 76.308594 558.480469 75.585938 C 558.480469 74.765625 557.953125 74.257812 557.054688 74.257812 C 555.921875 74.257812 555.316406 75.058594 555.101562 75.351562 C 555.042969 74.648438 554.535156 74.257812 553.949219 74.257812 C 553.382812 74.257812 553.148438 74.746094 553.03125 74.960938 C 552.816406 75.390625 552.660156 76.132812 552.660156 76.171875 C 552.660156 76.308594 552.796875 76.308594 552.796875 76.308594 C 552.933594 76.308594 552.933594 76.289062 553.011719 76.015625 C 553.226562 75.136719 553.480469 74.53125 553.929688 74.53125 C 554.164062 74.53125 554.300781 74.6875 554.300781 75.097656 C 554.300781 75.371094 554.261719 75.507812 554.105469 76.152344 L 553.382812 79.023438 C 553.34375 79.21875 553.265625 79.511719 553.265625 79.570312 C 553.265625 79.785156 553.441406 79.902344 553.636719 79.902344 C 553.792969 79.902344 554.007812 79.804688 554.105469 79.550781 C 554.105469 79.53125 554.261719 78.945312 554.339844 78.632812 L 554.613281 77.519531 C 554.671875 77.226562 554.75 76.953125 554.828125 76.679688 L 554.984375 76.054688 C 555.160156 75.664062 555.824219 74.53125 557.015625 74.53125 C 557.582031 74.53125 557.679688 75 557.679688 75.410156 C 557.679688 76.171875 557.074219 77.773438 556.878906 78.300781 C 556.761719 78.59375 556.742188 78.75 556.742188 78.886719 C 556.742188 79.472656 557.191406 79.902344 557.777344 79.902344 C 558.949219 79.902344 559.398438 78.085938 559.398438 77.988281 Z M 559.398438 77.988281 "/>
<path style=" stroke:none;fill-rule:nonzero;fill:rgb(0%,0%,0%);fill-opacity:1;" d="M 564.375 80.207031 L 564.375 79.894531 L 563.398438 79.894531 L 563.398438 76.007812 C 563.398438 75.832031 563.398438 75.753906 563.222656 75.753906 C 563.105469 75.753906 563.066406 75.753906 562.988281 75.890625 L 560.097656 79.894531 L 560.097656 80.207031 L 562.675781 80.207031 L 562.675781 80.910156 C 562.675781 81.222656 562.675781 81.320312 561.953125 81.320312 L 561.71875 81.320312 L 561.71875 81.632812 L 563.027344 81.59375 L 564.355469 81.632812 L 564.355469 81.320312 L 564.121094 81.320312 C 563.398438 81.320312 563.398438 81.222656 563.398438 80.910156 L 563.398438 80.207031 L 564.375 80.207031 Z M 562.734375 79.894531 L 560.429688 79.894531 L 562.734375 76.710938 L 562.734375 79.894531 Z M 562.734375 79.894531 "/>
<path style=" stroke:none;fill-rule:nonzero;fill:rgb(0%,0%,0%);fill-opacity:1;" d="M 577.464844 80.019531 C 577.464844 79.882812 577.367188 79.824219 577.230469 79.746094 L 570.6875 76.640625 L 577.230469 73.554688 C 577.367188 73.476562 577.464844 73.417969 577.464844 73.28125 C 577.464844 73.144531 577.347656 73.027344 577.210938 73.027344 C 577.171875 73.027344 577.152344 73.027344 576.996094 73.125 L 570.082031 76.367188 C 569.945312 76.445312 569.847656 76.503906 569.847656 76.640625 C 569.847656 76.796875 569.945312 76.855469 570.082031 76.933594 L 576.996094 80.175781 C 577.152344 80.273438 577.171875 80.273438 577.210938 80.273438 C 577.347656 80.273438 577.464844 80.15625 577.464844 80.019531 Z M 577.464844 80.019531 "/>
<path style=" stroke:none;fill-rule:nonzero;fill:rgb(0%,0%,0%);fill-opacity:1;" d="M 589.070312 77.988281 C 589.070312 77.851562 588.972656 77.851562 588.933594 77.851562 C 588.796875 77.851562 588.796875 77.890625 588.738281 78.085938 C 588.484375 78.925781 588.074219 79.628906 587.46875 79.628906 C 587.253906 79.628906 587.175781 79.511719 587.175781 79.21875 C 587.175781 78.90625 587.273438 78.613281 587.390625 78.339844 C 587.625 77.675781 588.152344 76.308594 588.152344 75.585938 C 588.152344 74.765625 587.625 74.257812 586.726562 74.257812 C 585.59375 74.257812 584.988281 75.058594 584.773438 75.351562 C 584.714844 74.648438 584.207031 74.257812 583.621094 74.257812 C 583.054688 74.257812 582.820312 74.746094 582.703125 74.960938 C 582.488281 75.390625 582.332031 76.132812 582.332031 76.171875 C 582.332031 76.308594 582.46875 76.308594 582.46875 76.308594 C 582.605469 76.308594 582.605469 76.289062 582.683594 76.015625 C 582.898438 75.136719 583.152344 74.53125 583.601562 74.53125 C 583.835938 74.53125 583.972656 74.6875 583.972656 75.097656 C 583.972656 75.371094 583.933594 75.507812 583.777344 76.152344 L 583.054688 79.023438 C 583.015625 79.21875 582.9375 79.511719 582.9375 79.570312 C 582.9375 79.785156 583.113281 79.902344 583.308594 79.902344 C 583.464844 79.902344 583.679688 79.804688 583.777344 79.550781 C 583.777344 79.53125 583.933594 78.945312 584.011719 78.632812 L 584.285156 77.519531 C 584.34375 77.226562 584.421875 76.953125 584.5 76.679688 L 584.65625 76.054688 C 584.832031 75.664062 585.496094 74.53125 586.6875 74.53125 C 587.253906 74.53125 587.351562 75 587.351562 75.410156 C 587.351562 76.171875 586.746094 77.773438 586.550781 78.300781 C 586.433594 78.59375 586.414062 78.75 586.414062 78.886719 C 586.414062 79.472656 586.863281 79.902344 587.449219 79.902344 C 588.621094 79.902344 589.070312 78.085938 589.070312 77.988281 Z M 589.070312 77.988281 "/>
<path style=" stroke:none;fill-rule:nonzero;fill:rgb(0%,0%,0%);fill-opacity:1;" d="M 593.902344 80.128906 C 593.902344 79.445312 593.355469 78.761719 592.398438 78.566406 C 593.296875 78.234375 593.628906 77.589844 593.628906 77.042969 C 593.628906 76.359375 592.847656 75.851562 591.871094 75.851562 C 590.914062 75.851562 590.171875 76.320312 590.171875 77.023438 C 590.171875 77.316406 590.367188 77.472656 590.621094 77.472656 C 590.894531 77.472656 591.070312 77.277344 591.070312 77.042969 C 591.070312 76.789062 590.894531 76.59375 590.621094 76.574219 C 590.933594 76.203125 591.519531 76.105469 591.851562 76.105469 C 592.242188 76.105469 592.789062 76.300781 592.789062 77.042969 C 592.789062 77.414062 592.671875 77.824219 592.4375 78.078125 C 592.164062 78.410156 591.910156 78.429688 591.480469 78.46875 C 591.265625 78.488281 591.246094 78.488281 591.207031 78.488281 C 591.207031 78.488281 591.109375 78.507812 591.109375 78.605469 C 591.109375 78.722656 591.1875 78.722656 591.34375 78.722656 L 591.8125 78.722656 C 592.496094 78.722656 592.984375 79.191406 592.984375 80.128906 C 592.984375 81.203125 592.339844 81.535156 591.851562 81.535156 C 591.5 81.535156 590.71875 81.4375 590.367188 80.910156 C 590.777344 80.910156 590.875 80.617188 590.875 80.421875 C 590.875 80.148438 590.660156 79.953125 590.386719 79.953125 C 590.152344 79.953125 589.898438 80.109375 589.898438 80.460938 C 589.898438 81.28125 590.796875 81.808594 591.851562 81.808594 C 593.0625 81.808594 593.902344 80.988281 593.902344 80.128906 Z M 593.902344 80.128906 "/>
<path style=" stroke:none;fill-rule:nonzero;fill:rgb(0%,0%,0%);fill-opacity:1;" d="M 559.398438 42.554688 C 559.398438 42.417969 559.300781 42.417969 559.261719 42.417969 C 559.125 42.417969 559.125 42.457031 559.066406 42.652344 C 558.8125 43.492188 558.402344 44.195312 557.796875 44.195312 C 557.582031 44.195312 557.503906 44.078125 557.503906 43.785156 C 557.503906 43.472656 557.601562 43.179688 557.71875 42.90625 C 557.953125 42.242188 558.480469 40.875 558.480469 40.152344 C 558.480469 39.332031 557.953125 38.824219 557.054688 38.824219 C 555.921875 38.824219 555.316406 39.625 555.101562 39.917969 C 555.042969 39.214844 554.535156 38.824219 553.949219 38.824219 C 553.382812 38.824219 553.148438 39.3125 553.03125 39.527344 C 552.816406 39.957031 552.660156 40.699219 552.660156 40.738281 C 552.660156 40.875 552.796875 40.875 552.796875 40.875 C 552.933594 40.875 552.933594 40.855469 553.011719 40.582031 C 553.226562 39.703125 553.480469 39.097656 553.929688 39.097656 C 554.164062 39.097656 554.300781 39.253906 554.300781 39.664062 C 554.300781 39.9375 554.261719 40.074219 554.105469 40.71875 L 553.382812 43.589844 C 553.34375 43.785156 553.265625 44.078125 553.265625 44.136719 C 553.265625 44.351562 553.441406 44.46875 553.636719 44.46875 C 553.792969 44.46875 554.007812 44.371094 554.105469 44.117188 C 554.105469 44.097656 554.261719 43.511719 554.339844 43.199219 L 554.613281 42.085938 C 554.671875 41.792969 554.75 41.519531 554.828125 41.246094 L 554.984375 40.621094 C 555.160156 40.230469 555.824219 39.097656 557.015625 39.097656 C 557.582031 39.097656 557.679688 39.566406 557.679688 39.976562 C 557.679688 40.738281 557.074219 42.339844 556.878906 42.867188 C 556.761719 43.160156 556.742188 43.316406 556.742188 43.453125 C 556.742188 44.039062 557.191406 44.46875 557.777344 44.46875 C 558.949219 44.46875 559.398438 42.652344 559.398438 42.554688 Z M 559.398438 42.554688 "/>
<path style=" stroke:none;fill-rule:nonzero;fill:rgb(0%,0%,0%);fill-opacity:1;" d="M 564.160156 44.441406 C 564.160156 43.464844 563.417969 42.566406 562.34375 42.566406 C 561.953125 42.566406 561.503906 42.644531 561.113281 42.976562 L 561.113281 41.335938 C 561.5625 41.453125 561.816406 41.453125 561.953125 41.453125 C 563.105469 41.453125 563.789062 40.671875 563.789062 40.535156 C 563.789062 40.4375 563.730469 40.417969 563.691406 40.417969 C 563.691406 40.417969 563.652344 40.417969 563.613281 40.4375 C 563.398438 40.515625 562.949219 40.691406 562.304688 40.691406 C 562.050781 40.691406 561.601562 40.671875 561.035156 40.457031 C 560.9375 40.417969 560.917969 40.417969 560.917969 40.417969 C 560.800781 40.417969 560.800781 40.515625 560.800781 40.652344 L 560.800781 43.210938 C 560.800781 43.367188 560.800781 43.464844 560.9375 43.464844 C 561.015625 43.464844 561.035156 43.464844 561.113281 43.347656 C 561.484375 42.878906 562.03125 42.800781 562.324219 42.800781 C 562.851562 42.800781 563.085938 43.210938 563.125 43.289062 C 563.28125 43.582031 563.339844 43.914062 563.339844 44.421875 C 563.339844 44.675781 563.339844 45.183594 563.066406 45.574219 C 562.851562 45.886719 562.480469 46.101562 562.050781 46.101562 C 561.484375 46.101562 560.898438 45.789062 560.683594 45.203125 C 561.015625 45.222656 561.191406 45.007812 561.191406 44.773438 C 561.191406 44.402344 560.859375 44.34375 560.742188 44.34375 C 560.742188 44.34375 560.3125 44.34375 560.3125 44.8125 C 560.3125 45.59375 561.035156 46.375 562.070312 46.375 C 563.183594 46.375 564.160156 45.554688 564.160156 44.441406 Z M 564.160156 44.441406 "/>
<path style=" stroke:none;fill-rule:nonzero;fill:rgb(0%,0%,0%);fill-opacity:1;" d="M 577.464844 44.585938 C 577.464844 44.449219 577.367188 44.390625 577.230469 44.3125 L 570.6875 41.207031 L 577.230469 38.121094 C 577.367188 38.042969 577.464844 37.984375 577.464844 37.847656 C 577.464844 37.710938 577.347656 37.59375 577.210938 37.59375 C 577.171875 37.59375 577.152344 37.59375 576.996094 37.691406 L 570.082031 40.933594 C 569.945312 41.011719 569.847656 41.070312 569.847656 41.207031 C 569.847656 41.363281 569.945312 41.421875 570.082031 41.5 L 576.996094 44.742188 C 577.152344 44.839844 577.171875 44.839844 577.210938 44.839844 C 577.347656 44.839844 577.464844 44.722656 577.464844 44.585938 Z M 577.464844 44.585938 "/>
<path style=" stroke:none;fill-rule:nonzero;fill:rgb(0%,0%,0%);fill-opacity:1;" d="M 589.070312 42.554688 C 589.070312 42.417969 588.972656 42.417969 588.933594 42.417969 C 588.796875 42.417969 588.796875 42.457031 588.738281 42.652344 C 588.484375 43.492188 588.074219 44.195312 587.46875 44.195312 C 587.253906 44.195312 587.175781 44.078125 587.175781 43.785156 C 587.175781 43.472656 587.273438 43.179688 587.390625 42.90625 C 587.625 42.242188 588.152344 40.875 588.152344 40.152344 C 588.152344 39.332031 587.625 38.824219 586.726562 38.824219 C 585.59375 38.824219 584.988281 39.625 584.773438 39.917969 C 584.714844 39.214844 584.207031 38.824219 583.621094 38.824219 C 583.054688 38.824219 582.820312 39.3125 582.703125 39.527344 C 582.488281 39.957031 582.332031 40.699219 582.332031 40.738281 C 582.332031 40.875 582.46875 40.875 582.46875 40.875 C 582.605469 40.875 582.605469 40.855469 582.683594 40.582031 C 582.898438 39.703125 583.152344 39.097656 583.601562 39.097656 C 583.835938 39.097656 583.972656 39.253906 583.972656 39.664062 C 583.972656 39.9375 583.933594 40.074219 583.777344 40.71875 L 583.054688 43.589844 C 583.015625 43.785156 582.9375 44.078125 582.9375 44.136719 C 582.9375 44.351562 583.113281 44.46875 583.308594 44.46875 C 583.464844 44.46875 583.679688 44.371094 583.777344 44.117188 C 583.777344 44.097656 583.933594 43.511719 584.011719 43.199219 L 584.285156 42.085938 C 584.34375 41.792969 584.421875 41.519531 584.5 41.246094 L 584.65625 40.621094 C 584.832031 40.230469 585.496094 39.097656 586.6875 39.097656 C 587.253906 39.097656 587.351562 39.566406 587.351562 39.976562 C 587.351562 40.738281 586.746094 42.339844 586.550781 42.867188 C 586.433594 43.160156 586.414062 43.316406 586.414062 43.453125 C 586.414062 44.039062 586.863281 44.46875 587.449219 44.46875 C 588.621094 44.46875 589.070312 42.652344 589.070312 42.554688 Z M 589.070312 42.554688 "/>
<path style=" stroke:none;fill-rule:nonzero;fill:rgb(0%,0%,0%);fill-opacity:1;" d="M 594.039062 44.773438 L 594.039062 44.460938 L 593.0625 44.460938 L 593.0625 40.574219 C 593.0625 40.398438 593.0625 40.320312 592.886719 40.320312 C 592.769531 40.320312 592.730469 40.320312 592.652344 40.457031 L 589.761719 44.460938 L 589.761719 44.773438 L 592.339844 44.773438 L 592.339844 45.476562 C 592.339844 45.789062 592.339844 45.886719 591.617188 45.886719 L 591.382812 45.886719 L 591.382812 46.199219 L 592.691406 46.160156 L 594.019531 46.199219 L 594.019531 45.886719 L 593.785156 45.886719 C 593.0625 45.886719 593.0625 45.789062 593.0625 45.476562 L 593.0625 44.773438 L 594.039062 44.773438 Z M 592.398438 44.460938 L 590.09375 44.460938 L 592.398438 41.277344 L 592.398438 44.460938 Z M 592.398438 44.460938 "/>
<path style="fill:none;stroke-width:0.79701;stroke-linecap:butt;stroke-linejoin:miter;stroke:rgb(100%,0%,0%);stroke-opacity:1;stroke-miterlimit:10;" d="M -212.603 -0.0015 L -198.428 28.3485 " transform="matrix(1.25,0,0,-1.25,272.4725,201.3575)"/>
<path style=" stroke:none;fill-rule:nonzero;fill:rgb(100%,0%,0%);fill-opacity:1;" d="M 15.5625 183.636719 L 10.933594 187.117188 L 14.117188 186.539062 L 15.566406 189.433594 "/>
<path style="fill:none;stroke-width:0.79701;stroke-linecap:butt;stroke-linejoin:miter;stroke:rgb(100%,0%,0%);stroke-opacity:1;stroke-miterlimit:10;" d="M -198.428 28.3485 L -170.081125 56.695375 " transform="matrix(1.25,0,0,-1.25,272.4725,201.3575)"/>
<path style=" stroke:none;fill-rule:nonzero;fill:rgb(100%,0%,0%);fill-opacity:1;" d="M 42.15625 148.238281 L 36.660156 150.0625 L 39.867188 150.527344 L 40.320312 153.730469 "/>
<path style="fill:none;stroke-width:0.79701;stroke-linecap:butt;stroke-linejoin:miter;stroke:rgb(100%,0%,0%);stroke-opacity:1;stroke-miterlimit:10;" d="M -170.081125 56.695375 L -127.55925 85.039125 " transform="matrix(1.25,0,0,-1.25,272.4725,201.3575)"/>
<path style=" stroke:none;fill-rule:nonzero;fill:rgb(100%,0%,0%);fill-opacity:1;" d="M 86.449219 112.8125 L 80.703125 113.523438 L 83.753906 114.609375 L 83.574219 117.84375 "/>
<path style="fill:none;stroke-width:0.79701;stroke-linecap:butt;stroke-linejoin:miter;stroke:rgb(100%,0%,0%);stroke-opacity:1;stroke-miterlimit:10;" d="M -127.55925 85.039125 L -70.868625 113.386 " transform="matrix(1.25,0,0,-1.25,272.4725,201.3575)"/>
<path style=" stroke:none;fill-rule:nonzero;fill:rgb(100%,0%,0%);fill-opacity:1;" d="M 148.46875 77.441406 L 142.675781 77.425781 L 145.566406 78.882812 L 144.980469 82.066406 "/>
<path style="fill:none;stroke-width:0.79701;stroke-linecap:butt;stroke-linejoin:miter;stroke:rgb(100%,0%,0%);stroke-opacity:1;stroke-miterlimit:10;" d="M -70.868625 113.386 L -0.003 141.736 " transform="matrix(1.25,0,0,-1.25,272.4725,201.3575)"/>
<path style=" stroke:none;fill-rule:nonzero;fill:rgb(100%,0%,0%);fill-opacity:1;" d="M 228.179688 41.996094 L 222.40625 41.503906 L 225.171875 43.195312 L 224.328125 46.320312 "/>
<path style="fill:none;stroke-width:0.79701;stroke-linecap:butt;stroke-linejoin:miter;stroke:rgb(100%,0%,0%);stroke-opacity:1;stroke-miterlimit:10;" d="M -0.003 141.736 L 70.86575 113.386 " transform="matrix(1.25,0,0,-1.25,272.4725,201.3575)"/>
<path style=" stroke:none;fill-rule:nonzero;fill:rgb(100%,0%,0%);fill-opacity:1;" d="M 316.761719 41.816406 L 312.910156 37.496094 L 313.753906 40.621094 L 310.992188 42.308594 "/>
<path style="fill:none;stroke-width:0.79701;stroke-linecap:butt;stroke-linejoin:miter;stroke:rgb(100%,0%,0%);stroke-opacity:1;stroke-miterlimit:10;" d="M 70.86575 113.386 L 127.5595 85.039125 " transform="matrix(1.25,0,0,-1.25,272.4725,201.3575)"/>
<path style=" stroke:none;fill-rule:nonzero;fill:rgb(100%,0%,0%);fill-opacity:1;" d="M 396.5 77.242188 L 393.015625 72.613281 L 393.601562 75.800781 L 390.707031 77.257812 "/>
<path style="fill:none;stroke-width:0.79701;stroke-linecap:butt;stroke-linejoin:miter;stroke:rgb(100%,0%,0%);stroke-opacity:1;stroke-miterlimit:10;" d="M 127.5595 85.039125 L 170.081375 56.695375 " transform="matrix(1.25,0,0,-1.25,272.4725,201.3575)"/>
<path style=" stroke:none;fill-rule:nonzero;fill:rgb(100%,0%,0%);fill-opacity:1;" d="M 458.507812 112.734375 L 455.625 107.710938 L 455.804688 110.941406 L 452.753906 112.023438 "/>
<path style="fill:none;stroke-width:0.79701;stroke-linecap:butt;stroke-linejoin:miter;stroke:rgb(100%,0%,0%);stroke-opacity:1;stroke-miterlimit:10;" d="M 170.081375 56.695375 L 198.42825 28.3485 " transform="matrix(1.25,0,0,-1.25,272.4725,201.3575)"/>
<path style=" stroke:none;fill-rule:nonzero;fill:rgb(100%,0%,0%);fill-opacity:1;" d="M 502.792969 148.171875 L 500.957031 142.6875 L 500.503906 145.890625 L 497.300781 146.347656 "/>
<path style="fill:none;stroke-width:0.79701;stroke-linecap:butt;stroke-linejoin:miter;stroke:rgb(100%,0%,0%);stroke-opacity:1;stroke-miterlimit:10;" d="M 198.42825 28.3485 L 212.600125 -0.0015 " transform="matrix(1.25,0,0,-1.25,272.4725,201.3575)"/>
<path style=" stroke:none;fill-rule:nonzero;fill:rgb(100%,0%,0%);fill-opacity:1;" d="M 529.34375 183.640625 L 529.351562 177.851562 L 527.898438 180.742188 L 524.71875 180.160156 "/>
<path style="fill:none;stroke-width:0.3985;stroke-linecap:butt;stroke-linejoin:miter;stroke:rgb(0%,0%,0%);stroke-opacity:1;stroke-dasharray:2.98883,2.98883;stroke-miterlimit:10;" d="M -198.428 14.1735 L -198.428 42.520375 " transform="matrix(1.25,0,0,-1.25,272.4725,201.3575)"/>
<path style="fill:none;stroke-width:0.3985;stroke-linecap:butt;stroke-linejoin:miter;stroke:rgb(0%,0%,0%);stroke-opacity:1;stroke-dasharray:2.98883,2.98883;stroke-miterlimit:10;" d="M -170.081125 42.520375 L -170.081125 70.86725 " transform="matrix(1.25,0,0,-1.25,272.4725,201.3575)"/>
<path style="fill:none;stroke-width:0.3985;stroke-linecap:butt;stroke-linejoin:miter;stroke:rgb(0%,0%,0%);stroke-opacity:1;stroke-dasharray:2.98883,2.98883;stroke-miterlimit:10;" d="M -127.55925 70.86725 L -127.55925 99.214125 " transform="matrix(1.25,0,0,-1.25,272.4725,201.3575)"/>
<path style="fill:none;stroke-width:0.3985;stroke-linecap:butt;stroke-linejoin:miter;stroke:rgb(0%,0%,0%);stroke-opacity:1;stroke-dasharray:2.98883,2.98883;stroke-miterlimit:10;" d="M -70.868625 99.214125 L -70.868625 127.564125 " transform="matrix(1.25,0,0,-1.25,272.4725,201.3575)"/>
<path style="fill:none;stroke-width:0.3985;stroke-linecap:butt;stroke-linejoin:miter;stroke:rgb(0%,0%,0%);stroke-opacity:1;stroke-dasharray:2.98883,2.98883;stroke-miterlimit:10;" d="M -0.003 127.564125 L -0.003 155.907875 " transform="matrix(1.25,0,0,-1.25,272.4725,201.3575)"/>
<path style="fill:none;stroke-width:0.3985;stroke-linecap:butt;stroke-linejoin:miter;stroke:rgb(0%,0%,0%);stroke-opacity:1;stroke-dasharray:2.98883,2.98883;stroke-miterlimit:10;" d="M 198.42825 14.1735 L 198.42825 42.520375 " transform="matrix(1.25,0,0,-1.25,272.4725,201.3575)"/>
<path style="fill:none;stroke-width:0.3985;stroke-linecap:butt;stroke-linejoin:miter;stroke:rgb(0%,0%,0%);stroke-opacity:1;stroke-dasharray:2.98883,2.98883;stroke-miterlimit:10;" d="M 170.081375 42.520375 L 170.081375 70.86725 " transform="matrix(1.25,0,0,-1.25,272.4725,201.3575)"/>
<path style="fill:none;stroke-width:0.3985;stroke-linecap:butt;stroke-linejoin:miter;stroke:rgb(0%,0%,0%);stroke-opacity:1;stroke-dasharray:2.98883,2.98883;stroke-miterlimit:10;" d="M 127.5595 70.86725 L 127.5595 99.214125 " transform="matrix(1.25,0,0,-1.25,272.4725,201.3575)"/>
<path style="fill:none;stroke-width:0.3985;stroke-linecap:butt;stroke-linejoin:miter;stroke:rgb(0%,0%,0%);stroke-opacity:1;stroke-dasharray:2.98883,2.98883;stroke-miterlimit:10;" d="M 70.86575 99.214125 L 70.86575 127.564125 " transform="matrix(1.25,0,0,-1.25,272.4725,201.3575)"/>
</g>
</svg>
