<?xml version="1.0" encoding="UTF-8"?>
<!-- Converted by misc2svg (http://www.network-science.de/tools/misc2svg/) -->
<svg xmlns="http://www.w3.org/2000/svg" xmlns:xlink="http://www.w3.org/1999/xlink" width="252pt" height="175pt" viewBox="0 0 252 175" version="1.1">
<g id="misc2svg">
<path style="fill:none;stroke-width:0.3985;stroke-linecap:butt;stroke-linejoin:miter;stroke:rgb(0%,0%,0%);stroke-opacity:1;stroke-miterlimit:10;" d="M 0.00025 0.0005 L 160.084625 0.0005 " transform="matrix(1.25,0,0,-1.25,30.32,94.5475)"/>
<path style=" stroke:none;fill-rule:nonzero;fill:rgb(0%,0%,0%);fill-opacity:1;" d="M 232.914062 94.546875 L 228.929688 92.554688 L 230.425781 94.546875 L 228.929688 96.539062 "/>
<path style=" stroke:none;fill-rule:nonzero;fill:rgb(0%,0%,0%);fill-opacity:1;" d="M 241.222656 104.832031 C 241.222656 104.695312 241.125 104.695312 241.085938 104.695312 C 240.96875 104.695312 240.949219 104.734375 240.890625 104.871094 C 240.363281 106.179688 239.699219 106.472656 239.269531 106.472656 C 239.015625 106.472656 238.878906 106.316406 238.878906 105.90625 C 238.878906 105.59375 238.917969 105.515625 238.957031 105.300781 L 239.875 101.628906 L 241.046875 101.628906 C 241.300781 101.628906 241.4375 101.628906 241.4375 101.375 C 241.4375 101.238281 241.300781 101.238281 241.085938 101.238281 L 239.992188 101.238281 C 240.441406 99.460938 240.5 99.226562 240.5 99.148438 C 240.5 98.933594 240.34375 98.816406 240.128906 98.816406 C 240.089844 98.816406 239.738281 98.816406 239.640625 99.265625 L 239.152344 101.238281 L 237.980469 101.238281 C 237.726562 101.238281 237.609375 101.238281 237.609375 101.472656 C 237.609375 101.628906 237.707031 101.628906 237.960938 101.628906 L 239.054688 101.628906 C 238.15625 105.164062 238.097656 105.378906 238.097656 105.59375 C 238.097656 106.277344 238.566406 106.746094 239.25 106.746094 C 240.519531 106.746094 241.222656 104.929688 241.222656 104.832031 Z M 241.222656 104.832031 "/>
<path style="fill:none;stroke-width:0.3985;stroke-linecap:butt;stroke-linejoin:miter;stroke:rgb(0%,0%,0%);stroke-opacity:1;stroke-miterlimit:10;" d="M 0.00025 -59.53075 L 0.00025 57.538 " transform="matrix(1.25,0,0,-1.25,30.32,94.5475)"/>
<path style=" stroke:none;fill-rule:nonzero;fill:rgb(0%,0%,0%);fill-opacity:1;" d="M 30.320312 20.136719 L 28.324219 24.121094 L 30.320312 22.625 L 32.3125 24.121094 "/>
<path style=" stroke:none;fill-rule:nonzero;fill:rgb(0%,0%,0%);fill-opacity:1;" d="M 24.972656 13.960938 C 24.972656 13.824219 24.875 13.824219 24.835938 13.824219 C 24.71875 13.824219 24.699219 13.882812 24.660156 13.960938 C 24.25 15.308594 23.410156 15.601562 23.019531 15.601562 C 22.53125 15.601562 22.335938 15.210938 22.335938 14.78125 C 22.335938 14.507812 22.394531 14.234375 22.53125 13.6875 L 22.960938 11.96875 C 23.039062 11.65625 23.332031 10.503906 24.191406 10.503906 C 24.25 10.503906 24.5625 10.503906 24.816406 10.660156 C 24.464844 10.738281 24.230469 11.03125 24.230469 11.34375 C 24.230469 11.539062 24.367188 11.773438 24.699219 11.773438 C 24.972656 11.773438 25.363281 11.558594 25.363281 11.050781 C 25.363281 10.40625 24.640625 10.230469 24.210938 10.230469 C 23.488281 10.230469 23.058594 10.894531 22.902344 11.167969 C 22.589844 10.347656 21.925781 10.230469 21.554688 10.230469 C 20.265625 10.230469 19.542969 11.832031 19.542969 12.144531 C 19.542969 12.28125 19.699219 12.28125 19.699219 12.28125 C 19.796875 12.28125 19.835938 12.242188 19.855469 12.144531 C 20.285156 10.816406 21.105469 10.503906 21.535156 10.503906 C 21.769531 10.503906 22.199219 10.621094 22.199219 11.34375 C 22.199219 11.734375 21.984375 12.554688 21.535156 14.3125 C 21.339844 15.074219 20.890625 15.601562 20.34375 15.601562 C 20.265625 15.601562 19.992188 15.601562 19.71875 15.445312 C 20.03125 15.367188 20.304688 15.113281 20.304688 14.761719 C 20.304688 14.429688 20.03125 14.332031 19.855469 14.332031 C 19.464844 14.332031 19.171875 14.644531 19.171875 15.054688 C 19.171875 15.621094 19.777344 15.875 20.324219 15.875 C 21.164062 15.875 21.613281 14.996094 21.632812 14.9375 C 21.789062 15.386719 22.238281 15.875 22.980469 15.875 C 24.269531 15.875 24.972656 14.273438 24.972656 13.960938 Z M 24.972656 13.960938 "/>
<path style="fill:none;stroke-width:0.79701;stroke-linecap:butt;stroke-linejoin:miter;stroke:rgb(0%,0%,100%);stroke-opacity:1;stroke-miterlimit:10;" d="M 0.00025 49.60675 C 0.00025 49.60675 0.7565 49.04425 1.044 48.74425 C 1.33775 48.447375 1.803375 47.872375 2.090875 47.459875 C 2.3815 47.047375 2.844 46.291125 3.13775 45.772375 C 3.428375 45.2505 3.890875 44.334875 4.1815 43.716125 C 4.47525 43.1005 4.93775 42.028625 5.228375 41.322375 C 5.515875 40.616125 5.984625 39.40675 6.27525 38.616125 C 6.56275 37.8255 7.028375 36.49425 7.322125 35.63175 C 7.609625 34.766125 8.07525 33.322375 8.365875 32.397375 C 8.6565 31.46925 9.122125 29.938 9.41275 28.959875 C 9.70025 27.98175 10.165875 26.366125 10.459625 25.34425 C 10.747125 24.322375 11.21275 22.6505 11.50025 21.59425 C 11.794 20.541125 12.259625 18.8255 12.547125 17.7505 C 12.83775 16.672375 13.3065 14.93175 13.594 13.84425 C 13.884625 12.759875 14.35025 11.0005 14.640875 9.913 C 14.9315 8.8255 15.397125 7.0755 15.684625 5.99425 C 15.978375 4.916125 16.444 3.188 16.7315 2.1255 C 17.022125 1.063 17.484625 -0.627625 17.778375 -1.662 C 18.069 -2.696375 18.5315 -4.333875 18.82525 -5.333875 C 19.115875 -6.333875 19.578375 -7.912 19.869 -8.865125 C 20.16275 -9.821375 20.62525 -11.321375 20.915875 -12.2245 C 21.203375 -13.13075 21.669 -14.540125 21.96275 -15.390125 C 22.25025 -16.237 22.715875 -17.546375 23.0065 -18.327625 C 23.297125 -19.108875 23.76275 -20.312 24.053375 -21.0245 C 24.340875 -21.737 24.809625 -22.827625 25.10025 -23.462 C 25.38775 -24.0995 25.853375 -25.065125 26.147125 -25.6245 C 26.434625 -26.18075 26.90025 -27.01825 27.18775 -27.49325 C 27.4815 -27.9745 27.947125 -28.677625 28.234625 -29.071375 C 28.52525 -29.46825 28.990875 -30.033875 29.2815 -30.34325 C 29.572125 -30.65575 30.03775 -31.083875 30.32525 -31.30575 C 30.619 -31.533875 31.084625 -31.827625 31.372125 -31.96825 C 31.66275 -32.108875 32.1315 -32.25575 32.419 -32.312 C 32.709625 -32.365125 33.172125 -32.390125 33.465875 -32.362 C 33.7565 -32.333875 34.219 -32.2245 34.509625 -32.11825 C 34.803375 -32.008875 35.265875 -31.771375 35.5565 -31.587 C 35.844 -31.3995 36.309625 -31.040125 36.603375 -30.783875 C 36.890875 -30.5245 37.3565 -30.052625 37.647125 -29.7245 C 37.93775 -29.3995 38.403375 -28.815125 38.694 -28.4245 C 38.984625 -28.03075 39.45025 -27.3495 39.740875 -26.8995 C 40.028375 -26.452625 40.494 -25.68075 40.78775 -25.1745 C 41.07525 -24.671375 41.540875 -23.815125 41.828375 -23.258875 C 42.122125 -22.708875 42.58775 -21.783875 42.87525 -21.190125 C 43.165875 -20.596375 43.634625 -19.612 43.922125 -18.983875 C 44.21275 -18.352625 44.678375 -17.315125 44.969 -16.65575 C 45.259625 -15.9995 45.72525 -14.9245 46.01275 -14.24325 C 46.3065 -13.565125 46.772125 -12.458875 47.059625 -11.765125 C 47.35025 -11.06825 47.81275 -9.94325 48.1065 -9.240125 C 48.397125 -8.537 48.859625 -7.40575 49.15025 -6.702625 C 49.444 -5.9995 49.9065 -4.865125 50.197125 -4.165125 C 50.484625 -3.46825 50.953375 -2.3495 51.244 -1.662 C 51.5315 -0.971375 51.997125 0.122375 52.290875 0.79425 C 52.578375 1.466125 53.044 2.528625 53.334625 3.178625 C 53.62525 3.828625 54.090875 4.853625 54.3815 5.4755 C 54.669 6.09425 55.134625 7.06925 55.428375 7.65675 C 55.715875 8.247375 56.1815 9.166125 56.469 9.716125 C 56.76275 10.272375 57.228375 11.1255 57.515875 11.634875 C 57.8065 12.147375 58.27525 12.93175 58.56275 13.397375 C 58.853375 13.859875 59.319 14.5755 59.609625 14.99425 C 59.90025 15.413 60.365875 16.04425 60.653375 16.413 C 60.947125 16.778625 61.41275 17.328625 61.70025 17.641125 C 61.990875 17.959875 62.459625 18.422375 62.747125 18.684875 C 63.03775 18.947375 63.50025 19.322375 63.794 19.528625 C 64.084625 19.734875 64.547125 20.0255 64.83775 20.178625 C 65.1315 20.328625 65.594 20.528625 65.884625 20.622375 C 66.172125 20.71925 66.63775 20.834875 66.9315 20.872375 C 67.219 20.916125 67.684625 20.934875 67.97525 20.922375 C 68.265875 20.913 68.7315 20.853625 69.022125 20.791125 C 69.309625 20.7255 69.778375 20.578625 70.069 20.466125 C 70.3565 20.353625 70.822125 20.13175 71.115875 19.96925 C 71.403375 19.80675 71.869 19.50675 72.1565 19.297375 C 72.45025 19.09425 72.915875 18.728625 73.203375 18.478625 C 73.494 18.23175 73.959625 17.797375 74.25025 17.509875 C 74.540875 17.2255 75.0065 16.728625 75.294 16.403625 C 75.58775 16.084875 76.053375 15.541125 76.340875 15.184875 C 76.6315 14.834875 77.10025 14.241125 77.38775 13.85675 C 77.678375 13.478625 78.140875 12.841125 78.434625 12.438 C 78.72525 12.03175 79.18775 11.366125 79.478375 10.94425 C 79.772125 10.522375 80.234625 9.8255 80.52525 9.388 C 80.81275 8.9505 81.278375 8.241125 81.572125 7.791125 C 81.859625 7.34425 82.32525 6.61925 82.619 6.163 C 82.9065 5.709875 83.372125 4.978625 83.66275 4.522375 C 83.953375 4.06925 84.419 3.334875 84.709625 2.88175 C 84.997125 2.43175 85.46275 1.703625 85.7565 1.259875 C 86.044 0.813 86.509625 0.103625 86.797125 -0.33075 C 87.090875 -0.76825 87.5565 -1.45575 87.844 -1.877625 C 88.134625 -2.2995 88.603375 -2.96825 88.890875 -3.36825 C 89.1815 -3.771375 89.647125 -4.408875 89.93775 -4.790125 C 90.228375 -5.1745 90.694 -5.771375 90.9815 -6.13075 C 91.27525 -6.490125 91.740875 -7.0495 92.028375 -7.38075 C 92.319 -7.712 92.7815 -8.227625 93.07525 -8.533875 C 93.365875 -8.837 93.828375 -9.302625 94.119 -9.577625 C 94.41275 -9.852625 94.87525 -10.26825 95.165875 -10.50575 C 95.453375 -10.7495 95.922125 -11.108875 96.21275 -11.31825 C 96.50025 -11.5245 96.965875 -11.83075 97.259625 -12.002625 C 97.547125 -12.177625 98.01275 -12.427625 98.303375 -12.56825 C 98.594 -12.70575 99.059625 -12.896375 99.35025 -12.9995 C 99.63775 -13.0995 100.103375 -13.237 100.397125 -13.2995 C 100.684625 -13.365125 101.15025 -13.44325 101.43775 -13.4745 C 101.7315 -13.50575 102.197125 -13.53075 102.484625 -13.5245 C 102.77525 -13.5245 103.244 -13.490125 103.5315 -13.452625 C 103.822125 -13.415125 104.28775 -13.327625 104.578375 -13.25575 C 104.869 -13.187 105.334625 -13.0495 105.622125 -12.946375 C 105.915875 -12.846375 106.3815 -12.662 106.669 -12.53075 C 106.959625 -12.3995 107.428375 -12.171375 107.715875 -12.008875 C 108.0065 -11.852625 108.469 -11.577625 108.76275 -11.39325 C 109.053375 -11.208875 109.515875 -10.896375 109.8065 -10.690125 C 110.10025 -10.487 110.56275 -10.133875 110.853375 -9.908875 C 111.140875 -9.68075 111.6065 -9.302625 111.90025 -9.062 C 112.18775 -8.815125 112.653375 -8.40575 112.944 -8.146375 C 113.234625 -7.883875 113.70025 -7.458875 113.990875 -7.187 C 114.278375 -6.915125 114.747125 -6.46825 115.03775 -6.187 C 115.32525 -5.90575 115.790875 -5.44325 116.084625 -5.15575 C 116.372125 -4.865125 116.83775 -4.396375 117.12525 -4.108875 C 117.419 -3.815125 117.884625 -3.337 118.172125 -3.046375 C 118.46275 -2.752625 118.928375 -2.2745 119.219 -1.983875 C 119.509625 -1.69325 119.97525 -1.2245 120.26275 -0.937 C 120.5565 -0.646375 121.022125 -0.187 121.309625 0.09425 C 121.60025 0.38175 122.069 0.8255 122.3565 1.1005 C 122.647125 1.372375 123.109625 1.80675 123.403375 2.06925 C 123.694 2.328625 124.1565 2.74425 124.447125 2.99425 C 124.740875 3.241125 125.203375 3.63175 125.494 3.866125 C 125.7815 4.1005 126.247125 4.463 126.540875 4.68175 C 126.828375 4.9005 127.294 5.234875 127.58775 5.434875 C 127.87525 5.634875 128.340875 5.934875 128.6315 6.116125 C 128.922125 6.29425 129.38775 6.563 129.678375 6.7255 C 129.965875 6.884875 130.4315 7.122375 130.72525 7.259875 C 131.01275 7.397375 131.478375 7.6005 131.765875 7.713 C 132.059625 7.828625 132.52525 7.99425 132.81275 8.084875 C 133.103375 8.178625 133.572125 8.303625 133.859625 8.372375 C 134.15025 8.44425 134.615875 8.53175 134.9065 8.578625 C 135.197125 8.6255 135.66275 8.68175 135.95025 8.7005 C 136.244 8.7255 136.709625 8.741125 136.997125 8.741125 C 137.28775 8.741125 137.75025 8.7255 138.044 8.703625 C 138.334625 8.68175 138.797125 8.63175 139.08775 8.588 C 139.3815 8.54425 139.844 8.459875 140.134625 8.391125 C 140.422125 8.328625 140.890875 8.216125 141.1815 8.134875 C 141.469 8.053625 141.934625 7.903625 142.228375 7.80675 C 142.515875 7.703625 142.9815 7.528625 143.272125 7.413 C 143.56275 7.29425 144.028375 7.1005 144.319 6.966125 C 144.6065 6.834875 145.072125 6.609875 145.365875 6.463 C 145.653375 6.31925 146.119 6.0755 146.4065 5.91925 C 146.70025 5.763 147.165875 5.50675 147.453375 5.338 C 147.747125 5.16925 148.21275 4.891125 148.50025 4.716125 C 148.790875 4.54425 149.2565 4.25675 149.547125 4.0755 C 149.83775 3.891125 150.303375 3.59425 150.590875 3.413 C 150.884625 3.2255 151.35025 2.922375 151.63775 2.73175 C 151.928375 2.54425 152.397125 2.234875 152.684625 2.047375 C 152.97525 1.85675 153.43775 1.553625 153.7315 1.359875 C 154.022125 1.172375 154.484625 0.86925 154.77525 0.68175 C 155.069 0.49425 155.822125 0.013 155.822125 0.013 " transform="matrix(1.25,0,0,-1.25,30.32,94.5475)"/>
<path style="fill:none;stroke-width:0.3985;stroke-linecap:butt;stroke-linejoin:miter;stroke:rgb(50.196078%,50.196078%,50.196078%);stroke-opacity:1;stroke-dasharray:0.3985,1.99255;stroke-miterlimit:10;" d="M 0.00025 49.60675 C 0.00025 49.60675 0.7565 49.147375 1.044 48.96925 C 1.33775 48.791125 1.803375 48.50675 2.090875 48.328625 C 2.3815 48.1505 2.844 47.86925 3.13775 47.69425 C 3.428375 47.516125 3.890875 47.241125 4.1815 47.06925 C 4.47525 46.897375 4.93775 46.622375 5.228375 46.4505 C 5.515875 46.28175 5.984625 46.013 6.27525 45.84425 C 6.56275 45.68175 7.028375 45.413 7.322125 45.247375 C 7.609625 45.078625 8.07525 44.813 8.365875 44.653625 C 8.6565 44.491125 9.122125 44.23175 9.41275 44.072375 C 9.70025 43.913 10.165875 43.6505 10.459625 43.491125 C 10.747125 43.328625 11.21275 43.0755 11.50025 42.91925 C 11.794 42.763 12.259625 42.513 12.547125 42.359875 C 12.83775 42.203625 13.3065 41.963 13.594 41.809875 C 13.884625 41.65675 14.35025 41.40675 14.640875 41.259875 C 14.9315 41.10675 15.397125 40.866125 15.684625 40.716125 C 15.978375 40.56925 16.444 40.334875 16.7315 40.184875 C 17.022125 40.041125 17.484625 39.80675 17.778375 39.663 C 18.069 39.513 18.5315 39.28175 18.82525 39.138 C 19.115875 38.997375 19.578375 38.772375 19.869 38.6255 C 20.16275 38.484875 20.62525 38.259875 20.915875 38.122375 C 21.203375 37.98175 21.669 37.763 21.96275 37.6255 C 22.25025 37.491125 22.715875 37.266125 23.0065 37.13175 C 23.297125 36.99425 23.76275 36.778625 24.053375 36.641125 C 24.340875 36.509875 24.809625 36.297375 25.10025 36.166125 C 25.38775 36.03175 25.853375 35.822375 26.147125 35.688 C 26.434625 35.559875 26.90025 35.353625 27.18775 35.2255 C 27.4815 35.09425 27.947125 34.888 28.234625 34.763 C 28.52525 34.634875 28.990875 34.43175 29.2815 34.30675 C 29.572125 34.18175 30.03775 33.98175 30.32525 33.859875 C 30.619 33.734875 31.084625 33.541125 31.372125 33.41925 C 31.66275 33.29425 32.1315 33.1005 32.419 32.9755 C 32.709625 32.853625 33.172125 32.663 33.465875 32.54425 C 33.7565 32.428625 34.219 32.241125 34.509625 32.122375 C 34.803375 32.00675 35.265875 31.81925 35.5565 31.7005 C 35.844 31.584875 36.309625 31.4005 36.603375 31.28175 C 36.890875 31.16925 37.3565 30.991125 37.647125 30.8755 C 37.93775 30.763 38.403375 30.584875 38.694 30.46925 C 38.984625 30.359875 39.45025 30.184875 39.740875 30.0755 C 40.028375 29.966125 40.494 29.791125 40.78775 29.68175 C 41.07525 29.572375 41.540875 29.397375 41.828375 29.291125 C 42.122125 29.18175 42.58775 29.013 42.87525 28.90675 C 43.165875 28.803625 43.634625 28.634875 43.922125 28.528625 C 44.21275 28.428625 44.678375 28.25675 44.969 28.153625 C 45.259625 28.053625 45.72525 27.888 46.01275 27.788 C 46.3065 27.684875 46.772125 27.5255 47.059625 27.422375 C 47.35025 27.322375 47.81275 27.163 48.1065 27.059875 C 48.397125 26.963 48.859625 26.80675 49.15025 26.709875 C 49.444 26.609875 49.9065 26.459875 50.197125 26.359875 C 50.484625 26.266125 50.953375 26.109875 51.244 26.013 C 51.5315 25.91925 51.997125 25.766125 52.290875 25.672375 C 52.578375 25.578625 53.044 25.43175 53.334625 25.341125 C 53.62525 25.247375 54.090875 25.1005 54.3815 25.009875 C 54.669 24.916125 55.134625 24.772375 55.428375 24.68175 C 55.715875 24.591125 56.1815 24.447375 56.469 24.35675 C 56.76275 24.266125 57.228375 24.1255 57.515875 24.041125 C 57.8065 23.9505 58.27525 23.809875 58.56275 23.7255 C 58.853375 23.634875 59.319 23.5005 59.609625 23.416125 C 59.90025 23.328625 60.365875 23.19425 60.653375 23.10675 C 60.947125 23.022375 61.41275 22.888 61.70025 22.80675 C 61.990875 22.71925 62.459625 22.591125 62.747125 22.50675 C 63.03775 22.422375 63.50025 22.291125 63.794 22.209875 C 64.084625 22.1255 64.547125 22.0005 64.83775 21.91925 C 65.1315 21.841125 65.594 21.713 65.884625 21.634875 C 66.172125 21.55675 66.63775 21.43175 66.9315 21.3505 C 67.219 21.272375 67.684625 21.147375 67.97525 21.06925 C 68.265875 20.991125 68.7315 20.86925 69.022125 20.79425 C 69.309625 20.71925 69.778375 20.6005 70.069 20.522375 C 70.3565 20.447375 70.822125 20.328625 71.115875 20.25675 C 71.403375 20.18175 71.869 20.059875 72.1565 19.984875 C 72.45025 19.913 72.915875 19.797375 73.203375 19.728625 C 73.494 19.65675 73.959625 19.541125 74.25025 19.46925 C 74.540875 19.4005 75.0065 19.28175 75.294 19.213 C 75.58775 19.141125 76.053375 19.03175 76.340875 18.963 C 76.6315 18.897375 77.10025 18.788 77.38775 18.716125 C 77.678375 18.647375 78.140875 18.538 78.434625 18.466125 C 78.72525 18.4005 79.18775 18.291125 79.478375 18.2255 C 79.772125 18.15675 80.234625 18.053625 80.52525 17.984875 C 80.81275 17.91925 81.278375 17.81925 81.572125 17.7505 C 81.859625 17.688 82.32525 17.584875 82.619 17.522375 C 82.9065 17.453625 83.372125 17.35675 83.66275 17.291125 C 83.953375 17.228625 84.419 17.1255 84.709625 17.063 C 84.997125 17.0005 85.46275 16.9005 85.7565 16.841125 C 86.044 16.778625 86.509625 16.68175 86.797125 16.622375 C 87.090875 16.559875 87.5565 16.463 87.844 16.403625 C 88.134625 16.34425 88.603375 16.247375 88.890875 16.188 C 89.1815 16.13175 89.647125 16.038 89.93775 15.978625 C 90.228375 15.91925 90.694 15.8255 90.9815 15.766125 C 91.27525 15.713 91.740875 15.61925 92.028375 15.559875 C 92.319 15.5005 92.7815 15.413 93.07525 15.35675 C 93.365875 15.303625 93.828375 15.213 94.119 15.15675 C 94.41275 15.103625 94.87525 15.013 95.165875 14.959875 C 95.453375 14.903625 95.922125 14.813 96.21275 14.759875 C 96.50025 14.709875 96.965875 14.61925 97.259625 14.56925 C 97.547125 14.513 98.01275 14.43175 98.303375 14.38175 C 98.594 14.3255 99.059625 14.24425 99.35025 14.188 C 99.63775 14.138 100.103375 14.053625 100.397125 14.0005 C 100.684625 13.9505 101.15025 13.86925 101.43775 13.81925 C 101.7315 13.766125 102.197125 13.688 102.484625 13.641125 C 102.77525 13.591125 103.244 13.509875 103.5315 13.463 C 103.822125 13.413 104.28775 13.334875 104.578375 13.28175 C 104.869 13.234875 105.334625 13.15675 105.622125 13.10675 C 105.915875 13.059875 106.3815 12.984875 106.669 12.938 C 106.959625 12.891125 107.428375 12.81925 107.715875 12.772375 C 108.0065 12.7255 108.469 12.6505 108.76275 12.603625 C 109.053375 12.55675 109.515875 12.484875 109.8065 12.438 C 110.10025 12.391125 110.56275 12.322375 110.853375 12.2755 C 111.140875 12.23175 111.6065 12.163 111.90025 12.116125 C 112.18775 12.072375 112.653375 11.997375 112.944 11.953625 C 113.234625 11.90675 113.70025 11.841125 113.990875 11.797375 C 114.278375 11.75675 114.747125 11.688 115.03775 11.647375 C 115.32525 11.603625 115.790875 11.53175 116.084625 11.491125 C 116.372125 11.4505 116.83775 11.384875 117.12525 11.341125 C 117.419 11.303625 117.884625 11.234875 118.172125 11.19425 C 118.46275 11.153625 118.928375 11.084875 119.219 11.04425 C 119.509625 11.00675 119.97525 10.938 120.26275 10.9005 C 120.5565 10.859875 121.022125 10.79425 121.309625 10.75675 C 121.60025 10.716125 122.069 10.65675 122.3565 10.61925 C 122.647125 10.578625 123.109625 10.516125 123.403375 10.478625 C 123.694 10.438 124.1565 10.3755 124.447125 10.341125 C 124.740875 10.303625 125.203375 10.24425 125.494 10.209875 C 125.7815 10.16925 126.247125 10.109875 126.540875 10.072375 C 126.828375 10.038 127.294 9.978625 127.58775 9.94425 C 127.87525 9.90675 128.340875 9.84425 128.6315 9.809875 C 128.922125 9.772375 129.38775 9.716125 129.678375 9.68175 C 129.965875 9.647375 130.4315 9.591125 130.72525 9.55675 C 131.01275 9.522375 131.478375 9.466125 131.765875 9.43175 C 132.059625 9.397375 132.52525 9.341125 132.81275 9.30675 C 133.103375 9.2755 133.572125 9.216125 133.859625 9.184875 C 134.15025 9.1505 134.615875 9.1005 134.9065 9.063 C 135.197125 9.03175 135.66275 8.978625 135.95025 8.947375 C 136.244 8.913 136.709625 8.859875 136.997125 8.8255 C 137.28775 8.79425 137.75025 8.74425 138.044 8.713 C 138.334625 8.68175 138.797125 8.63175 139.08775 8.6005 C 139.3815 8.56925 139.844 8.516125 140.134625 8.484875 C 140.422125 8.453625 140.890875 8.40675 141.1815 8.3755 C 141.469 8.34425 141.934625 8.29425 142.228375 8.266125 C 142.515875 8.234875 142.9815 8.184875 143.272125 8.15675 C 143.56275 8.1255 144.028375 8.084875 144.319 8.053625 C 144.6065 8.0255 145.072125 7.9755 145.365875 7.94425 C 145.653375 7.916125 146.119 7.86925 146.4065 7.841125 C 146.70025 7.809875 147.165875 7.766125 147.453375 7.741125 C 147.747125 7.713 148.21275 7.666125 148.50025 7.634875 C 148.790875 7.60675 149.2565 7.563 149.547125 7.538 C 149.83775 7.509875 150.303375 7.466125 150.590875 7.438 C 150.884625 7.413 151.35025 7.36925 151.63775 7.341125 C 151.928375 7.31925 152.397125 7.272375 152.684625 7.24425 C 152.97525 7.216125 153.43775 7.178625 153.7315 7.1505 C 154.022125 7.122375 154.484625 7.078625 154.77525 7.05675 C 155.069 7.028625 155.822125 6.966125 155.822125 6.966125 " transform="matrix(1.25,0,0,-1.25,30.32,94.5475)"/>
<path style="fill:none;stroke-width:0.3985;stroke-linecap:butt;stroke-linejoin:miter;stroke:rgb(50.196078%,50.196078%,50.196078%);stroke-opacity:1;stroke-dasharray:0.3985,1.99255;stroke-miterlimit:10;" d="M 0.00025 -49.608875 C 0.00025 -49.608875 0.7565 -49.146375 1.044 -48.96825 C 1.33775 -48.790125 1.803375 -48.50575 2.090875 -48.327625 C 2.3815 -48.1495 2.844 -47.86825 3.13775 -47.69325 C 3.428375 -47.51825 3.890875 -47.240125 4.1815 -47.06825 C 4.47525 -46.896375 4.93775 -46.6245 5.228375 -46.452625 C 5.515875 -46.283875 5.984625 -46.015125 6.27525 -45.846375 C 6.56275 -45.677625 7.028375 -45.412 7.322125 -45.24325 C 7.609625 -45.08075 8.07525 -44.815125 8.365875 -44.6495 C 8.6565 -44.487 9.122125 -44.233875 9.41275 -44.071375 C 9.70025 -43.908875 10.165875 -43.6495 10.459625 -43.490125 C 10.747125 -43.33075 11.21275 -43.077625 11.50025 -42.921375 C 11.794 -42.765125 12.259625 -42.515125 12.547125 -42.358875 C 12.83775 -42.20575 13.3065 -41.958875 13.594 -41.80575 C 13.884625 -41.65575 14.35025 -41.408875 14.640875 -41.25575 C 14.9315 -41.102625 15.397125 -40.865125 15.684625 -40.71825 C 15.978375 -40.56825 16.444 -40.33075 16.7315 -40.187 C 17.022125 -40.037 17.484625 -39.802625 17.778375 -39.658875 C 18.069 -39.515125 18.5315 -39.283875 18.82525 -39.140125 C 19.115875 -38.99325 19.578375 -38.76825 19.869 -38.627625 C 20.16275 -38.487 20.62525 -38.258875 20.915875 -38.11825 C 21.203375 -37.983875 21.669 -37.765125 21.96275 -37.627625 C 22.25025 -37.487 22.715875 -37.265125 23.0065 -37.127625 C 23.297125 -36.99325 23.76275 -36.7745 24.053375 -36.64325 C 24.340875 -36.508875 24.809625 -36.2995 25.10025 -36.165125 C 25.38775 -36.033875 25.853375 -35.821375 26.147125 -35.690125 C 26.434625 -35.562 26.90025 -35.352625 27.18775 -35.2245 C 27.4815 -35.096375 27.947125 -34.890125 28.234625 -34.758875 C 28.52525 -34.633875 28.990875 -34.43075 29.2815 -34.30575 C 29.572125 -34.18075 30.03775 -33.983875 30.32525 -33.858875 C 30.619 -33.737 31.084625 -33.540125 31.372125 -33.415125 C 31.66275 -33.296375 32.1315 -33.096375 32.419 -32.9745 C 32.709625 -32.852625 33.172125 -32.662 33.465875 -32.546375 C 33.7565 -32.4245 34.219 -32.240125 34.509625 -32.1245 C 34.803375 -32.00575 35.265875 -31.81825 35.5565 -31.702625 C 35.844 -31.583875 36.309625 -31.396375 36.603375 -31.283875 C 36.890875 -31.171375 37.3565 -30.990125 37.647125 -30.877625 C 37.93775 -30.765125 38.403375 -30.58075 38.694 -30.471375 C 38.984625 -30.358875 39.45025 -30.18075 39.740875 -30.071375 C 40.028375 -29.962 40.494 -29.790125 40.78775 -29.68075 C 41.07525 -29.571375 41.540875 -29.396375 41.828375 -29.287 C 42.122125 -29.18075 42.58775 -29.015125 42.87525 -28.908875 C 43.165875 -28.802625 43.634625 -28.633875 43.922125 -28.53075 C 44.21275 -28.4245 44.678375 -28.25575 44.969 -28.15575 C 45.259625 -28.0495 45.72525 -27.890125 46.01275 -27.787 C 46.3065 -27.687 46.772125 -27.5245 47.059625 -27.4245 C 47.35025 -27.321375 47.81275 -27.158875 48.1065 -27.062 C 48.397125 -26.962 48.859625 -26.80575 49.15025 -26.708875 C 49.444 -26.612 49.9065 -26.458875 50.197125 -26.362 C 50.484625 -26.265125 50.953375 -26.112 51.244 -26.015125 C 51.5315 -25.921375 51.997125 -25.765125 52.290875 -25.671375 C 52.578375 -25.577625 53.044 -25.43075 53.334625 -25.337 C 53.62525 -25.2495 54.090875 -25.0995 54.3815 -25.00575 C 54.669 -24.915125 55.134625 -24.76825 55.428375 -24.677625 C 55.715875 -24.587 56.1815 -24.446375 56.469 -24.358875 C 56.76275 -24.26825 57.228375 -24.127625 57.515875 -24.037 C 57.8065 -23.952625 58.27525 -23.80575 58.56275 -23.721375 C 58.853375 -23.633875 59.319 -23.4995 59.609625 -23.412 C 59.90025 -23.33075 60.365875 -23.190125 60.653375 -23.108875 C 60.947125 -23.021375 61.41275 -22.883875 61.70025 -22.802625 C 61.990875 -22.721375 62.459625 -22.587 62.747125 -22.50575 C 63.03775 -22.4245 63.50025 -22.290125 63.794 -22.208875 C 64.084625 -22.127625 64.547125 -22.002625 64.83775 -21.921375 C 65.1315 -21.84325 65.594 -21.712 65.884625 -21.63075 C 66.172125 -21.552625 66.63775 -21.427625 66.9315 -21.3495 C 67.219 -21.271375 67.684625 -21.14325 67.97525 -21.06825 C 68.265875 -20.990125 68.7315 -20.86825 69.022125 -20.796375 C 69.309625 -20.71825 69.778375 -20.596375 70.069 -20.521375 C 70.3565 -20.446375 70.822125 -20.327625 71.115875 -20.252625 C 71.403375 -20.177625 71.869 -20.05575 72.1565 -19.987 C 72.45025 -19.912 72.915875 -19.7995 73.203375 -19.727625 C 73.494 -19.65575 73.959625 -19.540125 74.25025 -19.471375 C 74.540875 -19.396375 75.0065 -19.283875 75.294 -19.212 C 75.58775 -19.14325 76.053375 -19.033875 76.340875 -18.962 C 76.6315 -18.89325 77.10025 -18.783875 77.38775 -18.71825 C 77.678375 -18.646375 78.140875 -18.537 78.434625 -18.46825 C 78.72525 -18.3995 79.18775 -18.290125 79.478375 -18.2245 C 79.772125 -18.158875 80.234625 -18.052625 80.52525 -17.987 C 80.81275 -17.921375 81.278375 -17.81825 81.572125 -17.752625 C 81.859625 -17.690125 82.32525 -17.583875 82.619 -17.51825 C 82.9065 -17.45575 83.372125 -17.352625 83.66275 -17.290125 C 83.953375 -17.227625 84.419 -17.127625 84.709625 -17.065125 C 84.997125 -17.002625 85.46275 -16.8995 85.7565 -16.837 C 86.044 -16.78075 86.509625 -16.68075 86.797125 -16.61825 C 87.090875 -16.562 87.5565 -16.462 87.844 -16.40575 C 88.134625 -16.34325 88.603375 -16.2495 88.890875 -16.190125 C 89.1815 -16.13075 89.647125 -16.033875 89.93775 -15.9745 C 90.228375 -15.915125 90.694 -15.827625 90.9815 -15.76825 C 91.27525 -15.708875 91.740875 -15.615125 92.028375 -15.562 C 92.319 -15.502625 92.7815 -15.412 93.07525 -15.358875 C 93.365875 -15.2995 93.828375 -15.212 94.119 -15.158875 C 94.41275 -15.102625 94.87525 -15.015125 95.165875 -14.958875 C 95.453375 -14.90575 95.922125 -14.815125 96.21275 -14.758875 C 96.50025 -14.70575 96.965875 -14.61825 97.259625 -14.56825 C 97.547125 -14.515125 98.01275 -14.43075 98.303375 -14.377625 C 98.594 -14.327625 99.059625 -14.240125 99.35025 -14.190125 C 99.63775 -14.140125 100.103375 -14.052625 100.397125 -14.002625 C 100.684625 -13.952625 101.15025 -13.86825 101.43775 -13.81825 C 101.7315 -13.76825 102.197125 -13.690125 102.484625 -13.640125 C 102.77525 -13.587 103.244 -13.508875 103.5315 -13.458875 C 103.822125 -13.412 104.28775 -13.33075 104.578375 -13.283875 C 104.869 -13.233875 105.334625 -13.15575 105.622125 -13.108875 C 105.915875 -13.062 106.3815 -12.987 106.669 -12.940125 C 106.959625 -12.89325 107.428375 -12.81825 107.715875 -12.771375 C 108.0065 -12.7245 108.469 -12.6495 108.76275 -12.602625 C 109.053375 -12.55575 109.515875 -12.483875 109.8065 -12.440125 C 110.10025 -12.39325 110.56275 -12.31825 110.853375 -12.2745 C 111.140875 -12.227625 111.6065 -12.162 111.90025 -12.115125 C 112.18775 -12.071375 112.653375 -11.99325 112.944 -11.952625 C 113.234625 -11.908875 113.70025 -11.84325 113.990875 -11.7995 C 114.278375 -11.75575 114.747125 -11.687 115.03775 -11.646375 C 115.32525 -11.602625 115.790875 -11.533875 116.084625 -11.490125 C 116.372125 -11.446375 116.83775 -11.383875 117.12525 -11.34325 C 117.419 -11.2995 117.884625 -11.233875 118.172125 -11.19325 C 118.46275 -11.1495 118.928375 -11.083875 119.219 -11.046375 C 119.509625 -11.002625 119.97525 -10.940125 120.26275 -10.8995 C 120.5565 -10.862 121.022125 -10.796375 121.309625 -10.75575 C 121.60025 -10.71825 122.069 -10.65575 122.3565 -10.61825 C 122.647125 -10.58075 123.109625 -10.51825 123.403375 -10.477625 C 123.694 -10.440125 124.1565 -10.377625 124.447125 -10.337 C 124.740875 -10.302625 125.203375 -10.24325 125.494 -10.20575 C 125.7815 -10.171375 126.247125 -10.108875 126.540875 -10.071375 C 126.828375 -10.037 127.294 -9.977625 127.58775 -9.94325 C 127.87525 -9.90575 128.340875 -9.846375 128.6315 -9.80575 C 128.922125 -9.771375 129.38775 -9.712 129.678375 -9.677625 C 129.965875 -9.646375 130.4315 -9.59325 130.72525 -9.55575 C 131.01275 -9.521375 131.478375 -9.46825 131.765875 -9.43075 C 132.059625 -9.396375 132.52525 -9.34325 132.81275 -9.30575 C 133.103375 -9.271375 133.572125 -9.21825 133.859625 -9.18075 C 134.15025 -9.1495 134.615875 -9.096375 134.9065 -9.065125 C 135.197125 -9.033875 135.66275 -8.977625 135.95025 -8.946375 C 136.244 -8.912 136.709625 -8.858875 136.997125 -8.827625 C 137.28775 -8.796375 137.75025 -8.74325 138.044 -8.712 C 138.334625 -8.68075 138.797125 -8.63075 139.08775 -8.5995 C 139.3815 -8.56825 139.844 -8.515125 140.134625 -8.483875 C 140.422125 -8.452625 140.890875 -8.40575 141.1815 -8.3745 C 141.469 -8.346375 141.934625 -8.296375 142.228375 -8.265125 C 142.515875 -8.237 142.9815 -8.187 143.272125 -8.15575 C 143.56275 -8.127625 144.028375 -8.08075 144.319 -8.052625 C 144.6065 -8.021375 145.072125 -7.971375 145.365875 -7.94325 C 145.653375 -7.912 146.119 -7.865125 146.4065 -7.837 C 146.70025 -7.812 147.165875 -7.76825 147.453375 -7.740125 C 147.747125 -7.712 148.21275 -7.662 148.50025 -7.633875 C 148.790875 -7.608875 149.2565 -7.565125 149.547125 -7.537 C 149.83775 -7.508875 150.303375 -7.462 150.590875 -7.437 C 150.884625 -7.408875 151.35025 -7.36825 151.63775 -7.34325 C 151.928375 -7.315125 152.397125 -7.271375 152.684625 -7.24325 C 152.97525 -7.21825 153.43775 -7.1745 153.7315 -7.1495 C 154.022125 -7.1245 154.484625 -7.08075 154.77525 -7.052625 C 155.069 -7.03075 155.822125 -6.96825 155.822125 -6.96825 " transform="matrix(1.25,0,0,-1.25,30.32,94.5475)"/>
<path style="fill:none;stroke-width:0.99628;stroke-linecap:butt;stroke-linejoin:miter;stroke:rgb(60%,60%,60%);stroke-opacity:1;stroke-miterlimit:10;" d="M 53.240875 39.684875 L 119.390875 39.684875 " transform="matrix(1.25,0,0,-1.25,30.32,94.5475)"/>
<path style="fill-rule:nonzero;fill:rgb(60%,60%,60%);fill-opacity:1;stroke-width:0.99628;stroke-linecap:butt;stroke-linejoin:miter;stroke:rgb(60%,60%,60%);stroke-opacity:1;stroke-miterlimit:10;" d="M -6.5041 2.919225 L 0.374025 0.000475 L -6.5041 -2.9214 L -6.5041 2.919225 Z M -6.5041 2.919225 " transform="matrix(-1.25,0,0,1.25,96.869875,44.940812)"/>
<path style="fill-rule:nonzero;fill:rgb(60%,60%,60%);fill-opacity:1;stroke-width:0.99628;stroke-linecap:butt;stroke-linejoin:miter;stroke:rgb(60%,60%,60%);stroke-opacity:1;stroke-miterlimit:10;" d="M -6.50385 2.9214 L 0.37115 -0.000475 L -6.50385 -2.919225 L -6.50385 2.9214 Z M -6.50385 2.9214 " transform="matrix(1.25,0,0,-1.25,179.5595,44.940812)"/>
<path style=" stroke:none;fill-rule:nonzero;fill:rgb(100%,100%,100%);fill-opacity:1;" d="M 130.863281 40.171875 L 145.5625 40.171875 L 145.5625 26.738281 L 130.863281 26.738281 L 130.863281 40.171875 Z M 130.863281 40.171875 "/>
<path style=" stroke:none;fill-rule:nonzero;fill:rgb(50.196078%,50.196078%,50.196078%);fill-opacity:1;" d="M 141.242188 32.332031 L 141.476562 30.671875 C 141.476562 30.554688 141.378906 30.554688 141.222656 30.554688 L 135.871094 30.554688 C 135.65625 30.554688 135.636719 30.554688 135.578125 30.730469 L 135.011719 32.273438 C 135.011719 32.3125 134.972656 32.390625 134.972656 32.429688 C 134.972656 32.46875 134.992188 32.546875 135.128906 32.546875 C 135.246094 32.546875 135.246094 32.507812 135.304688 32.332031 C 135.8125 30.945312 136.105469 30.867188 137.433594 30.867188 L 137.785156 30.867188 C 138.058594 30.867188 138.058594 30.867188 138.058594 30.945312 C 138.058594 30.945312 138.058594 31.003906 138.019531 31.121094 L 136.867188 35.710938 C 136.789062 36.023438 136.769531 36.121094 135.851562 36.121094 C 135.539062 36.121094 135.460938 36.121094 135.460938 36.316406 C 135.460938 36.335938 135.480469 36.433594 135.617188 36.433594 C 135.851562 36.433594 136.125 36.414062 136.359375 36.414062 L 137.101562 36.394531 L 137.902344 36.414062 C 138.136719 36.414062 138.390625 36.433594 138.625 36.433594 C 138.703125 36.433594 138.820312 36.433594 138.820312 36.238281 C 138.820312 36.121094 138.742188 36.121094 138.46875 36.121094 C 138.3125 36.121094 138.136719 36.101562 137.960938 36.101562 C 137.667969 36.082031 137.648438 36.042969 137.648438 35.945312 C 137.648438 35.867188 137.648438 35.867188 137.6875 35.730469 L 138.839844 31.160156 C 138.898438 30.90625 138.917969 30.886719 139.113281 30.867188 C 139.152344 30.867188 139.445312 30.867188 139.621094 30.867188 C 140.167969 30.867188 140.382812 30.867188 140.597656 30.925781 C 140.988281 31.042969 141.007812 31.296875 141.007812 31.609375 C 141.007812 31.746094 141.007812 31.863281 140.949219 32.3125 L 140.929688 32.410156 C 140.929688 32.507812 140.988281 32.546875 141.085938 32.546875 C 141.222656 32.546875 141.222656 32.46875 141.242188 32.332031 Z M 141.242188 32.332031 "/>
<path style="fill:none;stroke-width:0.19925;stroke-linecap:butt;stroke-linejoin:miter;stroke:rgb(60%,60%,60%);stroke-opacity:1;stroke-dasharray:2.98883,2.98883;stroke-miterlimit:10;" d="M 51.590875 0.0005 L 51.590875 49.60675 " transform="matrix(1.25,0,0,-1.25,30.32,94.5475)"/>
<path style="fill:none;stroke-width:0.19925;stroke-linecap:butt;stroke-linejoin:miter;stroke:rgb(60%,60%,60%);stroke-opacity:1;stroke-dasharray:2.98883,2.98883;stroke-miterlimit:10;" d="M 121.040875 0.0005 L 121.040875 49.60675 " transform="matrix(1.25,0,0,-1.25,30.32,94.5475)"/>
<path style="fill:none;stroke-width:0.19925;stroke-linecap:butt;stroke-linejoin:miter;stroke:rgb(60%,60%,60%);stroke-opacity:1;stroke-dasharray:2.98883,2.98883;stroke-miterlimit:10;" d="M -1.984125 49.60675 L 1.9815 49.60675 " transform="matrix(1.25,0,0,-1.25,30.32,94.5475)"/>
<path style=" stroke:none;fill-rule:nonzero;fill:rgb(0%,0%,0%);fill-opacity:1;" d="M 22.792969 35.542969 L 22.792969 35.230469 L 22.636719 35.230469 C 22.050781 35.230469 21.992188 35.132812 21.894531 34.898438 L 19.765625 29.527344 C 19.726562 29.390625 19.6875 29.332031 19.53125 29.332031 C 19.355469 29.332031 19.335938 29.390625 19.277344 29.527344 L 17.265625 34.625 C 17.1875 34.839844 17.03125 35.230469 16.25 35.230469 L 16.25 35.542969 C 16.542969 35.523438 16.855469 35.503906 17.148438 35.503906 C 17.5 35.503906 18.144531 35.542969 18.203125 35.542969 L 18.203125 35.230469 C 17.8125 35.230469 17.558594 35.054688 17.558594 34.820312 C 17.558594 34.742188 17.578125 34.722656 17.617188 34.644531 L 18.027344 33.570312 L 20.507812 33.570312 L 21.015625 34.839844 C 21.015625 34.878906 21.054688 34.9375 21.054688 34.976562 C 21.054688 35.230469 20.585938 35.230469 20.351562 35.230469 L 20.351562 35.542969 L 21.640625 35.503906 C 22.050781 35.503906 22.714844 35.542969 22.792969 35.542969 Z M 20.371094 33.257812 L 18.144531 33.257812 L 19.257812 30.425781 L 20.371094 33.257812 Z M 20.371094 33.257812 "/>
<path style="fill:none;stroke-width:0.19925;stroke-linecap:butt;stroke-linejoin:miter;stroke:rgb(60%,60%,60%);stroke-opacity:1;stroke-dasharray:2.98883,2.98883;stroke-miterlimit:10;" d="M 0.00025 -49.608875 L -1.984125 -49.608875 " transform="matrix(1.25,0,0,-1.25,30.32,94.5475)"/>
<path style=" stroke:none;fill-rule:nonzero;fill:rgb(0%,0%,0%);fill-opacity:1;" d="M 13.113281 157.976562 L 13.113281 157.390625 L 10.554688 157.390625 L 10.554688 157.976562 L 13.113281 157.976562 Z M 13.113281 157.976562 "/>
<path style=" stroke:none;fill-rule:nonzero;fill:rgb(0%,0%,0%);fill-opacity:1;" d="M 20.667969 159.558594 L 20.667969 159.246094 L 20.511719 159.246094 C 19.925781 159.246094 19.867188 159.148438 19.769531 158.914062 L 17.640625 153.542969 C 17.601562 153.40625 17.5625 153.347656 17.40625 153.347656 C 17.230469 153.347656 17.210938 153.40625 17.152344 153.542969 L 15.140625 158.640625 C 15.0625 158.855469 14.90625 159.246094 14.125 159.246094 L 14.125 159.558594 C 14.417969 159.539062 14.730469 159.519531 15.023438 159.519531 C 15.375 159.519531 16.019531 159.558594 16.078125 159.558594 L 16.078125 159.246094 C 15.6875 159.246094 15.433594 159.070312 15.433594 158.835938 C 15.433594 158.757812 15.453125 158.738281 15.492188 158.660156 L 15.902344 157.585938 L 18.382812 157.585938 L 18.890625 158.855469 C 18.890625 158.894531 18.929688 158.953125 18.929688 158.992188 C 18.929688 159.246094 18.460938 159.246094 18.226562 159.246094 L 18.226562 159.558594 L 19.515625 159.519531 C 19.925781 159.519531 20.589844 159.558594 20.667969 159.558594 Z M 18.246094 157.273438 L 16.019531 157.273438 L 17.132812 154.441406 L 18.246094 157.273438 Z M 18.246094 157.273438 "/>
</g>
</svg>
