<?xml version="1.0" encoding="UTF-8"?>
<!-- Converted by misc2svg (http://www.network-science.de/tools/misc2svg/) -->
<svg xmlns="http://www.w3.org/2000/svg" xmlns:xlink="http://www.w3.org/1999/xlink" width="206pt" height="194pt" viewBox="0 0 206 194" version="1.1">
<g id="misc2svg">
<path style="fill:none;stroke-width:0.19925;stroke-linecap:butt;stroke-linejoin:miter;stroke:rgb(50.196078%,50.196078%,50.196078%);stroke-opacity:1;stroke-miterlimit:10;" d="M -0.002375 0.00225 L 149.6695 0.00225 M -0.002375 6.80225 L 149.6695 6.80225 M -0.002375 13.605375 L 149.6695 13.605375 M -0.002375 20.411625 L 149.6695 20.411625 M -0.002375 27.211625 L 149.6695 27.211625 M -0.002375 34.01475 L 149.6695 34.01475 M -0.002375 40.817875 L 149.6695 40.817875 M -0.002375 47.621 L 149.6695 47.621 M -0.002375 54.42725 L 149.6695 54.42725 M -0.002375 61.22725 L 149.6695 61.22725 M -0.002375 68.030375 L 149.6695 68.030375 M -0.002375 74.8335 L 149.6695 74.8335 M -0.002375 81.636625 L 149.6695 81.636625 M -0.002375 88.442875 L 149.6695 88.442875 M -0.002375 95.242875 L 149.6695 95.242875 M -0.002375 102.046 L 149.6695 102.046 M -0.002375 108.849125 L 149.6695 108.849125 M -0.002375 115.65225 L 149.6695 115.65225 M -0.002375 122.4585 L 149.6695 122.4585 M -0.002375 129.2585 L 149.6695 129.2585 M -0.002375 136.061625 L 149.6695 136.061625 M -0.002375 142.86475 L 149.6695 142.86475 M -0.002375 0.00225 L -0.002375 142.867875 M 6.803875 0.00225 L 6.803875 142.867875 M 13.607 0.00225 L 13.607 142.867875 M 20.410125 0.00225 L 20.410125 142.867875 M 27.21325 0.00225 L 27.21325 142.867875 M 34.01325 0.00225 L 34.01325 142.867875 M 40.8195 0.00225 L 40.8195 142.867875 M 47.622625 0.00225 L 47.622625 142.867875 M 54.42575 0.00225 L 54.42575 142.867875 M 61.228875 0.00225 L 61.228875 142.867875 M 68.028875 0.00225 L 68.028875 142.867875 M 74.835125 0.00225 L 74.835125 142.867875 M 81.63825 0.00225 L 81.63825 142.867875 M 88.441375 0.00225 L 88.441375 142.867875 M 95.2445 0.00225 L 95.2445 142.867875 M 102.0445 0.00225 L 102.0445 142.867875 M 108.85075 0.00225 L 108.85075 142.867875 M 115.653875 0.00225 L 115.653875 142.867875 M 122.457 0.00225 L 122.457 142.867875 M 129.260125 0.00225 L 129.260125 142.867875 M 136.060125 0.00225 L 136.060125 142.867875 M 142.866375 0.00225 L 142.866375 142.867875 M 149.6695 0.00225 L 149.6695 142.867875 " transform="matrix(1.25,0,0,-1.25,12.42875,184.9325)"/>
<path style=" stroke:none;fill-rule:nonzero;fill:rgb(0%,0%,0%);fill-opacity:1;" d="M 40.355469 48.511719 C 40.355469 47.183594 39.242188 46.109375 37.953125 46.109375 C 36.605469 46.109375 35.511719 47.222656 35.511719 48.511719 C 35.511719 49.839844 36.605469 50.933594 37.953125 50.933594 C 39.242188 50.933594 40.355469 49.859375 40.355469 48.511719 Z M 40.355469 48.511719 "/>
<path style=" stroke:none;fill-rule:nonzero;fill:rgb(100%,100%,100%);fill-opacity:1;" d="M 10.375 44.46875 L 33.539062 44.46875 L 33.539062 27.3125 L 10.375 27.3125 L 10.375 44.46875 Z M 10.375 44.46875 "/>
<path style=" stroke:none;fill-rule:nonzero;fill:rgb(0%,0%,0%);fill-opacity:1;" d="M 19.210938 35.441406 L 22.6875 35.441406 C 22.863281 35.441406 23.097656 35.441406 23.097656 35.1875 C 23.097656 34.953125 22.863281 34.953125 22.6875 34.953125 L 19.210938 34.953125 L 19.210938 31.457031 C 19.210938 31.28125 19.210938 31.046875 18.957031 31.046875 C 18.703125 31.046875 18.703125 31.28125 18.703125 31.457031 L 18.703125 34.953125 L 15.226562 34.953125 C 15.050781 34.953125 14.816406 34.953125 14.816406 35.1875 C 14.816406 35.441406 15.050781 35.441406 15.226562 35.441406 L 18.703125 35.441406 L 18.703125 38.9375 C 18.703125 39.113281 18.703125 39.347656 18.957031 39.347656 C 19.210938 39.347656 19.210938 39.113281 19.210938 38.9375 L 19.210938 35.441406 Z M 19.210938 35.441406 "/>
<path style=" stroke:none;fill-rule:nonzero;fill:rgb(0%,0%,0%);fill-opacity:1;" d="M 29.421875 32.941406 C 29.421875 32.882812 29.382812 32.824219 29.304688 32.824219 C 29.167969 32.824219 28.660156 33.3125 28.464844 33.683594 C 28.191406 33 27.703125 32.804688 27.292969 32.804688 C 25.828125 32.804688 24.304688 34.640625 24.304688 36.457031 C 24.304688 37.667969 25.027344 38.449219 25.945312 38.449219 C 26.472656 38.449219 26.960938 38.15625 27.410156 37.707031 C 27.292969 38.136719 26.882812 39.816406 26.84375 39.933594 C 26.746094 40.285156 26.648438 40.324219 25.945312 40.34375 C 25.789062 40.34375 25.671875 40.34375 25.671875 40.597656 C 25.671875 40.597656 25.671875 40.734375 25.828125 40.734375 C 26.21875 40.734375 26.667969 40.695312 27.078125 40.695312 C 27.488281 40.695312 27.9375 40.734375 28.367188 40.734375 C 28.425781 40.734375 28.582031 40.734375 28.582031 40.480469 C 28.582031 40.34375 28.464844 40.34375 28.25 40.34375 C 27.664062 40.34375 27.664062 40.265625 27.664062 40.148438 C 27.664062 40.050781 27.683594 39.972656 27.703125 39.875 L 29.421875 32.941406 Z M 25.984375 38.175781 C 25.222656 38.175781 25.183594 37.21875 25.183594 37.003906 C 25.183594 36.398438 25.535156 35.050781 25.75 34.523438 C 26.140625 33.605469 26.785156 33.078125 27.292969 33.078125 C 28.113281 33.078125 28.289062 34.09375 28.289062 34.171875 C 28.289062 34.25 27.605469 36.984375 27.566406 37.023438 C 27.371094 37.375 26.667969 38.175781 25.984375 38.175781 Z M 25.984375 38.175781 "/>
<path style=" stroke:none;fill-rule:nonzero;fill:rgb(0%,0%,0%);fill-opacity:1;" d="M 159.410156 48.511719 C 159.410156 47.183594 158.296875 46.109375 157.007812 46.109375 C 155.660156 46.109375 154.566406 47.222656 154.566406 48.511719 C 154.566406 49.839844 155.660156 50.933594 157.007812 50.933594 C 158.296875 50.933594 159.410156 49.859375 159.410156 48.511719 Z M 159.410156 48.511719 "/>
<path style=" stroke:none;fill-rule:nonzero;fill:rgb(100%,100%,100%);fill-opacity:1;" d="M 129.433594 44.46875 L 152.59375 44.46875 L 152.59375 27.3125 L 129.433594 27.3125 L 129.433594 44.46875 Z M 129.433594 44.46875 "/>
<path style=" stroke:none;fill-rule:nonzero;fill:rgb(0%,0%,0%);fill-opacity:1;" d="M 138.265625 35.441406 L 141.742188 35.441406 C 141.917969 35.441406 142.152344 35.441406 142.152344 35.1875 C 142.152344 34.953125 141.917969 34.953125 141.742188 34.953125 L 138.265625 34.953125 L 138.265625 31.457031 C 138.265625 31.28125 138.265625 31.046875 138.011719 31.046875 C 137.757812 31.046875 137.757812 31.28125 137.757812 31.457031 L 137.757812 34.953125 L 134.28125 34.953125 C 134.105469 34.953125 133.871094 34.953125 133.871094 35.1875 C 133.871094 35.441406 134.105469 35.441406 134.28125 35.441406 L 137.757812 35.441406 L 137.757812 38.9375 C 137.757812 39.113281 137.757812 39.347656 138.011719 39.347656 C 138.265625 39.347656 138.265625 39.113281 138.265625 38.9375 L 138.265625 35.441406 Z M 138.265625 35.441406 "/>
<path style=" stroke:none;fill-rule:nonzero;fill:rgb(0%,0%,0%);fill-opacity:1;" d="M 148.480469 32.941406 C 148.480469 32.882812 148.441406 32.824219 148.363281 32.824219 C 148.226562 32.824219 147.71875 33.3125 147.523438 33.683594 C 147.25 33 146.761719 32.804688 146.351562 32.804688 C 144.886719 32.804688 143.363281 34.640625 143.363281 36.457031 C 143.363281 37.667969 144.085938 38.449219 145.003906 38.449219 C 145.53125 38.449219 146.019531 38.15625 146.46875 37.707031 C 146.351562 38.136719 145.941406 39.816406 145.902344 39.933594 C 145.804688 40.285156 145.707031 40.324219 145.003906 40.34375 C 144.847656 40.34375 144.730469 40.34375 144.730469 40.597656 C 144.730469 40.597656 144.730469 40.734375 144.886719 40.734375 C 145.277344 40.734375 145.726562 40.695312 146.136719 40.695312 C 146.546875 40.695312 146.996094 40.734375 147.425781 40.734375 C 147.484375 40.734375 147.640625 40.734375 147.640625 40.480469 C 147.640625 40.34375 147.523438 40.34375 147.308594 40.34375 C 146.722656 40.34375 146.722656 40.265625 146.722656 40.148438 C 146.722656 40.050781 146.742188 39.972656 146.761719 39.875 L 148.480469 32.941406 Z M 145.042969 38.175781 C 144.28125 38.175781 144.242188 37.21875 144.242188 37.003906 C 144.242188 36.398438 144.59375 35.050781 144.808594 34.523438 C 145.199219 33.605469 145.84375 33.078125 146.351562 33.078125 C 147.171875 33.078125 147.347656 34.09375 147.347656 34.171875 C 147.347656 34.25 146.664062 36.984375 146.625 37.023438 C 146.429688 37.375 145.726562 38.175781 145.042969 38.175781 Z M 145.042969 38.175781 "/>
<path style=" stroke:none;fill-rule:nonzero;fill:rgb(0%,0%,0%);fill-opacity:1;" d="M 82.875 108.039062 C 82.875 106.710938 81.761719 105.636719 80.472656 105.636719 C 79.125 105.636719 78.03125 106.75 78.03125 108.039062 C 78.03125 109.367188 79.125 110.460938 80.472656 110.460938 C 81.761719 110.460938 82.875 109.386719 82.875 108.039062 Z M 82.875 108.039062 "/>
<path style=" stroke:none;fill-rule:nonzero;fill:rgb(100%,100%,100%);fill-opacity:1;" d="M 74.257812 95.136719 L 95.164062 95.136719 L 95.164062 79.15625 L 74.257812 79.15625 L 74.257812 95.136719 Z M 74.257812 95.136719 "/>
<path style=" stroke:none;fill-rule:nonzero;fill:rgb(0%,0%,0%);fill-opacity:1;" d="M 89.535156 83.84375 C 89.652344 83.394531 89.671875 83.277344 90.609375 83.277344 C 90.882812 83.277344 91 83.277344 91 83.023438 C 91 82.886719 90.882812 82.886719 90.667969 82.886719 L 89.027344 82.886719 C 88.695312 82.886719 88.675781 82.886719 88.539062 83.121094 L 83.988281 90.230469 L 83.011719 83.179688 C 82.972656 82.886719 82.953125 82.886719 82.621094 82.886719 L 80.921875 82.886719 C 80.6875 82.886719 80.550781 82.886719 80.550781 83.121094 C 80.550781 83.277344 80.667969 83.277344 80.902344 83.277344 C 81.078125 83.277344 81.292969 83.296875 81.449219 83.296875 C 81.644531 83.335938 81.722656 83.355469 81.722656 83.511719 C 81.722656 83.550781 81.703125 83.589844 81.664062 83.746094 L 80.082031 90.074219 C 79.964844 90.582031 79.75 90.972656 78.734375 91.011719 C 78.675781 91.011719 78.519531 91.03125 78.519531 91.246094 C 78.519531 91.363281 78.597656 91.402344 78.695312 91.402344 C 79.085938 91.402344 79.515625 91.363281 79.945312 91.363281 C 80.355469 91.363281 80.804688 91.402344 81.214844 91.402344 C 81.273438 91.402344 81.449219 91.402344 81.449219 91.148438 C 81.449219 91.011719 81.3125 91.011719 81.214844 91.011719 C 80.511719 91.011719 80.375 90.757812 80.375 90.464844 C 80.375 90.386719 80.375 90.308594 80.414062 90.171875 L 82.113281 83.394531 L 82.132812 83.394531 L 83.207031 91.109375 C 83.226562 91.265625 83.246094 91.402344 83.382812 91.402344 C 83.519531 91.402344 83.597656 91.265625 83.65625 91.1875 L 88.695312 83.296875 L 88.714844 83.296875 L 86.917969 90.425781 C 86.800781 90.914062 86.78125 91.011719 85.785156 91.011719 C 85.589844 91.011719 85.453125 91.011719 85.453125 91.246094 C 85.453125 91.402344 85.589844 91.402344 85.628906 91.402344 C 85.980469 91.402344 86.820312 91.363281 87.171875 91.363281 C 87.679688 91.363281 88.226562 91.402344 88.734375 91.402344 C 88.8125 91.402344 88.96875 91.402344 88.96875 91.148438 C 88.96875 91.011719 88.851562 91.011719 88.617188 91.011719 C 88.167969 91.011719 87.816406 91.011719 87.816406 90.796875 C 87.816406 90.738281 87.816406 90.71875 87.875 90.484375 L 89.535156 83.84375 Z M 89.535156 83.84375 "/>
<path style="fill:none;stroke-width:0.3985;stroke-linecap:butt;stroke-linejoin:miter;stroke:rgb(0%,0%,0%);stroke-opacity:1;stroke-dasharray:2.98883,2.98883;stroke-miterlimit:10;" d="M 20.410125 108.85225 L 54.42575 61.22725 " transform="matrix(1.25,0,0,-1.25,12.42875,184.9325)"/>
<path style="fill:none;stroke-width:0.3985;stroke-linecap:butt;stroke-linejoin:miter;stroke:rgb(0%,0%,0%);stroke-opacity:1;stroke-dasharray:2.98883,2.98883;stroke-miterlimit:10;" d="M 115.653875 108.85225 L 54.42575 61.22725 " transform="matrix(1.25,0,0,-1.25,12.42875,184.9325)"/>
<path style="fill:none;stroke-width:0.79701;stroke-linecap:butt;stroke-linejoin:miter;stroke:rgb(0%,0%,100%);stroke-opacity:1;stroke-miterlimit:10;" d="M 54.42575 61.22725 L 74.410125 34.5835 " transform="matrix(1.25,0,0,-1.25,12.42875,184.9325)"/>
<path style="fill:none;stroke-width:0.6376;stroke-linecap:round;stroke-linejoin:round;stroke:rgb(0%,0%,100%);stroke-opacity:1;stroke-miterlimit:10;" d="M -1.554208 2.072536 C -1.425461 1.295636 0.000803945 0.128715 0.387696 0.00181885 C -0.000443648 -0.126933 -1.424254 -1.294436 -1.553022 -2.072576 " transform="matrix(0.753613,1.004787,1.004787,-0.753613,105.440375,141.701662)"/>
<path style=" stroke:none;fill-rule:nonzero;fill:rgb(100%,100%,100%);fill-opacity:1;" d="M 110.621094 137.765625 L 137.027344 137.765625 L 137.027344 118.457031 L 110.621094 118.457031 L 110.621094 137.765625 Z M 110.621094 137.765625 "/>
<path style=" stroke:none;fill-rule:nonzero;fill:rgb(0%,0%,100%);fill-opacity:1;" d="M 120.785156 125.511719 C 120.785156 125.511719 120.785156 125.375 120.628906 125.375 C 120.433594 125.375 119.261719 125.492188 119.046875 125.511719 C 118.949219 125.53125 118.871094 125.589844 118.871094 125.746094 C 118.871094 125.902344 118.988281 125.902344 119.164062 125.902344 C 119.769531 125.902344 119.789062 125.980469 119.789062 126.117188 L 119.75 126.371094 L 119.007812 129.320312 C 118.773438 128.851562 118.421875 128.519531 117.855469 128.519531 C 116.410156 128.519531 114.867188 130.355469 114.867188 132.171875 C 114.867188 133.34375 115.550781 134.164062 116.507812 134.164062 C 116.761719 134.164062 117.386719 134.105469 118.128906 133.226562 C 118.226562 133.753906 118.675781 134.164062 119.261719 134.164062 C 119.710938 134.164062 119.984375 133.871094 120.199219 133.480469 C 120.394531 133.03125 120.570312 132.269531 120.570312 132.25 C 120.570312 132.113281 120.453125 132.113281 120.414062 132.113281 C 120.296875 132.113281 120.277344 132.171875 120.238281 132.347656 C 120.023438 133.148438 119.808594 133.890625 119.300781 133.890625 C 118.949219 133.890625 118.929688 133.558594 118.929688 133.324219 C 118.929688 133.011719 118.949219 132.933594 118.988281 132.71875 L 120.785156 125.511719 Z M 118.207031 132.542969 C 118.128906 132.777344 118.128906 132.796875 117.953125 133.011719 C 117.40625 133.695312 116.898438 133.890625 116.546875 133.890625 C 115.921875 133.890625 115.746094 133.207031 115.746094 132.71875 C 115.746094 132.09375 116.136719 130.570312 116.429688 129.984375 C 116.820312 129.261719 117.367188 128.792969 117.875 128.792969 C 118.675781 128.792969 118.851562 129.808594 118.851562 129.886719 C 118.851562 129.964844 118.832031 130.042969 118.8125 130.101562 L 118.207031 132.542969 Z M 118.207031 132.542969 "/>
<path style=" stroke:none;fill-rule:nonzero;fill:rgb(0%,0%,100%);fill-opacity:1;" d="M 129.042969 123.894531 C 129.257812 123.894531 129.492188 123.894531 129.492188 123.640625 C 129.492188 123.40625 129.257812 123.40625 129.042969 123.40625 L 122.304688 123.40625 C 122.089844 123.40625 121.875 123.40625 121.875 123.640625 C 121.875 123.894531 122.089844 123.894531 122.304688 123.894531 L 129.042969 123.894531 Z M 129.042969 123.894531 "/>
<path style=" stroke:none;fill-rule:nonzero;fill:rgb(0%,0%,100%);fill-opacity:1;" d="M 131.226562 123.894531 C 130.542969 124.421875 130.210938 124.929688 130.113281 125.105469 C 129.546875 125.964844 129.449219 126.746094 129.449219 126.746094 C 129.449219 126.902344 129.605469 126.902344 129.703125 126.902344 C 129.898438 126.902344 129.917969 126.882812 129.976562 126.648438 C 130.25 125.4375 130.992188 124.382812 132.398438 123.816406 C 132.554688 123.757812 132.59375 123.738281 132.59375 123.640625 C 132.59375 123.5625 132.515625 123.523438 132.496094 123.503906 C 131.929688 123.308594 130.425781 122.683594 129.957031 120.59375 C 129.917969 120.4375 129.898438 120.398438 129.703125 120.398438 C 129.605469 120.398438 129.449219 120.398438 129.449219 120.554688 C 129.449219 120.574219 129.566406 121.355469 130.074219 122.195312 C 130.328125 122.566406 130.699219 122.996094 131.226562 123.40625 L 121.96875 123.40625 C 121.753906 123.40625 121.519531 123.40625 121.519531 123.640625 C 121.519531 123.894531 121.753906 123.894531 121.96875 123.894531 L 131.226562 123.894531 Z M 131.226562 123.894531 "/>
<path style=" stroke:none;fill-rule:nonzero;fill:rgb(0%,0%,100%);fill-opacity:1;" d="M 130.9375 131.117188 C 130.957031 131.058594 130.996094 130.980469 130.996094 130.941406 C 130.996094 130.941406 130.996094 130.804688 130.839844 130.804688 C 130.722656 130.804688 130.703125 130.882812 130.683594 130.960938 C 129.863281 132.796875 129.414062 133.636719 127.285156 133.636719 L 125.46875 133.636719 C 125.292969 133.636719 125.253906 133.636719 125.195312 133.636719 C 125.058594 133.617188 125.019531 133.597656 125.019531 133.5 C 125.019531 133.460938 125.019531 133.441406 125.078125 133.226562 L 125.9375 129.808594 L 127.167969 129.808594 C 128.222656 129.808594 128.222656 130.082031 128.222656 130.394531 C 128.222656 130.472656 128.222656 130.628906 128.144531 131 C 128.125 131.058594 128.105469 131.097656 128.105469 131.136719 C 128.105469 131.195312 128.144531 131.273438 128.261719 131.273438 C 128.359375 131.273438 128.398438 131.214844 128.457031 131.019531 L 129.160156 128.109375 C 129.160156 128.03125 129.101562 127.972656 129.003906 127.972656 C 128.90625 127.972656 128.867188 128.050781 128.847656 128.1875 C 128.574219 129.144531 128.359375 129.4375 127.207031 129.4375 L 126.035156 129.4375 L 126.777344 126.429688 C 126.894531 125.980469 126.914062 125.941406 127.460938 125.941406 L 129.21875 125.941406 C 130.722656 125.941406 131.113281 126.292969 131.113281 127.328125 C 131.113281 127.621094 131.113281 127.640625 131.054688 127.992188 C 131.054688 128.050781 131.035156 128.148438 131.035156 128.207031 C 131.035156 128.265625 131.074219 128.363281 131.191406 128.363281 C 131.328125 128.363281 131.347656 128.285156 131.367188 128.050781 L 131.621094 125.882812 C 131.660156 125.550781 131.601562 125.550781 131.289062 125.550781 L 124.980469 125.550781 C 124.746094 125.550781 124.609375 125.550781 124.609375 125.804688 C 124.609375 125.941406 124.726562 125.941406 124.960938 125.941406 C 125.429688 125.941406 125.78125 125.941406 125.78125 126.15625 C 125.78125 126.214844 125.78125 126.234375 125.703125 126.46875 L 124.0625 133.050781 C 123.945312 133.539062 123.925781 133.636719 122.929688 133.636719 C 122.714844 133.636719 122.578125 133.636719 122.578125 133.871094 C 122.578125 134.027344 122.695312 134.027344 122.929688 134.027344 L 129.394531 134.027344 C 129.6875 134.027344 129.707031 134.007812 129.785156 133.8125 L 130.9375 131.117188 Z M 130.9375 131.117188 "/>
<path style="fill:none;stroke-width:0.79701;stroke-linecap:butt;stroke-linejoin:miter;stroke:rgb(0%,0%,100%);stroke-opacity:1;stroke-miterlimit:10;" d="M 54.42575 61.22725 L 34.607 48.01475 " transform="matrix(1.25,0,0,-1.25,12.42875,184.9325)"/>
<path style="fill:none;stroke-width:0.6376;stroke-linecap:round;stroke-linejoin:round;stroke:rgb(0%,0%,100%);stroke-opacity:1;stroke-miterlimit:10;" d="M -1.554944 2.071926 C -1.424452 1.29599 0.00129526 0.132115 0.384947 -0.000079966 C 0.000437056 -0.133156 -1.425259 -1.294502 -1.555717 -2.068715 " transform="matrix(-1.043262,0.695475,0.695475,1.043262,55.686813,124.91205)"/>
<path style=" stroke:none;fill-rule:nonzero;fill:rgb(100%,100%,100%);fill-opacity:1;" d="M 22.9375 120.757812 L 50.296875 120.757812 L 50.296875 99.976562 L 22.9375 99.976562 L 22.9375 120.757812 Z M 22.9375 120.757812 "/>
<path style=" stroke:none;fill-rule:nonzero;fill:rgb(0%,0%,100%);fill-opacity:1;" d="M 33.101562 108.503906 C 33.101562 108.503906 33.101562 108.367188 32.945312 108.367188 C 32.75 108.367188 31.578125 108.484375 31.363281 108.503906 C 31.265625 108.523438 31.1875 108.582031 31.1875 108.738281 C 31.1875 108.894531 31.304688 108.894531 31.480469 108.894531 C 32.085938 108.894531 32.105469 108.972656 32.105469 109.109375 L 32.066406 109.363281 L 31.324219 112.3125 C 31.089844 111.84375 30.738281 111.511719 30.171875 111.511719 C 28.726562 111.511719 27.183594 113.347656 27.183594 115.164062 C 27.183594 116.335938 27.867188 117.15625 28.824219 117.15625 C 29.078125 117.15625 29.703125 117.097656 30.445312 116.21875 C 30.542969 116.746094 30.992188 117.15625 31.578125 117.15625 C 32.027344 117.15625 32.300781 116.863281 32.515625 116.472656 C 32.710938 116.023438 32.886719 115.261719 32.886719 115.242188 C 32.886719 115.105469 32.769531 115.105469 32.730469 115.105469 C 32.613281 115.105469 32.59375 115.164062 32.554688 115.339844 C 32.339844 116.140625 32.125 116.882812 31.617188 116.882812 C 31.265625 116.882812 31.246094 116.550781 31.246094 116.316406 C 31.246094 116.003906 31.265625 115.925781 31.304688 115.710938 L 33.101562 108.503906 Z M 30.523438 115.535156 C 30.445312 115.769531 30.445312 115.789062 30.269531 116.003906 C 29.722656 116.6875 29.214844 116.882812 28.863281 116.882812 C 28.238281 116.882812 28.0625 116.199219 28.0625 115.710938 C 28.0625 115.085938 28.453125 113.5625 28.746094 112.976562 C 29.136719 112.253906 29.683594 111.785156 30.191406 111.785156 C 30.992188 111.785156 31.167969 112.800781 31.167969 112.878906 C 31.167969 112.957031 31.148438 113.035156 31.128906 113.09375 L 30.523438 115.535156 Z M 30.523438 115.535156 "/>
<path style=" stroke:none;fill-rule:nonzero;fill:rgb(0%,0%,100%);fill-opacity:1;" d="M 41.363281 105.410156 C 41.578125 105.410156 41.8125 105.410156 41.8125 105.15625 C 41.8125 104.921875 41.578125 104.921875 41.363281 104.921875 L 34.625 104.921875 C 34.410156 104.921875 34.195312 104.921875 34.195312 105.15625 C 34.195312 105.410156 34.410156 105.410156 34.625 105.410156 L 41.363281 105.410156 Z M 41.363281 105.410156 "/>
<path style=" stroke:none;fill-rule:nonzero;fill:rgb(0%,0%,100%);fill-opacity:1;" d="M 44.503906 105.410156 C 43.820312 105.9375 43.488281 106.445312 43.390625 106.621094 C 42.824219 107.480469 42.726562 108.261719 42.726562 108.261719 C 42.726562 108.417969 42.882812 108.417969 42.980469 108.417969 C 43.175781 108.417969 43.195312 108.398438 43.253906 108.164062 C 43.527344 106.953125 44.269531 105.898438 45.675781 105.332031 C 45.832031 105.273438 45.871094 105.253906 45.871094 105.15625 C 45.871094 105.078125 45.792969 105.039062 45.773438 105.019531 C 45.207031 104.824219 43.703125 104.199219 43.234375 102.109375 C 43.195312 101.953125 43.175781 101.914062 42.980469 101.914062 C 42.882812 101.914062 42.726562 101.914062 42.726562 102.070312 C 42.726562 102.089844 42.84375 102.871094 43.351562 103.710938 C 43.605469 104.082031 43.976562 104.511719 44.503906 104.921875 L 35.246094 104.921875 C 35.03125 104.921875 34.796875 104.921875 34.796875 105.15625 C 34.796875 105.410156 35.03125 105.410156 35.246094 105.410156 L 44.503906 105.410156 Z M 44.503906 105.410156 "/>
<path style=" stroke:none;fill-rule:nonzero;fill:rgb(0%,0%,100%);fill-opacity:1;" d="M 41.988281 114.109375 C 42.007812 114.050781 42.046875 113.972656 42.046875 113.933594 C 42.046875 113.933594 42.046875 113.796875 41.890625 113.796875 C 41.773438 113.796875 41.753906 113.875 41.734375 113.953125 C 40.914062 115.789062 40.464844 116.628906 38.335938 116.628906 L 36.519531 116.628906 C 36.34375 116.628906 36.304688 116.628906 36.246094 116.628906 C 36.109375 116.609375 36.070312 116.589844 36.070312 116.492188 C 36.070312 116.453125 36.070312 116.433594 36.128906 116.21875 L 36.988281 112.800781 L 38.21875 112.800781 C 39.273438 112.800781 39.273438 113.074219 39.273438 113.386719 C 39.273438 113.464844 39.273438 113.621094 39.195312 113.992188 C 39.175781 114.050781 39.15625 114.089844 39.15625 114.128906 C 39.15625 114.1875 39.195312 114.265625 39.3125 114.265625 C 39.410156 114.265625 39.449219 114.207031 39.507812 114.011719 L 40.210938 111.101562 C 40.210938 111.023438 40.152344 110.964844 40.054688 110.964844 C 39.957031 110.964844 39.917969 111.042969 39.898438 111.179688 C 39.625 112.136719 39.410156 112.429688 38.257812 112.429688 L 37.085938 112.429688 L 37.828125 109.421875 C 37.945312 108.972656 37.964844 108.933594 38.511719 108.933594 L 40.269531 108.933594 C 41.773438 108.933594 42.164062 109.285156 42.164062 110.320312 C 42.164062 110.613281 42.164062 110.632812 42.105469 110.984375 C 42.105469 111.042969 42.085938 111.140625 42.085938 111.199219 C 42.085938 111.257812 42.125 111.355469 42.242188 111.355469 C 42.378906 111.355469 42.398438 111.277344 42.417969 111.042969 L 42.671875 108.875 C 42.710938 108.542969 42.652344 108.542969 42.339844 108.542969 L 36.03125 108.542969 C 35.796875 108.542969 35.660156 108.542969 35.660156 108.796875 C 35.660156 108.933594 35.777344 108.933594 36.011719 108.933594 C 36.480469 108.933594 36.832031 108.933594 36.832031 109.148438 C 36.832031 109.207031 36.832031 109.226562 36.753906 109.460938 L 35.113281 116.042969 C 34.996094 116.53125 34.976562 116.628906 33.980469 116.628906 C 33.765625 116.628906 33.628906 116.628906 33.628906 116.863281 C 33.628906 117.019531 33.746094 117.019531 33.980469 117.019531 L 40.445312 117.019531 C 40.738281 117.019531 40.757812 117 40.835938 116.804688 L 41.988281 114.109375 Z M 41.988281 114.109375 "/>
<path style=" stroke:none;fill-rule:nonzero;fill:rgb(0%,0%,100%);fill-opacity:1;" d="M 45.589844 107.757812 C 45.667969 107.621094 45.667969 107.542969 45.667969 107.484375 C 45.667969 107.210938 45.433594 107.015625 45.160156 107.015625 C 44.828125 107.015625 44.730469 107.289062 44.691406 107.425781 L 43.539062 111.195312 C 43.519531 111.214844 43.480469 111.3125 43.480469 111.332031 C 43.480469 111.429688 43.753906 111.527344 43.832031 111.527344 C 43.890625 111.527344 43.890625 111.507812 43.949219 111.371094 L 45.589844 107.757812 Z M 45.589844 107.757812 "/>
<path style="fill:none;stroke-width:0.3985;stroke-linecap:butt;stroke-linejoin:miter;stroke:rgb(0%,0%,100%);stroke-opacity:1;stroke-dasharray:2.98883,2.98883;stroke-miterlimit:10;" d="M 54.42575 61.22725 L 34.0195 47.621 L 47.622625 27.211625 " transform="matrix(1.25,0,0,-1.25,12.42875,184.9325)"/>
<path style="fill:none;stroke-width:0.3985;stroke-linecap:butt;stroke-linejoin:miter;stroke:rgb(0%,0%,100%);stroke-opacity:1;stroke-dasharray:2.98883,2.98883;stroke-miterlimit:10;" d="M 54.42575 61.22725 L 74.835125 34.01475 L 54.42575 20.411625 " transform="matrix(1.25,0,0,-1.25,12.42875,184.9325)"/>
<path style="fill:none;stroke-width:1.59404;stroke-linecap:butt;stroke-linejoin:miter;stroke:rgb(0%,0%,100%);stroke-opacity:1;stroke-miterlimit:10;" d="M 54.42575 61.22725 L 54.42575 21.61475 " transform="matrix(1.25,0,0,-1.25,12.42875,184.9325)"/>
<path style="fill:none;stroke-width:1.27522;stroke-linecap:round;stroke-linejoin:round;stroke:rgb(0%,0%,100%);stroke-opacity:1;stroke-miterlimit:10;" d="M -2.271285 3.027955 C -2.08066 1.89358 0.00059 0.190455 0.56934 -0.00017 C 0.00059 -0.190795 -2.08066 -1.89392 -2.271285 -3.028295 " transform="matrix(0,1.25,1.25,0,80.46115,157.913325)"/>
<path style=" stroke:none;fill-rule:nonzero;fill:rgb(100%,100%,100%);fill-opacity:1;" d="M 55.386719 183.871094 L 75.3125 183.871094 L 75.3125 164.566406 L 55.386719 164.566406 L 55.386719 183.871094 Z M 55.386719 183.871094 "/>
<path style=" stroke:none;fill-rule:nonzero;fill:rgb(0%,0%,100%);fill-opacity:1;" d="M 67.328125 170 C 67.542969 170 67.777344 170 67.777344 169.746094 C 67.777344 169.511719 67.542969 169.511719 67.328125 169.511719 L 60.589844 169.511719 C 60.375 169.511719 60.160156 169.511719 60.160156 169.746094 C 60.160156 170 60.375 170 60.589844 170 L 67.328125 170 Z M 67.328125 170 "/>
<path style=" stroke:none;fill-rule:nonzero;fill:rgb(0%,0%,100%);fill-opacity:1;" d="M 69.511719 170 C 68.828125 170.527344 68.496094 171.035156 68.398438 171.210938 C 67.832031 172.070312 67.734375 172.851562 67.734375 172.851562 C 67.734375 173.007812 67.890625 173.007812 67.988281 173.007812 C 68.183594 173.007812 68.203125 172.988281 68.261719 172.753906 C 68.535156 171.542969 69.277344 170.488281 70.683594 169.921875 C 70.839844 169.863281 70.878906 169.84375 70.878906 169.746094 C 70.878906 169.667969 70.800781 169.628906 70.78125 169.609375 C 70.214844 169.414062 68.710938 168.789062 68.242188 166.699219 C 68.203125 166.542969 68.183594 166.503906 67.988281 166.503906 C 67.890625 166.503906 67.734375 166.503906 67.734375 166.660156 C 67.734375 166.679688 67.851562 167.460938 68.359375 168.300781 C 68.613281 168.671875 68.984375 169.101562 69.511719 169.511719 L 60.253906 169.511719 C 60.039062 169.511719 59.804688 169.511719 59.804688 169.746094 C 59.804688 170 60.039062 170 60.253906 170 L 69.511719 170 Z M 69.511719 170 "/>
<path style=" stroke:none;fill-rule:nonzero;fill:rgb(0%,0%,100%);fill-opacity:1;" d="M 69.222656 177.226562 C 69.242188 177.167969 69.28125 177.089844 69.28125 177.050781 C 69.28125 177.050781 69.28125 176.914062 69.125 176.914062 C 69.007812 176.914062 68.988281 176.992188 68.96875 177.070312 C 68.148438 178.90625 67.699219 179.746094 65.570312 179.746094 L 63.753906 179.746094 C 63.578125 179.746094 63.539062 179.746094 63.480469 179.746094 C 63.34375 179.726562 63.304688 179.707031 63.304688 179.609375 C 63.304688 179.570312 63.304688 179.550781 63.363281 179.335938 L 64.222656 175.917969 L 65.453125 175.917969 C 66.507812 175.917969 66.507812 176.191406 66.507812 176.503906 C 66.507812 176.582031 66.507812 176.738281 66.429688 177.109375 C 66.410156 177.167969 66.390625 177.207031 66.390625 177.246094 C 66.390625 177.304688 66.429688 177.382812 66.546875 177.382812 C 66.644531 177.382812 66.683594 177.324219 66.742188 177.128906 L 67.445312 174.21875 C 67.445312 174.140625 67.386719 174.082031 67.289062 174.082031 C 67.191406 174.082031 67.152344 174.160156 67.132812 174.296875 C 66.859375 175.253906 66.644531 175.546875 65.492188 175.546875 L 64.320312 175.546875 L 65.0625 172.539062 C 65.179688 172.089844 65.199219 172.050781 65.746094 172.050781 L 67.503906 172.050781 C 69.007812 172.050781 69.398438 172.402344 69.398438 173.4375 C 69.398438 173.730469 69.398438 173.75 69.339844 174.101562 C 69.339844 174.160156 69.320312 174.257812 69.320312 174.316406 C 69.320312 174.375 69.359375 174.472656 69.476562 174.472656 C 69.613281 174.472656 69.632812 174.394531 69.652344 174.160156 L 69.90625 171.992188 C 69.945312 171.660156 69.886719 171.660156 69.574219 171.660156 L 63.265625 171.660156 C 63.03125 171.660156 62.894531 171.660156 62.894531 171.914062 C 62.894531 172.050781 63.011719 172.050781 63.246094 172.050781 C 63.714844 172.050781 64.066406 172.050781 64.066406 172.265625 C 64.066406 172.324219 64.066406 172.34375 63.988281 172.578125 L 62.347656 179.160156 C 62.230469 179.648438 62.210938 179.746094 61.214844 179.746094 C 61 179.746094 60.863281 179.746094 60.863281 179.980469 C 60.863281 180.136719 60.980469 180.136719 61.214844 180.136719 L 67.679688 180.136719 C 67.972656 180.136719 67.992188 180.117188 68.070312 179.921875 L 69.222656 177.226562 Z M 69.222656 177.226562 "/>
</g>
</svg>
