<?xml version="1.0" encoding="UTF-8"?>
<!-- Converted by misc2svg (http://www.network-science.de/tools/misc2svg/) -->
<svg xmlns="http://www.w3.org/2000/svg" xmlns:xlink="http://www.w3.org/1999/xlink" width="280pt" height="74pt" viewBox="0 0 280 74" version="1.1">
<g id="misc2svg">
<path style="fill:none;stroke-width:0.3985;stroke-linecap:butt;stroke-linejoin:miter;stroke:rgb(0%,0%,0%);stroke-opacity:1;stroke-miterlimit:10;" d="M 0.00075 0.001 L 0.00075 42.51975 L 42.5195 42.51975 L 42.5195 0.001 L 0.00075 0.001 Z M 0.00075 0.001 " transform="matrix(1.25,0,0,-1.25,8.11625,67.62625)"/>
<path style=" stroke:none;fill-rule:nonzero;fill:rgb(0%,0%,0%);fill-opacity:1;" d="M 17.546875 41.964844 L 17.546875 41.652344 C 17.46875 41.652344 16.84375 41.691406 16.414062 41.691406 C 15.945312 41.691406 15.300781 41.691406 14.832031 41.652344 L 14.832031 41.964844 L 15.164062 41.964844 C 16.042969 41.964844 16.042969 42.082031 16.042969 42.355469 L 16.042969 42.921875 C 16.042969 43.117188 16.042969 43.449219 15.535156 43.703125 C 15.125 43.917969 14.636719 43.917969 14.519531 43.917969 C 13.523438 43.917969 11.921875 43.351562 11.921875 41.066406 C 11.921875 38.761719 13.582031 38.253906 14.441406 38.253906 C 15.28125 38.253906 16.335938 38.820312 16.550781 40.324219 C 16.570312 40.421875 16.648438 40.421875 16.707031 40.421875 C 16.863281 40.421875 16.863281 40.363281 16.863281 40.1875 L 16.863281 38.15625 C 16.863281 38 16.863281 37.921875 16.746094 37.921875 C 16.707031 37.921875 16.667969 37.921875 16.589844 38.039062 L 16.140625 38.703125 C 15.710938 38.253906 15.085938 37.921875 14.324219 37.921875 C 12.507812 37.921875 10.984375 39.328125 10.984375 41.066406 C 10.984375 42.804688 12.46875 44.230469 14.34375 44.230469 C 14.832031 44.230469 15.789062 44.132812 16.199219 43.527344 C 16.355469 43.761719 16.667969 44.054688 16.765625 44.054688 C 16.863281 44.054688 16.863281 43.957031 16.863281 43.820312 L 16.863281 42.355469 C 16.863281 41.964844 16.960938 41.964844 17.546875 41.964844 Z M 17.546875 41.964844 "/>
<path style=" stroke:none;fill-rule:nonzero;fill:rgb(0%,0%,0%);fill-opacity:1;" d="M 22.164062 43 C 22.164062 42.980469 22.144531 42.882812 22.007812 42.882812 C 21.890625 42.882812 21.871094 42.941406 21.851562 43.019531 C 21.578125 43.722656 20.914062 43.859375 20.601562 43.859375 C 20.191406 43.859375 19.800781 43.683594 19.546875 43.351562 C 19.214844 42.941406 19.214844 42.414062 19.214844 42.0625 L 21.910156 42.0625 C 22.105469 42.0625 22.164062 42.0625 22.164062 41.886719 C 22.164062 41.105469 21.734375 40.167969 20.425781 40.167969 C 19.292969 40.167969 18.414062 41.066406 18.414062 42.140625 C 18.414062 43.253906 19.390625 44.132812 20.542969 44.132812 C 21.714844 44.132812 22.164062 43.195312 22.164062 43 Z M 21.558594 41.847656 L 19.214844 41.847656 C 19.3125 40.617188 20.09375 40.421875 20.425781 40.421875 C 21.5 40.421875 21.539062 41.632812 21.558594 41.847656 Z M 21.480469 38.332031 C 21.480469 38.175781 21.34375 37.980469 21.128906 37.980469 C 20.992188 37.980469 20.914062 38.058594 20.835938 38.15625 L 19.703125 39.425781 L 19.898438 39.640625 L 21.265625 38.644531 C 21.402344 38.566406 21.480469 38.488281 21.480469 38.332031 Z M 21.480469 38.332031 "/>
<path style=" stroke:none;fill-rule:nonzero;fill:rgb(0%,0%,0%);fill-opacity:1;" d="M 27.648438 44.054688 L 27.648438 43.742188 C 27.082031 43.742188 27.003906 43.742188 27.003906 43.371094 L 27.003906 41.417969 C 27.003906 40.65625 26.632812 40.207031 25.695312 40.207031 C 24.972656 40.207031 24.523438 40.597656 24.269531 41.066406 L 24.269531 41.066406 L 24.269531 40.207031 L 22.980469 40.304688 L 22.980469 40.617188 C 23.566406 40.617188 23.644531 40.675781 23.644531 41.105469 L 23.644531 43.371094 C 23.644531 43.742188 23.546875 43.742188 22.980469 43.742188 L 22.980469 44.054688 C 22.980469 44.054688 23.605469 44.015625 23.976562 44.015625 C 24.289062 44.015625 24.894531 44.054688 24.972656 44.054688 L 24.972656 43.742188 C 24.40625 43.742188 24.328125 43.742188 24.328125 43.371094 L 24.328125 41.789062 C 24.328125 40.890625 25.050781 40.460938 25.617188 40.460938 C 26.222656 40.460938 26.300781 40.929688 26.300781 41.378906 L 26.300781 43.371094 C 26.300781 43.742188 26.222656 43.742188 25.65625 43.742188 L 25.65625 44.054688 C 25.65625 44.054688 26.28125 44.015625 26.652344 44.015625 C 26.964844 44.015625 27.570312 44.054688 27.648438 44.054688 Z M 27.648438 44.054688 "/>
<path style=" stroke:none;fill-rule:nonzero;fill:rgb(0%,0%,0%);fill-opacity:1;" d="M 32.09375 43 C 32.09375 42.980469 32.074219 42.882812 31.9375 42.882812 C 31.820312 42.882812 31.800781 42.941406 31.78125 43.019531 C 31.507812 43.722656 30.84375 43.859375 30.53125 43.859375 C 30.121094 43.859375 29.730469 43.683594 29.476562 43.351562 C 29.144531 42.941406 29.144531 42.414062 29.144531 42.0625 L 31.839844 42.0625 C 32.035156 42.0625 32.09375 42.0625 32.09375 41.886719 C 32.09375 41.105469 31.664062 40.167969 30.355469 40.167969 C 29.222656 40.167969 28.34375 41.066406 28.34375 42.140625 C 28.34375 43.253906 29.320312 44.132812 30.472656 44.132812 C 31.644531 44.132812 32.09375 43.195312 32.09375 43 Z M 31.488281 41.847656 L 29.144531 41.847656 C 29.242188 40.617188 30.023438 40.421875 30.355469 40.421875 C 31.429688 40.421875 31.46875 41.632812 31.488281 41.847656 Z M 31.410156 38.332031 C 31.410156 38.175781 31.273438 37.980469 31.058594 37.980469 C 30.921875 37.980469 30.84375 38.058594 30.765625 38.15625 L 29.632812 39.425781 L 29.828125 39.640625 L 31.195312 38.644531 C 31.332031 38.566406 31.410156 38.488281 31.410156 38.332031 Z M 31.410156 38.332031 "/>
<path style=" stroke:none;fill-rule:nonzero;fill:rgb(0%,0%,0%);fill-opacity:1;" d="M 35.992188 40.773438 C 35.992188 40.480469 35.699219 40.207031 35.289062 40.207031 C 34.859375 40.207031 34.371094 40.480469 34.117188 41.144531 L 34.117188 41.144531 L 34.117188 40.207031 L 32.867188 40.304688 L 32.867188 40.617188 C 33.453125 40.617188 33.511719 40.675781 33.511719 41.105469 L 33.511719 43.371094 C 33.511719 43.742188 33.433594 43.742188 32.867188 43.742188 L 32.867188 44.054688 C 32.90625 44.054688 33.492188 44.015625 33.863281 44.015625 L 34.996094 44.054688 L 34.996094 43.742188 L 34.820312 43.742188 C 34.175781 43.742188 34.175781 43.644531 34.175781 43.351562 L 34.175781 42.0625 C 34.175781 41.339844 34.507812 40.460938 35.347656 40.460938 C 35.269531 40.519531 35.191406 40.636719 35.191406 40.773438 C 35.191406 41.066406 35.425781 41.164062 35.582031 41.164062 C 35.796875 41.164062 35.992188 41.027344 35.992188 40.773438 Z M 35.992188 40.773438 "/>
<path style=" stroke:none;fill-rule:nonzero;fill:rgb(0%,0%,0%);fill-opacity:1;" d="M 41.074219 43.273438 L 41.074219 42.785156 L 40.761719 42.785156 L 40.761719 43.253906 C 40.761719 43.351562 40.761719 43.761719 40.449219 43.761719 C 40.117188 43.761719 40.117188 43.351562 40.117188 43.253906 L 40.117188 41.710938 C 40.117188 41.261719 40.117188 40.929688 39.726562 40.597656 C 39.375 40.304688 38.945312 40.167969 38.4375 40.167969 C 37.617188 40.167969 37.03125 40.480469 37.03125 41.007812 C 37.03125 41.300781 37.207031 41.4375 37.441406 41.4375 C 37.675781 41.4375 37.851562 41.261719 37.851562 41.027344 C 37.851562 40.890625 37.773438 40.695312 37.539062 40.636719 C 37.851562 40.421875 38.359375 40.421875 38.417969 40.421875 C 38.90625 40.421875 39.433594 40.734375 39.433594 41.476562 L 39.433594 41.730469 C 38.964844 41.75 38.378906 41.789062 37.753906 42.023438 C 36.972656 42.296875 36.71875 42.785156 36.71875 43.175781 C 36.71875 43.917969 37.617188 44.132812 38.242188 44.132812 C 38.945312 44.132812 39.355469 43.742188 39.53125 43.410156 C 39.570312 43.761719 39.804688 44.09375 40.195312 44.09375 C 40.195312 44.09375 41.074219 44.09375 41.074219 43.273438 Z M 39.433594 42.824219 C 39.433594 43.664062 38.710938 43.898438 38.320312 43.898438 C 37.871094 43.898438 37.460938 43.605469 37.460938 43.175781 C 37.460938 42.6875 37.871094 42.023438 39.433594 41.964844 L 39.433594 42.824219 Z M 39.433594 42.824219 "/>
<path style=" stroke:none;fill-rule:nonzero;fill:rgb(0%,0%,0%);fill-opacity:1;" d="M 44.554688 42.960938 L 44.554688 42.472656 L 44.261719 42.472656 L 44.261719 42.941406 C 44.261719 43.546875 43.988281 43.859375 43.636719 43.859375 C 43.050781 43.859375 43.050781 43.136719 43.050781 42.980469 L 43.050781 40.617188 L 44.398438 40.617188 L 44.398438 40.304688 L 43.050781 40.304688 L 43.050781 38.703125 L 42.738281 38.703125 C 42.738281 39.484375 42.386719 40.34375 41.546875 40.363281 L 41.546875 40.617188 L 42.347656 40.617188 L 42.347656 42.960938 C 42.347656 43.9375 43.089844 44.132812 43.578125 44.132812 C 44.164062 44.132812 44.554688 43.644531 44.554688 42.960938 Z M 44.554688 42.960938 "/>
<path style=" stroke:none;fill-rule:nonzero;fill:rgb(0%,0%,0%);fill-opacity:1;" d="M 49.265625 43 C 49.265625 42.980469 49.246094 42.882812 49.109375 42.882812 C 48.992188 42.882812 48.972656 42.941406 48.953125 43.019531 C 48.679688 43.722656 48.015625 43.859375 47.703125 43.859375 C 47.292969 43.859375 46.902344 43.683594 46.648438 43.351562 C 46.316406 42.941406 46.316406 42.414062 46.316406 42.0625 L 49.011719 42.0625 C 49.207031 42.0625 49.265625 42.0625 49.265625 41.886719 C 49.265625 41.105469 48.835938 40.167969 47.527344 40.167969 C 46.394531 40.167969 45.515625 41.066406 45.515625 42.140625 C 45.515625 43.253906 46.492188 44.132812 47.644531 44.132812 C 48.816406 44.132812 49.265625 43.195312 49.265625 43 Z M 48.660156 41.847656 L 46.316406 41.847656 C 46.414062 40.617188 47.195312 40.421875 47.527344 40.421875 C 48.601562 40.421875 48.640625 41.632812 48.660156 41.847656 Z M 48.660156 41.847656 "/>
<path style=" stroke:none;fill-rule:nonzero;fill:rgb(0%,0%,0%);fill-opacity:1;" d="M 54.75 44.054688 L 54.75 43.742188 C 54.164062 43.742188 54.105469 43.683594 54.105469 43.253906 L 54.105469 40.207031 L 52.757812 40.304688 L 52.757812 40.617188 C 53.34375 40.617188 53.402344 40.675781 53.402344 41.105469 L 53.402344 42.609375 C 53.402344 43.371094 52.914062 43.898438 52.25 43.898438 C 51.46875 43.898438 51.429688 43.527344 51.429688 43.078125 L 51.429688 40.207031 L 50.082031 40.304688 L 50.082031 40.617188 C 50.746094 40.617188 50.746094 40.65625 50.746094 41.417969 L 50.746094 42.726562 C 50.746094 43.332031 50.746094 44.132812 52.191406 44.132812 C 52.386719 44.132812 53.011719 44.132812 53.441406 43.410156 L 53.441406 43.410156 L 53.441406 44.132812 L 54.75 44.054688 Z M 54.75 44.054688 "/>
<path style=" stroke:none;fill-rule:nonzero;fill:rgb(0%,0%,0%);fill-opacity:1;" d="M 58.667969 40.773438 C 58.667969 40.480469 58.375 40.207031 57.964844 40.207031 C 57.535156 40.207031 57.046875 40.480469 56.792969 41.144531 L 56.792969 41.144531 L 56.792969 40.207031 L 55.542969 40.304688 L 55.542969 40.617188 C 56.128906 40.617188 56.1875 40.675781 56.1875 41.105469 L 56.1875 43.371094 C 56.1875 43.742188 56.109375 43.742188 55.542969 43.742188 L 55.542969 44.054688 C 55.582031 44.054688 56.167969 44.015625 56.539062 44.015625 L 57.671875 44.054688 L 57.671875 43.742188 L 57.496094 43.742188 C 56.851562 43.742188 56.851562 43.644531 56.851562 43.351562 L 56.851562 42.0625 C 56.851562 41.339844 57.183594 40.460938 58.023438 40.460938 C 57.945312 40.519531 57.867188 40.636719 57.867188 40.773438 C 57.867188 41.066406 58.101562 41.164062 58.257812 41.164062 C 58.472656 41.164062 58.667969 41.027344 58.667969 40.773438 Z M 58.667969 40.773438 "/>
<path style="fill:none;stroke-width:0.3985;stroke-linecap:butt;stroke-linejoin:miter;stroke:rgb(0%,0%,0%);stroke-opacity:1;stroke-miterlimit:10;" d="M 85.041375 0.001 L 85.041375 42.51975 L 127.56325 42.51975 L 127.56325 0.001 L 85.041375 0.001 Z M 85.041375 0.001 " transform="matrix(1.25,0,0,-1.25,8.11625,67.62625)"/>
<path style=" stroke:none;fill-rule:nonzero;fill:rgb(0%,0%,0%);fill-opacity:1;" d="M 123.910156 43.285156 C 123.910156 43.207031 123.910156 43.089844 123.792969 43.089844 C 123.695312 43.089844 123.675781 43.1875 123.675781 43.246094 C 123.617188 43.773438 123.148438 43.96875 122.816406 43.96875 C 122.347656 43.96875 122.132812 43.617188 121.917969 43.128906 C 123.011719 42.699219 123.851562 41.585938 123.851562 40.257812 C 123.851562 38.519531 122.425781 37.074219 120.648438 37.074219 C 118.871094 37.074219 117.445312 38.519531 117.445312 40.257812 C 117.445312 41.976562 118.871094 43.382812 120.648438 43.382812 C 120.765625 43.382812 121.117188 43.382812 121.546875 43.265625 C 121.742188 44.125 121.917969 44.90625 122.738281 44.90625 C 123.65625 44.90625 123.910156 43.8125 123.910156 43.285156 Z M 122.972656 40.257812 C 122.972656 41.800781 122.25 42.503906 121.742188 42.796875 C 121.527344 42.367188 121.234375 41.898438 120.667969 41.898438 C 120.21875 41.898438 119.867188 42.230469 119.867188 42.640625 C 119.867188 42.757812 119.90625 42.875 119.964844 42.972656 C 119.183594 42.71875 118.34375 41.917969 118.34375 40.257812 C 118.34375 38.207031 119.574219 37.367188 120.648438 37.367188 C 121.722656 37.367188 122.972656 38.207031 122.972656 40.257812 Z M 121.449219 42.953125 C 121.3125 43.011719 121 43.109375 120.648438 43.109375 C 120.199219 43.109375 120.101562 42.757812 120.101562 42.621094 C 120.101562 42.367188 120.335938 42.132812 120.667969 42.132812 C 121.117188 42.132812 121.3125 42.464844 121.449219 42.953125 Z M 121.449219 42.953125 "/>
<path style=" stroke:none;fill-rule:nonzero;fill:rgb(0%,0%,0%);fill-opacity:1;" d="M 129.621094 43.207031 L 129.621094 42.894531 C 129.035156 42.894531 128.976562 42.835938 128.976562 42.40625 L 128.976562 39.359375 L 127.628906 39.457031 L 127.628906 39.769531 C 128.214844 39.769531 128.273438 39.828125 128.273438 40.257812 L 128.273438 41.761719 C 128.273438 42.523438 127.785156 43.050781 127.121094 43.050781 C 126.339844 43.050781 126.300781 42.679688 126.300781 42.230469 L 126.300781 39.359375 L 124.953125 39.457031 L 124.953125 39.769531 C 125.617188 39.769531 125.617188 39.808594 125.617188 40.570312 L 125.617188 41.878906 C 125.617188 42.484375 125.617188 43.285156 127.0625 43.285156 C 127.257812 43.285156 127.882812 43.285156 128.3125 42.5625 L 128.3125 42.5625 L 128.3125 43.285156 L 129.621094 43.207031 Z M 129.621094 43.207031 "/>
<path style=" stroke:none;fill-rule:nonzero;fill:rgb(0%,0%,0%);fill-opacity:1;" d="M 134.730469 42.425781 L 134.730469 41.9375 L 134.417969 41.9375 L 134.417969 42.40625 C 134.417969 42.503906 134.417969 42.914062 134.105469 42.914062 C 133.773438 42.914062 133.773438 42.503906 133.773438 42.40625 L 133.773438 40.863281 C 133.773438 40.414062 133.773438 40.082031 133.382812 39.75 C 133.03125 39.457031 132.601562 39.320312 132.09375 39.320312 C 131.273438 39.320312 130.6875 39.632812 130.6875 40.160156 C 130.6875 40.453125 130.863281 40.589844 131.097656 40.589844 C 131.332031 40.589844 131.507812 40.414062 131.507812 40.179688 C 131.507812 40.042969 131.429688 39.847656 131.195312 39.789062 C 131.507812 39.574219 132.015625 39.574219 132.074219 39.574219 C 132.5625 39.574219 133.089844 39.886719 133.089844 40.628906 L 133.089844 40.882812 C 132.621094 40.902344 132.035156 40.941406 131.410156 41.175781 C 130.628906 41.449219 130.375 41.9375 130.375 42.328125 C 130.375 43.070312 131.273438 43.285156 131.898438 43.285156 C 132.601562 43.285156 133.011719 42.894531 133.1875 42.5625 C 133.226562 42.914062 133.460938 43.246094 133.851562 43.246094 C 133.851562 43.246094 134.730469 43.246094 134.730469 42.425781 Z M 133.089844 41.976562 C 133.089844 42.816406 132.367188 43.050781 131.976562 43.050781 C 131.527344 43.050781 131.117188 42.757812 131.117188 42.328125 C 131.117188 41.839844 131.527344 41.175781 133.089844 41.117188 L 133.089844 41.976562 Z M 133.089844 41.976562 "/>
<path style=" stroke:none;fill-rule:nonzero;fill:rgb(0%,0%,0%);fill-opacity:1;" d="M 140.007812 43.207031 L 140.007812 42.894531 C 139.421875 42.894531 139.363281 42.835938 139.363281 42.40625 L 139.363281 37.152344 L 138.054688 37.25 L 138.054688 37.5625 C 138.640625 37.5625 138.699219 37.640625 138.699219 38.050781 L 138.699219 39.867188 C 138.386719 39.554688 137.957031 39.359375 137.488281 39.359375 C 136.316406 39.359375 135.359375 40.238281 135.359375 41.332031 C 135.359375 42.425781 136.277344 43.285156 137.371094 43.285156 C 138.09375 43.285156 138.523438 42.914062 138.660156 42.757812 L 138.660156 43.285156 L 140.007812 43.207031 Z M 138.660156 42.289062 C 138.445312 42.699219 137.996094 43.050781 137.429688 43.050781 C 136.941406 43.050781 136.589844 42.757812 136.414062 42.503906 C 136.238281 42.25 136.140625 41.898438 136.140625 41.351562 C 136.140625 41.136719 136.140625 40.492188 136.492188 40.082031 C 136.84375 39.691406 137.273438 39.613281 137.527344 39.613281 C 137.9375 39.613281 138.328125 39.808594 138.5625 40.121094 C 138.660156 40.257812 138.660156 40.257812 138.660156 40.433594 L 138.660156 42.289062 Z M 138.660156 42.289062 "/>
<path style=" stroke:none;fill-rule:nonzero;fill:rgb(0%,0%,0%);fill-opacity:1;" d="M 144.003906 39.925781 C 144.003906 39.632812 143.710938 39.359375 143.300781 39.359375 C 142.871094 39.359375 142.382812 39.632812 142.128906 40.296875 L 142.128906 40.296875 L 142.128906 39.359375 L 140.878906 39.457031 L 140.878906 39.769531 C 141.464844 39.769531 141.523438 39.828125 141.523438 40.257812 L 141.523438 42.523438 C 141.523438 42.894531 141.445312 42.894531 140.878906 42.894531 L 140.878906 43.207031 C 140.917969 43.207031 141.503906 43.167969 141.875 43.167969 L 143.007812 43.207031 L 143.007812 42.894531 L 142.832031 42.894531 C 142.1875 42.894531 142.1875 42.796875 142.1875 42.503906 L 142.1875 41.214844 C 142.1875 40.492188 142.519531 39.613281 143.359375 39.613281 C 143.28125 39.671875 143.203125 39.789062 143.203125 39.925781 C 143.203125 40.21875 143.4375 40.316406 143.59375 40.316406 C 143.808594 40.316406 144.003906 40.179688 144.003906 39.925781 Z M 144.003906 39.925781 "/>
<path style=" stroke:none;fill-rule:nonzero;fill:rgb(0%,0%,0%);fill-opacity:1;" d="M 146.722656 43.207031 L 146.722656 42.894531 C 146.214844 42.894531 146.136719 42.894531 146.136719 42.523438 L 146.136719 39.359375 L 144.847656 39.457031 L 144.847656 39.769531 C 145.394531 39.769531 145.472656 39.828125 145.472656 40.257812 L 145.472656 42.523438 C 145.472656 42.894531 145.394531 42.894531 144.828125 42.894531 L 144.828125 43.207031 C 144.828125 43.207031 145.453125 43.167969 145.804688 43.167969 C 146.117188 43.167969 146.429688 43.1875 146.722656 43.207031 Z M 146.253906 37.972656 C 146.253906 37.679688 146.039062 37.464844 145.746094 37.464844 C 145.453125 37.464844 145.257812 37.699219 145.257812 37.953125 C 145.257812 38.226562 145.472656 38.460938 145.746094 38.460938 C 146.039062 38.460938 146.253906 38.207031 146.253906 37.972656 Z M 146.253906 37.972656 "/>
<path style=" stroke:none;fill-rule:nonzero;fill:rgb(0%,0%,0%);fill-opacity:1;" d="M 152.238281 41.332031 C 152.238281 40.257812 151.359375 39.359375 150.246094 39.359375 C 149.757812 39.359375 149.25 39.554688 148.898438 39.90625 L 148.898438 39.359375 L 147.589844 39.457031 L 147.589844 39.769531 C 148.195312 39.769531 148.234375 39.828125 148.234375 40.179688 L 148.234375 44.203125 C 148.234375 44.574219 148.15625 44.574219 147.589844 44.574219 L 147.589844 44.90625 C 147.589844 44.90625 148.214844 44.867188 148.585938 44.867188 C 148.898438 44.867188 149.503906 44.886719 149.582031 44.90625 L 149.582031 44.574219 C 149.015625 44.574219 148.9375 44.574219 148.9375 44.203125 L 148.9375 42.796875 C 148.976562 42.835938 149.386719 43.285156 150.109375 43.285156 C 151.261719 43.285156 152.238281 42.425781 152.238281 41.332031 Z M 151.457031 41.332031 C 151.457031 42.328125 150.792969 43.050781 150.070312 43.050781 C 149.289062 43.050781 148.957031 42.386719 148.9375 42.328125 L 148.9375 40.296875 C 149.191406 39.867188 149.699219 39.652344 150.148438 39.652344 C 150.890625 39.652344 151.457031 40.414062 151.457031 41.332031 Z M 151.457031 41.332031 "/>
<path style=" stroke:none;fill-rule:nonzero;fill:rgb(0%,0%,0%);fill-opacity:1;" d="M 157.539062 41.351562 C 157.539062 40.257812 156.601562 39.320312 155.410156 39.320312 C 154.199219 39.320312 153.261719 40.257812 153.261719 41.351562 C 153.261719 42.425781 154.21875 43.285156 155.410156 43.285156 C 156.582031 43.285156 157.539062 42.425781 157.539062 41.351562 Z M 156.738281 41.273438 C 156.738281 41.683594 156.71875 42.152344 156.464844 42.503906 C 156.230469 42.835938 155.839844 43.011719 155.410156 43.011719 C 155.078125 43.011719 154.609375 42.914062 154.316406 42.484375 C 154.082031 42.132812 154.0625 41.683594 154.0625 41.273438 C 154.0625 40.902344 154.0625 40.375 154.375 40.003906 C 154.589844 39.75 154.960938 39.574219 155.410156 39.574219 C 155.917969 39.574219 156.289062 39.808594 156.484375 40.082031 C 156.71875 40.414062 156.738281 40.863281 156.738281 41.273438 Z M 156.738281 38.617188 L 155.410156 37.191406 L 154.082031 38.617188 L 154.199219 38.734375 L 155.410156 37.796875 L 156.621094 38.734375 L 156.738281 38.617188 Z M 156.738281 38.617188 "/>
<path style=" stroke:none;fill-rule:nonzero;fill:rgb(0%,0%,0%);fill-opacity:1;" d="M 160.335938 43.207031 L 160.335938 42.894531 C 159.769531 42.894531 159.691406 42.894531 159.691406 42.523438 L 159.691406 37.152344 L 158.382812 37.25 L 158.382812 37.5625 C 158.96875 37.5625 159.027344 37.640625 159.027344 38.050781 L 159.027344 42.523438 C 159.027344 42.894531 158.949219 42.894531 158.382812 42.894531 L 158.382812 43.207031 C 158.382812 43.207031 159.007812 43.167969 159.359375 43.167969 C 159.691406 43.167969 160.003906 43.1875 160.335938 43.207031 Z M 160.335938 43.207031 "/>
<path style=" stroke:none;fill-rule:nonzero;fill:rgb(0%,0%,0%);fill-opacity:1;" d="M 164.796875 42.152344 C 164.796875 42.132812 164.777344 42.035156 164.640625 42.035156 C 164.523438 42.035156 164.503906 42.09375 164.484375 42.171875 C 164.210938 42.875 163.546875 43.011719 163.234375 43.011719 C 162.824219 43.011719 162.433594 42.835938 162.179688 42.503906 C 161.847656 42.09375 161.847656 41.566406 161.847656 41.214844 L 164.542969 41.214844 C 164.738281 41.214844 164.796875 41.214844 164.796875 41.039062 C 164.796875 40.257812 164.367188 39.320312 163.058594 39.320312 C 161.925781 39.320312 161.046875 40.21875 161.046875 41.292969 C 161.046875 42.40625 162.023438 43.285156 163.175781 43.285156 C 164.347656 43.285156 164.796875 42.347656 164.796875 42.152344 Z M 164.191406 41 L 161.847656 41 C 161.945312 39.769531 162.726562 39.574219 163.058594 39.574219 C 164.132812 39.574219 164.171875 40.785156 164.191406 41 Z M 164.191406 41 "/>
<path style="fill:none;stroke-width:0.3985;stroke-linecap:butt;stroke-linejoin:miter;stroke:rgb(0%,0%,0%);stroke-opacity:1;stroke-miterlimit:10;" d="M 170.082 0.001 L 170.082 42.51975 L 212.60075 42.51975 L 212.60075 0.001 L 170.082 0.001 Z M 170.082 0.001 " transform="matrix(1.25,0,0,-1.25,8.11625,67.62625)"/>
<path style=" stroke:none;fill-rule:nonzero;fill:rgb(0%,0%,0%);fill-opacity:1;" d="M 232.535156 42.40625 C 232.535156 42.347656 232.535156 42.25 232.398438 42.25 C 232.261719 42.25 232.261719 42.328125 232.242188 42.40625 C 232.203125 42.914062 231.910156 43.128906 231.636719 43.128906 C 231.148438 43.128906 231.070312 42.621094 230.972656 41.839844 C 230.875 41.136719 230.855469 41 230.601562 40.707031 C 230.503906 40.609375 230.269531 40.375 229.800781 40.238281 C 230.582031 40.0625 231.363281 39.535156 231.363281 38.832031 C 231.363281 37.972656 230.210938 37.25 228.863281 37.25 L 225.933594 37.25 L 225.933594 37.5625 L 226.148438 37.5625 C 226.8125 37.5625 226.832031 37.660156 226.832031 37.972656 L 226.832031 42.503906 C 226.832031 42.796875 226.8125 42.894531 226.148438 42.894531 L 225.933594 42.894531 L 225.933594 43.207031 L 227.222656 43.167969 L 228.511719 43.207031 L 228.511719 42.894531 L 228.316406 42.894531 C 227.632812 42.894531 227.613281 42.796875 227.613281 42.503906 L 227.613281 40.355469 L 228.785156 40.355469 C 228.941406 40.355469 229.390625 40.355469 229.78125 40.707031 C 230.074219 40.980469 230.074219 41.195312 230.074219 41.78125 C 230.074219 42.347656 230.074219 42.699219 230.484375 43.03125 C 230.855469 43.34375 231.363281 43.382812 231.617188 43.382812 C 232.359375 43.382812 232.535156 42.679688 232.535156 42.40625 Z M 230.425781 38.832031 C 230.425781 39.808594 229.683594 40.101562 228.746094 40.101562 L 227.613281 40.101562 L 227.613281 37.914062 C 227.613281 37.660156 227.632812 37.601562 227.847656 37.582031 C 227.925781 37.5625 228.21875 37.5625 228.414062 37.5625 C 229.234375 37.5625 230.425781 37.5625 230.425781 38.832031 Z M 230.425781 38.832031 "/>
<path style=" stroke:none;fill-rule:nonzero;fill:rgb(0%,0%,0%);fill-opacity:1;" d="M 236.738281 42.152344 C 236.738281 42.132812 236.71875 42.035156 236.582031 42.035156 C 236.464844 42.035156 236.445312 42.09375 236.425781 42.171875 C 236.152344 42.875 235.488281 43.011719 235.175781 43.011719 C 234.765625 43.011719 234.375 42.835938 234.121094 42.503906 C 233.789062 42.09375 233.789062 41.566406 233.789062 41.214844 L 236.484375 41.214844 C 236.679688 41.214844 236.738281 41.214844 236.738281 41.039062 C 236.738281 40.257812 236.308594 39.320312 235 39.320312 C 233.867188 39.320312 232.988281 40.21875 232.988281 41.292969 C 232.988281 42.40625 233.964844 43.285156 235.117188 43.285156 C 236.289062 43.285156 236.738281 42.347656 236.738281 42.152344 Z M 236.132812 41 L 233.789062 41 C 233.886719 39.769531 234.667969 39.574219 235 39.574219 C 236.074219 39.574219 236.113281 40.785156 236.132812 41 Z M 236.054688 37.484375 C 236.054688 37.328125 235.917969 37.132812 235.703125 37.132812 C 235.566406 37.132812 235.488281 37.210938 235.410156 37.308594 L 234.277344 38.578125 L 234.472656 38.792969 L 235.839844 37.796875 C 235.976562 37.71875 236.054688 37.640625 236.054688 37.484375 Z M 236.054688 37.484375 "/>
<path style=" stroke:none;fill-rule:nonzero;fill:rgb(0%,0%,0%);fill-opacity:1;" d="M 241.167969 42.152344 C 241.167969 42.054688 241.050781 42.054688 241.011719 42.054688 C 240.894531 42.054688 240.894531 42.074219 240.855469 42.210938 C 240.660156 42.738281 240.191406 43.011719 239.664062 43.011719 C 239.058594 43.011719 238.277344 42.5625 238.277344 41.3125 C 238.277344 40.21875 238.824219 39.59375 239.625 39.59375 C 239.742188 39.59375 240.152344 39.59375 240.464844 39.730469 C 240.308594 39.808594 240.230469 39.945312 240.230469 40.121094 C 240.230469 40.355469 240.386719 40.53125 240.640625 40.53125 C 240.875 40.53125 241.050781 40.375 241.050781 40.101562 C 241.050781 39.320312 239.839844 39.320312 239.605469 39.320312 C 238.296875 39.320312 237.496094 40.316406 237.496094 41.332031 C 237.496094 42.425781 238.414062 43.285156 239.566406 43.285156 C 240.855469 43.285156 241.167969 42.269531 241.167969 42.152344 Z M 241.167969 42.152344 "/>
<path style=" stroke:none;fill-rule:nonzero;fill:rgb(0%,0%,0%);fill-opacity:1;" d="M 245.59375 42.152344 C 245.59375 42.132812 245.574219 42.035156 245.4375 42.035156 C 245.320312 42.035156 245.300781 42.09375 245.28125 42.171875 C 245.007812 42.875 244.34375 43.011719 244.03125 43.011719 C 243.621094 43.011719 243.230469 42.835938 242.976562 42.503906 C 242.644531 42.09375 242.644531 41.566406 242.644531 41.214844 L 245.339844 41.214844 C 245.535156 41.214844 245.59375 41.214844 245.59375 41.039062 C 245.59375 40.257812 245.164062 39.320312 243.855469 39.320312 C 242.722656 39.320312 241.84375 40.21875 241.84375 41.292969 C 241.84375 42.40625 242.820312 43.285156 243.972656 43.285156 C 245.144531 43.285156 245.59375 42.347656 245.59375 42.152344 Z M 244.988281 41 L 242.644531 41 C 242.742188 39.769531 243.523438 39.574219 243.855469 39.574219 C 244.929688 39.574219 244.96875 40.785156 244.988281 41 Z M 244.988281 41 "/>
<path style=" stroke:none;fill-rule:nonzero;fill:rgb(0%,0%,0%);fill-opacity:1;" d="M 251.019531 41.332031 C 251.019531 40.257812 250.140625 39.359375 249.027344 39.359375 C 248.539062 39.359375 248.03125 39.554688 247.679688 39.90625 L 247.679688 39.359375 L 246.371094 39.457031 L 246.371094 39.769531 C 246.976562 39.769531 247.015625 39.828125 247.015625 40.179688 L 247.015625 44.203125 C 247.015625 44.574219 246.9375 44.574219 246.371094 44.574219 L 246.371094 44.90625 C 246.371094 44.90625 246.996094 44.867188 247.367188 44.867188 C 247.679688 44.867188 248.285156 44.886719 248.363281 44.90625 L 248.363281 44.574219 C 247.796875 44.574219 247.71875 44.574219 247.71875 44.203125 L 247.71875 42.796875 C 247.757812 42.835938 248.167969 43.285156 248.890625 43.285156 C 250.042969 43.285156 251.019531 42.425781 251.019531 41.332031 Z M 250.238281 41.332031 C 250.238281 42.328125 249.574219 43.050781 248.851562 43.050781 C 248.070312 43.050781 247.738281 42.386719 247.71875 42.328125 L 247.71875 40.296875 C 247.972656 39.867188 248.480469 39.652344 248.929688 39.652344 C 249.671875 39.652344 250.238281 40.414062 250.238281 41.332031 Z M 250.238281 41.332031 "/>
<path style=" stroke:none;fill-rule:nonzero;fill:rgb(0%,0%,0%);fill-opacity:1;" d="M 254.703125 42.113281 L 254.703125 41.625 L 254.410156 41.625 L 254.410156 42.09375 C 254.410156 42.699219 254.136719 43.011719 253.785156 43.011719 C 253.199219 43.011719 253.199219 42.289062 253.199219 42.132812 L 253.199219 39.769531 L 254.546875 39.769531 L 254.546875 39.457031 L 253.199219 39.457031 L 253.199219 37.855469 L 252.886719 37.855469 C 252.886719 38.636719 252.535156 39.496094 251.695312 39.515625 L 251.695312 39.769531 L 252.496094 39.769531 L 252.496094 42.113281 C 252.496094 43.089844 253.238281 43.285156 253.726562 43.285156 C 254.3125 43.285156 254.703125 42.796875 254.703125 42.113281 Z M 254.703125 42.113281 "/>
<path style=" stroke:none;fill-rule:nonzero;fill:rgb(0%,0%,0%);fill-opacity:1;" d="M 259.414062 42.152344 C 259.414062 42.132812 259.394531 42.035156 259.257812 42.035156 C 259.140625 42.035156 259.121094 42.09375 259.101562 42.171875 C 258.828125 42.875 258.164062 43.011719 257.851562 43.011719 C 257.441406 43.011719 257.050781 42.835938 256.796875 42.503906 C 256.464844 42.09375 256.464844 41.566406 256.464844 41.214844 L 259.160156 41.214844 C 259.355469 41.214844 259.414062 41.214844 259.414062 41.039062 C 259.414062 40.257812 258.984375 39.320312 257.675781 39.320312 C 256.542969 39.320312 255.664062 40.21875 255.664062 41.292969 C 255.664062 42.40625 256.640625 43.285156 257.792969 43.285156 C 258.964844 43.285156 259.414062 42.347656 259.414062 42.152344 Z M 258.808594 41 L 256.464844 41 C 256.5625 39.769531 257.34375 39.574219 257.675781 39.574219 C 258.75 39.574219 258.789062 40.785156 258.808594 41 Z M 258.808594 41 "/>
<path style=" stroke:none;fill-rule:nonzero;fill:rgb(0%,0%,0%);fill-opacity:1;" d="M 264.894531 43.207031 L 264.894531 42.894531 C 264.308594 42.894531 264.25 42.835938 264.25 42.40625 L 264.25 39.359375 L 262.902344 39.457031 L 262.902344 39.769531 C 263.488281 39.769531 263.546875 39.828125 263.546875 40.257812 L 263.546875 41.761719 C 263.546875 42.523438 263.058594 43.050781 262.394531 43.050781 C 261.613281 43.050781 261.574219 42.679688 261.574219 42.230469 L 261.574219 39.359375 L 260.226562 39.457031 L 260.226562 39.769531 C 260.890625 39.769531 260.890625 39.808594 260.890625 40.570312 L 260.890625 41.878906 C 260.890625 42.484375 260.890625 43.285156 262.335938 43.285156 C 262.53125 43.285156 263.15625 43.285156 263.585938 42.5625 L 263.585938 42.5625 L 263.585938 43.285156 L 264.894531 43.207031 Z M 264.894531 43.207031 "/>
<path style=" stroke:none;fill-rule:nonzero;fill:rgb(0%,0%,0%);fill-opacity:1;" d="M 268.816406 39.925781 C 268.816406 39.632812 268.523438 39.359375 268.113281 39.359375 C 267.683594 39.359375 267.195312 39.632812 266.941406 40.296875 L 266.941406 40.296875 L 266.941406 39.359375 L 265.691406 39.457031 L 265.691406 39.769531 C 266.277344 39.769531 266.335938 39.828125 266.335938 40.257812 L 266.335938 42.523438 C 266.335938 42.894531 266.257812 42.894531 265.691406 42.894531 L 265.691406 43.207031 C 265.730469 43.207031 266.316406 43.167969 266.6875 43.167969 L 267.820312 43.207031 L 267.820312 42.894531 L 267.644531 42.894531 C 267 42.894531 267 42.796875 267 42.503906 L 267 41.214844 C 267 40.492188 267.332031 39.613281 268.171875 39.613281 C 268.09375 39.671875 268.015625 39.789062 268.015625 39.925781 C 268.015625 40.21875 268.25 40.316406 268.40625 40.316406 C 268.621094 40.316406 268.816406 40.179688 268.816406 39.925781 Z M 268.816406 39.925781 "/>
<path style=" stroke:none;fill-rule:nonzero;fill:rgb(0%,0%,0%);fill-opacity:1;" d="M 58.363281 24.75 C 58.363281 23.421875 57.25 22.347656 55.960938 22.347656 C 54.59375 22.347656 53.539062 23.460938 53.539062 24.75 C 53.539062 26.097656 54.632812 27.171875 55.941406 27.171875 C 57.289062 27.171875 58.363281 26.058594 58.363281 24.75 Z M 58.363281 24.75 "/>
<path style=" stroke:none;fill-rule:nonzero;fill:rgb(0%,0%,0%);fill-opacity:1;" d="M 58.363281 56.640625 C 58.363281 55.3125 57.25 54.238281 55.960938 54.238281 C 54.59375 54.238281 53.539062 55.351562 53.539062 56.640625 C 53.539062 57.988281 54.632812 59.0625 55.941406 59.0625 C 57.289062 59.0625 58.363281 57.949219 58.363281 56.640625 Z M 58.363281 56.640625 "/>
<path style=" stroke:none;fill-rule:nonzero;fill:rgb(0%,0%,0%);fill-opacity:1;" d="M 122.144531 24.75 C 122.144531 23.421875 121.03125 22.347656 119.742188 22.347656 C 118.375 22.347656 117.320312 23.460938 117.320312 24.75 C 117.320312 26.097656 118.414062 27.171875 119.722656 27.171875 C 121.070312 27.171875 122.144531 26.058594 122.144531 24.75 Z M 122.144531 24.75 "/>
<path style=" stroke:none;fill-rule:nonzero;fill:rgb(0%,0%,0%);fill-opacity:1;" d="M 122.144531 56.640625 C 122.144531 55.3125 121.03125 54.238281 119.742188 54.238281 C 118.375 54.238281 117.320312 55.351562 117.320312 56.640625 C 117.320312 57.988281 118.414062 59.0625 119.722656 59.0625 C 121.070312 59.0625 122.144531 57.949219 122.144531 56.640625 Z M 122.144531 56.640625 "/>
<path style=" stroke:none;fill-rule:nonzero;fill:rgb(0%,0%,0%);fill-opacity:1;" d="M 164.664062 24.75 C 164.664062 23.421875 163.550781 22.347656 162.261719 22.347656 C 160.894531 22.347656 159.839844 23.460938 159.839844 24.75 C 159.839844 26.097656 160.933594 27.171875 162.242188 27.171875 C 163.589844 27.171875 164.664062 26.058594 164.664062 24.75 Z M 164.664062 24.75 "/>
<path style=" stroke:none;fill-rule:nonzero;fill:rgb(0%,0%,0%);fill-opacity:1;" d="M 164.664062 56.640625 C 164.664062 55.3125 163.550781 54.238281 162.261719 54.238281 C 160.894531 54.238281 159.839844 55.351562 159.839844 56.640625 C 159.839844 57.988281 160.933594 59.0625 162.242188 59.0625 C 163.589844 59.0625 164.664062 57.949219 164.664062 56.640625 Z M 164.664062 56.640625 "/>
<path style=" stroke:none;fill-rule:nonzero;fill:rgb(0%,0%,0%);fill-opacity:1;" d="M 228.445312 24.75 C 228.445312 23.421875 227.332031 22.347656 226.042969 22.347656 C 224.675781 22.347656 223.621094 23.460938 223.621094 24.75 C 223.621094 26.097656 224.714844 27.171875 226.023438 27.171875 C 227.371094 27.171875 228.445312 26.058594 228.445312 24.75 Z M 228.445312 24.75 "/>
<path style=" stroke:none;fill-rule:nonzero;fill:rgb(0%,0%,0%);fill-opacity:1;" d="M 228.445312 56.640625 C 228.445312 55.3125 227.332031 54.238281 226.042969 54.238281 C 224.675781 54.238281 223.621094 55.351562 223.621094 56.640625 C 223.621094 57.988281 224.714844 59.0625 226.023438 59.0625 C 227.371094 59.0625 228.445312 57.949219 228.445312 56.640625 Z M 228.445312 56.640625 "/>
<path style="fill:none;stroke-width:0.79701;stroke-linecap:butt;stroke-linejoin:miter;stroke:rgb(0%,0%,0%);stroke-opacity:1;stroke-miterlimit:10;" d="M 38.2695 34.016625 L 89.291375 34.016625 " transform="matrix(1.25,0,0,-1.25,8.11625,67.62625)"/>
<path style=" stroke:none;fill-rule:nonzero;fill:rgb(0%,0%,0%);fill-opacity:1;" d="M 91.03125 25.109375 L 85.851562 22.515625 L 87.792969 25.109375 L 85.851562 27.695312 "/>
<path style=" stroke:none;fill-rule:nonzero;fill:rgb(0%,0%,0%);fill-opacity:1;" d="M 86.554688 10.796875 C 86.554688 10.542969 86.378906 10.347656 86.105469 10.347656 C 85.753906 10.347656 85.421875 10.679688 85.421875 11.011719 C 85.421875 11.246094 85.597656 11.460938 85.890625 11.460938 C 86.183594 11.460938 86.554688 11.167969 86.554688 10.796875 Z M 86.671875 16.8125 C 86.671875 16.675781 86.554688 16.675781 86.515625 16.675781 C 86.398438 16.675781 86.398438 16.714844 86.339844 16.910156 C 86.105469 17.691406 85.695312 18.453125 85.070312 18.453125 C 84.855469 18.453125 84.757812 18.335938 84.757812 18.042969 C 84.757812 17.730469 84.835938 17.554688 85.128906 16.792969 L 85.617188 15.484375 C 85.753906 15.132812 85.753906 15.09375 85.890625 14.761719 C 85.988281 14.507812 86.046875 14.332031 86.046875 14.097656 C 86.046875 13.550781 85.65625 13.082031 85.03125 13.082031 C 83.859375 13.082031 83.390625 14.898438 83.390625 14.996094 C 83.390625 15.132812 83.527344 15.132812 83.527344 15.132812 C 83.664062 15.132812 83.664062 15.09375 83.722656 14.898438 C 84.074219 13.726562 84.5625 13.355469 84.992188 13.355469 C 85.089844 13.355469 85.304688 13.355469 85.304688 13.746094 C 85.304688 14.019531 85.207031 14.273438 85.167969 14.410156 C 85.070312 14.722656 84.503906 16.167969 84.308594 16.714844 C 84.171875 17.027344 84.015625 17.4375 84.015625 17.710938 C 84.015625 18.296875 84.445312 18.726562 85.03125 18.726562 C 86.203125 18.726562 86.671875 16.929688 86.671875 16.8125 Z M 86.671875 16.8125 "/>
<path style=" stroke:none;fill-rule:nonzero;fill:rgb(0%,0%,0%);fill-opacity:1;" d="M 91.628906 19.558594 C 91.628906 19.5 91.550781 19.402344 91.472656 19.402344 C 91.433594 19.402344 91.414062 19.421875 91.335938 19.5 C 90.652344 20.300781 89.636719 20.300781 89.480469 20.300781 C 88.953125 20.300781 88.601562 19.949219 88.601562 19.246094 C 88.601562 19.128906 88.601562 18.953125 88.71875 18.464844 L 89.265625 18.464844 C 89.5 18.464844 90.203125 18.445312 90.671875 18.289062 C 91.316406 18.054688 91.433594 17.644531 91.433594 17.390625 C 91.433594 16.902344 90.945312 16.609375 90.359375 16.609375 C 89.304688 16.609375 87.898438 17.410156 87.898438 18.914062 C 87.898438 19.792969 88.445312 20.535156 89.460938 20.535156 C 90.945312 20.535156 91.628906 19.675781 91.628906 19.558594 Z M 91.0625 17.390625 C 91.0625 18.230469 89.578125 18.230469 89.207031 18.230469 L 88.777344 18.230469 C 89.148438 16.960938 90.105469 16.863281 90.359375 16.863281 C 90.730469 16.863281 91.0625 17.058594 91.0625 17.390625 Z M 91.0625 17.390625 "/>
<path style="fill:none;stroke-width:0.79701;stroke-linecap:butt;stroke-linejoin:miter;stroke:rgb(0%,0%,0%);stroke-opacity:1;stroke-miterlimit:10;" d="M 123.307 34.016625 L 174.332 34.016625 " transform="matrix(1.25,0,0,-1.25,8.11625,67.62625)"/>
<path style=" stroke:none;fill-rule:nonzero;fill:rgb(0%,0%,0%);fill-opacity:1;" d="M 197.328125 25.109375 L 192.148438 22.515625 L 194.09375 25.109375 L 192.148438 27.695312 "/>
<path style=" stroke:none;fill-rule:nonzero;fill:rgb(0%,0%,0%);fill-opacity:1;" d="M 192.867188 10.796875 C 192.867188 10.542969 192.691406 10.347656 192.417969 10.347656 C 192.066406 10.347656 191.734375 10.679688 191.734375 11.011719 C 191.734375 11.246094 191.910156 11.460938 192.203125 11.460938 C 192.496094 11.460938 192.867188 11.167969 192.867188 10.796875 Z M 192.984375 16.8125 C 192.984375 16.675781 192.867188 16.675781 192.828125 16.675781 C 192.710938 16.675781 192.710938 16.714844 192.652344 16.910156 C 192.417969 17.691406 192.007812 18.453125 191.382812 18.453125 C 191.167969 18.453125 191.070312 18.335938 191.070312 18.042969 C 191.070312 17.730469 191.148438 17.554688 191.441406 16.792969 L 191.929688 15.484375 C 192.066406 15.132812 192.066406 15.09375 192.203125 14.761719 C 192.300781 14.507812 192.359375 14.332031 192.359375 14.097656 C 192.359375 13.550781 191.96875 13.082031 191.34375 13.082031 C 190.171875 13.082031 189.703125 14.898438 189.703125 14.996094 C 189.703125 15.132812 189.839844 15.132812 189.839844 15.132812 C 189.976562 15.132812 189.976562 15.09375 190.035156 14.898438 C 190.386719 13.726562 190.875 13.355469 191.304688 13.355469 C 191.402344 13.355469 191.617188 13.355469 191.617188 13.746094 C 191.617188 14.019531 191.519531 14.273438 191.480469 14.410156 C 191.382812 14.722656 190.816406 16.167969 190.621094 16.714844 C 190.484375 17.027344 190.328125 17.4375 190.328125 17.710938 C 190.328125 18.296875 190.757812 18.726562 191.34375 18.726562 C 192.515625 18.726562 192.984375 16.929688 192.984375 16.8125 Z M 192.984375 16.8125 "/>
<path style=" stroke:none;fill-rule:nonzero;fill:rgb(0%,0%,0%);fill-opacity:1;" d="M 197.550781 19.109375 C 197.550781 18.308594 196.671875 18.152344 196.339844 18.09375 C 196.261719 18.074219 196.046875 18.035156 195.988281 18.015625 C 195.675781 17.957031 195.519531 17.78125 195.519531 17.585938 C 195.519531 17.390625 195.675781 17.15625 195.871094 17.019531 C 196.105469 16.882812 196.398438 16.863281 196.554688 16.863281 C 196.730469 16.863281 197.179688 16.882812 197.375 17.175781 C 197.160156 17.234375 197.003906 17.410156 197.003906 17.585938 C 197.003906 17.800781 197.179688 17.878906 197.296875 17.878906 C 197.394531 17.878906 197.726562 17.820312 197.726562 17.371094 C 197.726562 16.804688 197.101562 16.609375 196.554688 16.609375 C 195.207031 16.609375 194.953125 17.625 194.953125 17.878906 C 194.953125 18.210938 195.148438 18.425781 195.265625 18.523438 C 195.480469 18.699219 195.636719 18.738281 196.242188 18.835938 C 196.4375 18.875 196.984375 18.972656 196.984375 19.402344 C 196.984375 19.558594 196.886719 19.890625 196.535156 20.105469 C 196.183594 20.300781 195.753906 20.300781 195.65625 20.300781 C 195.304688 20.300781 194.816406 20.222656 194.601562 19.929688 C 194.894531 19.890625 195.089844 19.675781 195.089844 19.441406 C 195.089844 19.226562 194.933594 19.109375 194.757812 19.109375 C 194.503906 19.109375 194.25 19.324219 194.25 19.695312 C 194.25 20.222656 194.796875 20.535156 195.636719 20.535156 C 197.257812 20.535156 197.550781 19.441406 197.550781 19.109375 Z M 197.550781 19.109375 "/>
<path style="fill:none;stroke-width:0.79701;stroke-linecap:butt;stroke-linejoin:miter;stroke:rgb(0%,0%,0%);stroke-opacity:1;stroke-miterlimit:10;" d="M 76.53825 10.629125 L 76.53825 27.226 " transform="matrix(1.25,0,0,-1.25,8.11625,67.62625)"/>
<path style=" stroke:none;fill-rule:nonzero;fill:rgb(0%,0%,0%);fill-opacity:1;" d="M 103.789062 27.765625 C 103.460938 29.492188 102.492188 32.296875 101.359375 34.238281 L 106.214844 34.238281 C 105.082031 32.296875 104.109375 29.492188 103.789062 27.765625 "/>
<path style=" stroke:none;fill-rule:nonzero;fill:rgb(0%,0%,0%);fill-opacity:1;" d="M 96.113281 36.011719 C 96.113281 35.914062 96.035156 35.855469 95.9375 35.855469 C 95.625 35.855469 95.253906 35.894531 94.921875 35.894531 C 94.511719 35.894531 94.082031 35.855469 93.691406 35.855469 C 93.613281 35.855469 93.457031 35.855469 93.457031 36.089844 C 93.457031 36.226562 93.554688 36.246094 93.652344 36.246094 C 93.984375 36.265625 94.21875 36.402344 94.21875 36.65625 C 94.21875 36.851562 94.042969 37.125 94.042969 37.125 L 90.214844 43.21875 L 89.355469 36.617188 C 89.355469 36.402344 89.648438 36.246094 90.214844 36.246094 C 90.390625 36.246094 90.527344 36.246094 90.527344 35.992188 C 90.527344 35.894531 90.429688 35.855469 90.371094 35.855469 C 89.863281 35.855469 89.335938 35.894531 88.808594 35.894531 C 88.59375 35.894531 88.359375 35.894531 88.125 35.894531 C 87.910156 35.894531 87.675781 35.855469 87.460938 35.855469 C 87.363281 35.855469 87.226562 35.855469 87.226562 36.089844 C 87.226562 36.246094 87.324219 36.246094 87.539062 36.246094 C 88.222656 36.246094 88.242188 36.363281 88.28125 36.675781 L 89.257812 44.351562 C 89.296875 44.605469 89.355469 44.644531 89.511719 44.644531 C 89.707031 44.644531 89.765625 44.585938 89.863281 44.429688 L 94.355469 37.28125 C 94.960938 36.304688 95.488281 36.265625 95.9375 36.246094 C 96.09375 36.226562 96.113281 36.011719 96.113281 36.011719 Z M 96.113281 36.011719 "/>
<path style=" stroke:none;fill-rule:nonzero;fill:rgb(0%,0%,0%);fill-opacity:1;" d="M 98.105469 45.34375 C 98.105469 45.285156 98.027344 45.1875 97.949219 45.1875 C 97.910156 45.1875 97.890625 45.207031 97.8125 45.285156 C 97.128906 46.085938 96.113281 46.085938 95.957031 46.085938 C 95.429688 46.085938 95.078125 45.734375 95.078125 45.03125 C 95.078125 44.914062 95.078125 44.738281 95.195312 44.25 L 95.742188 44.25 C 95.976562 44.25 96.679688 44.230469 97.148438 44.074219 C 97.792969 43.839844 97.910156 43.429688 97.910156 43.175781 C 97.910156 42.6875 97.421875 42.394531 96.835938 42.394531 C 95.78125 42.394531 94.375 43.195312 94.375 44.699219 C 94.375 45.578125 94.921875 46.320312 95.9375 46.320312 C 97.421875 46.320312 98.105469 45.460938 98.105469 45.34375 Z M 97.539062 43.175781 C 97.539062 44.015625 96.054688 44.015625 95.683594 44.015625 L 95.253906 44.015625 C 95.625 42.746094 96.582031 42.648438 96.835938 42.648438 C 97.207031 42.648438 97.539062 42.84375 97.539062 43.175781 Z M 97.539062 43.175781 "/>
<path style="fill:none;stroke-width:0.79701;stroke-linecap:butt;stroke-linejoin:miter;stroke:rgb(0%,0%,0%);stroke-opacity:1;stroke-miterlimit:10;" d="M 161.578875 10.629125 L 161.578875 27.226 " transform="matrix(1.25,0,0,-1.25,8.11625,67.62625)"/>
<path style=" stroke:none;fill-rule:nonzero;fill:rgb(0%,0%,0%);fill-opacity:1;" d="M 210.085938 27.765625 C 209.765625 29.492188 208.792969 32.296875 207.660156 34.238281 L 212.515625 34.238281 C 211.382812 32.296875 210.410156 29.492188 210.085938 27.765625 "/>
<path style=" stroke:none;fill-rule:nonzero;fill:rgb(0%,0%,0%);fill-opacity:1;" d="M 202.4375 36.011719 C 202.4375 35.914062 202.359375 35.855469 202.261719 35.855469 C 201.949219 35.855469 201.578125 35.894531 201.246094 35.894531 C 200.835938 35.894531 200.40625 35.855469 200.015625 35.855469 C 199.9375 35.855469 199.78125 35.855469 199.78125 36.089844 C 199.78125 36.226562 199.878906 36.246094 199.976562 36.246094 C 200.308594 36.265625 200.542969 36.402344 200.542969 36.65625 C 200.542969 36.851562 200.367188 37.125 200.367188 37.125 L 196.539062 43.21875 L 195.679688 36.617188 C 195.679688 36.402344 195.972656 36.246094 196.539062 36.246094 C 196.714844 36.246094 196.851562 36.246094 196.851562 35.992188 C 196.851562 35.894531 196.753906 35.855469 196.695312 35.855469 C 196.1875 35.855469 195.660156 35.894531 195.132812 35.894531 C 194.917969 35.894531 194.683594 35.894531 194.449219 35.894531 C 194.234375 35.894531 194 35.855469 193.785156 35.855469 C 193.6875 35.855469 193.550781 35.855469 193.550781 36.089844 C 193.550781 36.246094 193.648438 36.246094 193.863281 36.246094 C 194.546875 36.246094 194.566406 36.363281 194.605469 36.675781 L 195.582031 44.351562 C 195.621094 44.605469 195.679688 44.644531 195.835938 44.644531 C 196.03125 44.644531 196.089844 44.585938 196.1875 44.429688 L 200.679688 37.28125 C 201.285156 36.304688 201.8125 36.265625 202.261719 36.246094 C 202.417969 36.226562 202.4375 36.011719 202.4375 36.011719 Z M 202.4375 36.011719 "/>
<path style=" stroke:none;fill-rule:nonzero;fill:rgb(0%,0%,0%);fill-opacity:1;" d="M 204.039062 44.894531 C 204.039062 44.09375 203.160156 43.9375 202.828125 43.878906 C 202.75 43.859375 202.535156 43.820312 202.476562 43.800781 C 202.164062 43.742188 202.007812 43.566406 202.007812 43.371094 C 202.007812 43.175781 202.164062 42.941406 202.359375 42.804688 C 202.59375 42.667969 202.886719 42.648438 203.042969 42.648438 C 203.21875 42.648438 203.667969 42.667969 203.863281 42.960938 C 203.648438 43.019531 203.492188 43.195312 203.492188 43.371094 C 203.492188 43.585938 203.667969 43.664062 203.785156 43.664062 C 203.882812 43.664062 204.214844 43.605469 204.214844 43.15625 C 204.214844 42.589844 203.589844 42.394531 203.042969 42.394531 C 201.695312 42.394531 201.441406 43.410156 201.441406 43.664062 C 201.441406 43.996094 201.636719 44.210938 201.753906 44.308594 C 201.96875 44.484375 202.125 44.523438 202.730469 44.621094 C 202.925781 44.660156 203.472656 44.757812 203.472656 45.1875 C 203.472656 45.34375 203.375 45.675781 203.023438 45.890625 C 202.671875 46.085938 202.242188 46.085938 202.144531 46.085938 C 201.792969 46.085938 201.304688 46.007812 201.089844 45.714844 C 201.382812 45.675781 201.578125 45.460938 201.578125 45.226562 C 201.578125 45.011719 201.421875 44.894531 201.246094 44.894531 C 200.992188 44.894531 200.738281 45.109375 200.738281 45.480469 C 200.738281 46.007812 201.285156 46.320312 202.125 46.320312 C 203.746094 46.320312 204.039062 45.226562 204.039062 44.894531 Z M 204.039062 44.894531 "/>
<path style="fill:none;stroke-width:0.79701;stroke-linecap:butt;stroke-linejoin:miter;stroke:rgb(0%,0%,0%);stroke-opacity:1;stroke-miterlimit:10;" d="M 38.2695 8.504125 L 89.291375 8.504125 " transform="matrix(1.25,0,0,-1.25,8.11625,67.62625)"/>
<path style="fill:none;stroke-width:0.79701;stroke-linecap:butt;stroke-linejoin:miter;stroke:rgb(0%,0%,0%);stroke-opacity:1;stroke-miterlimit:10;" d="M 123.307 8.504125 L 174.332 8.504125 " transform="matrix(1.25,0,0,-1.25,8.11625,67.62625)"/>
</g>
</svg>
