<?xml version="1.0" encoding="UTF-8"?>
<!-- Converted by misc2svg (http://www.network-science.de/tools/misc2svg/) -->
<svg xmlns="http://www.w3.org/2000/svg" xmlns:xlink="http://www.w3.org/1999/xlink" width="401pt" height="147pt" viewBox="0 0 401 147" version="1.1">
<g id="misc2svg">
<path style="fill:none;stroke-width:0.4;stroke-linecap:butt;stroke-linejoin:miter;stroke:rgb(0%,0%,0%);stroke-opacity:1;stroke-miterlimit:4;" d="M 135.528125 98.75625 C 129.003125 98.75625 123.715625 81.828125 123.715625 60.94375 C 123.715625 40.065625 128.14375 23.421875 134.66875 23.421875 " transform="matrix(1.25,0,0,1.25,0,0)"/>
<path style="fill:none;stroke-width:0.4;stroke-linecap:butt;stroke-linejoin:miter;stroke:rgb(0%,0%,0%);stroke-opacity:1;stroke-miterlimit:4;" d="M 140.0625 98.75625 C 133.5375 98.75625 128.25 81.828125 128.25 60.94375 C 128.25 40.065625 132.684375 23.421875 139.20625 23.421875 " transform="matrix(1.25,0,0,1.25,0,0)"/>
<path style="fill:none;stroke-width:0.4;stroke-linecap:butt;stroke-linejoin:miter;stroke:rgb(0%,0%,0%);stroke-opacity:1;stroke-miterlimit:4;" d="M 125.6625 98.75625 C 119.140625 98.75625 113.85 81.828125 113.85 60.94375 C 113.85 40.065625 118.28125 23.421875 124.80625 23.421875 " transform="matrix(1.25,0,0,1.25,0,0)"/>
<path style="fill:none;stroke-width:0.4;stroke-linecap:butt;stroke-linejoin:miter;stroke:rgb(0%,0%,0%);stroke-opacity:1;stroke-miterlimit:4;" d="M 120.984375 98.75625 C 116.359375 98.75625 112.35 90.234375 110.4125 77.825 C 109.621875 72.74375 109.175 67.0125 109.175 60.94375 C 109.175 40.065625 113.60625 23.421875 120.128125 23.421875 " transform="matrix(1.25,0,0,1.25,0,0)"/>
<path style="fill:none;stroke-width:1.305164;stroke-linecap:butt;stroke-linejoin:miter;stroke:rgb(0%,0%,0%);stroke-opacity:1;stroke-miterlimit:4;" d="M 40.09375 23.2625 L 214.31875 23.2625 " transform="matrix(1.25,0,0,1.25,0,0)"/>
<path style="fill:none;stroke-width:1.305164;stroke-linecap:butt;stroke-linejoin:miter;stroke:rgb(0%,0%,0%);stroke-opacity:1;stroke-miterlimit:4;" d="M 40.09375 98.4625 L 214.31875 98.4625 " transform="matrix(1.25,0,0,1.25,0,0)"/>
<path style="fill-rule:nonzero;fill:rgb(100%,100%,100%);fill-opacity:1;stroke-width:1.344949;stroke-linecap:butt;stroke-linejoin:miter;stroke:rgb(0%,0%,0%);stroke-opacity:1;stroke-miterlimit:4;" d="M 41.203125 98.503125 C 34.684375 98.503125 29.39375 81.575 29.39375 60.690625 C 29.39375 39.809375 34.378125 23.184375 40.903125 23.184375 " transform="matrix(1.25,0,0,1.25,0,0)"/>
<path style="fill-rule:nonzero;fill:rgb(100%,100%,100%);fill-opacity:1;stroke-width:1.344949;stroke-linecap:butt;stroke-linejoin:miter;stroke:rgb(0%,0%,0%);stroke-opacity:1;stroke-miterlimit:4;" d="M 224.3125 60.690625 C 224.3125 81.575 219.025 98.503125 212.5 98.503125 C 205.975 98.503125 200.690625 81.575 200.690625 60.690625 C 200.690625 39.809375 205.975 22.88125 212.5 22.88125 C 219.025 22.88125 224.3125 39.809375 224.3125 60.690625 Z M 224.3125 60.690625 " transform="matrix(1.25,0,0,1.25,0,0)"/>
<path style="fill:none;stroke-width:0.8;stroke-linecap:butt;stroke-linejoin:miter;stroke:rgb(0%,0%,0%);stroke-opacity:1;stroke-miterlimit:4;" d="M 9.35 59.971875 L 319.6375 59.971875 " transform="matrix(1.25,0,0,1.25,0,0)"/>
<path style=" stroke:none;fill-rule:evenodd;fill:rgb(0%,0%,0%);fill-opacity:1;" d="M 388.851562 70.53125 L 400.875 74.953125 L 388.851562 79.371094 C 390.777344 76.761719 390.761719 73.1875 388.851562 70.53125 Z M 388.851562 70.53125 "/>
<path style=" stroke:none;fill-rule:nonzero;fill:rgb(0%,0%,0%);fill-opacity:1;" d="M 398.082031 60.710938 C 398.082031 60.828125 398.066406 60.9375 398.042969 61.023438 C 398.027344 61.117188 398.007812 61.191406 397.984375 61.238281 C 397.957031 61.292969 397.917969 61.332031 397.867188 61.355469 C 397.828125 61.386719 397.78125 61.394531 397.730469 61.394531 L 392.320312 61.394531 C 392.175781 61.394531 392.058594 61.351562 391.96875 61.257812 C 391.890625 61.171875 391.851562 61.015625 391.851562 60.789062 L 391.851562 60.457031 C 391.851562 60.371094 391.855469 60.292969 391.871094 60.222656 C 391.882812 60.144531 391.902344 60.078125 391.929688 60.007812 C 391.953125 59.929688 391.988281 59.851562 392.027344 59.773438 C 392.078125 59.695312 392.136719 59.609375 392.203125 59.5 L 396.070312 53.464844 L 392.320312 53.464844 C 392.214844 53.464844 392.128906 53.417969 392.066406 53.308594 C 392 53.191406 391.96875 53.015625 391.96875 52.78125 C 391.96875 52.664062 391.972656 52.5625 391.988281 52.46875 C 392 52.382812 392.019531 52.308594 392.046875 52.253906 C 392.085938 52.207031 392.125 52.167969 392.164062 52.136719 C 392.203125 52.113281 392.253906 52.097656 392.320312 52.097656 L 397.359375 52.097656 C 397.421875 52.097656 397.480469 52.113281 397.535156 52.136719 C 397.597656 52.152344 397.652344 52.1875 397.691406 52.234375 C 397.730469 52.273438 397.753906 52.332031 397.769531 52.410156 C 397.792969 52.480469 397.808594 52.566406 397.808594 52.683594 L 397.808594 52.996094 C 397.808594 53.089844 397.800781 53.171875 397.789062 53.25 C 397.773438 53.328125 397.753906 53.40625 397.730469 53.484375 C 397.703125 53.554688 397.664062 53.632812 397.613281 53.71875 C 397.574219 53.796875 397.519531 53.890625 397.457031 53.992188 L 393.609375 60.027344 L 397.730469 60.027344 C 397.78125 60.027344 397.828125 60.042969 397.867188 60.066406 C 397.90625 60.097656 397.9375 60.136719 397.964844 60.183594 C 398.003906 60.238281 398.027344 60.3125 398.042969 60.398438 C 398.066406 60.476562 398.082031 60.585938 398.082031 60.710938 Z M 398.082031 60.710938 "/>
<path style="fill-rule:nonzero;fill:rgb(0%,0%,0%);fill-opacity:1;stroke-width:1.6;stroke-linecap:butt;stroke-linejoin:round;stroke:rgb(0%,0%,0%);stroke-opacity:1;stroke-miterlimit:4;" d="M 265.96875 59.996875 C 265.96875 60.625 265.45625 61.1375 264.825 61.1375 C 264.19375 61.1375 263.684375 60.625 263.684375 59.996875 C 263.684375 59.3625 264.19375 58.85 264.825 58.85 C 265.45625 58.85 265.96875 59.3625 265.96875 59.996875 Z M 265.96875 59.996875 " transform="matrix(1.25,0,0,1.25,0,0)"/>
<path style=" stroke:none;fill-rule:nonzero;fill:rgb(0%,0%,0%);fill-opacity:1;" d="M 347.207031 91.390625 C 347.207031 91.445312 347.191406 91.488281 347.167969 91.527344 C 347.152344 91.558594 347.121094 91.578125 347.070312 91.585938 C 347.015625 91.601562 346.953125 91.613281 346.875 91.625 C 346.796875 91.636719 346.683594 91.644531 346.542969 91.644531 C 346.425781 91.644531 346.320312 91.636719 346.230469 91.625 C 346.152344 91.613281 346.085938 91.601562 346.035156 91.585938 C 345.980469 91.578125 345.941406 91.558594 345.917969 91.527344 C 345.902344 91.488281 345.898438 91.445312 345.898438 91.390625 L 345.898438 82.464844 L 345.878906 82.464844 L 342.226562 91.429688 C 342.199219 91.46875 342.171875 91.503906 342.148438 91.527344 C 342.121094 91.558594 342.074219 91.582031 342.011719 91.605469 C 341.957031 91.617188 341.894531 91.625 341.816406 91.625 C 341.75 91.636719 341.660156 91.644531 341.542969 91.644531 C 341.4375 91.644531 341.347656 91.636719 341.269531 91.625 C 341.191406 91.625 341.125 91.617188 341.074219 91.605469 C 341.019531 91.582031 340.976562 91.558594 340.9375 91.527344 C 340.910156 91.503906 340.890625 91.46875 340.878906 91.429688 L 337.382812 82.464844 L 337.382812 82.464844 L 337.382812 91.390625 C 337.382812 91.445312 337.367188 91.488281 337.34375 91.527344 C 337.316406 91.558594 337.277344 91.578125 337.226562 91.585938 C 337.171875 91.601562 337.101562 91.613281 337.011719 91.625 C 336.933594 91.636719 336.828125 91.644531 336.699219 91.644531 C 336.566406 91.644531 336.457031 91.636719 336.367188 91.625 C 336.289062 91.613281 336.222656 91.601562 336.171875 91.585938 C 336.132812 91.578125 336.097656 91.558594 336.074219 91.527344 C 336.058594 91.488281 336.054688 91.445312 336.054688 91.390625 L 336.054688 81.957031 C 336.054688 81.738281 336.113281 81.582031 336.230469 81.488281 C 336.347656 81.386719 336.476562 81.332031 336.621094 81.332031 L 337.441406 81.332031 C 337.609375 81.332031 337.753906 81.351562 337.871094 81.390625 C 338 81.421875 338.109375 81.46875 338.203125 81.546875 C 338.304688 81.617188 338.390625 81.699219 338.457031 81.800781 C 338.519531 81.910156 338.578125 82.03125 338.632812 82.171875 L 341.601562 89.613281 L 341.640625 89.613281 L 344.726562 82.191406 C 344.789062 82.035156 344.855469 81.910156 344.921875 81.800781 C 344.984375 81.683594 345.058594 81.597656 345.136719 81.527344 C 345.226562 81.464844 345.316406 81.421875 345.410156 81.390625 C 345.511719 81.351562 345.636719 81.332031 345.78125 81.332031 L 346.640625 81.332031 C 346.71875 81.332031 346.789062 81.347656 346.855469 81.371094 C 346.933594 81.402344 346.996094 81.441406 347.050781 81.488281 C 347.101562 81.542969 347.140625 81.605469 347.167969 81.683594 C 347.191406 81.753906 347.207031 81.839844 347.207031 81.957031 L 347.207031 91.390625 Z M 347.207031 91.390625 "/>
<path style="fill:none;stroke-width:1.344949;stroke-linecap:butt;stroke-linejoin:miter;stroke:rgb(0%,0%,0%);stroke-opacity:1;stroke-miterlimit:4;" d="M 130.91875 98.503125 C 124.39375 98.503125 119.109375 81.575 119.109375 60.690625 C 119.109375 39.809375 123.5375 23.16875 130.0625 23.16875 " transform="matrix(1.25,0,0,1.25,0,0)"/>
<path style="fill-rule:nonzero;fill:rgb(0%,0%,0%);fill-opacity:1;stroke-width:0.976191;stroke-linecap:butt;stroke-linejoin:miter;stroke:rgb(0%,0%,0%);stroke-opacity:1;stroke-miterlimit:4;" d="M 120.55625 78.51875 L 121.71875 83.79375 " transform="matrix(1.25,0,0,1.25,0,0)"/>
<path style="fill-rule:evenodd;fill:rgb(0%,0%,0%);fill-opacity:1;stroke-width:0.953317;stroke-linecap:butt;stroke-linejoin:miter;stroke:rgb(0%,0%,0%);stroke-opacity:1;stroke-miterlimit:4;" d="M 109.890656 -98.470896 L 103.29668 -94.655261 L 103.293471 -102.284093 L 109.890656 -98.470896 Z M 109.890656 -98.470896 " transform="matrix(0.275463,1.25,-1.25,0.275463,0,0)"/>
<path style=" stroke:none;fill-rule:nonzero;fill:rgb(100%,100%,100%);fill-opacity:1;" d="M 158.460938 95.109375 L 169.808594 95.109375 L 169.808594 109.066406 L 158.460938 109.066406 L 158.460938 95.109375 Z M 158.460938 95.109375 "/>
<path style=" stroke:none;fill-rule:nonzero;fill:rgb(0%,0%,0%);fill-opacity:1;" d="M 163.234375 106.472656 L 163.234375 97.527344 L 164.757812 97.527344 L 164.757812 106.472656 L 163.234375 106.472656 Z M 163.234375 106.472656 "/>
<path style="fill:none;stroke-width:0.8;stroke-linecap:butt;stroke-linejoin:miter;stroke:rgb(0%,0%,0%);stroke-opacity:1;stroke-miterlimit:4;" d="M 128.965625 103.872309 L 133.609375 103.872309 " transform="matrix(1.25,0,0,0.940871,0,0)"/>
<path style="fill:none;stroke-width:0.8;stroke-linecap:butt;stroke-linejoin:miter;stroke:rgb(0%,0%,0%);stroke-opacity:1;stroke-miterlimit:4;" d="M 128.965625 113.363179 L 133.609375 113.363179 " transform="matrix(1.25,0,0,0.940871,0,0)"/>
<path style="fill:none;stroke-width:0.8;stroke-linecap:butt;stroke-linejoin:miter;stroke:rgb(0%,0%,0%);stroke-opacity:1;stroke-dasharray:0.8,3.2;stroke-miterlimit:4;" d="M 39.35 23.11875 L 264.778125 59.971875 " transform="matrix(1.25,0,0,1.25,0,0)"/>
<path style="fill:none;stroke-width:0.8;stroke-linecap:butt;stroke-linejoin:miter;stroke:rgb(0%,0%,0%);stroke-opacity:1;stroke-dasharray:0.8,3.2;stroke-miterlimit:4;" d="M 264.778125 59.971875 L 213.065625 23.09375 " transform="matrix(1.25,0,0,1.25,0,0)"/>
<path style="fill:none;stroke-width:0.8;stroke-linecap:butt;stroke-linejoin:miter;stroke:rgb(0%,0%,0%);stroke-opacity:1;stroke-miterlimit:4;" d="M 184.8375 59.99375 C 184.8375 60.13125 181.4125 52.58125 185.90625 46.9625 " transform="matrix(1.25,0,0,1.25,0,0)"/>
<path style="fill:none;stroke-width:0.8;stroke-linecap:butt;stroke-linejoin:miter;stroke:rgb(0%,0%,0%);stroke-opacity:1;stroke-miterlimit:4;" d="M 242.921875 59.309375 C 242.53125 60.05 239.98125 51.6125 246.43125 46.859375 " transform="matrix(1.25,0,0,1.25,0,0)"/>
<path style=" stroke:none;fill-rule:nonzero;fill:rgb(0%,0%,0%);fill-opacity:1;" d="M 220.144531 68.144531 C 220.144531 68.300781 220.136719 68.417969 220.125 68.496094 C 220.109375 68.5625 220.085938 68.605469 220.046875 68.632812 C 220.019531 68.660156 219.972656 68.683594 219.910156 68.710938 C 219.855469 68.734375 219.785156 68.753906 219.695312 68.769531 C 219.601562 68.792969 219.511719 68.8125 219.421875 68.828125 C 219.34375 68.835938 219.25 68.847656 219.148438 68.847656 C 218.976562 68.847656 218.800781 68.816406 218.621094 68.769531 C 218.449219 68.730469 218.300781 68.660156 218.171875 68.554688 C 218.039062 68.4375 217.921875 68.289062 217.820312 68.105469 C 217.726562 67.921875 217.667969 67.6875 217.644531 67.402344 C 217.550781 67.609375 217.433594 67.804688 217.292969 67.988281 C 217.148438 68.15625 216.980469 68.308594 216.785156 68.4375 C 216.589844 68.566406 216.375 68.664062 216.140625 68.730469 C 215.90625 68.808594 215.652344 68.847656 215.378906 68.847656 C 214.894531 68.847656 214.480469 68.753906 214.128906 68.574219 C 213.789062 68.390625 213.507812 68.144531 213.289062 67.832031 C 213.066406 67.519531 212.902344 67.148438 212.800781 66.71875 C 212.695312 66.277344 212.644531 65.808594 212.644531 65.3125 C 212.644531 64.738281 212.707031 64.226562 212.839844 63.769531 C 212.96875 63.3125 213.15625 62.929688 213.40625 62.617188 C 213.664062 62.292969 213.976562 62.042969 214.34375 61.875 C 214.707031 61.691406 215.128906 61.601562 215.613281 61.601562 C 215.925781 61.601562 216.21875 61.652344 216.492188 61.757812 C 216.765625 61.863281 217.003906 62.011719 217.214844 62.207031 C 217.421875 62.402344 217.589844 62.644531 217.722656 62.929688 C 217.863281 63.214844 217.960938 63.554688 218.015625 63.945312 C 218.09375 63.59375 218.152344 63.289062 218.191406 63.027344 C 218.242188 62.765625 218.273438 62.550781 218.289062 62.382812 C 218.3125 62.199219 218.332031 62.0625 218.347656 61.972656 C 218.359375 61.882812 218.378906 61.824219 218.40625 61.796875 C 218.417969 61.796875 218.4375 61.789062 218.464844 61.777344 C 218.488281 61.765625 218.523438 61.75 218.5625 61.738281 C 218.601562 61.726562 218.644531 61.71875 218.699219 61.71875 C 218.761719 61.707031 218.839844 61.699219 218.933594 61.699219 C 219.050781 61.699219 219.140625 61.707031 219.207031 61.71875 C 219.285156 61.730469 219.34375 61.75 219.382812 61.777344 C 219.433594 61.789062 219.464844 61.808594 219.480469 61.835938 C 219.503906 61.863281 219.519531 61.894531 219.519531 61.933594 C 219.519531 62.011719 219.503906 62.136719 219.480469 62.304688 C 219.453125 62.460938 219.421875 62.648438 219.382812 62.871094 C 219.34375 63.09375 219.289062 63.332031 219.226562 63.59375 C 219.160156 63.855469 219.089844 64.121094 219.011719 64.394531 C 218.945312 64.667969 218.867188 64.933594 218.777344 65.195312 C 218.699219 65.441406 218.621094 65.675781 218.542969 65.898438 C 218.542969 66.300781 218.5625 66.632812 218.601562 66.894531 C 218.652344 67.140625 218.710938 67.335938 218.777344 67.480469 C 218.855469 67.609375 218.9375 67.703125 219.03125 67.753906 C 219.132812 67.804688 219.230469 67.832031 219.324219 67.832031 C 219.414062 67.832031 219.492188 67.824219 219.558594 67.8125 C 219.636719 67.785156 219.699219 67.765625 219.753906 67.753906 C 219.816406 67.742188 219.871094 67.726562 219.910156 67.714844 C 219.949219 67.6875 219.988281 67.675781 220.027344 67.675781 C 220.050781 67.675781 220.070312 67.683594 220.085938 67.695312 C 220.097656 67.707031 220.109375 67.734375 220.125 67.773438 C 220.136719 67.800781 220.144531 67.84375 220.144531 67.910156 C 220.144531 67.976562 220.144531 68.054688 220.144531 68.144531 Z M 217.3125 65.195312 C 217.3125 64.726562 217.265625 64.328125 217.175781 64.003906 C 217.082031 63.679688 216.960938 63.410156 216.804688 63.203125 C 216.648438 62.996094 216.464844 62.84375 216.257812 62.753906 C 216.0625 62.664062 215.851562 62.617188 215.632812 62.617188 C 215.320312 62.617188 215.050781 62.6875 214.832031 62.832031 C 214.621094 62.976562 214.445312 63.171875 214.304688 63.417969 C 214.160156 63.652344 214.054688 63.925781 213.992188 64.238281 C 213.9375 64.539062 213.914062 64.851562 213.914062 65.175781 C 213.914062 65.527344 213.933594 65.867188 213.972656 66.191406 C 214.023438 66.503906 214.113281 66.785156 214.246094 67.03125 C 214.375 67.277344 214.539062 67.480469 214.734375 67.636719 C 214.941406 67.78125 215.207031 67.851562 215.535156 67.851562 C 215.820312 67.851562 216.074219 67.785156 216.296875 67.65625 C 216.515625 67.511719 216.699219 67.324219 216.84375 67.089844 C 217 66.855469 217.117188 66.582031 217.195312 66.269531 C 217.273438 65.945312 217.3125 65.59375 217.3125 65.214844 L 217.3125 65.195312 Z M 217.3125 65.195312 "/>
<path style=" stroke:none;fill-rule:nonzero;fill:rgb(0%,0%,0%);fill-opacity:1;" d="M 225.273438 71.472656 C 225.273438 71.542969 225.261719 71.589844 225.253906 71.628906 C 225.238281 71.667969 225.222656 71.703125 225.214844 71.726562 C 225.199219 71.757812 225.179688 71.777344 225.15625 71.785156 C 225.140625 71.800781 225.121094 71.804688 225.097656 71.804688 L 221.796875 71.804688 C 221.765625 71.804688 221.742188 71.800781 221.71875 71.785156 C 221.703125 71.777344 221.683594 71.757812 221.660156 71.726562 C 221.644531 71.703125 221.628906 71.667969 221.621094 71.628906 C 221.621094 71.589844 221.621094 71.542969 221.621094 71.472656 C 221.621094 71.410156 221.621094 71.355469 221.621094 71.316406 C 221.628906 71.277344 221.644531 71.25 221.660156 71.21875 C 221.683594 71.195312 221.703125 71.175781 221.71875 71.160156 C 221.742188 71.136719 221.765625 71.121094 221.796875 71.121094 L 223.105469 71.121094 L 223.105469 66.316406 L 221.894531 67.058594 C 221.824219 67.089844 221.777344 67.109375 221.738281 67.117188 C 221.699219 67.117188 221.664062 67.113281 221.640625 67.097656 C 221.625 67.074219 221.609375 67.035156 221.601562 66.980469 C 221.601562 66.933594 221.601562 66.875 221.601562 66.804688 C 221.601562 66.742188 221.601562 66.6875 221.601562 66.648438 C 221.601562 66.609375 221.605469 66.582031 221.621094 66.550781 C 221.628906 66.527344 221.644531 66.507812 221.660156 66.492188 C 221.683594 66.46875 221.707031 66.449219 221.738281 66.433594 L 223.183594 65.496094 C 223.191406 65.488281 223.207031 65.476562 223.222656 65.476562 C 223.246094 65.46875 223.269531 65.457031 223.300781 65.457031 C 223.339844 65.449219 223.378906 65.4375 223.417969 65.4375 C 223.457031 65.4375 223.5 65.4375 223.554688 65.4375 C 223.632812 65.4375 223.695312 65.449219 223.75 65.457031 C 223.796875 65.457031 223.835938 65.46875 223.867188 65.476562 C 223.90625 65.492188 223.925781 65.511719 223.925781 65.535156 C 223.933594 65.550781 223.945312 65.566406 223.945312 65.574219 L 223.945312 71.121094 L 225.097656 71.121094 C 225.121094 71.121094 225.140625 71.136719 225.15625 71.160156 C 225.179688 71.175781 225.199219 71.195312 225.214844 71.21875 C 225.238281 71.25 225.253906 71.277344 225.253906 71.316406 C 225.261719 71.355469 225.273438 71.410156 225.273438 71.472656 Z M 225.273438 71.472656 "/>
<path style=" stroke:none;fill-rule:nonzero;fill:rgb(0%,0%,0%);fill-opacity:1;" d="M 293.625 59.011719 C 293.625 59.167969 293.613281 59.285156 293.605469 59.363281 C 293.589844 59.429688 293.566406 59.476562 293.527344 59.5 C 293.496094 59.527344 293.453125 59.554688 293.390625 59.578125 C 293.335938 59.601562 293.261719 59.621094 293.175781 59.636719 C 293.082031 59.660156 292.988281 59.679688 292.902344 59.695312 C 292.824219 59.703125 292.730469 59.714844 292.628906 59.714844 C 292.457031 59.714844 292.28125 59.683594 292.101562 59.636719 C 291.929688 59.597656 291.777344 59.527344 291.652344 59.421875 C 291.519531 59.304688 291.402344 59.15625 291.300781 58.972656 C 291.207031 58.792969 291.148438 58.558594 291.125 58.269531 C 291.03125 58.480469 290.914062 58.675781 290.773438 58.855469 C 290.625 59.027344 290.460938 59.175781 290.265625 59.304688 C 290.070312 59.4375 289.855469 59.535156 289.621094 59.597656 C 289.386719 59.675781 289.132812 59.714844 288.859375 59.714844 C 288.375 59.714844 287.960938 59.621094 287.609375 59.441406 C 287.265625 59.261719 286.988281 59.011719 286.769531 58.699219 C 286.542969 58.386719 286.382812 58.015625 286.28125 57.585938 C 286.171875 57.144531 286.125 56.675781 286.125 56.179688 C 286.125 55.609375 286.1875 55.09375 286.320312 54.636719 C 286.445312 54.183594 286.636719 53.796875 286.886719 53.484375 C 287.144531 53.160156 287.457031 52.914062 287.824219 52.742188 C 288.183594 52.5625 288.609375 52.46875 289.09375 52.46875 C 289.40625 52.46875 289.699219 52.523438 289.972656 52.625 C 290.246094 52.730469 290.484375 52.878906 290.695312 53.074219 C 290.898438 53.269531 291.070312 53.511719 291.203125 53.796875 C 291.34375 54.085938 291.441406 54.421875 291.496094 54.8125 C 291.574219 54.460938 291.632812 54.15625 291.671875 53.894531 C 291.71875 53.636719 291.753906 53.421875 291.769531 53.25 C 291.792969 53.070312 291.8125 52.933594 291.828125 52.839844 C 291.835938 52.75 291.855469 52.691406 291.886719 52.664062 C 291.894531 52.664062 291.914062 52.660156 291.945312 52.644531 C 291.96875 52.632812 292.003906 52.621094 292.042969 52.605469 C 292.082031 52.59375 292.125 52.585938 292.179688 52.585938 C 292.242188 52.574219 292.320312 52.566406 292.414062 52.566406 C 292.53125 52.566406 292.617188 52.574219 292.6875 52.585938 C 292.765625 52.601562 292.824219 52.621094 292.863281 52.644531 C 292.910156 52.660156 292.945312 52.679688 292.960938 52.703125 C 292.984375 52.730469 293 52.761719 293 52.800781 C 293 52.878906 292.984375 53.003906 292.960938 53.171875 C 292.929688 53.328125 292.902344 53.519531 292.863281 53.738281 C 292.824219 53.960938 292.769531 54.203125 292.707031 54.460938 C 292.636719 54.722656 292.570312 54.988281 292.492188 55.261719 C 292.421875 55.535156 292.34375 55.804688 292.257812 56.0625 C 292.179688 56.3125 292.101562 56.546875 292.023438 56.765625 C 292.023438 57.171875 292.042969 57.503906 292.082031 57.761719 C 292.128906 58.011719 292.1875 58.207031 292.257812 58.347656 C 292.335938 58.480469 292.417969 58.570312 292.511719 58.621094 C 292.613281 58.675781 292.710938 58.699219 292.804688 58.699219 C 292.890625 58.699219 292.96875 58.695312 293.039062 58.679688 C 293.117188 58.65625 293.179688 58.636719 293.234375 58.621094 C 293.296875 58.609375 293.351562 58.597656 293.390625 58.582031 C 293.429688 58.558594 293.46875 58.542969 293.507812 58.542969 C 293.53125 58.542969 293.550781 58.550781 293.566406 58.5625 C 293.574219 58.578125 293.589844 58.601562 293.605469 58.640625 C 293.613281 58.667969 293.625 58.714844 293.625 58.777344 C 293.625 58.84375 293.625 58.921875 293.625 59.011719 Z M 290.792969 56.0625 C 290.792969 55.59375 290.742188 55.199219 290.65625 54.871094 C 290.5625 54.546875 290.441406 54.28125 290.285156 54.070312 C 290.128906 53.863281 289.941406 53.714844 289.738281 53.621094 C 289.542969 53.53125 289.332031 53.484375 289.113281 53.484375 C 288.800781 53.484375 288.53125 53.558594 288.3125 53.699219 C 288.101562 53.84375 287.925781 54.039062 287.785156 54.285156 C 287.636719 54.519531 287.535156 54.792969 287.472656 55.105469 C 287.417969 55.40625 287.394531 55.71875 287.394531 56.042969 C 287.394531 56.394531 287.414062 56.734375 287.453125 57.058594 C 287.5 57.371094 287.59375 57.652344 287.726562 57.898438 C 287.851562 58.148438 288.019531 58.347656 288.214844 58.503906 C 288.417969 58.648438 288.6875 58.71875 289.015625 58.71875 C 289.296875 58.71875 289.550781 58.65625 289.777344 58.523438 C 289.996094 58.382812 290.175781 58.191406 290.324219 57.957031 C 290.480469 57.722656 290.597656 57.449219 290.675781 57.136719 C 290.753906 56.8125 290.792969 56.460938 290.792969 56.082031 L 290.792969 56.0625 Z M 290.792969 56.0625 "/>
<path style=" stroke:none;fill-rule:nonzero;fill:rgb(0%,0%,0%);fill-opacity:1;" d="M 298.730469 62.304688 C 298.730469 62.371094 298.722656 62.429688 298.710938 62.480469 C 298.710938 62.519531 298.703125 62.558594 298.691406 62.597656 C 298.679688 62.625 298.660156 62.644531 298.632812 62.65625 C 298.605469 62.667969 298.582031 62.675781 298.554688 62.675781 L 295.058594 62.675781 C 295.007812 62.675781 294.960938 62.667969 294.921875 62.65625 C 294.894531 62.644531 294.871094 62.625 294.84375 62.597656 C 294.816406 62.570312 294.796875 62.539062 294.785156 62.5 C 294.785156 62.449219 294.785156 62.382812 294.785156 62.304688 C 294.785156 62.238281 294.785156 62.1875 294.785156 62.148438 C 294.785156 62.097656 294.792969 62.050781 294.804688 62.011719 C 294.832031 61.972656 294.855469 61.933594 294.882812 61.894531 C 294.910156 61.855469 294.941406 61.816406 294.980469 61.777344 L 296.191406 60.46875 C 296.476562 60.167969 296.707031 59.902344 296.875 59.667969 C 297.042969 59.433594 297.175781 59.21875 297.265625 59.023438 C 297.371094 58.828125 297.433594 58.652344 297.460938 58.496094 C 297.488281 58.328125 297.5 58.175781 297.5 58.046875 C 297.5 57.902344 297.472656 57.773438 297.421875 57.65625 C 297.382812 57.527344 297.316406 57.414062 297.226562 57.324219 C 297.148438 57.21875 297.042969 57.140625 296.914062 57.089844 C 296.785156 57.039062 296.632812 57.011719 296.464844 57.011719 C 296.269531 57.011719 296.085938 57.039062 295.917969 57.089844 C 295.761719 57.140625 295.625 57.199219 295.507812 57.265625 C 295.390625 57.332031 295.292969 57.394531 295.214844 57.460938 C 295.136719 57.511719 295.078125 57.539062 295.039062 57.539062 C 295.011719 57.539062 294.988281 57.53125 294.960938 57.519531 C 294.949219 57.507812 294.933594 57.488281 294.921875 57.460938 C 294.921875 57.421875 294.914062 57.382812 294.902344 57.34375 C 294.902344 57.292969 294.902344 57.226562 294.902344 57.148438 C 294.902344 57.109375 294.902344 57.070312 294.902344 57.03125 C 294.902344 56.992188 294.902344 56.960938 294.902344 56.933594 C 294.914062 56.90625 294.929688 56.886719 294.941406 56.875 C 294.953125 56.847656 294.980469 56.816406 295.019531 56.777344 C 295.058594 56.738281 295.125 56.691406 295.214844 56.640625 C 295.320312 56.574219 295.441406 56.515625 295.585938 56.464844 C 295.730469 56.414062 295.886719 56.367188 296.054688 56.328125 C 296.238281 56.289062 296.425781 56.269531 296.621094 56.269531 C 296.921875 56.269531 297.1875 56.316406 297.421875 56.40625 C 297.65625 56.484375 297.84375 56.601562 297.988281 56.757812 C 298.144531 56.902344 298.253906 57.070312 298.320312 57.265625 C 298.398438 57.460938 298.4375 57.675781 298.4375 57.910156 C 298.4375 58.105469 298.417969 58.308594 298.378906 58.515625 C 298.351562 58.710938 298.28125 58.925781 298.164062 59.160156 C 298.046875 59.394531 297.878906 59.65625 297.65625 59.941406 C 297.449219 60.214844 297.160156 60.539062 296.796875 60.917969 L 295.800781 61.953125 L 298.535156 61.953125 C 298.5625 61.953125 298.585938 61.964844 298.613281 61.992188 C 298.640625 62.003906 298.660156 62.023438 298.671875 62.050781 C 298.699219 62.078125 298.710938 62.117188 298.710938 62.167969 C 298.722656 62.207031 298.730469 62.253906 298.730469 62.304688 Z M 298.730469 62.304688 "/>
<path style="fill-rule:nonzero;fill:rgb(0%,0%,0%);fill-opacity:1;stroke-width:1.6;stroke-linecap:butt;stroke-linejoin:round;stroke:rgb(0%,0%,0%);stroke-opacity:1;stroke-miterlimit:4;" d="M 10.48125 59.996875 C 10.48125 60.625 9.96875 61.1375 9.340625 61.1375 C 8.70625 61.1375 8.19375 60.625 8.19375 59.996875 C 8.19375 59.3625 8.70625 58.85 9.340625 58.85 C 9.96875 58.85 10.48125 59.3625 10.48125 59.996875 Z M 10.48125 59.996875 " transform="matrix(1.25,0,0,1.25,0,0)"/>
<path style=" stroke:none;fill-rule:nonzero;fill:rgb(0%,0%,0%);fill-opacity:1;" d="M 9.148438 85.917969 C 9.148438 86.75 9.050781 87.5 8.855469 88.164062 C 8.660156 88.828125 8.367188 89.394531 7.976562 89.863281 C 7.585938 90.332031 7.097656 90.695312 6.511719 90.957031 C 5.925781 91.199219 5.242188 91.328125 4.460938 91.328125 C 3.691406 91.328125 3.023438 91.210938 2.449219 90.976562 C 1.890625 90.742188 1.425781 90.410156 1.0625 89.980469 C 0.699219 89.539062 0.425781 88.992188 0.242188 88.339844 C 0.0585938 87.6875 -0.03125 86.941406 -0.03125 86.09375 C -0.03125 85.285156 0.0664062 84.550781 0.261719 83.886719 C 0.457031 83.222656 0.75 82.664062 1.140625 82.207031 C 1.53125 81.738281 2.019531 81.378906 2.605469 81.132812 C 3.203125 80.886719 3.894531 80.761719 4.675781 80.761719 C 5.429688 80.761719 6.089844 80.878906 6.648438 81.113281 C 7.207031 81.335938 7.671875 81.667969 8.035156 82.109375 C 8.414062 82.539062 8.691406 83.074219 8.875 83.710938 C 9.058594 84.347656 9.148438 85.085938 9.148438 85.917969 Z M 7.722656 86.015625 C 7.722656 85.429688 7.671875 84.890625 7.566406 84.394531 C 7.460938 83.886719 7.285156 83.449219 7.039062 83.085938 C 6.804688 82.722656 6.484375 82.433594 6.082031 82.226562 C 5.679688 82.019531 5.183594 81.914062 4.597656 81.914062 C 4 81.914062 3.496094 82.023438 3.09375 82.246094 C 2.691406 82.46875 2.363281 82.765625 2.117188 83.144531 C 1.871094 83.507812 1.6875 83.9375 1.570312 84.433594 C 1.464844 84.929688 1.414062 85.449219 1.414062 85.996094 C 1.414062 86.59375 1.464844 87.148438 1.570312 87.65625 C 1.675781 88.164062 1.84375 88.605469 2.078125 88.984375 C 2.3125 89.347656 2.632812 89.636719 3.035156 89.84375 C 3.4375 90.039062 3.941406 90.136719 4.539062 90.136719 C 5.136719 90.136719 5.640625 90.027344 6.042969 89.804688 C 6.445312 89.582031 6.773438 89.285156 7.019531 88.90625 C 7.265625 88.527344 7.441406 88.09375 7.546875 87.597656 C 7.664062 87.101562 7.722656 86.574219 7.722656 86.015625 Z M 7.722656 86.015625 "/>
<path style=" stroke:none;fill-rule:nonzero;fill:rgb(100%,100%,100%);fill-opacity:1;" d="M 134.640625 77.140625 L 145.984375 77.140625 L 145.984375 91.097656 L 134.640625 91.097656 L 134.640625 77.140625 Z M 134.640625 77.140625 "/>
<path style=" stroke:none;fill-rule:nonzero;fill:rgb(0%,0%,0%);fill-opacity:1;" d="M 143.804688 81.730469 C 143.804688 82.25 143.714844 82.71875 143.550781 83.136719 C 143.378906 83.539062 143.140625 83.890625 142.828125 84.191406 C 142.515625 84.476562 142.125 84.699219 141.65625 84.855469 C 141.195312 85.011719 140.648438 85.089844 140.015625 85.089844 L 138.863281 85.089844 L 138.863281 88.78125 C 138.863281 88.832031 138.847656 88.878906 138.824219 88.917969 C 138.792969 88.945312 138.753906 88.964844 138.707031 88.976562 C 138.652344 88.988281 138.578125 89 138.492188 89.015625 C 138.414062 89.023438 138.304688 89.035156 138.179688 89.035156 C 138.046875 89.035156 137.933594 89.023438 137.847656 89.015625 C 137.753906 89 137.679688 88.988281 137.632812 88.976562 C 137.578125 88.964844 137.539062 88.945312 137.515625 88.917969 C 137.5 88.878906 137.496094 88.832031 137.496094 88.78125 L 137.496094 79.308594 C 137.496094 79.101562 137.542969 78.949219 137.652344 78.859375 C 137.769531 78.769531 137.894531 78.722656 138.042969 78.722656 L 140.230469 78.722656 C 140.449219 78.722656 140.660156 78.734375 140.855469 78.761719 C 141.058594 78.773438 141.304688 78.8125 141.578125 78.878906 C 141.859375 78.929688 142.148438 79.042969 142.4375 79.210938 C 142.71875 79.378906 142.964844 79.589844 143.160156 79.835938 C 143.363281 80.070312 143.519531 80.351562 143.628906 80.675781 C 143.746094 81 143.804688 81.351562 143.804688 81.730469 Z M 142.359375 81.847656 C 142.359375 81.429688 142.28125 81.085938 142.125 80.8125 C 141.96875 80.527344 141.773438 80.316406 141.539062 80.1875 C 141.3125 80.042969 141.078125 79.953125 140.835938 79.914062 C 140.585938 79.875 140.347656 79.855469 140.113281 79.855469 L 138.863281 79.855469 L 138.863281 83.976562 L 140.09375 83.976562 C 140.492188 83.976562 140.835938 83.925781 141.109375 83.820312 C 141.382812 83.714844 141.605469 83.574219 141.792969 83.390625 C 141.988281 83.195312 142.128906 82.96875 142.222656 82.707031 C 142.308594 82.445312 142.359375 82.160156 142.359375 81.847656 Z M 142.359375 81.847656 "/>
<path style="fill:none;stroke-width:0.8;stroke-linecap:butt;stroke-linejoin:miter;stroke:rgb(0%,0%,0%);stroke-opacity:1;stroke-dasharray:3.2,3.2;stroke-miterlimit:4;" d="M 8.859375 59.69375 L 8.859375 3.5 " transform="matrix(1.25,0,0,1.25,0,0)"/>
<path style="fill:none;stroke-width:0.8;stroke-linecap:butt;stroke-linejoin:miter;stroke:rgb(0%,0%,0%);stroke-opacity:1;stroke-dasharray:3.2,3.2;stroke-miterlimit:4;" d="M 119.15 59.69375 L 119.15 3.5 " transform="matrix(1.25,0,0,1.25,0,0)"/>
<path style="fill:none;stroke-width:0.8;stroke-linecap:butt;stroke-linejoin:miter;stroke:rgb(0%,0%,0%);stroke-opacity:1;stroke-miterlimit:4;" d="M 12 8.734375 L 116.35625 8.734375 " transform="matrix(1.25,0,0,1.25,0,0)"/>
<path style="fill-rule:evenodd;fill:rgb(0%,0%,0%);fill-opacity:1;stroke-width:0.4;stroke-linecap:butt;stroke-linejoin:miter;stroke:rgb(0%,0%,0%);stroke-opacity:1;stroke-miterlimit:4;" d="M -10.153125 -8.734375 L -12.921875 -7.1375 L -12.921875 -10.3375 L -10.153125 -8.734375 Z M -10.153125 -8.734375 " transform="matrix(-1.25,0,0,-1.25,0,0)"/>
<path style="fill-rule:evenodd;fill:rgb(0%,0%,0%);fill-opacity:1;stroke-width:0.4;stroke-linecap:butt;stroke-linejoin:miter;stroke:rgb(0%,0%,0%);stroke-opacity:1;stroke-miterlimit:4;" d="M 118.203125 8.734375 L 115.434375 10.3375 L 115.434375 7.1375 L 118.203125 8.734375 Z M 118.203125 8.734375 " transform="matrix(1.25,0,0,1.25,0,0)"/>
<path style=" stroke:none;fill-rule:nonzero;fill:rgb(0%,0%,0%);fill-opacity:1;" d="M 83.585938 6.882812 C 83.585938 6.976562 83.574219 7.058594 83.566406 7.136719 C 83.550781 7.203125 83.53125 7.265625 83.507812 7.3125 C 83.492188 7.351562 83.46875 7.386719 83.429688 7.410156 C 83.390625 7.425781 83.351562 7.429688 83.3125 7.429688 L 78.917969 7.429688 C 78.800781 7.429688 78.703125 7.402344 78.625 7.332031 C 78.554688 7.253906 78.527344 7.125 78.527344 6.941406 L 78.527344 6.667969 C 78.527344 6.605469 78.53125 6.546875 78.546875 6.492188 C 78.554688 6.429688 78.570312 6.371094 78.585938 6.316406 C 78.609375 6.253906 78.644531 6.1875 78.683594 6.121094 C 78.722656 6.058594 78.765625 5.980469 78.820312 5.886719 L 81.964844 0.984375 L 78.917969 0.984375 C 78.824219 0.984375 78.75 0.945312 78.703125 0.867188 C 78.648438 0.78125 78.625 0.632812 78.625 0.4375 C 78.625 0.335938 78.628906 0.25 78.644531 0.183594 C 78.652344 0.105469 78.671875 0.046875 78.703125 0.0078125 C 78.726562 -0.0390625 78.75 -0.0742188 78.78125 -0.0898438 C 78.820312 -0.101562 78.863281 -0.109375 78.917969 -0.109375 L 83 -0.109375 C 83.0625 -0.109375 83.117188 -0.101562 83.15625 -0.0898438 C 83.203125 -0.0742188 83.242188 -0.0507812 83.273438 -0.0117188 C 83.3125 0.0273438 83.335938 0.0820312 83.351562 0.144531 C 83.359375 0.199219 83.371094 0.273438 83.371094 0.359375 L 83.371094 0.613281 C 83.371094 0.679688 83.359375 0.746094 83.351562 0.808594 C 83.351562 0.875 83.335938 0.941406 83.3125 1.003906 C 83.296875 1.058594 83.273438 1.121094 83.234375 1.199219 C 83.195312 1.265625 83.144531 1.335938 83.097656 1.414062 L 79.953125 6.335938 L 83.3125 6.335938 C 83.351562 6.335938 83.378906 6.34375 83.410156 6.355469 C 83.449219 6.371094 83.476562 6.40625 83.507812 6.453125 C 83.53125 6.492188 83.550781 6.550781 83.566406 6.628906 C 83.574219 6.695312 83.585938 6.78125 83.585938 6.882812 Z M 83.585938 6.882812 "/>
<path style=" stroke:none;fill-rule:nonzero;fill:rgb(0%,0%,0%);fill-opacity:1;" d="M 159.316406 146.40625 C 159.316406 146.445312 159.304688 146.484375 159.296875 146.523438 C 159.28125 146.554688 159.246094 146.578125 159.199219 146.601562 C 159.160156 146.613281 159.101562 146.621094 159.023438 146.621094 C 158.945312 146.632812 158.851562 146.640625 158.75 146.640625 C 158.640625 146.640625 158.554688 146.632812 158.476562 146.621094 C 158.398438 146.621094 158.328125 146.613281 158.28125 146.601562 C 158.242188 146.578125 158.207031 146.554688 158.183594 146.523438 C 158.167969 146.484375 158.164062 146.445312 158.164062 146.40625 L 158.164062 145.449219 C 157.78125 145.871094 157.390625 146.191406 156.992188 146.425781 C 156.585938 146.648438 156.140625 146.757812 155.664062 146.757812 C 155.125 146.757812 154.675781 146.652344 154.316406 146.445312 C 153.949219 146.242188 153.652344 145.96875 153.417969 145.625 C 153.183594 145.273438 153.011719 144.863281 152.910156 144.394531 C 152.800781 143.925781 152.753906 143.433594 152.753906 142.910156 C 152.753906 142.300781 152.816406 141.75 152.949219 141.25 C 153.074219 140.757812 153.269531 140.34375 153.535156 140 C 153.792969 139.648438 154.109375 139.386719 154.492188 139.199219 C 154.882812 139.003906 155.332031 138.90625 155.839844 138.90625 C 156.253906 138.90625 156.628906 139 156.972656 139.179688 C 157.324219 139.367188 157.664062 139.628906 158.007812 139.980469 L 158.007812 135.839844 C 158.007812 135.800781 158.011719 135.773438 158.027344 135.742188 C 158.050781 135.703125 158.089844 135.679688 158.144531 135.664062 C 158.191406 135.640625 158.261719 135.621094 158.339844 135.605469 C 158.425781 135.597656 158.535156 135.585938 158.652344 135.585938 C 158.777344 135.585938 158.886719 135.597656 158.964844 135.605469 C 159.050781 135.621094 159.125 135.640625 159.179688 135.664062 C 159.226562 135.679688 159.261719 135.703125 159.277344 135.742188 C 159.300781 135.773438 159.316406 135.800781 159.316406 135.839844 L 159.316406 146.40625 Z M 158.007812 141.386719 C 157.65625 140.949219 157.308594 140.617188 156.972656 140.390625 C 156.644531 140.15625 156.296875 140.039062 155.9375 140.039062 C 155.609375 140.039062 155.332031 140.117188 155.097656 140.273438 C 154.863281 140.429688 154.671875 140.640625 154.53125 140.898438 C 154.382812 141.164062 154.277344 141.457031 154.199219 141.777344 C 154.128906 142.105469 154.101562 142.4375 154.101562 142.773438 C 154.101562 143.140625 154.125 143.496094 154.179688 143.847656 C 154.242188 144.191406 154.339844 144.492188 154.472656 144.765625 C 154.613281 145.03125 154.792969 145.234375 155.019531 145.390625 C 155.253906 145.546875 155.535156 145.625 155.878906 145.625 C 156.058594 145.625 156.230469 145.605469 156.386719 145.566406 C 156.550781 145.519531 156.722656 145.441406 156.894531 145.332031 C 157.058594 145.214844 157.234375 145.074219 157.421875 144.902344 C 157.601562 144.722656 157.796875 144.503906 158.007812 144.238281 L 158.007812 141.386719 Z M 158.007812 141.386719 "/>
<path style=" stroke:none;fill-rule:nonzero;fill:rgb(0%,0%,0%);fill-opacity:1;" d="M 166.152344 146.054688 C 166.152344 146.148438 166.144531 146.230469 166.132812 146.308594 C 166.117188 146.378906 166.097656 146.4375 166.074219 146.484375 C 166.058594 146.523438 166.035156 146.558594 165.996094 146.582031 C 165.957031 146.597656 165.917969 146.601562 165.878906 146.601562 L 161.484375 146.601562 C 161.367188 146.601562 161.269531 146.574219 161.191406 146.503906 C 161.125 146.425781 161.09375 146.300781 161.09375 146.113281 L 161.09375 145.839844 C 161.09375 145.777344 161.097656 145.71875 161.113281 145.664062 C 161.125 145.601562 161.136719 145.542969 161.152344 145.488281 C 161.175781 145.425781 161.210938 145.363281 161.25 145.292969 C 161.289062 145.230469 161.332031 145.152344 161.386719 145.058594 L 164.53125 140.15625 L 161.484375 140.15625 C 161.390625 140.15625 161.320312 140.117188 161.269531 140.039062 C 161.214844 139.953125 161.191406 139.804688 161.191406 139.609375 C 161.191406 139.507812 161.195312 139.425781 161.210938 139.355469 C 161.222656 139.277344 161.242188 139.21875 161.269531 139.179688 C 161.292969 139.132812 161.320312 139.097656 161.347656 139.082031 C 161.386719 139.074219 161.429688 139.0625 161.484375 139.0625 L 165.566406 139.0625 C 165.628906 139.0625 165.683594 139.074219 165.722656 139.082031 C 165.773438 139.097656 165.8125 139.121094 165.839844 139.160156 C 165.878906 139.199219 165.902344 139.253906 165.917969 139.316406 C 165.929688 139.371094 165.9375 139.445312 165.9375 139.53125 L 165.9375 139.785156 C 165.9375 139.855469 165.929688 139.917969 165.917969 139.980469 C 165.917969 140.050781 165.902344 140.113281 165.878906 140.175781 C 165.863281 140.230469 165.839844 140.292969 165.800781 140.371094 C 165.761719 140.441406 165.714844 140.507812 165.664062 140.585938 L 162.519531 145.507812 L 165.878906 145.507812 C 165.917969 145.507812 165.949219 145.519531 165.976562 145.527344 C 166.015625 145.542969 166.046875 145.578125 166.074219 145.625 C 166.097656 145.664062 166.117188 145.722656 166.132812 145.800781 C 166.144531 145.871094 166.152344 145.953125 166.152344 146.054688 Z M 166.152344 146.054688 "/>
<path style="fill:none;stroke-width:0.8;stroke-linecap:butt;stroke-linejoin:miter;stroke:rgb(0%,0%,0%);stroke-opacity:1;stroke-miterlimit:4;" d="M 118.453125 104.71875 L 136.6 104.71875 " transform="matrix(1.25,0,0,1.25,0,0)"/>
<path style="fill-rule:evenodd;fill:rgb(0%,0%,0%);fill-opacity:1;stroke-width:0.4;stroke-linecap:butt;stroke-linejoin:miter;stroke:rgb(0%,0%,0%);stroke-opacity:1;stroke-miterlimit:4;" d="M -116.60625 -104.71875 L -119.371875 -103.11875 L -119.371875 -106.315625 L -116.60625 -104.71875 Z M -116.60625 -104.71875 " transform="matrix(-1.25,0,0,-1.25,0,0)"/>
<path style="fill-rule:evenodd;fill:rgb(0%,0%,0%);fill-opacity:1;stroke-width:0.4;stroke-linecap:butt;stroke-linejoin:miter;stroke:rgb(0%,0%,0%);stroke-opacity:1;stroke-miterlimit:4;" d="M 138.44375 104.71875 L 135.68125 106.315625 L 135.68125 103.11875 L 138.44375 104.71875 Z M 138.44375 104.71875 " transform="matrix(1.25,0,0,1.25,0,0)"/>
<path style="fill-rule:nonzero;fill:rgb(80%,80%,80%);fill-opacity:1;stroke-width:0.8;stroke-linecap:butt;stroke-linejoin:miter;stroke:rgb(0%,0%,0%);stroke-opacity:1;stroke-miterlimit:4;" d="M 116.83125 24.1625 L 264.778125 59.971875 " transform="matrix(1.25,0,0,1.25,0,0)"/>
<path style="fill-rule:nonzero;fill:rgb(80%,80%,80%);fill-opacity:1;stroke-width:0.8;stroke-linecap:butt;stroke-linejoin:miter;stroke:rgb(0%,0%,0%);stroke-opacity:1;stroke-miterlimit:4;" d="M 137.775 23.465625 L 264.778125 59.971875 " transform="matrix(1.25,0,0,1.25,0,0)"/>
<path style="fill-rule:nonzero;fill:rgb(80%,80%,80%);fill-opacity:1;stroke-width:0.1744;stroke-linecap:butt;stroke-linejoin:miter;stroke:rgb(80%,80%,80%);stroke-opacity:1;stroke-miterlimit:4;" d="M 120.046875 24.4625 C 119.34375 24.29375 118.71875 24.109375 118.66875 24.05625 C 118.6125 24 119.41875 23.95625 120.45625 23.95625 C 121.496875 23.95625 122.315625 23.975 122.278125 24 C 122.234375 24.025 122.00625 24.20625 121.765625 24.40625 C 121.3375 24.765625 121.315625 24.765625 120.046875 24.4625 Z M 120.046875 24.4625 " transform="matrix(1.25,0,0,1.25,0,0)"/>
<path style="fill-rule:nonzero;fill:rgb(80%,80%,80%);fill-opacity:1;stroke-width:0.00951091;stroke-linecap:butt;stroke-linejoin:miter;stroke:rgb(0%,0%,0%);stroke-opacity:1;stroke-miterlimit:4;" d="M 123.403125 25.328125 L 121.859375 24.953125 L 122.0625 24.76875 C 122.3125 24.54375 122.7625 24.24375 123.11875 24.059375 L 123.3875 23.925 L 126.59375 23.925 L 126.26875 24.24375 C 125.903125 24.596875 125.51875 25.0375 125.23125 25.440625 C 125.121875 25.590625 125.0125 25.7125 124.9875 25.70625 C 124.965625 25.70625 124.25 25.534375 123.403125 25.328125 Z M 123.403125 25.328125 " transform="matrix(1.25,0,0,1.25,0,0)"/>
<path style="fill-rule:nonzero;fill:rgb(80%,80%,80%);fill-opacity:1;stroke-width:0.00951091;stroke-linecap:butt;stroke-linejoin:miter;stroke:rgb(0%,0%,0%);stroke-opacity:1;stroke-miterlimit:4;" d="M 128.078125 26.4625 C 127.234375 26.253125 126.534375 26.075 126.51875 26.059375 C 126.471875 26.0125 127.296875 25.1375 127.671875 24.83125 C 128.090625 24.49375 128.48125 24.253125 128.921875 24.06875 L 129.221875 23.94375 L 130.765625 23.934375 L 132.3125 23.921875 L 131.94375 24.190625 C 131.2625 24.69375 130.184375 25.9 129.746875 26.65 C 129.68125 26.75625 129.625 26.846875 129.621875 26.84375 C 129.61875 26.840625 128.921875 26.66875 128.078125 26.4625 Z M 128.078125 26.4625 " transform="matrix(1.25,0,0,1.25,0,0)"/>
<path style="fill-rule:nonzero;fill:rgb(80%,80%,80%);fill-opacity:1;stroke-width:0.00951091;stroke-linecap:butt;stroke-linejoin:miter;stroke:rgb(0%,0%,0%);stroke-opacity:1;stroke-miterlimit:4;" d="M 131.95 27.39375 C 131.046875 27.175 130.25625 26.98125 130.190625 26.965625 L 130.06875 26.934375 L 130.2125 26.725 C 131.08125 25.44375 132.0125 24.55 132.98125 24.059375 L 133.246875 23.925 L 136.84375 23.925 L 136.475 24.190625 C 136.278125 24.340625 135.909375 24.671875 135.65625 24.925 C 134.971875 25.61875 134.546875 26.2 133.715625 27.575 L 133.5875 27.79375 L 131.95 27.39375 Z M 131.95 27.39375 " transform="matrix(1.25,0,0,1.25,0,0)"/>
<path style="fill-rule:nonzero;fill:rgb(80%,80%,80%);fill-opacity:1;stroke-width:0.00951091;stroke-linecap:butt;stroke-linejoin:miter;stroke:rgb(0%,0%,0%);stroke-opacity:1;stroke-miterlimit:4;" d="M 148.16875 31.325 C 140.421875 29.44375 134.078125 27.903125 134.065625 27.890625 C 134.03125 27.85625 134.70625 26.775 135.090625 26.25 C 135.49375 25.703125 136.21875 24.9375 136.65 24.609375 C 136.940625 24.3875 137.46875 24.0625 137.69375 23.971875 C 137.825 23.91875 138.528125 24.11875 150.09375 27.440625 L 162.35625 30.965625 L 162.35625 32.85625 C 162.35625 34.340625 162.34375 34.74375 162.3 34.74375 C 162.275 34.7375 155.909375 33.2 148.16875 31.325 Z M 148.16875 31.325 " transform="matrix(1.25,0,0,1.25,0,0)"/>
<path style="fill-rule:nonzero;fill:rgb(80%,80%,80%);fill-opacity:1;stroke-width:0.0380437;stroke-linecap:butt;stroke-linejoin:miter;stroke:rgb(80%,80%,80%);stroke-opacity:1;stroke-miterlimit:4;" d="M 181.703125 39.39375 L 162.1125 34.734375 L 162.153125 32.753125 L 162.059375 30.859375 L 171.925 33.7125 C 177.0375 35.1875 185.58125 37.7 191.171875 39.30625 C 200.60625 42.0125 201.5125 41.903125 201.5125 42.253125 C 201.5125 42.81875 201.35 44.11875 201.225 44.10625 C 201.16875 44.1 192.2625 41.95625 181.703125 39.39375 Z M 181.703125 39.39375 " transform="matrix(1.25,0,0,1.25,0,0)"/>
<path style="fill-rule:nonzero;fill:rgb(80%,80%,80%);fill-opacity:1;stroke-width:0.0380437;stroke-linecap:butt;stroke-linejoin:miter;stroke:rgb(80%,80%,80%);stroke-opacity:1;stroke-miterlimit:4;" d="M 212.54375 46.86875 C 207.140625 45.55 202.6 44.56875 202.565625 44.53125 C 202.49375 44.45625 202.7375 42.6125 202.84375 42.50625 C 202.9 42.453125 209.403125 44.41875 222.453125 48.184375 C 223.2375 48.409375 223.10625 48.465625 223.10625 48.8375 C 223.10625 49.1375 223.278125 49.565625 223.0625 49.55 C 222.89375 49.5375 217.94375 48.1875 212.54375 46.86875 Z M 212.54375 46.86875 " transform="matrix(1.25,0,0,1.25,0,0)"/>
<path style="fill-rule:nonzero;fill:rgb(80%,80%,80%);fill-opacity:1;stroke-width:0.00951091;stroke-linecap:butt;stroke-linejoin:miter;stroke:rgb(80%,80%,80%);stroke-opacity:1;stroke-miterlimit:4;" d="M 233.7125 52.028125 C 229.175 50.925 225.246875 49.975 224.98125 49.909375 L 224.496875 49.796875 L 224.45625 49.309375 C 224.434375 49.04375 224.4125 48.81875 224.41875 48.815625 C 224.41875 48.8125 228.39375 49.95 233.253125 51.346875 C 240.35 53.3875 242.15625 53.8125 242.16875 53.875 C 242.175 53.925 242.090625 54.034375 242.034375 54.03125 C 241.99375 54.03125 238.246875 53.128125 233.7125 52.028125 Z M 233.7125 52.028125 " transform="matrix(1.25,0,0,1.25,0,0)"/>
<path style="fill-rule:nonzero;fill:rgb(80%,80%,80%);fill-opacity:1;stroke-width:0.00475546;stroke-linecap:butt;stroke-linejoin:miter;stroke:rgb(80%,80%,80%);stroke-opacity:1;stroke-miterlimit:4;" d="M 244.24375 54.5875 L 242.975 54.278125 L 242.96875 54.20625 C 242.965625 54.16875 242.96875 54.1375 242.975 54.1375 C 242.996875 54.1375 245.484375 54.85 245.5625 54.878125 L 245.61875 54.89375 L 245.5625 54.89375 C 245.53125 54.89375 244.9375 54.753125 244.24375 54.5875 Z M 244.24375 54.5875 " transform="matrix(1.25,0,0,1.25,0,0)"/>
<path style="fill:none;stroke-width:0.4;stroke-linecap:butt;stroke-linejoin:miter;stroke:rgb(0%,0%,0%);stroke-opacity:1;stroke-miterlimit:4;" d="M 157.9625 17.378125 C 157.9625 17.378125 144.4 17.559375 147.225 28.1125 " transform="matrix(1.25,0,0,1.25,0,0)"/>
<path style="fill-rule:evenodd;fill:rgb(0%,0%,0%);fill-opacity:1;stroke-width:0.193185;stroke-linecap:butt;stroke-linejoin:miter;stroke:rgb(0%,0%,0%);stroke-opacity:1;stroke-miterlimit:4;" d="M 63.929586 -130.335756 L 62.594218 -129.562317 L 62.592372 -131.106562 L 63.929586 -130.335756 Z M 63.929586 -130.335756 " transform="matrix(0.334936,1.25,-1.25,0.334936,0,0)"/>
<path style="fill-rule:nonzero;fill:rgb(80%,80%,80%);fill-opacity:1;stroke-width:0.430519;stroke-linecap:butt;stroke-linejoin:miter;stroke:rgb(80%,80%,80%);stroke-opacity:1;stroke-miterlimit:4;" d="M 157.2375 10.73125 L 168.559375 10.73125 L 168.559375 20.078125 L 157.2375 20.078125 L 157.2375 10.73125 Z M 157.2375 10.73125 " transform="matrix(1.25,0,0,1.25,0,0)"/>
<path style=" stroke:none;fill-rule:nonzero;fill:rgb(0%,0%,0%);fill-opacity:1;" d="M 202.683594 22.4375 C 202.683594 22.464844 202.671875 22.492188 202.664062 22.515625 C 202.648438 22.542969 202.625 22.5625 202.585938 22.574219 C 202.554688 22.582031 202.515625 22.59375 202.46875 22.59375 C 202.414062 22.601562 202.355469 22.613281 202.292969 22.613281 C 202.214844 22.613281 202.144531 22.601562 202.097656 22.59375 C 202.042969 22.59375 202 22.582031 201.960938 22.574219 C 201.929688 22.5625 201.910156 22.542969 201.902344 22.515625 C 201.886719 22.492188 201.882812 22.464844 201.882812 22.4375 L 201.882812 21.773438 C 201.617188 22.0625 201.34375 22.28125 201.0625 22.4375 C 200.789062 22.59375 200.480469 22.671875 200.144531 22.671875 C 199.777344 22.671875 199.464844 22.601562 199.207031 22.476562 C 198.957031 22.335938 198.746094 22.144531 198.582031 21.910156 C 198.425781 21.664062 198.308594 21.378906 198.230469 21.050781 C 198.160156 20.726562 198.132812 20.382812 198.132812 20.015625 C 198.132812 19.601562 198.175781 19.222656 198.269531 18.882812 C 198.355469 18.53125 198.492188 18.238281 198.679688 18.003906 C 198.859375 17.757812 199.078125 17.570312 199.34375 17.4375 C 199.601562 17.308594 199.910156 17.242188 200.261719 17.242188 C 200.542969 17.242188 200.808594 17.308594 201.042969 17.4375 C 201.285156 17.570312 201.53125 17.75 201.765625 17.984375 L 201.765625 15.113281 C 201.765625 15.089844 201.769531 15.070312 201.785156 15.054688 C 201.792969 15.03125 201.824219 15.011719 201.863281 14.996094 C 201.902344 14.984375 201.945312 14.972656 202 14.957031 C 202.0625 14.945312 202.136719 14.9375 202.214844 14.9375 C 202.300781 14.9375 202.375 14.945312 202.429688 14.957031 C 202.492188 14.972656 202.535156 14.984375 202.566406 14.996094 C 202.605469 15.011719 202.628906 15.03125 202.644531 15.054688 C 202.667969 15.070312 202.683594 15.089844 202.683594 15.113281 L 202.683594 22.4375 Z M 201.765625 18.960938 C 201.515625 18.664062 201.277344 18.433594 201.042969 18.277344 C 200.816406 18.109375 200.582031 18.023438 200.339844 18.023438 C 200.105469 18.023438 199.910156 18.082031 199.753906 18.199219 C 199.597656 18.304688 199.464844 18.449219 199.363281 18.628906 C 199.253906 18.8125 199.175781 19.015625 199.128906 19.234375 C 199.089844 19.457031 199.070312 19.683594 199.070312 19.917969 C 199.070312 20.179688 199.089844 20.425781 199.128906 20.660156 C 199.167969 20.894531 199.230469 21.109375 199.324219 21.304688 C 199.425781 21.488281 199.558594 21.636719 199.714844 21.753906 C 199.871094 21.859375 200.066406 21.910156 200.300781 21.910156 C 200.417969 21.910156 200.535156 21.898438 200.652344 21.871094 C 200.769531 21.832031 200.886719 21.773438 201.003906 21.695312 C 201.121094 21.617188 201.238281 21.519531 201.355469 21.402344 C 201.480469 21.273438 201.617188 21.117188 201.765625 20.933594 L 201.765625 18.960938 Z M 201.765625 18.960938 "/>
<path style=" stroke:none;fill-rule:nonzero;fill:rgb(0%,0%,0%);fill-opacity:1;" d="M 209.863281 22.144531 C 209.863281 22.261719 209.851562 22.347656 209.84375 22.398438 C 209.828125 22.453125 209.808594 22.492188 209.785156 22.515625 C 209.769531 22.542969 209.734375 22.5625 209.6875 22.574219 C 209.648438 22.597656 209.59375 22.617188 209.53125 22.632812 C 209.460938 22.640625 209.398438 22.652344 209.335938 22.652344 C 209.265625 22.660156 209.199219 22.671875 209.121094 22.671875 C 208.988281 22.671875 208.855469 22.652344 208.730469 22.613281 C 208.597656 22.582031 208.480469 22.535156 208.378906 22.457031 C 208.269531 22.367188 208.1875 22.257812 208.125 22.125 C 208.054688 21.984375 208.011719 21.808594 207.988281 21.597656 C 207.917969 21.753906 207.832031 21.898438 207.714844 22.027344 C 207.605469 22.160156 207.484375 22.277344 207.34375 22.378906 C 207.195312 22.472656 207.035156 22.542969 206.855469 22.59375 C 206.683594 22.640625 206.492188 22.671875 206.289062 22.671875 C 205.921875 22.671875 205.609375 22.601562 205.351562 22.476562 C 205.085938 22.347656 204.871094 22.164062 204.707031 21.929688 C 204.550781 21.683594 204.433594 21.398438 204.355469 21.070312 C 204.277344 20.746094 204.238281 20.394531 204.238281 20.015625 C 204.238281 19.601562 204.28125 19.222656 204.375 18.882812 C 204.476562 18.53125 204.617188 18.238281 204.804688 18.003906 C 205 17.757812 205.234375 17.570312 205.507812 17.4375 C 205.78125 17.308594 206.097656 17.242188 206.464844 17.242188 C 206.699219 17.242188 206.914062 17.28125 207.109375 17.359375 C 207.3125 17.4375 207.5 17.550781 207.65625 17.691406 C 207.820312 17.835938 207.953125 18.019531 208.046875 18.238281 C 208.148438 18.460938 208.222656 18.714844 208.261719 19 C 208.324219 18.742188 208.367188 18.511719 208.398438 18.316406 C 208.4375 18.121094 208.460938 17.960938 208.476562 17.828125 C 208.5 17.699219 208.515625 17.601562 208.515625 17.535156 C 208.523438 17.457031 208.539062 17.414062 208.554688 17.398438 C 208.5625 17.386719 208.578125 17.378906 208.59375 17.378906 C 208.617188 17.367188 208.640625 17.359375 208.671875 17.359375 C 208.710938 17.347656 208.75 17.339844 208.789062 17.339844 C 208.835938 17.328125 208.890625 17.320312 208.945312 17.320312 C 209.03125 17.320312 209.105469 17.328125 209.160156 17.339844 C 209.222656 17.339844 209.265625 17.347656 209.296875 17.359375 C 209.335938 17.375 209.359375 17.394531 209.375 17.417969 C 209.382812 17.445312 209.394531 17.472656 209.394531 17.496094 C 209.394531 17.550781 209.378906 17.640625 209.355469 17.769531 C 209.339844 17.886719 209.316406 18.03125 209.277344 18.199219 C 209.246094 18.355469 209.207031 18.539062 209.160156 18.746094 C 209.121094 18.941406 209.070312 19.144531 209.023438 19.351562 C 208.96875 19.546875 208.910156 19.742188 208.847656 19.9375 C 208.777344 20.121094 208.714844 20.296875 208.652344 20.464844 C 208.652344 20.777344 208.660156 21.03125 208.691406 21.226562 C 208.730469 21.410156 208.773438 21.554688 208.828125 21.65625 C 208.890625 21.761719 208.953125 21.832031 209.023438 21.871094 C 209.101562 21.898438 209.179688 21.910156 209.257812 21.910156 C 209.320312 21.910156 209.378906 21.90625 209.433594 21.890625 C 209.480469 21.878906 209.53125 21.867188 209.570312 21.851562 C 209.617188 21.839844 209.65625 21.828125 209.6875 21.8125 C 209.726562 21.800781 209.75 21.792969 209.765625 21.792969 C 209.789062 21.792969 209.804688 21.800781 209.804688 21.8125 C 209.8125 21.828125 209.828125 21.847656 209.84375 21.871094 C 209.851562 21.898438 209.863281 21.9375 209.863281 21.988281 C 209.863281 22.027344 209.863281 22.082031 209.863281 22.144531 Z M 207.734375 19.9375 C 207.734375 19.585938 207.695312 19.292969 207.617188 19.058594 C 207.546875 18.8125 207.460938 18.609375 207.34375 18.453125 C 207.226562 18.296875 207.089844 18.1875 206.933594 18.121094 C 206.785156 18.042969 206.628906 18.003906 206.464844 18.003906 C 206.238281 18.003906 206.042969 18.0625 205.878906 18.179688 C 205.722656 18.285156 205.589844 18.429688 205.488281 18.609375 C 205.378906 18.78125 205.300781 18.980469 205.253906 19.214844 C 205.199219 19.449219 205.175781 19.683594 205.175781 19.917969 C 205.175781 20.179688 205.195312 20.433594 205.234375 20.679688 C 205.273438 20.914062 205.335938 21.128906 205.429688 21.324219 C 205.53125 21.507812 205.664062 21.65625 205.820312 21.773438 C 205.976562 21.878906 206.171875 21.929688 206.40625 21.929688 C 206.625 21.929688 206.816406 21.886719 206.972656 21.792969 C 207.136719 21.691406 207.273438 21.546875 207.382812 21.363281 C 207.5 21.183594 207.582031 20.972656 207.636719 20.738281 C 207.699219 20.492188 207.734375 20.230469 207.734375 19.957031 L 207.734375 19.9375 Z M 207.734375 19.9375 "/>
<path style="fill:none;stroke-width:0.8;stroke-linecap:butt;stroke-linejoin:miter;stroke:rgb(0%,0%,0%);stroke-opacity:1;stroke-miterlimit:4;" d="M 212.75625 60.340625 C 212.75625 60.48125 209.3375 52.93125 213.828125 47.309375 " transform="matrix(1.25,0,0,1.25,0,0)"/>
<path style=" stroke:none;fill-rule:nonzero;fill:rgb(0%,0%,0%);fill-opacity:1;" d="M 261.15625 71.632812 C 261.15625 71.789062 261.144531 71.90625 261.136719 71.984375 C 261.121094 72.054688 261.097656 72.097656 261.058594 72.121094 C 261.027344 72.152344 260.984375 72.175781 260.921875 72.199219 C 260.867188 72.222656 260.792969 72.242188 260.707031 72.257812 C 260.613281 72.28125 260.519531 72.300781 260.433594 72.316406 C 260.355469 72.328125 260.261719 72.335938 260.160156 72.335938 C 259.988281 72.335938 259.8125 72.308594 259.632812 72.257812 C 259.460938 72.21875 259.308594 72.152344 259.183594 72.042969 C 259.050781 71.925781 258.933594 71.78125 258.832031 71.59375 C 258.738281 71.414062 258.679688 71.179688 258.65625 70.890625 C 258.5625 71.101562 258.445312 71.296875 258.304688 71.476562 C 258.15625 71.648438 257.992188 71.800781 257.796875 71.925781 C 257.601562 72.058594 257.386719 72.15625 257.152344 72.21875 C 256.917969 72.296875 256.664062 72.335938 256.390625 72.335938 C 255.90625 72.335938 255.492188 72.242188 255.140625 72.0625 C 254.796875 71.882812 254.519531 71.632812 254.300781 71.320312 C 254.074219 71.007812 253.914062 70.636719 253.8125 70.207031 C 253.703125 69.769531 253.65625 69.300781 253.65625 68.800781 C 253.65625 68.230469 253.71875 67.71875 253.851562 67.257812 C 253.976562 66.804688 254.167969 66.417969 254.417969 66.105469 C 254.675781 65.785156 254.988281 65.535156 255.355469 65.363281 C 255.714844 65.183594 256.140625 65.089844 256.625 65.089844 C 256.9375 65.089844 257.230469 65.144531 257.503906 65.246094 C 257.777344 65.355469 258.015625 65.5 258.226562 65.695312 C 258.429688 65.890625 258.601562 66.136719 258.734375 66.417969 C 258.875 66.707031 258.972656 67.042969 259.027344 67.433594 C 259.105469 67.082031 259.164062 66.78125 259.203125 66.515625 C 259.25 66.257812 259.285156 66.042969 259.300781 65.871094 C 259.324219 65.691406 259.34375 65.554688 259.359375 65.460938 C 259.367188 65.375 259.386719 65.316406 259.417969 65.285156 C 259.425781 65.285156 259.445312 65.28125 259.476562 65.265625 C 259.5 65.257812 259.535156 65.242188 259.574219 65.226562 C 259.613281 65.21875 259.65625 65.207031 259.710938 65.207031 C 259.773438 65.199219 259.851562 65.1875 259.945312 65.1875 C 260.0625 65.1875 260.148438 65.199219 260.21875 65.207031 C 260.296875 65.222656 260.355469 65.242188 260.394531 65.265625 C 260.441406 65.28125 260.476562 65.300781 260.492188 65.324219 C 260.515625 65.355469 260.53125 65.382812 260.53125 65.421875 C 260.53125 65.5 260.515625 65.628906 260.492188 65.792969 C 260.460938 65.949219 260.433594 66.140625 260.394531 66.359375 C 260.355469 66.585938 260.300781 66.824219 260.238281 67.082031 C 260.167969 67.347656 260.101562 67.609375 260.023438 67.882812 C 259.953125 68.15625 259.875 68.425781 259.789062 68.683594 C 259.710938 68.933594 259.632812 69.167969 259.554688 69.386719 C 259.554688 69.792969 259.574219 70.125 259.613281 70.382812 C 259.660156 70.632812 259.71875 70.828125 259.789062 70.96875 C 259.867188 71.101562 259.949219 71.195312 260.042969 71.242188 C 260.144531 71.296875 260.242188 71.320312 260.335938 71.320312 C 260.421875 71.320312 260.5 71.316406 260.570312 71.300781 C 260.648438 71.277344 260.710938 71.257812 260.765625 71.242188 C 260.828125 71.234375 260.882812 71.21875 260.921875 71.203125 C 260.960938 71.179688 261 71.164062 261.039062 71.164062 C 261.0625 71.164062 261.082031 71.175781 261.097656 71.183594 C 261.105469 71.199219 261.121094 71.222656 261.136719 71.261719 C 261.144531 71.292969 261.15625 71.335938 261.15625 71.398438 C 261.15625 71.46875 261.15625 71.546875 261.15625 71.632812 Z M 258.324219 68.683594 C 258.324219 68.214844 258.273438 67.820312 258.1875 67.492188 C 258.09375 67.171875 257.972656 66.902344 257.816406 66.691406 C 257.660156 66.488281 257.472656 66.335938 257.269531 66.242188 C 257.074219 66.15625 256.863281 66.105469 256.644531 66.105469 C 256.332031 66.105469 256.0625 66.179688 255.84375 66.320312 C 255.632812 66.46875 255.457031 66.664062 255.316406 66.90625 C 255.167969 67.140625 255.066406 67.414062 255.003906 67.726562 C 254.949219 68.03125 254.925781 68.34375 254.925781 68.664062 C 254.925781 69.015625 254.945312 69.359375 254.984375 69.679688 C 255.03125 69.992188 255.125 70.277344 255.257812 70.519531 C 255.382812 70.769531 255.550781 70.96875 255.746094 71.125 C 255.949219 71.273438 256.21875 71.339844 256.546875 71.339844 C 256.828125 71.339844 257.082031 71.277344 257.308594 71.144531 C 257.527344 71.003906 257.707031 70.8125 257.855469 70.578125 C 258.011719 70.34375 258.128906 70.070312 258.207031 69.757812 C 258.285156 69.4375 258.324219 69.085938 258.324219 68.703125 L 258.324219 68.683594 Z M 258.324219 68.683594 "/>
</g>
</svg>
