<?xml version="1.0" encoding="UTF-8"?>
<!-- Converted by misc2svg (http://www.network-science.de/tools/misc2svg/) -->
<svg xmlns="http://www.w3.org/2000/svg" xmlns:xlink="http://www.w3.org/1999/xlink" width="280pt" height="143pt" viewBox="0 0 280 143" version="1.1">
<g id="misc2svg">
<path style="fill-rule:nonzero;fill:rgb(87.45098%,87.45098%,87.45098%);fill-opacity:1;stroke-width:0.3985;stroke-linecap:butt;stroke-linejoin:miter;stroke:rgb(0%,0%,0%);stroke-opacity:1;stroke-miterlimit:10;" d="M -66.6155 0.00125 C -66.6155 15.6575 -69.787375 28.348125 -73.699875 28.348125 C -77.6155 28.348125 -80.787375 15.6575 -80.787375 0.00125 C -80.787375 -15.655 -77.6155 -28.345625 -73.699875 -28.345625 C -69.787375 -28.345625 -66.6155 -15.655 -66.6155 0.00125 Z M -66.6155 0.00125 " transform="matrix(1.25,0,0,-1.25,134.035,65.80625)"/>
<path style="fill-rule:nonzero;fill:rgb(87.45098%,87.45098%,87.45098%);fill-opacity:1;stroke-width:0.3985;stroke-linecap:butt;stroke-linejoin:miter;stroke:rgb(87.45098%,87.45098%,87.45098%);stroke-opacity:1;stroke-miterlimit:10;" d="M -73.699875 -28.345625 C -76.778 -6.451875 -76.778 6.454375 -73.699875 28.348125 L 73.70325 28.348125 C 70.625125 6.454375 70.625125 -6.451875 73.70325 -28.345625 L -73.699875 -28.345625 Z M -73.699875 -28.345625 " transform="matrix(1.25,0,0,-1.25,134.035,65.80625)"/>
<path style="fill-rule:nonzero;fill:rgb(87.45098%,87.45098%,87.45098%);fill-opacity:1;stroke-width:0.3985;stroke-linecap:butt;stroke-linejoin:miter;stroke:rgb(0%,0%,0%);stroke-opacity:1;stroke-miterlimit:10;" d="M -70.868625 28.348125 C -74.781125 28.348125 -77.953 15.6575 -77.953 0.00125 C -77.953 -15.655 -74.781125 -28.345625 -70.868625 -28.345625 " transform="matrix(1.25,0,0,-1.25,134.035,65.80625)"/>
<path style="fill-rule:nonzero;fill:rgb(87.45098%,87.45098%,87.45098%);fill-opacity:1;stroke-width:0.3985;stroke-linecap:butt;stroke-linejoin:miter;stroke:rgb(0%,0%,0%);stroke-opacity:1;stroke-miterlimit:10;" d="M -68.031125 28.348125 C -71.94675 28.348125 -75.118625 15.6575 -75.118625 0.00125 C -75.118625 -15.655 -71.94675 -28.345625 -68.031125 -28.345625 " transform="matrix(1.25,0,0,-1.25,134.035,65.80625)"/>
<path style="fill-rule:nonzero;fill:rgb(87.45098%,87.45098%,87.45098%);fill-opacity:1;stroke-width:0.3985;stroke-linecap:butt;stroke-linejoin:miter;stroke:rgb(0%,0%,0%);stroke-opacity:1;stroke-miterlimit:10;" d="M -65.19675 28.348125 C -69.10925 28.348125 -72.281125 15.6575 -72.281125 0.00125 C -72.281125 -15.655 -69.10925 -28.345625 -65.19675 -28.345625 " transform="matrix(1.25,0,0,-1.25,134.035,65.80625)"/>
<path style="fill-rule:nonzero;fill:rgb(87.45098%,87.45098%,87.45098%);fill-opacity:1;stroke-width:0.3985;stroke-linecap:butt;stroke-linejoin:miter;stroke:rgb(0%,0%,0%);stroke-opacity:1;stroke-miterlimit:10;" d="M -62.35925 28.348125 C -66.274875 28.348125 -69.449875 15.6575 -69.449875 0.00125 C -69.449875 -15.655 -66.274875 -28.345625 -62.35925 -28.345625 " transform="matrix(1.25,0,0,-1.25,134.035,65.80625)"/>
<path style="fill-rule:nonzero;fill:rgb(87.45098%,87.45098%,87.45098%);fill-opacity:1;stroke-width:0.3985;stroke-linecap:butt;stroke-linejoin:miter;stroke:rgb(0%,0%,0%);stroke-opacity:1;stroke-miterlimit:10;" d="M -59.528 28.348125 C -63.443625 28.348125 -66.6155 15.6575 -66.6155 0.00125 C -66.6155 -15.655 -63.443625 -28.345625 -59.528 -28.345625 " transform="matrix(1.25,0,0,-1.25,134.035,65.80625)"/>
<path style="fill-rule:nonzero;fill:rgb(87.45098%,87.45098%,87.45098%);fill-opacity:1;stroke-width:0.3985;stroke-linecap:butt;stroke-linejoin:miter;stroke:rgb(0%,0%,0%);stroke-opacity:1;stroke-miterlimit:10;" d="M -56.693625 28.348125 C -60.606125 28.348125 -63.778 15.6575 -63.778 0.00125 C -63.778 -15.655 -60.606125 -28.345625 -56.693625 -28.345625 " transform="matrix(1.25,0,0,-1.25,134.035,65.80625)"/>
<path style="fill-rule:nonzero;fill:rgb(87.45098%,87.45098%,87.45098%);fill-opacity:1;stroke-width:0.3985;stroke-linecap:butt;stroke-linejoin:miter;stroke:rgb(0%,0%,0%);stroke-opacity:1;stroke-miterlimit:10;" d="M -53.856125 28.348125 C -57.77175 28.348125 -60.943625 15.6575 -60.943625 0.00125 C -60.943625 -15.655 -57.77175 -28.345625 -53.856125 -28.345625 " transform="matrix(1.25,0,0,-1.25,134.035,65.80625)"/>
<path style="fill-rule:nonzero;fill:rgb(87.45098%,87.45098%,87.45098%);fill-opacity:1;stroke-width:0.3985;stroke-linecap:butt;stroke-linejoin:miter;stroke:rgb(0%,0%,0%);stroke-opacity:1;stroke-miterlimit:10;" d="M -51.024875 28.348125 C -54.93425 28.348125 -58.10925 15.6575 -58.10925 0.00125 C -58.10925 -15.655 -54.93425 -28.345625 -51.024875 -28.345625 " transform="matrix(1.25,0,0,-1.25,134.035,65.80625)"/>
<path style="fill-rule:nonzero;fill:rgb(87.45098%,87.45098%,87.45098%);fill-opacity:1;stroke-width:0.3985;stroke-linecap:butt;stroke-linejoin:miter;stroke:rgb(0%,0%,0%);stroke-opacity:1;stroke-miterlimit:10;" d="M -48.187375 28.348125 C -52.103 28.348125 -55.274875 15.6575 -55.274875 0.00125 C -55.274875 -15.655 -52.103 -28.345625 -48.187375 -28.345625 " transform="matrix(1.25,0,0,-1.25,134.035,65.80625)"/>
<path style="fill-rule:nonzero;fill:rgb(87.45098%,87.45098%,87.45098%);fill-opacity:1;stroke-width:0.3985;stroke-linecap:butt;stroke-linejoin:miter;stroke:rgb(0%,0%,0%);stroke-opacity:1;stroke-miterlimit:10;" d="M -45.353 28.348125 C -49.2655 28.348125 -52.437375 15.6575 -52.437375 0.00125 C -52.437375 -15.655 -49.2655 -28.345625 -45.353 -28.345625 " transform="matrix(1.25,0,0,-1.25,134.035,65.80625)"/>
<path style="fill-rule:nonzero;fill:rgb(87.45098%,87.45098%,87.45098%);fill-opacity:1;stroke-width:0.3985;stroke-linecap:butt;stroke-linejoin:miter;stroke:rgb(0%,0%,0%);stroke-opacity:1;stroke-miterlimit:10;" d="M -42.5155 28.348125 C -46.431125 28.348125 -49.606125 15.6575 -49.606125 0.00125 C -49.606125 -15.655 -46.431125 -28.345625 -42.5155 -28.345625 " transform="matrix(1.25,0,0,-1.25,134.035,65.80625)"/>
<path style="fill-rule:nonzero;fill:rgb(87.45098%,87.45098%,87.45098%);fill-opacity:1;stroke-width:0.3985;stroke-linecap:butt;stroke-linejoin:miter;stroke:rgb(0%,0%,0%);stroke-opacity:1;stroke-miterlimit:10;" d="M -39.68425 28.348125 C -43.599875 28.348125 -46.77175 15.6575 -46.77175 0.00125 C -46.77175 -15.655 -43.599875 -28.345625 -39.68425 -28.345625 " transform="matrix(1.25,0,0,-1.25,134.035,65.80625)"/>
<path style="fill-rule:nonzero;fill:rgb(87.45098%,87.45098%,87.45098%);fill-opacity:1;stroke-width:0.3985;stroke-linecap:butt;stroke-linejoin:miter;stroke:rgb(0%,0%,0%);stroke-opacity:1;stroke-miterlimit:10;" d="M -36.849875 28.348125 C -40.762375 28.348125 -43.93425 15.6575 -43.93425 0.00125 C -43.93425 -15.655 -40.762375 -28.345625 -36.849875 -28.345625 " transform="matrix(1.25,0,0,-1.25,134.035,65.80625)"/>
<path style="fill-rule:nonzero;fill:rgb(87.45098%,87.45098%,87.45098%);fill-opacity:1;stroke-width:0.3985;stroke-linecap:butt;stroke-linejoin:miter;stroke:rgb(0%,0%,0%);stroke-opacity:1;stroke-miterlimit:10;" d="M -34.012375 28.348125 C -37.928 28.348125 -41.099875 15.6575 -41.099875 0.00125 C -41.099875 -15.655 -37.928 -28.345625 -34.012375 -28.345625 " transform="matrix(1.25,0,0,-1.25,134.035,65.80625)"/>
<path style="fill-rule:nonzero;fill:rgb(87.45098%,87.45098%,87.45098%);fill-opacity:1;stroke-width:0.3985;stroke-linecap:butt;stroke-linejoin:miter;stroke:rgb(0%,0%,0%);stroke-opacity:1;stroke-miterlimit:10;" d="M -31.178 28.348125 C -35.0905 28.348125 -38.2655 15.6575 -38.2655 0.00125 C -38.2655 -15.655 -35.0905 -28.345625 -31.178 -28.345625 " transform="matrix(1.25,0,0,-1.25,134.035,65.80625)"/>
<path style="fill-rule:nonzero;fill:rgb(87.45098%,87.45098%,87.45098%);fill-opacity:1;stroke-width:0.3985;stroke-linecap:butt;stroke-linejoin:miter;stroke:rgb(0%,0%,0%);stroke-opacity:1;stroke-miterlimit:10;" d="M -28.343625 28.348125 C -32.25925 28.348125 -35.431125 15.6575 -35.431125 0.00125 C -35.431125 -15.655 -32.25925 -28.345625 -28.343625 -28.345625 " transform="matrix(1.25,0,0,-1.25,134.035,65.80625)"/>
<path style="fill-rule:nonzero;fill:rgb(87.45098%,87.45098%,87.45098%);fill-opacity:1;stroke-width:0.3985;stroke-linecap:butt;stroke-linejoin:miter;stroke:rgb(0%,0%,0%);stroke-opacity:1;stroke-miterlimit:10;" d="M -25.50925 28.348125 C -29.42175 28.348125 -32.593625 15.6575 -32.593625 0.00125 C -32.593625 -15.655 -29.42175 -28.345625 -25.50925 -28.345625 " transform="matrix(1.25,0,0,-1.25,134.035,65.80625)"/>
<path style="fill-rule:nonzero;fill:rgb(87.45098%,87.45098%,87.45098%);fill-opacity:1;stroke-width:0.3985;stroke-linecap:butt;stroke-linejoin:miter;stroke:rgb(0%,0%,0%);stroke-opacity:1;stroke-miterlimit:10;" d="M -22.67175 28.348125 C -26.587375 28.348125 -29.75925 15.6575 -29.75925 0.00125 C -29.75925 -15.655 -26.587375 -28.345625 -22.67175 -28.345625 " transform="matrix(1.25,0,0,-1.25,134.035,65.80625)"/>
<path style="fill-rule:nonzero;fill:rgb(87.45098%,87.45098%,87.45098%);fill-opacity:1;stroke-width:0.3985;stroke-linecap:butt;stroke-linejoin:miter;stroke:rgb(0%,0%,0%);stroke-opacity:1;stroke-miterlimit:10;" d="M -19.8405 28.348125 C -23.756125 28.348125 -26.928 15.6575 -26.928 0.00125 C -26.928 -15.655 -23.756125 -28.345625 -19.8405 -28.345625 " transform="matrix(1.25,0,0,-1.25,134.035,65.80625)"/>
<path style="fill-rule:nonzero;fill:rgb(87.45098%,87.45098%,87.45098%);fill-opacity:1;stroke-width:0.3985;stroke-linecap:butt;stroke-linejoin:miter;stroke:rgb(0%,0%,0%);stroke-opacity:1;stroke-miterlimit:10;" d="M -17.006125 28.348125 C -20.918625 28.348125 -24.0905 15.6575 -24.0905 0.00125 C -24.0905 -15.655 -20.918625 -28.345625 -17.006125 -28.345625 " transform="matrix(1.25,0,0,-1.25,134.035,65.80625)"/>
<path style="fill-rule:nonzero;fill:rgb(87.45098%,87.45098%,87.45098%);fill-opacity:1;stroke-width:0.3985;stroke-linecap:butt;stroke-linejoin:miter;stroke:rgb(0%,0%,0%);stroke-opacity:1;stroke-miterlimit:10;" d="M -14.168625 28.348125 C -18.08425 28.348125 -21.256125 15.6575 -21.256125 0.00125 C -21.256125 -15.655 -18.08425 -28.345625 -14.168625 -28.345625 " transform="matrix(1.25,0,0,-1.25,134.035,65.80625)"/>
<path style="fill-rule:nonzero;fill:rgb(87.45098%,87.45098%,87.45098%);fill-opacity:1;stroke-width:0.3985;stroke-linecap:butt;stroke-linejoin:miter;stroke:rgb(0%,0%,0%);stroke-opacity:1;stroke-miterlimit:10;" d="M -11.33425 28.348125 C -15.24675 28.348125 -18.42175 15.6575 -18.42175 0.00125 C -18.42175 -15.655 -15.24675 -28.345625 -11.33425 -28.345625 " transform="matrix(1.25,0,0,-1.25,134.035,65.80625)"/>
<path style="fill-rule:nonzero;fill:rgb(87.45098%,87.45098%,87.45098%);fill-opacity:1;stroke-width:0.3985;stroke-linecap:butt;stroke-linejoin:miter;stroke:rgb(0%,0%,0%);stroke-opacity:1;stroke-miterlimit:10;" d="M -8.499875 28.348125 C -12.4155 28.348125 -15.587375 15.6575 -15.587375 0.00125 C -15.587375 -15.655 -12.4155 -28.345625 -8.499875 -28.345625 " transform="matrix(1.25,0,0,-1.25,134.035,65.80625)"/>
<path style="fill-rule:nonzero;fill:rgb(87.45098%,87.45098%,87.45098%);fill-opacity:1;stroke-width:0.3985;stroke-linecap:butt;stroke-linejoin:miter;stroke:rgb(0%,0%,0%);stroke-opacity:1;stroke-miterlimit:10;" d="M -5.6655 28.348125 C -9.578 28.348125 -12.749875 15.6575 -12.749875 0.00125 C -12.749875 -15.655 -9.578 -28.345625 -5.6655 -28.345625 " transform="matrix(1.25,0,0,-1.25,134.035,65.80625)"/>
<path style="fill-rule:nonzero;fill:rgb(87.45098%,87.45098%,87.45098%);fill-opacity:1;stroke-width:0.3985;stroke-linecap:butt;stroke-linejoin:miter;stroke:rgb(0%,0%,0%);stroke-opacity:1;stroke-miterlimit:10;" d="M -2.828 28.348125 C -6.743625 28.348125 -9.9155 15.6575 -9.9155 0.00125 C -9.9155 -15.655 -6.743625 -28.345625 -2.828 -28.345625 " transform="matrix(1.25,0,0,-1.25,134.035,65.80625)"/>
<path style="fill-rule:nonzero;fill:rgb(87.45098%,87.45098%,87.45098%);fill-opacity:1;stroke-width:0.3985;stroke-linecap:butt;stroke-linejoin:miter;stroke:rgb(0%,0%,0%);stroke-opacity:1;stroke-miterlimit:10;" d="M 0.00325 28.348125 C -3.906125 28.348125 -7.08425 15.6575 -7.08425 0.00125 C -7.08425 -15.655 -3.906125 -28.345625 0.00325 -28.345625 " transform="matrix(1.25,0,0,-1.25,134.035,65.80625)"/>
<path style="fill-rule:nonzero;fill:rgb(87.45098%,87.45098%,87.45098%);fill-opacity:1;stroke-width:0.3985;stroke-linecap:butt;stroke-linejoin:miter;stroke:rgb(0%,0%,0%);stroke-opacity:1;stroke-miterlimit:10;" d="M 2.837625 28.348125 C -1.074875 28.348125 -4.24675 15.6575 -4.24675 0.00125 C -4.24675 -15.655 -1.074875 -28.345625 2.837625 -28.345625 " transform="matrix(1.25,0,0,-1.25,134.035,65.80625)"/>
<path style="fill-rule:nonzero;fill:rgb(87.45098%,87.45098%,87.45098%);fill-opacity:1;stroke-width:0.3985;stroke-linecap:butt;stroke-linejoin:miter;stroke:rgb(0%,0%,0%);stroke-opacity:1;stroke-miterlimit:10;" d="M 5.675125 28.348125 C 1.7595 28.348125 -1.412375 15.6575 -1.412375 0.00125 C -1.412375 -15.655 1.7595 -28.345625 5.675125 -28.345625 " transform="matrix(1.25,0,0,-1.25,134.035,65.80625)"/>
<path style="fill-rule:nonzero;fill:rgb(87.45098%,87.45098%,87.45098%);fill-opacity:1;stroke-width:0.3985;stroke-linecap:butt;stroke-linejoin:miter;stroke:rgb(0%,0%,0%);stroke-opacity:1;stroke-miterlimit:10;" d="M 8.5095 28.348125 C 4.597 28.348125 1.422 15.6575 1.422 0.00125 C 1.422 -15.655 4.597 -28.345625 8.5095 -28.345625 " transform="matrix(1.25,0,0,-1.25,134.035,65.80625)"/>
<path style="fill-rule:nonzero;fill:rgb(87.45098%,87.45098%,87.45098%);fill-opacity:1;stroke-width:0.3985;stroke-linecap:butt;stroke-linejoin:miter;stroke:rgb(0%,0%,0%);stroke-opacity:1;stroke-miterlimit:10;" d="M 11.343875 28.348125 C 7.42825 28.348125 4.256375 15.6575 4.256375 0.00125 C 4.256375 -15.655 7.42825 -28.345625 11.343875 -28.345625 " transform="matrix(1.25,0,0,-1.25,134.035,65.80625)"/>
<path style="fill-rule:nonzero;fill:rgb(87.45098%,87.45098%,87.45098%);fill-opacity:1;stroke-width:0.3985;stroke-linecap:butt;stroke-linejoin:miter;stroke:rgb(0%,0%,0%);stroke-opacity:1;stroke-miterlimit:10;" d="M 14.17825 28.348125 C 10.26575 28.348125 7.093875 15.6575 7.093875 0.00125 C 7.093875 -15.655 10.26575 -28.345625 14.17825 -28.345625 " transform="matrix(1.25,0,0,-1.25,134.035,65.80625)"/>
<path style="fill-rule:nonzero;fill:rgb(87.45098%,87.45098%,87.45098%);fill-opacity:1;stroke-width:0.3985;stroke-linecap:butt;stroke-linejoin:miter;stroke:rgb(0%,0%,0%);stroke-opacity:1;stroke-miterlimit:10;" d="M 17.01575 28.348125 C 13.100125 28.348125 9.92825 15.6575 9.92825 0.00125 C 9.92825 -15.655 13.100125 -28.345625 17.01575 -28.345625 " transform="matrix(1.25,0,0,-1.25,134.035,65.80625)"/>
<path style="fill-rule:nonzero;fill:rgb(87.45098%,87.45098%,87.45098%);fill-opacity:1;stroke-width:0.3985;stroke-linecap:butt;stroke-linejoin:miter;stroke:rgb(0%,0%,0%);stroke-opacity:1;stroke-miterlimit:10;" d="M 19.850125 28.348125 C 15.937625 28.348125 12.7595 15.6575 12.7595 0.00125 C 12.7595 -15.655 15.937625 -28.345625 19.850125 -28.345625 " transform="matrix(1.25,0,0,-1.25,134.035,65.80625)"/>
<path style="fill-rule:nonzero;fill:rgb(87.45098%,87.45098%,87.45098%);fill-opacity:1;stroke-width:0.3985;stroke-linecap:butt;stroke-linejoin:miter;stroke:rgb(0%,0%,0%);stroke-opacity:1;stroke-miterlimit:10;" d="M 22.681375 28.348125 C 18.768875 28.348125 15.597 15.6575 15.597 0.00125 C 15.597 -15.655 18.768875 -28.345625 22.681375 -28.345625 " transform="matrix(1.25,0,0,-1.25,134.035,65.80625)"/>
<path style="fill-rule:nonzero;fill:rgb(87.45098%,87.45098%,87.45098%);fill-opacity:1;stroke-width:0.3985;stroke-linecap:butt;stroke-linejoin:miter;stroke:rgb(0%,0%,0%);stroke-opacity:1;stroke-miterlimit:10;" d="M 25.518875 28.348125 C 21.60325 28.348125 18.431375 15.6575 18.431375 0.00125 C 18.431375 -15.655 21.60325 -28.345625 25.518875 -28.345625 " transform="matrix(1.25,0,0,-1.25,134.035,65.80625)"/>
<path style="fill-rule:nonzero;fill:rgb(87.45098%,87.45098%,87.45098%);fill-opacity:1;stroke-width:0.3985;stroke-linecap:butt;stroke-linejoin:miter;stroke:rgb(0%,0%,0%);stroke-opacity:1;stroke-miterlimit:10;" d="M 28.35325 28.348125 C 24.44075 28.348125 21.268875 15.6575 21.268875 0.00125 C 21.268875 -15.655 24.44075 -28.345625 28.35325 -28.345625 " transform="matrix(1.25,0,0,-1.25,134.035,65.80625)"/>
<path style="fill-rule:nonzero;fill:rgb(87.45098%,87.45098%,87.45098%);fill-opacity:1;stroke-width:0.3985;stroke-linecap:butt;stroke-linejoin:miter;stroke:rgb(0%,0%,0%);stroke-opacity:1;stroke-miterlimit:10;" d="M 31.187625 28.348125 C 27.272 28.348125 24.100125 15.6575 24.100125 0.00125 C 24.100125 -15.655 27.272 -28.345625 31.187625 -28.345625 " transform="matrix(1.25,0,0,-1.25,134.035,65.80625)"/>
<path style="fill-rule:nonzero;fill:rgb(87.45098%,87.45098%,87.45098%);fill-opacity:1;stroke-width:0.3985;stroke-linecap:butt;stroke-linejoin:miter;stroke:rgb(0%,0%,0%);stroke-opacity:1;stroke-miterlimit:10;" d="M 34.022 28.348125 C 30.1095 28.348125 26.937625 15.6575 26.937625 0.00125 C 26.937625 -15.655 30.1095 -28.345625 34.022 -28.345625 " transform="matrix(1.25,0,0,-1.25,134.035,65.80625)"/>
<path style="fill-rule:nonzero;fill:rgb(87.45098%,87.45098%,87.45098%);fill-opacity:1;stroke-width:0.3985;stroke-linecap:butt;stroke-linejoin:miter;stroke:rgb(0%,0%,0%);stroke-opacity:1;stroke-miterlimit:10;" d="M 36.8595 28.348125 C 32.943875 28.348125 29.772 15.6575 29.772 0.00125 C 29.772 -15.655 32.943875 -28.345625 36.8595 -28.345625 " transform="matrix(1.25,0,0,-1.25,134.035,65.80625)"/>
<path style="fill-rule:nonzero;fill:rgb(87.45098%,87.45098%,87.45098%);fill-opacity:1;stroke-width:0.3985;stroke-linecap:butt;stroke-linejoin:miter;stroke:rgb(0%,0%,0%);stroke-opacity:1;stroke-miterlimit:10;" d="M 39.693875 28.348125 C 35.781375 28.348125 32.60325 15.6575 32.60325 0.00125 C 32.60325 -15.655 35.781375 -28.345625 39.693875 -28.345625 " transform="matrix(1.25,0,0,-1.25,134.035,65.80625)"/>
<path style="fill-rule:nonzero;fill:rgb(87.45098%,87.45098%,87.45098%);fill-opacity:1;stroke-width:0.3985;stroke-linecap:butt;stroke-linejoin:miter;stroke:rgb(0%,0%,0%);stroke-opacity:1;stroke-miterlimit:10;" d="M 42.525125 28.348125 C 38.612625 28.348125 35.44075 15.6575 35.44075 0.00125 C 35.44075 -15.655 38.612625 -28.345625 42.525125 -28.345625 " transform="matrix(1.25,0,0,-1.25,134.035,65.80625)"/>
<path style="fill-rule:nonzero;fill:rgb(87.45098%,87.45098%,87.45098%);fill-opacity:1;stroke-width:0.3985;stroke-linecap:butt;stroke-linejoin:miter;stroke:rgb(0%,0%,0%);stroke-opacity:1;stroke-miterlimit:10;" d="M 45.362625 28.348125 C 41.447 28.348125 38.275125 15.6575 38.275125 0.00125 C 38.275125 -15.655 41.447 -28.345625 45.362625 -28.345625 " transform="matrix(1.25,0,0,-1.25,134.035,65.80625)"/>
<path style="fill-rule:nonzero;fill:rgb(87.45098%,87.45098%,87.45098%);fill-opacity:1;stroke-width:0.3985;stroke-linecap:butt;stroke-linejoin:miter;stroke:rgb(0%,0%,0%);stroke-opacity:1;stroke-miterlimit:10;" d="M 48.197 28.348125 C 44.2845 28.348125 41.112625 15.6575 41.112625 0.00125 C 41.112625 -15.655 44.2845 -28.345625 48.197 -28.345625 " transform="matrix(1.25,0,0,-1.25,134.035,65.80625)"/>
<path style="fill-rule:nonzero;fill:rgb(87.45098%,87.45098%,87.45098%);fill-opacity:1;stroke-width:0.3985;stroke-linecap:butt;stroke-linejoin:miter;stroke:rgb(0%,0%,0%);stroke-opacity:1;stroke-miterlimit:10;" d="M 51.031375 28.348125 C 47.118875 28.348125 43.943875 15.6575 43.943875 0.00125 C 43.943875 -15.655 47.118875 -28.345625 51.031375 -28.345625 " transform="matrix(1.25,0,0,-1.25,134.035,65.80625)"/>
<path style="fill-rule:nonzero;fill:rgb(87.45098%,87.45098%,87.45098%);fill-opacity:1;stroke-width:0.3985;stroke-linecap:butt;stroke-linejoin:miter;stroke:rgb(0%,0%,0%);stroke-opacity:1;stroke-miterlimit:10;" d="M 53.86575 28.348125 C 49.95325 28.348125 46.781375 15.6575 46.781375 0.00125 C 46.781375 -15.655 49.95325 -28.345625 53.86575 -28.345625 " transform="matrix(1.25,0,0,-1.25,134.035,65.80625)"/>
<path style="fill-rule:nonzero;fill:rgb(87.45098%,87.45098%,87.45098%);fill-opacity:1;stroke-width:0.3985;stroke-linecap:butt;stroke-linejoin:miter;stroke:rgb(0%,0%,0%);stroke-opacity:1;stroke-miterlimit:10;" d="M 56.70325 28.348125 C 52.787625 28.348125 49.61575 15.6575 49.61575 0.00125 C 49.61575 -15.655 52.787625 -28.345625 56.70325 -28.345625 " transform="matrix(1.25,0,0,-1.25,134.035,65.80625)"/>
<path style="fill-rule:nonzero;fill:rgb(87.45098%,87.45098%,87.45098%);fill-opacity:1;stroke-width:0.3985;stroke-linecap:butt;stroke-linejoin:miter;stroke:rgb(0%,0%,0%);stroke-opacity:1;stroke-miterlimit:10;" d="M 59.537625 28.348125 C 55.625125 28.348125 52.447 15.6575 52.447 0.00125 C 52.447 -15.655 55.625125 -28.345625 59.537625 -28.345625 " transform="matrix(1.25,0,0,-1.25,134.035,65.80625)"/>
<path style="fill-rule:nonzero;fill:rgb(87.45098%,87.45098%,87.45098%);fill-opacity:1;stroke-width:0.3985;stroke-linecap:butt;stroke-linejoin:miter;stroke:rgb(0%,0%,0%);stroke-opacity:1;stroke-miterlimit:10;" d="M 62.368875 28.348125 C 58.456375 28.348125 55.2845 15.6575 55.2845 0.00125 C 55.2845 -15.655 58.456375 -28.345625 62.368875 -28.345625 " transform="matrix(1.25,0,0,-1.25,134.035,65.80625)"/>
<path style="fill-rule:nonzero;fill:rgb(87.45098%,87.45098%,87.45098%);fill-opacity:1;stroke-width:0.3985;stroke-linecap:butt;stroke-linejoin:miter;stroke:rgb(0%,0%,0%);stroke-opacity:1;stroke-miterlimit:10;" d="M 65.206375 28.348125 C 61.29075 28.348125 58.118875 15.6575 58.118875 0.00125 C 58.118875 -15.655 61.29075 -28.345625 65.206375 -28.345625 " transform="matrix(1.25,0,0,-1.25,134.035,65.80625)"/>
<path style="fill-rule:nonzero;fill:rgb(87.45098%,87.45098%,87.45098%);fill-opacity:1;stroke-width:0.3985;stroke-linecap:butt;stroke-linejoin:miter;stroke:rgb(0%,0%,0%);stroke-opacity:1;stroke-miterlimit:10;" d="M 68.04075 28.348125 C 64.12825 28.348125 60.956375 15.6575 60.956375 0.00125 C 60.956375 -15.655 64.12825 -28.345625 68.04075 -28.345625 " transform="matrix(1.25,0,0,-1.25,134.035,65.80625)"/>
<path style="fill-rule:nonzero;fill:rgb(87.45098%,87.45098%,87.45098%);fill-opacity:1;stroke-width:0.3985;stroke-linecap:butt;stroke-linejoin:miter;stroke:rgb(0%,0%,0%);stroke-opacity:1;stroke-miterlimit:10;" d="M 70.87825 28.348125 C 66.962625 28.348125 63.787625 15.6575 63.787625 0.00125 C 63.787625 -15.655 66.962625 -28.345625 70.87825 -28.345625 " transform="matrix(1.25,0,0,-1.25,134.035,65.80625)"/>
<path style="fill-rule:nonzero;fill:rgb(74.901961%,74.901961%,74.901961%);fill-opacity:1;stroke-width:0.3985;stroke-linecap:butt;stroke-linejoin:miter;stroke:rgb(0%,0%,0%);stroke-opacity:1;stroke-miterlimit:10;" d="M 80.787625 0.00125 C 80.787625 15.6575 77.61575 28.348125 73.70325 28.348125 C 69.787625 28.348125 66.61575 15.6575 66.61575 0.00125 C 66.61575 -15.655 69.787625 -28.345625 73.70325 -28.345625 C 77.61575 -28.345625 80.787625 -15.655 80.787625 0.00125 Z M 80.787625 0.00125 " transform="matrix(1.25,0,0,-1.25,134.035,65.80625)"/>
<path style="fill:none;stroke-width:0.3985;stroke-linecap:butt;stroke-linejoin:miter;stroke:rgb(0%,0%,0%);stroke-opacity:1;stroke-miterlimit:10;" d="M -73.699875 28.348125 L 73.70325 28.348125 " transform="matrix(1.25,0,0,-1.25,134.035,65.80625)"/>
<path style="fill:none;stroke-width:0.3985;stroke-linecap:butt;stroke-linejoin:miter;stroke:rgb(0%,0%,0%);stroke-opacity:1;stroke-miterlimit:10;" d="M -73.699875 -28.345625 L 73.70325 -28.345625 " transform="matrix(1.25,0,0,-1.25,134.035,65.80625)"/>
<path style="fill:none;stroke-width:0.3985;stroke-linecap:butt;stroke-linejoin:miter;stroke:rgb(0%,0%,0%);stroke-opacity:1;stroke-miterlimit:10;" d="M -72.843625 34.016875 L 72.847 34.016875 " transform="matrix(1.25,0,0,-1.25,134.035,65.80625)"/>
<path style="fill:none;stroke-width:0.3985;stroke-linecap:square;stroke-linejoin:miter;stroke:rgb(0%,0%,0%);stroke-opacity:1;stroke-miterlimit:10;" d="M 0.10001 -2.59142 L 0.10001 2.58983 " transform="matrix(-1.25,0,0,1.25,42.281262,23.28615)"/>
<path style="fill:none;stroke-width:0.31879;stroke-linecap:round;stroke-linejoin:round;stroke:rgb(0%,0%,0%);stroke-opacity:1;stroke-miterlimit:10;" d="M -1.195225 1.592955 C -1.09835 0.99608 0.00165 0.10233 0.2954 -0.000795 C 0.00165 -0.09767 -1.09835 -0.99767 -1.195225 -1.594545 " transform="matrix(-1.25,0,0,1.25,42.978625,23.28615)"/>
<path style="fill:none;stroke-width:0.3985;stroke-linecap:square;stroke-linejoin:miter;stroke:rgb(0%,0%,0%);stroke-opacity:1;stroke-miterlimit:10;" d="M 0.10026 -2.58983 L 0.10026 2.59142 " transform="matrix(1.25,0,0,-1.25,225.788737,23.28615)"/>
<path style="fill:none;stroke-width:0.31879;stroke-linecap:round;stroke-linejoin:round;stroke:rgb(0%,0%,0%);stroke-opacity:1;stroke-miterlimit:10;" d="M -1.194975 1.594545 C -1.0981 0.99767 0.0019 0.09767 0.298775 0.000795 C 0.0019 -0.10233 -1.0981 -0.99608 -1.194975 -1.592955 " transform="matrix(1.25,0,0,-1.25,225.091375,23.28615)"/>
<path style=" stroke:none;fill-rule:nonzero;fill:rgb(0%,0%,0%);fill-opacity:1;" d="M 137.804688 15.800781 C 137.804688 15.761719 137.765625 15.664062 137.667969 15.664062 C 137.550781 15.664062 137.53125 15.742188 137.453125 15.9375 C 137.023438 17.070312 136.476562 18.496094 134.328125 18.496094 L 133.15625 18.496094 C 132.980469 18.496094 132.941406 18.496094 132.882812 18.496094 C 132.746094 18.476562 132.707031 18.457031 132.707031 18.359375 C 132.707031 18.320312 132.707031 18.300781 132.765625 18.085938 L 134.464844 11.347656 C 134.5625 10.898438 134.601562 10.761719 135.773438 10.761719 C 136.144531 10.761719 136.242188 10.761719 136.242188 10.527344 C 136.242188 10.371094 136.105469 10.371094 136.046875 10.371094 L 134.210938 10.410156 L 132.550781 10.371094 C 132.472656 10.371094 132.316406 10.371094 132.316406 10.625 C 132.316406 10.761719 132.433594 10.761719 132.667969 10.761719 C 132.667969 10.761719 132.921875 10.761719 133.136719 10.78125 C 133.351562 10.820312 133.46875 10.820312 133.46875 10.996094 C 133.46875 11.035156 133.46875 11.074219 133.429688 11.230469 L 131.75 17.910156 C 131.632812 18.398438 131.613281 18.496094 130.617188 18.496094 C 130.402344 18.496094 130.285156 18.496094 130.285156 18.75 C 130.285156 18.886719 130.402344 18.886719 130.617188 18.886719 L 136.398438 18.886719 C 136.691406 18.886719 136.691406 18.886719 136.769531 18.671875 L 137.765625 15.976562 C 137.804688 15.839844 137.804688 15.800781 137.804688 15.800781 Z M 137.804688 15.800781 "/>
<path style="fill:none;stroke-width:0.3985;stroke-linecap:butt;stroke-linejoin:miter;stroke:rgb(0%,0%,0%);stroke-opacity:1;stroke-dasharray:2.98883,2.98883;stroke-miterlimit:10;" d="M -99.212375 0.00125 L 95.62825 0.00125 " transform="matrix(1.25,0,0,-1.25,134.035,65.80625)"/>
<path style=" stroke:none;fill-rule:nonzero;fill:rgb(0%,0%,0%);fill-opacity:1;" d="M 258.050781 65.804688 C 256.722656 65.554688 254.566406 64.808594 253.070312 63.941406 L 253.070312 67.675781 C 254.566406 66.800781 256.722656 66.054688 258.050781 65.804688 "/>
<path style=" stroke:none;fill-rule:nonzero;fill:rgb(0%,0%,0%);fill-opacity:1;" d="M 268.621094 59.628906 C 268.621094 59.492188 268.523438 59.492188 268.484375 59.492188 C 268.367188 59.492188 268.347656 59.550781 268.308594 59.628906 C 267.898438 60.976562 267.058594 61.269531 266.667969 61.269531 C 266.179688 61.269531 265.984375 60.878906 265.984375 60.449219 C 265.984375 60.175781 266.042969 59.902344 266.179688 59.355469 L 266.609375 57.636719 C 266.6875 57.324219 266.980469 56.171875 267.839844 56.171875 C 267.898438 56.171875 268.210938 56.171875 268.464844 56.328125 C 268.113281 56.40625 267.878906 56.699219 267.878906 57.011719 C 267.878906 57.207031 268.015625 57.441406 268.347656 57.441406 C 268.621094 57.441406 269.011719 57.226562 269.011719 56.71875 C 269.011719 56.074219 268.289062 55.898438 267.859375 55.898438 C 267.136719 55.898438 266.707031 56.5625 266.550781 56.835938 C 266.238281 56.015625 265.574219 55.898438 265.203125 55.898438 C 263.914062 55.898438 263.191406 57.5 263.191406 57.8125 C 263.191406 57.949219 263.347656 57.949219 263.347656 57.949219 C 263.445312 57.949219 263.484375 57.910156 263.503906 57.8125 C 263.933594 56.484375 264.753906 56.171875 265.183594 56.171875 C 265.417969 56.171875 265.847656 56.289062 265.847656 57.011719 C 265.847656 57.402344 265.632812 58.222656 265.183594 59.980469 C 264.988281 60.742188 264.539062 61.269531 263.992188 61.269531 C 263.914062 61.269531 263.640625 61.269531 263.367188 61.113281 C 263.679688 61.035156 263.953125 60.78125 263.953125 60.429688 C 263.953125 60.097656 263.679688 60 263.503906 60 C 263.113281 60 262.820312 60.3125 262.820312 60.722656 C 262.820312 61.289062 263.425781 61.542969 263.972656 61.542969 C 264.8125 61.542969 265.261719 60.664062 265.28125 60.605469 C 265.4375 61.054688 265.886719 61.542969 266.628906 61.542969 C 267.917969 61.542969 268.621094 59.941406 268.621094 59.628906 Z M 268.621094 59.628906 "/>
<path style=" stroke:none;fill-rule:nonzero;fill:rgb(87.45098%,87.45098%,87.45098%);fill-opacity:1;" d="M 117.25 81.21875 L 133.785156 81.21875 L 133.785156 66.054688 L 117.25 66.054688 L 117.25 81.21875 Z M 117.25 81.21875 "/>
<path style=" stroke:none;fill-rule:nonzero;fill:rgb(0%,0%,0%);fill-opacity:1;" d="M 129.039062 73.691406 C 129.039062 71.699219 127.457031 70.058594 125.523438 70.058594 C 123.550781 70.058594 121.988281 71.699219 121.988281 73.691406 C 121.988281 75.722656 123.609375 77.285156 125.503906 77.285156 C 127.4375 77.285156 129.039062 75.703125 129.039062 73.691406 Z M 128.003906 73.535156 C 128.003906 76.074219 126.558594 76.953125 125.523438 76.953125 C 124.429688 76.953125 123.023438 76.035156 123.023438 73.535156 C 123.023438 71.171875 124.488281 70.371094 125.503906 70.371094 C 126.578125 70.371094 128.003906 71.210938 128.003906 73.535156 Z M 128.003906 73.535156 "/>
<path style="fill:none;stroke-width:0.3985;stroke-linecap:butt;stroke-linejoin:miter;stroke:rgb(0%,0%,0%);stroke-opacity:1;stroke-miterlimit:10;" d="M -0.003 0.00125 L -0.003 2.835625 M -0.003 0.00125 L -0.003 -2.83625 " transform="matrix(1.25,0,0,-1.25,134.035,65.80625)"/>
<path style="fill:none;stroke-width:0.3985;stroke-linecap:butt;stroke-linejoin:miter;stroke:rgb(0%,0%,0%);stroke-opacity:1;stroke-miterlimit:10;" d="M -73.699875 -28.345625 C -89.399875 -28.345625 -102.04675 -40.995625 -102.04675 -56.695625 " transform="matrix(1.25,0,0,-1.25,134.035,65.80625)"/>
<path style=" stroke:none;fill-rule:nonzero;fill:rgb(0%,0%,0%);fill-opacity:1;" d="M 16.832031 111.601562 L 21.058594 110.191406 L 18.59375 109.839844 L 18.242188 107.375 "/>
<path style=" stroke:none;fill-rule:nonzero;fill:rgb(0%,0%,0%);fill-opacity:1;" d="M 29.628906 123.246094 L 29.628906 122.855469 L 29.316406 122.855469 C 28.320312 122.855469 28.300781 122.71875 28.300781 122.269531 L 28.300781 115.707031 C 28.300781 115.257812 28.320312 115.121094 29.316406 115.121094 L 29.628906 115.121094 L 29.628906 114.730469 C 29.199219 114.769531 28.222656 114.769531 27.734375 114.769531 C 27.265625 114.769531 26.269531 114.769531 25.839844 114.730469 L 25.839844 115.121094 L 26.152344 115.121094 C 27.148438 115.121094 27.1875 115.257812 27.1875 115.707031 L 27.1875 122.269531 C 27.1875 122.71875 27.148438 122.855469 26.152344 122.855469 L 25.839844 122.855469 L 25.839844 123.246094 C 26.269531 123.207031 27.265625 123.207031 27.734375 123.207031 C 28.222656 123.207031 29.199219 123.207031 29.628906 123.246094 Z M 29.628906 123.246094 "/>
<path style="fill:none;stroke-width:0.3985;stroke-linecap:butt;stroke-linejoin:miter;stroke:rgb(0%,0%,0%);stroke-opacity:1;stroke-miterlimit:10;" d="M 73.70325 -28.345625 C 73.70325 -44.0425 86.35325 -56.695625 102.050125 -56.695625 " transform="matrix(1.25,0,0,-1.25,134.035,65.80625)"/>
<path style=" stroke:none;fill-rule:nonzero;fill:rgb(0%,0%,0%);fill-opacity:1;" d="M 233.707031 123.496094 L 237.929688 124.90625 L 235.464844 125.257812 L 235.113281 127.726562 "/>
<path style=" stroke:none;fill-rule:nonzero;fill:rgb(0%,0%,0%);fill-opacity:1;" d="M 249.3125 123.246094 L 249.3125 122.855469 L 249 122.855469 C 248.003906 122.855469 247.984375 122.71875 247.984375 122.269531 L 247.984375 115.707031 C 247.984375 115.257812 248.003906 115.121094 249 115.121094 L 249.3125 115.121094 L 249.3125 114.730469 C 248.882812 114.769531 247.90625 114.769531 247.417969 114.769531 C 246.949219 114.769531 245.953125 114.769531 245.523438 114.730469 L 245.523438 115.121094 L 245.835938 115.121094 C 246.832031 115.121094 246.871094 115.257812 246.871094 115.707031 L 246.871094 122.269531 C 246.871094 122.71875 246.832031 122.855469 245.835938 122.855469 L 245.523438 122.855469 L 245.523438 123.246094 C 245.953125 123.207031 246.949219 123.207031 247.417969 123.207031 C 247.90625 123.207031 248.882812 123.207031 249.3125 123.246094 Z M 249.3125 123.246094 "/>
</g>
</svg>
