<?xml version="1.0" encoding="UTF-8"?>
<!-- Converted by misc2svg (http://www.network-science.de/tools/misc2svg/) -->
<svg xmlns="http://www.w3.org/2000/svg" xmlns:xlink="http://www.w3.org/1999/xlink" width="138pt" height="68pt" viewBox="0 0 138 68" version="1.1">
<g id="misc2svg">
<path style="fill-rule:nonzero;fill:rgb(85.098039%,85.098039%,85.098039%);fill-opacity:1;stroke-width:0.3985;stroke-linecap:butt;stroke-linejoin:miter;stroke:rgb(85.098039%,85.098039%,85.098039%);stroke-opacity:1;stroke-miterlimit:10;" d="M -0.000875 0.002125 L -0.000875 28.345875 L 85.042875 28.345875 L 85.042875 0.002125 L -0.000875 0.002125 Z M -0.000875 0.002125 " transform="matrix(1.25,0,0,-1.25,6.97375,60.12375)"/>
<path style="fill:none;stroke-width:1.19553;stroke-linecap:butt;stroke-linejoin:miter;stroke:rgb(65.098039%,65.098039%,65.098039%);stroke-opacity:1;stroke-miterlimit:10;" d="M -0.000875 0.002125 L -0.000875 28.345875 L 85.042875 28.345875 " transform="matrix(1.25,0,0,-1.25,6.97375,60.12375)"/>
<path style="fill:none;stroke-width:1.19553;stroke-linecap:butt;stroke-linejoin:miter;stroke:rgb(65.098039%,65.098039%,65.098039%);stroke-opacity:1;stroke-miterlimit:10;" d="M -0.000875 0.002125 L 85.042875 0.002125 " transform="matrix(1.25,0,0,-1.25,6.97375,60.12375)"/>
<path style="fill-rule:nonzero;fill:rgb(85.098039%,85.098039%,85.098039%);fill-opacity:1;stroke-width:0.3985;stroke-linecap:butt;stroke-linejoin:miter;stroke:rgb(85.098039%,85.098039%,85.098039%);stroke-opacity:1;stroke-miterlimit:10;" d="M -0.000875 28.345875 L 14.174125 42.520875 L 99.21475 42.520875 L 85.042875 28.345875 " transform="matrix(1.25,0,0,-1.25,6.97375,60.12375)"/>
<path style="fill:none;stroke-width:1.19553;stroke-linecap:butt;stroke-linejoin:miter;stroke:rgb(65.098039%,65.098039%,65.098039%);stroke-opacity:1;stroke-miterlimit:10;" d="M -0.000875 28.345875 L 14.174125 42.520875 L 99.21475 42.520875 " transform="matrix(1.25,0,0,-1.25,6.97375,60.12375)"/>
<path style="fill:none;stroke-width:0.79701;stroke-linecap:butt;stroke-linejoin:miter;stroke:rgb(0%,0%,0%);stroke-opacity:1;stroke-miterlimit:10;" d="M 5.671 22.677125 L 5.671 7.499 " transform="matrix(1.25,0,0,-1.25,6.97375,60.12375)"/>
<path style=" stroke:none;fill-rule:nonzero;fill:rgb(0%,0%,0%);fill-opacity:1;" d="M 14.0625 56.582031 C 14.382812 54.851562 15.355469 52.046875 16.488281 50.101562 L 11.632812 50.101562 C 12.765625 52.046875 13.734375 54.851562 14.0625 56.582031 "/>
<path style=" stroke:none;fill-rule:nonzero;fill:rgb(0%,0%,0%);fill-opacity:1;" d="M 29.636719 53.476562 C 29.636719 52.753906 29.011719 52.167969 28.015625 52.050781 C 29.167969 51.835938 30.164062 51.074219 30.164062 50.195312 C 30.164062 49.453125 29.441406 48.808594 28.191406 48.808594 L 24.714844 48.808594 C 24.539062 48.808594 24.402344 48.808594 24.402344 48.984375 C 24.402344 49.140625 24.519531 49.140625 24.695312 49.140625 C 25.027344 49.140625 25.320312 49.140625 25.320312 49.296875 C 25.320312 49.335938 25.300781 49.335938 25.28125 49.472656 L 23.933594 54.824219 C 23.855469 55.195312 23.835938 55.273438 23.09375 55.273438 C 22.898438 55.273438 22.78125 55.273438 22.78125 55.46875 C 22.78125 55.605469 22.917969 55.605469 23.074219 55.605469 L 26.785156 55.605469 C 28.425781 55.605469 29.636719 54.433594 29.636719 53.476562 Z M 29.246094 50.175781 C 29.246094 51.015625 28.328125 51.933594 27.058594 51.933594 L 25.496094 51.933594 L 26.101562 49.492188 C 26.179688 49.160156 26.199219 49.140625 26.609375 49.140625 L 28.035156 49.140625 C 29.011719 49.140625 29.246094 49.765625 29.246094 50.175781 Z M 28.679688 53.398438 C 28.679688 54.375 27.722656 55.273438 26.53125 55.273438 L 24.8125 55.273438 C 24.714844 55.253906 24.675781 55.253906 24.675781 55.195312 C 24.675781 55.117188 24.695312 55.019531 24.714844 54.960938 L 25.417969 52.207031 L 27.449219 52.207031 C 28.367188 52.207031 28.679688 52.832031 28.679688 53.398438 Z M 28.679688 53.398438 "/>
<path style=" stroke:none;fill-rule:nonzero;fill:rgb(0%,0%,0%);fill-opacity:1;" d="M 35.820312 55.324219 C 35.820312 55.246094 35.761719 55.207031 35.683594 55.207031 C 35.585938 55.207031 35.566406 55.265625 35.527344 55.363281 C 35.15625 56.457031 34.765625 56.964844 33.4375 56.964844 L 31.914062 56.964844 L 36.40625 52.492188 C 36.464844 52.453125 36.523438 52.375 36.523438 52.257812 C 36.523438 52.160156 36.484375 52.160156 36.328125 52.160156 L 32.636719 52.160156 C 32.441406 52.160156 32.421875 52.160156 32.382812 52.335938 L 31.953125 53.683594 C 31.933594 53.722656 31.914062 53.78125 31.914062 53.800781 C 31.914062 53.917969 32.03125 53.917969 32.050781 53.917969 C 32.148438 53.917969 32.167969 53.898438 32.207031 53.761719 C 32.617188 52.648438 33.339844 52.472656 34.160156 52.472656 L 35.585938 52.472656 L 31.09375 56.925781 C 31.054688 56.964844 30.957031 57.0625 30.957031 57.179688 C 30.957031 57.277344 31.015625 57.277344 31.152344 57.277344 L 35.136719 57.277344 C 35.195312 57.238281 35.214844 57.21875 35.214844 57.21875 C 35.214844 57.21875 35.820312 55.382812 35.820312 55.324219 Z M 35.820312 55.324219 "/>
<path style="fill:none;stroke-width:0.79701;stroke-linecap:butt;stroke-linejoin:miter;stroke:rgb(0%,0%,0%);stroke-opacity:1;stroke-miterlimit:10;" d="M 5.671 22.677125 L 20.849125 22.677125 " transform="matrix(1.25,0,0,-1.25,6.97375,60.12375)"/>
<path style=" stroke:none;fill-rule:nonzero;fill:rgb(0%,0%,0%);fill-opacity:1;" d="M 38.863281 31.777344 C 37.140625 31.453125 34.332031 30.484375 32.386719 29.351562 L 32.386719 34.203125 C 34.332031 33.070312 37.140625 32.101562 38.863281 31.777344 "/>
<path style=" stroke:none;fill-rule:nonzero;fill:rgb(0%,0%,0%);fill-opacity:1;" d="M 50.894531 32.214844 C 50.894531 31.492188 50.269531 30.90625 49.273438 30.789062 C 50.425781 30.574219 51.421875 29.8125 51.421875 28.933594 C 51.421875 28.191406 50.699219 27.546875 49.449219 27.546875 L 45.972656 27.546875 C 45.796875 27.546875 45.660156 27.546875 45.660156 27.722656 C 45.660156 27.878906 45.777344 27.878906 45.953125 27.878906 C 46.285156 27.878906 46.578125 27.878906 46.578125 28.035156 C 46.578125 28.074219 46.558594 28.074219 46.539062 28.210938 L 45.191406 33.5625 C 45.113281 33.933594 45.09375 34.011719 44.351562 34.011719 C 44.15625 34.011719 44.039062 34.011719 44.039062 34.207031 C 44.039062 34.34375 44.175781 34.34375 44.332031 34.34375 L 48.042969 34.34375 C 49.683594 34.34375 50.894531 33.171875 50.894531 32.214844 Z M 50.503906 28.914062 C 50.503906 29.753906 49.585938 30.671875 48.316406 30.671875 L 46.753906 30.671875 L 47.359375 28.230469 C 47.4375 27.898438 47.457031 27.878906 47.867188 27.878906 L 49.292969 27.878906 C 50.269531 27.878906 50.503906 28.503906 50.503906 28.914062 Z M 49.9375 32.136719 C 49.9375 33.113281 48.980469 34.011719 47.789062 34.011719 L 46.070312 34.011719 C 45.972656 33.992188 45.933594 33.992188 45.933594 33.933594 C 45.933594 33.855469 45.953125 33.757812 45.972656 33.699219 L 46.675781 30.945312 L 48.707031 30.945312 C 49.625 30.945312 49.9375 31.570312 49.9375 32.136719 Z M 49.9375 32.136719 "/>
<path style=" stroke:none;fill-rule:nonzero;fill:rgb(0%,0%,0%);fill-opacity:1;" d="M 58 35.820312 C 58 35.722656 57.882812 35.722656 57.785156 35.722656 C 57.316406 35.722656 57.277344 35.644531 57.199219 35.507812 L 55.96875 33.261719 L 55.929688 33.164062 C 55.929688 33.164062 55.929688 33.164062 56.085938 33.007812 L 57.296875 31.835938 C 57.492188 31.660156 57.746094 31.484375 57.824219 31.445312 C 58.117188 31.269531 58.371094 31.210938 58.625 31.210938 C 58.742188 31.191406 58.839844 31.191406 58.839844 31.015625 C 58.839844 30.976562 58.78125 30.898438 58.722656 30.898438 C 58.488281 30.898438 58.214844 30.9375 57.980469 30.9375 L 57.53125 30.9375 C 57.394531 30.9375 57.238281 30.898438 57.082031 30.898438 C 57.042969 30.898438 56.925781 30.898438 56.925781 31.09375 C 56.925781 31.191406 57.023438 31.210938 57.0625 31.210938 C 57.160156 31.210938 57.296875 31.25 57.296875 31.386719 C 57.296875 31.484375 57.21875 31.542969 57.003906 31.777344 L 56.378906 32.34375 C 56.339844 32.402344 55.871094 32.851562 55.773438 32.910156 L 54.992188 31.464844 L 54.953125 31.367188 C 54.953125 31.328125 55.109375 31.210938 55.324219 31.210938 C 55.402344 31.210938 55.5 31.191406 55.5 31.015625 C 55.5 30.996094 55.5 30.898438 55.363281 30.898438 C 55.207031 30.898438 55.03125 30.9375 54.875 30.9375 L 54.367188 30.9375 C 54.210938 30.9375 54.074219 30.9375 53.917969 30.9375 C 53.761719 30.9375 53.605469 30.898438 53.46875 30.898438 C 53.390625 30.898438 53.292969 30.9375 53.292969 31.09375 C 53.292969 31.210938 53.390625 31.210938 53.546875 31.210938 C 53.976562 31.210938 54.015625 31.289062 54.09375 31.40625 L 55.207031 33.457031 C 55.050781 33.59375 54.679688 33.945312 54.425781 34.199219 C 53.175781 35.410156 52.902344 35.683594 52.179688 35.722656 C 52.082031 35.722656 51.984375 35.722656 51.984375 35.898438 C 51.984375 35.957031 52.023438 36.015625 52.101562 36.015625 C 52.316406 36.015625 52.589844 35.976562 52.824219 35.976562 C 53.039062 35.976562 53.527344 36.015625 53.722656 36.015625 C 53.761719 36.015625 53.898438 36.015625 53.898438 35.820312 C 53.898438 35.722656 53.800781 35.722656 53.761719 35.722656 C 53.644531 35.703125 53.507812 35.664062 53.507812 35.546875 C 53.507812 35.507812 53.527344 35.46875 53.605469 35.371094 C 53.605469 35.351562 53.644531 35.3125 53.644531 35.3125 L 55.34375 33.710938 L 56.300781 35.449219 C 56.339844 35.507812 56.359375 35.546875 56.359375 35.546875 C 56.359375 35.605469 56.203125 35.703125 55.96875 35.722656 C 55.910156 35.722656 55.792969 35.722656 55.792969 35.898438 C 55.792969 35.917969 55.8125 36.015625 55.929688 36.015625 C 56.085938 36.015625 56.261719 35.996094 56.417969 35.996094 L 56.925781 35.976562 C 57.082031 35.976562 57.21875 35.996094 57.375 35.996094 C 57.53125 35.996094 57.6875 36.015625 57.824219 36.015625 C 57.921875 36.015625 58 35.976562 58 35.820312 Z M 58 35.820312 "/>
</g>
</svg>
