<?xml version="1.0" encoding="UTF-8"?>
<!-- Converted by misc2svg (http://www.network-science.de/tools/misc2svg/) -->
<svg xmlns="http://www.w3.org/2000/svg" xmlns:xlink="http://www.w3.org/1999/xlink" width="233pt" height="164pt" viewBox="0 0 233 164" version="1.1">
<g id="misc2svg">
<path style="fill:none;stroke-width:0.3985;stroke-linecap:butt;stroke-linejoin:miter;stroke:rgb(0%,0%,0%);stroke-opacity:1;stroke-miterlimit:10;" d="M -0.0015 -0.0015 L -0.0015 30.614125 M -0.0015 54.426625 L -0.0015 85.039125 M -15.714 33.445375 L -15.714 51.595375 M -0.0015 85.039125 L 26.645375 85.039125 M 58.395375 85.039125 L 85.039125 85.039125 M 85.039125 85.039125 L 113.386 85.039125 " transform="matrix(1.25,0,0,-1.25,50.5175,139.63875)"/>
<path style="fill:none;stroke-width:0.797;stroke-linecap:butt;stroke-linejoin:miter;stroke:rgb(0%,0%,0%);stroke-opacity:1;stroke-miterlimit:10;" d="M -11.904625 42.520375 C -11.904625 35.945375 -6.573375 30.614125 -0.0015 30.614125 C 6.5735 30.614125 11.907875 35.945375 11.907875 42.520375 C 11.907875 49.095375 6.5735 54.426625 -0.0015 54.426625 C -6.573375 54.426625 -11.904625 49.095375 -11.904625 42.520375 Z M -0.0015 30.614125 L -0.0015 54.426625 " transform="matrix(1.25,0,0,-1.25,50.5175,139.63875)"/>
<path style="fill-rule:nonzero;fill:rgb(0%,0%,0%);fill-opacity:1;stroke-width:0.3985;stroke-linecap:butt;stroke-linejoin:miter;stroke:rgb(0%,0%,0%);stroke-opacity:1;stroke-miterlimit:10;" d="M -15.714 49.861 L -13.729625 49.861 L -15.714 54.0735 L -17.698375 49.861 L -15.714 49.861 " transform="matrix(1.25,0,0,-1.25,50.5175,139.63875)"/>
<path style=" stroke:none;fill-rule:nonzero;fill:rgb(0%,0%,0%);fill-opacity:1;" d="M 21.457031 86.726562 C 21.457031 86.726562 21.457031 86.589844 21.300781 86.589844 C 21.183594 86.589844 21.164062 86.667969 21.144531 86.746094 C 20.324219 88.582031 19.875 89.421875 17.746094 89.421875 L 15.929688 89.421875 C 15.753906 89.421875 15.714844 89.421875 15.65625 89.421875 C 15.519531 89.402344 15.480469 89.382812 15.480469 89.285156 C 15.480469 89.246094 15.480469 89.226562 15.539062 89.011719 L 16.398438 85.59375 L 17.628906 85.59375 C 18.683594 85.59375 18.683594 85.867188 18.683594 86.179688 C 18.683594 86.257812 18.683594 86.414062 18.605469 86.785156 C 18.585938 86.84375 18.566406 86.882812 18.566406 86.921875 C 18.566406 86.980469 18.605469 87.058594 18.722656 87.058594 C 18.820312 87.058594 18.859375 87 18.917969 86.804688 L 19.621094 83.894531 C 19.621094 83.816406 19.5625 83.757812 19.464844 83.757812 C 19.367188 83.757812 19.328125 83.835938 19.308594 83.972656 C 19.035156 84.929688 18.820312 85.222656 17.667969 85.222656 L 16.496094 85.222656 L 17.238281 82.214844 C 17.355469 81.765625 17.375 81.726562 17.921875 81.726562 L 19.679688 81.726562 C 21.183594 81.726562 21.574219 82.078125 21.574219 83.113281 C 21.574219 83.40625 21.574219 83.425781 21.515625 83.777344 C 21.515625 83.835938 21.496094 83.933594 21.496094 83.992188 C 21.496094 84.050781 21.535156 84.148438 21.652344 84.148438 C 21.789062 84.148438 21.808594 84.070312 21.828125 83.835938 L 22.082031 81.667969 C 22.121094 81.335938 22.0625 81.335938 21.75 81.335938 L 15.441406 81.335938 C 15.207031 81.335938 15.070312 81.335938 15.070312 81.589844 C 15.070312 81.726562 15.1875 81.726562 15.421875 81.726562 C 15.890625 81.726562 16.242188 81.726562 16.242188 81.941406 C 16.242188 82 16.242188 82.019531 16.164062 82.253906 L 14.523438 88.835938 C 14.40625 89.324219 14.386719 89.421875 13.390625 89.421875 C 13.175781 89.421875 13.039062 89.421875 13.039062 89.65625 C 13.039062 89.8125 13.15625 89.8125 13.390625 89.8125 L 19.855469 89.8125 C 20.148438 89.8125 20.167969 89.792969 20.246094 89.597656 L 21.398438 86.902344 C 21.417969 86.84375 21.457031 86.726562 21.457031 86.726562 Z M 21.457031 86.726562 "/>
<path style=" stroke:none;fill-rule:nonzero;fill:rgb(0%,0%,0%);fill-opacity:1;" d="M 26.257812 88.90625 C 26.257812 87.949219 26.140625 87.246094 25.75 86.640625 C 25.476562 86.25 24.929688 85.898438 24.246094 85.898438 C 22.214844 85.898438 22.214844 88.28125 22.214844 88.90625 C 22.214844 89.53125 22.214844 91.855469 24.246094 91.855469 C 26.257812 91.855469 26.257812 89.53125 26.257812 88.90625 Z M 25.476562 88.789062 C 25.476562 89.433594 25.476562 90.078125 25.359375 90.625 C 25.183594 91.425781 24.597656 91.601562 24.246094 91.601562 C 23.835938 91.601562 23.308594 91.367188 23.132812 90.664062 C 23.015625 90.15625 23.015625 89.433594 23.015625 88.789062 C 23.015625 88.144531 23.015625 87.480469 23.132812 87.011719 C 23.328125 86.328125 23.875 86.132812 24.246094 86.132812 C 24.714844 86.132812 25.164062 86.425781 25.320312 86.933594 C 25.457031 87.402344 25.476562 88.027344 25.476562 88.789062 Z M 25.476562 88.789062 "/>
<path style="fill:none;stroke-width:0.797;stroke-linecap:butt;stroke-linejoin:miter;stroke:rgb(0%,0%,0%);stroke-opacity:1;stroke-miterlimit:10;" d="M 26.645375 90.99225 L 58.395375 90.99225 L 58.395375 79.086 L 26.645375 79.086 L 26.645375 90.99225 Z M 26.645375 90.99225 " transform="matrix(1.25,0,0,-1.25,50.5175,139.63875)"/>
<path style=" stroke:none;fill-rule:nonzero;fill:rgb(0%,0%,0%);fill-opacity:1;" d="M 104.191406 11.992188 C 104.191406 12.421875 103.996094 13.28125 103.507812 13.769531 C 103.175781 14.082031 102.53125 14.492188 101.398438 14.492188 L 100.011719 14.492188 L 100.8125 11.230469 C 100.890625 10.9375 100.929688 10.820312 101.164062 10.78125 C 101.28125 10.761719 101.671875 10.761719 101.925781 10.761719 C 102.804688 10.761719 104.191406 10.761719 104.191406 11.992188 Z M 105.558594 17.734375 C 105.558594 17.578125 105.402344 17.578125 105.402344 17.578125 C 105.285156 17.578125 105.265625 17.65625 105.246094 17.753906 C 104.933594 18.671875 104.386719 18.886719 104.113281 18.886719 C 103.703125 18.886719 103.605469 18.613281 103.605469 18.125 C 103.605469 17.734375 103.683594 17.109375 103.742188 16.699219 C 103.761719 16.523438 103.78125 16.289062 103.78125 16.113281 C 103.78125 15.15625 102.941406 14.765625 102.609375 14.648438 C 103.878906 14.375 105.34375 13.496094 105.34375 12.246094 C 105.34375 11.171875 104.230469 10.371094 102.589844 10.371094 L 99.054688 10.371094 C 98.800781 10.371094 98.683594 10.371094 98.683594 10.625 C 98.683594 10.761719 98.800781 10.761719 99.035156 10.761719 C 99.035156 10.761719 99.289062 10.761719 99.503906 10.78125 C 99.738281 10.820312 99.835938 10.820312 99.835938 10.996094 C 99.835938 11.035156 99.835938 11.074219 99.796875 11.230469 L 98.117188 17.910156 C 98 18.398438 97.980469 18.496094 96.984375 18.496094 C 96.769531 18.496094 96.652344 18.496094 96.652344 18.75 C 96.652344 18.886719 96.828125 18.886719 96.828125 18.886719 L 98.390625 18.847656 L 99.992188 18.886719 C 100.089844 18.886719 100.226562 18.886719 100.226562 18.632812 C 100.226562 18.496094 100.128906 18.496094 99.875 18.496094 C 99.425781 18.496094 99.074219 18.496094 99.074219 18.28125 C 99.074219 18.203125 99.09375 18.144531 99.113281 18.066406 L 99.933594 14.765625 L 101.417969 14.765625 C 102.550781 14.765625 102.765625 15.46875 102.765625 15.898438 C 102.765625 16.074219 102.667969 16.464844 102.589844 16.757812 C 102.511719 17.109375 102.394531 17.558594 102.394531 17.8125 C 102.394531 19.160156 103.898438 19.160156 104.054688 19.160156 C 105.109375 19.160156 105.558594 17.910156 105.558594 17.734375 Z M 105.558594 17.734375 "/>
<path style=" stroke:none;fill-rule:nonzero;fill:rgb(0%,0%,0%);fill-opacity:1;" d="M 110.09375 17.980469 C 110.09375 17.023438 109.976562 16.320312 109.585938 15.714844 C 109.3125 15.324219 108.765625 14.972656 108.082031 14.972656 C 106.050781 14.972656 106.050781 17.355469 106.050781 17.980469 C 106.050781 18.605469 106.050781 20.929688 108.082031 20.929688 C 110.09375 20.929688 110.09375 18.605469 110.09375 17.980469 Z M 109.3125 17.863281 C 109.3125 18.507812 109.3125 19.152344 109.195312 19.699219 C 109.019531 20.5 108.433594 20.675781 108.082031 20.675781 C 107.671875 20.675781 107.144531 20.441406 106.96875 19.738281 C 106.851562 19.230469 106.851562 18.507812 106.851562 17.863281 C 106.851562 17.21875 106.851562 16.554688 106.96875 16.085938 C 107.164062 15.402344 107.710938 15.207031 108.082031 15.207031 C 108.550781 15.207031 109 15.5 109.15625 16.007812 C 109.292969 16.476562 109.3125 17.101562 109.3125 17.863281 Z M 109.3125 17.863281 "/>
<path style="fill:none;stroke-width:0.3985;stroke-linecap:butt;stroke-linejoin:miter;stroke:rgb(0%,0%,0%);stroke-opacity:1;stroke-miterlimit:10;" d="M 113.386 85.039125 L 113.386 58.395375 M 113.386 26.645375 L 113.386 -0.0015 M 113.386 -0.0015 L -0.0015 -0.0015 " transform="matrix(1.25,0,0,-1.25,50.5175,139.63875)"/>
<path style="fill:none;stroke-width:0.797;stroke-linecap:butt;stroke-linejoin:miter;stroke:rgb(0%,0%,0%);stroke-opacity:1;stroke-miterlimit:10;" d="M 107.432875 26.645375 L 107.432875 58.395375 L 119.339125 58.395375 L 119.339125 26.645375 L 107.432875 26.645375 Z M 107.432875 26.645375 " transform="matrix(1.25,0,0,-1.25,50.5175,139.63875)"/>
<path style=" stroke:none;fill-rule:nonzero;fill:rgb(0%,0%,0%);fill-opacity:1;" d="M 212.882812 82.917969 C 212.882812 83.347656 212.6875 84.207031 212.199219 84.695312 C 211.867188 85.007812 211.222656 85.417969 210.089844 85.417969 L 208.703125 85.417969 L 209.503906 82.15625 C 209.582031 81.863281 209.621094 81.746094 209.855469 81.707031 C 209.972656 81.6875 210.363281 81.6875 210.617188 81.6875 C 211.496094 81.6875 212.882812 81.6875 212.882812 82.917969 Z M 214.25 88.660156 C 214.25 88.503906 214.09375 88.503906 214.09375 88.503906 C 213.976562 88.503906 213.957031 88.582031 213.9375 88.679688 C 213.625 89.597656 213.078125 89.8125 212.804688 89.8125 C 212.394531 89.8125 212.296875 89.539062 212.296875 89.050781 C 212.296875 88.660156 212.375 88.035156 212.433594 87.625 C 212.453125 87.449219 212.472656 87.214844 212.472656 87.039062 C 212.472656 86.082031 211.632812 85.691406 211.300781 85.574219 C 212.570312 85.300781 214.035156 84.421875 214.035156 83.171875 C 214.035156 82.097656 212.921875 81.296875 211.28125 81.296875 L 207.746094 81.296875 C 207.492188 81.296875 207.375 81.296875 207.375 81.550781 C 207.375 81.6875 207.492188 81.6875 207.726562 81.6875 C 207.726562 81.6875 207.980469 81.6875 208.195312 81.707031 C 208.429688 81.746094 208.527344 81.746094 208.527344 81.921875 C 208.527344 81.960938 208.527344 82 208.488281 82.15625 L 206.808594 88.835938 C 206.691406 89.324219 206.671875 89.421875 205.675781 89.421875 C 205.460938 89.421875 205.34375 89.421875 205.34375 89.675781 C 205.34375 89.8125 205.519531 89.8125 205.519531 89.8125 L 207.082031 89.773438 L 208.683594 89.8125 C 208.78125 89.8125 208.917969 89.8125 208.917969 89.558594 C 208.917969 89.421875 208.820312 89.421875 208.566406 89.421875 C 208.117188 89.421875 207.765625 89.421875 207.765625 89.207031 C 207.765625 89.128906 207.785156 89.070312 207.804688 88.992188 L 208.625 85.691406 L 210.109375 85.691406 C 211.242188 85.691406 211.457031 86.394531 211.457031 86.824219 C 211.457031 87 211.359375 87.390625 211.28125 87.683594 C 211.203125 88.035156 211.085938 88.484375 211.085938 88.738281 C 211.085938 90.085938 212.589844 90.085938 212.746094 90.085938 C 213.800781 90.085938 214.25 88.835938 214.25 88.660156 Z M 214.25 88.660156 "/>
<path style=" stroke:none;fill-rule:nonzero;fill:rgb(0%,0%,0%);fill-opacity:1;" d="M 221.085938 87.851562 L 221.632812 85.664062 C 221.632812 85.625 221.613281 85.546875 221.515625 85.546875 C 221.457031 85.546875 221.4375 85.566406 221.359375 85.664062 L 220.734375 86.328125 C 220.65625 86.230469 220.167969 85.546875 219.09375 85.546875 C 216.964844 85.546875 214.894531 87.421875 214.894531 89.394531 C 214.894531 90.820312 216.007812 91.855469 217.570312 91.855469 C 218.039062 91.855469 218.878906 91.757812 219.777344 90.996094 C 220.460938 90.410156 220.65625 89.667969 220.65625 89.589844 C 220.65625 89.472656 220.558594 89.472656 220.5 89.472656 C 220.402344 89.472656 220.382812 89.511719 220.34375 89.609375 C 219.992188 90.800781 218.78125 91.542969 217.726562 91.542969 C 216.789062 91.542969 215.773438 91.035156 215.773438 89.667969 C 215.773438 89.414062 215.832031 88.046875 216.828125 86.933594 C 217.433594 86.269531 218.351562 85.878906 219.171875 85.878906 C 220.1875 85.878906 220.773438 86.601562 220.773438 87.578125 C 220.773438 87.8125 220.753906 87.890625 220.753906 87.929688 C 220.753906 88.046875 220.871094 88.046875 220.910156 88.046875 C 221.046875 88.046875 221.046875 88.027344 221.085938 87.851562 Z M 221.085938 87.851562 "/>
<path style=" stroke:none;fill-rule:nonzero;fill:rgb(74.901961%,74.901961%,74.901961%);fill-opacity:0.501961;" d="M 6.226562 157.351562 L 6.226562 6.761719 L 139.101562 6.761719 L 139.101562 157.351562 L 6.226562 157.351562 Z M 6.226562 157.351562 "/>
<path style=" stroke:none;fill-rule:nonzero;fill:rgb(0%,0%,0%);fill-opacity:1;" d="M 63.238281 149.898438 C 63.238281 149.15625 62.457031 148.511719 61.402344 148.394531 C 62.261719 148.238281 62.964844 147.710938 62.964844 147.027344 C 62.964844 146.246094 62.046875 145.542969 60.835938 145.542969 L 57.417969 145.542969 L 57.417969 145.855469 L 57.613281 145.855469 C 58.296875 145.855469 58.316406 145.953125 58.316406 146.265625 L 58.316406 150.796875 C 58.316406 151.089844 58.296875 151.1875 57.613281 151.1875 L 57.417969 151.1875 L 57.417969 151.5 L 61.109375 151.5 C 62.339844 151.5 63.238281 150.738281 63.238281 149.898438 Z M 62.105469 147.027344 C 62.105469 147.652344 61.519531 148.277344 60.523438 148.277344 L 59.078125 148.277344 L 59.078125 146.207031 C 59.078125 145.933594 59.078125 145.855469 59.488281 145.855469 L 60.777344 145.855469 C 61.65625 145.855469 62.105469 146.480469 62.105469 147.027344 Z M 62.339844 149.878906 C 62.339844 150.523438 61.753906 151.1875 60.796875 151.1875 L 59.488281 151.1875 C 59.078125 151.1875 59.078125 151.109375 59.078125 150.855469 L 59.078125 148.53125 L 60.933594 148.53125 C 61.851562 148.53125 62.339844 149.273438 62.339844 149.878906 Z M 62.339844 149.878906 "/>
<path style=" stroke:none;fill-rule:nonzero;fill:rgb(0%,0%,0%);fill-opacity:1;" d="M 68.460938 149.644531 C 68.460938 148.550781 67.523438 147.613281 66.332031 147.613281 C 65.121094 147.613281 64.183594 148.550781 64.183594 149.644531 C 64.183594 150.71875 65.140625 151.578125 66.332031 151.578125 C 67.503906 151.578125 68.460938 150.71875 68.460938 149.644531 Z M 67.660156 149.566406 C 67.660156 149.976562 67.640625 150.445312 67.386719 150.796875 C 67.152344 151.128906 66.761719 151.304688 66.332031 151.304688 C 66 151.304688 65.53125 151.207031 65.238281 150.777344 C 65.003906 150.425781 64.984375 149.976562 64.984375 149.566406 C 64.984375 149.195312 64.984375 148.667969 65.296875 148.296875 C 65.511719 148.042969 65.882812 147.867188 66.332031 147.867188 C 66.839844 147.867188 67.210938 148.101562 67.40625 148.375 C 67.640625 148.707031 67.660156 149.15625 67.660156 149.566406 Z M 67.660156 149.566406 "/>
<path style=" stroke:none;fill-rule:nonzero;fill:rgb(0%,0%,0%);fill-opacity:1;" d="M 71.199219 151.5 L 71.199219 151.1875 C 70.691406 151.1875 70.613281 151.1875 70.613281 150.816406 L 70.613281 147.652344 L 69.324219 147.75 L 69.324219 148.0625 C 69.871094 148.0625 69.949219 148.121094 69.949219 148.550781 L 69.949219 150.816406 C 69.949219 151.1875 69.871094 151.1875 69.304688 151.1875 L 69.304688 151.5 C 69.304688 151.5 69.929688 151.460938 70.28125 151.460938 C 70.59375 151.460938 70.90625 151.480469 71.199219 151.5 Z M 71.550781 146.910156 L 70.222656 145.484375 L 68.894531 146.910156 L 69.011719 147.027344 L 70.222656 146.089844 L 71.433594 147.027344 L 71.550781 146.910156 Z M 71.550781 146.910156 "/>
<path style=" stroke:none;fill-rule:nonzero;fill:rgb(0%,0%,0%);fill-opacity:1;" d="M 74.894531 150.40625 L 74.894531 149.917969 L 74.601562 149.917969 L 74.601562 150.386719 C 74.601562 150.992188 74.328125 151.304688 73.976562 151.304688 C 73.390625 151.304688 73.390625 150.582031 73.390625 150.425781 L 73.390625 148.0625 L 74.738281 148.0625 L 74.738281 147.75 L 73.390625 147.75 L 73.390625 146.148438 L 73.078125 146.148438 C 73.078125 146.929688 72.726562 147.789062 71.886719 147.808594 L 71.886719 148.0625 L 72.6875 148.0625 L 72.6875 150.40625 C 72.6875 151.382812 73.429688 151.578125 73.917969 151.578125 C 74.503906 151.578125 74.894531 151.089844 74.894531 150.40625 Z M 74.894531 150.40625 "/>
<path style=" stroke:none;fill-rule:nonzero;fill:rgb(0%,0%,0%);fill-opacity:1;" d="M 77.910156 151.5 L 77.910156 151.1875 C 77.402344 151.1875 77.324219 151.1875 77.324219 150.816406 L 77.324219 147.652344 L 76.035156 147.75 L 76.035156 148.0625 C 76.582031 148.0625 76.660156 148.121094 76.660156 148.550781 L 76.660156 150.816406 C 76.660156 151.1875 76.582031 151.1875 76.015625 151.1875 L 76.015625 151.5 C 76.015625 151.5 76.640625 151.460938 76.992188 151.460938 C 77.304688 151.460938 77.617188 151.480469 77.910156 151.5 Z M 77.441406 146.265625 C 77.441406 145.972656 77.226562 145.757812 76.933594 145.757812 C 76.640625 145.757812 76.445312 145.992188 76.445312 146.246094 C 76.445312 146.519531 76.660156 146.753906 76.933594 146.753906 C 77.226562 146.753906 77.441406 146.5 77.441406 146.265625 Z M 77.441406 146.265625 "/>
<path style=" stroke:none;fill-rule:nonzero;fill:rgb(0%,0%,0%);fill-opacity:1;" d="M 82.425781 150.445312 C 82.425781 150.425781 82.40625 150.328125 82.269531 150.328125 C 82.152344 150.328125 82.132812 150.386719 82.113281 150.464844 C 81.839844 151.167969 81.175781 151.304688 80.863281 151.304688 C 80.453125 151.304688 80.0625 151.128906 79.808594 150.796875 C 79.476562 150.386719 79.476562 149.859375 79.476562 149.507812 L 82.171875 149.507812 C 82.367188 149.507812 82.425781 149.507812 82.425781 149.332031 C 82.425781 148.550781 81.996094 147.613281 80.6875 147.613281 C 79.554688 147.613281 78.675781 148.511719 78.675781 149.585938 C 78.675781 150.699219 79.652344 151.578125 80.804688 151.578125 C 81.976562 151.578125 82.425781 150.640625 82.425781 150.445312 Z M 81.820312 149.292969 L 79.476562 149.292969 C 79.574219 148.0625 80.355469 147.867188 80.6875 147.867188 C 81.761719 147.867188 81.800781 149.078125 81.820312 149.292969 Z M 81.820312 149.292969 "/>
<path style=" stroke:none;fill-rule:nonzero;fill:rgb(0%,0%,0%);fill-opacity:1;" d="M 86.328125 148.21875 C 86.328125 147.925781 86.035156 147.652344 85.625 147.652344 C 85.195312 147.652344 84.707031 147.925781 84.453125 148.589844 L 84.453125 148.589844 L 84.453125 147.652344 L 83.203125 147.75 L 83.203125 148.0625 C 83.789062 148.0625 83.847656 148.121094 83.847656 148.550781 L 83.847656 150.816406 C 83.847656 151.1875 83.769531 151.1875 83.203125 151.1875 L 83.203125 151.5 C 83.242188 151.5 83.828125 151.460938 84.199219 151.460938 L 85.332031 151.5 L 85.332031 151.1875 L 85.15625 151.1875 C 84.511719 151.1875 84.511719 151.089844 84.511719 150.796875 L 84.511719 149.507812 C 84.511719 148.785156 84.84375 147.90625 85.683594 147.90625 C 85.605469 147.964844 85.527344 148.082031 85.527344 148.21875 C 85.527344 148.511719 85.761719 148.609375 85.917969 148.609375 C 86.132812 148.609375 86.328125 148.472656 86.328125 148.21875 Z M 86.328125 148.21875 "/>
<path style="fill:none;stroke-width:0.3985;stroke-linecap:butt;stroke-linejoin:miter;stroke:rgb(0%,0%,0%);stroke-opacity:1;stroke-miterlimit:10;" d="M 85.039125 85.039125 L 87.126625 85.039125 " transform="matrix(1.25,0,0,-1.25,50.5175,139.63875)"/>
<path style=" stroke:none;fill-rule:nonzero;fill:rgb(0%,0%,0%);fill-opacity:1;" d="M 163.90625 33.339844 C 162.578125 33.089844 160.421875 32.34375 158.921875 31.46875 L 158.921875 35.203125 C 160.421875 34.335938 162.578125 33.589844 163.90625 33.339844 "/>
<path style=" stroke:none;fill-rule:nonzero;fill:rgb(0%,0%,0%);fill-opacity:1;" d="M 165.292969 21.148438 C 165.292969 20.894531 165.117188 20.699219 164.84375 20.699219 C 164.492188 20.699219 164.160156 21.03125 164.160156 21.363281 C 164.160156 21.597656 164.335938 21.8125 164.628906 21.8125 C 164.921875 21.8125 165.292969 21.519531 165.292969 21.148438 Z M 165.410156 27.164062 C 165.410156 27.027344 165.292969 27.027344 165.253906 27.027344 C 165.136719 27.027344 165.136719 27.066406 165.078125 27.261719 C 164.84375 28.042969 164.433594 28.804688 163.808594 28.804688 C 163.59375 28.804688 163.496094 28.6875 163.496094 28.394531 C 163.496094 28.082031 163.574219 27.90625 163.867188 27.144531 L 164.355469 25.835938 C 164.492188 25.484375 164.492188 25.445312 164.628906 25.113281 C 164.726562 24.859375 164.785156 24.683594 164.785156 24.449219 C 164.785156 23.902344 164.394531 23.433594 163.769531 23.433594 C 162.597656 23.433594 162.128906 25.25 162.128906 25.347656 C 162.128906 25.484375 162.265625 25.484375 162.265625 25.484375 C 162.402344 25.484375 162.402344 25.445312 162.460938 25.25 C 162.8125 24.078125 163.300781 23.707031 163.730469 23.707031 C 163.828125 23.707031 164.042969 23.707031 164.042969 24.097656 C 164.042969 24.371094 163.945312 24.625 163.90625 24.761719 C 163.808594 25.074219 163.242188 26.519531 163.046875 27.066406 C 162.910156 27.378906 162.753906 27.789062 162.753906 28.0625 C 162.753906 28.648438 163.183594 29.078125 163.769531 29.078125 C 164.941406 29.078125 165.410156 27.28125 165.410156 27.164062 Z M 165.410156 27.164062 "/>
<path style="fill:none;stroke-width:0.3985;stroke-linecap:butt;stroke-linejoin:miter;stroke:rgb(0%,0%,0%);stroke-opacity:1;stroke-miterlimit:10;" d="M 92.12975 7.086 L 92.12975 74.36725 " transform="matrix(1.25,0,0,-1.25,50.5175,139.63875)"/>
<path style=" stroke:none;fill-rule:nonzero;fill:rgb(0%,0%,0%);fill-opacity:1;" d="M 165.679688 42.195312 C 165.429688 43.523438 164.679688 45.683594 163.808594 47.179688 L 167.542969 47.179688 C 166.675781 45.683594 165.929688 43.523438 165.679688 42.195312 "/>
<path style=" stroke:none;fill-rule:nonzero;fill:rgb(0%,0%,0%);fill-opacity:1;" d="M 160.886719 82.367188 C 160.886719 82.367188 160.886719 82.230469 160.730469 82.230469 C 160.320312 82.230469 159.871094 82.269531 159.460938 82.269531 C 159.03125 82.269531 158.5625 82.230469 158.152344 82.230469 C 158.074219 82.230469 157.9375 82.230469 157.9375 82.484375 C 157.9375 82.621094 158.054688 82.621094 158.152344 82.621094 C 158.875 82.640625 159.011719 82.894531 159.011719 83.167969 C 159.011719 83.207031 158.972656 83.402344 158.972656 83.421875 L 157.839844 87.875 C 157.429688 89.554688 155.984375 90.628906 154.734375 90.628906 C 153.894531 90.628906 153.230469 90.082031 153.230469 89.007812 C 153.230469 89.007812 153.230469 88.597656 153.367188 88.050781 L 154.558594 83.1875 C 154.675781 82.738281 154.695312 82.621094 155.613281 82.621094 C 155.945312 82.621094 156.042969 82.621094 156.042969 82.367188 C 156.042969 82.230469 155.90625 82.230469 155.867188 82.230469 L 154.265625 82.269531 L 152.664062 82.230469 C 152.566406 82.230469 152.429688 82.230469 152.429688 82.484375 C 152.429688 82.621094 152.527344 82.621094 152.78125 82.621094 C 152.78125 82.621094 153.035156 82.621094 153.25 82.640625 C 153.464844 82.679688 153.582031 82.679688 153.582031 82.855469 C 153.582031 82.914062 153.445312 83.441406 153.367188 83.734375 L 153.09375 84.828125 L 152.332031 87.914062 C 152.253906 88.246094 152.253906 88.441406 152.253906 88.636719 C 152.253906 90.140625 153.386719 91.019531 154.695312 91.019531 C 156.257812 91.019531 157.800781 89.613281 158.210938 87.972656 L 159.324219 83.539062 C 159.460938 83.03125 159.675781 82.660156 160.671875 82.621094 C 160.730469 82.621094 160.886719 82.601562 160.886719 82.367188 Z M 160.886719 82.367188 "/>
</g>
</svg>
