<?xml version="1.0" encoding="UTF-8"?>
<!-- Converted by misc2svg (http://www.network-science.de/tools/misc2svg/) -->
<svg xmlns="http://www.w3.org/2000/svg" xmlns:xlink="http://www.w3.org/1999/xlink" width="200pt" height="155pt" viewBox="0 0 200 155" version="1.1">
<g id="misc2svg">
<path style=" stroke:none;fill-rule:nonzero;fill:rgb(70.196078%,70.196078%,70.196078%);fill-opacity:1;" d="M 71.035156 41.90625 C 68.714844 35.617188 63.824219 31.695312 60.25 28.25 L 65.121094 23.550781 C 69.261719 25.953125 74 31.480469 76.855469 38.882812 L 71.035156 41.90625 Z M 71.035156 41.90625 "/>
<path style="fill:none;stroke-width:1.899633;stroke-linecap:butt;stroke-linejoin:round;stroke:rgb(0%,0%,0%);stroke-opacity:1;stroke-miterlimit:4;" d="M -22.088957 -63.431621 C -22.085324 -37.956602 -42.749146 -17.29949 -68.224389 -17.298894 C -93.705008 -17.301451 -114.355045 -37.956766 -114.358678 -63.431785 C -114.356786 -88.913025 -93.703865 -109.56707 -68.228622 -109.567666 C -42.742527 -109.568205 -22.087065 -88.912861 -22.088957 -63.431621 Z M -22.088957 -63.431621 " transform="matrix(-0.719909,0.00656416,-0.0113976,-1.25,0,0)"/>
<path style="fill-rule:nonzero;fill:rgb(0%,0%,0%);fill-opacity:1;stroke-width:1.6;stroke-linecap:butt;stroke-linejoin:round;stroke:rgb(0%,0%,0%);stroke-opacity:1;stroke-miterlimit:4;" d="M 41.0125 63.075 C 41.0125 63.70625 40.5 64.21875 39.871875 64.21875 C 39.2375 64.21875 38.725 63.70625 38.725 63.075 C 38.725 62.44375 39.2375 61.934375 39.871875 61.934375 C 40.5 61.934375 41.0125 62.44375 41.0125 63.075 Z M 41.0125 63.075 " transform="matrix(1.25,0,0,1.25,0,0)"/>
<path style=" stroke:none;fill-rule:nonzero;fill:rgb(0%,0%,0%);fill-opacity:1;" d="M 42.664062 72.398438 C 42.664062 73.234375 42.566406 73.980469 42.371094 74.644531 C 42.175781 75.308594 41.882812 75.875 41.492188 76.34375 C 41.101562 76.8125 40.613281 77.179688 40.027344 77.4375 C 39.441406 77.679688 38.757812 77.808594 37.976562 77.808594 C 37.203125 77.808594 36.535156 77.691406 35.964844 77.457031 C 35.402344 77.222656 34.9375 76.890625 34.578125 76.460938 C 34.210938 76.019531 33.9375 75.472656 33.757812 74.820312 C 33.570312 74.171875 33.484375 73.421875 33.484375 72.574219 C 33.484375 71.769531 33.582031 71.03125 33.777344 70.367188 C 33.972656 69.703125 34.265625 69.144531 34.65625 68.6875 C 35.046875 68.21875 35.535156 67.863281 36.121094 67.613281 C 36.714844 67.367188 37.410156 67.242188 38.191406 67.242188 C 38.941406 67.242188 39.601562 67.359375 40.164062 67.59375 C 40.71875 67.816406 41.183594 68.148438 41.550781 68.589844 C 41.925781 69.019531 42.203125 69.554688 42.390625 70.191406 C 42.570312 70.832031 42.664062 71.566406 42.664062 72.398438 Z M 41.238281 72.496094 C 41.238281 71.910156 41.183594 71.371094 41.082031 70.875 C 40.972656 70.367188 40.796875 69.933594 40.554688 69.566406 C 40.320312 69.203125 39.996094 68.917969 39.597656 68.707031 C 39.191406 68.5 38.699219 68.394531 38.113281 68.394531 C 37.511719 68.394531 37.007812 68.507812 36.609375 68.726562 C 36.203125 68.949219 35.875 69.25 35.632812 69.625 C 35.382812 69.992188 35.203125 70.421875 35.085938 70.914062 C 34.976562 71.410156 34.929688 71.929688 34.929688 72.476562 C 34.929688 73.078125 34.976562 73.628906 35.085938 74.136719 C 35.1875 74.644531 35.359375 75.089844 35.59375 75.464844 C 35.828125 75.832031 36.144531 76.117188 36.550781 76.324219 C 36.949219 76.519531 37.453125 76.617188 38.054688 76.617188 C 38.648438 76.617188 39.152344 76.507812 39.558594 76.285156 C 39.957031 76.066406 40.285156 75.765625 40.535156 75.386719 C 40.777344 75.011719 40.953125 74.574219 41.0625 74.078125 C 41.179688 73.585938 41.238281 73.058594 41.238281 72.496094 Z M 41.238281 72.496094 "/>
<path style="fill:none;stroke-width:1.366299;stroke-linecap:butt;stroke-linejoin:miter;stroke:rgb(0%,0%,0%);stroke-opacity:1;stroke-miterlimit:4;" d="M 39.98125 63.1 L 155.94375 63.1 " transform="matrix(1.25,0,0,1.25,0,0)"/>
<path style="fill-rule:evenodd;fill:rgb(0%,0%,0%);fill-opacity:1;stroke-width:0.68315;stroke-linecap:butt;stroke-linejoin:miter;stroke:rgb(0%,0%,0%);stroke-opacity:1;stroke-miterlimit:4;" d="M 159.096875 63.1 L 154.371875 65.8375 L 154.371875 60.371875 L 159.096875 63.1 Z M 159.096875 63.1 " transform="matrix(1.25,0,0,1.25,0,0)"/>
<path style=" stroke:none;fill-rule:nonzero;fill:rgb(0%,0%,0%);fill-opacity:1;" d="M 198.234375 93.09375 C 198.234375 93.1875 198.222656 93.269531 198.214844 93.347656 C 198.199219 93.417969 198.179688 93.476562 198.15625 93.523438 C 198.140625 93.5625 198.117188 93.597656 198.078125 93.621094 C 198.039062 93.636719 198 93.640625 197.960938 93.640625 L 193.566406 93.640625 C 193.449219 93.640625 193.351562 93.613281 193.273438 93.542969 C 193.203125 93.464844 193.175781 93.339844 193.175781 93.152344 L 193.175781 92.878906 C 193.175781 92.816406 193.179688 92.757812 193.195312 92.703125 C 193.203125 92.640625 193.21875 92.582031 193.234375 92.527344 C 193.257812 92.464844 193.292969 92.402344 193.332031 92.332031 C 193.371094 92.269531 193.414062 92.191406 193.46875 92.097656 L 196.613281 87.195312 L 193.566406 87.195312 C 193.472656 87.195312 193.398438 87.15625 193.351562 87.078125 C 193.296875 86.992188 193.273438 86.84375 193.273438 86.648438 C 193.273438 86.546875 193.277344 86.464844 193.292969 86.394531 C 193.300781 86.316406 193.320312 86.257812 193.351562 86.21875 C 193.375 86.171875 193.398438 86.136719 193.429688 86.121094 C 193.46875 86.113281 193.511719 86.101562 193.566406 86.101562 L 197.648438 86.101562 C 197.710938 86.101562 197.765625 86.113281 197.804688 86.121094 C 197.851562 86.136719 197.890625 86.160156 197.921875 86.199219 C 197.960938 86.238281 197.984375 86.292969 198 86.355469 C 198.007812 86.410156 198.019531 86.484375 198.019531 86.570312 L 198.019531 86.824219 C 198.019531 86.894531 198.007812 86.957031 198 87.019531 C 198 87.089844 197.984375 87.152344 197.960938 87.214844 C 197.945312 87.269531 197.921875 87.332031 197.882812 87.410156 C 197.84375 87.480469 197.792969 87.546875 197.746094 87.625 L 194.601562 92.546875 L 197.960938 92.546875 C 198 92.546875 198.027344 92.558594 198.058594 92.566406 C 198.097656 92.582031 198.125 92.617188 198.15625 92.664062 C 198.179688 92.703125 198.199219 92.761719 198.214844 92.839844 C 198.222656 92.910156 198.234375 92.992188 198.234375 93.09375 Z M 198.234375 93.09375 "/>
<path style="fill-rule:nonzero;fill:rgb(0%,0%,100%);fill-opacity:1;stroke-width:0.8;stroke-linecap:butt;stroke-linejoin:miter;stroke:rgb(0%,0%,100%);stroke-opacity:1;stroke-miterlimit:4;" d="M 101.74375 62.953125 L 115.74375 42.378125 " transform="matrix(1.25,0,0,1.25,0,0)"/>
<path style="fill-rule:evenodd;fill:rgb(0%,0%,100%);fill-opacity:1;stroke-width:0.66137;stroke-linecap:butt;stroke-linejoin:miter;stroke:rgb(0%,0%,100%);stroke-opacity:1;stroke-miterlimit:4;" d="M 27.921916 98.816322 L 23.345415 101.459013 L 23.344345 96.172241 L 27.921916 98.816322 Z M 27.921916 98.816322 " transform="matrix(0.850695,-1.25,1.25,0.850695,0,0)"/>
<path style="fill-rule:nonzero;fill:rgb(0%,0%,0%);fill-opacity:1;stroke-width:1.6;stroke-linecap:butt;stroke-linejoin:round;stroke:rgb(0%,0%,0%);stroke-opacity:1;stroke-miterlimit:4;" d="M 103.2 62.975 C 103.2 63.60625 102.6875 64.11875 102.05625 64.11875 C 101.425 64.11875 100.9125 63.60625 100.9125 62.975 C 100.9125 62.34375 101.425 61.83125 102.05625 61.83125 C 102.6875 61.83125 103.2 62.34375 103.2 62.975 Z M 103.2 62.975 " transform="matrix(1.25,0,0,1.25,0,0)"/>
<path style=" stroke:none;fill-rule:nonzero;fill:rgb(0%,0%,0%);fill-opacity:1;" d="M 143.746094 95.117188 C 143.746094 95.171875 143.730469 95.214844 143.707031 95.253906 C 143.691406 95.285156 143.65625 95.304688 143.609375 95.3125 C 143.554688 95.328125 143.492188 95.335938 143.414062 95.351562 C 143.335938 95.363281 143.222656 95.371094 143.082031 95.371094 C 142.964844 95.371094 142.855469 95.363281 142.769531 95.351562 C 142.691406 95.335938 142.621094 95.328125 142.574219 95.3125 C 142.519531 95.304688 142.480469 95.285156 142.457031 95.253906 C 142.441406 95.214844 142.4375 95.171875 142.4375 95.117188 L 142.4375 86.191406 L 142.417969 86.191406 L 138.765625 95.15625 C 138.734375 95.195312 138.710938 95.230469 138.6875 95.253906 C 138.65625 95.285156 138.613281 95.308594 138.550781 95.332031 C 138.496094 95.34375 138.433594 95.351562 138.355469 95.351562 C 138.285156 95.363281 138.199219 95.371094 138.082031 95.371094 C 137.972656 95.371094 137.886719 95.363281 137.808594 95.351562 C 137.730469 95.351562 137.660156 95.34375 137.613281 95.332031 C 137.558594 95.308594 137.515625 95.285156 137.476562 95.253906 C 137.445312 95.230469 137.425781 95.195312 137.417969 95.15625 L 133.921875 86.191406 L 133.921875 86.191406 L 133.921875 95.117188 C 133.921875 95.171875 133.90625 95.214844 133.882812 95.253906 C 133.851562 95.285156 133.8125 95.304688 133.765625 95.3125 C 133.710938 95.328125 133.636719 95.335938 133.550781 95.351562 C 133.472656 95.363281 133.363281 95.371094 133.238281 95.371094 C 133.105469 95.371094 132.992188 95.363281 132.90625 95.351562 C 132.828125 95.335938 132.757812 95.328125 132.710938 95.3125 C 132.671875 95.304688 132.636719 95.285156 132.613281 95.253906 C 132.597656 95.214844 132.59375 95.171875 132.59375 95.117188 L 132.59375 85.683594 C 132.59375 85.464844 132.652344 85.308594 132.769531 85.214844 C 132.886719 85.113281 133.011719 85.058594 133.160156 85.058594 L 133.980469 85.058594 C 134.144531 85.058594 134.292969 85.078125 134.410156 85.117188 C 134.535156 85.148438 134.648438 85.195312 134.742188 85.273438 C 134.84375 85.34375 134.925781 85.425781 134.996094 85.527344 C 135.058594 85.636719 135.117188 85.757812 135.171875 85.898438 L 138.140625 93.339844 L 138.179688 93.339844 L 141.265625 85.917969 C 141.328125 85.761719 141.390625 85.636719 141.460938 85.527344 C 141.523438 85.410156 141.597656 85.324219 141.675781 85.253906 C 141.761719 85.191406 141.855469 85.148438 141.949219 85.117188 C 142.050781 85.078125 142.171875 85.058594 142.320312 85.058594 L 143.179688 85.058594 C 143.257812 85.058594 143.324219 85.074219 143.394531 85.097656 C 143.472656 85.128906 143.535156 85.167969 143.589844 85.214844 C 143.636719 85.269531 143.675781 85.332031 143.707031 85.410156 C 143.730469 85.480469 143.746094 85.566406 143.746094 85.683594 L 143.746094 95.117188 Z M 143.746094 95.117188 "/>
<path style=" stroke:none;fill-rule:nonzero;fill:rgb(0%,0%,100%);fill-opacity:1;" d="M 144.082031 44.539062 C 144.082031 44.59375 144.066406 44.636719 144.042969 44.675781 C 144.027344 44.707031 143.992188 44.730469 143.945312 44.753906 C 143.90625 44.765625 143.847656 44.78125 143.769531 44.792969 C 143.691406 44.804688 143.59375 44.8125 143.476562 44.8125 C 143.359375 44.8125 143.25 44.804688 143.164062 44.792969 C 143.085938 44.78125 143.015625 44.765625 142.96875 44.753906 C 142.914062 44.730469 142.875 44.707031 142.851562 44.675781 C 142.835938 44.636719 142.832031 44.59375 142.832031 44.539062 L 142.832031 43.523438 C 142.425781 43.96875 142 44.316406 141.5625 44.558594 C 141.132812 44.792969 140.652344 44.910156 140.136719 44.910156 C 139.574219 44.910156 139.089844 44.804688 138.691406 44.597656 C 138.300781 44.378906 137.976562 44.082031 137.734375 43.699219 C 137.484375 43.324219 137.304688 42.890625 137.1875 42.390625 C 137.070312 41.882812 137.011719 41.351562 137.011719 40.789062 C 137.011719 40.125 137.078125 39.53125 137.226562 38.992188 C 137.367188 38.460938 137.578125 38.011719 137.851562 37.644531 C 138.132812 37.269531 138.480469 36.980469 138.886719 36.785156 C 139.300781 36.582031 139.785156 36.472656 140.332031 36.472656 C 140.769531 36.472656 141.179688 36.570312 141.5625 36.765625 C 141.9375 36.960938 142.308594 37.25 142.675781 37.625 L 142.675781 33.152344 C 142.675781 33.113281 142.679688 33.085938 142.695312 33.054688 C 142.71875 33.015625 142.757812 32.988281 142.8125 32.957031 C 142.859375 32.933594 142.933594 32.914062 143.027344 32.898438 C 143.113281 32.890625 143.230469 32.878906 143.378906 32.878906 C 143.503906 32.878906 143.617188 32.890625 143.710938 32.898438 C 143.796875 32.914062 143.871094 32.933594 143.925781 32.957031 C 143.972656 32.988281 144.011719 33.015625 144.042969 33.054688 C 144.066406 33.085938 144.082031 33.113281 144.082031 33.152344 L 144.082031 44.539062 Z M 142.675781 39.128906 C 142.285156 38.660156 141.914062 38.304688 141.5625 38.054688 C 141.210938 37.8125 140.839844 37.683594 140.449219 37.683594 C 140.082031 37.683594 139.773438 37.773438 139.53125 37.9375 C 139.28125 38.109375 139.082031 38.339844 138.925781 38.621094 C 138.769531 38.894531 138.652344 39.207031 138.574219 39.558594 C 138.503906 39.910156 138.476562 40.273438 138.476562 40.632812 C 138.476562 41.023438 138.5 41.410156 138.554688 41.785156 C 138.617188 42.152344 138.71875 42.480469 138.867188 42.761719 C 139.023438 43.050781 139.21875 43.285156 139.453125 43.464844 C 139.695312 43.636719 140.007812 43.71875 140.390625 43.71875 C 140.570312 43.71875 140.746094 43.695312 140.917969 43.640625 C 141.097656 43.59375 141.277344 43.503906 141.464844 43.386719 C 141.644531 43.261719 141.835938 43.105469 142.03125 42.917969 C 142.234375 42.722656 142.449219 42.488281 142.675781 42.214844 L 142.675781 39.128906 Z M 142.675781 39.128906 "/>
<path style=" stroke:none;fill-rule:nonzero;fill:rgb(0%,0%,100%);fill-opacity:1;" d="M 154.1875 41.589844 C 154.1875 41.933594 154.136719 42.25 154.050781 42.546875 C 153.972656 42.835938 153.84375 43.09375 153.679688 43.328125 C 153.523438 43.5625 153.332031 43.773438 153.113281 43.953125 C 152.886719 44.125 152.632812 44.277344 152.351562 44.402344 C 152.078125 44.519531 151.773438 44.613281 151.453125 44.675781 C 151.125 44.730469 150.753906 44.753906 150.339844 44.753906 L 147.449219 44.753906 C 147.316406 44.753906 147.195312 44.710938 147.078125 44.617188 C 146.960938 44.53125 146.902344 44.375 146.902344 44.148438 L 146.902344 34.285156 C 146.902344 34.066406 146.960938 33.914062 147.078125 33.835938 C 147.195312 33.75 147.316406 33.699219 147.449219 33.699219 L 149.96875 33.699219 C 150.632812 33.699219 151.167969 33.769531 151.589844 33.894531 C 152.003906 34.011719 152.355469 34.199219 152.644531 34.441406 C 152.925781 34.675781 153.140625 34.96875 153.289062 35.320312 C 153.429688 35.664062 153.503906 36.054688 153.503906 36.492188 C 153.503906 36.757812 153.46875 37.011719 153.40625 37.253906 C 153.335938 37.488281 153.238281 37.714844 153.113281 37.917969 C 152.996094 38.113281 152.84375 38.289062 152.664062 38.445312 C 152.476562 38.601562 152.261719 38.734375 152.019531 38.835938 C 152.332031 38.90625 152.613281 39.011719 152.878906 39.167969 C 153.136719 39.316406 153.367188 39.5 153.5625 39.734375 C 153.757812 39.96875 153.902344 40.242188 154.011719 40.554688 C 154.128906 40.867188 154.1875 41.214844 154.1875 41.589844 Z M 151.980469 36.628906 C 151.980469 36.371094 151.941406 36.136719 151.863281 35.925781 C 151.792969 35.707031 151.675781 35.515625 151.511719 35.359375 C 151.355469 35.203125 151.144531 35.085938 150.886719 35.007812 C 150.636719 34.929688 150.304688 34.890625 149.890625 34.890625 L 148.367188 34.890625 L 148.367188 38.464844 L 150.027344 38.464844 C 150.417969 38.464844 150.730469 38.421875 150.964844 38.328125 C 151.199219 38.226562 151.382812 38.089844 151.53125 37.917969 C 151.6875 37.753906 151.792969 37.558594 151.863281 37.332031 C 151.941406 37.113281 151.980469 36.878906 151.980469 36.628906 Z M 152.644531 41.667969 C 152.644531 41.347656 152.589844 41.058594 152.488281 40.808594 C 152.378906 40.550781 152.222656 40.335938 152.019531 40.164062 C 151.824219 40 151.570312 39.867188 151.257812 39.773438 C 150.953125 39.6875 150.578125 39.636719 150.125 39.636719 L 148.367188 39.636719 L 148.367188 43.542969 L 150.496094 43.542969 C 150.832031 43.542969 151.125 43.503906 151.375 43.425781 C 151.617188 43.347656 151.84375 43.230469 152.039062 43.074219 C 152.234375 42.917969 152.378906 42.722656 152.488281 42.488281 C 152.589844 42.253906 152.644531 41.980469 152.644531 41.667969 Z M 152.644531 41.667969 "/>
<path style="fill-rule:nonzero;fill:rgb(0%,0%,100%);fill-opacity:1;stroke-width:0.717308;stroke-linecap:butt;stroke-linejoin:miter;stroke:rgb(0%,0%,100%);stroke-opacity:1;stroke-miterlimit:4;" d="M 112.16875 24.3875 L 121.596875 24.3875 " transform="matrix(1.25,0,0,1.25,0,0)"/>
<path style="fill-rule:evenodd;fill:rgb(0%,0%,100%);fill-opacity:1;stroke-width:0.358654;stroke-linecap:butt;stroke-linejoin:miter;stroke:rgb(0%,0%,100%);stroke-opacity:1;stroke-miterlimit:4;" d="M 123.253125 24.3875 L 120.775 25.81875 L 120.775 22.953125 L 123.253125 24.3875 Z M 123.253125 24.3875 " transform="matrix(1.25,0,0,1.25,0,0)"/>
<path style="fill:none;stroke-width:1.366299;stroke-linecap:butt;stroke-linejoin:miter;stroke:rgb(0%,0%,0%);stroke-opacity:1;stroke-miterlimit:4;" d="M 39.965625 62.6875 L 12.89375 113.421875 " transform="matrix(1.25,0,0,1.25,0,0)"/>
<path style="fill-rule:evenodd;fill:rgb(0%,0%,0%);fill-opacity:1;stroke-width:0.602713;stroke-linecap:butt;stroke-linejoin:miter;stroke:rgb(0%,0%,0%);stroke-opacity:1;stroke-miterlimit:4;" d="M 85.71083 -57.144588 L 81.541698 -54.732443 L 81.539565 -59.556305 L 85.71083 -57.144588 Z M 85.71083 -57.144588 " transform="matrix(-0.666999,1.25,-1.25,-0.666999,0,0)"/>
<path style="fill:none;stroke-width:1.366299;stroke-linecap:butt;stroke-linejoin:miter;stroke:rgb(0%,0%,0%);stroke-opacity:1;stroke-miterlimit:4;" d="M 39.846875 62.5125 L 39.9 6.465625 " transform="matrix(1.25,0,0,1.25,0,0)"/>
<path style="fill-rule:evenodd;fill:rgb(0%,0%,0%);fill-opacity:1;stroke-width:0.683149;stroke-linecap:butt;stroke-linejoin:miter;stroke:rgb(0%,0%,0%);stroke-opacity:1;stroke-miterlimit:4;" d="M -3.277588 39.899743 L -8.000195 42.635125 L -8.001849 37.172627 L -3.277588 39.899743 Z M -3.277588 39.899743 " transform="matrix(0.00109374,-1.25,1.25,0.00109374,0,0)"/>
<path style=" stroke:none;fill-rule:nonzero;fill:rgb(0%,0%,0%);fill-opacity:1;" d="M 25.285156 152.121094 L 24.328125 154.738281 C 24.300781 154.828125 24.222656 154.894531 24.09375 154.933594 C 23.964844 154.984375 23.761719 155.011719 23.488281 155.011719 C 23.359375 155.011719 23.246094 155.003906 23.15625 154.992188 C 23.078125 154.976562 23.011719 154.953125 22.960938 154.914062 C 22.921875 154.886719 22.894531 154.847656 22.882812 154.796875 C 22.882812 154.742188 22.894531 154.679688 22.921875 154.601562 L 23.917969 152.121094 C 23.867188 152.097656 23.820312 152.0625 23.78125 152.023438 C 23.742188 151.976562 23.710938 151.921875 23.683594 151.867188 L 21.144531 145.050781 C 21.105469 144.933594 21.085938 144.847656 21.085938 144.777344 C 21.085938 144.714844 21.105469 144.671875 21.144531 144.640625 C 21.183594 144.601562 21.25 144.578125 21.339844 144.5625 C 21.445312 144.554688 21.574219 144.542969 21.730469 144.542969 C 21.886719 144.542969 22.011719 144.554688 22.101562 144.5625 C 22.191406 144.5625 22.265625 144.578125 22.316406 144.601562 C 22.367188 144.617188 22.40625 144.640625 22.433594 144.679688 C 22.460938 144.71875 22.484375 144.773438 22.511719 144.835938 L 24.542969 150.578125 L 24.582031 150.578125 L 26.535156 144.816406 C 26.574219 144.714844 26.613281 144.652344 26.652344 144.621094 C 26.703125 144.597656 26.769531 144.578125 26.847656 144.5625 C 26.9375 144.554688 27.070312 144.542969 27.238281 144.542969 C 27.394531 144.542969 27.519531 144.554688 27.609375 144.5625 C 27.699219 144.578125 27.765625 144.601562 27.804688 144.640625 C 27.855469 144.671875 27.882812 144.714844 27.882812 144.777344 C 27.882812 144.847656 27.871094 144.925781 27.84375 145.011719 L 25.285156 152.121094 Z M 25.285156 152.121094 "/>
<path style=" stroke:none;fill-rule:nonzero;fill:rgb(0%,0%,0%);fill-opacity:1;" d="M 42.792969 7.484375 C 42.832031 7.5625 42.851562 7.628906 42.851562 7.679688 C 42.851562 7.734375 42.820312 7.773438 42.773438 7.796875 C 42.734375 7.824219 42.660156 7.839844 42.558594 7.855469 C 42.449219 7.863281 42.3125 7.875 42.148438 7.875 C 41.992188 7.875 41.863281 7.863281 41.777344 7.855469 C 41.683594 7.855469 41.605469 7.84375 41.542969 7.835938 C 41.488281 7.8125 41.449219 7.785156 41.425781 7.757812 C 41.394531 7.734375 41.371094 7.699219 41.347656 7.660156 L 39.648438 4.828125 L 37.929688 7.660156 C 37.914062 7.699219 37.890625 7.734375 37.851562 7.757812 C 37.820312 7.785156 37.78125 7.8125 37.734375 7.835938 C 37.679688 7.84375 37.605469 7.855469 37.519531 7.855469 C 37.425781 7.863281 37.304688 7.875 37.148438 7.875 C 37 7.875 36.878906 7.863281 36.777344 7.855469 C 36.683594 7.839844 36.609375 7.824219 36.5625 7.796875 C 36.523438 7.773438 36.503906 7.734375 36.503906 7.679688 C 36.503906 7.628906 36.527344 7.5625 36.582031 7.484375 L 38.789062 4.007812 L 36.699219 0.648438 C 36.660156 0.570312 36.628906 0.511719 36.621094 0.472656 C 36.621094 0.421875 36.644531 0.375 36.699219 0.335938 C 36.746094 0.296875 36.824219 0.277344 36.933594 0.277344 C 37.035156 0.265625 37.171875 0.257812 37.34375 0.257812 C 37.5 0.257812 37.621094 0.265625 37.714844 0.277344 C 37.800781 0.277344 37.875 0.285156 37.929688 0.296875 C 37.976562 0.3125 38.015625 0.332031 38.046875 0.355469 C 38.070312 0.382812 38.09375 0.414062 38.125 0.453125 L 39.746094 3.109375 L 41.386719 0.453125 C 41.410156 0.429688 41.433594 0.402344 41.464844 0.375 C 41.488281 0.351562 41.523438 0.332031 41.5625 0.316406 C 41.609375 0.292969 41.679688 0.277344 41.757812 0.277344 C 41.84375 0.265625 41.957031 0.257812 42.089844 0.257812 C 42.246094 0.257812 42.367188 0.265625 42.460938 0.277344 C 42.5625 0.277344 42.640625 0.296875 42.695312 0.335938 C 42.742188 0.363281 42.761719 0.402344 42.753906 0.453125 C 42.753906 0.507812 42.722656 0.570312 42.675781 0.648438 L 40.585938 3.96875 L 42.792969 7.484375 Z M 42.792969 7.484375 "/>
<path style="fill-rule:nonzero;fill:rgb(0%,0%,0%);fill-opacity:1;stroke-width:1.237435;stroke-linecap:butt;stroke-linejoin:miter;stroke:rgb(0%,0%,0%);stroke-opacity:1;stroke-miterlimit:4;" d="M 13.515625 54.53125 L 13.38125 61.1125 " transform="matrix(1.25,0,0,1.25,0,0)"/>
<path style="fill-rule:evenodd;fill:rgb(0%,0%,0%);fill-opacity:1;stroke-width:1.237182;stroke-linecap:butt;stroke-linejoin:miter;stroke:rgb(0%,0%,0%);stroke-opacity:1;stroke-miterlimit:4;" d="M 66.529813 -14.612699 L 57.967329 -9.661606 L 57.967342 -19.561606 L 66.529813 -14.612699 Z M 66.529813 -14.612699 " transform="matrix(-0.0252509,1.25,-1.25,-0.0252509,0,0)"/>
<path style=" stroke:none;fill-rule:nonzero;fill:rgb(0%,0%,0%);fill-opacity:1;" d="M 2.019531 81.878906 L 2.019531 70.238281 L 3.542969 70.238281 L 3.542969 81.878906 L 2.019531 81.878906 Z M 2.019531 81.878906 "/>
<path style="fill:none;stroke-width:0.8;stroke-linecap:butt;stroke-linejoin:miter;stroke:rgb(0%,0%,0%);stroke-opacity:1;stroke-miterlimit:4;" d="M -0.009375 56.2125 L 4.640625 56.2125 " transform="matrix(1.25,0,0,1.25,0,0)"/>
<path style="fill:none;stroke-width:0.8;stroke-linecap:butt;stroke-linejoin:miter;stroke:rgb(0%,0%,0%);stroke-opacity:1;stroke-miterlimit:4;" d="M -0.009375 65.70625 L 4.640625 65.70625 " transform="matrix(1.25,0,0,1.25,0,0)"/>
<path style="fill-rule:nonzero;fill:rgb(0%,0%,0%);fill-opacity:1;stroke-width:1.6;stroke-linecap:butt;stroke-linejoin:round;stroke:rgb(0%,0%,0%);stroke-opacity:1;stroke-miterlimit:4;" d="M 57.14375 26.503125 C 57.14375 27.1375 56.63125 27.65 56.003125 27.65 C 55.371875 27.65 54.859375 27.1375 54.859375 26.503125 C 54.859375 25.875 55.371875 25.3625 56.003125 25.3625 C 56.63125 25.3625 57.14375 25.875 57.14375 26.503125 Z M 57.14375 26.503125 " transform="matrix(1.25,0,0,1.25,0,0)"/>
<path style=" stroke:none;fill-rule:nonzero;fill:rgb(0%,0%,0%);fill-opacity:1;" d="M 84.832031 27.308594 C 84.832031 27.832031 84.746094 28.300781 84.578125 28.714844 C 84.40625 29.121094 84.167969 29.472656 83.855469 29.769531 C 83.542969 30.058594 83.152344 30.277344 82.683594 30.433594 C 82.226562 30.589844 81.679688 30.667969 81.042969 30.667969 L 79.890625 30.667969 L 79.890625 34.359375 C 79.890625 34.414062 79.875 34.457031 79.851562 34.496094 C 79.824219 34.527344 79.785156 34.546875 79.734375 34.554688 C 79.679688 34.570312 79.609375 34.578125 79.519531 34.59375 C 79.441406 34.605469 79.335938 34.613281 79.207031 34.613281 C 79.074219 34.613281 78.964844 34.605469 78.875 34.59375 C 78.78125 34.578125 78.710938 34.570312 78.660156 34.554688 C 78.605469 34.546875 78.566406 34.527344 78.542969 34.496094 C 78.527344 34.457031 78.523438 34.414062 78.523438 34.359375 L 78.523438 24.886719 C 78.523438 24.683594 78.574219 24.53125 78.679688 24.4375 C 78.796875 24.351562 78.925781 24.300781 79.070312 24.300781 L 81.257812 24.300781 C 81.476562 24.300781 81.6875 24.316406 81.882812 24.339844 C 82.089844 24.355469 82.332031 24.394531 82.605469 24.457031 C 82.890625 24.511719 83.175781 24.625 83.464844 24.789062 C 83.75 24.960938 83.992188 25.171875 84.1875 25.414062 C 84.394531 25.648438 84.550781 25.933594 84.65625 26.253906 C 84.773438 26.582031 84.832031 26.933594 84.832031 27.308594 Z M 83.386719 27.425781 C 83.386719 27.011719 83.308594 26.664062 83.152344 26.390625 C 82.996094 26.109375 82.800781 25.898438 82.566406 25.765625 C 82.34375 25.625 82.109375 25.53125 81.863281 25.492188 C 81.613281 25.453125 81.375 25.433594 81.140625 25.433594 L 79.890625 25.433594 L 79.890625 29.554688 L 81.121094 29.554688 C 81.523438 29.554688 81.863281 29.507812 82.136719 29.398438 C 82.410156 29.296875 82.636719 29.15625 82.820312 28.96875 C 83.015625 28.773438 83.15625 28.550781 83.25 28.285156 C 83.339844 28.027344 83.386719 27.738281 83.386719 27.425781 Z M 83.386719 27.425781 "/>
<path style="fill:none;stroke-width:0.8;stroke-linecap:butt;stroke-linejoin:miter;stroke:rgb(0%,0%,0%);stroke-opacity:1;stroke-miterlimit:4;" d="M 51.58125 26.515625 L 50.440625 20.8875 L 56.065625 21.059375 " transform="matrix(1.25,0,0,1.25,0,0)"/>
<path style=" stroke:none;fill-rule:nonzero;fill:rgb(0%,0%,0%);fill-opacity:1;" d="M 69.515625 21.578125 C 69.515625 21.617188 69.503906 21.65625 69.496094 21.695312 C 69.480469 21.722656 69.445312 21.746094 69.398438 21.773438 C 69.359375 21.78125 69.300781 21.792969 69.222656 21.792969 C 69.144531 21.800781 69.050781 21.8125 68.949219 21.8125 C 68.839844 21.8125 68.753906 21.800781 68.675781 21.792969 C 68.597656 21.792969 68.527344 21.78125 68.480469 21.773438 C 68.441406 21.746094 68.40625 21.722656 68.382812 21.695312 C 68.367188 21.65625 68.363281 21.617188 68.363281 21.578125 L 68.363281 20.621094 C 67.980469 21.039062 67.589844 21.363281 67.191406 21.597656 C 66.785156 21.816406 66.339844 21.929688 65.863281 21.929688 C 65.324219 21.929688 64.875 21.820312 64.515625 21.617188 C 64.148438 21.410156 63.851562 21.136719 63.617188 20.796875 C 63.382812 20.445312 63.210938 20.035156 63.109375 19.566406 C 63 19.097656 62.953125 18.601562 62.953125 18.082031 C 62.953125 17.46875 63.015625 16.917969 63.148438 16.421875 C 63.273438 15.925781 63.46875 15.511719 63.734375 15.171875 C 63.992188 14.820312 64.308594 14.554688 64.691406 14.371094 C 65.082031 14.175781 65.53125 14.078125 66.039062 14.078125 C 66.453125 14.078125 66.828125 14.167969 67.171875 14.351562 C 67.523438 14.535156 67.863281 14.800781 68.207031 15.152344 L 68.207031 11.011719 C 68.207031 10.972656 68.210938 10.941406 68.226562 10.914062 C 68.25 10.875 68.289062 10.847656 68.34375 10.835938 C 68.390625 10.808594 68.460938 10.789062 68.539062 10.777344 C 68.625 10.765625 68.734375 10.757812 68.851562 10.757812 C 68.976562 10.757812 69.085938 10.765625 69.164062 10.777344 C 69.25 10.789062 69.324219 10.808594 69.378906 10.835938 C 69.425781 10.847656 69.460938 10.875 69.476562 10.914062 C 69.5 10.941406 69.515625 10.972656 69.515625 11.011719 L 69.515625 21.578125 Z M 68.207031 16.558594 C 67.855469 16.117188 67.507812 15.785156 67.171875 15.5625 C 66.84375 15.328125 66.496094 15.210938 66.136719 15.210938 C 65.808594 15.210938 65.53125 15.289062 65.296875 15.445312 C 65.0625 15.601562 64.871094 15.808594 64.730469 16.070312 C 64.582031 16.332031 64.476562 16.625 64.398438 16.949219 C 64.328125 17.273438 64.300781 17.605469 64.300781 17.945312 C 64.300781 18.308594 64.324219 18.667969 64.378906 19.019531 C 64.441406 19.359375 64.539062 19.664062 64.671875 19.9375 C 64.8125 20.199219 64.992188 20.40625 65.21875 20.5625 C 65.453125 20.71875 65.734375 20.796875 66.078125 20.796875 C 66.257812 20.796875 66.429688 20.777344 66.585938 20.738281 C 66.75 20.6875 66.921875 20.609375 67.09375 20.503906 C 67.257812 20.386719 67.433594 20.242188 67.621094 20.074219 C 67.800781 19.890625 67.996094 19.671875 68.207031 19.410156 L 68.207031 16.558594 Z M 68.207031 16.558594 "/>
<path style=" stroke:none;fill-rule:nonzero;fill:rgb(0%,0%,0%);fill-opacity:1;" d="M 73.523438 21.578125 C 73.523438 21.617188 73.507812 21.65625 73.484375 21.695312 C 73.46875 21.722656 73.433594 21.746094 73.386719 21.773438 C 73.347656 21.78125 73.277344 21.792969 73.191406 21.792969 C 73.113281 21.800781 73 21.8125 72.859375 21.8125 C 72.742188 21.8125 72.632812 21.800781 72.546875 21.792969 C 72.46875 21.792969 72.398438 21.78125 72.351562 21.773438 C 72.296875 21.746094 72.257812 21.722656 72.234375 21.695312 C 72.21875 21.65625 72.214844 21.617188 72.214844 21.578125 L 72.214844 10.972656 C 72.214844 10.933594 72.21875 10.902344 72.234375 10.875 C 72.257812 10.835938 72.296875 10.808594 72.351562 10.796875 C 72.398438 10.769531 72.46875 10.75 72.546875 10.738281 C 72.632812 10.726562 72.742188 10.71875 72.859375 10.71875 C 73 10.71875 73.113281 10.726562 73.191406 10.738281 C 73.277344 10.75 73.347656 10.769531 73.386719 10.796875 C 73.433594 10.808594 73.46875 10.835938 73.484375 10.875 C 73.507812 10.902344 73.523438 10.933594 73.523438 10.972656 L 73.523438 21.578125 Z M 73.523438 21.578125 "/>
<path style="fill-rule:nonzero;fill:rgb(0%,0%,0%);fill-opacity:1;stroke-width:0.428861;stroke-linecap:butt;stroke-linejoin:miter;stroke:rgb(0%,0%,0%);stroke-opacity:1;stroke-miterlimit:4;" d="M 52.9 6.171875 L 59.20625 6.15 " transform="matrix(1.25,0,0,1.25,0,0)"/>
<path style="fill-rule:evenodd;fill:rgb(0%,0%,0%);fill-opacity:1;stroke-width:0.214429;stroke-linecap:butt;stroke-linejoin:miter;stroke:rgb(0%,0%,0%);stroke-opacity:1;stroke-miterlimit:4;" d="M 60.176094 6.369598 L 58.691628 7.226527 L 58.691805 5.514027 L 60.176094 6.369598 Z M 60.176094 6.369598 " transform="matrix(1.25,-0.0046914,0.0046914,1.25,0,0)"/>
<path style="fill:none;stroke-width:0.79937;stroke-linecap:butt;stroke-linejoin:miter;stroke:rgb(0%,0%,0%);stroke-opacity:1;stroke-dasharray:3.19748,3.19748;stroke-miterlimit:4;" d="M 56.29375 26.71875 L 101.721875 62.434375 " transform="matrix(1.25,0,0,1.25,0,0)"/>
<path style="fill:none;stroke-width:0.618826;stroke-linecap:butt;stroke-linejoin:miter;stroke:rgb(0%,0%,0%);stroke-opacity:1;stroke-dasharray:0.618826,1.237652;stroke-miterlimit:4;" d="M 41.975 59.39375 L 54.2 30.465625 " transform="matrix(1.25,0,0,1.25,0,0)"/>
<path style="fill-rule:evenodd;fill:rgb(0%,0%,0%);fill-opacity:1;stroke-width:0.285023;stroke-linecap:butt;stroke-linejoin:miter;stroke:rgb(0%,0%,0%);stroke-opacity:1;stroke-miterlimit:4;" d="M 36.666785 -56.911868 L 34.696065 -55.769957 L 34.695029 -58.050769 L 36.666785 -56.911868 Z M 36.666785 -56.911868 " transform="matrix(-0.528066,1.25,-1.25,-0.528066,0,0)"/>
<path style="fill-rule:evenodd;fill:rgb(0%,0%,0%);fill-opacity:1;stroke-width:0.285023;stroke-linecap:butt;stroke-linejoin:miter;stroke:rgb(0%,0%,0%);stroke-opacity:1;stroke-miterlimit:4;" d="M -5.107806 56.910933 L -7.078527 58.052845 L -7.079563 55.772032 L -5.107806 56.910933 Z M -5.107806 56.910933 " transform="matrix(0.528066,-1.25,1.25,0.528066,0,0)"/>
<path style=" stroke:none;fill-rule:nonzero;fill:rgb(0%,0%,0%);fill-opacity:1;" d="M 69.511719 60.859375 C 69.511719 60.886719 69.5 60.914062 69.492188 60.9375 C 69.492188 60.964844 69.460938 60.992188 69.414062 61.015625 C 69.375 61.023438 69.316406 61.035156 69.238281 61.035156 C 69.167969 61.042969 69.082031 61.054688 68.964844 61.054688 C 68.855469 61.054688 68.769531 61.042969 68.691406 61.035156 C 68.621094 61.035156 68.574219 61.023438 68.535156 61.015625 C 68.496094 60.992188 68.460938 60.964844 68.4375 60.9375 C 68.421875 60.898438 68.402344 60.855469 68.378906 60.800781 L 67.65625 58.945312 C 67.578125 58.726562 67.488281 58.53125 67.402344 58.359375 C 67.308594 58.179688 67.195312 58.027344 67.070312 57.910156 C 66.9375 57.78125 66.785156 57.683594 66.621094 57.617188 C 66.449219 57.539062 66.238281 57.5 65.996094 57.5 L 65.3125 57.5 L 65.3125 60.859375 C 65.3125 60.886719 65.296875 60.914062 65.273438 60.9375 C 65.257812 60.964844 65.234375 60.984375 65.195312 60.996094 C 65.15625 61.011719 65.097656 61.019531 65.019531 61.035156 C 64.949219 61.042969 64.871094 61.054688 64.785156 61.054688 C 64.675781 61.054688 64.59375 61.042969 64.53125 61.035156 C 64.460938 61.019531 64.402344 61.011719 64.355469 60.996094 C 64.316406 60.984375 64.285156 60.964844 64.277344 60.9375 C 64.261719 60.914062 64.257812 60.886719 64.257812 60.859375 L 64.257812 53.535156 C 64.257812 53.378906 64.296875 53.277344 64.375 53.222656 C 64.460938 53.160156 64.554688 53.125 64.648438 53.125 L 66.328125 53.125 C 66.523438 53.125 66.683594 53.132812 66.816406 53.144531 C 66.941406 53.144531 67.058594 53.152344 67.167969 53.164062 C 67.480469 53.21875 67.753906 53.300781 67.988281 53.417969 C 68.222656 53.535156 68.417969 53.6875 68.574219 53.867188 C 68.730469 54.039062 68.847656 54.234375 68.925781 54.453125 C 69.003906 54.675781 69.042969 54.921875 69.042969 55.195312 C 69.042969 55.457031 69.003906 55.699219 68.925781 55.917969 C 68.855469 56.128906 68.757812 56.308594 68.632812 56.464844 C 68.5 56.621094 68.339844 56.757812 68.144531 56.875 C 67.957031 56.992188 67.753906 57.097656 67.519531 57.1875 C 67.644531 57.242188 67.761719 57.3125 67.871094 57.402344 C 67.988281 57.496094 68.089844 57.597656 68.183594 57.714844 C 68.269531 57.832031 68.359375 57.976562 68.4375 58.144531 C 68.515625 58.300781 68.59375 58.476562 68.671875 58.671875 L 69.394531 60.410156 C 69.441406 60.554688 69.476562 60.660156 69.492188 60.722656 C 69.5 60.777344 69.511719 60.820312 69.511719 60.859375 Z M 67.949219 55.3125 C 67.949219 55 67.875 54.742188 67.734375 54.53125 C 67.585938 54.3125 67.351562 54.15625 67.03125 54.0625 C 66.921875 54.039062 66.804688 54.019531 66.679688 54.003906 C 66.5625 53.992188 66.394531 53.984375 66.191406 53.984375 L 65.3125 53.984375 L 65.3125 56.640625 L 66.328125 56.640625 C 66.601562 56.640625 66.835938 56.609375 67.03125 56.542969 C 67.234375 56.480469 67.40625 56.386719 67.539062 56.269531 C 67.679688 56.140625 67.78125 55.996094 67.851562 55.839844 C 67.914062 55.671875 67.949219 55.496094 67.949219 55.3125 Z M 67.949219 55.3125 "/>
<path style="fill:none;stroke-width:0.57785;stroke-linecap:butt;stroke-linejoin:miter;stroke:rgb(0%,0%,0%);stroke-opacity:1;stroke-miterlimit:4;" d="M 98.721875 60.26875 L 100.875 57.23125 L 103.775 59.278125 " transform="matrix(1.25,0,0,1.25,0,0)"/>
<path style="fill:none;stroke-width:0.8;stroke-linecap:butt;stroke-linejoin:miter;stroke:rgb(0%,0%,0%);stroke-opacity:1;stroke-miterlimit:4;" d="M 106.4375 55.578125 C 106.4375 55.578125 110.00625 56.15 110.4375 63.00625 " transform="matrix(1.25,0,0,1.25,0,0)"/>
<path style="fill:none;stroke-width:0.8;stroke-linecap:butt;stroke-linejoin:miter;stroke:rgb(0%,0%,0%);stroke-opacity:1;stroke-miterlimit:4;" d="M 90.79375 62.86875 C 90.79375 62.86875 89.809375 59.315625 92.50625 55.434375 " transform="matrix(1.25,0,0,1.25,0,0)"/>
<path style=" stroke:none;fill-rule:nonzero;fill:rgb(0%,0%,0%);fill-opacity:1;" d="M 109.242188 70.84375 L 110.277344 70.84375 L 109.652344 73.109375 C 109.535156 73.539062 109.445312 73.800781 109.398438 73.890625 C 109.5625 74.488281 109.808594 74.789062 110.121094 74.789062 C 110.480469 74.789062 110.671875 74.585938 110.6875 74.183594 L 110.902344 74.183594 C 110.886719 74.5625 110.792969 74.867188 110.628906 75.101562 C 110.472656 75.335938 110.261719 75.453125 110.003906 75.453125 C 109.792969 75.453125 109.636719 75.378906 109.535156 75.238281 C 109.425781 75.09375 109.308594 74.808594 109.183594 74.378906 C 108.761719 75.09375 108.074219 75.453125 107.113281 75.453125 C 106.457031 75.453125 105.941406 75.25 105.550781 74.847656 C 105.160156 74.429688 104.964844 73.84375 104.964844 73.089844 C 104.964844 72.335938 105.167969 71.75 105.589844 71.332031 C 106.019531 70.914062 106.53125 70.707031 107.132812 70.707031 C 107.546875 70.707031 107.882812 70.832031 108.148438 71.078125 C 108.421875 71.3125 108.660156 71.695312 108.871094 72.230469 L 109.242188 70.84375 Z M 108.714844 72.757812 C 108.519531 72.238281 108.304688 71.828125 108.070312 71.527344 C 107.835938 71.226562 107.550781 71.078125 107.230469 71.078125 C 106.472656 71.078125 106.097656 71.773438 106.097656 73.167969 C 106.097656 74.496094 106.453125 75.160156 107.171875 75.160156 C 107.796875 75.160156 108.25 74.574219 108.539062 73.402344 L 108.714844 72.757812 Z M 108.714844 72.757812 "/>
<path style=" stroke:none;fill-rule:nonzero;fill:rgb(0%,0%,0%);fill-opacity:1;" d="M 143.308594 75.941406 L 142.507812 75.941406 C 142.625 75.378906 142.683594 74.878906 142.683594 74.4375 L 142.683594 69.125 C 142.683594 68.570312 142.726562 68.160156 142.820312 67.894531 C 142.921875 67.621094 143.117188 67.382812 143.40625 67.171875 C 143.691406 66.96875 144.050781 66.859375 144.480469 66.859375 C 145 66.859375 145.4375 66.996094 145.789062 67.269531 C 146.140625 67.542969 146.316406 67.929688 146.316406 68.421875 C 146.316406 69.007812 146.035156 69.492188 145.476562 69.867188 C 146.308594 70.257812 146.726562 70.875 146.726562 71.703125 C 146.726562 72.164062 146.613281 72.574219 146.394531 72.933594 C 146.171875 73.285156 145.917969 73.539062 145.632812 73.695312 C 145.34375 73.851562 145 73.929688 144.597656 73.929688 C 144.140625 73.929688 143.769531 73.765625 143.484375 73.421875 L 143.484375 74.320312 C 143.484375 74.945312 143.425781 75.484375 143.308594 75.941406 Z M 143.484375 72.972656 C 143.730469 73.394531 144.082031 73.597656 144.539062 73.597656 C 144.980469 73.597656 145.304688 73.441406 145.515625 73.128906 C 145.722656 72.808594 145.828125 72.417969 145.828125 71.957031 C 145.828125 71.605469 145.753906 71.25 145.613281 70.882812 C 145.480469 70.523438 145.3125 70.238281 145.105469 70.042969 C 144.910156 70.097656 144.734375 70.121094 144.578125 70.121094 C 144.238281 70.121094 144.070312 70.035156 144.070312 69.847656 C 144.070312 69.691406 144.210938 69.613281 144.5 69.613281 C 144.667969 69.613281 144.882812 69.652344 145.144531 69.730469 C 145.363281 69.339844 145.476562 68.921875 145.476562 68.460938 C 145.476562 68.0625 145.382812 67.75 145.203125 67.523438 C 145.03125 67.304688 144.796875 67.191406 144.5 67.191406 C 144.277344 67.191406 144.082031 67.261719 143.914062 67.386719 C 143.742188 67.519531 143.625 67.675781 143.5625 67.855469 C 143.507812 68.042969 143.484375 68.335938 143.484375 68.734375 L 143.484375 72.972656 Z M 143.484375 72.972656 "/>
</g>
</svg>
