<?xml version="1.0" encoding="UTF-8"?>
<!-- Converted by misc2svg (http://www.network-science.de/tools/misc2svg/) -->
<svg xmlns="http://www.w3.org/2000/svg" xmlns:xlink="http://www.w3.org/1999/xlink" width="305pt" height="275pt" viewBox="0 0 305 275" version="1.1">
<g id="misc2svg">
<path style="fill:none;stroke-width:0.830203;stroke-linecap:butt;stroke-linejoin:miter;stroke:rgb(0%,0%,0%);stroke-opacity:1;stroke-miterlimit:4;" d="M 147.2125 203.8125 L 93.11875 203.8125 " transform="matrix(1.25,0,0,1.25,0,0)"/>
<path style=" stroke:none;fill-rule:evenodd;fill:rgb(0%,0%,0%);fill-opacity:1;" d="M 127.492188 259.371094 L 115.019531 254.785156 L 127.492188 250.199219 C 125.5 252.90625 125.511719 256.609375 127.492188 259.371094 Z M 127.492188 259.371094 "/>
<path style="fill:none;stroke-width:1.245304;stroke-linecap:butt;stroke-linejoin:miter;stroke:rgb(0%,0%,0%);stroke-opacity:1;stroke-miterlimit:4;" d="M 137.721875 176.190625 C 137.721875 186.528125 129.34375 194.903125 119.0125 194.903125 C 108.68125 194.903125 100.3 186.528125 100.3 176.190625 C 100.3 165.859375 108.68125 157.484375 119.0125 157.484375 C 129.34375 157.484375 137.721875 165.859375 137.721875 176.190625 Z M 137.721875 176.190625 " transform="matrix(1.25,0,0,1.25,0,0)"/>
<path style=" stroke:none;fill-rule:nonzero;fill:rgb(0%,0%,0%);fill-opacity:1;" d="M 145.21875 274.839844 L 145.21875 260.523438 L 155.570312 260.523438 L 155.570312 262.203125 L 147.113281 262.203125 L 147.113281 266.597656 L 155.042969 266.597656 L 155.042969 268.277344 L 147.113281 268.277344 L 147.113281 273.140625 L 155.902344 273.140625 L 155.902344 274.839844 L 145.21875 274.839844 Z M 145.21875 274.839844 "/>
<path style=" stroke:none;fill-rule:nonzero;fill:rgb(80%,80%,80%);fill-opacity:1;" d="M 142.964844 0 L 159.214844 0 L 159.214844 15 L 142.964844 15 L 142.964844 0 Z M 142.964844 0 "/>
<path style=" stroke:none;fill-rule:nonzero;fill:rgb(0%,0%,0%);fill-opacity:1;" d="M 147.230469 12.8125 L 147.230469 2.070312 L 151.273438 2.070312 C 152.09375 2.070312 152.75 2.183594 153.246094 2.402344 C 153.742188 2.628906 154.125 2.964844 154.398438 3.417969 C 154.683594 3.863281 154.828125 4.332031 154.828125 4.824219 C 154.828125 5.285156 154.703125 5.714844 154.457031 6.113281 C 154.210938 6.519531 153.832031 6.847656 153.324219 7.089844 C 153.976562 7.285156 154.46875 7.617188 154.808594 8.085938 C 155.160156 8.546875 155.335938 9.082031 155.335938 9.707031 C 155.335938 10.207031 155.230469 10.675781 155.023438 11.113281 C 154.816406 11.542969 154.554688 11.875 154.242188 12.109375 C 153.929688 12.34375 153.53125 12.519531 153.050781 12.636719 C 152.582031 12.753906 152.007812 12.8125 151.332031 12.8125 L 147.230469 12.8125 Z M 148.65625 6.582031 L 150.980469 6.582031 C 151.605469 6.582031 152.054688 6.542969 152.328125 6.464844 C 152.691406 6.363281 152.964844 6.1875 153.148438 5.9375 C 153.332031 5.679688 153.421875 5.363281 153.421875 4.980469 C 153.421875 4.628906 153.335938 4.316406 153.167969 4.042969 C 153 3.769531 152.75 3.589844 152.425781 3.496094 C 152.113281 3.394531 151.574219 3.339844 150.804688 3.339844 L 148.65625 3.339844 L 148.65625 6.582031 Z M 148.65625 11.542969 L 151.332031 11.542969 C 151.789062 11.542969 152.105469 11.523438 152.289062 11.484375 C 152.628906 11.4375 152.902344 11.34375 153.109375 11.210938 C 153.332031 11.070312 153.511719 10.871094 153.65625 10.605469 C 153.800781 10.347656 153.871094 10.050781 153.871094 9.707031 C 153.871094 9.308594 153.765625 8.957031 153.558594 8.652344 C 153.363281 8.355469 153.082031 8.144531 152.71875 8.027344 C 152.355469 7.910156 151.828125 7.851562 151.136719 7.851562 L 148.65625 7.851562 L 148.65625 11.542969 Z M 148.65625 11.542969 "/>
<path style=" stroke:none;fill-rule:nonzero;fill:rgb(80%,80%,80%);fill-opacity:1;" d="M 143.457031 165.78125 L 159.707031 165.78125 L 159.707031 180.78125 L 143.457031 180.78125 L 143.457031 165.78125 Z M 143.457031 165.78125 "/>
<path style=" stroke:none;fill-rule:nonzero;fill:rgb(0%,0%,0%);fill-opacity:1;" d="M 147.375 178.597656 L 147.375 167.855469 L 151.085938 167.855469 C 151.917969 167.855469 152.558594 167.910156 153 168.011719 C 153.613281 168.15625 154.132812 168.410156 154.5625 168.773438 C 155.136719 169.257812 155.558594 169.875 155.832031 170.628906 C 156.117188 171.371094 156.261719 172.21875 156.261719 173.167969 C 156.261719 173.988281 156.164062 174.710938 155.96875 175.335938 C 155.785156 175.960938 155.546875 176.484375 155.246094 176.898438 C 154.945312 177.316406 154.613281 177.640625 154.25 177.875 C 153.898438 178.109375 153.476562 178.292969 152.980469 178.421875 C 152.484375 178.539062 151.914062 178.597656 151.261719 178.597656 L 147.375 178.597656 Z M 148.800781 177.328125 L 151.085938 177.328125 C 151.800781 177.328125 152.363281 177.265625 152.765625 177.132812 C 153.167969 177.003906 153.488281 176.816406 153.722656 176.566406 C 154.0625 176.242188 154.320312 175.792969 154.503906 175.21875 C 154.699219 174.648438 154.796875 173.957031 154.796875 173.148438 C 154.796875 172.03125 154.609375 171.171875 154.230469 170.570312 C 153.867188 169.960938 153.421875 169.550781 152.902344 169.339844 C 152.511719 169.199219 151.898438 169.125 151.066406 169.125 L 148.800781 169.125 L 148.800781 177.328125 Z M 148.800781 177.328125 "/>
<path style=" stroke:none;fill-rule:nonzero;fill:rgb(80%,80%,80%);fill-opacity:1;" d="M 288.472656 83.84375 L 304.722656 83.84375 L 304.722656 98.84375 L 288.472656 98.84375 L 288.472656 83.84375 Z M 288.472656 83.84375 "/>
<path style=" stroke:none;fill-rule:nonzero;fill:rgb(0%,0%,0%);fill-opacity:1;" d="M 300.066406 92.886719 L 301.472656 93.257812 C 301.171875 94.417969 300.636719 95.304688 299.871094 95.914062 C 299.101562 96.527344 298.15625 96.832031 297.039062 96.832031 C 295.878906 96.832031 294.933594 96.597656 294.207031 96.128906 C 293.476562 95.660156 292.921875 94.984375 292.546875 94.097656 C 292.167969 93.199219 291.980469 92.238281 291.980469 91.207031 C 291.980469 90.089844 292.195312 89.113281 292.625 88.277344 C 293.054688 87.445312 293.660156 86.8125 294.441406 86.382812 C 295.234375 85.953125 296.105469 85.738281 297.058594 85.738281 C 298.125 85.738281 299.023438 86.011719 299.753906 86.558594 C 300.496094 87.105469 301.007812 87.875 301.296875 88.863281 L 299.890625 89.195312 C 299.640625 88.414062 299.277344 87.847656 298.796875 87.496094 C 298.328125 87.132812 297.734375 86.949219 297.019531 86.949219 C 296.199219 86.949219 295.507812 87.152344 294.949219 87.554688 C 294.402344 87.945312 294.011719 88.472656 293.777344 89.136719 C 293.554688 89.800781 293.445312 90.492188 293.445312 91.207031 C 293.445312 92.121094 293.574219 92.914062 293.835938 93.589844 C 294.109375 94.269531 294.523438 94.777344 295.085938 95.113281 C 295.644531 95.453125 296.257812 95.621094 296.921875 95.621094 C 297.714844 95.621094 298.386719 95.394531 298.933594 94.9375 C 299.492188 94.484375 299.871094 93.800781 300.066406 92.886719 Z M 300.066406 92.886719 "/>
<path style=" stroke:none;fill-rule:nonzero;fill:rgb(0%,0%,0%);fill-opacity:1;" d="M 63.496094 36.667969 L 63.496094 23.25 L 69.453125 23.25 C 70.652344 23.25 71.5625 23.375 72.1875 23.621094 C 72.8125 23.855469 73.308594 24.28125 73.671875 24.890625 C 74.050781 25.503906 74.238281 26.175781 74.238281 26.902344 C 74.238281 27.855469 73.925781 28.660156 73.300781 29.324219 C 72.6875 29.976562 71.738281 30.386719 70.449219 30.554688 C 70.917969 30.789062 71.277344 31.019531 71.523438 31.238281 C 72.042969 31.707031 72.539062 32.300781 73.007812 33.015625 L 75.332031 36.667969 L 73.105469 36.667969 L 71.328125 33.875 C 70.808594 33.070312 70.378906 32.457031 70.039062 32.039062 C 69.699219 31.609375 69.402344 31.3125 69.140625 31.140625 C 68.878906 30.960938 68.613281 30.835938 68.339844 30.769531 C 68.132812 30.730469 67.800781 30.710938 67.34375 30.710938 L 65.273438 30.710938 L 65.273438 36.667969 L 63.496094 36.667969 Z M 65.273438 29.167969 L 69.101562 29.167969 C 69.910156 29.167969 70.539062 29.085938 70.996094 28.914062 C 71.464844 28.746094 71.816406 28.480469 72.050781 28.113281 C 72.285156 27.75 72.402344 27.347656 72.402344 26.902344 C 72.402344 26.277344 72.167969 25.765625 71.699219 25.359375 C 71.242188 24.945312 70.519531 24.734375 69.53125 24.734375 L 65.273438 24.734375 L 65.273438 29.167969 Z M 65.273438 29.167969 "/>
<path style=" stroke:none;fill-rule:nonzero;fill:rgb(0%,0%,0%);fill-opacity:1;" d="M 80.675781 40.539062 L 79.582031 40.539062 L 79.582031 33.546875 C 79.316406 33.796875 78.976562 34.050781 78.546875 34.308594 C 78.117188 34.558594 77.730469 34.738281 77.394531 34.855469 L 77.394531 33.800781 C 78.003906 33.519531 78.535156 33.171875 78.996094 32.765625 C 79.464844 32.351562 79.785156 31.945312 79.972656 31.554688 L 80.675781 31.554688 L 80.675781 40.539062 Z M 80.675781 40.539062 "/>
<path style=" stroke:none;fill-rule:nonzero;fill:rgb(80%,80%,80%);fill-opacity:1;" d="M 0 75.007812 L 16.25 75.007812 L 16.25 90.007812 L 0 90.007812 L 0 75.007812 Z M 0 75.007812 "/>
<path style=" stroke:none;fill-rule:nonzero;fill:rgb(0%,0%,0%);fill-opacity:1;" d="M 3.152344 87.824219 L 7.273438 77.082031 L 8.796875 77.082031 L 13.191406 87.824219 L 11.589844 87.824219 L 10.320312 84.5625 L 5.847656 84.5625 L 4.65625 87.824219 L 3.152344 87.824219 Z M 6.257812 83.410156 L 9.890625 83.410156 L 8.777344 80.441406 C 8.425781 79.542969 8.171875 78.800781 8.015625 78.214844 C 7.871094 78.910156 7.675781 79.59375 7.429688 80.265625 L 6.257812 83.410156 Z M 6.257812 83.410156 "/>
<path style="fill-rule:nonzero;fill:rgb(100%,100%,100%);fill-opacity:1;stroke-width:0.955041;stroke-linecap:butt;stroke-linejoin:miter;stroke:rgb(0%,0%,0%);stroke-opacity:1;stroke-miterlimit:4;" d="M -55.689101 -70.023025 L -13.830149 -70.022231 L -13.832628 -55.286054 L -55.689147 -55.28555 L -55.689101 -70.023025 Z M -55.689101 -70.023025 " transform="matrix(-1.25,0.666884,-0.666884,-1.25,0,0)"/>
<path style="fill:none;stroke-width:0.765371;stroke-linecap:butt;stroke-linejoin:miter;stroke:rgb(0%,0%,0%);stroke-opacity:1;stroke-miterlimit:4;" d="M 35.196856 62.243116 L 58.775873 37.889129 " transform="matrix(1.25,0.38025,-0.38025,1.25,0,0)"/>
<path style="fill:none;stroke-width:0.765371;stroke-linecap:butt;stroke-linejoin:miter;stroke:rgb(0%,0%,0%);stroke-opacity:1;stroke-miterlimit:4;" d="M 91.250025 5.804242 L 114.828173 -18.552605 " transform="matrix(1.25,0.38025,-0.38025,1.25,0,0)"/>
<path style="fill-rule:nonzero;fill:rgb(100%,100%,100%);fill-opacity:1;stroke-width:0.955041;stroke-linecap:butt;stroke-linejoin:miter;stroke:rgb(0%,0%,0%);stroke-opacity:1;stroke-miterlimit:4;" d="M -173.745569 -43.675727 L -131.886617 -43.674934 L -131.887798 -28.941189 L -173.744317 -28.940684 L -173.745569 -43.675727 Z M -173.745569 -43.675727 " transform="matrix(-1.25,-0.666884,-0.666884,1.25,0,0)"/>
<path style="fill:none;stroke-width:0.765371;stroke-linecap:butt;stroke-linejoin:miter;stroke:rgb(0%,0%,0%);stroke-opacity:1;stroke-miterlimit:4;" d="M 105.516067 -48.476112 L 129.094214 -72.83296 " transform="matrix(1.25,-0.38025,-0.38025,-1.25,0,0)"/>
<path style="fill:none;stroke-width:0.765371;stroke-linecap:butt;stroke-linejoin:miter;stroke:rgb(0%,0%,0%);stroke-opacity:1;stroke-miterlimit:4;" d="M 161.568366 -104.917847 L 185.147383 -129.271834 " transform="matrix(1.25,-0.38025,-0.38025,-1.25,0,0)"/>
<path style="fill-rule:nonzero;fill:rgb(100%,100%,100%);fill-opacity:1;stroke-width:0.955041;stroke-linecap:butt;stroke-linejoin:miter;stroke:rgb(0%,0%,0%);stroke-opacity:1;stroke-miterlimit:4;" d="M -116.0452 43.107823 L -74.186249 43.108617 L -74.18743 57.842362 L -116.043949 57.842866 L -116.0452 43.107823 Z M -116.0452 43.107823 " transform="matrix(-1.25,-0.666884,-0.666884,1.25,0,0)"/>
<path style="fill:none;stroke-width:0.765371;stroke-linecap:butt;stroke-linejoin:miter;stroke:rgb(0%,0%,0%);stroke-opacity:1;stroke-miterlimit:4;" d="M -5.267485 -70.775756 L 18.310662 -95.132603 " transform="matrix(1.25,-0.38025,-0.38025,-1.25,0,0)"/>
<path style="fill:none;stroke-width:0.765371;stroke-linecap:butt;stroke-linejoin:miter;stroke:rgb(0%,0%,0%);stroke-opacity:1;stroke-miterlimit:4;" d="M 50.784814 -127.217491 L 74.363832 -151.571478 " transform="matrix(1.25,-0.38025,-0.38025,-1.25,0,0)"/>
<path style="fill-rule:nonzero;fill:rgb(100%,100%,100%);fill-opacity:1;stroke-width:0.955041;stroke-linecap:butt;stroke-linejoin:miter;stroke:rgb(0%,0%,0%);stroke-opacity:1;stroke-miterlimit:4;" d="M -113.389469 -156.806576 L -71.530518 -156.805782 L -71.532997 -142.069604 L -113.389516 -142.0691 L -113.389469 -156.806576 Z M -113.389469 -156.806576 " transform="matrix(-1.25,0.666884,-0.666884,-1.25,0,0)"/>
<path style="fill:none;stroke-width:0.765371;stroke-linecap:butt;stroke-linejoin:miter;stroke:rgb(0%,0%,0%);stroke-opacity:1;stroke-miterlimit:4;" d="M 145.980408 84.54276 L 169.559425 60.188773 " transform="matrix(1.25,0.38025,-0.38025,1.25,0,0)"/>
<path style="fill:none;stroke-width:0.765371;stroke-linecap:butt;stroke-linejoin:miter;stroke:rgb(0%,0%,0%);stroke-opacity:1;stroke-miterlimit:4;" d="M 202.033577 28.103886 L 225.611724 3.747039 " transform="matrix(1.25,0.38025,-0.38025,1.25,0,0)"/>
<path style=" stroke:none;fill-rule:nonzero;fill:rgb(0%,0%,0%);fill-opacity:1;" d="M 240.488281 35.898438 L 240.488281 22.480469 L 246.445312 22.480469 C 247.640625 22.480469 248.554688 22.605469 249.179688 22.851562 C 249.804688 23.085938 250.296875 23.511719 250.664062 24.121094 C 251.039062 24.734375 251.230469 25.40625 251.230469 26.132812 C 251.230469 27.085938 250.917969 27.890625 250.292969 28.554688 C 249.679688 29.207031 248.730469 29.617188 247.441406 29.785156 C 247.910156 30.019531 248.265625 30.25 248.515625 30.46875 C 249.035156 30.9375 249.53125 31.53125 250 32.246094 L 252.324219 35.898438 L 250.097656 35.898438 L 248.320312 33.105469 C 247.796875 32.300781 247.367188 31.6875 247.03125 31.269531 C 246.691406 30.839844 246.390625 30.542969 246.132812 30.371094 C 245.871094 30.191406 245.605469 30.066406 245.332031 30 C 245.121094 29.960938 244.789062 29.941406 244.335938 29.941406 L 242.265625 29.941406 L 242.265625 35.898438 L 240.488281 35.898438 Z M 242.265625 28.398438 L 246.09375 28.398438 C 246.898438 28.398438 247.53125 28.316406 247.988281 28.144531 C 248.457031 27.976562 248.808594 27.710938 249.042969 27.34375 C 249.277344 26.980469 249.394531 26.578125 249.394531 26.132812 C 249.394531 25.507812 249.160156 24.996094 248.691406 24.589844 C 248.234375 24.175781 247.511719 23.964844 246.523438 23.964844 L 242.265625 23.964844 L 242.265625 28.398438 Z M 242.265625 28.398438 "/>
<path style=" stroke:none;fill-rule:nonzero;fill:rgb(0%,0%,0%);fill-opacity:1;" d="M 259.304688 38.714844 L 259.304688 39.769531 L 253.386719 39.769531 C 253.386719 39.511719 253.433594 39.257812 253.523438 39.007812 C 253.679688 38.609375 253.921875 38.207031 254.246094 37.816406 C 254.570312 37.425781 255.054688 36.976562 255.691406 36.46875 C 256.65625 35.664062 257.304688 35.035156 257.644531 34.574219 C 257.996094 34.105469 258.171875 33.667969 258.171875 33.246094 C 258.171875 32.808594 258.015625 32.441406 257.703125 32.152344 C 257.390625 31.855469 256.988281 31.703125 256.492188 31.703125 C 255.957031 31.703125 255.527344 31.859375 255.203125 32.171875 C 254.890625 32.484375 254.734375 32.925781 254.734375 33.480469 L 253.601562 33.363281 C 253.679688 32.535156 253.964844 31.894531 254.460938 31.449219 C 254.96875 31.011719 255.652344 30.785156 256.511719 30.785156 C 257.371094 30.785156 258.046875 31.03125 258.542969 31.507812 C 259.050781 31.976562 259.304688 32.5625 259.304688 33.265625 C 259.304688 33.632812 259.226562 33.988281 259.070312 34.339844 C 258.925781 34.683594 258.6875 35.042969 258.347656 35.433594 C 258.007812 35.816406 257.441406 36.332031 256.648438 36.996094 C 255.996094 37.542969 255.574219 37.925781 255.378906 38.128906 C 255.195312 38.324219 255.046875 38.519531 254.929688 38.714844 L 259.304688 38.714844 Z M 259.304688 38.714844 "/>
<path style=" stroke:none;fill-rule:nonzero;fill:rgb(0%,0%,0%);fill-opacity:1;" d="M 63.496094 155.238281 L 63.496094 141.820312 L 69.453125 141.820312 C 70.652344 141.820312 71.5625 141.949219 72.1875 142.191406 C 72.8125 142.425781 73.308594 142.851562 73.671875 143.460938 C 74.050781 144.078125 74.238281 144.746094 74.238281 145.472656 C 74.238281 146.425781 73.925781 147.230469 73.300781 147.894531 C 72.6875 148.550781 71.738281 148.960938 70.449219 149.125 C 70.917969 149.359375 71.277344 149.589844 71.523438 149.808594 C 72.042969 150.277344 72.539062 150.875 73.007812 151.585938 L 75.332031 155.238281 L 73.105469 155.238281 L 71.328125 152.445312 C 70.808594 151.640625 70.378906 151.03125 70.039062 150.609375 C 69.699219 150.179688 69.402344 149.882812 69.140625 149.710938 C 68.878906 149.53125 68.613281 149.410156 68.339844 149.339844 C 68.132812 149.300781 67.800781 149.28125 67.34375 149.28125 L 65.273438 149.28125 L 65.273438 155.238281 L 63.496094 155.238281 Z M 65.273438 147.738281 L 69.101562 147.738281 C 69.910156 147.738281 70.539062 147.65625 70.996094 147.484375 C 71.464844 147.320312 71.816406 147.050781 72.050781 146.683594 C 72.285156 146.324219 72.402344 145.917969 72.402344 145.472656 C 72.402344 144.847656 72.167969 144.335938 71.699219 143.929688 C 71.242188 143.515625 70.519531 143.304688 69.53125 143.304688 L 65.273438 143.304688 L 65.273438 147.738281 Z M 65.273438 147.738281 "/>
<path style=" stroke:none;fill-rule:nonzero;fill:rgb(0%,0%,0%);fill-opacity:1;" d="M 76.554688 156.75 L 77.648438 156.613281 C 77.773438 157.226562 77.988281 157.675781 78.292969 157.960938 C 78.589844 158.234375 78.960938 158.371094 79.40625 158.371094 C 79.921875 158.371094 80.363281 158.195312 80.714844 157.84375 C 81.066406 157.480469 81.242188 157.03125 81.242188 156.496094 C 81.242188 155.988281 81.074219 155.570312 80.753906 155.246094 C 80.425781 154.921875 80.011719 154.757812 79.503906 154.757812 C 79.292969 154.757812 79.035156 154.796875 78.722656 154.875 L 78.839844 153.917969 C 78.917969 153.917969 78.976562 153.917969 79.015625 153.917969 C 79.484375 153.917969 79.902344 153.800781 80.285156 153.566406 C 80.660156 153.320312 80.851562 152.941406 80.851562 152.433594 C 80.851562 152.03125 80.714844 151.699219 80.441406 151.4375 C 80.167969 151.164062 79.816406 151.027344 79.386719 151.027344 C 78.957031 151.027344 78.59375 151.164062 78.3125 151.4375 C 78.023438 151.699219 77.84375 152.101562 77.765625 152.648438 L 76.671875 152.453125 C 76.796875 151.710938 77.101562 151.136719 77.570312 150.734375 C 78.046875 150.332031 78.644531 150.128906 79.347656 150.128906 C 79.839844 150.128906 80.289062 150.234375 80.695312 150.441406 C 81.109375 150.648438 81.421875 150.9375 81.632812 151.300781 C 81.851562 151.664062 81.964844 152.050781 81.964844 152.453125 C 81.964844 152.84375 81.855469 153.195312 81.652344 153.507812 C 81.457031 153.820312 81.148438 154.074219 80.734375 154.269531 C 81.265625 154.386719 81.675781 154.640625 81.964844 155.03125 C 82.261719 155.410156 82.414062 155.890625 82.414062 156.476562 C 82.414062 157.257812 82.125 157.921875 81.554688 158.46875 C 80.976562 159.003906 80.265625 159.269531 79.40625 159.269531 C 78.609375 159.269531 77.949219 159.035156 77.433594 158.566406 C 76.925781 158.097656 76.632812 157.492188 76.554688 156.75 Z M 76.554688 156.75 "/>
<path style=" stroke:none;fill-rule:nonzero;fill:rgb(0%,0%,0%);fill-opacity:1;" d="M 222.785156 155.238281 L 222.785156 141.820312 L 228.742188 141.820312 C 229.9375 141.820312 230.851562 141.949219 231.476562 142.191406 C 232.101562 142.425781 232.59375 142.851562 232.960938 143.460938 C 233.335938 144.078125 233.527344 144.746094 233.527344 145.472656 C 233.527344 146.425781 233.214844 147.230469 232.589844 147.894531 C 231.972656 148.550781 231.027344 148.960938 229.738281 149.125 C 230.207031 149.359375 230.5625 149.589844 230.8125 149.808594 C 231.328125 150.277344 231.828125 150.875 232.296875 151.585938 L 234.621094 155.238281 L 232.394531 155.238281 L 230.617188 152.445312 C 230.09375 151.640625 229.664062 151.03125 229.328125 150.609375 C 228.984375 150.179688 228.6875 149.882812 228.429688 149.710938 C 228.164062 149.53125 227.902344 149.410156 227.628906 149.339844 C 227.417969 149.300781 227.085938 149.28125 226.632812 149.28125 L 224.5625 149.28125 L 224.5625 155.238281 L 222.785156 155.238281 Z M 224.5625 147.738281 L 228.390625 147.738281 C 229.195312 147.738281 229.824219 147.65625 230.285156 147.484375 C 230.753906 147.320312 231.105469 147.050781 231.339844 146.683594 C 231.574219 146.324219 231.691406 145.917969 231.691406 145.472656 C 231.691406 144.847656 231.457031 144.335938 230.988281 143.929688 C 230.527344 143.515625 229.804688 143.304688 228.820312 143.304688 L 224.5625 143.304688 L 224.5625 147.738281 Z M 224.5625 147.738281 "/>
<path style=" stroke:none;fill-rule:nonzero;fill:rgb(0%,0%,0%);fill-opacity:1;" d="M 239.355469 159.113281 L 239.355469 156.964844 L 235.46875 156.964844 L 235.46875 155.96875 L 239.550781 150.167969 L 240.449219 150.167969 L 240.449219 155.96875 L 241.660156 155.96875 L 241.660156 156.964844 L 240.449219 156.964844 L 240.449219 159.113281 L 239.355469 159.113281 Z M 239.355469 155.96875 L 239.355469 151.925781 L 236.542969 155.96875 L 239.355469 155.96875 Z M 239.355469 155.96875 "/>
<path style="fill:none;stroke-width:0.8;stroke-linecap:butt;stroke-linejoin:miter;stroke:rgb(0%,0%,0%);stroke-opacity:1;stroke-miterlimit:4;" d="M 16.253125 72.525 L 16.253125 177.096875 L 224.253125 177.096875 L 224.253125 72.525 " transform="matrix(1.25,0,0,1.25,0,0)"/>
<path style="fill:none;stroke-width:0.8;stroke-linecap:butt;stroke-linejoin:miter;stroke:rgb(0%,0%,0%);stroke-opacity:1;stroke-miterlimit:4;" d="M 151.296875 57.253125 L 191.46875 34.0625 " transform="matrix(1.25,0,0,1.25,0,0)"/>
<path style="fill:none;stroke-width:0.8;stroke-linecap:butt;stroke-linejoin:miter;stroke:rgb(0%,0%,0%);stroke-opacity:1;stroke-miterlimit:4;" d="M 191.5875 34.0625 L 185.159375 34.0625 " transform="matrix(1.25,0,0,1.25,0,0)"/>
<path style="fill:none;stroke-width:0.8;stroke-linecap:butt;stroke-linejoin:miter;stroke:rgb(0%,0%,0%);stroke-opacity:1;stroke-miterlimit:4;" d="M 188.39375 39.5125 L 191.565625 34.01875 " transform="matrix(1.25,0,0,1.25,0,0)"/>
<path style=" stroke:none;fill-rule:nonzero;fill:rgb(0%,0%,0%);fill-opacity:1;" d="M 239.6875 43.089844 L 239.03125 42.074219 L 240.34375 42.074219 L 239.6875 43.089844 Z M 239.6875 43.089844 "/>
<path style="fill:none;stroke-width:0.830203;stroke-linecap:butt;stroke-linejoin:miter;stroke:rgb(0%,0%,0%);stroke-opacity:1;stroke-miterlimit:4;" d="M 120.840625 116.54375 L 120.840625 25.878125 " transform="matrix(1.25,0,0,1.25,0,0)"/>
<path style=" stroke:none;fill-rule:evenodd;fill:rgb(0%,0%,0%);fill-opacity:1;" d="M 146.445312 43.441406 L 151.03125 30.972656 L 155.617188 43.441406 C 152.910156 41.449219 149.203125 41.460938 146.445312 43.441406 Z M 146.445312 43.441406 "/>
<path style=" stroke:none;fill-rule:nonzero;fill:rgb(0%,0%,0%);fill-opacity:1;" d="M 142.546875 101.863281 L 142.546875 99.773438 C 141.441406 101.390625 139.9375 102.195312 138.035156 102.195312 C 137.1875 102.195312 136.402344 102.027344 135.671875 101.707031 C 134.941406 101.382812 134.402344 100.980469 134.050781 100.496094 C 133.699219 100.003906 133.453125 99.402344 133.308594 98.699219 C 133.203125 98.21875 133.152344 97.464844 133.152344 96.433594 L 133.152344 87.605469 L 135.574219 87.605469 L 135.574219 95.515625 C 135.574219 96.78125 135.621094 97.625 135.710938 98.054688 C 135.867188 98.695312 136.191406 99.195312 136.6875 99.558594 C 137.183594 99.925781 137.789062 100.105469 138.503906 100.105469 C 139.234375 100.105469 139.917969 99.925781 140.554688 99.558594 C 141.191406 99.183594 141.640625 98.675781 141.902344 98.035156 C 142.164062 97.398438 142.292969 96.46875 142.292969 95.242188 L 142.292969 87.605469 L 144.714844 87.605469 L 144.714844 101.863281 L 142.546875 101.863281 Z M 142.546875 101.863281 "/>
</g>
</svg>
