<?xml version="1.0" encoding="UTF-8"?>
<!-- Converted by misc2svg (http://www.network-science.de/tools/misc2svg/) -->
<svg xmlns="http://www.w3.org/2000/svg" xmlns:xlink="http://www.w3.org/1999/xlink" width="299pt" height="243pt" viewBox="0 0 299 243" version="1.1">
<g id="misc2svg">
<path style="fill:none;stroke-width:0.8;stroke-linecap:butt;stroke-linejoin:miter;stroke:rgb(0%,0%,0%);stroke-opacity:1;stroke-miterlimit:4;" d="M 48.93125 17.975 L 170.29375 17.975 " transform="matrix(1.25,0,0,1.25,0,0)"/>
<path style="fill:none;stroke-width:0.8;stroke-linecap:butt;stroke-linejoin:miter;stroke:rgb(0%,0%,0%);stroke-opacity:1;stroke-miterlimit:4;" d="M 170.36875 17.975 L 219.78125 17.975 " transform="matrix(1.25,0,0,1.25,0,0)"/>
<path style="fill:none;stroke-width:0.8;stroke-linecap:butt;stroke-linejoin:miter;stroke:rgb(0%,0%,0%);stroke-opacity:1;stroke-miterlimit:4;" d="M 49.034375 169.621875 L 219.996875 169.621875 " transform="matrix(1.25,0,0,1.25,0,0)"/>
<path style="fill:none;stroke-width:0.8;stroke-linecap:butt;stroke-linejoin:miter;stroke:rgb(0%,0%,0%);stroke-opacity:1;stroke-miterlimit:4;" d="M 49.1875 17.60625 L 49.1875 169.30625 " transform="matrix(1.25,0,0,1.25,0,0)"/>
<path style="fill:none;stroke-width:0.8;stroke-linecap:butt;stroke-linejoin:miter;stroke:rgb(0%,0%,0%);stroke-opacity:1;stroke-miterlimit:4;" d="M 20.628125 148.403125 L 20.628125 96.28125 " transform="matrix(1.25,0,0,1.25,0,0)"/>
<path style=" stroke:none;fill-rule:evenodd;fill:rgb(0%,0%,0%);fill-opacity:1;" d="M 21.351562 131.039062 L 25.773438 119.023438 L 30.191406 131.039062 C 27.578125 129.121094 24.007812 129.132812 21.351562 131.039062 Z M 21.351562 131.039062 "/>
<path style="fill:none;stroke-width:1.2;stroke-linecap:butt;stroke-linejoin:miter;stroke:rgb(0%,0%,0%);stroke-opacity:1;stroke-miterlimit:4;" d="M 66.940625 123.153125 C 66.940625 133.109375 58.86875 141.184375 48.909375 141.184375 C 38.953125 141.184375 30.88125 133.109375 30.88125 123.153125 C 30.88125 113.19375 38.953125 105.125 48.909375 105.125 C 58.86875 105.125 66.940625 113.19375 66.940625 123.153125 Z M 66.940625 123.153125 " transform="matrix(1.25,0,0,1.25,0,0)"/>
<path style=" stroke:none;fill-rule:nonzero;fill:rgb(0%,0%,0%);fill-opacity:1;" d="M 0.0078125 158.859375 L 0.0078125 145.441406 L 9.714844 145.441406 L 9.714844 147.023438 L 1.785156 147.023438 L 1.785156 151.125 L 9.207031 151.125 L 9.207031 152.707031 L 1.785156 152.707031 L 1.785156 157.277344 L 10.027344 157.277344 L 10.027344 158.859375 L 0.0078125 158.859375 Z M 0.0078125 158.859375 "/>
<path style=" stroke:none;fill-rule:nonzero;fill:rgb(0%,0%,0%);fill-opacity:1;" d="M 15.640625 162.59375 L 14.546875 162.59375 L 14.546875 155.601562 C 14.28125 155.847656 13.941406 156.101562 13.511719 156.363281 C 13.082031 156.609375 12.695312 156.792969 12.359375 156.910156 L 12.359375 155.855469 C 12.96875 155.570312 13.5 155.222656 13.960938 154.820312 C 14.429688 154.402344 14.75 154 14.9375 153.609375 L 15.640625 153.609375 L 15.640625 162.59375 Z M 15.640625 162.59375 "/>
<path style="fill-rule:nonzero;fill:rgb(100%,100%,100%);fill-opacity:1;stroke-width:1.043077;stroke-linecap:butt;stroke-linejoin:miter;stroke:rgb(0%,0%,0%);stroke-opacity:1;stroke-miterlimit:4;" d="M 41.88125 -57.64375 L 87.596875 -57.64375 L 87.596875 -41.55 L 41.88125 -41.55 L 41.88125 -57.64375 Z M 41.88125 -57.64375 " transform="matrix(0,1.25,-1.25,0,0,0)"/>
<path style=" stroke:none;fill-rule:nonzero;fill:rgb(0%,0%,0%);fill-opacity:1;" d="M 23.84375 83.636719 L 23.84375 70.21875 L 29.800781 70.21875 C 30.996094 70.21875 31.910156 70.347656 32.535156 70.589844 C 33.160156 70.824219 33.652344 71.25 34.019531 71.859375 C 34.394531 72.476562 34.585938 73.144531 34.585938 73.871094 C 34.585938 74.824219 34.273438 75.628906 33.648438 76.292969 C 33.03125 76.949219 32.085938 77.359375 30.796875 77.523438 C 31.265625 77.757812 31.621094 77.988281 31.871094 78.207031 C 32.386719 78.675781 32.886719 79.273438 33.355469 79.984375 L 35.679688 83.636719 L 33.453125 83.636719 L 31.675781 80.84375 C 31.152344 80.039062 30.722656 79.429688 30.386719 79.007812 C 30.042969 78.578125 29.746094 78.28125 29.488281 78.109375 C 29.222656 77.929688 28.960938 77.808594 28.6875 77.738281 C 28.476562 77.699219 28.144531 77.679688 27.691406 77.679688 L 25.621094 77.679688 L 25.621094 83.636719 L 23.84375 83.636719 Z M 25.621094 76.136719 L 29.449219 76.136719 C 30.253906 76.136719 30.882812 76.054688 31.34375 75.882812 C 31.8125 75.71875 32.164062 75.449219 32.398438 75.082031 C 32.632812 74.722656 32.75 74.316406 32.75 73.871094 C 32.75 73.246094 32.515625 72.734375 32.046875 72.328125 C 31.585938 71.914062 30.863281 71.703125 29.878906 71.703125 L 25.621094 71.703125 L 25.621094 76.136719 Z M 25.621094 76.136719 "/>
<path style=" stroke:none;fill-rule:nonzero;fill:rgb(0%,0%,0%);fill-opacity:1;" d="M 40.511719 87.371094 L 39.417969 87.371094 L 39.417969 80.378906 C 39.15625 80.628906 38.8125 80.882812 38.382812 81.140625 C 37.953125 81.390625 37.566406 81.570312 37.230469 81.6875 L 37.230469 80.632812 C 37.839844 80.347656 38.375 80.003906 38.832031 79.597656 C 39.300781 79.183594 39.625 78.777344 39.808594 78.386719 L 40.511719 78.386719 L 40.511719 87.371094 Z M 40.511719 87.371094 "/>
<path style="fill-rule:nonzero;fill:rgb(0%,0%,0%);fill-opacity:1;stroke-width:0.792428;stroke-linecap:butt;stroke-linejoin:miter;stroke:rgb(0%,0%,0%);stroke-opacity:1;stroke-miterlimit:4;" d="M 50.81875 18 C 50.81875 18.778125 50.190625 19.40625 49.409375 19.40625 C 48.63125 19.40625 48.003125 18.778125 48.003125 18 C 48.003125 17.221875 48.63125 16.590625 49.409375 16.590625 C 50.190625 16.590625 50.81875 17.221875 50.81875 18 Z M 50.81875 18 " transform="matrix(1.25,0,0,1.25,0,0)"/>
<path style="fill-rule:nonzero;fill:rgb(0%,0%,0%);fill-opacity:1;stroke-width:0.792428;stroke-linecap:butt;stroke-linejoin:miter;stroke:rgb(0%,0%,0%);stroke-opacity:1;stroke-miterlimit:4;" d="M 50.81875 169.11875 C 50.81875 169.89375 50.190625 170.525 49.409375 170.525 C 48.63125 170.525 48.003125 169.89375 48.003125 169.11875 C 48.003125 168.340625 48.63125 167.7125 49.409375 167.7125 C 50.190625 167.7125 50.81875 168.340625 50.81875 169.11875 Z M 50.81875 169.11875 " transform="matrix(1.25,0,0,1.25,0,0)"/>
<path style=" stroke:none;fill-rule:nonzero;fill:rgb(80%,80%,80%);fill-opacity:1;" d="M 40.660156 2.390625 L 56.320312 2.390625 L 56.320312 16.84375 L 40.660156 16.84375 L 40.660156 2.390625 Z M 40.660156 2.390625 "/>
<path style=" stroke:none;fill-rule:nonzero;fill:rgb(0%,0%,0%);fill-opacity:1;" d="M 43.699219 14.742188 L 47.488281 4.898438 L 48.875 4.898438 L 52.917969 14.742188 L 51.433594 14.742188 L 50.28125 11.753906 L 46.160156 11.753906 L 45.085938 14.742188 L 43.699219 14.742188 Z M 46.53125 10.699219 L 49.871094 10.699219 L 48.855469 7.964844 C 48.542969 7.144531 48.308594 6.46875 48.152344 5.933594 C 48.019531 6.558594 47.84375 7.183594 47.625 7.808594 L 46.53125 10.699219 Z M 46.53125 10.699219 "/>
<path style=" stroke:none;fill-rule:nonzero;fill:rgb(80%,80%,80%);fill-opacity:1;" d="M 40.660156 219.574219 L 56.320312 219.574219 L 56.320312 234.027344 L 40.660156 234.027344 L 40.660156 219.574219 Z M 40.660156 219.574219 "/>
<path style=" stroke:none;fill-rule:nonzero;fill:rgb(0%,0%,0%);fill-opacity:1;" d="M 45.253906 231.921875 L 45.253906 222.078125 L 51.894531 222.078125 L 51.894531 223.25 L 46.542969 223.25 L 46.542969 226.296875 L 51.171875 226.296875 L 51.171875 227.449219 L 46.542969 227.449219 L 46.542969 231.921875 L 45.253906 231.921875 Z M 45.253906 231.921875 "/>
<path style="fill:none;stroke-width:0.8;stroke-linecap:butt;stroke-linejoin:miter;stroke:rgb(0%,0%,0%);stroke-opacity:1;stroke-miterlimit:4;" d="M 133.61875 17.675 L 133.61875 169.60625 " transform="matrix(1.25,0,0,1.25,0,0)"/>
<path style="fill:none;stroke-width:0.8;stroke-linecap:butt;stroke-linejoin:miter;stroke:rgb(0%,0%,0%);stroke-opacity:1;stroke-miterlimit:4;" d="M 109.29375 148.06875 L 109.29375 95.94375 " transform="matrix(1.25,0,0,1.25,0,0)"/>
<path style=" stroke:none;fill-rule:evenodd;fill:rgb(0%,0%,0%);fill-opacity:1;" d="M 132.183594 130.621094 L 136.601562 118.601562 L 141.019531 130.621094 C 138.414062 128.703125 134.839844 128.710938 132.183594 130.621094 Z M 132.183594 130.621094 "/>
<path style="fill:none;stroke-width:1.2;stroke-linecap:butt;stroke-linejoin:miter;stroke:rgb(0%,0%,0%);stroke-opacity:1;stroke-miterlimit:4;" d="M 151.703125 122.0125 C 151.703125 131.96875 143.628125 140.0375 133.671875 140.0375 C 123.715625 140.0375 115.64375 131.96875 115.64375 122.0125 C 115.64375 112.05625 123.715625 103.98125 133.671875 103.98125 C 143.628125 103.98125 151.703125 112.05625 151.703125 122.0125 Z M 151.703125 122.0125 " transform="matrix(1.25,0,0,1.25,0,0)"/>
<path style="fill-rule:nonzero;fill:rgb(100%,100%,100%);fill-opacity:1;stroke-width:1.043077;stroke-linecap:butt;stroke-linejoin:miter;stroke:rgb(0%,0%,0%);stroke-opacity:1;stroke-miterlimit:4;" d="M 40.7375 -141.265625 L 86.453125 -141.265625 L 86.453125 -125.171875 L 40.7375 -125.171875 L 40.7375 -141.265625 Z M 40.7375 -141.265625 " transform="matrix(0,1.25,-1.25,0,0,0)"/>
<path style="fill-rule:nonzero;fill:rgb(0%,0%,0%);fill-opacity:1;stroke-width:0.792428;stroke-linecap:butt;stroke-linejoin:miter;stroke:rgb(0%,0%,0%);stroke-opacity:1;stroke-miterlimit:4;" d="M 135.034375 18.56875 C 135.034375 19.346875 134.40625 19.975 133.628125 19.975 C 132.85 19.975 132.21875 19.346875 132.21875 18.56875 C 132.21875 17.79375 132.85 17.1625 133.628125 17.1625 C 134.40625 17.1625 135.034375 17.79375 135.034375 18.56875 Z M 135.034375 18.56875 " transform="matrix(1.25,0,0,1.25,0,0)"/>
<path style="fill-rule:nonzero;fill:rgb(0%,0%,0%);fill-opacity:1;stroke-width:0.792428;stroke-linecap:butt;stroke-linejoin:miter;stroke:rgb(0%,0%,0%);stroke-opacity:1;stroke-miterlimit:4;" d="M 135.0125 170.11875 C 135.0125 170.89375 134.378125 171.525 133.6 171.525 C 132.825 171.525 132.19375 170.89375 132.19375 170.11875 C 132.19375 169.340625 132.825 168.7125 133.6 168.7125 C 134.378125 168.7125 135.0125 169.340625 135.0125 170.11875 Z M 135.0125 170.11875 " transform="matrix(1.25,0,0,1.25,0,0)"/>
<path style=" stroke:none;fill-rule:nonzero;fill:rgb(80%,80%,80%);fill-opacity:1;" d="M 159.183594 2.390625 L 174.84375 2.390625 L 174.84375 16.84375 L 159.183594 16.84375 L 159.183594 2.390625 Z M 159.183594 2.390625 "/>
<path style=" stroke:none;fill-rule:nonzero;fill:rgb(0%,0%,0%);fill-opacity:1;" d="M 163.257812 14.742188 L 163.257812 4.898438 L 166.949219 4.898438 C 167.691406 4.898438 168.285156 5.003906 168.746094 5.210938 C 169.199219 5.40625 169.554688 5.710938 169.820312 6.128906 C 170.078125 6.53125 170.210938 6.960938 170.210938 7.417969 C 170.210938 7.835938 170.09375 8.230469 169.859375 8.609375 C 169.632812 8.972656 169.292969 9.273438 168.824219 9.507812 C 169.417969 9.675781 169.878906 9.976562 170.191406 10.40625 C 170.511719 10.824219 170.679688 11.316406 170.679688 11.890625 C 170.679688 12.347656 170.582031 12.777344 170.386719 13.179688 C 170.191406 13.570312 169.945312 13.875 169.664062 14.097656 C 169.375 14.304688 169.019531 14.46875 168.589844 14.585938 C 168.160156 14.691406 167.632812 14.742188 167.007812 14.742188 L 163.257812 14.742188 Z M 164.546875 9.039062 L 166.675781 9.039062 C 167.261719 9.039062 167.675781 9 167.925781 8.921875 C 168.246094 8.816406 168.496094 8.65625 168.667969 8.433594 C 168.832031 8.199219 168.921875 7.914062 168.921875 7.574219 C 168.921875 7.25 168.84375 6.960938 168.6875 6.714844 C 168.53125 6.46875 168.300781 6.296875 168.003906 6.207031 C 167.714844 6.117188 167.222656 6.070312 166.519531 6.070312 L 164.546875 6.070312 L 164.546875 9.039062 Z M 164.546875 13.589844 L 167.007812 13.589844 C 167.421875 13.589844 167.714844 13.570312 167.886719 13.53125 C 168.183594 13.480469 168.433594 13.394531 168.628906 13.277344 C 168.832031 13.148438 169.003906 12.964844 169.136719 12.730469 C 169.261719 12.484375 169.332031 12.203125 169.332031 11.890625 C 169.332031 11.527344 169.234375 11.207031 169.039062 10.933594 C 168.851562 10.660156 168.59375 10.472656 168.257812 10.367188 C 167.929688 10.25 167.457031 10.191406 166.832031 10.191406 L 164.546875 10.191406 L 164.546875 13.589844 Z M 164.546875 13.589844 "/>
<path style=" stroke:none;fill-rule:nonzero;fill:rgb(80%,80%,80%);fill-opacity:1;" d="M 140.898438 215.289062 L 156.558594 215.289062 L 156.558594 229.742188 L 140.898438 229.742188 L 140.898438 215.289062 Z M 140.898438 215.289062 "/>
<path style=" stroke:none;fill-rule:nonzero;fill:rgb(0%,0%,0%);fill-opacity:1;" d="M 145.050781 227.636719 L 145.050781 217.792969 L 152.160156 217.792969 L 152.160156 218.964844 L 146.339844 218.964844 L 146.339844 221.972656 L 151.789062 221.972656 L 151.789062 223.125 L 146.339844 223.125 L 146.339844 226.484375 L 152.394531 226.484375 L 152.394531 227.636719 L 145.050781 227.636719 Z M 145.050781 227.636719 "/>
<path style=" stroke:none;fill-rule:nonzero;fill:rgb(0%,0%,0%);fill-opacity:1;" d="M 128.449219 82.3125 L 128.449219 68.894531 L 134.40625 68.894531 C 135.605469 68.894531 136.515625 69.019531 137.140625 69.265625 C 137.765625 69.5 138.261719 69.921875 138.625 70.535156 C 139.003906 71.148438 139.191406 71.816406 139.191406 72.546875 C 139.191406 73.496094 138.878906 74.304688 138.253906 74.96875 C 137.640625 75.621094 136.691406 76.03125 135.402344 76.199219 C 135.871094 76.433594 136.230469 76.660156 136.476562 76.882812 C 136.996094 77.351562 137.492188 77.945312 137.960938 78.660156 L 140.285156 82.3125 L 138.058594 82.3125 L 136.28125 79.519531 C 135.761719 78.710938 135.332031 78.101562 134.992188 77.683594 C 134.652344 77.253906 134.355469 76.953125 134.09375 76.785156 C 133.832031 76.601562 133.566406 76.480469 133.292969 76.414062 C 133.085938 76.375 132.753906 76.355469 132.296875 76.355469 L 130.226562 76.355469 L 130.226562 82.3125 L 128.449219 82.3125 Z M 130.226562 74.8125 L 134.054688 74.8125 C 134.863281 74.8125 135.492188 74.726562 135.949219 74.558594 C 136.417969 74.390625 136.769531 74.121094 137.003906 73.757812 C 137.238281 73.394531 137.355469 72.988281 137.355469 72.546875 C 137.355469 71.921875 137.121094 71.40625 136.652344 71.003906 C 136.195312 70.585938 135.472656 70.378906 134.484375 70.378906 L 130.226562 70.378906 L 130.226562 74.8125 Z M 130.226562 74.8125 "/>
<path style=" stroke:none;fill-rule:nonzero;fill:rgb(0%,0%,0%);fill-opacity:1;" d="M 146.761719 84.988281 L 146.761719 86.042969 L 140.84375 86.042969 C 140.84375 85.785156 140.886719 85.53125 140.980469 85.28125 C 141.136719 84.882812 141.375 84.480469 141.703125 84.089844 C 142.023438 83.699219 142.507812 83.25 143.148438 82.742188 C 144.109375 81.9375 144.757812 81.308594 145.101562 80.847656 C 145.453125 80.378906 145.628906 79.941406 145.628906 79.519531 C 145.628906 79.082031 145.472656 78.714844 145.160156 78.425781 C 144.847656 78.128906 144.441406 77.976562 143.949219 77.976562 C 143.410156 77.976562 142.980469 78.132812 142.660156 78.445312 C 142.347656 78.757812 142.191406 79.199219 142.191406 79.753906 L 141.058594 79.636719 C 141.136719 78.808594 141.417969 78.167969 141.917969 77.722656 C 142.425781 77.285156 143.109375 77.058594 143.96875 77.058594 C 144.828125 77.058594 145.5 77.304688 146 77.78125 C 146.507812 78.25 146.761719 78.835938 146.761719 79.539062 C 146.761719 79.90625 146.683594 80.261719 146.527344 80.613281 C 146.378906 80.957031 146.140625 81.316406 145.804688 81.707031 C 145.460938 82.089844 144.894531 82.605469 144.105469 83.269531 C 143.449219 83.816406 143.03125 84.199219 142.835938 84.402344 C 142.648438 84.597656 142.503906 84.792969 142.386719 84.988281 L 146.761719 84.988281 Z M 146.761719 84.988281 "/>
<path style=" stroke:none;fill-rule:nonzero;fill:rgb(0%,0%,0%);fill-opacity:1;" d="M 111.070312 158.859375 L 111.070312 145.441406 L 120.777344 145.441406 L 120.777344 147.023438 L 112.847656 147.023438 L 112.847656 151.125 L 120.269531 151.125 L 120.269531 152.707031 L 112.847656 152.707031 L 112.847656 157.277344 L 121.089844 157.277344 L 121.089844 158.859375 L 111.070312 158.859375 Z M 111.070312 158.859375 "/>
<path style=" stroke:none;fill-rule:nonzero;fill:rgb(0%,0%,0%);fill-opacity:1;" d="M 128.34375 161.539062 L 128.34375 162.59375 L 122.425781 162.59375 C 122.425781 162.332031 122.46875 162.078125 122.5625 161.832031 C 122.71875 161.429688 122.957031 161.03125 123.285156 160.640625 C 123.605469 160.25 124.089844 159.800781 124.730469 159.292969 C 125.691406 158.484375 126.339844 157.855469 126.683594 157.398438 C 127.035156 156.929688 127.210938 156.488281 127.210938 156.070312 C 127.210938 155.628906 127.054688 155.261719 126.742188 154.976562 C 126.429688 154.675781 126.023438 154.527344 125.53125 154.527344 C 124.992188 154.527344 124.5625 154.683594 124.242188 154.996094 C 123.929688 155.308594 123.773438 155.746094 123.773438 156.304688 L 122.640625 156.1875 C 122.71875 155.355469 123 154.714844 123.5 154.273438 C 124.007812 153.832031 124.691406 153.609375 125.550781 153.609375 C 126.410156 153.609375 127.082031 153.851562 127.582031 154.332031 C 128.089844 154.800781 128.34375 155.386719 128.34375 156.089844 C 128.34375 156.453125 128.265625 156.8125 128.109375 157.164062 C 127.960938 157.503906 127.722656 157.867188 127.386719 158.257812 C 127.042969 158.636719 126.476562 159.15625 125.6875 159.820312 C 125.03125 160.367188 124.613281 160.746094 124.417969 160.953125 C 124.230469 161.148438 124.085938 161.34375 123.96875 161.539062 L 128.34375 161.539062 Z M 128.34375 161.539062 "/>
<path style="fill:none;stroke-width:0.8;stroke-linecap:butt;stroke-linejoin:miter;stroke:rgb(0%,0%,0%);stroke-opacity:1;stroke-miterlimit:4;" d="M 133.096875 169.425 L 133.096875 186.56875 " transform="matrix(1.25,0,0,1.25,0,0)"/>
<path style="fill:none;stroke-width:0.819976;stroke-linecap:butt;stroke-linejoin:miter;stroke:rgb(0%,0%,0%);stroke-opacity:1;stroke-miterlimit:4;" d="M 120.246875 186.56875 L 147.778125 186.56875 " transform="matrix(1.25,0,0,1.25,0,0)"/>
<path style="fill:none;stroke-width:0.698241;stroke-linecap:butt;stroke-linejoin:miter;stroke:rgb(0%,0%,0%);stroke-opacity:1;stroke-miterlimit:4;" d="M 145.38125 186.56875 L 138.903125 194.05 " transform="matrix(1.25,0,0,1.25,0,0)"/>
<path style="fill:none;stroke-width:0.698241;stroke-linecap:butt;stroke-linejoin:miter;stroke:rgb(0%,0%,0%);stroke-opacity:1;stroke-miterlimit:4;" d="M 141.19375 186.56875 L 134.7125 194.05 " transform="matrix(1.25,0,0,1.25,0,0)"/>
<path style="fill:none;stroke-width:0.698241;stroke-linecap:butt;stroke-linejoin:miter;stroke:rgb(0%,0%,0%);stroke-opacity:1;stroke-miterlimit:4;" d="M 137.003125 186.56875 L 130.525 194.05 " transform="matrix(1.25,0,0,1.25,0,0)"/>
<path style="fill:none;stroke-width:0.698241;stroke-linecap:butt;stroke-linejoin:miter;stroke:rgb(0%,0%,0%);stroke-opacity:1;stroke-miterlimit:4;" d="M 132.815625 186.56875 L 126.33125 194.05 " transform="matrix(1.25,0,0,1.25,0,0)"/>
<path style="fill:none;stroke-width:0.698241;stroke-linecap:butt;stroke-linejoin:miter;stroke:rgb(0%,0%,0%);stroke-opacity:1;stroke-miterlimit:4;" d="M 128.625 186.56875 L 122.14375 194.05 " transform="matrix(1.25,0,0,1.25,0,0)"/>
<path style="fill:none;stroke-width:0.698241;stroke-linecap:butt;stroke-linejoin:miter;stroke:rgb(0%,0%,0%);stroke-opacity:1;stroke-miterlimit:4;" d="M 124.4375 186.56875 L 117.953125 194.05 " transform="matrix(1.25,0,0,1.25,0,0)"/>
<path style="fill:none;stroke-width:0.8;stroke-linecap:butt;stroke-linejoin:miter;stroke:rgb(100%,0%,0%);stroke-opacity:1;stroke-miterlimit:4;" d="M 86.69375 18.090625 L 96.41875 18.090625 " transform="matrix(1.25,0,0,1.25,0,0)"/>
<path style="fill-rule:evenodd;fill:rgb(100%,0%,0%);fill-opacity:1;stroke-width:0.55;stroke-linecap:butt;stroke-linejoin:round;stroke:rgb(100%,0%,0%);stroke-opacity:1;stroke-miterlimit:4;" d="M -87.8625 -14.5375 L -97.48125 -18.075 L -87.8625 -21.609375 C -89.403125 -19.525 -89.390625 -16.66875 -87.8625 -14.5375 Z M -87.8625 -14.5375 " transform="matrix(-1.25,0,0,-1.25,0,0)"/>
<path style=" stroke:none;fill-rule:nonzero;fill:rgb(100%,0%,0%);fill-opacity:1;" d="M 113.515625 10.300781 L 113.515625 10.59375 L 108.90625 10.59375 L 108.90625 10.300781 L 109.277344 10.300781 C 109.71875 10.300781 110.046875 10.171875 110.253906 9.910156 C 110.382812 9.742188 110.449219 9.335938 110.449219 8.679688 L 110.449219 1.746094 C 110.449219 1.199219 110.410156 0.835938 110.332031 0.652344 C 110.28125 0.523438 110.175781 0.414062 110.019531 0.320312 C 109.785156 0.195312 109.539062 0.125 109.277344 0.125 L 108.90625 0.125 L 108.90625 -0.167969 L 113.515625 -0.167969 L 113.515625 0.125 L 113.125 0.125 C 112.683594 0.125 112.363281 0.257812 112.167969 0.515625 C 112.039062 0.6875 111.972656 1.097656 111.972656 1.746094 L 111.972656 8.679688 C 111.972656 9.226562 112.003906 9.59375 112.070312 9.773438 C 112.121094 9.90625 112.234375 10.015625 112.402344 10.105469 C 112.625 10.238281 112.863281 10.300781 113.125 10.300781 L 113.515625 10.300781 Z M 113.515625 10.300781 "/>
<path style=" stroke:none;fill-rule:nonzero;fill:rgb(100%,0%,0%);fill-opacity:1;" d="M 117.570312 13.792969 L 116.691406 13.792969 L 116.691406 8.1875 C 116.484375 8.398438 116.203125 8.609375 115.851562 8.8125 C 115.511719 9.007812 115.207031 9.15625 114.933594 9.242188 L 114.933594 8.402344 C 115.429688 8.167969 115.859375 7.890625 116.222656 7.5625 C 116.585938 7.242188 116.847656 6.917969 117.003906 6.605469 L 117.570312 6.605469 L 117.570312 13.792969 Z M 117.570312 13.792969 "/>
<path style="fill:none;stroke-width:0.8;stroke-linecap:butt;stroke-linejoin:miter;stroke:rgb(0%,50.196078%,0%);stroke-opacity:1;stroke-miterlimit:4;" d="M 133.6 25.24375 L 133.6 34.9625 " transform="matrix(1.25,0,0,1.25,0,0)"/>
<path style="fill-rule:evenodd;fill:rgb(0%,50.196078%,0%);fill-opacity:1;stroke-width:0.55;stroke-linecap:butt;stroke-linejoin:round;stroke:rgb(0%,50.196078%,0%);stroke-opacity:1;stroke-miterlimit:4;" d="M -26.409375 137.153125 L -36.025 133.6125 L -26.409375 130.078125 C -27.946875 132.16875 -27.9375 135.025 -26.409375 137.153125 Z M -26.409375 137.153125 " transform="matrix(-0.000000000000000076,-1.25,1.25,-0.000000000000000076,0,0)"/>
<path style=" stroke:none;fill-rule:nonzero;fill:rgb(0%,50.196078%,0%);fill-opacity:1;" d="M 181.914062 42.308594 L 181.914062 42.601562 L 177.304688 42.601562 L 177.304688 42.308594 L 177.675781 42.308594 C 178.113281 42.308594 178.441406 42.183594 178.652344 41.917969 C 178.777344 41.753906 178.847656 41.34375 178.847656 40.6875 L 178.847656 33.753906 C 178.847656 33.207031 178.808594 32.847656 178.730469 32.660156 C 178.675781 32.535156 178.574219 32.421875 178.417969 32.328125 C 178.183594 32.203125 177.933594 32.132812 177.675781 32.132812 L 177.304688 32.132812 L 177.304688 31.839844 L 181.914062 31.839844 L 181.914062 32.132812 L 181.523438 32.132812 C 181.078125 32.132812 180.761719 32.265625 180.566406 32.523438 C 180.433594 32.695312 180.371094 33.105469 180.371094 33.753906 L 180.371094 40.6875 C 180.371094 41.234375 180.398438 41.601562 180.46875 41.78125 C 180.515625 41.914062 180.628906 42.027344 180.800781 42.113281 C 181.019531 42.246094 181.257812 42.308594 181.523438 42.308594 L 181.914062 42.308594 Z M 181.914062 42.308594 "/>
<path style=" stroke:none;fill-rule:nonzero;fill:rgb(0%,50.196078%,0%);fill-opacity:1;" d="M 186.828125 44.53125 L 186.359375 45.800781 L 182.453125 45.800781 L 182.453125 45.625 C 183.59375 44.570312 184.40625 43.710938 184.875 43.046875 C 185.34375 42.382812 185.578125 41.777344 185.578125 41.230469 C 185.578125 40.816406 185.445312 40.46875 185.1875 40.195312 C 184.9375 39.921875 184.628906 39.785156 184.269531 39.785156 C 183.941406 39.785156 183.648438 39.882812 183.390625 40.078125 C 183.140625 40.265625 182.949219 40.542969 182.824219 40.917969 L 182.648438 40.917969 C 182.726562 40.308594 182.929688 39.84375 183.273438 39.53125 C 183.609375 39.210938 184.035156 39.042969 184.542969 39.042969 C 185.074219 39.042969 185.519531 39.21875 185.871094 39.570312 C 186.230469 39.914062 186.417969 40.3125 186.417969 40.78125 C 186.417969 41.125 186.339844 41.457031 186.183594 41.777344 C 185.949219 42.316406 185.558594 42.871094 185.011719 43.457031 C 184.199219 44.347656 183.691406 44.878906 183.488281 45.058594 L 185.226562 45.058594 C 185.578125 45.058594 185.820312 45.050781 185.96875 45.019531 C 186.109375 44.996094 186.230469 44.941406 186.339844 44.863281 C 186.457031 44.785156 186.558594 44.679688 186.652344 44.53125 L 186.828125 44.53125 Z M 186.828125 44.53125 "/>
<path style="fill:none;stroke-width:0.8;stroke-linecap:butt;stroke-linejoin:miter;stroke:rgb(0%,0%,100%);stroke-opacity:1;stroke-miterlimit:4;" d="M 173.2 17.96875 L 182.91875 17.96875 " transform="matrix(1.25,0,0,1.25,0,0)"/>
<path style="fill-rule:evenodd;fill:rgb(0%,0%,100%);fill-opacity:1;stroke-width:0.55;stroke-linecap:butt;stroke-linejoin:round;stroke:rgb(0%,0%,100%);stroke-opacity:1;stroke-miterlimit:4;" d="M -174.36875 -14.41875 L -183.98125 -17.953125 L -174.36875 -21.4875 C -175.903125 -19.403125 -175.890625 -16.546875 -174.36875 -14.41875 Z M -174.36875 -14.41875 " transform="matrix(-1.25,0,0,-1.25,0,0)"/>
<path style=" stroke:none;fill-rule:nonzero;fill:rgb(0%,0%,100%);fill-opacity:1;" d="M 223.824219 11.664062 L 223.824219 11.957031 L 219.214844 11.957031 L 219.214844 11.664062 L 219.585938 11.664062 C 220.027344 11.664062 220.351562 11.539062 220.5625 11.273438 C 220.691406 11.109375 220.757812 10.699219 220.757812 10.042969 L 220.757812 3.109375 C 220.757812 2.5625 220.71875 2.203125 220.640625 2.015625 C 220.585938 1.890625 220.484375 1.777344 220.328125 1.683594 C 220.09375 1.558594 219.84375 1.488281 219.585938 1.488281 L 219.214844 1.488281 L 219.214844 1.195312 L 223.824219 1.195312 L 223.824219 1.488281 L 223.433594 1.488281 C 222.988281 1.488281 222.671875 1.621094 222.476562 1.878906 C 222.34375 2.050781 222.28125 2.460938 222.28125 3.109375 L 222.28125 10.042969 C 222.28125 10.589844 222.3125 10.957031 222.378906 11.136719 C 222.429688 11.269531 222.539062 11.382812 222.710938 11.46875 C 222.929688 11.601562 223.171875 11.664062 223.433594 11.664062 L 223.824219 11.664062 Z M 223.824219 11.664062 "/>
<path style=" stroke:none;fill-rule:nonzero;fill:rgb(0%,0%,100%);fill-opacity:1;" d="M 224.65625 9.785156 C 224.851562 9.347656 225.089844 9.003906 225.378906 8.769531 C 225.664062 8.527344 226.023438 8.398438 226.453125 8.398438 C 226.984375 8.398438 227.390625 8.570312 227.664062 8.90625 C 227.882812 9.171875 227.996094 9.449219 227.996094 9.746094 C 227.996094 10.230469 227.6875 10.722656 227.078125 11.230469 C 227.492188 11.386719 227.804688 11.617188 228.015625 11.914062 C 228.222656 12.21875 228.328125 12.570312 228.328125 12.96875 C 228.328125 13.546875 228.144531 14.039062 227.78125 14.453125 C 227.296875 15 226.609375 15.273438 225.710938 15.273438 C 225.265625 15.273438 224.960938 15.222656 224.792969 15.117188 C 224.636719 15 224.558594 14.878906 224.558594 14.746094 C 224.558594 14.660156 224.597656 14.582031 224.675781 14.511719 C 224.753906 14.433594 224.84375 14.394531 224.949219 14.394531 C 225.027344 14.394531 225.109375 14.410156 225.203125 14.433594 C 225.253906 14.449219 225.378906 14.507812 225.574219 14.609375 C 225.769531 14.71875 225.90625 14.777344 225.984375 14.785156 C 226.101562 14.824219 226.222656 14.84375 226.355469 14.84375 C 226.691406 14.84375 226.984375 14.722656 227.234375 14.472656 C 227.480469 14.214844 227.605469 13.90625 227.605469 13.554688 C 227.605469 13.296875 227.546875 13.042969 227.429688 12.792969 C 227.335938 12.613281 227.246094 12.476562 227.15625 12.382812 C 227.011719 12.257812 226.816406 12.140625 226.570312 12.03125 C 226.320312 11.929688 226.074219 11.875 225.828125 11.875 L 225.671875 11.875 L 225.671875 11.71875 C 225.929688 11.695312 226.183594 11.601562 226.433594 11.445312 C 226.691406 11.289062 226.882812 11.109375 227 10.898438 C 227.117188 10.679688 227.175781 10.441406 227.175781 10.175781 C 227.175781 9.855469 227.070312 9.585938 226.863281 9.375 C 226.652344 9.171875 226.394531 9.0625 226.082031 9.0625 C 225.574219 9.0625 225.148438 9.332031 224.8125 9.863281 L 224.65625 9.785156 Z M 224.65625 9.785156 "/>
<path style="fill:none;stroke-width:0.8;stroke-linecap:butt;stroke-linejoin:miter;stroke:rgb(0%,0%,0%);stroke-opacity:1;stroke-miterlimit:4;" d="M 220.225 18.25 L 220.225 170.175 " transform="matrix(1.25,0,0,1.25,0,0)"/>
<path style="fill:none;stroke-width:0.8;stroke-linecap:butt;stroke-linejoin:miter;stroke:rgb(0%,0%,0%);stroke-opacity:1;stroke-miterlimit:4;" d="M 220.225 18.25 L 220.225 168.9625 " transform="matrix(1.25,0,0,1.25,0,0)"/>
<path style="fill-rule:nonzero;fill:rgb(0%,0%,0%);fill-opacity:1;stroke-width:0.792428;stroke-linecap:butt;stroke-linejoin:miter;stroke:rgb(0%,0%,0%);stroke-opacity:1;stroke-miterlimit:4;" d="M 221.6125 18 C 221.6125 18.778125 220.98125 19.40625 220.203125 19.40625 C 219.425 19.40625 218.796875 18.778125 218.796875 18 C 218.796875 17.221875 219.425 16.590625 220.203125 16.590625 C 220.98125 16.590625 221.6125 17.221875 221.6125 18 Z M 221.6125 18 " transform="matrix(1.25,0,0,1.25,0,0)"/>
<path style="fill-rule:nonzero;fill:rgb(0%,0%,0%);fill-opacity:1;stroke-width:0.792428;stroke-linecap:butt;stroke-linejoin:miter;stroke:rgb(0%,0%,0%);stroke-opacity:1;stroke-miterlimit:4;" d="M 221.5875 169.546875 C 221.5875 170.325 220.95625 170.953125 220.18125 170.953125 C 219.403125 170.953125 218.76875 170.325 218.76875 169.546875 C 218.76875 168.76875 219.403125 168.1375 220.18125 168.1375 C 220.95625 168.1375 221.5875 168.76875 221.5875 169.546875 Z M 221.5875 169.546875 " transform="matrix(1.25,0,0,1.25,0,0)"/>
<path style=" stroke:none;fill-rule:nonzero;fill:rgb(80%,80%,80%);fill-opacity:1;" d="M 266.734375 219.574219 L 282.390625 219.574219 L 282.390625 234.027344 L 266.734375 234.027344 L 266.734375 219.574219 Z M 266.734375 219.574219 "/>
<path style=" stroke:none;fill-rule:nonzero;fill:rgb(0%,0%,0%);fill-opacity:1;" d="M 270.453125 231.921875 L 270.453125 222.078125 L 273.851562 222.078125 C 274.621094 222.078125 275.207031 222.128906 275.609375 222.214844 C 276.167969 222.347656 276.652344 222.582031 277.054688 222.917969 C 277.5625 223.363281 277.945312 223.929688 278.207031 224.617188 C 278.46875 225.296875 278.597656 226.074219 278.597656 226.941406 C 278.597656 227.699219 278.507812 228.363281 278.324219 228.933594 C 278.15625 229.511719 277.933594 229.984375 277.660156 230.359375 C 277.386719 230.742188 277.085938 231.039062 276.761719 231.257812 C 276.4375 231.484375 276.046875 231.648438 275.589844 231.765625 C 275.132812 231.875 274.605469 231.921875 274.007812 231.921875 L 270.453125 231.921875 Z M 271.761719 230.769531 L 273.871094 230.769531 C 274.507812 230.769531 275.011719 230.710938 275.375 230.59375 C 275.753906 230.46875 276.050781 230.292969 276.273438 230.066406 C 276.585938 229.753906 276.828125 229.339844 276.996094 228.816406 C 277.164062 228.300781 277.25 227.664062 277.25 226.921875 C 277.25 225.898438 277.082031 225.105469 276.742188 224.558594 C 276.402344 224.003906 275.992188 223.632812 275.511719 223.445312 C 275.160156 223.320312 274.601562 223.25 273.832031 223.25 L 271.761719 223.25 L 271.761719 230.769531 Z M 271.761719 230.769531 "/>
<path style=" stroke:none;fill-rule:nonzero;fill:rgb(80%,80%,80%);fill-opacity:1;" d="M 268.246094 2.390625 L 283.90625 2.390625 L 283.90625 16.84375 L 268.246094 16.84375 L 268.246094 2.390625 Z M 268.246094 2.390625 "/>
<path style=" stroke:none;fill-rule:nonzero;fill:rgb(0%,0%,0%);fill-opacity:1;" d="M 279 11.285156 L 280.308594 11.617188 C 280.035156 12.683594 279.539062 13.503906 278.824219 14.078125 C 278.121094 14.636719 277.253906 14.917969 276.226562 14.917969 C 275.15625 14.917969 274.292969 14.703125 273.628906 14.273438 C 272.964844 13.832031 272.457031 13.199219 272.105469 12.378906 C 271.765625 11.558594 271.597656 10.679688 271.597656 9.742188 C 271.597656 8.726562 271.792969 7.835938 272.183594 7.066406 C 272.574219 6.296875 273.125 5.71875 273.84375 5.328125 C 274.570312 4.925781 275.371094 4.722656 276.246094 4.722656 C 277.234375 4.722656 278.0625 4.976562 278.726562 5.484375 C 279.402344 5.980469 279.871094 6.683594 280.132812 7.59375 L 278.84375 7.90625 C 278.621094 7.191406 278.289062 6.667969 277.847656 6.34375 C 277.417969 6.019531 276.875 5.855469 276.226562 5.855469 C 275.457031 5.855469 274.820312 6.039062 274.3125 6.402344 C 273.804688 6.753906 273.445312 7.234375 273.238281 7.847656 C 273.042969 8.460938 272.945312 9.089844 272.945312 9.742188 C 272.945312 10.574219 273.0625 11.304688 273.296875 11.929688 C 273.542969 12.554688 273.921875 13.023438 274.429688 13.335938 C 274.949219 13.648438 275.507812 13.804688 276.109375 13.804688 C 276.835938 13.804688 277.457031 13.597656 277.964844 13.179688 C 278.472656 12.75 278.816406 12.117188 279 11.285156 Z M 279 11.285156 "/>
<path style="fill:none;stroke-width:0.8;stroke-linecap:butt;stroke-linejoin:miter;stroke:rgb(0%,0%,0%);stroke-opacity:1;stroke-miterlimit:4;" d="M 196.1 148.296875 L 196.1 96.171875 " transform="matrix(1.25,0,0,1.25,0,0)"/>
<path style=" stroke:none;fill-rule:evenodd;fill:rgb(0%,0%,0%);fill-opacity:1;" d="M 240.6875 130.90625 L 245.109375 118.886719 L 249.527344 130.90625 C 246.917969 128.984375 243.351562 129 240.6875 130.90625 Z M 240.6875 130.90625 "/>
<path style="fill:none;stroke-width:1.2;stroke-linecap:butt;stroke-linejoin:miter;stroke:rgb(0%,0%,0%);stroke-opacity:1;stroke-miterlimit:4;" d="M 238.50625 122.2375 C 238.50625 132.19375 230.4375 140.265625 220.48125 140.265625 C 210.525 140.265625 202.45 132.19375 202.45 122.2375 C 202.45 112.28125 210.525 104.20625 220.48125 104.20625 C 230.4375 104.20625 238.50625 112.28125 238.50625 122.2375 Z M 238.50625 122.2375 " transform="matrix(1.25,0,0,1.25,0,0)"/>
<path style="fill-rule:nonzero;fill:rgb(100%,100%,100%);fill-opacity:1;stroke-width:1.043077;stroke-linecap:butt;stroke-linejoin:miter;stroke:rgb(0%,0%,0%);stroke-opacity:1;stroke-miterlimit:4;" d="M 40.965625 -228.075 L 86.684375 -228.075 L 86.684375 -211.975 L 40.965625 -211.975 L 40.965625 -228.075 Z M 40.965625 -228.075 " transform="matrix(0,1.25,-1.25,0,0,0)"/>
<path style=" stroke:none;fill-rule:nonzero;fill:rgb(0%,0%,0%);fill-opacity:1;" d="M 236.960938 82.59375 L 236.960938 69.175781 L 242.917969 69.175781 C 244.113281 69.175781 245.027344 69.304688 245.652344 69.546875 C 246.277344 69.78125 246.769531 70.207031 247.136719 70.816406 C 247.511719 71.433594 247.703125 72.101562 247.703125 72.828125 C 247.703125 73.78125 247.390625 74.585938 246.765625 75.25 C 246.148438 75.90625 245.203125 76.316406 243.914062 76.480469 C 244.382812 76.714844 244.738281 76.945312 244.988281 77.164062 C 245.503906 77.632812 246.003906 78.230469 246.472656 78.941406 L 248.796875 82.59375 L 246.570312 82.59375 L 244.792969 79.800781 C 244.269531 78.996094 243.839844 78.386719 243.503906 77.964844 C 243.160156 77.535156 242.863281 77.238281 242.605469 77.066406 C 242.339844 76.886719 242.078125 76.765625 241.804688 76.695312 C 241.59375 76.65625 241.261719 76.636719 240.808594 76.636719 L 238.738281 76.636719 L 238.738281 82.59375 L 236.960938 82.59375 Z M 238.738281 75.09375 L 242.566406 75.09375 C 243.371094 75.09375 244 75.011719 244.460938 74.839844 C 244.929688 74.675781 245.28125 74.40625 245.515625 74.039062 C 245.75 73.679688 245.867188 73.273438 245.867188 72.828125 C 245.867188 72.203125 245.632812 71.691406 245.164062 71.285156 C 244.703125 70.871094 243.980469 70.660156 242.996094 70.660156 L 238.738281 70.660156 L 238.738281 75.09375 Z M 238.738281 75.09375 "/>
<path style=" stroke:none;fill-rule:nonzero;fill:rgb(0%,0%,0%);fill-opacity:1;" d="M 249.507812 83.964844 L 250.601562 83.828125 C 250.726562 84.441406 250.941406 84.890625 251.246094 85.175781 C 251.542969 85.449219 251.914062 85.585938 252.359375 85.585938 C 252.875 85.585938 253.316406 85.410156 253.667969 85.058594 C 254.019531 84.695312 254.195312 84.246094 254.195312 83.710938 C 254.195312 83.203125 254.027344 82.785156 253.707031 82.460938 C 253.378906 82.136719 252.964844 81.972656 252.457031 81.972656 C 252.246094 81.972656 251.988281 82.011719 251.675781 82.089844 L 251.792969 81.132812 C 251.871094 81.132812 251.929688 81.132812 251.96875 81.132812 C 252.4375 81.132812 252.855469 81.015625 253.238281 80.78125 C 253.613281 80.535156 253.804688 80.15625 253.804688 79.648438 C 253.804688 79.246094 253.667969 78.914062 253.394531 78.652344 C 253.121094 78.378906 252.769531 78.242188 252.339844 78.242188 C 251.910156 78.242188 251.546875 78.378906 251.265625 78.652344 C 250.976562 78.914062 250.796875 79.316406 250.71875 79.863281 L 249.625 79.667969 C 249.75 78.925781 250.054688 78.351562 250.523438 77.949219 C 251 77.546875 251.597656 77.34375 252.300781 77.34375 C 252.792969 77.34375 253.242188 77.449219 253.648438 77.65625 C 254.0625 77.863281 254.375 78.152344 254.585938 78.515625 C 254.804688 78.878906 254.917969 79.265625 254.917969 79.667969 C 254.917969 80.058594 254.808594 80.410156 254.605469 80.722656 C 254.410156 81.035156 254.101562 81.289062 253.6875 81.484375 C 254.21875 81.601562 254.628906 81.855469 254.917969 82.246094 C 255.214844 82.625 255.367188 83.105469 255.367188 83.691406 C 255.367188 84.472656 255.078125 85.136719 254.507812 85.683594 C 253.929688 86.21875 253.21875 86.484375 252.359375 86.484375 C 251.5625 86.484375 250.902344 86.25 250.386719 85.78125 C 249.878906 85.3125 249.585938 84.707031 249.507812 83.964844 Z M 249.507812 83.964844 "/>
<path style=" stroke:none;fill-rule:nonzero;fill:rgb(0%,0%,0%);fill-opacity:1;" d="M 219.578125 159.140625 L 219.578125 145.722656 L 229.285156 145.722656 L 229.285156 147.304688 L 221.355469 147.304688 L 221.355469 151.40625 L 228.777344 151.40625 L 228.777344 152.988281 L 221.355469 152.988281 L 221.355469 157.558594 L 229.597656 157.558594 L 229.597656 159.140625 L 219.578125 159.140625 Z M 219.578125 159.140625 "/>
<path style=" stroke:none;fill-rule:nonzero;fill:rgb(0%,0%,0%);fill-opacity:1;" d="M 231.089844 160.511719 L 232.183594 160.375 C 232.3125 160.992188 232.527344 161.441406 232.828125 161.722656 C 233.125 161.996094 233.496094 162.132812 233.941406 162.132812 C 234.460938 162.132812 234.898438 161.957031 235.25 161.605469 C 235.601562 161.246094 235.777344 160.796875 235.777344 160.257812 C 235.777344 159.75 235.613281 159.335938 235.289062 159.007812 C 234.960938 158.6875 234.546875 158.519531 234.039062 158.519531 C 233.828125 158.519531 233.570312 158.558594 233.257812 158.636719 L 233.375 157.679688 C 233.453125 157.679688 233.511719 157.679688 233.550781 157.679688 C 234.019531 157.679688 234.441406 157.5625 234.820312 157.328125 C 235.195312 157.085938 235.386719 156.703125 235.386719 156.195312 C 235.386719 155.796875 235.25 155.464844 234.976562 155.199219 C 234.703125 154.925781 234.351562 154.789062 233.921875 154.789062 C 233.492188 154.789062 233.132812 154.925781 232.847656 155.199219 C 232.558594 155.464844 232.378906 155.863281 232.300781 156.410156 L 231.207031 156.214844 C 231.335938 155.472656 231.636719 154.902344 232.105469 154.496094 C 232.585938 154.097656 233.179688 153.890625 233.882812 153.890625 C 234.375 153.890625 234.824219 154 235.230469 154.203125 C 235.644531 154.414062 235.957031 154.703125 236.167969 155.0625 C 236.386719 155.429688 236.5 155.816406 236.5 156.214844 C 236.5 156.605469 236.394531 156.957031 236.1875 157.269531 C 235.992188 157.582031 235.683594 157.835938 235.269531 158.03125 C 235.800781 158.148438 236.210938 158.402344 236.5 158.792969 C 236.796875 159.175781 236.949219 159.652344 236.949219 160.238281 C 236.949219 161.019531 236.660156 161.683594 236.089844 162.230469 C 235.515625 162.769531 234.800781 163.03125 233.941406 163.03125 C 233.144531 163.03125 232.488281 162.796875 231.96875 162.328125 C 231.460938 161.859375 231.167969 161.253906 231.089844 160.511719 Z M 231.089844 160.511719 "/>
</g>
</svg>
