<?xml version="1.0" encoding="UTF-8"?>
<!-- Converted by misc2svg (http://www.network-science.de/tools/misc2svg/) -->
<svg xmlns="http://www.w3.org/2000/svg" xmlns:xlink="http://www.w3.org/1999/xlink" width="535pt" height="303pt" viewBox="0 0 535 303" version="1.1">
<g id="misc2svg">
<path style="fill:none;stroke-width:0.8;stroke-linecap:butt;stroke-linejoin:miter;stroke:rgb(0%,0%,0%);stroke-opacity:1;stroke-miterlimit:4;" d="M 64.525 45.34375 L 185.890625 45.34375 " transform="matrix(1.25,0,0,1.25,0,0.000000000000028422)"/>
<path style="fill:none;stroke-width:0.8;stroke-linecap:butt;stroke-linejoin:miter;stroke:rgb(0%,0%,0%);stroke-opacity:1;stroke-miterlimit:4;" d="M 185.590625 45.046875 L 185.590625 196.971875 " transform="matrix(1.25,0,0,1.25,0,0.000000000000028422)"/>
<path style="fill:none;stroke-width:0.8;stroke-linecap:butt;stroke-linejoin:miter;stroke:rgb(0%,0%,0%);stroke-opacity:1;stroke-miterlimit:4;" d="M 185.9625 45.34375 L 427.95 45.34375 " transform="matrix(1.25,0,0,1.25,0,0.000000000000028422)"/>
<path style="fill:none;stroke-width:0.8;stroke-linecap:butt;stroke-linejoin:miter;stroke:rgb(0%,0%,0%);stroke-opacity:1;stroke-miterlimit:4;" d="M 64.628125 196.9875 L 425.30625 196.9875 " transform="matrix(1.25,0,0,1.25,0,0.000000000000028422)"/>
<path style="fill:none;stroke-width:0.8;stroke-linecap:butt;stroke-linejoin:miter;stroke:rgb(0%,0%,0%);stroke-opacity:1;stroke-miterlimit:4;" d="M 64.784375 44.971875 L 64.784375 196.675 " transform="matrix(1.25,0,0,1.25,0,0.000000000000028422)"/>
<path style="fill:none;stroke-width:0.8;stroke-linecap:butt;stroke-linejoin:miter;stroke:rgb(0%,0%,0%);stroke-opacity:1;stroke-miterlimit:4;" d="M 36.225 175.775 L 36.225 123.65 " transform="matrix(1.25,0,0,1.25,0,0.000000000000028422)"/>
<path style=" stroke:none;fill-rule:evenodd;fill:rgb(0%,0%,0%);fill-opacity:1;" d="M 40.84375 165.253906 L 45.265625 153.234375 L 49.683594 165.253906 C 47.074219 163.328125 43.507812 163.34375 40.84375 165.253906 Z M 40.84375 165.253906 "/>
<path style="fill:none;stroke-width:1.2;stroke-linecap:butt;stroke-linejoin:miter;stroke:rgb(0%,0%,0%);stroke-opacity:1;stroke-miterlimit:4;" d="M 82.534375 150.525 C 82.534375 160.48125 74.465625 168.55 64.50625 168.55 C 54.55 168.55 46.475 160.48125 46.475 150.525 C 46.475 140.565625 54.55 132.49375 64.50625 132.49375 C 74.465625 132.49375 82.534375 140.565625 82.534375 150.525 Z M 82.534375 150.525 " transform="matrix(1.25,0,0,1.25,0,0.000000000000028422)"/>
<path style=" stroke:none;fill-rule:nonzero;fill:rgb(0%,0%,0%);fill-opacity:1;" d="M 4.960938 192.476562 L 3.300781 192.476562 L 3.300781 181.96875 C 2.910156 182.351562 2.386719 182.730469 1.738281 183.121094 C 1.097656 183.503906 0.527344 183.78125 0.0195312 183.960938 L 0.0195312 182.359375 C 0.925781 181.929688 1.726562 181.414062 2.421875 180.796875 C 3.109375 180.1875 3.597656 179.585938 3.886719 179 L 4.960938 179 L 4.960938 192.476562 Z M 4.960938 192.476562 "/>
<path style=" stroke:none;fill-rule:nonzero;fill:rgb(0%,0%,0%);fill-opacity:1;" d="M 9.125 185.855469 C 9.125 184.269531 9.289062 182.996094 9.613281 182.027344 C 9.9375 181.066406 10.421875 180.324219 11.058594 179.800781 C 11.710938 179.269531 12.523438 179 13.5 179 C 14.214844 179 14.847656 179.152344 15.394531 179.449219 C 15.941406 179.738281 16.390625 180.152344 16.742188 180.699219 C 17.09375 181.238281 17.367188 181.902344 17.5625 182.691406 C 17.769531 183.472656 17.875 184.527344 17.875 185.855469 C 17.875 187.433594 17.710938 188.707031 17.386719 189.683594 C 17.0625 190.652344 16.574219 191.398438 15.921875 191.929688 C 15.285156 192.453125 14.476562 192.710938 13.5 192.710938 C 12.210938 192.710938 11.195312 192.242188 10.453125 191.304688 C 9.566406 190.203125 9.125 188.386719 9.125 185.855469 Z M 10.824219 185.855469 C 10.824219 188.058594 11.078125 189.523438 11.585938 190.25 C 12.105469 190.984375 12.746094 191.34375 13.5 191.34375 C 14.253906 191.34375 14.886719 190.984375 15.394531 190.25 C 15.914062 189.523438 16.175781 188.058594 16.175781 185.855469 C 16.175781 183.644531 15.914062 182.179688 15.394531 181.460938 C 14.886719 180.734375 14.25 180.367188 13.480469 180.367188 C 12.726562 180.367188 12.121094 180.691406 11.664062 181.324219 C 11.105469 182.144531 10.824219 183.660156 10.824219 185.855469 Z M 10.824219 185.855469 "/>
<path style=" stroke:none;fill-rule:nonzero;fill:rgb(0%,0%,0%);fill-opacity:1;" d="M 19.523438 185.855469 C 19.523438 184.269531 19.683594 182.996094 20.011719 182.027344 C 20.332031 181.066406 20.816406 180.324219 21.457031 179.800781 C 22.105469 179.269531 22.921875 179 23.898438 179 C 24.609375 179 25.246094 179.152344 25.792969 179.449219 C 26.339844 179.738281 26.789062 180.152344 27.140625 180.699219 C 27.492188 181.238281 27.765625 181.902344 27.960938 182.691406 C 28.164062 183.472656 28.273438 184.527344 28.273438 185.855469 C 28.273438 187.433594 28.105469 188.707031 27.785156 189.683594 C 27.457031 190.652344 26.96875 191.398438 26.320312 191.929688 C 25.679688 192.453125 24.875 192.710938 23.898438 192.710938 C 22.609375 192.710938 21.59375 192.242188 20.851562 191.304688 C 19.960938 190.203125 19.523438 188.386719 19.523438 185.855469 Z M 21.222656 185.855469 C 21.222656 188.058594 21.476562 189.523438 21.984375 190.25 C 22.5 190.984375 23.140625 191.34375 23.898438 191.34375 C 24.648438 191.34375 25.285156 190.984375 25.792969 190.25 C 26.308594 189.523438 26.574219 188.058594 26.574219 185.855469 C 26.574219 183.644531 26.308594 182.179688 25.792969 181.460938 C 25.285156 180.734375 24.644531 180.367188 23.878906 180.367188 C 23.121094 180.367188 22.515625 180.691406 22.0625 181.324219 C 21.5 182.144531 21.222656 183.660156 21.222656 185.855469 Z M 21.222656 185.855469 "/>
<path style=" stroke:none;fill-rule:nonzero;fill:rgb(0%,0%,0%);fill-opacity:1;" d="M 34.394531 192.476562 L 29.199219 179.058594 L 31.132812 179.058594 L 34.609375 188.804688 C 34.890625 189.585938 35.125 190.324219 35.3125 191.011719 C 35.515625 190.269531 35.761719 189.539062 36.035156 188.804688 L 39.667969 179.058594 L 41.484375 179.058594 L 36.230469 192.476562 L 34.394531 192.476562 Z M 34.394531 192.476562 "/>
<path style="fill-rule:nonzero;fill:rgb(100%,100%,100%);fill-opacity:1;stroke-width:1.043077;stroke-linecap:butt;stroke-linejoin:miter;stroke:rgb(0%,0%,0%);stroke-opacity:1;stroke-miterlimit:4;" d="M 69.25 -73.24375 L 114.965625 -73.24375 L 114.965625 -57.15 L 69.25 -57.15 L 69.25 -73.24375 Z M 69.25 -73.24375 " transform="matrix(0,1.25,-1.25,0,0,0.000000000000028422)"/>
<path style="fill:none;stroke-width:1.2;stroke-linecap:butt;stroke-linejoin:miter;stroke:rgb(0%,0%,0%);stroke-opacity:1;stroke-miterlimit:4;" d="M 62.475 -152.63125 C 62.475 -142.675 54.403125 -134.60625 44.44375 -134.60625 C 34.4875 -134.60625 26.4125 -142.675 26.4125 -152.63125 C 26.4125 -162.59375 34.4875 -170.6625 44.44375 -170.6625 C 54.403125 -170.6625 62.475 -162.59375 62.475 -152.63125 Z M 62.475 -152.63125 " transform="matrix(0,1.25,-1.25,0,0,0.000000000000028422)"/>
<path style="fill-rule:nonzero;fill:rgb(100%,100%,100%);fill-opacity:1;stroke-width:1.043077;stroke-linecap:butt;stroke-linejoin:miter;stroke:rgb(0%,0%,0%);stroke-opacity:1;stroke-miterlimit:4;" d="M -78.78125 -37.0875 L -124.496875 -37.0875 L -124.496875 -53.18125 L -78.78125 -53.18125 L -78.78125 -37.0875 Z M -78.78125 -37.0875 " transform="matrix(-1.25,0,0,-1.25,0,0.000000000000028422)"/>
<path style="fill:none;stroke-width:0.8;stroke-linecap:butt;stroke-linejoin:miter;stroke:rgb(0%,0%,0%);stroke-opacity:1;stroke-miterlimit:4;" d="M 178.996875 17.253125 L 126.875 17.253125 " transform="matrix(1.25,0,0,1.25,0,0.000000000000028422)"/>
<path style=" stroke:none;fill-rule:evenodd;fill:rgb(0%,0%,0%);fill-opacity:1;" d="M 169.28125 26.007812 L 157.265625 21.585938 L 169.28125 17.164062 C 167.363281 19.773438 167.375 23.34375 169.28125 26.007812 Z M 169.28125 26.007812 "/>
<path style="fill:none;stroke-width:1.2;stroke-linecap:butt;stroke-linejoin:miter;stroke:rgb(0%,0%,0%);stroke-opacity:1;stroke-miterlimit:4;" d="M 213.59375 -151.828125 C 213.59375 -141.86875 205.51875 -133.796875 195.5625 -133.796875 C 185.60625 -133.796875 177.534375 -141.86875 177.534375 -151.828125 C 177.534375 -161.784375 185.60625 -169.85625 195.5625 -169.85625 C 205.51875 -169.85625 213.59375 -161.784375 213.59375 -151.828125 Z M 213.59375 -151.828125 " transform="matrix(0,1.25,-1.25,0,0,0.000000000000028422)"/>
<path style="fill-rule:nonzero;fill:rgb(100%,100%,100%);fill-opacity:1;stroke-width:1.043077;stroke-linecap:butt;stroke-linejoin:miter;stroke:rgb(0%,0%,0%);stroke-opacity:1;stroke-miterlimit:4;" d="M -77.971875 -188.203125 L -123.6875 -188.203125 L -123.6875 -204.3 L -77.971875 -204.3 L -77.971875 -188.203125 Z M -77.971875 -188.203125 " transform="matrix(-1.25,0,0,-1.25,0,0.000000000000028422)"/>
<path style="fill:none;stroke-width:0.8;stroke-linecap:butt;stroke-linejoin:miter;stroke:rgb(0%,0%,0%);stroke-opacity:1;stroke-miterlimit:4;" d="M 177.38125 224.13125 L 125.25625 224.13125 " transform="matrix(1.25,0,0,1.25,0,0.000000000000028422)"/>
<path style=" stroke:none;fill-rule:evenodd;fill:rgb(0%,0%,0%);fill-opacity:1;" d="M 167.261719 284.605469 L 155.242188 280.1875 L 167.261719 275.765625 C 165.34375 278.375 165.351562 281.945312 167.261719 284.605469 Z M 167.261719 284.605469 "/>
<path style=" stroke:none;fill-rule:nonzero;fill:rgb(0%,0%,0%);fill-opacity:1;" d="M 182.597656 13.414062 L 182.597656 10.191406 L 176.777344 10.191406 L 176.777344 8.6875 L 182.910156 -0.00390625 L 184.257812 -0.00390625 L 184.257812 8.6875 L 186.074219 8.6875 L 186.074219 10.191406 L 184.257812 10.191406 L 184.257812 13.414062 L 182.597656 13.414062 Z M 182.597656 8.6875 L 182.597656 2.632812 L 178.398438 8.6875 L 182.597656 8.6875 Z M 182.597656 8.6875 "/>
<path style=" stroke:none;fill-rule:nonzero;fill:rgb(0%,0%,0%);fill-opacity:1;" d="M 187.699219 6.792969 C 187.699219 5.207031 187.863281 3.933594 188.1875 2.964844 C 188.511719 2.003906 188.996094 1.261719 189.632812 0.738281 C 190.285156 0.207031 191.097656 -0.0625 192.074219 -0.0625 C 192.789062 -0.0625 193.421875 0.0898438 193.96875 0.386719 C 194.515625 0.675781 194.964844 1.089844 195.316406 1.636719 C 195.667969 2.175781 195.941406 2.839844 196.136719 3.628906 C 196.34375 4.410156 196.449219 5.464844 196.449219 6.792969 C 196.449219 8.371094 196.285156 9.644531 195.960938 10.621094 C 195.636719 11.589844 195.148438 12.335938 194.496094 12.867188 C 193.859375 13.390625 193.050781 13.648438 192.074219 13.648438 C 190.785156 13.648438 189.769531 13.179688 189.027344 12.242188 C 188.140625 11.140625 187.699219 9.324219 187.699219 6.792969 Z M 189.398438 6.792969 C 189.398438 8.996094 189.652344 10.460938 190.160156 11.1875 C 190.679688 11.921875 191.320312 12.28125 192.074219 12.28125 C 192.828125 12.28125 193.460938 11.921875 193.96875 11.1875 C 194.488281 10.460938 194.75 8.996094 194.75 6.792969 C 194.75 4.582031 194.488281 3.117188 193.96875 2.398438 C 193.460938 1.671875 192.824219 1.304688 192.054688 1.304688 C 191.300781 1.304688 190.695312 1.628906 190.238281 2.261719 C 189.679688 3.082031 189.398438 4.597656 189.398438 6.792969 Z M 189.398438 6.792969 "/>
<path style=" stroke:none;fill-rule:nonzero;fill:rgb(0%,0%,0%);fill-opacity:1;" d="M 202.570312 13.414062 L 197.375 -0.00390625 L 199.308594 -0.00390625 L 202.785156 9.742188 C 203.070312 10.523438 203.304688 11.261719 203.488281 11.949219 C 203.695312 11.207031 203.9375 10.476562 204.210938 9.742188 L 207.84375 -0.00390625 L 209.660156 -0.00390625 L 204.40625 13.414062 L 202.570312 13.414062 Z M 202.570312 13.414062 "/>
<path style=" stroke:none;fill-rule:nonzero;fill:rgb(0%,0%,0%);fill-opacity:1;" d="M 181 301.5 L 181 303.082031 L 172.132812 303.082031 C 172.117188 302.691406 172.179688 302.308594 172.328125 301.929688 C 172.546875 301.332031 172.902344 300.738281 173.402344 300.152344 C 173.910156 299.566406 174.632812 298.890625 175.570312 298.121094 C 177.023438 296.921875 178.011719 295.980469 178.519531 295.289062 C 179.035156 294.585938 179.300781 293.921875 179.300781 293.296875 C 179.300781 292.644531 179.066406 292.097656 178.597656 291.65625 C 178.128906 291.199219 177.511719 290.972656 176.761719 290.972656 C 175.964844 290.972656 175.324219 291.214844 174.847656 291.695312 C 174.378906 292.164062 174.144531 292.820312 174.144531 293.667969 L 172.445312 293.492188 C 172.5625 292.230469 172.996094 291.265625 173.753906 290.601562 C 174.503906 289.9375 175.519531 289.605469 176.800781 289.605469 C 178.089844 289.605469 179.105469 289.964844 179.847656 290.679688 C 180.597656 291.394531 180.980469 292.28125 180.980469 293.335938 C 180.980469 293.871094 180.867188 294.398438 180.648438 294.917969 C 180.4375 295.4375 180.070312 295.984375 179.554688 296.558594 C 179.046875 297.132812 178.195312 297.917969 177.015625 298.921875 C 176.023438 299.742188 175.382812 300.300781 175.101562 300.601562 C 174.828125 300.902344 174.597656 301.199219 174.417969 301.5 L 181 301.5 Z M 181 301.5 "/>
<path style=" stroke:none;fill-rule:nonzero;fill:rgb(0%,0%,0%);fill-opacity:1;" d="M 182.726562 296.460938 C 182.726562 294.871094 182.886719 293.597656 183.214844 292.632812 C 183.535156 291.667969 184.019531 290.925781 184.660156 290.40625 C 185.308594 289.871094 186.125 289.605469 187.101562 289.605469 C 187.8125 289.605469 188.449219 289.753906 188.996094 290.054688 C 189.542969 290.339844 189.992188 290.757812 190.34375 291.304688 C 190.695312 291.839844 190.96875 292.503906 191.164062 293.296875 C 191.367188 294.078125 191.476562 295.132812 191.476562 296.460938 C 191.476562 298.035156 191.308594 299.3125 190.988281 300.289062 C 190.660156 301.253906 190.171875 302 189.523438 302.535156 C 188.882812 303.054688 188.078125 303.316406 187.101562 303.316406 C 185.8125 303.316406 184.796875 302.847656 184.054688 301.910156 C 183.164062 300.804688 182.726562 298.988281 182.726562 296.460938 Z M 184.425781 296.460938 C 184.425781 298.660156 184.679688 300.125 185.1875 300.855469 C 185.703125 301.585938 186.34375 301.949219 187.101562 301.949219 C 187.851562 301.949219 188.488281 301.585938 188.996094 300.855469 C 189.511719 300.125 189.777344 298.660156 189.777344 296.460938 C 189.777344 294.246094 189.511719 292.78125 188.996094 292.066406 C 188.488281 291.335938 187.847656 290.972656 187.082031 290.972656 C 186.324219 290.972656 185.71875 291.292969 185.265625 291.929688 C 184.703125 292.75 184.425781 294.261719 184.425781 296.460938 Z M 184.425781 296.460938 "/>
<path style=" stroke:none;fill-rule:nonzero;fill:rgb(0%,0%,0%);fill-opacity:1;" d="M 197.59375 303.082031 L 192.398438 289.664062 L 194.332031 289.664062 L 197.808594 299.410156 C 198.09375 300.191406 198.328125 300.925781 198.511719 301.617188 C 198.71875 300.875 198.960938 300.140625 199.234375 299.410156 L 202.867188 289.664062 L 204.683594 289.664062 L 199.429688 303.082031 L 197.59375 303.082031 Z M 197.59375 303.082031 "/>
<path style="fill:none;stroke-width:0.8;stroke-linecap:butt;stroke-linejoin:miter;stroke:rgb(0%,0%,0%);stroke-opacity:1;stroke-miterlimit:4;" d="M 211.375 175.4375 L 211.375 123.3125 " transform="matrix(1.25,0,0,1.25,0,0.000000000000028422)"/>
<path style=" stroke:none;fill-rule:evenodd;fill:rgb(0%,0%,0%);fill-opacity:1;" d="M 259.78125 164.835938 L 264.199219 152.8125 L 268.617188 164.835938 C 266.011719 162.914062 262.441406 162.925781 259.78125 164.835938 Z M 259.78125 164.835938 "/>
<path style="fill:none;stroke-width:1.2;stroke-linecap:butt;stroke-linejoin:miter;stroke:rgb(0%,0%,0%);stroke-opacity:1;stroke-miterlimit:4;" d="M 204.25 149.378125 C 204.25 159.3375 196.18125 167.409375 186.221875 167.409375 C 176.2625 167.409375 168.190625 159.3375 168.190625 149.378125 C 168.190625 139.421875 176.2625 131.35 186.221875 131.35 C 196.18125 131.35 204.25 139.421875 204.25 149.378125 Z M 204.25 149.378125 " transform="matrix(1.25,0,0,1.25,0,0.000000000000028422)"/>
<path style="fill-rule:nonzero;fill:rgb(100%,100%,100%);fill-opacity:1;stroke-width:1.043077;stroke-linecap:butt;stroke-linejoin:miter;stroke:rgb(0%,0%,0%);stroke-opacity:1;stroke-miterlimit:4;" d="M 68.10625 -193.24375 L 113.825 -193.24375 L 113.825 -177.15 L 68.10625 -177.15 L 68.10625 -193.24375 Z M 68.10625 -193.24375 " transform="matrix(0,1.25,-1.25,0,0,0.000000000000028422)"/>
<path style=" stroke:none;fill-rule:nonzero;fill:rgb(0%,0%,0%);fill-opacity:1;" d="M 282.265625 196.574219 L 282.265625 198.15625 L 273.398438 198.15625 C 273.386719 197.765625 273.449219 197.386719 273.59375 197.003906 C 273.816406 196.410156 274.171875 195.8125 274.667969 195.226562 C 275.175781 194.640625 275.898438 193.96875 276.835938 193.195312 C 278.292969 192 279.277344 191.058594 279.785156 190.363281 C 280.304688 189.660156 280.566406 188.996094 280.566406 188.371094 C 280.566406 187.722656 280.332031 187.175781 279.863281 186.730469 C 279.394531 186.277344 278.78125 186.046875 278.027344 186.046875 C 277.234375 186.046875 276.59375 186.292969 276.113281 186.769531 C 275.644531 187.238281 275.410156 187.898438 275.410156 188.742188 L 273.710938 188.566406 C 273.828125 187.308594 274.265625 186.339844 275.019531 185.675781 C 275.773438 185.011719 276.789062 184.679688 278.066406 184.679688 C 279.355469 184.679688 280.371094 185.042969 281.113281 185.753906 C 281.867188 186.472656 282.246094 187.355469 282.246094 188.410156 C 282.246094 188.949219 282.136719 189.476562 281.914062 189.992188 C 281.707031 190.515625 281.339844 191.0625 280.820312 191.632812 C 280.3125 192.210938 279.464844 192.996094 278.28125 193.996094 C 277.292969 194.816406 276.652344 195.378906 276.367188 195.675781 C 276.09375 195.980469 275.867188 196.277344 275.683594 196.574219 L 282.265625 196.574219 Z M 282.265625 196.574219 "/>
<path style=" stroke:none;fill-rule:nonzero;fill:rgb(0%,0%,0%);fill-opacity:1;" d="M 283.992188 191.535156 C 283.992188 189.949219 284.152344 188.675781 284.480469 187.707031 C 284.804688 186.746094 285.285156 186.003906 285.925781 185.480469 C 286.574219 184.949219 287.390625 184.679688 288.367188 184.679688 C 289.082031 184.679688 289.714844 184.832031 290.261719 185.128906 C 290.808594 185.417969 291.257812 185.832031 291.609375 186.378906 C 291.960938 186.917969 292.234375 187.582031 292.429688 188.371094 C 292.636719 189.152344 292.742188 190.207031 292.742188 191.535156 C 292.742188 193.113281 292.578125 194.386719 292.253906 195.363281 C 291.925781 196.332031 291.4375 197.078125 290.789062 197.609375 C 290.148438 198.132812 289.34375 198.390625 288.367188 198.390625 C 287.078125 198.390625 286.0625 197.921875 285.320312 196.984375 C 284.433594 195.882812 283.992188 194.066406 283.992188 191.535156 Z M 285.691406 191.535156 C 285.691406 193.738281 285.945312 195.203125 286.453125 195.929688 C 286.972656 196.664062 287.609375 197.023438 288.367188 197.023438 C 289.121094 197.023438 289.753906 196.664062 290.261719 195.929688 C 290.78125 195.203125 291.042969 193.738281 291.042969 191.535156 C 291.042969 189.324219 290.78125 187.859375 290.261719 187.140625 C 289.753906 186.414062 289.113281 186.046875 288.347656 186.046875 C 287.589844 186.046875 286.984375 186.371094 286.53125 187.003906 C 285.96875 187.824219 285.691406 189.339844 285.691406 191.535156 Z M 285.691406 191.535156 "/>
<path style=" stroke:none;fill-rule:nonzero;fill:rgb(0%,0%,0%);fill-opacity:1;" d="M 298.863281 198.15625 L 293.667969 184.738281 L 295.601562 184.738281 L 299.078125 194.484375 C 299.359375 195.265625 299.59375 196.003906 299.78125 196.691406 C 299.984375 195.949219 300.230469 195.21875 300.503906 194.484375 L 304.136719 184.738281 L 305.953125 184.738281 L 300.699219 198.15625 L 298.863281 198.15625 Z M 298.863281 198.15625 "/>
<path style="fill:none;stroke-width:0.8;stroke-linecap:butt;stroke-linejoin:miter;stroke:rgb(0%,0%,0%);stroke-opacity:1;stroke-miterlimit:4;" d="M 260.10625 45.61875 L 260.10625 197.54375 " transform="matrix(1.25,0,0,1.25,0,0.000000000000028422)"/>
<path style="fill:none;stroke-width:0.8;stroke-linecap:butt;stroke-linejoin:miter;stroke:rgb(0%,0%,0%);stroke-opacity:1;stroke-miterlimit:4;" d="M 241.95 119.38125 L 277.378125 119.38125 " transform="matrix(1.25,0,0,1.25,0,0.000000000000028422)"/>
<path style="fill:none;stroke-width:0.8;stroke-linecap:butt;stroke-linejoin:miter;stroke:rgb(0%,0%,0%);stroke-opacity:1;stroke-miterlimit:4;" d="M 260.10625 45.61875 L 260.10625 196.33125 " transform="matrix(1.25,0,0,1.25,0,0.000000000000028422)"/>
<path style="fill-rule:nonzero;fill:rgb(100%,100%,100%);fill-opacity:1;stroke-width:1.2;stroke-linecap:butt;stroke-linejoin:miter;stroke:rgb(0%,0%,0%);stroke-opacity:1;stroke-miterlimit:4;" d="M 278.190625 119.38125 C 278.190625 129.340625 270.121875 137.4125 260.1625 137.4125 C 250.20625 137.4125 242.13125 129.340625 242.13125 119.38125 C 242.13125 109.425 250.20625 101.35625 260.1625 101.35625 C 270.121875 101.35625 278.190625 109.425 278.190625 119.38125 Z M 278.190625 119.38125 " transform="matrix(1.25,0,0,1.25,0,0.000000000000028422)"/>
<path style="fill:none;stroke-width:0.8;stroke-linecap:butt;stroke-linejoin:miter;stroke:rgb(0%,0%,0%);stroke-opacity:1;stroke-miterlimit:4;" d="M 241.95 119.38125 L 277.378125 119.38125 " transform="matrix(1.25,0,0,1.25,0,0.000000000000028422)"/>
<path style="fill:none;stroke-width:0.8;stroke-linecap:butt;stroke-linejoin:miter;stroke:rgb(0%,0%,0%);stroke-opacity:1;stroke-miterlimit:4;" d="M 352.675 44.471875 L 352.675 196.403125 " transform="matrix(1.25,0,0,1.25,0,0.000000000000028422)"/>
<path style="fill-rule:nonzero;fill:rgb(100%,100%,100%);fill-opacity:1;stroke-width:1.2;stroke-linecap:butt;stroke-linejoin:miter;stroke:rgb(0%,0%,0%);stroke-opacity:1;stroke-miterlimit:4;" d="M 370.765625 118.8125 C 370.765625 128.76875 362.690625 136.84375 352.734375 136.84375 C 342.778125 136.84375 334.70625 128.76875 334.70625 118.8125 C 334.70625 108.85625 342.778125 100.784375 352.734375 100.784375 C 362.690625 100.784375 370.765625 108.85625 370.765625 118.8125 Z M 370.765625 118.8125 " transform="matrix(1.25,0,0,1.25,0,0.000000000000028422)"/>
<path style="fill:none;stroke-width:0.8;stroke-linecap:butt;stroke-linejoin:miter;stroke:rgb(0%,0%,0%);stroke-opacity:1;stroke-miterlimit:4;" d="M 334.525 118.8125 L 369.95 118.8125 " transform="matrix(1.25,0,0,1.25,0,0.000000000000028422)"/>
<path style="fill:none;stroke-width:0.8;stroke-linecap:butt;stroke-linejoin:miter;stroke:rgb(0%,0%,0%);stroke-opacity:1;stroke-miterlimit:4;" d="M 308.6625 44.609375 L 308.6625 196.534375 " transform="matrix(1.25,0,0,1.25,0,0.000000000000028422)"/>
<path style="fill-rule:nonzero;fill:rgb(100%,100%,100%);fill-opacity:1;stroke-width:1.043077;stroke-linecap:butt;stroke-linejoin:miter;stroke:rgb(0%,0%,0%);stroke-opacity:1;stroke-miterlimit:4;" d="M 95.953125 -316.71875 L 141.671875 -316.71875 L 141.671875 -300.625 L 95.953125 -300.625 L 95.953125 -316.71875 Z M 95.953125 -316.71875 " transform="matrix(0,1.25,-1.25,0,0,0.000000000000028422)"/>
<path style="fill-rule:nonzero;fill:rgb(0%,0%,0%);fill-opacity:1;stroke-width:0.8;stroke-linecap:butt;stroke-linejoin:miter;stroke:rgb(0%,0%,0%);stroke-opacity:1;stroke-miterlimit:4;" d="M 260.13125 89.528125 L 260.13125 79.809375 " transform="matrix(1.25,0,0,1.25,0,0.000000000000028422)"/>
<path style="fill-rule:evenodd;fill:rgb(0%,0%,0%);fill-opacity:1;stroke-width:0.55;stroke-linecap:butt;stroke-linejoin:round;stroke:rgb(0%,0%,0%);stroke-opacity:1;stroke-miterlimit:4;" d="M 88.359375 -256.58125 L 78.746875 -260.11875 L 88.359375 -263.65625 C 86.825 -261.565625 86.83125 -258.7125 88.359375 -256.58125 Z M 88.359375 -256.58125 " transform="matrix(-0.000000000000000076,1.25,-1.25,-0.000000000000000076,0,0.000000000000028422)"/>
<path style=" stroke:none;fill-rule:nonzero;fill:rgb(0%,0%,0%);fill-opacity:1;" d="M 278.433594 104.988281 C 278.433594 103.402344 278.59375 102.128906 278.921875 101.160156 C 279.242188 100.199219 279.726562 99.457031 280.367188 98.933594 C 281.015625 98.402344 281.832031 98.132812 282.808594 98.132812 C 283.519531 98.132812 284.15625 98.285156 284.703125 98.582031 C 285.25 98.871094 285.699219 99.285156 286.050781 99.832031 C 286.402344 100.371094 286.675781 101.035156 286.871094 101.824219 C 287.074219 102.605469 287.183594 103.660156 287.183594 104.988281 C 287.183594 106.566406 287.015625 107.839844 286.695312 108.816406 C 286.367188 109.785156 285.878906 110.53125 285.230469 111.0625 C 284.589844 111.585938 283.785156 111.84375 282.808594 111.84375 C 281.519531 111.84375 280.503906 111.375 279.761719 110.4375 C 278.871094 109.335938 278.433594 107.519531 278.433594 104.988281 Z M 280.132812 104.988281 C 280.132812 107.191406 280.386719 108.65625 280.894531 109.382812 C 281.410156 110.117188 282.050781 110.476562 282.808594 110.476562 C 283.558594 110.476562 284.195312 110.117188 284.703125 109.382812 C 285.21875 108.65625 285.484375 107.191406 285.484375 104.988281 C 285.484375 102.777344 285.21875 101.3125 284.703125 100.59375 C 284.195312 99.867188 283.554688 99.5 282.789062 99.5 C 282.03125 99.5 281.425781 99.824219 280.972656 100.457031 C 280.410156 101.277344 280.132812 102.792969 280.132812 104.988281 Z M 280.132812 104.988281 "/>
<path style=" stroke:none;fill-rule:nonzero;fill:rgb(0%,0%,0%);fill-opacity:1;" d="M 289.726562 111.609375 L 289.726562 109.734375 L 291.601562 109.734375 L 291.601562 111.609375 L 289.726562 111.609375 Z M 289.726562 111.609375 "/>
<path style=" stroke:none;fill-rule:nonzero;fill:rgb(0%,0%,0%);fill-opacity:1;" d="M 302.535156 101.472656 L 300.894531 101.609375 C 300.746094 100.960938 300.542969 100.488281 300.269531 100.183594 C 299.824219 99.714844 299.277344 99.480469 298.628906 99.480469 C 298.089844 99.480469 297.632812 99.632812 297.242188 99.929688 C 296.71875 100.3125 296.308594 100.863281 296.011719 101.589844 C 295.707031 102.308594 295.550781 103.34375 295.542969 104.695312 C 295.933594 104.085938 296.410156 103.636719 296.988281 103.347656 C 297.574219 103.050781 298.179688 102.898438 298.804688 102.898438 C 299.898438 102.898438 300.824219 103.304688 301.597656 104.109375 C 302.378906 104.921875 302.769531 105.964844 302.769531 107.253906 C 302.769531 108.105469 302.582031 108.890625 302.222656 109.617188 C 301.855469 110.335938 301.351562 110.886719 300.71875 111.277344 C 300.09375 111.65625 299.375 111.84375 298.570312 111.84375 C 297.1875 111.84375 296.058594 111.347656 295.191406 110.339844 C 294.332031 109.324219 293.902344 107.65625 293.902344 105.320312 C 293.902344 102.734375 294.378906 100.847656 295.347656 99.675781 C 296.175781 98.652344 297.304688 98.132812 298.726562 98.132812 C 299.78125 98.132812 300.640625 98.4375 301.304688 99.03125 C 301.976562 99.617188 302.386719 100.433594 302.535156 101.472656 Z M 295.796875 107.253906 C 295.796875 107.832031 295.914062 108.378906 296.148438 108.894531 C 296.390625 109.417969 296.734375 109.8125 297.164062 110.085938 C 297.601562 110.351562 298.0625 110.476562 298.53125 110.476562 C 299.234375 110.476562 299.828125 110.199219 300.328125 109.636719 C 300.835938 109.082031 301.089844 108.320312 301.089844 107.351562 C 301.089844 106.429688 300.839844 105.703125 300.347656 105.164062 C 299.847656 104.632812 299.222656 104.363281 298.472656 104.363281 C 297.730469 104.363281 297.09375 104.632812 296.578125 105.164062 C 296.054688 105.703125 295.796875 106.394531 295.796875 107.253906 Z M 295.796875 107.253906 "/>
<path style=" stroke:none;fill-rule:nonzero;fill:rgb(0%,0%,0%);fill-opacity:1;" d="M 303.558594 111.609375 L 308.714844 98.191406 L 310.609375 98.191406 L 316.117188 111.609375 L 314.085938 111.609375 L 312.523438 107.546875 L 306.917969 107.546875 L 305.433594 111.609375 L 303.558594 111.609375 Z M 307.425781 106.101562 L 311.976562 106.101562 L 310.570312 102.371094 C 310.140625 101.253906 309.816406 100.332031 309.613281 99.597656 C 309.441406 100.457031 309.203125 101.3125 308.890625 102.15625 L 307.425781 106.101562 Z M 307.425781 106.101562 "/>
<path style="fill-rule:nonzero;fill:rgb(0%,0%,0%);fill-opacity:1;stroke-width:0.8;stroke-linecap:butt;stroke-linejoin:miter;stroke:rgb(0%,0%,0%);stroke-opacity:1;stroke-miterlimit:4;" d="M 352.784375 88.753125 L 352.784375 79.034375 " transform="matrix(1.25,0,0,1.25,0,0.000000000000028422)"/>
<path style="fill-rule:evenodd;fill:rgb(0%,0%,0%);fill-opacity:1;stroke-width:0.55;stroke-linecap:butt;stroke-linejoin:round;stroke:rgb(0%,0%,0%);stroke-opacity:1;stroke-miterlimit:4;" d="M 87.584375 -349.234375 L 77.971875 -352.76875 L 87.584375 -356.30625 C 86.05 -354.21875 86.059375 -351.3625 87.584375 -349.234375 Z M 87.584375 -349.234375 " transform="matrix(-0.000000000000000076,1.25,-1.25,-0.000000000000000076,0,0.000000000000028422)"/>
<path style=" stroke:none;fill-rule:nonzero;fill:rgb(0%,0%,0%);fill-opacity:1;" d="M 394.289062 104.988281 C 394.289062 103.402344 394.449219 102.128906 394.777344 101.160156 C 395.101562 100.199219 395.582031 99.457031 396.222656 98.933594 C 396.871094 98.402344 397.6875 98.132812 398.664062 98.132812 C 399.378906 98.132812 400.011719 98.285156 400.558594 98.582031 C 401.105469 98.871094 401.554688 99.285156 401.90625 99.832031 C 402.257812 100.371094 402.53125 101.035156 402.726562 101.824219 C 402.933594 102.605469 403.039062 103.660156 403.039062 104.988281 C 403.039062 106.566406 402.875 107.839844 402.550781 108.816406 C 402.222656 109.785156 401.734375 110.53125 401.085938 111.0625 C 400.445312 111.585938 399.640625 111.84375 398.664062 111.84375 C 397.375 111.84375 396.359375 111.375 395.617188 110.4375 C 394.730469 109.335938 394.289062 107.519531 394.289062 104.988281 Z M 395.988281 104.988281 C 395.988281 107.191406 396.242188 108.65625 396.75 109.382812 C 397.269531 110.117188 397.90625 110.476562 398.664062 110.476562 C 399.417969 110.476562 400.050781 110.117188 400.558594 109.382812 C 401.078125 108.65625 401.339844 107.191406 401.339844 104.988281 C 401.339844 102.777344 401.078125 101.3125 400.558594 100.59375 C 400.050781 99.867188 399.410156 99.5 398.644531 99.5 C 397.886719 99.5 397.28125 99.824219 396.828125 100.457031 C 396.265625 101.277344 395.988281 102.792969 395.988281 104.988281 Z M 395.988281 104.988281 "/>
<path style=" stroke:none;fill-rule:nonzero;fill:rgb(0%,0%,0%);fill-opacity:1;" d="M 405.585938 111.609375 L 405.585938 109.734375 L 407.460938 109.734375 L 407.460938 111.609375 L 405.585938 111.609375 Z M 405.585938 111.609375 "/>
<path style=" stroke:none;fill-rule:nonzero;fill:rgb(0%,0%,0%);fill-opacity:1;" d="M 415.109375 111.609375 L 415.109375 108.386719 L 409.289062 108.386719 L 409.289062 106.882812 L 415.421875 98.191406 L 416.769531 98.191406 L 416.769531 106.882812 L 418.585938 106.882812 L 418.585938 108.386719 L 416.769531 108.386719 L 416.769531 111.609375 L 415.109375 111.609375 Z M 415.109375 106.882812 L 415.109375 100.828125 L 410.910156 106.882812 L 415.109375 106.882812 Z M 415.109375 106.882812 "/>
<path style=" stroke:none;fill-rule:nonzero;fill:rgb(0%,0%,0%);fill-opacity:1;" d="M 419.414062 111.609375 L 424.570312 98.191406 L 426.464844 98.191406 L 431.972656 111.609375 L 429.941406 111.609375 L 428.378906 107.546875 L 422.773438 107.546875 L 421.289062 111.609375 L 419.414062 111.609375 Z M 423.28125 106.101562 L 427.832031 106.101562 L 426.425781 102.371094 C 425.996094 101.253906 425.671875 100.332031 425.46875 99.597656 C 425.296875 100.457031 425.058594 101.3125 424.746094 102.15625 L 423.28125 106.101562 Z M 423.28125 106.101562 "/>
<path style="fill-rule:nonzero;fill:rgb(0%,0%,0%);fill-opacity:1;stroke-width:0.792428;stroke-linecap:butt;stroke-linejoin:miter;stroke:rgb(0%,0%,0%);stroke-opacity:1;stroke-miterlimit:4;" d="M 399.0125 45.36875 C 399.0125 46.14375 398.38125 46.775 397.60625 46.775 C 396.828125 46.775 396.19375 46.14375 396.19375 45.36875 C 396.19375 44.590625 396.828125 43.9625 397.60625 43.9625 C 398.38125 43.9625 399.0125 44.590625 399.0125 45.36875 Z M 399.0125 45.36875 " transform="matrix(1.25,0,0,1.25,0,0.000000000000028422)"/>
<path style="fill-rule:nonzero;fill:rgb(0%,0%,0%);fill-opacity:1;stroke-width:0.792428;stroke-linecap:butt;stroke-linejoin:miter;stroke:rgb(0%,0%,0%);stroke-opacity:1;stroke-miterlimit:4;" d="M 398.965625 197.221875 C 398.965625 198.003125 398.33125 198.63125 397.55625 198.63125 C 396.778125 198.63125 396.15 198.003125 396.15 197.221875 C 396.15 196.44375 396.778125 195.815625 397.55625 195.815625 C 398.33125 195.815625 398.965625 196.44375 398.965625 197.221875 Z M 398.965625 197.221875 " transform="matrix(1.25,0,0,1.25,0,0.000000000000028422)"/>
<path style=" stroke:none;fill-rule:nonzero;fill:rgb(0%,0%,0%);fill-opacity:1;" d="M 116.769531 41.828125 L 115.109375 41.828125 L 115.109375 31.320312 C 114.71875 31.699219 114.195312 32.082031 113.546875 32.472656 C 112.90625 32.851562 112.335938 33.132812 111.828125 33.3125 L 111.828125 31.710938 C 112.738281 31.28125 113.539062 30.761719 114.230469 30.148438 C 114.917969 29.539062 115.40625 28.9375 115.695312 28.351562 L 116.769531 28.351562 L 116.769531 41.828125 Z M 116.769531 41.828125 "/>
<path style=" stroke:none;fill-rule:nonzero;fill:rgb(0%,0%,0%);fill-opacity:1;" d="M 120.933594 38.3125 L 122.652344 38.15625 C 122.78125 39.003906 123.082031 39.640625 123.550781 40.070312 C 124.019531 40.488281 124.585938 40.695312 125.25 40.695312 C 126.042969 40.695312 126.714844 40.398438 127.261719 39.796875 C 127.808594 39.199219 128.082031 38.410156 128.082031 37.433594 C 128.082031 36.484375 127.8125 35.742188 127.28125 35.207031 C 126.757812 34.660156 126.070312 34.386719 125.210938 34.386719 C 124.675781 34.386719 124.195312 34.511719 123.765625 34.757812 C 123.347656 34.992188 123.015625 35.300781 122.769531 35.675781 L 121.226562 35.480469 L 122.515625 28.585938 L 129.195312 28.585938 L 129.195312 30.167969 L 123.84375 30.167969 L 123.121094 33.761719 C 123.925781 33.203125 124.773438 32.921875 125.660156 32.921875 C 126.832031 32.921875 127.8125 33.332031 128.609375 34.152344 C 129.414062 34.960938 129.820312 36.003906 129.820312 37.277344 C 129.820312 38.488281 129.46875 39.539062 128.765625 40.421875 C 127.90625 41.515625 126.734375 42.0625 125.25 42.0625 C 124.023438 42.0625 123.023438 41.726562 122.242188 41.046875 C 121.472656 40.359375 121.035156 39.445312 120.933594 38.3125 Z M 120.933594 38.3125 "/>
<path style=" stroke:none;fill-rule:nonzero;fill:rgb(0%,0%,0%);fill-opacity:1;" d="M 131.40625 40.246094 L 134.335938 40.246094 C 132.484375 38.699219 131.5625 36.804688 131.5625 34.5625 C 131.5625 33.351562 131.800781 32.265625 132.285156 31.300781 C 132.777344 30.339844 133.46875 29.578125 134.355469 29.015625 C 135.253906 28.457031 136.328125 28.175781 137.578125 28.175781 C 138.8125 28.175781 139.84375 28.4375 140.664062 28.957031 C 141.496094 29.464844 142.179688 30.203125 142.714844 31.164062 C 143.246094 32.117188 143.515625 33.25 143.515625 34.5625 C 143.515625 36.804688 142.589844 38.699219 140.742188 40.246094 L 143.671875 40.246094 L 143.671875 41.828125 L 138.4375 41.828125 L 138.4375 40.34375 C 140.609375 39.328125 141.699219 37.492188 141.699219 34.835938 C 141.699219 33.339844 141.3125 32.109375 140.546875 31.144531 C 139.789062 30.183594 138.792969 29.699219 137.558594 29.699219 C 136.292969 29.699219 135.285156 30.1875 134.53125 31.164062 C 133.773438 32.128906 133.398438 33.328125 133.398438 34.757812 C 133.398438 37.441406 134.476562 39.304688 136.640625 40.34375 L 136.640625 41.828125 L 131.40625 41.828125 L 131.40625 40.246094 Z M 131.40625 40.246094 "/>
<path style=" stroke:none;fill-rule:nonzero;fill:rgb(0%,0%,0%);fill-opacity:1;" d="M 40.070312 122.136719 L 40.070312 118.914062 L 34.25 118.914062 L 34.25 117.410156 L 40.382812 108.71875 L 41.730469 108.71875 L 41.730469 117.410156 L 43.546875 117.410156 L 43.546875 118.914062 L 41.730469 118.914062 L 41.730469 122.136719 L 40.070312 122.136719 Z M 40.070312 117.410156 L 40.070312 111.355469 L 35.871094 117.410156 L 40.070312 117.410156 Z M 40.070312 117.410156 "/>
<path style=" stroke:none;fill-rule:nonzero;fill:rgb(0%,0%,0%);fill-opacity:1;" d="M 45.171875 115.515625 C 45.171875 113.925781 45.332031 112.652344 45.660156 111.6875 C 45.984375 110.722656 46.464844 109.980469 47.105469 109.460938 C 47.753906 108.925781 48.570312 108.660156 49.546875 108.660156 C 50.261719 108.660156 50.894531 108.808594 51.441406 109.109375 C 51.988281 109.394531 52.4375 109.8125 52.789062 110.359375 C 53.140625 110.894531 53.414062 111.558594 53.609375 112.351562 C 53.816406 113.132812 53.921875 114.1875 53.921875 115.515625 C 53.921875 117.089844 53.757812 118.367188 53.433594 119.34375 C 53.105469 120.308594 52.617188 121.054688 51.96875 121.589844 C 51.328125 122.109375 50.523438 122.371094 49.546875 122.371094 C 48.257812 122.371094 47.242188 121.902344 46.5 120.964844 C 45.613281 119.859375 45.171875 118.042969 45.171875 115.515625 Z M 46.871094 115.515625 C 46.871094 117.714844 47.125 119.179688 47.632812 119.910156 C 48.152344 120.640625 48.789062 121.003906 49.546875 121.003906 C 50.300781 121.003906 50.933594 120.640625 51.441406 119.910156 C 51.960938 119.179688 52.222656 117.714844 52.222656 115.515625 C 52.222656 113.300781 51.960938 111.835938 51.441406 111.121094 C 50.933594 110.390625 50.292969 110.027344 49.527344 110.027344 C 48.769531 110.027344 48.164062 110.347656 47.710938 110.984375 C 47.148438 111.804688 46.871094 113.316406 46.871094 115.515625 Z M 46.871094 115.515625 "/>
<path style=" stroke:none;fill-rule:nonzero;fill:rgb(0%,0%,0%);fill-opacity:1;" d="M 55.644531 120.554688 L 58.574219 120.554688 C 56.722656 119.003906 55.800781 117.109375 55.800781 114.871094 C 55.800781 113.660156 56.039062 112.574219 56.523438 111.609375 C 57.015625 110.644531 57.707031 109.882812 58.59375 109.324219 C 59.492188 108.765625 60.566406 108.484375 61.816406 108.484375 C 63.050781 108.484375 64.082031 108.746094 64.902344 109.265625 C 65.734375 109.773438 66.417969 110.507812 66.953125 111.472656 C 67.484375 112.421875 67.753906 113.554688 67.753906 114.871094 C 67.753906 117.109375 66.828125 119.003906 64.980469 120.554688 L 67.910156 120.554688 L 67.910156 122.136719 L 62.675781 122.136719 L 62.675781 120.652344 C 64.847656 119.636719 65.9375 117.800781 65.9375 115.144531 C 65.9375 113.648438 65.550781 112.417969 64.785156 111.453125 C 64.027344 110.488281 63.03125 110.007812 61.796875 110.007812 C 60.53125 110.007812 59.523438 110.496094 58.769531 111.472656 C 58.011719 112.4375 57.636719 113.632812 57.636719 115.066406 C 57.636719 117.75 58.714844 119.609375 60.878906 120.652344 L 60.878906 122.136719 L 55.644531 122.136719 L 55.644531 120.554688 Z M 55.644531 120.554688 "/>
<path style=" stroke:none;fill-rule:nonzero;fill:rgb(0%,0%,0%);fill-opacity:1;" d="M 190.078125 119.105469 L 190.078125 115.882812 L 184.257812 115.882812 L 184.257812 114.378906 L 190.390625 105.6875 L 191.738281 105.6875 L 191.738281 114.378906 L 193.554688 114.378906 L 193.554688 115.882812 L 191.738281 115.882812 L 191.738281 119.105469 L 190.078125 119.105469 Z M 190.078125 114.378906 L 190.078125 108.324219 L 185.878906 114.378906 L 190.078125 114.378906 Z M 190.078125 114.378906 "/>
<path style=" stroke:none;fill-rule:nonzero;fill:rgb(0%,0%,0%);fill-opacity:1;" d="M 195.179688 112.484375 C 195.179688 110.898438 195.339844 109.621094 195.667969 108.65625 C 195.992188 107.695312 196.472656 106.953125 197.113281 106.429688 C 197.761719 105.898438 198.578125 105.628906 199.554688 105.628906 C 200.269531 105.628906 200.902344 105.78125 201.449219 106.078125 C 201.996094 106.367188 202.445312 106.78125 202.796875 107.328125 C 203.148438 107.863281 203.421875 108.527344 203.617188 109.320312 C 203.824219 110.101562 203.929688 111.15625 203.929688 112.484375 C 203.929688 114.0625 203.765625 115.335938 203.441406 116.3125 C 203.113281 117.277344 202.625 118.027344 201.976562 118.558594 C 201.335938 119.082031 200.53125 119.339844 199.554688 119.339844 C 198.265625 119.339844 197.25 118.871094 196.507812 117.933594 C 195.621094 116.828125 195.179688 115.011719 195.179688 112.484375 Z M 196.878906 112.484375 C 196.878906 114.6875 197.132812 116.152344 197.640625 116.878906 C 198.160156 117.609375 198.796875 117.972656 199.554688 117.972656 C 200.308594 117.972656 200.941406 117.609375 201.449219 116.878906 C 201.96875 116.152344 202.230469 114.6875 202.230469 112.484375 C 202.230469 110.273438 201.96875 108.808594 201.449219 108.089844 C 200.941406 107.363281 200.300781 106.996094 199.535156 106.996094 C 198.777344 106.996094 198.171875 107.316406 197.71875 107.953125 C 197.15625 108.773438 196.878906 110.285156 196.878906 112.484375 Z M 196.878906 112.484375 "/>
<path style=" stroke:none;fill-rule:nonzero;fill:rgb(0%,0%,0%);fill-opacity:1;" d="M 205.652344 117.523438 L 208.582031 117.523438 C 206.730469 115.976562 205.808594 114.082031 205.808594 111.839844 C 205.808594 110.628906 206.046875 109.542969 206.53125 108.578125 C 207.023438 107.617188 207.714844 106.855469 208.601562 106.292969 C 209.5 105.734375 210.574219 105.453125 211.824219 105.453125 C 213.058594 105.453125 214.089844 105.714844 214.910156 106.234375 C 215.742188 106.742188 216.425781 107.480469 216.960938 108.441406 C 217.492188 109.394531 217.761719 110.527344 217.761719 111.839844 C 217.761719 114.082031 216.835938 115.976562 214.988281 117.523438 L 217.917969 117.523438 L 217.917969 119.105469 L 212.683594 119.105469 L 212.683594 117.621094 C 214.855469 116.605469 215.945312 114.769531 215.945312 112.113281 C 215.945312 110.617188 215.558594 109.386719 214.792969 108.421875 C 214.035156 107.460938 213.039062 106.976562 211.804688 106.976562 C 210.539062 106.976562 209.53125 107.464844 208.777344 108.441406 C 208.019531 109.40625 207.644531 110.605469 207.644531 112.035156 C 207.644531 114.71875 208.722656 116.582031 210.886719 117.621094 L 210.886719 119.105469 L 205.652344 119.105469 L 205.652344 117.523438 Z M 205.652344 117.523438 "/>
<path style=" stroke:none;fill-rule:nonzero;fill:rgb(0%,0%,0%);fill-opacity:1;" d="M 118.203125 227.628906 L 118.203125 229.210938 L 109.335938 229.210938 C 109.320312 228.820312 109.382812 228.441406 109.53125 228.058594 C 109.75 227.464844 110.105469 226.867188 110.605469 226.28125 C 111.113281 225.695312 111.835938 225.023438 112.773438 224.25 C 114.226562 223.054688 115.214844 222.113281 115.722656 221.417969 C 116.238281 220.714844 116.503906 220.050781 116.503906 219.425781 C 116.503906 218.777344 116.269531 218.230469 115.800781 217.785156 C 115.332031 217.332031 114.714844 217.101562 113.964844 217.101562 C 113.167969 217.101562 112.527344 217.347656 112.050781 217.824219 C 111.582031 218.292969 111.347656 218.953125 111.347656 219.796875 L 109.648438 219.621094 C 109.765625 218.363281 110.199219 217.394531 110.957031 216.730469 C 111.707031 216.066406 112.722656 215.734375 114.003906 215.734375 C 115.292969 215.734375 116.308594 216.097656 117.050781 216.808594 C 117.800781 217.527344 118.183594 218.410156 118.183594 219.464844 C 118.183594 220.003906 118.070312 220.53125 117.851562 221.046875 C 117.640625 221.570312 117.273438 222.117188 116.757812 222.6875 C 116.25 223.265625 115.398438 224.050781 114.21875 225.050781 C 113.226562 225.871094 112.585938 226.433594 112.304688 226.730469 C 112.03125 227.035156 111.800781 227.332031 111.621094 227.628906 L 118.203125 227.628906 Z M 118.203125 227.628906 "/>
<path style=" stroke:none;fill-rule:nonzero;fill:rgb(0%,0%,0%);fill-opacity:1;" d="M 119.925781 225.695312 L 121.644531 225.539062 C 121.769531 226.390625 122.074219 227.023438 122.542969 227.453125 C 123.011719 227.875 123.578125 228.078125 124.242188 228.078125 C 125.03125 228.078125 125.707031 227.78125 126.253906 227.179688 C 126.800781 226.585938 127.074219 225.792969 127.074219 224.816406 C 127.074219 223.871094 126.804688 223.128906 126.273438 222.589844 C 125.75 222.042969 125.0625 221.769531 124.203125 221.769531 C 123.664062 221.769531 123.1875 221.898438 122.757812 222.140625 C 122.335938 222.375 122.003906 222.683594 121.761719 223.058594 L 120.21875 222.863281 L 121.507812 215.96875 L 128.1875 215.96875 L 128.1875 217.550781 L 122.835938 217.550781 L 122.113281 221.144531 C 122.917969 220.589844 123.761719 220.304688 124.652344 220.304688 C 125.824219 220.304688 126.804688 220.714844 127.601562 221.535156 C 128.40625 222.347656 128.8125 223.386719 128.8125 224.660156 C 128.8125 225.871094 128.460938 226.921875 127.757812 227.804688 C 126.898438 228.898438 125.726562 229.445312 124.242188 229.445312 C 123.015625 229.445312 122.015625 229.109375 121.234375 228.429688 C 120.460938 227.742188 120.027344 226.828125 119.925781 225.695312 Z M 119.925781 225.695312 "/>
<path style=" stroke:none;fill-rule:nonzero;fill:rgb(0%,0%,0%);fill-opacity:1;" d="M 130.394531 227.628906 L 133.324219 227.628906 C 131.476562 226.082031 130.550781 224.1875 130.550781 221.945312 C 130.550781 220.734375 130.792969 219.652344 131.273438 218.683594 C 131.769531 217.722656 132.457031 216.960938 133.34375 216.398438 C 134.242188 215.84375 135.316406 215.558594 136.566406 215.558594 C 137.804688 215.558594 138.832031 215.824219 139.652344 216.339844 C 140.484375 216.847656 141.167969 217.585938 141.703125 218.546875 C 142.238281 219.5 142.503906 220.632812 142.503906 221.945312 C 142.503906 224.1875 141.578125 226.082031 139.730469 227.628906 L 142.660156 227.628906 L 142.660156 229.210938 L 137.425781 229.210938 L 137.425781 227.726562 C 139.601562 226.710938 140.6875 224.875 140.6875 222.21875 C 140.6875 220.726562 140.304688 219.496094 139.535156 218.527344 C 138.78125 217.566406 137.785156 217.082031 136.546875 217.082031 C 135.285156 217.082031 134.273438 217.570312 133.519531 218.546875 C 132.765625 219.515625 132.386719 220.710938 132.386719 222.140625 C 132.386719 224.828125 133.46875 226.6875 135.628906 227.726562 L 135.628906 229.210938 L 130.394531 229.210938 L 130.394531 227.628906 Z M 130.394531 227.628906 "/>
<path style=" stroke:none;fill-rule:nonzero;fill:rgb(0%,0%,0%);fill-opacity:1;" d="M 349.730469 109.84375 L 349.730469 106.621094 L 343.910156 106.621094 L 343.910156 105.117188 L 350.042969 96.425781 L 351.390625 96.425781 L 351.390625 105.117188 L 353.207031 105.117188 L 353.207031 106.621094 L 351.390625 106.621094 L 351.390625 109.84375 L 349.730469 109.84375 Z M 349.730469 105.117188 L 349.730469 99.0625 L 345.53125 105.117188 L 349.730469 105.117188 Z M 349.730469 105.117188 "/>
<path style=" stroke:none;fill-rule:nonzero;fill:rgb(0%,0%,0%);fill-opacity:1;" d="M 354.832031 103.222656 C 354.832031 101.632812 354.992188 100.359375 355.320312 99.394531 C 355.640625 98.429688 356.125 97.6875 356.765625 97.167969 C 357.414062 96.632812 358.230469 96.367188 359.207031 96.367188 C 359.917969 96.367188 360.554688 96.515625 361.101562 96.816406 C 361.648438 97.101562 362.097656 97.519531 362.449219 98.066406 C 362.800781 98.601562 363.074219 99.265625 363.269531 100.058594 C 363.472656 100.839844 363.582031 101.894531 363.582031 103.222656 C 363.582031 104.796875 363.414062 106.074219 363.09375 107.050781 C 362.765625 108.015625 362.277344 108.761719 361.628906 109.296875 C 360.988281 109.816406 360.183594 110.078125 359.207031 110.078125 C 357.917969 110.078125 356.902344 109.609375 356.160156 108.671875 C 355.269531 107.566406 354.832031 105.75 354.832031 103.222656 Z M 356.53125 103.222656 C 356.53125 105.421875 356.785156 106.886719 357.292969 107.617188 C 357.808594 108.347656 358.449219 108.710938 359.207031 108.710938 C 359.957031 108.710938 360.59375 108.347656 361.101562 107.617188 C 361.617188 106.886719 361.882812 105.421875 361.882812 103.222656 C 361.882812 101.007812 361.617188 99.542969 361.101562 98.828125 C 360.59375 98.097656 359.953125 97.734375 359.1875 97.734375 C 358.429688 97.734375 357.824219 98.054688 357.371094 98.691406 C 356.808594 99.511719 356.53125 101.023438 356.53125 103.222656 Z M 356.53125 103.222656 "/>
<path style=" stroke:none;fill-rule:nonzero;fill:rgb(0%,0%,0%);fill-opacity:1;" d="M 365.304688 108.261719 L 368.234375 108.261719 C 366.382812 106.710938 365.460938 104.816406 365.460938 102.578125 C 365.460938 101.367188 365.699219 100.28125 366.183594 99.316406 C 366.675781 98.351562 367.363281 97.589844 368.253906 97.03125 C 369.152344 96.472656 370.226562 96.191406 371.476562 96.191406 C 372.710938 96.191406 373.742188 96.453125 374.5625 96.972656 C 375.390625 97.480469 376.074219 98.214844 376.613281 99.179688 C 377.144531 100.128906 377.414062 101.261719 377.414062 102.578125 C 377.414062 104.816406 376.484375 106.710938 374.640625 108.261719 L 377.570312 108.261719 L 377.570312 109.84375 L 372.335938 109.84375 L 372.335938 108.359375 C 374.507812 107.34375 375.597656 105.507812 375.597656 102.851562 C 375.597656 101.355469 375.210938 100.125 374.445312 99.160156 C 373.6875 98.195312 372.691406 97.714844 371.457031 97.714844 C 370.191406 97.714844 369.179688 98.203125 368.429688 99.179688 C 367.671875 100.144531 367.296875 101.339844 367.296875 102.773438 C 367.296875 105.457031 368.375 107.316406 370.539062 108.359375 L 370.539062 109.84375 L 365.304688 109.84375 L 365.304688 108.261719 Z M 365.304688 108.261719 "/>
<path style="fill-rule:nonzero;fill:rgb(0%,0%,0%);fill-opacity:1;stroke-width:0.792428;stroke-linecap:butt;stroke-linejoin:miter;stroke:rgb(0%,0%,0%);stroke-opacity:1;stroke-miterlimit:4;" d="M 66.4125 45.36875 C 66.4125 46.14375 65.784375 46.775 65.00625 46.775 C 64.23125 46.775 63.6 46.14375 63.6 45.36875 C 63.6 44.590625 64.23125 43.9625 65.00625 43.9625 C 65.784375 43.9625 66.4125 44.590625 66.4125 45.36875 Z M 66.4125 45.36875 " transform="matrix(1.25,0,0,1.25,0,0.000000000000028422)"/>
<path style="fill-rule:nonzero;fill:rgb(0%,0%,0%);fill-opacity:1;stroke-width:0.792428;stroke-linecap:butt;stroke-linejoin:miter;stroke:rgb(0%,0%,0%);stroke-opacity:1;stroke-miterlimit:4;" d="M 354.0625 45.2 C 354.0625 45.975 353.434375 46.609375 352.65625 46.609375 C 351.878125 46.609375 351.25 45.975 351.25 45.2 C 351.25 44.421875 351.878125 43.79375 352.65625 43.79375 C 353.434375 43.79375 354.0625 44.421875 354.0625 45.2 Z M 354.0625 45.2 " transform="matrix(1.25,0,0,1.25,0,0.000000000000028422)"/>
<path style="fill-rule:nonzero;fill:rgb(0%,0%,0%);fill-opacity:1;stroke-width:0.792428;stroke-linecap:butt;stroke-linejoin:miter;stroke:rgb(0%,0%,0%);stroke-opacity:1;stroke-miterlimit:4;" d="M 261.49375 45.36875 C 261.49375 46.14375 260.859375 46.775 260.08125 46.775 C 259.30625 46.775 258.675 46.14375 258.675 45.36875 C 258.675 44.590625 259.30625 43.9625 260.08125 43.9625 C 260.859375 43.9625 261.49375 44.590625 261.49375 45.36875 Z M 261.49375 45.36875 " transform="matrix(1.25,0,0,1.25,0,0.000000000000028422)"/>
<path style="fill-rule:nonzero;fill:rgb(0%,0%,0%);fill-opacity:1;stroke-width:0.792428;stroke-linecap:butt;stroke-linejoin:miter;stroke:rgb(0%,0%,0%);stroke-opacity:1;stroke-miterlimit:4;" d="M 187.0125 45.9375 C 187.0125 46.715625 186.38125 47.346875 185.60625 47.346875 C 184.828125 47.346875 184.19375 46.715625 184.19375 45.9375 C 184.19375 45.159375 184.828125 44.53125 185.60625 44.53125 C 186.38125 44.53125 187.0125 45.159375 187.0125 45.9375 Z M 187.0125 45.9375 " transform="matrix(1.25,0,0,1.25,0,0.000000000000028422)"/>
<path style="fill-rule:nonzero;fill:rgb(0%,0%,0%);fill-opacity:1;stroke-width:0.792428;stroke-linecap:butt;stroke-linejoin:miter;stroke:rgb(0%,0%,0%);stroke-opacity:1;stroke-miterlimit:4;" d="M 354.0375 196.746875 C 354.0375 197.525 353.409375 198.15625 352.63125 198.15625 C 351.85625 198.15625 351.221875 197.525 351.221875 196.746875 C 351.221875 195.96875 351.85625 195.340625 352.63125 195.340625 C 353.409375 195.340625 354.0375 195.96875 354.0375 196.746875 Z M 354.0375 196.746875 " transform="matrix(1.25,0,0,1.25,0,0.000000000000028422)"/>
<path style="fill-rule:nonzero;fill:rgb(0%,0%,0%);fill-opacity:1;stroke-width:0.792428;stroke-linecap:butt;stroke-linejoin:miter;stroke:rgb(0%,0%,0%);stroke-opacity:1;stroke-miterlimit:4;" d="M 261.46875 196.9125 C 261.46875 197.690625 260.8375 198.325 260.059375 198.325 C 259.28125 198.325 258.653125 197.690625 258.653125 196.9125 C 258.653125 196.1375 259.28125 195.50625 260.059375 195.50625 C 260.8375 195.50625 261.46875 196.1375 261.46875 196.9125 Z M 261.46875 196.9125 " transform="matrix(1.25,0,0,1.25,0,0.000000000000028422)"/>
<path style="fill-rule:nonzero;fill:rgb(0%,0%,0%);fill-opacity:1;stroke-width:0.792428;stroke-linecap:butt;stroke-linejoin:miter;stroke:rgb(0%,0%,0%);stroke-opacity:1;stroke-miterlimit:4;" d="M 186.9875 197.2 C 186.9875 197.975 186.35625 198.609375 185.578125 198.609375 C 184.8 198.609375 184.171875 197.975 184.171875 197.2 C 184.171875 196.421875 184.8 195.79375 185.578125 195.79375 C 186.35625 195.79375 186.9875 196.421875 186.9875 197.2 Z M 186.9875 197.2 " transform="matrix(1.25,0,0,1.25,0,0.000000000000028422)"/>
<path style="fill-rule:nonzero;fill:rgb(0%,0%,0%);fill-opacity:1;stroke-width:0.792428;stroke-linecap:butt;stroke-linejoin:miter;stroke:rgb(0%,0%,0%);stroke-opacity:1;stroke-miterlimit:4;" d="M 66.4125 196.484375 C 66.4125 197.265625 65.784375 197.89375 65.00625 197.89375 C 64.23125 197.89375 63.6 197.265625 63.6 196.484375 C 63.6 195.70625 64.23125 195.078125 65.00625 195.078125 C 65.784375 195.078125 66.4125 195.70625 66.4125 196.484375 Z M 66.4125 196.484375 " transform="matrix(1.25,0,0,1.25,0,0.000000000000028422)"/>
<path style=" stroke:none;fill-rule:nonzero;fill:rgb(80%,80%,80%);fill-opacity:1;" d="M 60.15625 35.785156 L 75.8125 35.785156 L 75.8125 50.238281 L 60.15625 50.238281 L 60.15625 35.785156 Z M 60.15625 35.785156 "/>
<path style=" stroke:none;fill-rule:nonzero;fill:rgb(0%,0%,0%);fill-opacity:1;" d="M 63.191406 48.132812 L 66.980469 38.289062 L 68.367188 38.289062 L 72.410156 48.132812 L 70.925781 48.132812 L 69.773438 45.144531 L 65.652344 45.144531 L 64.578125 48.132812 L 63.191406 48.132812 Z M 66.023438 44.089844 L 69.363281 44.089844 L 68.347656 41.355469 C 68.035156 40.535156 67.800781 39.859375 67.644531 39.324219 C 67.515625 39.949219 67.339844 40.574219 67.117188 41.199219 L 66.023438 44.089844 Z M 66.023438 44.089844 "/>
<path style=" stroke:none;fill-rule:nonzero;fill:rgb(80%,80%,80%);fill-opacity:1;" d="M 224.15625 35.785156 L 239.8125 35.785156 L 239.8125 50.238281 L 224.15625 50.238281 L 224.15625 35.785156 Z M 224.15625 35.785156 "/>
<path style=" stroke:none;fill-rule:nonzero;fill:rgb(0%,0%,0%);fill-opacity:1;" d="M 228.226562 48.132812 L 228.226562 38.289062 L 231.917969 38.289062 C 232.660156 38.289062 233.257812 38.394531 233.714844 38.601562 C 234.171875 38.796875 234.527344 39.105469 234.789062 39.519531 C 235.050781 39.925781 235.179688 40.355469 235.179688 40.808594 C 235.179688 41.226562 235.0625 41.625 234.828125 42 C 234.605469 42.367188 234.261719 42.664062 233.792969 42.898438 C 234.390625 43.070312 234.847656 43.367188 235.160156 43.796875 C 235.484375 44.214844 235.648438 44.710938 235.648438 45.28125 C 235.648438 45.738281 235.550781 46.167969 235.355469 46.570312 C 235.160156 46.960938 234.917969 47.269531 234.632812 47.488281 C 234.347656 47.699219 233.988281 47.859375 233.558594 47.976562 C 233.128906 48.082031 232.601562 48.132812 231.976562 48.132812 L 228.226562 48.132812 Z M 229.515625 42.429688 L 231.644531 42.429688 C 232.230469 42.429688 232.648438 42.390625 232.894531 42.3125 C 233.21875 42.210938 233.46875 42.046875 233.636719 41.824219 C 233.804688 41.589844 233.890625 41.304688 233.890625 40.964844 C 233.890625 40.640625 233.8125 40.355469 233.65625 40.105469 C 233.5 39.859375 233.273438 39.691406 232.972656 39.597656 C 232.6875 39.507812 232.191406 39.460938 231.488281 39.460938 L 229.515625 39.460938 L 229.515625 42.429688 Z M 229.515625 46.980469 L 231.976562 46.980469 C 232.394531 46.980469 232.6875 46.960938 232.855469 46.921875 C 233.15625 46.871094 233.402344 46.785156 233.597656 46.667969 C 233.804688 46.539062 233.976562 46.355469 234.105469 46.121094 C 234.234375 45.875 234.300781 45.59375 234.300781 45.28125 C 234.300781 44.917969 234.203125 44.597656 234.007812 44.324219 C 233.824219 44.050781 233.566406 43.863281 233.226562 43.757812 C 232.902344 43.640625 232.425781 43.582031 231.800781 43.582031 L 229.515625 43.582031 L 229.515625 46.980469 Z M 229.515625 46.980469 "/>
<path style=" stroke:none;fill-rule:nonzero;fill:rgb(80%,80%,80%);fill-opacity:1;" d="M 377.246094 35.785156 L 392.898438 35.785156 L 392.898438 50.238281 L 377.246094 50.238281 L 377.246094 35.785156 Z M 377.246094 35.785156 "/>
<path style=" stroke:none;fill-rule:nonzero;fill:rgb(0%,0%,0%);fill-opacity:1;" d="M 380.964844 48.132812 L 380.964844 38.289062 L 384.363281 38.289062 C 385.128906 38.289062 385.714844 38.335938 386.121094 38.425781 C 386.679688 38.558594 387.160156 38.792969 387.566406 39.128906 C 388.074219 39.574219 388.457031 40.140625 388.71875 40.828125 C 388.976562 41.507812 389.109375 42.28125 389.109375 43.152344 C 389.109375 43.910156 389.015625 44.574219 388.835938 45.144531 C 388.664062 45.71875 388.445312 46.195312 388.171875 46.570312 C 387.898438 46.949219 387.597656 47.25 387.273438 47.46875 C 386.945312 47.691406 386.554688 47.859375 386.101562 47.976562 C 385.644531 48.082031 385.117188 48.132812 384.519531 48.132812 L 380.964844 48.132812 Z M 382.273438 46.980469 L 384.382812 46.980469 C 385.019531 46.980469 385.519531 46.921875 385.886719 46.804688 C 386.261719 46.675781 386.5625 46.5 386.785156 46.277344 C 387.097656 45.964844 387.335938 45.550781 387.507812 45.027344 C 387.675781 44.507812 387.761719 43.875 387.761719 43.132812 C 387.761719 42.105469 387.589844 41.316406 387.253906 40.769531 C 386.914062 40.210938 386.503906 39.839844 386.023438 39.65625 C 385.671875 39.527344 385.109375 39.460938 384.34375 39.460938 L 382.273438 39.460938 L 382.273438 46.980469 Z M 382.273438 46.980469 "/>
<path style=" stroke:none;fill-rule:nonzero;fill:rgb(80%,80%,80%);fill-opacity:1;" d="M 433.359375 35.785156 L 449.019531 35.785156 L 449.019531 50.238281 L 433.359375 50.238281 L 433.359375 35.785156 Z M 433.359375 35.785156 "/>
<path style=" stroke:none;fill-rule:nonzero;fill:rgb(0%,0%,0%);fill-opacity:1;" d="M 437.511719 48.132812 L 437.511719 38.289062 L 444.621094 38.289062 L 444.621094 39.460938 L 438.800781 39.460938 L 438.800781 42.46875 L 444.25 42.46875 L 444.25 43.621094 L 438.800781 43.621094 L 438.800781 46.980469 L 444.855469 46.980469 L 444.855469 48.132812 L 437.511719 48.132812 Z M 437.511719 48.132812 "/>
<path style=" stroke:none;fill-rule:nonzero;fill:rgb(80%,80%,80%);fill-opacity:1;" d="M 318.011719 251.75 L 333.671875 251.75 L 333.671875 266.203125 L 318.011719 266.203125 L 318.011719 251.75 Z M 318.011719 251.75 "/>
<path style=" stroke:none;fill-rule:nonzero;fill:rgb(0%,0%,0%);fill-opacity:1;" d="M 322.085938 264.097656 L 322.085938 254.253906 L 323.375 254.253906 L 323.375 259.136719 L 328.277344 254.253906 L 330.035156 254.253906 L 325.914062 258.238281 L 330.210938 264.097656 L 328.492188 264.097656 L 324.996094 259.117188 L 323.375 260.679688 L 323.375 264.097656 L 322.085938 264.097656 Z M 322.085938 264.097656 "/>
<path style=" stroke:none;fill-rule:nonzero;fill:rgb(80%,80%,80%);fill-opacity:1;" d="M 377.300781 251.75 L 392.953125 251.75 L 392.953125 266.203125 L 377.300781 266.203125 L 377.300781 251.75 Z M 377.300781 251.75 "/>
<path style=" stroke:none;fill-rule:nonzero;fill:rgb(0%,0%,0%);fill-opacity:1;" d="M 381.949219 261.304688 L 383.121094 261.148438 C 383.160156 261.890625 383.300781 262.40625 383.550781 262.691406 C 383.792969 262.964844 384.140625 263.101562 384.585938 263.101562 C 384.90625 263.101562 385.191406 263.03125 385.425781 262.886719 C 385.667969 262.730469 385.839844 262.527344 385.933594 262.28125 C 386.019531 262.019531 386.070312 261.605469 386.070312 261.03125 L 386.070312 254.253906 L 387.359375 254.253906 L 387.359375 260.953125 C 387.359375 261.785156 387.261719 262.429688 387.066406 262.886719 C 386.871094 263.328125 386.546875 263.675781 386.109375 263.921875 C 385.679688 264.15625 385.175781 264.273438 384.605469 264.273438 C 383.730469 264.273438 383.066406 264.027344 382.613281 263.53125 C 382.152344 263.023438 381.933594 262.28125 381.949219 261.304688 Z M 381.949219 261.304688 "/>
<path style=" stroke:none;fill-rule:nonzero;fill:rgb(80%,80%,80%);fill-opacity:1;" d="M 433.011719 251.75 L 448.671875 251.75 L 448.671875 266.203125 L 433.011719 266.203125 L 433.011719 251.75 Z M 433.011719 251.75 "/>
<path style=" stroke:none;fill-rule:nonzero;fill:rgb(0%,0%,0%);fill-opacity:1;" d="M 436.773438 264.097656 L 436.773438 254.253906 L 438.082031 254.253906 L 438.082031 258.296875 L 443.199219 258.296875 L 443.199219 254.253906 L 444.507812 254.253906 L 444.507812 264.097656 L 443.199219 264.097656 L 443.199219 259.449219 L 438.082031 259.449219 L 438.082031 264.097656 L 436.773438 264.097656 Z M 436.773438 264.097656 "/>
<path style=" stroke:none;fill-rule:nonzero;fill:rgb(80%,80%,80%);fill-opacity:1;" d="M 488.671875 251.75 L 504.332031 251.75 L 504.332031 266.203125 L 488.671875 266.203125 L 488.671875 251.75 Z M 488.671875 251.75 "/>
<path style=" stroke:none;fill-rule:nonzero;fill:rgb(0%,0%,0%);fill-opacity:1;" d="M 496.613281 260.230469 L 496.613281 259.078125 L 500.792969 259.078125 L 500.792969 262.730469 C 500.136719 263.238281 499.472656 263.621094 498.800781 263.882812 C 498.121094 264.140625 497.421875 264.273438 496.710938 264.273438 C 495.742188 264.273438 494.863281 264.066406 494.074219 263.648438 C 493.277344 263.230469 492.675781 262.632812 492.277344 261.851562 C 491.871094 261.070312 491.671875 260.191406 491.671875 259.214844 C 491.671875 258.265625 491.871094 257.371094 492.277344 256.539062 C 492.675781 255.707031 493.257812 255.085938 494.015625 254.683594 C 494.765625 254.28125 495.636719 254.078125 496.613281 254.078125 C 497.316406 254.078125 497.949219 254.195312 498.527344 254.429688 C 499.113281 254.664062 499.566406 254.988281 499.894531 255.40625 C 500.214844 255.808594 500.464844 256.34375 500.636719 257.007812 L 499.464844 257.320312 C 499.316406 256.824219 499.136719 256.433594 498.917969 256.148438 C 498.691406 255.863281 498.375 255.632812 497.960938 255.464844 C 497.554688 255.296875 497.105469 255.210938 496.613281 255.210938 C 496.011719 255.210938 495.5 255.300781 495.070312 255.484375 C 494.640625 255.652344 494.289062 255.886719 494.015625 256.1875 C 493.75 256.488281 493.546875 256.8125 493.390625 257.164062 C 493.140625 257.777344 493.019531 258.433594 493.019531 259.136719 C 493.019531 260.023438 493.164062 260.757812 493.46875 261.34375 C 493.78125 261.929688 494.21875 262.367188 494.796875 262.652344 C 495.367188 262.9375 495.976562 263.082031 496.632812 263.082031 C 497.1875 263.082031 497.734375 262.976562 498.273438 262.769531 C 498.820312 262.546875 499.230469 262.3125 499.503906 262.066406 L 499.503906 260.230469 L 496.613281 260.230469 Z M 496.613281 260.230469 "/>
<path style=" stroke:none;fill-rule:nonzero;fill:rgb(80%,80%,80%);fill-opacity:1;" d="M 223.359375 251.75 L 239.019531 251.75 L 239.019531 266.203125 L 223.359375 266.203125 L 223.359375 251.75 Z M 223.359375 251.75 "/>
<path style=" stroke:none;fill-rule:nonzero;fill:rgb(0%,0%,0%);fill-opacity:1;" d="M 228.230469 264.097656 L 228.230469 254.253906 L 229.519531 254.253906 L 229.519531 262.945312 L 234.363281 262.945312 L 234.363281 264.097656 L 228.230469 264.097656 Z M 228.230469 264.097656 "/>
<path style=" stroke:none;fill-rule:nonzero;fill:rgb(0%,0%,0%);fill-opacity:1;" d="M 228.230469 264.097656 L 228.230469 254.253906 L 229.519531 254.253906 L 229.519531 262.945312 L 234.363281 262.945312 L 234.363281 264.097656 L 228.230469 264.097656 Z M 228.230469 264.097656 "/>
<path style=" stroke:none;fill-rule:nonzero;fill:rgb(80%,80%,80%);fill-opacity:1;" d="M 318.101562 35.785156 L 333.753906 35.785156 L 333.753906 50.238281 L 318.101562 50.238281 L 318.101562 35.785156 Z M 318.101562 35.785156 "/>
<path style=" stroke:none;fill-rule:nonzero;fill:rgb(0%,0%,0%);fill-opacity:1;" d="M 328.851562 44.675781 L 330.160156 45.007812 C 329.886719 46.078125 329.386719 46.898438 328.675781 47.46875 C 327.972656 48.03125 327.101562 48.308594 326.078125 48.308594 C 325.007812 48.308594 324.144531 48.09375 323.480469 47.664062 C 322.816406 47.222656 322.308594 46.589844 321.957031 45.769531 C 321.613281 44.949219 321.449219 44.070312 321.449219 43.132812 C 321.449219 42.117188 321.644531 41.226562 322.035156 40.457031 C 322.425781 39.691406 322.976562 39.109375 323.695312 38.71875 C 324.421875 38.316406 325.222656 38.113281 326.097656 38.113281 C 327.082031 38.113281 327.914062 38.367188 328.578125 38.875 C 329.25 39.371094 329.71875 40.074219 329.984375 40.984375 L 328.695312 41.296875 C 328.46875 40.582031 328.136719 40.0625 327.699219 39.734375 C 327.269531 39.410156 326.726562 39.246094 326.078125 39.246094 C 325.304688 39.246094 324.671875 39.429688 324.164062 39.792969 C 323.65625 40.144531 323.292969 40.628906 323.089844 41.238281 C 322.894531 41.851562 322.796875 42.484375 322.796875 43.132812 C 322.796875 43.96875 322.914062 44.695312 323.148438 45.320312 C 323.390625 45.945312 323.773438 46.414062 324.28125 46.726562 C 324.796875 47.039062 325.359375 47.195312 325.960938 47.195312 C 326.6875 47.195312 327.308594 46.988281 327.816406 46.570312 C 328.324219 46.140625 328.664062 45.511719 328.851562 44.675781 Z M 328.851562 44.675781 "/>
<path style="fill:none;stroke-width:0.8;stroke-linecap:butt;stroke-linejoin:miter;stroke:rgb(0%,0%,0%);stroke-opacity:1;stroke-miterlimit:4;" d="M 397.51875 45.18125 L 397.51875 197.10625 " transform="matrix(1.25,0,0,1.25,0,0.000000000000028422)"/>
<path style="fill-rule:nonzero;fill:rgb(100%,100%,100%);fill-opacity:1;stroke-width:1.043077;stroke-linecap:butt;stroke-linejoin:miter;stroke:rgb(0%,0%,0%);stroke-opacity:1;stroke-miterlimit:4;" d="M 96.528125 -405.575 L 142.24375 -405.575 L 142.24375 -389.48125 L 96.528125 -389.48125 L 96.528125 -405.575 Z M 96.528125 -405.575 " transform="matrix(0,1.25,-1.25,0,0,0.000000000000028422)"/>
<path style=" stroke:none;fill-rule:nonzero;fill:rgb(0%,0%,0%);fill-opacity:1;" d="M 460.085938 111.269531 L 460.085938 108.046875 L 454.265625 108.046875 L 454.265625 106.542969 L 460.398438 97.851562 L 461.746094 97.851562 L 461.746094 106.542969 L 463.5625 106.542969 L 463.5625 108.046875 L 461.746094 108.046875 L 461.746094 111.269531 L 460.085938 111.269531 Z M 460.085938 106.542969 L 460.085938 100.488281 L 455.886719 106.542969 L 460.085938 106.542969 Z M 460.085938 106.542969 "/>
<path style=" stroke:none;fill-rule:nonzero;fill:rgb(0%,0%,0%);fill-opacity:1;" d="M 465.1875 104.648438 C 465.1875 103.0625 465.347656 101.789062 465.675781 100.820312 C 466 99.859375 466.480469 99.117188 467.121094 98.59375 C 467.769531 98.0625 468.585938 97.792969 469.5625 97.792969 C 470.277344 97.792969 470.910156 97.945312 471.457031 98.242188 C 472.003906 98.53125 472.453125 98.945312 472.804688 99.492188 C 473.15625 100.03125 473.429688 100.695312 473.625 101.484375 C 473.832031 102.265625 473.9375 103.320312 473.9375 104.648438 C 473.9375 106.226562 473.773438 107.5 473.449219 108.476562 C 473.121094 109.445312 472.632812 110.191406 471.984375 110.722656 C 471.34375 111.246094 470.539062 111.503906 469.5625 111.503906 C 468.273438 111.503906 467.257812 111.035156 466.515625 110.097656 C 465.628906 108.996094 465.1875 107.179688 465.1875 104.648438 Z M 466.886719 104.648438 C 466.886719 106.851562 467.140625 108.316406 467.648438 109.042969 C 468.167969 109.777344 468.804688 110.136719 469.5625 110.136719 C 470.316406 110.136719 470.949219 109.777344 471.457031 109.042969 C 471.976562 108.316406 472.238281 106.851562 472.238281 104.648438 C 472.238281 102.4375 471.976562 100.972656 471.457031 100.253906 C 470.949219 99.527344 470.308594 99.160156 469.542969 99.160156 C 468.785156 99.160156 468.179688 99.484375 467.726562 100.117188 C 467.164062 100.9375 466.886719 102.453125 466.886719 104.648438 Z M 466.886719 104.648438 "/>
<path style=" stroke:none;fill-rule:nonzero;fill:rgb(0%,0%,0%);fill-opacity:1;" d="M 475.660156 109.6875 L 478.589844 109.6875 C 476.738281 108.140625 475.816406 106.246094 475.816406 104.003906 C 475.816406 102.792969 476.054688 101.710938 476.539062 100.742188 C 477.03125 99.78125 477.722656 99.019531 478.609375 98.457031 C 479.507812 97.902344 480.582031 97.617188 481.832031 97.617188 C 483.066406 97.617188 484.097656 97.882812 484.917969 98.398438 C 485.75 98.90625 486.433594 99.644531 486.96875 100.605469 C 487.5 101.558594 487.769531 102.691406 487.769531 104.003906 C 487.769531 106.246094 486.84375 108.140625 484.996094 109.6875 L 487.925781 109.6875 L 487.925781 111.269531 L 482.691406 111.269531 L 482.691406 109.785156 C 484.863281 108.769531 485.953125 106.933594 485.953125 104.277344 C 485.953125 102.785156 485.566406 101.554688 484.800781 100.585938 C 484.042969 99.625 483.046875 99.140625 481.8125 99.140625 C 480.546875 99.140625 479.539062 99.628906 478.785156 100.605469 C 478.027344 101.574219 477.652344 102.769531 477.652344 104.199219 C 477.652344 106.886719 478.730469 108.746094 480.894531 109.785156 L 480.894531 111.269531 L 475.660156 111.269531 L 475.660156 109.6875 Z M 475.660156 109.6875 "/>
<path style="fill-rule:nonzero;fill:rgb(0%,0%,0%);fill-opacity:1;stroke-width:0.792428;stroke-linecap:butt;stroke-linejoin:miter;stroke:rgb(0%,0%,0%);stroke-opacity:1;stroke-miterlimit:4;" d="M 310.128125 45.36875 C 310.128125 46.14375 309.5 46.775 308.721875 46.775 C 307.94375 46.775 307.3125 46.14375 307.3125 45.36875 C 307.3125 44.590625 307.94375 43.9625 308.721875 43.9625 C 309.5 43.9625 310.128125 44.590625 310.128125 45.36875 Z M 310.128125 45.36875 " transform="matrix(1.25,0,0,1.25,0,0.000000000000028422)"/>
<path style="fill-rule:nonzero;fill:rgb(0%,0%,0%);fill-opacity:1;stroke-width:0.792428;stroke-linecap:butt;stroke-linejoin:miter;stroke:rgb(0%,0%,0%);stroke-opacity:1;stroke-miterlimit:4;" d="M 309.878125 197.025 C 309.878125 197.8 309.25 198.43125 308.471875 198.43125 C 307.69375 198.43125 307.0625 197.8 307.0625 197.025 C 307.0625 196.246875 307.69375 195.6125 308.471875 195.6125 C 309.25 195.6125 309.878125 196.246875 309.878125 197.025 Z M 309.878125 197.025 " transform="matrix(1.25,0,0,1.25,0,0.000000000000028422)"/>
<path style=" stroke:none;fill-rule:nonzero;fill:rgb(80%,80%,80%);fill-opacity:1;" d="M 489.453125 35.785156 L 505.113281 35.785156 L 505.113281 50.238281 L 489.453125 50.238281 L 489.453125 35.785156 Z M 489.453125 35.785156 "/>
<path style=" stroke:none;fill-rule:nonzero;fill:rgb(0%,0%,0%);fill-opacity:1;" d="M 494.050781 48.132812 L 494.050781 38.289062 L 500.691406 38.289062 L 500.691406 39.460938 L 495.339844 39.460938 L 495.339844 42.507812 L 499.96875 42.507812 L 499.96875 43.660156 L 495.339844 43.660156 L 495.339844 48.132812 L 494.050781 48.132812 Z M 494.050781 48.132812 "/>
<path style=" stroke:none;fill-rule:nonzero;fill:rgb(80%,80%,80%);fill-opacity:1;" d="M 73.359375 251.75 L 89.019531 251.75 L 89.019531 266.203125 L 73.359375 266.203125 L 73.359375 251.75 Z M 73.359375 251.75 "/>
<path style=" stroke:none;fill-rule:nonzero;fill:rgb(0%,0%,0%);fill-opacity:1;" d="M 76.246094 264.097656 L 76.246094 254.253906 L 78.21875 254.253906 L 80.542969 261.226562 C 80.75 261.878906 80.90625 262.359375 81.011719 262.671875 C 81.128906 262.320312 81.304688 261.800781 81.539062 261.109375 L 83.882812 254.253906 L 85.640625 254.253906 L 85.640625 264.097656 L 84.390625 264.097656 L 84.390625 255.855469 L 81.519531 264.097656 L 80.347656 264.097656 L 77.515625 255.71875 L 77.515625 264.097656 L 76.246094 264.097656 Z M 76.246094 264.097656 "/>
</g>
</svg>
