<?xml version="1.0" encoding="UTF-8"?>
<!-- Converted by misc2svg (http://www.network-science.de/tools/misc2svg/) -->
<svg xmlns="http://www.w3.org/2000/svg" xmlns:xlink="http://www.w3.org/1999/xlink" width="338pt" height="343pt" viewBox="0 0 338 343" version="1.1">
<g id="misc2svg">
<path style="fill:none;stroke-width:0.8;stroke-linecap:butt;stroke-linejoin:miter;stroke:rgb(0%,0%,0%);stroke-opacity:1;stroke-miterlimit:4;" d="M 26.53125 16.059375 L 147.9 16.059375 " transform="matrix(1.25,0,0,1.25,0,0.000000000000028422)"/>
<path style="fill:none;stroke-width:0.8;stroke-linecap:butt;stroke-linejoin:miter;stroke:rgb(0%,0%,0%);stroke-opacity:1;stroke-miterlimit:4;" d="M 93.3125 15.7625 L 93.3125 167.6875 " transform="matrix(1.25,0,0,1.25,0,0.000000000000028422)"/>
<path style="fill:none;stroke-width:0.8;stroke-linecap:butt;stroke-linejoin:miter;stroke:rgb(0%,0%,0%);stroke-opacity:1;stroke-miterlimit:4;" d="M 147.971875 16.059375 L 221.95625 16.059375 " transform="matrix(1.25,0,0,1.25,0,0.000000000000028422)"/>
<path style="fill:none;stroke-width:0.8;stroke-linecap:butt;stroke-linejoin:miter;stroke:rgb(0%,0%,0%);stroke-opacity:1;stroke-miterlimit:4;" d="M 26.6375 167.70625 L 222.171875 167.70625 " transform="matrix(1.25,0,0,1.25,0,0.000000000000028422)"/>
<path style="fill:none;stroke-width:0.8;stroke-linecap:butt;stroke-linejoin:miter;stroke:rgb(0%,0%,0%);stroke-opacity:1;stroke-miterlimit:4;" d="M 26.79375 15.690625 L 26.79375 167.390625 " transform="matrix(1.25,0,0,1.25,0,0.000000000000028422)"/>
<path style="fill-rule:nonzero;fill:rgb(100%,100%,100%);fill-opacity:1;stroke-width:1.043077;stroke-linecap:butt;stroke-linejoin:miter;stroke:rgb(0%,0%,0%);stroke-opacity:1;stroke-miterlimit:4;" d="M 67.39375 -35.25 L 113.1125 -35.25 L 113.1125 -19.15625 L 67.39375 -19.15625 L 67.39375 -35.25 Z M 67.39375 -35.25 " transform="matrix(0,1.25,-1.25,0,0,0.000000000000028422)"/>
<path style="fill-rule:nonzero;fill:rgb(100%,100%,100%);fill-opacity:1;stroke-width:1.043077;stroke-linecap:butt;stroke-linejoin:miter;stroke:rgb(0%,0%,0%);stroke-opacity:1;stroke-miterlimit:4;" d="M -114.265625 -159.49375 L -159.984375 -159.49375 L -159.984375 -175.5875 L -114.265625 -175.5875 L -114.265625 -159.49375 Z M -114.265625 -159.49375 " transform="matrix(-1.25,0,0,-1.25,0,0.000000000000028422)"/>
<path style="fill:none;stroke-width:0.8;stroke-linecap:butt;stroke-linejoin:miter;stroke:rgb(0%,0%,0%);stroke-opacity:1;stroke-miterlimit:4;" d="M 222.1125 16.33125 L 222.1125 168.2625 " transform="matrix(1.25,0,0,1.25,0,0.000000000000028422)"/>
<path style="fill:none;stroke-width:0.8;stroke-linecap:butt;stroke-linejoin:miter;stroke:rgb(0%,0%,0%);stroke-opacity:1;stroke-miterlimit:4;" d="M 75.3875 90.1 L 110.815625 90.1 " transform="matrix(1.25,0,0,1.25,0,0.000000000000028422)"/>
<path style="fill:none;stroke-width:0.8;stroke-linecap:butt;stroke-linejoin:miter;stroke:rgb(0%,0%,0%);stroke-opacity:1;stroke-miterlimit:4;" d="M 222.1125 16.33125 L 222.1125 167.046875 " transform="matrix(1.25,0,0,1.25,0,0.000000000000028422)"/>
<path style="fill-rule:nonzero;fill:rgb(100%,100%,100%);fill-opacity:1;stroke-width:1.2;stroke-linecap:butt;stroke-linejoin:miter;stroke:rgb(0%,0%,0%);stroke-opacity:1;stroke-miterlimit:4;" d="M 111.628125 90.1 C 111.628125 100.059375 103.559375 108.128125 93.6 108.128125 C 83.64375 108.128125 75.56875 100.059375 75.56875 90.1 C 75.56875 80.14375 83.64375 72.06875 93.6 72.06875 C 103.559375 72.06875 111.628125 80.14375 111.628125 90.1 Z M 111.628125 90.1 " transform="matrix(1.25,0,0,1.25,0,0.000000000000028422)"/>
<path style="fill:none;stroke-width:0.8;stroke-linecap:butt;stroke-linejoin:miter;stroke:rgb(0%,0%,0%);stroke-opacity:1;stroke-miterlimit:4;" d="M 75.3875 90.1 L 110.815625 90.1 " transform="matrix(1.25,0,0,1.25,0,0.000000000000028422)"/>
<path style="fill-rule:nonzero;fill:rgb(0%,0%,0%);fill-opacity:1;stroke-width:0.8;stroke-linecap:butt;stroke-linejoin:miter;stroke:rgb(0%,0%,0%);stroke-opacity:1;stroke-miterlimit:4;" d="M 181.371875 167.715625 L 191.090625 167.715625 " transform="matrix(1.25,0,0,1.25,0,0.000000000000028422)"/>
<path style="fill-rule:evenodd;fill:rgb(0%,0%,0%);fill-opacity:1;stroke-width:0.55;stroke-linecap:butt;stroke-linejoin:round;stroke:rgb(0%,0%,0%);stroke-opacity:1;stroke-miterlimit:4;" d="M -182.5375 -164.16875 L -192.153125 -167.703125 L -182.5375 -171.2375 C -184.075 -169.15 -184.065625 -166.29375 -182.5375 -164.16875 Z M -182.5375 -164.16875 " transform="matrix(-1.25,0,0,-1.25,0,0.000000000000028422)"/>
<path style="fill-rule:nonzero;fill:rgb(0%,0%,0%);fill-opacity:1;stroke-width:0.792428;stroke-linecap:butt;stroke-linejoin:miter;stroke:rgb(0%,0%,0%);stroke-opacity:1;stroke-miterlimit:4;" d="M 28.421875 16.0875 C 28.421875 16.8625 27.79375 17.49375 27.015625 17.49375 C 26.2375 17.49375 25.609375 16.8625 25.609375 16.0875 C 25.609375 15.309375 26.2375 14.675 27.015625 14.675 C 27.79375 14.675 28.421875 15.309375 28.421875 16.0875 Z M 28.421875 16.0875 " transform="matrix(1.25,0,0,1.25,0,0.000000000000028422)"/>
<path style="fill-rule:nonzero;fill:rgb(0%,0%,0%);fill-opacity:1;stroke-width:0.792428;stroke-linecap:butt;stroke-linejoin:miter;stroke:rgb(0%,0%,0%);stroke-opacity:1;stroke-miterlimit:4;" d="M 223.5 16.0875 C 223.5 16.8625 222.86875 17.49375 222.090625 17.49375 C 221.3125 17.49375 220.684375 16.8625 220.684375 16.0875 C 220.684375 15.309375 221.3125 14.675 222.090625 14.675 C 222.86875 14.675 223.5 15.309375 223.5 16.0875 Z M 223.5 16.0875 " transform="matrix(1.25,0,0,1.25,0,0.000000000000028422)"/>
<path style="fill-rule:nonzero;fill:rgb(0%,0%,0%);fill-opacity:1;stroke-width:0.792428;stroke-linecap:butt;stroke-linejoin:miter;stroke:rgb(0%,0%,0%);stroke-opacity:1;stroke-miterlimit:4;" d="M 94.734375 16.65625 C 94.734375 17.434375 94.10625 18.0625 93.325 18.0625 C 92.546875 18.0625 91.91875 17.434375 91.91875 16.65625 C 91.91875 15.878125 92.546875 15.246875 93.325 15.246875 C 94.10625 15.246875 94.734375 15.878125 94.734375 16.65625 Z M 94.734375 16.65625 " transform="matrix(1.25,0,0,1.25,0,0.000000000000028422)"/>
<path style="fill-rule:nonzero;fill:rgb(0%,0%,0%);fill-opacity:1;stroke-width:0.792428;stroke-linecap:butt;stroke-linejoin:miter;stroke:rgb(0%,0%,0%);stroke-opacity:1;stroke-miterlimit:4;" d="M 223.475 167.63125 C 223.475 168.409375 222.84375 169.0375 222.065625 169.0375 C 221.2875 169.0375 220.659375 168.409375 220.659375 167.63125 C 220.659375 166.85625 221.2875 166.221875 222.065625 166.221875 C 222.84375 166.221875 223.475 166.85625 223.475 167.63125 Z M 223.475 167.63125 " transform="matrix(1.25,0,0,1.25,0,0.000000000000028422)"/>
<path style="fill-rule:nonzero;fill:rgb(0%,0%,0%);fill-opacity:1;stroke-width:0.792428;stroke-linecap:butt;stroke-linejoin:miter;stroke:rgb(0%,0%,0%);stroke-opacity:1;stroke-miterlimit:4;" d="M 94.7125 167.91875 C 94.7125 168.69375 94.078125 169.325 93.3 169.325 C 92.525 169.325 91.89375 168.69375 91.89375 167.91875 C 91.89375 167.140625 92.525 166.50625 93.3 166.50625 C 94.078125 166.50625 94.7125 167.140625 94.7125 167.91875 Z M 94.7125 167.91875 " transform="matrix(1.25,0,0,1.25,0,0.000000000000028422)"/>
<path style="fill-rule:nonzero;fill:rgb(0%,0%,0%);fill-opacity:1;stroke-width:0.792428;stroke-linecap:butt;stroke-linejoin:miter;stroke:rgb(0%,0%,0%);stroke-opacity:1;stroke-miterlimit:4;" d="M 28.421875 167.203125 C 28.421875 167.98125 27.79375 168.609375 27.015625 168.609375 C 26.2375 168.609375 25.609375 167.98125 25.609375 167.203125 C 25.609375 166.425 26.2375 165.796875 27.015625 165.796875 C 27.79375 165.796875 28.421875 166.425 28.421875 167.203125 Z M 28.421875 167.203125 " transform="matrix(1.25,0,0,1.25,0,0.000000000000028422)"/>
<path style=" stroke:none;fill-rule:nonzero;fill:rgb(80%,80%,80%);fill-opacity:1;" d="M 12.664062 0 L 28.320312 0 L 28.320312 14.453125 L 12.664062 14.453125 L 12.664062 0 Z M 12.664062 0 "/>
<path style=" stroke:none;fill-rule:nonzero;fill:rgb(0%,0%,0%);fill-opacity:1;" d="M 15.703125 12.347656 L 19.492188 2.503906 L 20.878906 2.503906 L 24.921875 12.347656 L 23.4375 12.347656 L 22.285156 9.359375 L 18.164062 9.359375 L 17.089844 12.347656 L 15.703125 12.347656 Z M 18.535156 8.304688 L 21.875 8.304688 L 20.859375 5.570312 C 20.546875 4.75 20.3125 4.074219 20.15625 3.539062 C 20.023438 4.164062 19.847656 4.789062 19.628906 5.414062 L 18.535156 8.304688 Z M 18.535156 8.304688 "/>
<path style=" stroke:none;fill-rule:nonzero;fill:rgb(80%,80%,80%);fill-opacity:1;" d="M 108.808594 0 L 124.460938 0 L 124.460938 14.453125 L 108.808594 14.453125 L 108.808594 0 Z M 108.808594 0 "/>
<path style=" stroke:none;fill-rule:nonzero;fill:rgb(0%,0%,0%);fill-opacity:1;" d="M 112.878906 12.347656 L 112.878906 2.503906 L 116.570312 2.503906 C 117.3125 2.503906 117.910156 2.609375 118.367188 2.816406 C 118.824219 3.011719 119.179688 3.320312 119.441406 3.734375 C 119.703125 4.140625 119.832031 4.570312 119.832031 5.023438 C 119.832031 5.441406 119.714844 5.839844 119.480469 6.214844 C 119.257812 6.582031 118.914062 6.878906 118.445312 7.113281 C 119.042969 7.285156 119.5 7.582031 119.8125 8.011719 C 120.136719 8.429688 120.300781 8.925781 120.300781 9.496094 C 120.300781 9.953125 120.203125 10.382812 120.007812 10.785156 C 119.8125 11.175781 119.570312 11.484375 119.285156 11.703125 C 119 11.914062 118.640625 12.074219 118.210938 12.191406 C 117.78125 12.296875 117.253906 12.347656 116.628906 12.347656 L 112.878906 12.347656 Z M 114.167969 6.644531 L 116.296875 6.644531 C 116.882812 6.644531 117.300781 6.605469 117.546875 6.527344 C 117.871094 6.425781 118.121094 6.261719 118.289062 6.039062 C 118.457031 5.804688 118.542969 5.519531 118.542969 5.179688 C 118.542969 4.855469 118.464844 4.570312 118.308594 4.320312 C 118.152344 4.074219 117.925781 3.90625 117.625 3.8125 C 117.339844 3.722656 116.84375 3.675781 116.140625 3.675781 L 114.167969 3.675781 L 114.167969 6.644531 Z M 114.167969 11.195312 L 116.628906 11.195312 C 117.046875 11.195312 117.339844 11.175781 117.507812 11.136719 C 117.808594 11.085938 118.054688 11 118.25 10.882812 C 118.457031 10.753906 118.628906 10.570312 118.757812 10.335938 C 118.886719 10.089844 118.953125 9.808594 118.953125 9.496094 C 118.953125 9.132812 118.855469 8.8125 118.660156 8.539062 C 118.476562 8.265625 118.21875 8.078125 117.878906 7.972656 C 117.554688 7.855469 117.078125 7.796875 116.453125 7.796875 L 114.167969 7.796875 L 114.167969 11.195312 Z M 114.167969 11.195312 "/>
<path style=" stroke:none;fill-rule:nonzero;fill:rgb(80%,80%,80%);fill-opacity:1;" d="M 10.644531 202.535156 L 26.304688 202.535156 L 26.304688 216.988281 L 10.644531 216.988281 L 10.644531 202.535156 Z M 10.644531 202.535156 "/>
<path style=" stroke:none;fill-rule:nonzero;fill:rgb(0%,0%,0%);fill-opacity:1;" d="M 18.582031 211.015625 L 18.582031 209.863281 L 22.761719 209.863281 L 22.761719 213.515625 C 22.109375 214.023438 21.445312 214.410156 20.769531 214.667969 C 20.09375 214.925781 19.394531 215.058594 18.679688 215.058594 C 17.714844 215.058594 16.835938 214.855469 16.042969 214.433594 C 15.25 214.019531 14.648438 213.417969 14.246094 212.636719 C 13.84375 211.855469 13.640625 210.976562 13.640625 210 C 13.640625 209.054688 13.84375 208.160156 14.246094 207.324219 C 14.648438 206.496094 15.230469 205.875 15.984375 205.46875 C 16.738281 205.070312 17.605469 204.863281 18.582031 204.863281 C 19.285156 204.863281 19.921875 204.980469 20.496094 205.214844 C 21.082031 205.449219 21.539062 205.777344 21.863281 206.191406 C 22.1875 206.597656 22.4375 207.128906 22.605469 207.792969 L 21.433594 208.105469 C 21.289062 207.613281 21.109375 207.222656 20.886719 206.933594 C 20.664062 206.652344 20.347656 206.421875 19.929688 206.25 C 19.527344 206.085938 19.078125 205.996094 18.582031 205.996094 C 17.984375 205.996094 17.46875 206.089844 17.039062 206.269531 C 16.609375 206.441406 16.257812 206.675781 15.984375 206.972656 C 15.722656 207.277344 15.515625 207.597656 15.359375 207.949219 C 15.113281 208.566406 14.988281 209.21875 14.988281 209.921875 C 14.988281 210.8125 15.136719 211.542969 15.4375 212.128906 C 15.75 212.714844 16.191406 213.15625 16.765625 213.4375 C 17.339844 213.726562 17.949219 213.867188 18.601562 213.867188 C 19.160156 213.867188 19.707031 213.765625 20.242188 213.554688 C 20.789062 213.335938 21.199219 213.101562 21.472656 212.851562 L 21.472656 211.015625 L 18.582031 211.015625 Z M 18.582031 211.015625 "/>
<path style=" stroke:none;fill-rule:nonzero;fill:rgb(80%,80%,80%);fill-opacity:1;" d="M 108.589844 216.171875 L 124.25 216.171875 L 124.25 230.625 L 108.589844 230.625 L 108.589844 216.171875 Z M 108.589844 216.171875 "/>
<path style=" stroke:none;fill-rule:nonzero;fill:rgb(0%,0%,0%);fill-opacity:1;" d="M 112.347656 228.519531 L 112.347656 218.675781 L 113.65625 218.675781 L 113.65625 222.71875 L 118.773438 222.71875 L 118.773438 218.675781 L 120.082031 218.675781 L 120.082031 228.519531 L 118.773438 228.519531 L 118.773438 223.871094 L 113.65625 223.871094 L 113.65625 228.519531 L 112.347656 228.519531 Z M 112.347656 228.519531 "/>
<path style=" stroke:none;fill-rule:nonzero;fill:rgb(80%,80%,80%);fill-opacity:1;" d="M 285.054688 203.523438 L 300.707031 203.523438 L 300.707031 217.976562 L 285.054688 217.976562 L 285.054688 203.523438 Z M 285.054688 203.523438 "/>
<path style=" stroke:none;fill-rule:nonzero;fill:rgb(0%,0%,0%);fill-opacity:1;" d="M 288.773438 215.871094 L 288.773438 206.027344 L 292.171875 206.027344 C 292.9375 206.027344 293.523438 206.078125 293.929688 206.164062 C 294.488281 206.296875 294.96875 206.53125 295.375 206.867188 C 295.882812 207.3125 296.265625 207.878906 296.527344 208.566406 C 296.785156 209.246094 296.917969 210.023438 296.917969 210.890625 C 296.917969 211.648438 296.824219 212.3125 296.644531 212.882812 C 296.472656 213.460938 296.253906 213.933594 295.980469 214.308594 C 295.707031 214.691406 295.40625 214.988281 295.082031 215.207031 C 294.753906 215.433594 294.363281 215.597656 293.910156 215.714844 C 293.453125 215.824219 292.925781 215.871094 292.328125 215.871094 L 288.773438 215.871094 Z M 290.082031 214.71875 L 292.191406 214.71875 C 292.828125 214.71875 293.328125 214.660156 293.695312 214.542969 C 294.070312 214.417969 294.371094 214.242188 294.59375 214.015625 C 294.90625 213.703125 295.144531 213.289062 295.316406 212.765625 C 295.484375 212.25 295.570312 211.613281 295.570312 210.871094 C 295.570312 209.847656 295.398438 209.054688 295.0625 208.507812 C 294.722656 207.953125 294.3125 207.582031 293.832031 207.394531 C 293.480469 207.269531 292.917969 207.199219 292.152344 207.199219 L 290.082031 207.199219 L 290.082031 214.71875 Z M 290.082031 214.71875 "/>
<path style=" stroke:none;fill-rule:nonzero;fill:rgb(80%,80%,80%);fill-opacity:1;" d="M 270.609375 0 L 286.265625 0 L 286.265625 14.453125 L 270.609375 14.453125 L 270.609375 0 Z M 270.609375 0 "/>
<path style=" stroke:none;fill-rule:nonzero;fill:rgb(0%,0%,0%);fill-opacity:1;" d="M 281.359375 8.890625 L 282.667969 9.222656 C 282.394531 10.292969 281.898438 11.113281 281.183594 11.683594 C 280.480469 12.246094 279.613281 12.523438 278.585938 12.523438 C 277.519531 12.523438 276.652344 12.308594 275.988281 11.878906 C 275.324219 11.4375 274.816406 10.804688 274.464844 9.984375 C 274.125 9.164062 273.957031 8.285156 273.957031 7.347656 C 273.957031 6.332031 274.152344 5.441406 274.542969 4.671875 C 274.933594 3.90625 275.488281 3.324219 276.203125 2.933594 C 276.933594 2.53125 277.734375 2.328125 278.605469 2.328125 C 279.59375 2.328125 280.421875 2.582031 281.085938 3.089844 C 281.761719 3.585938 282.230469 4.289062 282.492188 5.199219 L 281.203125 5.511719 C 280.980469 4.796875 280.648438 4.277344 280.207031 3.949219 C 279.777344 3.625 279.238281 3.460938 278.585938 3.460938 C 277.816406 3.460938 277.179688 3.644531 276.671875 4.007812 C 276.164062 4.359375 275.804688 4.84375 275.597656 5.453125 C 275.402344 6.066406 275.304688 6.699219 275.304688 7.347656 C 275.304688 8.183594 275.421875 8.910156 275.65625 9.535156 C 275.902344 10.160156 276.28125 10.628906 276.789062 10.941406 C 277.308594 11.253906 277.871094 11.410156 278.46875 11.410156 C 279.199219 11.410156 279.816406 11.203125 280.324219 10.785156 C 280.832031 10.355469 281.175781 9.726562 281.359375 8.890625 Z M 281.359375 8.890625 "/>
<path style="fill-rule:nonzero;fill:rgb(100%,100%,100%);fill-opacity:1;stroke-width:1.043077;stroke-linecap:butt;stroke-linejoin:miter;stroke:rgb(0%,0%,0%);stroke-opacity:1;stroke-miterlimit:4;" d="M 32.5375 -230.68125 L 78.253125 -230.68125 L 78.253125 -214.5875 L 32.5375 -214.5875 L 32.5375 -230.68125 Z M 32.5375 -230.68125 " transform="matrix(0,1.25,-1.25,0,0,0.000000000000028422)"/>
<path style="fill:none;stroke-width:1.2;stroke-linecap:butt;stroke-linejoin:miter;stroke:rgb(0%,0%,0%);stroke-opacity:1;stroke-miterlimit:4;" d="M 240.159375 117.225 C 240.159375 127.184375 232.0875 135.25625 222.128125 135.25625 C 212.171875 135.25625 204.1 127.184375 204.1 117.225 C 204.1 107.26875 212.171875 99.2 222.128125 99.2 C 232.0875 99.2 240.159375 107.26875 240.159375 117.225 Z M 240.159375 117.225 " transform="matrix(1.25,0,0,1.25,0,0.000000000000028422)"/>
<path style="fill:none;stroke-width:0.800778;stroke-linecap:butt;stroke-linejoin:miter;stroke:rgb(0%,0%,0%);stroke-opacity:1;stroke-miterlimit:4;" d="M 26.89375 168.0875 L 26.89375 229.225 L 222.296875 229.225 L 222.296875 166.940625 " transform="matrix(1.25,0,0,1.25,0,0.000000000000028422)"/>
<path style="fill:none;stroke-width:1.2;stroke-linecap:butt;stroke-linejoin:miter;stroke:rgb(0%,0%,0%);stroke-opacity:1;stroke-miterlimit:4;" d="M 95.590625 228.99375 C 95.590625 238.95 87.515625 247.01875 77.559375 247.01875 C 67.6 247.01875 59.528125 238.95 59.528125 228.99375 C 59.528125 219.03125 67.6 210.9625 77.559375 210.9625 C 87.515625 210.9625 95.590625 219.03125 95.590625 228.99375 Z M 95.590625 228.99375 " transform="matrix(1.25,0,0,1.25,0,0.000000000000028422)"/>
<path style="fill-rule:nonzero;fill:rgb(100%,100%,100%);fill-opacity:1;stroke-width:1.043077;stroke-linecap:butt;stroke-linejoin:miter;stroke:rgb(0%,0%,0%);stroke-opacity:1;stroke-miterlimit:4;" d="M -134.059375 -221.6375 L -179.775 -221.6375 L -179.775 -237.73125 L -134.059375 -237.73125 L -134.059375 -221.6375 Z M -134.059375 -221.6375 " transform="matrix(-1.25,0,0,-1.25,0,0.000000000000028422)"/>
<path style="fill:none;stroke-width:0.8;stroke-linecap:butt;stroke-linejoin:miter;stroke:rgb(0%,0%,0%);stroke-opacity:1;stroke-miterlimit:4;" d="M 103.378125 256.06875 L 51.25625 256.06875 " transform="matrix(1.25,0,0,1.25,0,0.000000000000028422)"/>
<path style=" stroke:none;fill-rule:evenodd;fill:rgb(0%,0%,0%);fill-opacity:1;" d="M 74.761719 324.527344 L 62.742188 320.109375 L 74.761719 315.683594 C 72.84375 318.296875 72.851562 321.867188 74.761719 324.527344 Z M 74.761719 324.527344 "/>
<path style="fill:none;stroke-width:0.8;stroke-linecap:butt;stroke-linejoin:miter;stroke:rgb(0%,0%,0%);stroke-opacity:1;stroke-miterlimit:4;" d="M 122.715625 116.7625 L 122.715625 64.640625 " transform="matrix(1.25,0,0,1.25,0,0.000000000000028422)"/>
<path style=" stroke:none;fill-rule:evenodd;fill:rgb(0%,0%,0%);fill-opacity:1;" d="M 148.953125 91.488281 L 153.378906 79.472656 L 157.796875 91.488281 C 155.1875 89.570312 151.617188 89.578125 148.953125 91.488281 Z M 148.953125 91.488281 "/>
<path style="fill:none;stroke-width:0.8;stroke-linecap:butt;stroke-linejoin:miter;stroke:rgb(0%,0%,0%);stroke-opacity:1;stroke-miterlimit:4;" d="M 249.575 92.546875 L 249.575 144.671875 " transform="matrix(1.25,0,0,1.25,0,0.000000000000028422)"/>
<path style=" stroke:none;fill-rule:evenodd;fill:rgb(0%,0%,0%);fill-opacity:1;" d="M 316.402344 170.152344 L 311.984375 182.167969 L 307.5625 170.152344 C 310.171875 172.070312 313.746094 172.0625 316.402344 170.152344 Z M 316.402344 170.152344 "/>
<path style="fill-rule:nonzero;fill:rgb(0%,0%,0%);fill-opacity:1;stroke-width:0.792428;stroke-linecap:butt;stroke-linejoin:miter;stroke:rgb(0%,0%,0%);stroke-opacity:1;stroke-miterlimit:4;" d="M 223.721875 229.190625 C 223.721875 229.96875 223.090625 230.596875 222.3125 230.596875 C 221.534375 230.596875 220.90625 229.96875 220.90625 229.190625 C 220.90625 228.4125 221.534375 227.78125 222.3125 227.78125 C 223.090625 227.78125 223.721875 228.4125 223.721875 229.190625 Z M 223.721875 229.190625 " transform="matrix(1.25,0,0,1.25,0,0.000000000000028422)"/>
<path style="fill-rule:nonzero;fill:rgb(0%,0%,0%);fill-opacity:1;stroke-width:0.792428;stroke-linecap:butt;stroke-linejoin:miter;stroke:rgb(0%,0%,0%);stroke-opacity:1;stroke-miterlimit:4;" d="M 28.29375 228.621875 C 28.29375 229.4 27.6625 230.028125 26.8875 230.028125 C 26.109375 230.028125 25.475 229.4 25.475 228.621875 C 25.475 227.840625 26.109375 227.2125 26.8875 227.2125 C 27.6625 227.2125 28.29375 227.840625 28.29375 228.621875 Z M 28.29375 228.621875 " transform="matrix(1.25,0,0,1.25,0,0.000000000000028422)"/>
<path style=" stroke:none;fill-rule:nonzero;fill:rgb(80%,80%,80%);fill-opacity:1;" d="M 284.546875 282.820312 L 300.203125 282.820312 L 300.203125 297.273438 L 284.546875 297.273438 L 284.546875 282.820312 Z M 284.546875 282.820312 "/>
<path style=" stroke:none;fill-rule:nonzero;fill:rgb(0%,0%,0%);fill-opacity:1;" d="M 288.699219 295.167969 L 288.699219 285.324219 L 295.808594 285.324219 L 295.808594 286.496094 L 289.988281 286.496094 L 289.988281 289.503906 L 295.4375 289.503906 L 295.4375 290.65625 L 289.988281 290.65625 L 289.988281 294.015625 L 296.042969 294.015625 L 296.042969 295.167969 L 288.699219 295.167969 Z M 288.699219 295.167969 "/>
<path style=" stroke:none;fill-rule:nonzero;fill:rgb(80%,80%,80%);fill-opacity:1;" d="M 10.644531 280.820312 L 26.304688 280.820312 L 26.304688 295.273438 L 10.644531 295.273438 L 10.644531 280.820312 Z M 10.644531 280.820312 "/>
<path style=" stroke:none;fill-rule:nonzero;fill:rgb(0%,0%,0%);fill-opacity:1;" d="M 15.238281 293.167969 L 15.238281 283.324219 L 21.878906 283.324219 L 21.878906 284.496094 L 16.527344 284.496094 L 16.527344 287.542969 L 21.15625 287.542969 L 21.15625 288.695312 L 16.527344 288.695312 L 16.527344 293.167969 L 15.238281 293.167969 Z M 15.238281 293.167969 "/>
<path style=" stroke:none;fill-rule:nonzero;fill:rgb(0%,0%,0%);fill-opacity:1;" d="M 93.238281 326.558594 L 93.238281 331.792969 L 96.148438 331.792969 C 96.898438 331.792969 97.40625 331.675781 97.671875 331.441406 C 98.007812 331.144531 98.199219 330.617188 98.238281 329.859375 L 98.589844 329.859375 L 98.589844 334.46875 L 98.238281 334.46875 C 98.144531 333.835938 98.050781 333.425781 97.964844 333.238281 C 97.847656 333.003906 97.652344 332.824219 97.378906 332.691406 C 97.113281 332.566406 96.703125 332.496094 96.148438 332.496094 L 93.238281 332.496094 L 93.238281 336.871094 C 93.238281 337.457031 93.261719 337.820312 93.316406 337.945312 C 93.363281 338.0625 93.457031 338.160156 93.589844 338.238281 C 93.714844 338.316406 93.964844 338.355469 94.332031 338.355469 L 96.578125 338.355469 C 97.328125 338.355469 97.875 338.308594 98.21875 338.199219 C 98.554688 338.097656 98.882812 337.886719 99.195312 337.574219 C 99.59375 337.175781 100.003906 336.570312 100.425781 335.757812 L 100.816406 335.757812 L 99.683594 339.078125 L 89.46875 339.078125 L 89.46875 338.707031 L 89.9375 338.707031 C 90.25 338.707031 90.546875 338.640625 90.835938 338.492188 C 91.039062 338.390625 91.175781 338.234375 91.246094 338.023438 C 91.324219 337.820312 91.363281 337.390625 91.363281 336.734375 L 91.363281 328.140625 C 91.363281 327.296875 91.273438 326.773438 91.109375 326.578125 C 90.875 326.320312 90.484375 326.1875 89.9375 326.1875 L 89.46875 326.1875 L 89.46875 325.835938 L 99.683594 325.835938 L 99.820312 328.726562 L 99.449219 328.726562 C 99.300781 328.039062 99.144531 327.566406 98.980469 327.300781 C 98.824219 327.042969 98.578125 326.84375 98.257812 326.695312 C 97.992188 326.609375 97.535156 326.558594 96.871094 326.558594 L 93.238281 326.558594 Z M 93.238281 326.558594 "/>
<path style=" stroke:none;fill-rule:nonzero;fill:rgb(0%,0%,0%);fill-opacity:1;" d="M 101.929688 336.378906 C 102.164062 335.824219 102.457031 335.394531 102.808594 335.089844 C 103.167969 334.777344 103.617188 334.621094 104.15625 334.621094 C 104.820312 334.621094 105.328125 334.847656 105.679688 335.285156 C 105.953125 335.597656 106.089844 335.941406 106.089844 336.300781 C 106.089844 336.917969 105.707031 337.542969 104.957031 338.175781 C 105.464844 338.371094 105.84375 338.660156 106.109375 339.035156 C 106.367188 339.402344 106.5 339.835938 106.5 340.34375 C 106.5 341.0625 106.269531 341.683594 105.816406 342.199219 C 105.214844 342.894531 104.355469 343.234375 103.238281 343.234375 C 102.675781 343.234375 102.289062 343.164062 102.085938 343.019531 C 101.890625 342.878906 101.792969 342.726562 101.792969 342.570312 C 101.792969 342.453125 101.835938 342.351562 101.929688 342.257812 C 102.03125 342.171875 102.148438 342.121094 102.28125 342.121094 C 102.382812 342.121094 102.484375 342.140625 102.59375 342.179688 C 102.65625 342.195312 102.8125 342.269531 103.0625 342.394531 C 103.304688 342.527344 103.476562 342.605469 103.570312 342.628906 C 103.710938 342.667969 103.871094 342.6875 104.058594 342.6875 C 104.457031 342.6875 104.820312 342.53125 105.132812 342.21875 C 105.445312 341.898438 105.601562 341.511719 105.601562 341.066406 C 105.601562 340.746094 105.527344 340.433594 105.386719 340.128906 C 105.277344 339.910156 105.160156 339.734375 105.035156 339.601562 C 104.847656 339.445312 104.609375 339.304688 104.3125 339.171875 C 104.007812 339.046875 103.695312 338.976562 103.375 338.976562 L 103.179688 338.976562 L 103.179688 338.78125 C 103.5 338.742188 103.828125 338.636719 104.15625 338.449219 C 104.476562 338.253906 104.710938 338.03125 104.859375 337.765625 C 105 337.492188 105.074219 337.195312 105.074219 336.867188 C 105.074219 336.453125 104.941406 336.117188 104.683594 335.851562 C 104.417969 335.59375 104.097656 335.460938 103.707031 335.460938 C 103.066406 335.460938 102.539062 335.804688 102.125 336.476562 L 101.929688 336.378906 Z M 101.929688 336.378906 "/>
<path style=" stroke:none;fill-rule:nonzero;fill:rgb(0%,0%,0%);fill-opacity:1;" d="M 314.199219 74.417969 L 310.664062 74.417969 L 306.191406 68.226562 C 305.851562 68.242188 305.578125 68.246094 305.371094 68.246094 C 305.292969 68.246094 305.199219 68.246094 305.097656 68.246094 C 305.003906 68.238281 304.90625 68.226562 304.804688 68.226562 L 304.804688 72.074219 C 304.804688 72.910156 304.894531 73.421875 305.078125 73.617188 C 305.324219 73.90625 305.695312 74.046875 306.191406 74.046875 L 306.699219 74.046875 L 306.699219 74.417969 L 301.035156 74.417969 L 301.035156 74.046875 L 301.523438 74.046875 C 302.082031 74.046875 302.484375 73.867188 302.734375 73.5 C 302.863281 73.304688 302.929688 72.832031 302.929688 72.074219 L 302.929688 63.519531 C 302.929688 62.691406 302.835938 62.167969 302.65625 61.957031 C 302.40625 61.675781 302.03125 61.527344 301.523438 61.527344 L 301.035156 61.527344 L 301.035156 61.175781 L 305.859375 61.175781 C 307.265625 61.175781 308.300781 61.285156 308.964844 61.488281 C 309.628906 61.683594 310.195312 62.066406 310.664062 62.621094 C 311.132812 63.167969 311.367188 63.824219 311.367188 64.574219 C 311.367188 65.394531 311.097656 66.109375 310.566406 66.703125 C 310.03125 67.304688 309.210938 67.730469 308.105469 67.972656 L 310.839844 71.761719 C 311.464844 72.636719 311.996094 73.21875 312.441406 73.5 C 312.894531 73.789062 313.480469 73.96875 314.199219 74.046875 L 314.199219 74.417969 Z M 304.804688 67.601562 C 304.921875 67.601562 305.023438 67.613281 305.117188 67.621094 C 305.207031 67.621094 305.285156 67.621094 305.351562 67.621094 C 306.613281 67.621094 307.5625 67.347656 308.203125 66.800781 C 308.839844 66.253906 309.160156 65.5625 309.160156 64.710938 C 309.160156 63.882812 308.898438 63.207031 308.378906 62.699219 C 307.871094 62.183594 307.1875 61.917969 306.328125 61.917969 C 305.949219 61.917969 305.441406 61.976562 304.804688 62.09375 L 304.804688 67.601562 Z M 304.804688 67.601562 "/>
<path style=" stroke:none;fill-rule:nonzero;fill:rgb(0%,0%,0%);fill-opacity:1;" d="M 319.765625 76.816406 L 319.199219 78.417969 L 314.316406 78.417969 L 314.316406 78.183594 C 315.746094 76.886719 316.757812 75.816406 317.34375 74.980469 C 317.929688 74.152344 318.222656 73.390625 318.222656 72.695312 C 318.222656 72.179688 318.058594 71.75 317.734375 71.40625 C 317.421875 71.070312 317.035156 70.898438 316.582031 70.898438 C 316.175781 70.898438 315.8125 71.027344 315.488281 71.269531 C 315.160156 71.503906 314.925781 71.851562 314.785156 72.304688 L 314.550781 72.304688 C 314.652344 71.554688 314.914062 70.972656 315.332031 70.566406 C 315.746094 70.167969 316.273438 69.960938 316.914062 69.960938 C 317.578125 69.960938 318.136719 70.1875 318.59375 70.625 C 319.046875 71.054688 319.277344 71.5625 319.277344 72.148438 C 319.277344 72.570312 319.179688 72.984375 318.984375 73.398438 C 318.671875 74.0625 318.183594 74.761719 317.519531 75.488281 C 316.503906 76.597656 315.863281 77.265625 315.605469 77.5 L 317.773438 77.5 C 318.214844 77.5 318.519531 77.492188 318.691406 77.460938 C 318.871094 77.421875 319.035156 77.355469 319.179688 77.246094 C 319.320312 77.144531 319.445312 77.003906 319.550781 76.816406 L 319.765625 76.816406 Z M 319.765625 76.816406 "/>
<path style=" stroke:none;fill-rule:nonzero;fill:rgb(0%,0%,0%);fill-opacity:1;" d="M 201.0625 315.847656 L 197.527344 315.847656 L 193.054688 309.65625 C 192.710938 309.667969 192.4375 309.675781 192.234375 309.675781 C 192.15625 309.675781 192.0625 309.675781 191.960938 309.675781 C 191.867188 309.664062 191.769531 309.65625 191.667969 309.65625 L 191.667969 313.503906 C 191.667969 314.335938 191.753906 314.851562 191.941406 315.046875 C 192.183594 315.332031 192.554688 315.476562 193.054688 315.476562 L 193.5625 315.476562 L 193.5625 315.847656 L 187.898438 315.847656 L 187.898438 315.476562 L 188.386719 315.476562 C 188.941406 315.476562 189.347656 315.292969 189.597656 314.929688 C 189.722656 314.734375 189.792969 314.257812 189.792969 313.503906 L 189.792969 304.949219 C 189.792969 304.117188 189.699219 303.59375 189.519531 303.386719 C 189.269531 303.101562 188.894531 302.957031 188.386719 302.957031 L 187.898438 302.957031 L 187.898438 302.605469 L 192.722656 302.605469 C 194.128906 302.605469 195.164062 302.710938 195.828125 302.917969 C 196.492188 303.113281 197.058594 303.492188 197.527344 304.050781 C 197.996094 304.597656 198.230469 305.25 198.230469 306.003906 C 198.230469 306.824219 197.960938 307.535156 197.429688 308.132812 C 196.890625 308.730469 196.070312 309.15625 194.96875 309.402344 L 197.703125 313.191406 C 198.328125 314.0625 198.859375 314.644531 199.304688 314.929688 C 199.757812 315.214844 200.34375 315.398438 201.0625 315.476562 L 201.0625 315.847656 Z M 191.667969 309.03125 C 191.785156 309.03125 191.886719 309.039062 191.980469 309.050781 C 192.066406 309.050781 192.144531 309.050781 192.214844 309.050781 C 193.472656 309.050781 194.425781 308.777344 195.066406 308.230469 C 195.699219 307.683594 196.023438 306.988281 196.023438 306.140625 C 196.023438 305.308594 195.757812 304.636719 195.242188 304.128906 C 194.734375 303.609375 194.050781 303.347656 193.191406 303.347656 C 192.808594 303.347656 192.300781 303.40625 191.667969 303.523438 L 191.667969 309.03125 Z M 191.667969 309.03125 "/>
<path style=" stroke:none;fill-rule:nonzero;fill:rgb(0%,0%,0%);fill-opacity:1;" d="M 201.550781 313.148438 C 201.785156 312.589844 202.078125 312.160156 202.429688 311.859375 C 202.789062 311.546875 203.238281 311.390625 203.777344 311.390625 C 204.441406 311.390625 204.949219 311.613281 205.300781 312.054688 C 205.574219 312.367188 205.710938 312.707031 205.710938 313.070312 C 205.710938 313.683594 205.328125 314.308594 204.578125 314.945312 C 205.085938 315.140625 205.464844 315.425781 205.730469 315.804688 C 205.988281 316.167969 206.121094 316.605469 206.121094 317.113281 C 206.121094 317.828125 205.890625 318.449219 205.4375 318.96875 C 204.835938 319.660156 203.976562 320.003906 202.859375 320.003906 C 202.296875 320.003906 201.910156 319.929688 201.707031 319.789062 C 201.511719 319.644531 201.414062 319.496094 201.414062 319.339844 C 201.414062 319.222656 201.457031 319.117188 201.550781 319.027344 C 201.652344 318.9375 201.769531 318.890625 201.902344 318.890625 C 202.003906 318.890625 202.105469 318.910156 202.214844 318.949219 C 202.277344 318.960938 202.433594 319.035156 202.683594 319.164062 C 202.925781 319.292969 203.097656 319.371094 203.191406 319.398438 C 203.332031 319.4375 203.492188 319.457031 203.679688 319.457031 C 204.078125 319.457031 204.441406 319.300781 204.753906 318.988281 C 205.066406 318.664062 205.222656 318.277344 205.222656 317.835938 C 205.222656 317.511719 205.148438 317.199219 205.007812 316.898438 C 204.898438 316.675781 204.78125 316.5 204.65625 316.371094 C 204.46875 316.214844 204.230469 316.070312 203.933594 315.941406 C 203.628906 315.8125 203.316406 315.746094 202.996094 315.746094 L 202.800781 315.746094 L 202.800781 315.550781 C 203.121094 315.511719 203.449219 315.402344 203.777344 315.21875 C 204.097656 315.023438 204.332031 314.796875 204.480469 314.535156 C 204.621094 314.261719 204.695312 313.960938 204.695312 313.636719 C 204.695312 313.21875 204.5625 312.882812 204.304688 312.621094 C 204.039062 312.359375 203.71875 312.230469 203.328125 312.230469 C 202.6875 312.230469 202.160156 312.570312 201.746094 313.246094 L 201.550781 313.148438 Z M 201.550781 313.148438 "/>
<path style=" stroke:none;fill-rule:nonzero;fill:rgb(0%,0%,0%);fill-opacity:1;" d="M 166.949219 117.988281 L 166.949219 118.359375 L 161.285156 118.359375 L 161.285156 117.988281 L 161.753906 117.988281 C 162.300781 117.988281 162.695312 117.832031 162.945312 117.519531 C 163.101562 117.316406 163.179688 116.8125 163.179688 116.015625 L 163.179688 107.460938 C 163.179688 106.789062 163.132812 106.34375 163.042969 106.132812 C 162.976562 105.96875 162.847656 105.820312 162.652344 105.703125 C 162.363281 105.546875 162.066406 105.46875 161.753906 105.46875 L 161.285156 105.46875 L 161.285156 105.117188 L 166.949219 105.117188 L 166.949219 105.46875 L 166.480469 105.46875 C 165.933594 105.46875 165.535156 105.636719 165.289062 105.957031 C 165.132812 106.167969 165.054688 106.671875 165.054688 107.460938 L 165.054688 116.015625 C 165.054688 116.679688 165.09375 117.125 165.171875 117.34375 C 165.234375 117.5 165.371094 117.636719 165.582031 117.753906 C 165.867188 117.910156 166.167969 117.988281 166.480469 117.988281 L 166.949219 117.988281 Z M 166.949219 117.988281 "/>
<path style=" stroke:none;fill-rule:nonzero;fill:rgb(0%,0%,0%);fill-opacity:1;" d="M 168.921875 114.898438 L 170.933594 113.902344 L 171.128906 113.902344 L 171.128906 120.894531 C 171.128906 121.363281 171.148438 121.65625 171.1875 121.773438 C 171.226562 121.882812 171.304688 121.964844 171.421875 122.027344 C 171.550781 122.097656 171.804688 122.125 172.183594 122.125 L 172.183594 122.359375 L 169.078125 122.359375 L 169.078125 122.125 C 169.46875 122.125 169.714844 122.101562 169.820312 122.046875 C 169.9375 121.984375 170.015625 121.902344 170.054688 121.792969 C 170.105469 121.691406 170.132812 121.394531 170.132812 120.894531 L 170.132812 116.441406 C 170.132812 115.832031 170.113281 115.441406 170.074219 115.269531 C 170.046875 115.144531 169.996094 115.050781 169.917969 114.996094 C 169.839844 114.933594 169.746094 114.898438 169.644531 114.898438 C 169.488281 114.898438 169.277344 114.957031 169.019531 115.074219 L 168.921875 114.898438 Z M 168.921875 114.898438 "/>
<path style=" stroke:none;fill-rule:nonzero;fill:rgb(0%,0%,0%);fill-opacity:1;" d="M 13.171875 116.847656 L 9.636719 116.847656 L 5.164062 110.65625 C 4.824219 110.667969 4.550781 110.675781 4.34375 110.675781 C 4.265625 110.675781 4.175781 110.675781 4.070312 110.675781 C 3.980469 110.664062 3.882812 110.65625 3.777344 110.65625 L 3.777344 114.503906 C 3.777344 115.335938 3.867188 115.851562 4.050781 116.046875 C 4.296875 116.332031 4.667969 116.476562 5.164062 116.476562 L 5.671875 116.476562 L 5.671875 116.847656 L 0.0078125 116.847656 L 0.0078125 116.476562 L 0.496094 116.476562 C 1.054688 116.476562 1.460938 116.292969 1.707031 115.929688 C 1.835938 115.734375 1.902344 115.257812 1.902344 114.503906 L 1.902344 105.949219 C 1.902344 105.117188 1.8125 104.59375 1.628906 104.386719 C 1.382812 104.101562 1.003906 103.957031 0.496094 103.957031 L 0.0078125 103.957031 L 0.0078125 103.605469 L 4.832031 103.605469 C 6.238281 103.605469 7.273438 103.710938 7.9375 103.917969 C 8.601562 104.113281 9.167969 104.492188 9.636719 105.050781 C 10.105469 105.597656 10.339844 106.25 10.339844 107.003906 C 10.339844 107.824219 10.074219 108.535156 9.539062 109.132812 C 9.003906 109.730469 8.183594 110.15625 7.078125 110.402344 L 9.8125 114.191406 C 10.4375 115.0625 10.972656 115.644531 11.414062 115.929688 C 11.871094 116.214844 12.457031 116.398438 13.171875 116.476562 L 13.171875 116.847656 Z M 3.777344 110.03125 C 3.894531 110.03125 4 110.039062 4.089844 110.050781 C 4.179688 110.050781 4.257812 110.050781 4.324219 110.050781 C 5.585938 110.050781 6.539062 109.777344 7.175781 109.230469 C 7.8125 108.683594 8.132812 107.988281 8.132812 107.140625 C 8.132812 106.308594 7.871094 105.636719 7.351562 105.128906 C 6.84375 104.609375 6.160156 104.347656 5.300781 104.347656 C 4.921875 104.347656 4.414062 104.40625 3.777344 104.523438 L 3.777344 110.03125 Z M 3.777344 110.03125 "/>
<path style=" stroke:none;fill-rule:nonzero;fill:rgb(0%,0%,0%);fill-opacity:1;" d="M 14.484375 113.386719 L 16.496094 112.390625 L 16.691406 112.390625 L 16.691406 119.382812 C 16.691406 119.851562 16.710938 120.144531 16.75 120.261719 C 16.789062 120.367188 16.867188 120.449219 16.984375 120.515625 C 17.109375 120.582031 17.363281 120.613281 17.746094 120.613281 L 17.746094 120.847656 L 14.640625 120.847656 L 14.640625 120.613281 C 15.03125 120.613281 15.273438 120.585938 15.382812 120.535156 C 15.5 120.46875 15.578125 120.386719 15.617188 120.28125 C 15.664062 120.175781 15.695312 119.878906 15.695312 119.382812 L 15.695312 114.929688 C 15.695312 114.316406 15.675781 113.925781 15.636719 113.757812 C 15.605469 113.628906 15.558594 113.535156 15.480469 113.484375 C 15.402344 113.417969 15.308594 113.386719 15.207031 113.386719 C 15.050781 113.386719 14.839844 113.445312 14.582031 113.5625 L 14.484375 113.386719 Z M 14.484375 113.386719 "/>
<path style=" stroke:none;fill-rule:nonzero;fill:rgb(0%,0%,0%);fill-opacity:1;" d="M 323.550781 138.671875 L 323.550781 143.90625 L 326.460938 143.90625 C 327.214844 143.90625 327.722656 143.789062 327.984375 143.554688 C 328.320312 143.257812 328.511719 142.730469 328.550781 141.972656 L 328.902344 141.972656 L 328.902344 146.582031 L 328.550781 146.582031 C 328.457031 145.945312 328.367188 145.535156 328.277344 145.351562 C 328.160156 145.117188 327.964844 144.9375 327.691406 144.804688 C 327.429688 144.675781 327.019531 144.609375 326.460938 144.609375 L 323.550781 144.609375 L 323.550781 148.984375 C 323.550781 149.570312 323.574219 149.929688 323.628906 150.058594 C 323.679688 150.175781 323.769531 150.273438 323.902344 150.351562 C 324.03125 150.429688 324.277344 150.46875 324.644531 150.46875 L 326.890625 150.46875 C 327.644531 150.46875 328.191406 150.417969 328.53125 150.3125 C 328.867188 150.210938 329.195312 150 329.507812 149.6875 C 329.910156 149.285156 330.320312 148.679688 330.738281 147.871094 L 331.128906 147.871094 L 329.996094 151.191406 L 319.78125 151.191406 L 319.78125 150.820312 L 320.25 150.820312 C 320.5625 150.820312 320.859375 150.75 321.148438 150.605469 C 321.355469 150.503906 321.492188 150.347656 321.558594 150.136719 C 321.636719 149.929688 321.675781 149.5 321.675781 148.847656 L 321.675781 140.253906 C 321.675781 139.410156 321.589844 138.886719 321.421875 138.691406 C 321.1875 138.433594 320.796875 138.300781 320.25 138.300781 L 319.78125 138.300781 L 319.78125 137.949219 L 329.996094 137.949219 L 330.132812 140.839844 L 329.761719 140.839844 C 329.617188 140.152344 329.460938 139.675781 329.292969 139.414062 C 329.136719 139.15625 328.894531 138.953125 328.570312 138.808594 C 328.308594 138.71875 327.847656 138.671875 327.183594 138.671875 L 323.550781 138.671875 Z M 323.550781 138.671875 "/>
<path style=" stroke:none;fill-rule:nonzero;fill:rgb(0%,0%,0%);fill-opacity:1;" d="M 337.320312 153.589844 L 336.753906 155.191406 L 331.871094 155.191406 L 331.871094 154.957031 C 333.300781 153.65625 334.3125 152.589844 334.898438 151.753906 C 335.484375 150.921875 335.777344 150.160156 335.777344 149.46875 C 335.777344 148.949219 335.613281 148.519531 335.289062 148.179688 C 334.976562 147.84375 334.589844 147.671875 334.136719 147.671875 C 333.730469 147.671875 333.367188 147.796875 333.042969 148.042969 C 332.714844 148.277344 332.480469 148.625 332.339844 149.078125 L 332.105469 149.078125 C 332.207031 148.324219 332.46875 147.746094 332.886719 147.339844 C 333.300781 146.9375 333.828125 146.734375 334.46875 146.734375 C 335.132812 146.734375 335.691406 146.957031 336.148438 147.398438 C 336.601562 147.828125 336.832031 148.335938 336.832031 148.921875 C 336.832031 149.339844 336.734375 149.757812 336.539062 150.171875 C 336.226562 150.835938 335.738281 151.535156 335.074219 152.261719 C 334.058594 153.371094 333.417969 154.039062 333.160156 154.273438 L 335.328125 154.273438 C 335.769531 154.273438 336.074219 154.261719 336.246094 154.234375 C 336.425781 154.195312 336.589844 154.125 336.734375 154.019531 C 336.875 153.917969 337 153.773438 337.105469 153.589844 L 337.320312 153.589844 Z M 337.320312 153.589844 "/>
<path style=" stroke:none;fill-rule:nonzero;fill:rgb(0%,0%,0%);fill-opacity:1;" d="M 178.332031 237.558594 L 174.796875 237.558594 L 170.324219 231.367188 C 169.984375 231.382812 169.710938 231.386719 169.503906 231.386719 C 169.425781 231.386719 169.335938 231.386719 169.230469 231.386719 C 169.140625 231.378906 169.042969 231.367188 168.9375 231.367188 L 168.9375 235.214844 C 168.9375 236.050781 169.027344 236.5625 169.210938 236.757812 C 169.457031 237.046875 169.828125 237.1875 170.324219 237.1875 L 170.832031 237.1875 L 170.832031 237.558594 L 165.167969 237.558594 L 165.167969 237.1875 L 165.65625 237.1875 C 166.214844 237.1875 166.621094 237.007812 166.867188 236.640625 C 166.996094 236.445312 167.0625 235.972656 167.0625 235.214844 L 167.0625 226.660156 C 167.0625 225.832031 166.972656 225.308594 166.789062 225.097656 C 166.542969 224.816406 166.164062 224.667969 165.65625 224.667969 L 165.167969 224.667969 L 165.167969 224.316406 L 169.992188 224.316406 C 171.398438 224.316406 172.433594 224.425781 173.097656 224.628906 C 173.761719 224.824219 174.328125 225.207031 174.796875 225.761719 C 175.265625 226.308594 175.5 226.964844 175.5 227.714844 C 175.5 228.535156 175.234375 229.25 174.699219 229.84375 C 174.164062 230.445312 173.34375 230.871094 172.238281 231.113281 L 174.972656 234.902344 C 175.597656 235.777344 176.132812 236.359375 176.574219 236.640625 C 177.03125 236.929688 177.617188 237.109375 178.332031 237.1875 L 178.332031 237.558594 Z M 168.9375 230.742188 C 169.054688 230.742188 169.160156 230.753906 169.25 230.761719 C 169.339844 230.761719 169.417969 230.761719 169.484375 230.761719 C 170.746094 230.761719 171.699219 230.488281 172.335938 229.941406 C 172.972656 229.394531 173.292969 228.703125 173.292969 227.851562 C 173.292969 227.023438 173.03125 226.347656 172.511719 225.839844 C 172.003906 225.324219 171.320312 225.058594 170.460938 225.058594 C 170.082031 225.058594 169.574219 225.117188 168.9375 225.234375 L 168.9375 230.742188 Z M 168.9375 230.742188 "/>
<path style=" stroke:none;fill-rule:nonzero;fill:rgb(0%,0%,0%);fill-opacity:1;" d="M 235.519531 233.703125 L 235.519531 234.074219 L 229.855469 234.074219 L 229.855469 233.703125 L 230.324219 233.703125 C 230.871094 233.703125 231.269531 233.546875 231.515625 233.234375 C 231.671875 233.03125 231.75 232.527344 231.75 231.730469 L 231.75 223.175781 C 231.75 222.503906 231.703125 222.058594 231.613281 221.847656 C 231.546875 221.683594 231.417969 221.535156 231.222656 221.417969 C 230.9375 221.261719 230.636719 221.183594 230.324219 221.183594 L 229.855469 221.183594 L 229.855469 220.832031 L 235.519531 220.832031 L 235.519531 221.183594 L 235.050781 221.183594 C 234.503906 221.183594 234.105469 221.351562 233.859375 221.671875 C 233.703125 221.882812 233.625 222.386719 233.625 223.175781 L 233.625 231.730469 C 233.625 232.394531 233.664062 232.839844 233.742188 233.058594 C 233.808594 233.214844 233.945312 233.351562 234.152344 233.46875 C 234.4375 233.625 234.738281 233.703125 235.050781 233.703125 L 235.519531 233.703125 Z M 235.519531 233.703125 "/>
</g>
</svg>
