<?xml version="1.0" encoding="UTF-8"?>
<!-- Converted by misc2svg (http://www.network-science.de/tools/misc2svg/) -->
<svg xmlns="http://www.w3.org/2000/svg" xmlns:xlink="http://www.w3.org/1999/xlink" width="211pt" height="84pt" viewBox="0 0 211 84" version="1.1">
<g id="misc2svg">
<path style="fill:none;stroke-width:0.79701;stroke-linecap:butt;stroke-linejoin:miter;stroke:rgb(0%,0%,0%);stroke-opacity:1;stroke-miterlimit:10;" d="M 42.5225 -0.002 L 42.5225 56.694875 L 127.56 56.694875 L 127.56 -0.002 L 42.5225 -0.002 Z M 42.5225 -0.002 " transform="matrix(1.25,0,0,-1.25,-2.66875,77.59125)"/>
<path style="fill:none;stroke-width:0.79701;stroke-linecap:butt;stroke-linejoin:miter;stroke:rgb(0%,0%,0%);stroke-opacity:1;stroke-miterlimit:10;" d="M 14.1725 28.348 L 155.906875 28.348 " transform="matrix(1.25,0,0,-1.25,-2.66875,77.59125)"/>
<path style=" stroke:none;fill-rule:nonzero;fill:rgb(0%,0%,0%);fill-opacity:1;" d="M 17.460938 41.800781 C 17.460938 40.472656 16.347656 39.398438 15.058594 39.398438 C 13.691406 39.398438 12.636719 40.511719 12.636719 41.800781 C 12.636719 43.148438 13.730469 44.222656 15.039062 44.222656 C 16.386719 44.222656 17.460938 43.109375 17.460938 41.800781 Z M 17.460938 41.800781 "/>
<path style=" stroke:none;fill-rule:nonzero;fill:rgb(0%,0%,0%);fill-opacity:1;" d="M 19.304688 55.386719 L 19.304688 54.996094 L 19.089844 54.996094 C 18.347656 54.996094 18.171875 54.917969 18.035156 54.507812 L 15.339844 46.714844 C 15.28125 46.558594 15.242188 46.460938 15.046875 46.460938 C 14.851562 46.460938 14.8125 46.539062 14.753906 46.714844 L 12.175781 54.15625 C 11.941406 54.800781 11.453125 54.996094 10.769531 54.996094 L 10.769531 55.386719 L 12.039062 55.347656 L 13.484375 55.386719 L 13.484375 54.996094 C 12.859375 54.996094 12.546875 54.683594 12.546875 54.371094 C 12.546875 54.332031 12.566406 54.195312 12.566406 54.175781 L 13.152344 52.554688 L 16.21875 52.554688 L 16.882812 54.449219 C 16.902344 54.507812 16.921875 54.585938 16.921875 54.625 C 16.921875 54.996094 16.21875 54.996094 15.886719 54.996094 L 15.886719 55.386719 C 16.335938 55.347656 17.214844 55.347656 17.683594 55.347656 L 19.304688 55.386719 Z M 16.082031 52.164062 L 13.289062 52.164062 L 14.675781 48.101562 L 16.082031 52.164062 Z M 16.082031 52.164062 "/>
<path style=" stroke:none;fill-rule:nonzero;fill:rgb(0%,0%,0%);fill-opacity:1;" d="M 194.625 41.800781 C 194.625 40.472656 193.511719 39.398438 192.222656 39.398438 C 190.855469 39.398438 189.800781 40.511719 189.800781 41.800781 C 189.800781 43.148438 190.894531 44.222656 192.203125 44.222656 C 193.550781 44.222656 194.625 43.109375 194.625 41.800781 Z M 194.625 41.800781 "/>
<path style=" stroke:none;fill-rule:nonzero;fill:rgb(0%,0%,0%);fill-opacity:1;" d="M 195.90625 53.101562 C 195.90625 52.027344 194.890625 51.089844 193.503906 50.933594 C 194.714844 50.699219 195.574219 49.898438 195.574219 48.980469 C 195.574219 47.90625 194.421875 46.871094 192.800781 46.871094 L 188.25 46.871094 L 188.25 47.261719 L 188.542969 47.261719 C 189.5 47.261719 189.539062 47.398438 189.539062 47.847656 L 189.539062 54.410156 C 189.539062 54.859375 189.5 54.996094 188.542969 54.996094 L 188.25 54.996094 L 188.25 55.386719 L 193.132812 55.386719 C 194.792969 55.386719 195.90625 54.273438 195.90625 53.101562 Z M 194.363281 48.980469 C 194.363281 49.78125 193.757812 50.816406 192.371094 50.816406 L 190.574219 50.816406 L 190.574219 47.769531 C 190.574219 47.339844 190.59375 47.261719 191.179688 47.261719 L 192.722656 47.261719 C 193.933594 47.261719 194.363281 48.316406 194.363281 48.980469 Z M 194.675781 53.101562 C 194.675781 53.980469 194.011719 54.996094 192.742188 54.996094 L 191.179688 54.996094 C 190.59375 54.996094 190.574219 54.917969 190.574219 54.507812 L 190.574219 51.109375 L 192.917969 51.109375 C 194.148438 51.109375 194.675781 52.261719 194.675781 53.101562 Z M 194.675781 53.101562 "/>
<path style="fill:none;stroke-width:0.3985;stroke-linecap:butt;stroke-linejoin:miter;stroke:rgb(100%,0%,0%);stroke-opacity:1;stroke-miterlimit:10;" d="M 124.725625 7.088625 C 124.725625 9.4355 122.8225 11.338625 120.475625 11.338625 C 118.12875 11.338625 116.2225 9.4355 116.2225 7.088625 C 116.2225 4.738625 118.12875 2.8355 120.475625 2.8355 C 122.8225 2.8355 124.725625 4.738625 124.725625 7.088625 Z M 124.725625 7.088625 " transform="matrix(1.25,0,0,-1.25,-2.66875,77.59125)"/>
<path style=" stroke:none;fill-rule:nonzero;fill:rgb(100%,0%,0%);fill-opacity:1;" d="M 131.152344 65.355469 C 131.152344 65.121094 130.9375 65.121094 130.800781 65.121094 L 125.078125 65.121094 C 124.941406 65.121094 124.707031 65.121094 124.707031 65.355469 C 124.707031 65.570312 124.941406 65.570312 125.078125 65.570312 L 130.800781 65.570312 C 130.9375 65.570312 131.152344 65.570312 131.152344 65.355469 Z M 131.152344 65.355469 "/>
<path style=" stroke:none;fill-rule:nonzero;fill:rgb(100%,0%,0%);fill-opacity:1;" d="M 133.8125 65.355469 C 133.8125 65.277344 133.753906 65.21875 133.695312 65.21875 C 132.582031 64.886719 131.761719 63.96875 131.546875 62.816406 C 131.527344 62.757812 131.46875 62.71875 131.410156 62.71875 L 131.234375 62.71875 C 131.15625 62.71875 131.097656 62.777344 131.097656 62.894531 C 131.253906 63.792969 131.78125 64.59375 132.542969 65.121094 L 124.632812 65.121094 C 124.496094 65.121094 124.417969 65.238281 124.417969 65.355469 C 124.417969 65.453125 124.496094 65.570312 124.632812 65.570312 L 132.542969 65.570312 C 131.78125 66.097656 131.253906 66.898438 131.097656 67.796875 C 131.097656 67.914062 131.15625 67.972656 131.234375 67.972656 L 131.410156 67.972656 C 131.46875 67.972656 131.527344 67.933594 131.546875 67.875 C 131.761719 66.722656 132.582031 65.804688 133.695312 65.472656 C 133.753906 65.472656 133.8125 65.414062 133.8125 65.355469 Z M 133.8125 65.355469 "/>
<path style=" stroke:none;fill-rule:nonzero;fill:rgb(100%,0%,0%);fill-opacity:1;" d="M 132.265625 71.269531 C 132.265625 70.546875 131.640625 69.960938 130.644531 69.84375 C 131.796875 69.628906 132.792969 68.867188 132.792969 67.988281 C 132.792969 67.246094 132.070312 66.601562 130.820312 66.601562 L 127.34375 66.601562 C 127.167969 66.601562 127.03125 66.601562 127.03125 66.777344 C 127.03125 66.933594 127.148438 66.933594 127.324219 66.933594 C 127.65625 66.933594 127.949219 66.933594 127.949219 67.089844 C 127.949219 67.128906 127.929688 67.128906 127.910156 67.265625 L 126.5625 72.617188 C 126.484375 72.988281 126.464844 73.066406 125.722656 73.066406 C 125.527344 73.066406 125.410156 73.066406 125.410156 73.261719 C 125.410156 73.398438 125.546875 73.398438 125.703125 73.398438 L 129.414062 73.398438 C 131.054688 73.398438 132.265625 72.226562 132.265625 71.269531 Z M 131.875 67.96875 C 131.875 68.808594 130.957031 69.726562 129.6875 69.726562 L 128.125 69.726562 L 128.730469 67.285156 C 128.808594 66.953125 128.828125 66.933594 129.238281 66.933594 L 130.664062 66.933594 C 131.640625 66.933594 131.875 67.558594 131.875 67.96875 Z M 131.308594 71.191406 C 131.308594 72.167969 130.351562 73.066406 129.160156 73.066406 L 127.441406 73.066406 C 127.34375 73.046875 127.304688 73.046875 127.304688 72.988281 C 127.304688 72.910156 127.324219 72.8125 127.34375 72.753906 L 128.046875 70 L 130.078125 70 C 130.996094 70 131.308594 70.625 131.308594 71.191406 Z M 131.308594 71.191406 "/>
<path style="fill-rule:nonzero;fill:rgb(100%,0%,0%);fill-opacity:1;stroke-width:0.3985;stroke-linecap:butt;stroke-linejoin:miter;stroke:rgb(100%,0%,0%);stroke-opacity:1;stroke-miterlimit:10;" d="M 121.894375 7.088625 C 121.894375 7.869875 121.256875 8.50425 120.475625 8.50425 C 119.69125 8.50425 119.056875 7.869875 119.056875 7.088625 C 119.056875 6.30425 119.69125 5.669875 120.475625 5.669875 C 121.256875 5.669875 121.894375 6.30425 121.894375 7.088625 Z M 121.894375 7.088625 " transform="matrix(1.25,0,0,-1.25,-2.66875,77.59125)"/>
<path style="fill:none;stroke-width:0.79701;stroke-linecap:butt;stroke-linejoin:miter;stroke:rgb(0%,100%,0%);stroke-opacity:1;stroke-miterlimit:10;" d="M 141.731875 -0.002 L 141.731875 52.02925 " transform="matrix(1.25,0,0,-1.25,-2.66875,77.59125)"/>
<path style=" stroke:none;fill-rule:nonzero;fill:rgb(0%,100%,0%);fill-opacity:1;" d="M 174.496094 6.722656 C 174.175781 8.453125 173.203125 11.253906 172.070312 13.199219 L 176.929688 13.199219 C 175.796875 11.253906 174.824219 8.453125 174.496094 6.722656 "/>
<path style=" stroke:none;fill-rule:nonzero;fill:rgb(0%,100%,0%);fill-opacity:1;" d="M 191.554688 11.824219 L 191.554688 11.296875 L 190.148438 11.335938 L 188.761719 11.296875 L 188.761719 11.824219 L 189.035156 11.824219 C 189.289062 11.824219 189.328125 11.824219 189.5625 11.84375 C 189.816406 11.882812 189.835938 11.882812 189.835938 12.078125 L 189.835938 15.828125 C 189.835938 17.214844 188.800781 17.761719 187.570312 17.761719 C 185.734375 17.761719 185.714844 16.433594 185.714844 15.886719 L 185.714844 11.824219 L 186.789062 11.824219 L 186.789062 11.296875 C 186.417969 11.335938 185.402344 11.335938 184.972656 11.335938 C 184.542969 11.335938 183.527344 11.335938 183.15625 11.296875 L 183.15625 11.824219 L 184.230469 11.824219 L 184.230469 15.828125 C 184.230469 17.15625 185.34375 18.269531 187.53125 18.269531 C 189.621094 18.269531 190.480469 17.058594 190.480469 15.847656 L 190.480469 12.078125 C 190.480469 11.882812 190.5 11.863281 190.773438 11.84375 C 190.910156 11.824219 191.203125 11.824219 191.28125 11.824219 L 191.554688 11.824219 Z M 191.554688 11.824219 "/>
<path style=" stroke:none;fill-rule:nonzero;fill:rgb(0%,100%,0%);fill-opacity:1;" d="M 199.460938 19.769531 L 199.460938 19.320312 L 198.660156 19.320312 L 198.660156 15.082031 L 199.460938 15.082031 L 199.460938 14.632812 L 198.09375 14.671875 C 198.054688 14.671875 197.058594 14.652344 196.726562 14.632812 L 196.726562 15.082031 L 197.527344 15.082031 L 197.527344 16.878906 L 194.5 16.878906 L 194.5 15.082031 L 195.300781 15.082031 L 195.300781 14.632812 L 193.933594 14.671875 C 193.894531 14.671875 192.898438 14.652344 192.566406 14.632812 L 192.566406 15.082031 L 193.367188 15.082031 L 193.367188 19.320312 L 192.566406 19.320312 L 192.566406 19.769531 L 193.933594 19.730469 C 193.972656 19.730469 194.96875 19.75 195.300781 19.769531 L 195.300781 19.320312 L 194.5 19.320312 L 194.5 17.328125 L 197.527344 17.328125 L 197.527344 19.320312 L 196.726562 19.320312 L 196.726562 19.769531 L 198.09375 19.730469 C 198.132812 19.730469 199.128906 19.75 199.460938 19.769531 Z M 199.460938 19.769531 "/>
</g>
</svg>
