<?xml version="1.0" encoding="UTF-8"?>
<!-- Converted by misc2svg (http://www.network-science.de/tools/misc2svg/) -->
<svg xmlns="http://www.w3.org/2000/svg" xmlns:xlink="http://www.w3.org/1999/xlink" width="77pt" height="77pt" viewBox="0 0 77 77" version="1.1">
<g id="misc2svg">
<path style="fill:none;stroke-width:0.79701;stroke-linecap:butt;stroke-linejoin:miter;stroke:rgb(0%,0%,0%);stroke-opacity:1;stroke-miterlimit:10;" d="M -0.001875 0.000875 L 51.02625 0.000875 L 51.02625 51.025875 L -0.001875 51.025875 L -0.001875 0.000875 Z M -0.001875 0.000875 " transform="matrix(1.25,0,0,-1.25,6.725,70.505)"/>
<path style="fill:none;stroke-width:0.79701;stroke-linecap:butt;stroke-linejoin:miter;stroke:rgb(0%,0%,0%);stroke-opacity:1;stroke-miterlimit:10;" d="M 8.504375 34.0165 L 42.523125 34.0165 L 42.523125 42.519625 L 8.504375 42.519625 L 8.504375 34.0165 Z M 8.504375 34.0165 " transform="matrix(1.25,0,0,-1.25,6.725,70.505)"/>
<path style="fill:none;stroke-width:0.3985;stroke-linecap:butt;stroke-linejoin:miter;stroke:rgb(0%,0%,0%);stroke-opacity:1;stroke-miterlimit:10;" d="M 19.135625 17.01025 C 19.135625 18.182125 18.1825 19.13525 17.0075 19.13525 C 15.835625 19.13525 14.8825 18.182125 14.8825 17.01025 C 14.8825 15.832125 15.835625 14.879 17.0075 14.879 C 18.1825 14.879 19.135625 15.832125 19.135625 17.01025 Z M 19.135625 17.01025 " transform="matrix(1.25,0,0,-1.25,6.725,70.505)"/>
<path style=" stroke:none;fill-rule:nonzero;fill:rgb(0%,0%,0%);fill-opacity:1;" d="M 27.035156 62.117188 C 27.035156 61.394531 26.410156 60.808594 25.414062 60.691406 C 26.566406 60.476562 27.5625 59.714844 27.5625 58.835938 C 27.5625 58.09375 26.839844 57.449219 25.589844 57.449219 L 22.113281 57.449219 C 21.9375 57.449219 21.800781 57.449219 21.800781 57.625 C 21.800781 57.78125 21.917969 57.78125 22.09375 57.78125 C 22.425781 57.78125 22.71875 57.78125 22.71875 57.9375 C 22.71875 57.976562 22.699219 57.976562 22.679688 58.113281 L 21.332031 63.464844 C 21.253906 63.835938 21.234375 63.914062 20.492188 63.914062 C 20.296875 63.914062 20.179688 63.914062 20.179688 64.109375 C 20.179688 64.246094 20.316406 64.246094 20.472656 64.246094 L 24.183594 64.246094 C 25.824219 64.246094 27.035156 63.074219 27.035156 62.117188 Z M 26.644531 58.816406 C 26.644531 59.65625 25.726562 60.574219 24.457031 60.574219 L 22.894531 60.574219 L 23.5 58.132812 C 23.578125 57.800781 23.597656 57.78125 24.007812 57.78125 L 25.433594 57.78125 C 26.410156 57.78125 26.644531 58.40625 26.644531 58.816406 Z M 26.078125 62.039062 C 26.078125 63.015625 25.121094 63.914062 23.929688 63.914062 L 22.210938 63.914062 C 22.113281 63.894531 22.074219 63.894531 22.074219 63.835938 C 22.074219 63.757812 22.09375 63.660156 22.113281 63.601562 L 22.816406 60.847656 L 24.847656 60.847656 C 25.765625 60.847656 26.078125 61.472656 26.078125 62.039062 Z M 26.078125 62.039062 "/>
<path style=" stroke:none;fill-rule:nonzero;fill:rgb(0%,0%,0%);fill-opacity:1;" d="M 34.140625 65.726562 C 34.140625 65.628906 34.023438 65.628906 33.925781 65.628906 C 33.457031 65.628906 33.417969 65.550781 33.339844 65.414062 L 32.109375 63.167969 L 32.070312 63.070312 C 32.070312 63.070312 32.070312 63.070312 32.226562 62.914062 L 33.4375 61.742188 C 33.632812 61.566406 33.886719 61.390625 33.964844 61.351562 C 34.257812 61.175781 34.511719 61.117188 34.765625 61.117188 C 34.882812 61.097656 34.980469 61.097656 34.980469 60.921875 C 34.980469 60.882812 34.921875 60.804688 34.863281 60.804688 C 34.628906 60.804688 34.355469 60.84375 34.121094 60.84375 L 33.671875 60.84375 C 33.535156 60.84375 33.378906 60.804688 33.222656 60.804688 C 33.183594 60.804688 33.066406 60.804688 33.066406 61 C 33.066406 61.097656 33.164062 61.117188 33.203125 61.117188 C 33.300781 61.117188 33.4375 61.15625 33.4375 61.292969 C 33.4375 61.390625 33.359375 61.449219 33.144531 61.683594 L 32.519531 62.25 C 32.480469 62.308594 32.011719 62.757812 31.914062 62.816406 L 31.132812 61.371094 L 31.09375 61.273438 C 31.09375 61.234375 31.25 61.117188 31.464844 61.117188 C 31.542969 61.117188 31.640625 61.097656 31.640625 60.921875 C 31.640625 60.902344 31.640625 60.804688 31.503906 60.804688 C 31.347656 60.804688 31.171875 60.84375 31.015625 60.84375 L 30.507812 60.84375 C 30.351562 60.84375 30.214844 60.84375 30.058594 60.84375 C 29.902344 60.84375 29.746094 60.804688 29.609375 60.804688 C 29.53125 60.804688 29.433594 60.84375 29.433594 61 C 29.433594 61.117188 29.53125 61.117188 29.6875 61.117188 C 30.117188 61.117188 30.15625 61.195312 30.234375 61.3125 L 31.347656 63.363281 C 31.191406 63.5 30.820312 63.851562 30.566406 64.105469 C 29.316406 65.316406 29.042969 65.589844 28.320312 65.628906 C 28.222656 65.628906 28.125 65.628906 28.125 65.804688 C 28.125 65.863281 28.164062 65.921875 28.242188 65.921875 C 28.457031 65.921875 28.730469 65.882812 28.964844 65.882812 C 29.179688 65.882812 29.667969 65.921875 29.863281 65.921875 C 29.902344 65.921875 30.039062 65.921875 30.039062 65.726562 C 30.039062 65.628906 29.941406 65.628906 29.902344 65.628906 C 29.785156 65.609375 29.648438 65.570312 29.648438 65.453125 C 29.648438 65.414062 29.667969 65.375 29.746094 65.277344 C 29.746094 65.257812 29.785156 65.21875 29.785156 65.21875 L 31.484375 63.617188 L 32.441406 65.355469 C 32.480469 65.414062 32.5 65.453125 32.5 65.453125 C 32.5 65.511719 32.34375 65.609375 32.109375 65.628906 C 32.050781 65.628906 31.933594 65.628906 31.933594 65.804688 C 31.933594 65.824219 31.953125 65.921875 32.070312 65.921875 C 32.226562 65.921875 32.402344 65.902344 32.558594 65.902344 L 33.066406 65.882812 C 33.222656 65.882812 33.359375 65.902344 33.515625 65.902344 C 33.671875 65.902344 33.828125 65.921875 33.964844 65.921875 C 34.0625 65.921875 34.140625 65.882812 34.140625 65.726562 Z M 34.140625 65.726562 "/>
<path style="fill:none;stroke-width:0.3985;stroke-linecap:butt;stroke-linejoin:miter;stroke:rgb(0%,0%,0%);stroke-opacity:1;stroke-miterlimit:10;" d="M 36.141875 17.01025 C 36.141875 18.182125 35.18875 19.13525 34.016875 19.13525 C 32.841875 19.13525 31.88875 18.182125 31.88875 17.01025 C 31.88875 15.832125 32.841875 14.879 34.016875 14.879 C 35.18875 14.879 36.141875 15.832125 36.141875 17.01025 Z M 36.141875 17.01025 " transform="matrix(1.25,0,0,-1.25,6.725,70.505)"/>
<path style=" stroke:none;fill-rule:nonzero;fill:rgb(0%,0%,0%);fill-opacity:1;" d="M 48.9375 62.117188 C 48.9375 61.394531 48.3125 60.808594 47.316406 60.691406 C 48.46875 60.476562 49.464844 59.714844 49.464844 58.835938 C 49.464844 58.09375 48.742188 57.449219 47.492188 57.449219 L 44.015625 57.449219 C 43.839844 57.449219 43.703125 57.449219 43.703125 57.625 C 43.703125 57.78125 43.820312 57.78125 43.996094 57.78125 C 44.328125 57.78125 44.621094 57.78125 44.621094 57.9375 C 44.621094 57.976562 44.601562 57.976562 44.582031 58.113281 L 43.234375 63.464844 C 43.15625 63.835938 43.136719 63.914062 42.394531 63.914062 C 42.199219 63.914062 42.082031 63.914062 42.082031 64.109375 C 42.082031 64.246094 42.21875 64.246094 42.375 64.246094 L 46.085938 64.246094 C 47.726562 64.246094 48.9375 63.074219 48.9375 62.117188 Z M 48.546875 58.816406 C 48.546875 59.65625 47.628906 60.574219 46.359375 60.574219 L 44.796875 60.574219 L 45.402344 58.132812 C 45.480469 57.800781 45.5 57.78125 45.910156 57.78125 L 47.335938 57.78125 C 48.3125 57.78125 48.546875 58.40625 48.546875 58.816406 Z M 47.980469 62.039062 C 47.980469 63.015625 47.023438 63.914062 45.832031 63.914062 L 44.113281 63.914062 C 44.015625 63.894531 43.976562 63.894531 43.976562 63.835938 C 43.976562 63.757812 43.996094 63.660156 44.015625 63.601562 L 44.71875 60.847656 L 46.75 60.847656 C 47.667969 60.847656 47.980469 61.472656 47.980469 62.039062 Z M 47.980469 62.039062 "/>
<path style=" stroke:none;fill-rule:nonzero;fill:rgb(0%,0%,0%);fill-opacity:1;" d="M 55.125 63.96875 C 55.125 63.890625 55.066406 63.851562 54.988281 63.851562 C 54.890625 63.851562 54.871094 63.910156 54.832031 64.007812 C 54.460938 65.101562 54.070312 65.609375 52.742188 65.609375 L 51.21875 65.609375 L 55.710938 61.136719 C 55.769531 61.097656 55.828125 61.019531 55.828125 60.902344 C 55.828125 60.804688 55.789062 60.804688 55.632812 60.804688 L 51.941406 60.804688 C 51.746094 60.804688 51.726562 60.804688 51.6875 60.980469 L 51.257812 62.328125 C 51.238281 62.367188 51.21875 62.425781 51.21875 62.445312 C 51.21875 62.5625 51.335938 62.5625 51.355469 62.5625 C 51.453125 62.5625 51.472656 62.542969 51.511719 62.40625 C 51.921875 61.292969 52.644531 61.117188 53.464844 61.117188 L 54.890625 61.117188 L 50.398438 65.570312 C 50.359375 65.609375 50.261719 65.707031 50.261719 65.824219 C 50.261719 65.921875 50.320312 65.921875 50.457031 65.921875 L 54.441406 65.921875 C 54.5 65.882812 54.519531 65.863281 54.519531 65.863281 C 54.519531 65.863281 55.125 64.027344 55.125 63.96875 Z M 55.125 63.96875 "/>
</g>
</svg>
